<?xml version="1.0" encoding="utf-8" standalone="no"?>
<!DOCTYPE svg PUBLIC "-//W3C//DTD SVG 1.1//EN"
  "http://www.w3.org/Graphics/SVG/1.1/DTD/svg11.dtd">
<svg xmlns:xlink="http://www.w3.org/1999/xlink" width="576pt" height="432pt" viewBox="0 0 576 432" xmlns="http://www.w3.org/2000/svg" version="1.1">
 <metadata>
  <rdf:RDF xmlns:dc="http://purl.org/dc/elements/1.1/" xmlns:cc="http://creativecommons.org/ns#" xmlns:rdf="http://www.w3.org/1999/02/22-rdf-syntax-ns#">
   <cc:Work>
    <dc:type rdf:resource="http://purl.org/dc/dcmitype/StillImage"/>
    <dc:date>2025-05-08T10:54:49.305494</dc:date>
    <dc:format>image/svg+xml</dc:format>
    <dc:creator>
     <cc:Agent>
      <dc:title>Matplotlib v3.10.0, https://matplotlib.org/</dc:title>
     </cc:Agent>
    </dc:creator>
   </cc:Work>
  </rdf:RDF>
 </metadata>
 <defs>
  <style type="text/css">*{stroke-linejoin: round; stroke-linecap: butt}</style>
 </defs>
 <g id="figure_1">
  <g id="patch_1">
   <path d="M 0 432 
L 576 432 
L 576 0 
L 0 0 
z
" style="fill: #ffffff"/>
  </g>
  <g id="axes_1">
   <g id="patch_2">
    <path d="M 72 384.48 
L 518.4 384.48 
L 518.4 51.84 
L 72 51.84 
z
" style="fill: #ffffff"/>
   </g>
   <g id="matplotlib.axis_1">
    <g id="xtick_1">
     <g id="line2d_1">
      <path d="M 92.290909 384.48 
L 92.290909 51.84 
" clip-path="url(#pf468802275)" style="fill: none; stroke: #b0b0b0; stroke-width: 0.8; stroke-linecap: square"/>
     </g>
     <g id="line2d_2">
      <defs>
       <path id="m0e49cf3baa" d="M 0 0 
L 0 3.5 
" style="stroke: #000000; stroke-width: 0.8"/>
      </defs>
      <g>
       <use xlink:href="#m0e49cf3baa" x="92.290909" y="384.48" style="stroke: #000000; stroke-width: 0.8"/>
      </g>
     </g>
     <g id="text_1">
      <!-- 0 -->
      <g transform="translate(89.109659 399.078438) scale(0.1 -0.1)">
       <defs>
        <path id="DejaVuSans-30" d="M 2034 4250 
Q 1547 4250 1301 3770 
Q 1056 3291 1056 2328 
Q 1056 1369 1301 889 
Q 1547 409 2034 409 
Q 2525 409 2770 889 
Q 3016 1369 3016 2328 
Q 3016 3291 2770 3770 
Q 2525 4250 2034 4250 
z
M 2034 4750 
Q 2819 4750 3233 4129 
Q 3647 3509 3647 2328 
Q 3647 1150 3233 529 
Q 2819 -91 2034 -91 
Q 1250 -91 836 529 
Q 422 1150 422 2328 
Q 422 3509 836 4129 
Q 1250 4750 2034 4750 
z
" transform="scale(0.015625)"/>
       </defs>
       <use xlink:href="#DejaVuSans-30"/>
      </g>
     </g>
    </g>
    <g id="xtick_2">
     <g id="line2d_3">
      <path d="M 160.153481 384.48 
L 160.153481 51.84 
" clip-path="url(#pf468802275)" style="fill: none; stroke: #b0b0b0; stroke-width: 0.8; stroke-linecap: square"/>
     </g>
     <g id="line2d_4">
      <g>
       <use xlink:href="#m0e49cf3baa" x="160.153481" y="384.48" style="stroke: #000000; stroke-width: 0.8"/>
      </g>
     </g>
     <g id="text_2">
      <!-- 50 -->
      <g transform="translate(153.790981 399.078438) scale(0.1 -0.1)">
       <defs>
        <path id="DejaVuSans-35" d="M 691 4666 
L 3169 4666 
L 3169 4134 
L 1269 4134 
L 1269 2991 
Q 1406 3038 1543 3061 
Q 1681 3084 1819 3084 
Q 2600 3084 3056 2656 
Q 3513 2228 3513 1497 
Q 3513 744 3044 326 
Q 2575 -91 1722 -91 
Q 1428 -91 1123 -41 
Q 819 9 494 109 
L 494 744 
Q 775 591 1075 516 
Q 1375 441 1709 441 
Q 2250 441 2565 725 
Q 2881 1009 2881 1497 
Q 2881 1984 2565 2268 
Q 2250 2553 1709 2553 
Q 1456 2553 1204 2497 
Q 953 2441 691 2322 
L 691 4666 
z
" transform="scale(0.015625)"/>
       </defs>
       <use xlink:href="#DejaVuSans-35"/>
       <use xlink:href="#DejaVuSans-30" transform="translate(63.623047 0)"/>
      </g>
     </g>
    </g>
    <g id="xtick_3">
     <g id="line2d_5">
      <path d="M 228.016054 384.48 
L 228.016054 51.84 
" clip-path="url(#pf468802275)" style="fill: none; stroke: #b0b0b0; stroke-width: 0.8; stroke-linecap: square"/>
     </g>
     <g id="line2d_6">
      <g>
       <use xlink:href="#m0e49cf3baa" x="228.016054" y="384.48" style="stroke: #000000; stroke-width: 0.8"/>
      </g>
     </g>
     <g id="text_3">
      <!-- 100 -->
      <g transform="translate(218.472304 399.078438) scale(0.1 -0.1)">
       <defs>
        <path id="DejaVuSans-31" d="M 794 531 
L 1825 531 
L 1825 4091 
L 703 3866 
L 703 4441 
L 1819 4666 
L 2450 4666 
L 2450 531 
L 3481 531 
L 3481 0 
L 794 0 
L 794 531 
z
" transform="scale(0.015625)"/>
       </defs>
       <use xlink:href="#DejaVuSans-31"/>
       <use xlink:href="#DejaVuSans-30" transform="translate(63.623047 0)"/>
       <use xlink:href="#DejaVuSans-30" transform="translate(127.246094 0)"/>
      </g>
     </g>
    </g>
    <g id="xtick_4">
     <g id="line2d_7">
      <path d="M 295.878626 384.48 
L 295.878626 51.84 
" clip-path="url(#pf468802275)" style="fill: none; stroke: #b0b0b0; stroke-width: 0.8; stroke-linecap: square"/>
     </g>
     <g id="line2d_8">
      <g>
       <use xlink:href="#m0e49cf3baa" x="295.878626" y="384.48" style="stroke: #000000; stroke-width: 0.8"/>
      </g>
     </g>
     <g id="text_4">
      <!-- 150 -->
      <g transform="translate(286.334876 399.078438) scale(0.1 -0.1)">
       <use xlink:href="#DejaVuSans-31"/>
       <use xlink:href="#DejaVuSans-35" transform="translate(63.623047 0)"/>
       <use xlink:href="#DejaVuSans-30" transform="translate(127.246094 0)"/>
      </g>
     </g>
    </g>
    <g id="xtick_5">
     <g id="line2d_9">
      <path d="M 363.741198 384.48 
L 363.741198 51.84 
" clip-path="url(#pf468802275)" style="fill: none; stroke: #b0b0b0; stroke-width: 0.8; stroke-linecap: square"/>
     </g>
     <g id="line2d_10">
      <g>
       <use xlink:href="#m0e49cf3baa" x="363.741198" y="384.48" style="stroke: #000000; stroke-width: 0.8"/>
      </g>
     </g>
     <g id="text_5">
      <!-- 200 -->
      <g transform="translate(354.197448 399.078438) scale(0.1 -0.1)">
       <defs>
        <path id="DejaVuSans-32" d="M 1228 531 
L 3431 531 
L 3431 0 
L 469 0 
L 469 531 
Q 828 903 1448 1529 
Q 2069 2156 2228 2338 
Q 2531 2678 2651 2914 
Q 2772 3150 2772 3378 
Q 2772 3750 2511 3984 
Q 2250 4219 1831 4219 
Q 1534 4219 1204 4116 
Q 875 4013 500 3803 
L 500 4441 
Q 881 4594 1212 4672 
Q 1544 4750 1819 4750 
Q 2544 4750 2975 4387 
Q 3406 4025 3406 3419 
Q 3406 3131 3298 2873 
Q 3191 2616 2906 2266 
Q 2828 2175 2409 1742 
Q 1991 1309 1228 531 
z
" transform="scale(0.015625)"/>
       </defs>
       <use xlink:href="#DejaVuSans-32"/>
       <use xlink:href="#DejaVuSans-30" transform="translate(63.623047 0)"/>
       <use xlink:href="#DejaVuSans-30" transform="translate(127.246094 0)"/>
      </g>
     </g>
    </g>
    <g id="xtick_6">
     <g id="line2d_11">
      <path d="M 431.60377 384.48 
L 431.60377 51.84 
" clip-path="url(#pf468802275)" style="fill: none; stroke: #b0b0b0; stroke-width: 0.8; stroke-linecap: square"/>
     </g>
     <g id="line2d_12">
      <g>
       <use xlink:href="#m0e49cf3baa" x="431.60377" y="384.48" style="stroke: #000000; stroke-width: 0.8"/>
      </g>
     </g>
     <g id="text_6">
      <!-- 250 -->
      <g transform="translate(422.06002 399.078438) scale(0.1 -0.1)">
       <use xlink:href="#DejaVuSans-32"/>
       <use xlink:href="#DejaVuSans-35" transform="translate(63.623047 0)"/>
       <use xlink:href="#DejaVuSans-30" transform="translate(127.246094 0)"/>
      </g>
     </g>
    </g>
    <g id="xtick_7">
     <g id="line2d_13">
      <path d="M 499.466342 384.48 
L 499.466342 51.84 
" clip-path="url(#pf468802275)" style="fill: none; stroke: #b0b0b0; stroke-width: 0.8; stroke-linecap: square"/>
     </g>
     <g id="line2d_14">
      <g>
       <use xlink:href="#m0e49cf3baa" x="499.466342" y="384.48" style="stroke: #000000; stroke-width: 0.8"/>
      </g>
     </g>
     <g id="text_7">
      <!-- 300 -->
      <g transform="translate(489.922592 399.078438) scale(0.1 -0.1)">
       <defs>
        <path id="DejaVuSans-33" d="M 2597 2516 
Q 3050 2419 3304 2112 
Q 3559 1806 3559 1356 
Q 3559 666 3084 287 
Q 2609 -91 1734 -91 
Q 1441 -91 1130 -33 
Q 819 25 488 141 
L 488 750 
Q 750 597 1062 519 
Q 1375 441 1716 441 
Q 2309 441 2620 675 
Q 2931 909 2931 1356 
Q 2931 1769 2642 2001 
Q 2353 2234 1838 2234 
L 1294 2234 
L 1294 2753 
L 1863 2753 
Q 2328 2753 2575 2939 
Q 2822 3125 2822 3475 
Q 2822 3834 2567 4026 
Q 2313 4219 1838 4219 
Q 1578 4219 1281 4162 
Q 984 4106 628 3988 
L 628 4550 
Q 988 4650 1302 4700 
Q 1616 4750 1894 4750 
Q 2613 4750 3031 4423 
Q 3450 4097 3450 3541 
Q 3450 3153 3228 2886 
Q 3006 2619 2597 2516 
z
" transform="scale(0.015625)"/>
       </defs>
       <use xlink:href="#DejaVuSans-33"/>
       <use xlink:href="#DejaVuSans-30" transform="translate(63.623047 0)"/>
       <use xlink:href="#DejaVuSans-30" transform="translate(127.246094 0)"/>
      </g>
     </g>
    </g>
    <g id="text_8">
     <!-- Epoch -->
     <g transform="translate(279.889062 412.756563) scale(0.1 -0.1)">
      <defs>
       <path id="DejaVuSans-45" d="M 628 4666 
L 3578 4666 
L 3578 4134 
L 1259 4134 
L 1259 2753 
L 3481 2753 
L 3481 2222 
L 1259 2222 
L 1259 531 
L 3634 531 
L 3634 0 
L 628 0 
L 628 4666 
z
" transform="scale(0.015625)"/>
       <path id="DejaVuSans-70" d="M 1159 525 
L 1159 -1331 
L 581 -1331 
L 581 3500 
L 1159 3500 
L 1159 2969 
Q 1341 3281 1617 3432 
Q 1894 3584 2278 3584 
Q 2916 3584 3314 3078 
Q 3713 2572 3713 1747 
Q 3713 922 3314 415 
Q 2916 -91 2278 -91 
Q 1894 -91 1617 61 
Q 1341 213 1159 525 
z
M 3116 1747 
Q 3116 2381 2855 2742 
Q 2594 3103 2138 3103 
Q 1681 3103 1420 2742 
Q 1159 2381 1159 1747 
Q 1159 1113 1420 752 
Q 1681 391 2138 391 
Q 2594 391 2855 752 
Q 3116 1113 3116 1747 
z
" transform="scale(0.015625)"/>
       <path id="DejaVuSans-6f" d="M 1959 3097 
Q 1497 3097 1228 2736 
Q 959 2375 959 1747 
Q 959 1119 1226 758 
Q 1494 397 1959 397 
Q 2419 397 2687 759 
Q 2956 1122 2956 1747 
Q 2956 2369 2687 2733 
Q 2419 3097 1959 3097 
z
M 1959 3584 
Q 2709 3584 3137 3096 
Q 3566 2609 3566 1747 
Q 3566 888 3137 398 
Q 2709 -91 1959 -91 
Q 1206 -91 779 398 
Q 353 888 353 1747 
Q 353 2609 779 3096 
Q 1206 3584 1959 3584 
z
" transform="scale(0.015625)"/>
       <path id="DejaVuSans-63" d="M 3122 3366 
L 3122 2828 
Q 2878 2963 2633 3030 
Q 2388 3097 2138 3097 
Q 1578 3097 1268 2742 
Q 959 2388 959 1747 
Q 959 1106 1268 751 
Q 1578 397 2138 397 
Q 2388 397 2633 464 
Q 2878 531 3122 666 
L 3122 134 
Q 2881 22 2623 -34 
Q 2366 -91 2075 -91 
Q 1284 -91 818 406 
Q 353 903 353 1747 
Q 353 2603 823 3093 
Q 1294 3584 2113 3584 
Q 2378 3584 2631 3529 
Q 2884 3475 3122 3366 
z
" transform="scale(0.015625)"/>
       <path id="DejaVuSans-68" d="M 3513 2113 
L 3513 0 
L 2938 0 
L 2938 2094 
Q 2938 2591 2744 2837 
Q 2550 3084 2163 3084 
Q 1697 3084 1428 2787 
Q 1159 2491 1159 1978 
L 1159 0 
L 581 0 
L 581 4863 
L 1159 4863 
L 1159 2956 
Q 1366 3272 1645 3428 
Q 1925 3584 2291 3584 
Q 2894 3584 3203 3211 
Q 3513 2838 3513 2113 
z
" transform="scale(0.015625)"/>
      </defs>
      <use xlink:href="#DejaVuSans-45"/>
      <use xlink:href="#DejaVuSans-70" transform="translate(63.183594 0)"/>
      <use xlink:href="#DejaVuSans-6f" transform="translate(126.660156 0)"/>
      <use xlink:href="#DejaVuSans-63" transform="translate(187.841797 0)"/>
      <use xlink:href="#DejaVuSans-68" transform="translate(242.822266 0)"/>
     </g>
    </g>
   </g>
   <g id="matplotlib.axis_2">
    <g id="ytick_1">
     <g id="line2d_15">
      <path d="M 72 373.609608 
L 518.4 373.609608 
" clip-path="url(#pf468802275)" style="fill: none; stroke: #b0b0b0; stroke-width: 0.8; stroke-linecap: square"/>
     </g>
     <g id="line2d_16">
      <defs>
       <path id="mcec2b98e39" d="M 0 0 
L -3.5 0 
" style="stroke: #000000; stroke-width: 0.8"/>
      </defs>
      <g>
       <use xlink:href="#mcec2b98e39" x="72" y="373.609608" style="stroke: #000000; stroke-width: 0.8"/>
      </g>
     </g>
     <g id="text_9">
      <!-- 0.0 -->
      <g transform="translate(49.096875 377.408826) scale(0.1 -0.1)">
       <defs>
        <path id="DejaVuSans-2e" d="M 684 794 
L 1344 794 
L 1344 0 
L 684 0 
L 684 794 
z
" transform="scale(0.015625)"/>
       </defs>
       <use xlink:href="#DejaVuSans-30"/>
       <use xlink:href="#DejaVuSans-2e" transform="translate(63.623047 0)"/>
       <use xlink:href="#DejaVuSans-30" transform="translate(95.410156 0)"/>
      </g>
     </g>
    </g>
    <g id="ytick_2">
     <g id="line2d_17">
      <path d="M 72 321.467182 
L 518.4 321.467182 
" clip-path="url(#pf468802275)" style="fill: none; stroke: #b0b0b0; stroke-width: 0.8; stroke-linecap: square"/>
     </g>
     <g id="line2d_18">
      <g>
       <use xlink:href="#mcec2b98e39" x="72" y="321.467182" style="stroke: #000000; stroke-width: 0.8"/>
      </g>
     </g>
     <g id="text_10">
      <!-- 0.2 -->
      <g transform="translate(49.096875 325.2664) scale(0.1 -0.1)">
       <use xlink:href="#DejaVuSans-30"/>
       <use xlink:href="#DejaVuSans-2e" transform="translate(63.623047 0)"/>
       <use xlink:href="#DejaVuSans-32" transform="translate(95.410156 0)"/>
      </g>
     </g>
    </g>
    <g id="ytick_3">
     <g id="line2d_19">
      <path d="M 72 269.324756 
L 518.4 269.324756 
" clip-path="url(#pf468802275)" style="fill: none; stroke: #b0b0b0; stroke-width: 0.8; stroke-linecap: square"/>
     </g>
     <g id="line2d_20">
      <g>
       <use xlink:href="#mcec2b98e39" x="72" y="269.324756" style="stroke: #000000; stroke-width: 0.8"/>
      </g>
     </g>
     <g id="text_11">
      <!-- 0.4 -->
      <g transform="translate(49.096875 273.123974) scale(0.1 -0.1)">
       <defs>
        <path id="DejaVuSans-34" d="M 2419 4116 
L 825 1625 
L 2419 1625 
L 2419 4116 
z
M 2253 4666 
L 3047 4666 
L 3047 1625 
L 3713 1625 
L 3713 1100 
L 3047 1100 
L 3047 0 
L 2419 0 
L 2419 1100 
L 313 1100 
L 313 1709 
L 2253 4666 
z
" transform="scale(0.015625)"/>
       </defs>
       <use xlink:href="#DejaVuSans-30"/>
       <use xlink:href="#DejaVuSans-2e" transform="translate(63.623047 0)"/>
       <use xlink:href="#DejaVuSans-34" transform="translate(95.410156 0)"/>
      </g>
     </g>
    </g>
    <g id="ytick_4">
     <g id="line2d_21">
      <path d="M 72 217.18233 
L 518.4 217.18233 
" clip-path="url(#pf468802275)" style="fill: none; stroke: #b0b0b0; stroke-width: 0.8; stroke-linecap: square"/>
     </g>
     <g id="line2d_22">
      <g>
       <use xlink:href="#mcec2b98e39" x="72" y="217.18233" style="stroke: #000000; stroke-width: 0.8"/>
      </g>
     </g>
     <g id="text_12">
      <!-- 0.6 -->
      <g transform="translate(49.096875 220.981548) scale(0.1 -0.1)">
       <defs>
        <path id="DejaVuSans-36" d="M 2113 2584 
Q 1688 2584 1439 2293 
Q 1191 2003 1191 1497 
Q 1191 994 1439 701 
Q 1688 409 2113 409 
Q 2538 409 2786 701 
Q 3034 994 3034 1497 
Q 3034 2003 2786 2293 
Q 2538 2584 2113 2584 
z
M 3366 4563 
L 3366 3988 
Q 3128 4100 2886 4159 
Q 2644 4219 2406 4219 
Q 1781 4219 1451 3797 
Q 1122 3375 1075 2522 
Q 1259 2794 1537 2939 
Q 1816 3084 2150 3084 
Q 2853 3084 3261 2657 
Q 3669 2231 3669 1497 
Q 3669 778 3244 343 
Q 2819 -91 2113 -91 
Q 1303 -91 875 529 
Q 447 1150 447 2328 
Q 447 3434 972 4092 
Q 1497 4750 2381 4750 
Q 2619 4750 2861 4703 
Q 3103 4656 3366 4563 
z
" transform="scale(0.015625)"/>
       </defs>
       <use xlink:href="#DejaVuSans-30"/>
       <use xlink:href="#DejaVuSans-2e" transform="translate(63.623047 0)"/>
       <use xlink:href="#DejaVuSans-36" transform="translate(95.410156 0)"/>
      </g>
     </g>
    </g>
    <g id="ytick_5">
     <g id="line2d_23">
      <path d="M 72 165.039903 
L 518.4 165.039903 
" clip-path="url(#pf468802275)" style="fill: none; stroke: #b0b0b0; stroke-width: 0.8; stroke-linecap: square"/>
     </g>
     <g id="line2d_24">
      <g>
       <use xlink:href="#mcec2b98e39" x="72" y="165.039903" style="stroke: #000000; stroke-width: 0.8"/>
      </g>
     </g>
     <g id="text_13">
      <!-- 0.8 -->
      <g transform="translate(49.096875 168.839122) scale(0.1 -0.1)">
       <defs>
        <path id="DejaVuSans-38" d="M 2034 2216 
Q 1584 2216 1326 1975 
Q 1069 1734 1069 1313 
Q 1069 891 1326 650 
Q 1584 409 2034 409 
Q 2484 409 2743 651 
Q 3003 894 3003 1313 
Q 3003 1734 2745 1975 
Q 2488 2216 2034 2216 
z
M 1403 2484 
Q 997 2584 770 2862 
Q 544 3141 544 3541 
Q 544 4100 942 4425 
Q 1341 4750 2034 4750 
Q 2731 4750 3128 4425 
Q 3525 4100 3525 3541 
Q 3525 3141 3298 2862 
Q 3072 2584 2669 2484 
Q 3125 2378 3379 2068 
Q 3634 1759 3634 1313 
Q 3634 634 3220 271 
Q 2806 -91 2034 -91 
Q 1263 -91 848 271 
Q 434 634 434 1313 
Q 434 1759 690 2068 
Q 947 2378 1403 2484 
z
M 1172 3481 
Q 1172 3119 1398 2916 
Q 1625 2713 2034 2713 
Q 2441 2713 2670 2916 
Q 2900 3119 2900 3481 
Q 2900 3844 2670 4047 
Q 2441 4250 2034 4250 
Q 1625 4250 1398 4047 
Q 1172 3844 1172 3481 
z
" transform="scale(0.015625)"/>
       </defs>
       <use xlink:href="#DejaVuSans-30"/>
       <use xlink:href="#DejaVuSans-2e" transform="translate(63.623047 0)"/>
       <use xlink:href="#DejaVuSans-38" transform="translate(95.410156 0)"/>
      </g>
     </g>
    </g>
    <g id="ytick_6">
     <g id="line2d_25">
      <path d="M 72 112.897477 
L 518.4 112.897477 
" clip-path="url(#pf468802275)" style="fill: none; stroke: #b0b0b0; stroke-width: 0.8; stroke-linecap: square"/>
     </g>
     <g id="line2d_26">
      <g>
       <use xlink:href="#mcec2b98e39" x="72" y="112.897477" style="stroke: #000000; stroke-width: 0.8"/>
      </g>
     </g>
     <g id="text_14">
      <!-- 1.0 -->
      <g transform="translate(49.096875 116.696696) scale(0.1 -0.1)">
       <use xlink:href="#DejaVuSans-31"/>
       <use xlink:href="#DejaVuSans-2e" transform="translate(63.623047 0)"/>
       <use xlink:href="#DejaVuSans-30" transform="translate(95.410156 0)"/>
      </g>
     </g>
    </g>
    <g id="ytick_7">
     <g id="line2d_27">
      <path d="M 72 60.755051 
L 518.4 60.755051 
" clip-path="url(#pf468802275)" style="fill: none; stroke: #b0b0b0; stroke-width: 0.8; stroke-linecap: square"/>
     </g>
     <g id="line2d_28">
      <g>
       <use xlink:href="#mcec2b98e39" x="72" y="60.755051" style="stroke: #000000; stroke-width: 0.8"/>
      </g>
     </g>
     <g id="text_15">
      <!-- 1.2 -->
      <g transform="translate(49.096875 64.55427) scale(0.1 -0.1)">
       <use xlink:href="#DejaVuSans-31"/>
       <use xlink:href="#DejaVuSans-2e" transform="translate(63.623047 0)"/>
       <use xlink:href="#DejaVuSans-32" transform="translate(95.410156 0)"/>
      </g>
     </g>
    </g>
    <g id="text_16">
     <!-- Loss -->
     <g transform="translate(43.017187 229.127187) rotate(-90) scale(0.1 -0.1)">
      <defs>
       <path id="DejaVuSans-4c" d="M 628 4666 
L 1259 4666 
L 1259 531 
L 3531 531 
L 3531 0 
L 628 0 
L 628 4666 
z
" transform="scale(0.015625)"/>
       <path id="DejaVuSans-73" d="M 2834 3397 
L 2834 2853 
Q 2591 2978 2328 3040 
Q 2066 3103 1784 3103 
Q 1356 3103 1142 2972 
Q 928 2841 928 2578 
Q 928 2378 1081 2264 
Q 1234 2150 1697 2047 
L 1894 2003 
Q 2506 1872 2764 1633 
Q 3022 1394 3022 966 
Q 3022 478 2636 193 
Q 2250 -91 1575 -91 
Q 1294 -91 989 -36 
Q 684 19 347 128 
L 347 722 
Q 666 556 975 473 
Q 1284 391 1588 391 
Q 1994 391 2212 530 
Q 2431 669 2431 922 
Q 2431 1156 2273 1281 
Q 2116 1406 1581 1522 
L 1381 1569 
Q 847 1681 609 1914 
Q 372 2147 372 2553 
Q 372 3047 722 3315 
Q 1072 3584 1716 3584 
Q 2034 3584 2315 3537 
Q 2597 3491 2834 3397 
z
" transform="scale(0.015625)"/>
      </defs>
      <use xlink:href="#DejaVuSans-4c"/>
      <use xlink:href="#DejaVuSans-6f" transform="translate(53.962891 0)"/>
      <use xlink:href="#DejaVuSans-73" transform="translate(115.144531 0)"/>
      <use xlink:href="#DejaVuSans-73" transform="translate(167.244141 0)"/>
     </g>
    </g>
   </g>
   <g id="line2d_29">
    <path d="M 92.290909 66.96 
L 93.648161 249.249922 
L 95.005412 259.808763 
L 96.362663 269.455112 
L 97.719915 277.406832 
L 99.077166 282.073579 
L 100.434418 288.096029 
L 101.791669 289.347447 
L 103.148921 293.179916 
L 104.506172 292.293494 
L 105.863424 301.626989 
L 107.220675 303.478045 
L 108.577926 304.911961 
L 109.935178 305.016246 
L 111.292429 302.30484 
L 112.649681 309.317996 
L 114.006932 313.228678 
L 115.364184 315.340447 
L 116.721435 315.392589 
L 118.078687 313.411177 
L 119.435938 315.575088 
L 120.793189 320.293977 
L 122.150441 318.103995 
L 123.507692 320.528618 
L 124.864944 322.405745 
L 126.222195 324.700012 
L 127.579447 321.102185 
L 128.936698 321.076113 
L 130.29395 324.335015 
L 133.008452 326.186071 
L 134.365704 326.968208 
L 135.722955 329.783899 
L 138.437458 328.793193 
L 139.79471 328.871406 
L 141.151961 327.984985 
L 142.509213 331.348171 
L 143.866464 333.381726 
L 146.580967 334.398503 
L 147.938218 333.147085 
L 149.29547 336.171346 
L 150.652721 337.214194 
L 152.009973 333.877079 
L 153.367224 338.335256 
L 154.724476 338.491684 
L 156.081727 339.430247 
L 157.438978 340.160241 
L 158.79623 340.394882 
L 160.153481 338.126687 
L 161.510733 341.124876 
L 162.867984 343.57557 
L 164.225236 342.663078 
L 165.582487 342.219867 
L 166.939739 343.888425 
L 168.29699 344.592348 
L 169.654241 347.199469 
L 171.011493 346.495546 
L 172.368744 344.696632 
L 173.725996 345.948051 
L 175.083247 344.85306 
L 176.440499 345.400555 
L 177.79775 346.834472 
L 179.155002 347.043042 
L 180.512253 347.955534 
L 181.869504 345.452698 
L 183.226756 348.111961 
L 184.584007 347.825178 
L 185.941259 348.581243 
L 187.29851 348.868027 
L 188.655762 348.007677 
L 190.013013 349.389451 
L 191.370265 351.683718 
L 192.727516 352.048715 
L 194.084767 353.221919 
L 195.442019 351.005866 
L 196.79927 349.415522 
L 198.156522 349.858733 
L 199.513773 352.544068 
L 200.871025 351.866216 
L 202.228276 353.039421 
L 204.942779 354.31691 
L 206.30003 354.31691 
L 209.014533 355.38583 
L 210.371785 355.020833 
L 211.729036 355.464043 
L 213.086288 356.376536 
L 214.443539 357.10653 
L 215.800791 356.663319 
L 217.158042 355.724756 
L 218.515293 356.950103 
L 219.872545 355.82904 
L 221.229796 355.203331 
L 222.587048 356.402607 
L 223.944299 356.89796 
L 225.301551 353.091563 
L 226.658802 356.506892 
L 228.016054 357.810453 
L 229.373305 356.402607 
L 230.730556 356.68939 
L 232.087808 358.592589 
L 233.445059 358.071165 
L 234.802311 358.514375 
L 236.159562 359.47901 
L 237.516814 357.940809 
L 238.874065 356.637248 
L 240.231317 358.722945 
L 241.588568 357.96688 
L 242.945819 359.270441 
L 245.660322 359.609366 
L 247.017574 359.47901 
L 248.374825 360.417574 
L 249.732077 360.469716 
L 251.089328 360.391503 
L 252.44658 358.82723 
L 253.803831 359.296512 
L 255.161082 361.251853 
L 256.518334 358.592589 
L 257.875585 358.82723 
L 259.232837 360.182933 
L 260.590088 360.626144 
L 261.94734 360.860785 
L 263.304591 359.348654 
L 264.661843 362.007918 
L 268.733597 360.33936 
L 270.090848 361.460422 
L 271.4481 361.564707 
L 272.805351 361.121497 
L 274.162603 361.19971 
L 275.519854 360.860785 
L 276.877106 361.512565 
L 278.234357 361.61685 
L 279.591608 363.050766 
L 280.94886 362.451129 
L 283.663363 362.294701 
L 285.020614 363.233265 
L 286.377866 361.825419 
L 287.735117 365.788244 
L 289.092369 366.909306 
L 290.44962 366.57038 
L 291.806871 366.77895 
L 294.521374 367.613229 
L 295.878626 367.482873 
L 297.235877 367.482873 
L 298.593129 367.717514 
L 299.95038 367.404659 
L 301.307631 367.43073 
L 302.664883 367.300374 
L 304.022134 367.43073 
L 305.379386 367.900012 
L 306.736637 367.378588 
L 308.093889 367.743585 
L 309.45114 367.795727 
L 310.808392 367.535015 
L 312.165643 367.6393 
L 313.522894 367.926083 
L 314.880146 367.926083 
L 316.237397 367.508944 
L 317.594649 368.265009 
L 318.9519 367.665371 
L 321.666403 368.082511 
L 323.023655 367.326445 
L 324.380906 367.665371 
L 327.095409 368.108582 
L 328.45266 368.030368 
L 329.809912 367.456801 
L 331.167163 367.508944 
L 332.524415 368.030368 
L 335.238918 367.665371 
L 336.596169 367.691442 
L 337.95342 368.056439 
L 339.310672 368.056439 
L 340.667923 368.212867 
L 342.025175 368.186795 
L 343.382426 368.343223 
L 344.739678 368.343223 
L 346.096929 368.186795 
L 347.454181 368.421436 
L 348.811432 368.160724 
L 350.168683 368.421436 
L 351.525935 368.030368 
L 352.883186 367.769656 
L 354.240438 367.84787 
L 355.597689 368.134653 
L 356.954941 368.603935 
L 358.312192 368.369294 
L 359.669444 368.630006 
L 361.026695 368.238938 
L 362.383946 368.056439 
L 363.741198 368.49965 
L 365.098449 368.082511 
L 366.455701 368.238938 
L 369.170204 368.134653 
L 370.527455 368.29108 
L 371.884707 368.030368 
L 373.241958 368.369294 
L 374.599209 367.873941 
L 375.956461 368.551792 
L 377.313712 368.682148 
L 378.670964 368.134653 
L 380.028215 368.395365 
L 381.385467 368.369294 
L 382.742718 368.682148 
L 384.09997 368.29108 
L 385.457221 368.70822 
L 389.528975 368.317151 
L 390.886227 368.70822 
L 392.243478 368.160724 
L 394.957981 368.525721 
L 396.315233 368.577864 
L 397.672484 368.447508 
L 399.029735 368.551792 
L 400.386987 368.369294 
L 401.744238 368.395365 
L 403.10149 368.682148 
L 404.458741 368.734291 
L 405.815993 368.473579 
L 407.173244 368.525721 
L 408.530496 368.447508 
L 409.887747 368.238938 
L 411.244998 369.099288 
L 412.60225 368.734291 
L 416.674004 368.369294 
L 418.031256 368.577864 
L 419.388507 368.473579 
L 420.745759 368.838576 
L 423.460261 368.630006 
L 424.817513 368.108582 
L 427.532016 368.838576 
L 428.889267 368.317151 
L 430.246519 368.473579 
L 431.60377 368.812505 
L 432.961022 368.786433 
L 434.318273 368.551792 
L 435.675524 368.812505 
L 437.032776 368.838576 
L 438.390027 369.099288 
L 439.747279 368.577864 
L 441.10453 368.942861 
L 442.461782 368.942861 
L 443.819033 368.49965 
L 445.176285 369.047145 
L 446.533536 368.317151 
L 453.319793 369.203573 
L 454.677045 368.916789 
L 456.034296 369.021074 
L 457.391548 368.630006 
L 458.748799 369.021074 
L 461.463302 369.177502 
L 462.820553 368.942861 
L 465.535056 369.099288 
L 466.892308 368.864647 
L 468.249559 368.49965 
L 469.606811 368.812505 
L 470.964062 368.682148 
L 472.321313 368.682148 
L 473.678565 368.551792 
L 475.035816 368.968932 
L 476.393068 369.177502 
L 479.107571 369.021074 
L 480.464822 368.916789 
L 481.822074 368.473579 
L 483.179325 368.395365 
L 484.536576 368.473579 
L 485.893828 369.36 
L 487.251079 368.70822 
L 488.608331 369.021074 
L 489.965582 368.942861 
L 491.322834 369.073217 
L 494.037337 368.916789 
L 495.394588 369.203573 
L 498.109091 368.473579 
L 498.109091 368.473579 
" clip-path="url(#pf468802275)" style="fill: none; stroke: #1f77b4; stroke-width: 1.5; stroke-linecap: square"/>
   </g>
   <g id="line2d_30">
    <path d="M 92.290909 226.150827 
L 93.648161 251.127049 
L 95.005412 259.548051 
L 96.362663 269.376898 
L 97.719915 286.922824 
L 99.077166 244.817815 
L 100.434418 234.936826 
L 101.791669 289.999228 
L 103.148921 272.714013 
L 104.506172 283.455353 
L 105.863424 296.152034 
L 107.220675 310.647628 
L 108.577926 296.986313 
L 109.935178 284.524273 
L 111.292429 289.39959 
L 112.649681 308.874786 
L 114.006932 305.276958 
L 115.364184 280.092167 
L 116.721435 305.433386 
L 118.078687 292.554206 
L 119.435938 303.295546 
L 120.793189 300.79271 
L 122.150441 317.660785 
L 123.507692 308.353361 
L 124.864944 304.729463 
L 126.222195 250.162414 
L 127.579447 299.958431 
L 128.936698 111.8807 
L 130.29395 315.705444 
L 131.651201 276.702909 
L 133.008452 297.742378 
L 134.365704 313.932601 
L 135.722955 311.899046 
L 137.080207 268.646904 
L 138.437458 294.56169 
L 139.79471 317.99971 
L 141.151961 311.638334 
L 142.509213 289.347447 
L 143.866464 320.13755 
L 145.223715 260.408401 
L 146.580967 318.86006 
L 147.938218 293.414556 
L 149.29547 316.409366 
L 150.652721 297.638093 
L 152.009973 307.46694 
L 153.367224 302.669837 
L 154.724476 316.878648 
L 156.081727 303.999469 
L 157.438978 319.511841 
L 158.79623 271.619022 
L 160.153481 317.243645 
L 161.510733 309.239783 
L 162.867984 318.077924 
L 164.225236 297.585951 
L 165.582487 317.895425 
L 166.939739 318.390779 
L 168.29699 304.911961 
L 169.654241 310.021919 
L 171.011493 306.867302 
L 172.368744 305.980881 
L 173.725996 297.325238 
L 175.083247 147.858974 
L 176.440499 309.813349 
L 177.79775 310.517272 
L 179.155002 310.360845 
L 180.512253 280.040024 
L 181.869504 307.049801 
L 183.226756 314.375812 
L 184.584007 306.241593 
L 185.941259 317.738998 
L 187.29851 308.926928 
L 188.655762 298.915582 
L 190.013013 316.226868 
L 191.370265 314.532239 
L 192.727516 297.455594 
L 194.084767 302.852336 
L 195.442019 298.915582 
L 196.79927 318.625419 
L 198.156522 314.76688 
L 199.513773 309.161569 
L 200.871025 318.573277 
L 202.228276 319.590054 
L 203.585528 317.765069 
L 204.942779 319.042559 
L 206.30003 293.49277 
L 207.657282 287.652818 
L 209.014533 320.372191 
L 210.371785 321.388968 
L 211.729036 317.374001 
L 213.086288 325.351792 
L 214.443539 320.711116 
L 215.800791 324.100374 
L 217.158042 308.770501 
L 218.515293 318.625419 
L 219.872545 302.409125 
L 221.229796 305.563742 
L 222.587048 318.468992 
L 223.944299 317.608642 
L 225.301551 284.367846 
L 226.658802 327.22892 
L 228.016054 298.680941 
L 229.373305 321.884321 
L 230.730556 321.519324 
L 232.087808 324.282873 
L 233.445059 319.746482 
L 234.802311 320.476476 
L 236.159562 320.476476 
L 237.516814 320.763259 
L 238.874065 317.400072 
L 240.231317 320.502547 
L 241.588568 327.67213 
L 242.945819 319.72041 
L 244.303071 313.306892 
L 245.660322 320.476476 
L 247.017574 325.716789 
L 248.374825 318.599348 
L 249.732077 321.753965 
L 251.089328 317.608642 
L 252.44658 320.971829 
L 253.803831 323.318238 
L 255.161082 318.338636 
L 256.518334 314.792951 
L 259.232837 325.325721 
L 260.590088 314.401883 
L 261.94734 319.955051 
L 263.304591 322.145033 
L 264.661843 307.049801 
L 266.019094 323.891804 
L 267.376345 317.5565 
L 268.733597 325.821074 
L 270.090848 323.78752 
L 271.4481 323.996089 
L 272.805351 323.37038 
L 274.162603 320.007194 
L 275.519854 323.266095 
L 276.877106 324.830368 
L 278.234357 319.459698 
L 279.591608 326.212142 
L 280.94886 317.400072 
L 282.306111 322.275389 
L 283.663363 319.955051 
L 285.020614 319.72041 
L 286.377866 321.753965 
L 287.735117 327.098564 
L 289.092369 327.698202 
L 290.44962 326.107858 
L 291.806871 327.202849 
L 293.164123 326.316427 
L 294.521374 327.541774 
L 295.878626 327.124635 
L 297.235877 327.150706 
L 298.593129 326.133929 
L 299.95038 325.847145 
L 301.307631 326.942136 
L 302.664883 326.994279 
L 304.022134 325.716789 
L 305.379386 327.463561 
L 306.736637 325.638576 
L 308.093889 325.351792 
L 309.45114 327.541774 
L 310.808392 326.238214 
L 312.165643 327.02035 
L 313.522894 325.847145 
L 314.880146 326.863923 
L 316.237397 327.176777 
L 317.594649 326.785709 
L 318.9519 326.759638 
L 320.309152 326.186071 
L 321.666403 326.603211 
L 323.023655 327.254991 
L 324.380906 327.489632 
L 325.738157 326.186071 
L 327.095409 327.776415 
L 328.45266 325.977502 
L 331.167163 325.925359 
L 332.524415 326.994279 
L 333.881666 323.57895 
L 335.238918 326.133929 
L 336.596169 327.176777 
L 337.95342 326.551068 
L 339.310672 326.733567 
L 340.667923 327.072492 
L 342.025175 326.577139 
L 343.382426 326.681424 
L 344.739678 326.629282 
L 346.096929 324.700012 
L 347.454181 326.837852 
L 348.811432 324.934653 
L 350.168683 327.176777 
L 351.525935 326.498926 
L 352.883186 326.942136 
L 354.240438 326.238214 
L 355.597689 326.394641 
L 356.954941 326.863923 
L 358.312192 325.977502 
L 359.669444 326.238214 
L 361.026695 326.655353 
L 362.383946 326.889994 
L 363.741198 326.81178 
L 365.098449 326.551068 
L 366.455701 327.202849 
L 367.812952 326.107858 
L 369.170204 326.837852 
L 370.527455 327.254991 
L 371.884707 324.986795 
L 373.241958 325.612505 
L 374.599209 325.325721 
L 375.956461 326.342498 
L 377.313712 326.524997 
L 378.670964 326.212142 
L 380.028215 326.446783 
L 381.385467 325.977502 
L 382.742718 326.655353 
L 384.09997 326.055715 
L 385.457221 325.95143 
L 386.814472 326.603211 
L 388.171724 325.273579 
L 390.886227 326.629282 
L 392.243478 325.403935 
L 393.60073 326.81178 
L 394.957981 326.186071 
L 396.315233 326.524997 
L 397.672484 326.472855 
L 399.029735 326.290356 
L 400.386987 326.81178 
L 401.744238 326.81178 
L 403.10149 324.960724 
L 404.458741 327.333205 
L 405.815993 325.716789 
L 407.173244 327.202849 
L 408.530496 327.463561 
L 409.887747 326.498926 
L 411.244998 326.655353 
L 412.60225 326.655353 
L 413.959501 322.796814 
L 415.316753 326.577139 
L 416.674004 326.863923 
L 418.031256 326.342498 
L 419.388507 326.524997 
L 420.745759 325.560362 
L 422.10301 323.761448 
L 423.460261 325.847145 
L 424.817513 326.603211 
L 426.174764 326.472855 
L 427.532016 326.003573 
L 428.889267 327.254991 
L 430.246519 326.420712 
L 431.60377 324.621798 
L 432.961022 326.707495 
L 434.318273 325.012867 
L 435.675524 326.238214 
L 437.032776 325.795003 
L 438.390027 325.117151 
L 439.747279 326.577139 
L 441.10453 325.09108 
L 442.461782 324.178588 
L 443.819033 326.081786 
L 445.176285 326.603211 
L 446.533536 326.394641 
L 447.890787 327.072492 
L 449.248039 326.655353 
L 450.60529 325.430006 
L 451.962542 325.899288 
L 453.319793 325.430006 
L 454.677045 326.36857 
L 456.034296 326.36857 
L 457.391548 325.169294 
L 461.463302 326.551068 
L 462.820553 325.795003 
L 464.177805 322.353603 
L 465.535056 325.50822 
L 466.892308 326.36857 
L 468.249559 325.534291 
L 469.606811 325.821074 
L 470.964062 325.612505 
L 472.321313 326.551068 
L 473.678565 326.759638 
L 475.035816 325.586433 
L 476.393068 326.055715 
L 477.750319 325.795003 
L 479.107571 325.143223 
L 480.464822 326.003573 
L 481.822074 325.456077 
L 483.179325 326.290356 
L 484.536576 326.133929 
L 485.893828 325.664647 
L 487.251079 326.36857 
L 488.608331 323.37038 
L 489.965582 325.560362 
L 491.322834 325.09108 
L 492.680085 325.95143 
L 494.037337 324.986795 
L 495.394588 325.325721 
L 496.751839 325.325721 
L 498.109091 325.716789 
L 498.109091 325.716789 
" clip-path="url(#pf468802275)" style="fill: none; stroke: #ff7f0e; stroke-width: 1.5; stroke-linecap: square"/>
   </g>
   <g id="LineCollection_1">
    <path d="M 92.290909 309.839421 
L 498.109091 309.839421 
" clip-path="url(#pf468802275)" style="fill: none; stroke-dasharray: 1.5,2.475; stroke-dashoffset: 0; stroke: #1f77b4; stroke-width: 1.5"/>
   </g>
   <g id="patch_3">
    <path d="M 72 384.48 
L 72 51.84 
" style="fill: none; stroke: #000000; stroke-width: 0.8; stroke-linejoin: miter; stroke-linecap: square"/>
   </g>
   <g id="patch_4">
    <path d="M 518.4 384.48 
L 518.4 51.84 
" style="fill: none; stroke: #000000; stroke-width: 0.8; stroke-linejoin: miter; stroke-linecap: square"/>
   </g>
   <g id="patch_5">
    <path d="M 72 384.48 
L 518.4 384.48 
" style="fill: none; stroke: #000000; stroke-width: 0.8; stroke-linejoin: miter; stroke-linecap: square"/>
   </g>
   <g id="patch_6">
    <path d="M 72 51.84 
L 518.4 51.84 
" style="fill: none; stroke: #000000; stroke-width: 0.8; stroke-linejoin: miter; stroke-linecap: square"/>
   </g>
   <g id="text_17">
    <!-- Training vs Validation Loss (running avg) -->
    <g transform="translate(173.656875 45.84) scale(0.12 -0.12)">
     <defs>
      <path id="DejaVuSans-54" d="M -19 4666 
L 3928 4666 
L 3928 4134 
L 2272 4134 
L 2272 0 
L 1638 0 
L 1638 4134 
L -19 4134 
L -19 4666 
z
" transform="scale(0.015625)"/>
      <path id="DejaVuSans-72" d="M 2631 2963 
Q 2534 3019 2420 3045 
Q 2306 3072 2169 3072 
Q 1681 3072 1420 2755 
Q 1159 2438 1159 1844 
L 1159 0 
L 581 0 
L 581 3500 
L 1159 3500 
L 1159 2956 
Q 1341 3275 1631 3429 
Q 1922 3584 2338 3584 
Q 2397 3584 2469 3576 
Q 2541 3569 2628 3553 
L 2631 2963 
z
" transform="scale(0.015625)"/>
      <path id="DejaVuSans-61" d="M 2194 1759 
Q 1497 1759 1228 1600 
Q 959 1441 959 1056 
Q 959 750 1161 570 
Q 1363 391 1709 391 
Q 2188 391 2477 730 
Q 2766 1069 2766 1631 
L 2766 1759 
L 2194 1759 
z
M 3341 1997 
L 3341 0 
L 2766 0 
L 2766 531 
Q 2569 213 2275 61 
Q 1981 -91 1556 -91 
Q 1019 -91 701 211 
Q 384 513 384 1019 
Q 384 1609 779 1909 
Q 1175 2209 1959 2209 
L 2766 2209 
L 2766 2266 
Q 2766 2663 2505 2880 
Q 2244 3097 1772 3097 
Q 1472 3097 1187 3025 
Q 903 2953 641 2809 
L 641 3341 
Q 956 3463 1253 3523 
Q 1550 3584 1831 3584 
Q 2591 3584 2966 3190 
Q 3341 2797 3341 1997 
z
" transform="scale(0.015625)"/>
      <path id="DejaVuSans-69" d="M 603 3500 
L 1178 3500 
L 1178 0 
L 603 0 
L 603 3500 
z
M 603 4863 
L 1178 4863 
L 1178 4134 
L 603 4134 
L 603 4863 
z
" transform="scale(0.015625)"/>
      <path id="DejaVuSans-6e" d="M 3513 2113 
L 3513 0 
L 2938 0 
L 2938 2094 
Q 2938 2591 2744 2837 
Q 2550 3084 2163 3084 
Q 1697 3084 1428 2787 
Q 1159 2491 1159 1978 
L 1159 0 
L 581 0 
L 581 3500 
L 1159 3500 
L 1159 2956 
Q 1366 3272 1645 3428 
Q 1925 3584 2291 3584 
Q 2894 3584 3203 3211 
Q 3513 2838 3513 2113 
z
" transform="scale(0.015625)"/>
      <path id="DejaVuSans-67" d="M 2906 1791 
Q 2906 2416 2648 2759 
Q 2391 3103 1925 3103 
Q 1463 3103 1205 2759 
Q 947 2416 947 1791 
Q 947 1169 1205 825 
Q 1463 481 1925 481 
Q 2391 481 2648 825 
Q 2906 1169 2906 1791 
z
M 3481 434 
Q 3481 -459 3084 -895 
Q 2688 -1331 1869 -1331 
Q 1566 -1331 1297 -1286 
Q 1028 -1241 775 -1147 
L 775 -588 
Q 1028 -725 1275 -790 
Q 1522 -856 1778 -856 
Q 2344 -856 2625 -561 
Q 2906 -266 2906 331 
L 2906 616 
Q 2728 306 2450 153 
Q 2172 0 1784 0 
Q 1141 0 747 490 
Q 353 981 353 1791 
Q 353 2603 747 3093 
Q 1141 3584 1784 3584 
Q 2172 3584 2450 3431 
Q 2728 3278 2906 2969 
L 2906 3500 
L 3481 3500 
L 3481 434 
z
" transform="scale(0.015625)"/>
      <path id="DejaVuSans-20" transform="scale(0.015625)"/>
      <path id="DejaVuSans-76" d="M 191 3500 
L 800 3500 
L 1894 563 
L 2988 3500 
L 3597 3500 
L 2284 0 
L 1503 0 
L 191 3500 
z
" transform="scale(0.015625)"/>
      <path id="DejaVuSans-56" d="M 1831 0 
L 50 4666 
L 709 4666 
L 2188 738 
L 3669 4666 
L 4325 4666 
L 2547 0 
L 1831 0 
z
" transform="scale(0.015625)"/>
      <path id="DejaVuSans-6c" d="M 603 4863 
L 1178 4863 
L 1178 0 
L 603 0 
L 603 4863 
z
" transform="scale(0.015625)"/>
      <path id="DejaVuSans-64" d="M 2906 2969 
L 2906 4863 
L 3481 4863 
L 3481 0 
L 2906 0 
L 2906 525 
Q 2725 213 2448 61 
Q 2172 -91 1784 -91 
Q 1150 -91 751 415 
Q 353 922 353 1747 
Q 353 2572 751 3078 
Q 1150 3584 1784 3584 
Q 2172 3584 2448 3432 
Q 2725 3281 2906 2969 
z
M 947 1747 
Q 947 1113 1208 752 
Q 1469 391 1925 391 
Q 2381 391 2643 752 
Q 2906 1113 2906 1747 
Q 2906 2381 2643 2742 
Q 2381 3103 1925 3103 
Q 1469 3103 1208 2742 
Q 947 2381 947 1747 
z
" transform="scale(0.015625)"/>
      <path id="DejaVuSans-74" d="M 1172 4494 
L 1172 3500 
L 2356 3500 
L 2356 3053 
L 1172 3053 
L 1172 1153 
Q 1172 725 1289 603 
Q 1406 481 1766 481 
L 2356 481 
L 2356 0 
L 1766 0 
Q 1100 0 847 248 
Q 594 497 594 1153 
L 594 3053 
L 172 3053 
L 172 3500 
L 594 3500 
L 594 4494 
L 1172 4494 
z
" transform="scale(0.015625)"/>
      <path id="DejaVuSans-28" d="M 1984 4856 
Q 1566 4138 1362 3434 
Q 1159 2731 1159 2009 
Q 1159 1288 1364 580 
Q 1569 -128 1984 -844 
L 1484 -844 
Q 1016 -109 783 600 
Q 550 1309 550 2009 
Q 550 2706 781 3412 
Q 1013 4119 1484 4856 
L 1984 4856 
z
" transform="scale(0.015625)"/>
      <path id="DejaVuSans-75" d="M 544 1381 
L 544 3500 
L 1119 3500 
L 1119 1403 
Q 1119 906 1312 657 
Q 1506 409 1894 409 
Q 2359 409 2629 706 
Q 2900 1003 2900 1516 
L 2900 3500 
L 3475 3500 
L 3475 0 
L 2900 0 
L 2900 538 
Q 2691 219 2414 64 
Q 2138 -91 1772 -91 
Q 1169 -91 856 284 
Q 544 659 544 1381 
z
M 1991 3584 
L 1991 3584 
z
" transform="scale(0.015625)"/>
      <path id="DejaVuSans-29" d="M 513 4856 
L 1013 4856 
Q 1481 4119 1714 3412 
Q 1947 2706 1947 2009 
Q 1947 1309 1714 600 
Q 1481 -109 1013 -844 
L 513 -844 
Q 928 -128 1133 580 
Q 1338 1288 1338 2009 
Q 1338 2731 1133 3434 
Q 928 4138 513 4856 
z
" transform="scale(0.015625)"/>
     </defs>
     <use xlink:href="#DejaVuSans-54"/>
     <use xlink:href="#DejaVuSans-72" transform="translate(46.333984 0)"/>
     <use xlink:href="#DejaVuSans-61" transform="translate(87.447266 0)"/>
     <use xlink:href="#DejaVuSans-69" transform="translate(148.726562 0)"/>
     <use xlink:href="#DejaVuSans-6e" transform="translate(176.509766 0)"/>
     <use xlink:href="#DejaVuSans-69" transform="translate(239.888672 0)"/>
     <use xlink:href="#DejaVuSans-6e" transform="translate(267.671875 0)"/>
     <use xlink:href="#DejaVuSans-67" transform="translate(331.050781 0)"/>
     <use xlink:href="#DejaVuSans-20" transform="translate(394.527344 0)"/>
     <use xlink:href="#DejaVuSans-76" transform="translate(426.314453 0)"/>
     <use xlink:href="#DejaVuSans-73" transform="translate(485.494141 0)"/>
     <use xlink:href="#DejaVuSans-20" transform="translate(537.59375 0)"/>
     <use xlink:href="#DejaVuSans-56" transform="translate(569.380859 0)"/>
     <use xlink:href="#DejaVuSans-61" transform="translate(630.039062 0)"/>
     <use xlink:href="#DejaVuSans-6c" transform="translate(691.318359 0)"/>
     <use xlink:href="#DejaVuSans-69" transform="translate(719.101562 0)"/>
     <use xlink:href="#DejaVuSans-64" transform="translate(746.884766 0)"/>
     <use xlink:href="#DejaVuSans-61" transform="translate(810.361328 0)"/>
     <use xlink:href="#DejaVuSans-74" transform="translate(871.640625 0)"/>
     <use xlink:href="#DejaVuSans-69" transform="translate(910.849609 0)"/>
     <use xlink:href="#DejaVuSans-6f" transform="translate(938.632812 0)"/>
     <use xlink:href="#DejaVuSans-6e" transform="translate(999.814453 0)"/>
     <use xlink:href="#DejaVuSans-20" transform="translate(1063.193359 0)"/>
     <use xlink:href="#DejaVuSans-4c" transform="translate(1094.980469 0)"/>
     <use xlink:href="#DejaVuSans-6f" transform="translate(1148.943359 0)"/>
     <use xlink:href="#DejaVuSans-73" transform="translate(1210.125 0)"/>
     <use xlink:href="#DejaVuSans-73" transform="translate(1262.224609 0)"/>
     <use xlink:href="#DejaVuSans-20" transform="translate(1314.324219 0)"/>
     <use xlink:href="#DejaVuSans-28" transform="translate(1346.111328 0)"/>
     <use xlink:href="#DejaVuSans-72" transform="translate(1385.125 0)"/>
     <use xlink:href="#DejaVuSans-75" transform="translate(1426.238281 0)"/>
     <use xlink:href="#DejaVuSans-6e" transform="translate(1489.617188 0)"/>
     <use xlink:href="#DejaVuSans-6e" transform="translate(1552.996094 0)"/>
     <use xlink:href="#DejaVuSans-69" transform="translate(1616.375 0)"/>
     <use xlink:href="#DejaVuSans-6e" transform="translate(1644.158203 0)"/>
     <use xlink:href="#DejaVuSans-67" transform="translate(1707.537109 0)"/>
     <use xlink:href="#DejaVuSans-20" transform="translate(1771.013672 0)"/>
     <use xlink:href="#DejaVuSans-61" transform="translate(1802.800781 0)"/>
     <use xlink:href="#DejaVuSans-76" transform="translate(1864.080078 0)"/>
     <use xlink:href="#DejaVuSans-67" transform="translate(1923.259766 0)"/>
     <use xlink:href="#DejaVuSans-29" transform="translate(1986.736328 0)"/>
    </g>
   </g>
   <g id="legend_1">
    <g id="patch_7">
     <path d="M 349.057812 103.874375 
L 511.4 103.874375 
Q 513.4 103.874375 513.4 101.874375 
L 513.4 58.84 
Q 513.4 56.84 511.4 56.84 
L 349.057812 56.84 
Q 347.057812 56.84 347.057812 58.84 
L 347.057812 101.874375 
Q 347.057812 103.874375 349.057812 103.874375 
z
" style="fill: #ffffff; opacity: 0.8; stroke: #cccccc; stroke-linejoin: miter"/>
    </g>
    <g id="line2d_31">
     <path d="M 351.057812 64.938437 
L 361.057812 64.938437 
L 371.057812 64.938437 
" style="fill: none; stroke: #1f77b4; stroke-width: 1.5; stroke-linecap: square"/>
    </g>
    <g id="text_18">
     <!-- Train -->
     <g transform="translate(379.057812 68.438437) scale(0.1 -0.1)">
      <use xlink:href="#DejaVuSans-54"/>
      <use xlink:href="#DejaVuSans-72" transform="translate(46.333984 0)"/>
      <use xlink:href="#DejaVuSans-61" transform="translate(87.447266 0)"/>
      <use xlink:href="#DejaVuSans-69" transform="translate(148.726562 0)"/>
      <use xlink:href="#DejaVuSans-6e" transform="translate(176.509766 0)"/>
     </g>
    </g>
    <g id="line2d_32">
     <path d="M 351.057812 79.616562 
L 361.057812 79.616562 
L 371.057812 79.616562 
" style="fill: none; stroke: #ff7f0e; stroke-width: 1.5; stroke-linecap: square"/>
    </g>
    <g id="text_19">
     <!-- Validation -->
     <g transform="translate(379.057812 83.116562) scale(0.1 -0.1)">
      <use xlink:href="#DejaVuSans-56"/>
      <use xlink:href="#DejaVuSans-61" transform="translate(60.658203 0)"/>
      <use xlink:href="#DejaVuSans-6c" transform="translate(121.9375 0)"/>
      <use xlink:href="#DejaVuSans-69" transform="translate(149.720703 0)"/>
      <use xlink:href="#DejaVuSans-64" transform="translate(177.503906 0)"/>
      <use xlink:href="#DejaVuSans-61" transform="translate(240.980469 0)"/>
      <use xlink:href="#DejaVuSans-74" transform="translate(302.259766 0)"/>
      <use xlink:href="#DejaVuSans-69" transform="translate(341.46875 0)"/>
      <use xlink:href="#DejaVuSans-6f" transform="translate(369.251953 0)"/>
      <use xlink:href="#DejaVuSans-6e" transform="translate(430.433594 0)"/>
     </g>
    </g>
    <g id="line2d_33">
     <path d="M 351.057812 94.294687 
L 371.057812 94.294687 
" style="fill: none; stroke-dasharray: 1.5,2.475; stroke-dashoffset: 0; stroke: #1f77b4; stroke-width: 1.5"/>
    </g>
    <g id="text_20">
     <!-- Test summary Loss: 0.245 -->
     <g transform="translate(379.057812 97.794687) scale(0.1 -0.1)">
      <defs>
       <path id="DejaVuSans-65" d="M 3597 1894 
L 3597 1613 
L 953 1613 
Q 991 1019 1311 708 
Q 1631 397 2203 397 
Q 2534 397 2845 478 
Q 3156 559 3463 722 
L 3463 178 
Q 3153 47 2828 -22 
Q 2503 -91 2169 -91 
Q 1331 -91 842 396 
Q 353 884 353 1716 
Q 353 2575 817 3079 
Q 1281 3584 2069 3584 
Q 2775 3584 3186 3129 
Q 3597 2675 3597 1894 
z
M 3022 2063 
Q 3016 2534 2758 2815 
Q 2500 3097 2075 3097 
Q 1594 3097 1305 2825 
Q 1016 2553 972 2059 
L 3022 2063 
z
" transform="scale(0.015625)"/>
       <path id="DejaVuSans-6d" d="M 3328 2828 
Q 3544 3216 3844 3400 
Q 4144 3584 4550 3584 
Q 5097 3584 5394 3201 
Q 5691 2819 5691 2113 
L 5691 0 
L 5113 0 
L 5113 2094 
Q 5113 2597 4934 2840 
Q 4756 3084 4391 3084 
Q 3944 3084 3684 2787 
Q 3425 2491 3425 1978 
L 3425 0 
L 2847 0 
L 2847 2094 
Q 2847 2600 2669 2842 
Q 2491 3084 2119 3084 
Q 1678 3084 1418 2786 
Q 1159 2488 1159 1978 
L 1159 0 
L 581 0 
L 581 3500 
L 1159 3500 
L 1159 2956 
Q 1356 3278 1631 3431 
Q 1906 3584 2284 3584 
Q 2666 3584 2933 3390 
Q 3200 3197 3328 2828 
z
" transform="scale(0.015625)"/>
       <path id="DejaVuSans-79" d="M 2059 -325 
Q 1816 -950 1584 -1140 
Q 1353 -1331 966 -1331 
L 506 -1331 
L 506 -850 
L 844 -850 
Q 1081 -850 1212 -737 
Q 1344 -625 1503 -206 
L 1606 56 
L 191 3500 
L 800 3500 
L 1894 763 
L 2988 3500 
L 3597 3500 
L 2059 -325 
z
" transform="scale(0.015625)"/>
       <path id="DejaVuSans-3a" d="M 750 794 
L 1409 794 
L 1409 0 
L 750 0 
L 750 794 
z
M 750 3309 
L 1409 3309 
L 1409 2516 
L 750 2516 
L 750 3309 
z
" transform="scale(0.015625)"/>
      </defs>
      <use xlink:href="#DejaVuSans-54"/>
      <use xlink:href="#DejaVuSans-65" transform="translate(44.083984 0)"/>
      <use xlink:href="#DejaVuSans-73" transform="translate(105.607422 0)"/>
      <use xlink:href="#DejaVuSans-74" transform="translate(157.707031 0)"/>
      <use xlink:href="#DejaVuSans-20" transform="translate(196.916016 0)"/>
      <use xlink:href="#DejaVuSans-73" transform="translate(228.703125 0)"/>
      <use xlink:href="#DejaVuSans-75" transform="translate(280.802734 0)"/>
      <use xlink:href="#DejaVuSans-6d" transform="translate(344.181641 0)"/>
      <use xlink:href="#DejaVuSans-6d" transform="translate(441.59375 0)"/>
      <use xlink:href="#DejaVuSans-61" transform="translate(539.005859 0)"/>
      <use xlink:href="#DejaVuSans-72" transform="translate(600.285156 0)"/>
      <use xlink:href="#DejaVuSans-79" transform="translate(641.398438 0)"/>
      <use xlink:href="#DejaVuSans-20" transform="translate(700.578125 0)"/>
      <use xlink:href="#DejaVuSans-4c" transform="translate(732.365234 0)"/>
      <use xlink:href="#DejaVuSans-6f" transform="translate(786.328125 0)"/>
      <use xlink:href="#DejaVuSans-73" transform="translate(847.509766 0)"/>
      <use xlink:href="#DejaVuSans-73" transform="translate(899.609375 0)"/>
      <use xlink:href="#DejaVuSans-3a" transform="translate(951.708984 0)"/>
      <use xlink:href="#DejaVuSans-20" transform="translate(985.400391 0)"/>
      <use xlink:href="#DejaVuSans-30" transform="translate(1017.1875 0)"/>
      <use xlink:href="#DejaVuSans-2e" transform="translate(1080.810547 0)"/>
      <use xlink:href="#DejaVuSans-32" transform="translate(1112.597656 0)"/>
      <use xlink:href="#DejaVuSans-34" transform="translate(1176.220703 0)"/>
      <use xlink:href="#DejaVuSans-35" transform="translate(1239.84375 0)"/>
     </g>
    </g>
   </g>
  </g>
 </g>
 <defs>
  <clipPath id="pf468802275">
   <rect x="72" y="51.84" width="446.4" height="332.64"/>
  </clipPath>
 </defs>
</svg>
