<?xml version="1.0" encoding="utf-8" standalone="no"?>
<!DOCTYPE svg PUBLIC "-//W3C//DTD SVG 1.1//EN"
  "http://www.w3.org/Graphics/SVG/1.1/DTD/svg11.dtd">
<svg xmlns:xlink="http://www.w3.org/1999/xlink" width="576pt" height="432pt" viewBox="0 0 576 432" xmlns="http://www.w3.org/2000/svg" version="1.1">
 <metadata>
  <rdf:RDF xmlns:dc="http://purl.org/dc/elements/1.1/" xmlns:cc="http://creativecommons.org/ns#" xmlns:rdf="http://www.w3.org/1999/02/22-rdf-syntax-ns#">
   <cc:Work>
    <dc:type rdf:resource="http://purl.org/dc/dcmitype/StillImage"/>
    <dc:date>2025-05-08T10:54:49.664727</dc:date>
    <dc:format>image/svg+xml</dc:format>
    <dc:creator>
     <cc:Agent>
      <dc:title>Matplotlib v3.10.0, https://matplotlib.org/</dc:title>
     </cc:Agent>
    </dc:creator>
   </cc:Work>
  </rdf:RDF>
 </metadata>
 <defs>
  <style type="text/css">*{stroke-linejoin: round; stroke-linecap: butt}</style>
 </defs>
 <g id="figure_1">
  <g id="patch_1">
   <path d="M 0 432 
L 576 432 
L 576 0 
L 0 0 
z
" style="fill: #ffffff"/>
  </g>
  <g id="axes_1">
   <g id="patch_2">
    <path d="M 72 384.48 
L 518.4 384.48 
L 518.4 51.84 
L 72 51.84 
z
" style="fill: #ffffff"/>
   </g>
   <g id="matplotlib.axis_1">
    <g id="xtick_1">
     <g id="line2d_1">
      <path d="M 92.290909 384.48 
L 92.290909 51.84 
" clip-path="url(#p0b50c1f32b)" style="fill: none; stroke: #b0b0b0; stroke-width: 0.8; stroke-linecap: square"/>
     </g>
     <g id="line2d_2">
      <defs>
       <path id="m75818f5651" d="M 0 0 
L 0 3.5 
" style="stroke: #000000; stroke-width: 0.8"/>
      </defs>
      <g>
       <use xlink:href="#m75818f5651" x="92.290909" y="384.48" style="stroke: #000000; stroke-width: 0.8"/>
      </g>
     </g>
     <g id="text_1">
      <!-- 0 -->
      <g transform="translate(89.109659 399.078438) scale(0.1 -0.1)">
       <defs>
        <path id="DejaVuSans-30" d="M 2034 4250 
Q 1547 4250 1301 3770 
Q 1056 3291 1056 2328 
Q 1056 1369 1301 889 
Q 1547 409 2034 409 
Q 2525 409 2770 889 
Q 3016 1369 3016 2328 
Q 3016 3291 2770 3770 
Q 2525 4250 2034 4250 
z
M 2034 4750 
Q 2819 4750 3233 4129 
Q 3647 3509 3647 2328 
Q 3647 1150 3233 529 
Q 2819 -91 2034 -91 
Q 1250 -91 836 529 
Q 422 1150 422 2328 
Q 422 3509 836 4129 
Q 1250 4750 2034 4750 
z
" transform="scale(0.015625)"/>
       </defs>
       <use xlink:href="#DejaVuSans-30"/>
      </g>
     </g>
    </g>
    <g id="xtick_2">
     <g id="line2d_3">
      <path d="M 160.153481 384.48 
L 160.153481 51.84 
" clip-path="url(#p0b50c1f32b)" style="fill: none; stroke: #b0b0b0; stroke-width: 0.8; stroke-linecap: square"/>
     </g>
     <g id="line2d_4">
      <g>
       <use xlink:href="#m75818f5651" x="160.153481" y="384.48" style="stroke: #000000; stroke-width: 0.8"/>
      </g>
     </g>
     <g id="text_2">
      <!-- 50 -->
      <g transform="translate(153.790981 399.078438) scale(0.1 -0.1)">
       <defs>
        <path id="DejaVuSans-35" d="M 691 4666 
L 3169 4666 
L 3169 4134 
L 1269 4134 
L 1269 2991 
Q 1406 3038 1543 3061 
Q 1681 3084 1819 3084 
Q 2600 3084 3056 2656 
Q 3513 2228 3513 1497 
Q 3513 744 3044 326 
Q 2575 -91 1722 -91 
Q 1428 -91 1123 -41 
Q 819 9 494 109 
L 494 744 
Q 775 591 1075 516 
Q 1375 441 1709 441 
Q 2250 441 2565 725 
Q 2881 1009 2881 1497 
Q 2881 1984 2565 2268 
Q 2250 2553 1709 2553 
Q 1456 2553 1204 2497 
Q 953 2441 691 2322 
L 691 4666 
z
" transform="scale(0.015625)"/>
       </defs>
       <use xlink:href="#DejaVuSans-35"/>
       <use xlink:href="#DejaVuSans-30" transform="translate(63.623047 0)"/>
      </g>
     </g>
    </g>
    <g id="xtick_3">
     <g id="line2d_5">
      <path d="M 228.016054 384.48 
L 228.016054 51.84 
" clip-path="url(#p0b50c1f32b)" style="fill: none; stroke: #b0b0b0; stroke-width: 0.8; stroke-linecap: square"/>
     </g>
     <g id="line2d_6">
      <g>
       <use xlink:href="#m75818f5651" x="228.016054" y="384.48" style="stroke: #000000; stroke-width: 0.8"/>
      </g>
     </g>
     <g id="text_3">
      <!-- 100 -->
      <g transform="translate(218.472304 399.078438) scale(0.1 -0.1)">
       <defs>
        <path id="DejaVuSans-31" d="M 794 531 
L 1825 531 
L 1825 4091 
L 703 3866 
L 703 4441 
L 1819 4666 
L 2450 4666 
L 2450 531 
L 3481 531 
L 3481 0 
L 794 0 
L 794 531 
z
" transform="scale(0.015625)"/>
       </defs>
       <use xlink:href="#DejaVuSans-31"/>
       <use xlink:href="#DejaVuSans-30" transform="translate(63.623047 0)"/>
       <use xlink:href="#DejaVuSans-30" transform="translate(127.246094 0)"/>
      </g>
     </g>
    </g>
    <g id="xtick_4">
     <g id="line2d_7">
      <path d="M 295.878626 384.48 
L 295.878626 51.84 
" clip-path="url(#p0b50c1f32b)" style="fill: none; stroke: #b0b0b0; stroke-width: 0.8; stroke-linecap: square"/>
     </g>
     <g id="line2d_8">
      <g>
       <use xlink:href="#m75818f5651" x="295.878626" y="384.48" style="stroke: #000000; stroke-width: 0.8"/>
      </g>
     </g>
     <g id="text_4">
      <!-- 150 -->
      <g transform="translate(286.334876 399.078438) scale(0.1 -0.1)">
       <use xlink:href="#DejaVuSans-31"/>
       <use xlink:href="#DejaVuSans-35" transform="translate(63.623047 0)"/>
       <use xlink:href="#DejaVuSans-30" transform="translate(127.246094 0)"/>
      </g>
     </g>
    </g>
    <g id="xtick_5">
     <g id="line2d_9">
      <path d="M 363.741198 384.48 
L 363.741198 51.84 
" clip-path="url(#p0b50c1f32b)" style="fill: none; stroke: #b0b0b0; stroke-width: 0.8; stroke-linecap: square"/>
     </g>
     <g id="line2d_10">
      <g>
       <use xlink:href="#m75818f5651" x="363.741198" y="384.48" style="stroke: #000000; stroke-width: 0.8"/>
      </g>
     </g>
     <g id="text_5">
      <!-- 200 -->
      <g transform="translate(354.197448 399.078438) scale(0.1 -0.1)">
       <defs>
        <path id="DejaVuSans-32" d="M 1228 531 
L 3431 531 
L 3431 0 
L 469 0 
L 469 531 
Q 828 903 1448 1529 
Q 2069 2156 2228 2338 
Q 2531 2678 2651 2914 
Q 2772 3150 2772 3378 
Q 2772 3750 2511 3984 
Q 2250 4219 1831 4219 
Q 1534 4219 1204 4116 
Q 875 4013 500 3803 
L 500 4441 
Q 881 4594 1212 4672 
Q 1544 4750 1819 4750 
Q 2544 4750 2975 4387 
Q 3406 4025 3406 3419 
Q 3406 3131 3298 2873 
Q 3191 2616 2906 2266 
Q 2828 2175 2409 1742 
Q 1991 1309 1228 531 
z
" transform="scale(0.015625)"/>
       </defs>
       <use xlink:href="#DejaVuSans-32"/>
       <use xlink:href="#DejaVuSans-30" transform="translate(63.623047 0)"/>
       <use xlink:href="#DejaVuSans-30" transform="translate(127.246094 0)"/>
      </g>
     </g>
    </g>
    <g id="xtick_6">
     <g id="line2d_11">
      <path d="M 431.60377 384.48 
L 431.60377 51.84 
" clip-path="url(#p0b50c1f32b)" style="fill: none; stroke: #b0b0b0; stroke-width: 0.8; stroke-linecap: square"/>
     </g>
     <g id="line2d_12">
      <g>
       <use xlink:href="#m75818f5651" x="431.60377" y="384.48" style="stroke: #000000; stroke-width: 0.8"/>
      </g>
     </g>
     <g id="text_6">
      <!-- 250 -->
      <g transform="translate(422.06002 399.078438) scale(0.1 -0.1)">
       <use xlink:href="#DejaVuSans-32"/>
       <use xlink:href="#DejaVuSans-35" transform="translate(63.623047 0)"/>
       <use xlink:href="#DejaVuSans-30" transform="translate(127.246094 0)"/>
      </g>
     </g>
    </g>
    <g id="xtick_7">
     <g id="line2d_13">
      <path d="M 499.466342 384.48 
L 499.466342 51.84 
" clip-path="url(#p0b50c1f32b)" style="fill: none; stroke: #b0b0b0; stroke-width: 0.8; stroke-linecap: square"/>
     </g>
     <g id="line2d_14">
      <g>
       <use xlink:href="#m75818f5651" x="499.466342" y="384.48" style="stroke: #000000; stroke-width: 0.8"/>
      </g>
     </g>
     <g id="text_7">
      <!-- 300 -->
      <g transform="translate(489.922592 399.078438) scale(0.1 -0.1)">
       <defs>
        <path id="DejaVuSans-33" d="M 2597 2516 
Q 3050 2419 3304 2112 
Q 3559 1806 3559 1356 
Q 3559 666 3084 287 
Q 2609 -91 1734 -91 
Q 1441 -91 1130 -33 
Q 819 25 488 141 
L 488 750 
Q 750 597 1062 519 
Q 1375 441 1716 441 
Q 2309 441 2620 675 
Q 2931 909 2931 1356 
Q 2931 1769 2642 2001 
Q 2353 2234 1838 2234 
L 1294 2234 
L 1294 2753 
L 1863 2753 
Q 2328 2753 2575 2939 
Q 2822 3125 2822 3475 
Q 2822 3834 2567 4026 
Q 2313 4219 1838 4219 
Q 1578 4219 1281 4162 
Q 984 4106 628 3988 
L 628 4550 
Q 988 4650 1302 4700 
Q 1616 4750 1894 4750 
Q 2613 4750 3031 4423 
Q 3450 4097 3450 3541 
Q 3450 3153 3228 2886 
Q 3006 2619 2597 2516 
z
" transform="scale(0.015625)"/>
       </defs>
       <use xlink:href="#DejaVuSans-33"/>
       <use xlink:href="#DejaVuSans-30" transform="translate(63.623047 0)"/>
       <use xlink:href="#DejaVuSans-30" transform="translate(127.246094 0)"/>
      </g>
     </g>
    </g>
    <g id="text_8">
     <!-- Epoch -->
     <g transform="translate(279.889062 412.756563) scale(0.1 -0.1)">
      <defs>
       <path id="DejaVuSans-45" d="M 628 4666 
L 3578 4666 
L 3578 4134 
L 1259 4134 
L 1259 2753 
L 3481 2753 
L 3481 2222 
L 1259 2222 
L 1259 531 
L 3634 531 
L 3634 0 
L 628 0 
L 628 4666 
z
" transform="scale(0.015625)"/>
       <path id="DejaVuSans-70" d="M 1159 525 
L 1159 -1331 
L 581 -1331 
L 581 3500 
L 1159 3500 
L 1159 2969 
Q 1341 3281 1617 3432 
Q 1894 3584 2278 3584 
Q 2916 3584 3314 3078 
Q 3713 2572 3713 1747 
Q 3713 922 3314 415 
Q 2916 -91 2278 -91 
Q 1894 -91 1617 61 
Q 1341 213 1159 525 
z
M 3116 1747 
Q 3116 2381 2855 2742 
Q 2594 3103 2138 3103 
Q 1681 3103 1420 2742 
Q 1159 2381 1159 1747 
Q 1159 1113 1420 752 
Q 1681 391 2138 391 
Q 2594 391 2855 752 
Q 3116 1113 3116 1747 
z
" transform="scale(0.015625)"/>
       <path id="DejaVuSans-6f" d="M 1959 3097 
Q 1497 3097 1228 2736 
Q 959 2375 959 1747 
Q 959 1119 1226 758 
Q 1494 397 1959 397 
Q 2419 397 2687 759 
Q 2956 1122 2956 1747 
Q 2956 2369 2687 2733 
Q 2419 3097 1959 3097 
z
M 1959 3584 
Q 2709 3584 3137 3096 
Q 3566 2609 3566 1747 
Q 3566 888 3137 398 
Q 2709 -91 1959 -91 
Q 1206 -91 779 398 
Q 353 888 353 1747 
Q 353 2609 779 3096 
Q 1206 3584 1959 3584 
z
" transform="scale(0.015625)"/>
       <path id="DejaVuSans-63" d="M 3122 3366 
L 3122 2828 
Q 2878 2963 2633 3030 
Q 2388 3097 2138 3097 
Q 1578 3097 1268 2742 
Q 959 2388 959 1747 
Q 959 1106 1268 751 
Q 1578 397 2138 397 
Q 2388 397 2633 464 
Q 2878 531 3122 666 
L 3122 134 
Q 2881 22 2623 -34 
Q 2366 -91 2075 -91 
Q 1284 -91 818 406 
Q 353 903 353 1747 
Q 353 2603 823 3093 
Q 1294 3584 2113 3584 
Q 2378 3584 2631 3529 
Q 2884 3475 3122 3366 
z
" transform="scale(0.015625)"/>
       <path id="DejaVuSans-68" d="M 3513 2113 
L 3513 0 
L 2938 0 
L 2938 2094 
Q 2938 2591 2744 2837 
Q 2550 3084 2163 3084 
Q 1697 3084 1428 2787 
Q 1159 2491 1159 1978 
L 1159 0 
L 581 0 
L 581 4863 
L 1159 4863 
L 1159 2956 
Q 1366 3272 1645 3428 
Q 1925 3584 2291 3584 
Q 2894 3584 3203 3211 
Q 3513 2838 3513 2113 
z
" transform="scale(0.015625)"/>
      </defs>
      <use xlink:href="#DejaVuSans-45"/>
      <use xlink:href="#DejaVuSans-70" transform="translate(63.183594 0)"/>
      <use xlink:href="#DejaVuSans-6f" transform="translate(126.660156 0)"/>
      <use xlink:href="#DejaVuSans-63" transform="translate(187.841797 0)"/>
      <use xlink:href="#DejaVuSans-68" transform="translate(242.822266 0)"/>
     </g>
    </g>
   </g>
   <g id="matplotlib.axis_2">
    <g id="ytick_1">
     <g id="line2d_15">
      <path d="M 72 371.38681 
L 518.4 371.38681 
" clip-path="url(#p0b50c1f32b)" style="fill: none; stroke: #b0b0b0; stroke-width: 0.8; stroke-linecap: square"/>
     </g>
     <g id="line2d_16">
      <defs>
       <path id="m0b334b01e3" d="M 0 0 
L -3.5 0 
" style="stroke: #000000; stroke-width: 0.8"/>
      </defs>
      <g>
       <use xlink:href="#m0b334b01e3" x="72" y="371.38681" style="stroke: #000000; stroke-width: 0.8"/>
      </g>
     </g>
     <g id="text_9">
      <!-- 0.1 -->
      <g transform="translate(49.096875 375.186028) scale(0.1 -0.1)">
       <defs>
        <path id="DejaVuSans-2e" d="M 684 794 
L 1344 794 
L 1344 0 
L 684 0 
L 684 794 
z
" transform="scale(0.015625)"/>
       </defs>
       <use xlink:href="#DejaVuSans-30"/>
       <use xlink:href="#DejaVuSans-2e" transform="translate(63.623047 0)"/>
       <use xlink:href="#DejaVuSans-31" transform="translate(95.410156 0)"/>
      </g>
     </g>
    </g>
    <g id="ytick_2">
     <g id="line2d_17">
      <path d="M 72 330.850617 
L 518.4 330.850617 
" clip-path="url(#p0b50c1f32b)" style="fill: none; stroke: #b0b0b0; stroke-width: 0.8; stroke-linecap: square"/>
     </g>
     <g id="line2d_18">
      <g>
       <use xlink:href="#m0b334b01e3" x="72" y="330.850617" style="stroke: #000000; stroke-width: 0.8"/>
      </g>
     </g>
     <g id="text_10">
      <!-- 0.2 -->
      <g transform="translate(49.096875 334.649835) scale(0.1 -0.1)">
       <use xlink:href="#DejaVuSans-30"/>
       <use xlink:href="#DejaVuSans-2e" transform="translate(63.623047 0)"/>
       <use xlink:href="#DejaVuSans-32" transform="translate(95.410156 0)"/>
      </g>
     </g>
    </g>
    <g id="ytick_3">
     <g id="line2d_19">
      <path d="M 72 290.314424 
L 518.4 290.314424 
" clip-path="url(#p0b50c1f32b)" style="fill: none; stroke: #b0b0b0; stroke-width: 0.8; stroke-linecap: square"/>
     </g>
     <g id="line2d_20">
      <g>
       <use xlink:href="#m0b334b01e3" x="72" y="290.314424" style="stroke: #000000; stroke-width: 0.8"/>
      </g>
     </g>
     <g id="text_11">
      <!-- 0.3 -->
      <g transform="translate(49.096875 294.113642) scale(0.1 -0.1)">
       <use xlink:href="#DejaVuSans-30"/>
       <use xlink:href="#DejaVuSans-2e" transform="translate(63.623047 0)"/>
       <use xlink:href="#DejaVuSans-33" transform="translate(95.410156 0)"/>
      </g>
     </g>
    </g>
    <g id="ytick_4">
     <g id="line2d_21">
      <path d="M 72 249.778231 
L 518.4 249.778231 
" clip-path="url(#p0b50c1f32b)" style="fill: none; stroke: #b0b0b0; stroke-width: 0.8; stroke-linecap: square"/>
     </g>
     <g id="line2d_22">
      <g>
       <use xlink:href="#m0b334b01e3" x="72" y="249.778231" style="stroke: #000000; stroke-width: 0.8"/>
      </g>
     </g>
     <g id="text_12">
      <!-- 0.4 -->
      <g transform="translate(49.096875 253.577449) scale(0.1 -0.1)">
       <defs>
        <path id="DejaVuSans-34" d="M 2419 4116 
L 825 1625 
L 2419 1625 
L 2419 4116 
z
M 2253 4666 
L 3047 4666 
L 3047 1625 
L 3713 1625 
L 3713 1100 
L 3047 1100 
L 3047 0 
L 2419 0 
L 2419 1100 
L 313 1100 
L 313 1709 
L 2253 4666 
z
" transform="scale(0.015625)"/>
       </defs>
       <use xlink:href="#DejaVuSans-30"/>
       <use xlink:href="#DejaVuSans-2e" transform="translate(63.623047 0)"/>
       <use xlink:href="#DejaVuSans-34" transform="translate(95.410156 0)"/>
      </g>
     </g>
    </g>
    <g id="ytick_5">
     <g id="line2d_23">
      <path d="M 72 209.242038 
L 518.4 209.242038 
" clip-path="url(#p0b50c1f32b)" style="fill: none; stroke: #b0b0b0; stroke-width: 0.8; stroke-linecap: square"/>
     </g>
     <g id="line2d_24">
      <g>
       <use xlink:href="#m0b334b01e3" x="72" y="209.242038" style="stroke: #000000; stroke-width: 0.8"/>
      </g>
     </g>
     <g id="text_13">
      <!-- 0.5 -->
      <g transform="translate(49.096875 213.041256) scale(0.1 -0.1)">
       <use xlink:href="#DejaVuSans-30"/>
       <use xlink:href="#DejaVuSans-2e" transform="translate(63.623047 0)"/>
       <use xlink:href="#DejaVuSans-35" transform="translate(95.410156 0)"/>
      </g>
     </g>
    </g>
    <g id="ytick_6">
     <g id="line2d_25">
      <path d="M 72 168.705845 
L 518.4 168.705845 
" clip-path="url(#p0b50c1f32b)" style="fill: none; stroke: #b0b0b0; stroke-width: 0.8; stroke-linecap: square"/>
     </g>
     <g id="line2d_26">
      <g>
       <use xlink:href="#m0b334b01e3" x="72" y="168.705845" style="stroke: #000000; stroke-width: 0.8"/>
      </g>
     </g>
     <g id="text_14">
      <!-- 0.6 -->
      <g transform="translate(49.096875 172.505063) scale(0.1 -0.1)">
       <defs>
        <path id="DejaVuSans-36" d="M 2113 2584 
Q 1688 2584 1439 2293 
Q 1191 2003 1191 1497 
Q 1191 994 1439 701 
Q 1688 409 2113 409 
Q 2538 409 2786 701 
Q 3034 994 3034 1497 
Q 3034 2003 2786 2293 
Q 2538 2584 2113 2584 
z
M 3366 4563 
L 3366 3988 
Q 3128 4100 2886 4159 
Q 2644 4219 2406 4219 
Q 1781 4219 1451 3797 
Q 1122 3375 1075 2522 
Q 1259 2794 1537 2939 
Q 1816 3084 2150 3084 
Q 2853 3084 3261 2657 
Q 3669 2231 3669 1497 
Q 3669 778 3244 343 
Q 2819 -91 2113 -91 
Q 1303 -91 875 529 
Q 447 1150 447 2328 
Q 447 3434 972 4092 
Q 1497 4750 2381 4750 
Q 2619 4750 2861 4703 
Q 3103 4656 3366 4563 
z
" transform="scale(0.015625)"/>
       </defs>
       <use xlink:href="#DejaVuSans-30"/>
       <use xlink:href="#DejaVuSans-2e" transform="translate(63.623047 0)"/>
       <use xlink:href="#DejaVuSans-36" transform="translate(95.410156 0)"/>
      </g>
     </g>
    </g>
    <g id="ytick_7">
     <g id="line2d_27">
      <path d="M 72 128.169651 
L 518.4 128.169651 
" clip-path="url(#p0b50c1f32b)" style="fill: none; stroke: #b0b0b0; stroke-width: 0.8; stroke-linecap: square"/>
     </g>
     <g id="line2d_28">
      <g>
       <use xlink:href="#m0b334b01e3" x="72" y="128.169651" style="stroke: #000000; stroke-width: 0.8"/>
      </g>
     </g>
     <g id="text_15">
      <!-- 0.7 -->
      <g transform="translate(49.096875 131.96887) scale(0.1 -0.1)">
       <defs>
        <path id="DejaVuSans-37" d="M 525 4666 
L 3525 4666 
L 3525 4397 
L 1831 0 
L 1172 0 
L 2766 4134 
L 525 4134 
L 525 4666 
z
" transform="scale(0.015625)"/>
       </defs>
       <use xlink:href="#DejaVuSans-30"/>
       <use xlink:href="#DejaVuSans-2e" transform="translate(63.623047 0)"/>
       <use xlink:href="#DejaVuSans-37" transform="translate(95.410156 0)"/>
      </g>
     </g>
    </g>
    <g id="ytick_8">
     <g id="line2d_29">
      <path d="M 72 87.633458 
L 518.4 87.633458 
" clip-path="url(#p0b50c1f32b)" style="fill: none; stroke: #b0b0b0; stroke-width: 0.8; stroke-linecap: square"/>
     </g>
     <g id="line2d_30">
      <g>
       <use xlink:href="#m0b334b01e3" x="72" y="87.633458" style="stroke: #000000; stroke-width: 0.8"/>
      </g>
     </g>
     <g id="text_16">
      <!-- 0.8 -->
      <g transform="translate(49.096875 91.432677) scale(0.1 -0.1)">
       <defs>
        <path id="DejaVuSans-38" d="M 2034 2216 
Q 1584 2216 1326 1975 
Q 1069 1734 1069 1313 
Q 1069 891 1326 650 
Q 1584 409 2034 409 
Q 2484 409 2743 651 
Q 3003 894 3003 1313 
Q 3003 1734 2745 1975 
Q 2488 2216 2034 2216 
z
M 1403 2484 
Q 997 2584 770 2862 
Q 544 3141 544 3541 
Q 544 4100 942 4425 
Q 1341 4750 2034 4750 
Q 2731 4750 3128 4425 
Q 3525 4100 3525 3541 
Q 3525 3141 3298 2862 
Q 3072 2584 2669 2484 
Q 3125 2378 3379 2068 
Q 3634 1759 3634 1313 
Q 3634 634 3220 271 
Q 2806 -91 2034 -91 
Q 1263 -91 848 271 
Q 434 634 434 1313 
Q 434 1759 690 2068 
Q 947 2378 1403 2484 
z
M 1172 3481 
Q 1172 3119 1398 2916 
Q 1625 2713 2034 2713 
Q 2441 2713 2670 2916 
Q 2900 3119 2900 3481 
Q 2900 3844 2670 4047 
Q 2441 4250 2034 4250 
Q 1625 4250 1398 4047 
Q 1172 3844 1172 3481 
z
" transform="scale(0.015625)"/>
       </defs>
       <use xlink:href="#DejaVuSans-30"/>
       <use xlink:href="#DejaVuSans-2e" transform="translate(63.623047 0)"/>
       <use xlink:href="#DejaVuSans-38" transform="translate(95.410156 0)"/>
      </g>
     </g>
    </g>
    <g id="text_17">
     <!-- MAE -->
     <g transform="translate(43.017187 229.05375) rotate(-90) scale(0.1 -0.1)">
      <defs>
       <path id="DejaVuSans-4d" d="M 628 4666 
L 1569 4666 
L 2759 1491 
L 3956 4666 
L 4897 4666 
L 4897 0 
L 4281 0 
L 4281 4097 
L 3078 897 
L 2444 897 
L 1241 4097 
L 1241 0 
L 628 0 
L 628 4666 
z
" transform="scale(0.015625)"/>
       <path id="DejaVuSans-41" d="M 2188 4044 
L 1331 1722 
L 3047 1722 
L 2188 4044 
z
M 1831 4666 
L 2547 4666 
L 4325 0 
L 3669 0 
L 3244 1197 
L 1141 1197 
L 716 0 
L 50 0 
L 1831 4666 
z
" transform="scale(0.015625)"/>
      </defs>
      <use xlink:href="#DejaVuSans-4d"/>
      <use xlink:href="#DejaVuSans-41" transform="translate(86.279297 0)"/>
      <use xlink:href="#DejaVuSans-45" transform="translate(154.6875 0)"/>
     </g>
    </g>
   </g>
   <g id="line2d_31">
    <path d="M 92.290909 75.067239 
L 93.648161 188.568579 
L 95.005412 196.270456 
L 96.362663 207.215228 
L 97.719915 216.13319 
L 99.077166 220.592172 
L 100.434418 228.69941 
L 101.791669 229.510134 
L 103.148921 233.563753 
L 104.506172 233.158391 
L 105.863424 244.103164 
L 107.220675 246.940697 
L 108.577926 248.562145 
L 109.935178 247.346059 
L 111.292429 244.913887 
L 112.649681 253.83185 
L 114.006932 259.101555 
L 115.364184 262.749812 
L 116.721435 262.34445 
L 118.078687 259.506917 
L 119.435938 263.155174 
L 120.793189 269.640965 
L 122.150441 265.992708 
L 124.864944 272.478499 
L 126.222195 275.316032 
L 127.579447 270.046327 
L 128.936698 269.235603 
L 130.29395 274.099946 
L 133.008452 277.342842 
L 134.365704 277.748204 
L 135.722955 282.207185 
L 137.080207 281.396461 
L 138.437458 280.180375 
L 139.79471 280.180375 
L 141.151961 278.153566 
L 142.509213 284.233995 
L 143.866464 287.071528 
L 146.580967 287.882252 
L 147.938218 285.044718 
L 149.29547 289.909062 
L 150.652721 292.341233 
L 152.009973 285.044718 
L 153.367224 294.368043 
L 154.724476 293.962681 
L 156.081727 295.584129 
L 157.438978 296.800214 
L 158.79623 295.989491 
L 160.153481 291.935871 
L 161.510733 297.610938 
L 162.867984 301.259196 
L 164.225236 300.04311 
L 165.582487 299.232386 
L 166.939739 301.664558 
L 168.29699 302.880643 
L 169.654241 308.55571 
L 171.011493 307.339625 
L 172.368744 304.096729 
L 173.725996 304.502091 
L 175.083247 304.096729 
L 176.440499 304.907453 
L 177.79775 306.934263 
L 179.155002 307.339625 
L 180.512253 309.366434 
L 181.869504 304.502091 
L 183.226756 309.366434 
L 184.584007 308.55571 
L 185.941259 310.177158 
L 187.29851 310.58252 
L 188.655762 309.366434 
L 190.013013 312.203968 
L 191.370265 317.068311 
L 192.727516 317.879035 
L 194.084767 320.716568 
L 195.442019 314.636139 
L 196.79927 311.393244 
L 198.156522 312.60933 
L 199.513773 318.284397 
L 200.871025 317.473673 
L 202.228276 319.095121 
L 203.585528 321.12193 
L 204.942779 321.932654 
L 206.30003 321.527292 
L 207.657282 323.959464 
L 209.014533 324.770188 
L 210.371785 323.959464 
L 211.729036 324.364826 
L 213.086288 326.391635 
L 214.443539 329.229169 
L 215.800791 328.418445 
L 217.158042 326.391635 
L 218.515293 328.823807 
L 219.872545 325.580912 
L 221.229796 324.770188 
L 222.587048 327.202359 
L 223.944299 327.607721 
L 225.301551 318.689759 
L 226.658802 327.607721 
L 228.016054 331.255979 
L 229.373305 327.202359 
L 230.730556 328.013083 
L 232.087808 332.472064 
L 233.445059 330.850617 
L 234.802311 332.066702 
L 236.159562 334.904236 
L 238.874065 327.607721 
L 240.231317 332.472064 
L 241.588568 330.850617 
L 242.945819 334.093512 
L 244.303071 334.904236 
L 245.660322 334.904236 
L 247.017574 334.498874 
L 248.374825 337.336408 
L 249.732077 337.741769 
L 251.089328 336.931046 
L 252.44658 332.877426 
L 253.803831 333.68815 
L 255.161082 339.768579 
L 256.518334 332.472064 
L 257.875585 332.877426 
L 259.232837 336.525684 
L 261.94734 338.957855 
L 263.304591 333.68815 
L 264.661843 342.200751 
L 266.019094 340.173941 
L 267.376345 339.363217 
L 268.733597 337.336408 
L 270.090848 340.173941 
L 271.4481 340.579303 
L 272.805351 338.957855 
L 274.162603 339.363217 
L 275.519854 338.552493 
L 276.877106 340.173941 
L 278.234357 340.579303 
L 279.591608 344.632922 
L 280.94886 343.416836 
L 282.306111 342.606113 
L 283.663363 342.606113 
L 285.020614 345.038284 
L 286.377866 341.390027 
L 287.735117 354.361609 
L 289.092369 358.82059 
L 290.44962 357.199142 
L 291.806871 358.415228 
L 293.164123 360.036676 
L 294.521374 361.252761 
L 295.878626 360.847399 
L 297.235877 360.847399 
L 298.593129 362.063485 
L 299.95038 360.847399 
L 301.307631 360.847399 
L 302.664883 360.442038 
L 304.022134 360.847399 
L 305.379386 362.874209 
L 306.736637 360.847399 
L 308.093889 362.063485 
L 309.45114 362.468847 
L 310.808392 361.252761 
L 312.165643 361.658123 
L 313.522894 362.874209 
L 314.880146 362.874209 
L 316.237397 361.658123 
L 317.594649 364.495657 
L 318.9519 362.063485 
L 321.666403 363.684933 
L 323.023655 360.442038 
L 324.380906 361.658123 
L 325.738157 362.063485 
L 327.095409 363.684933 
L 328.45266 363.279571 
L 329.809912 360.847399 
L 331.167163 361.658123 
L 332.524415 362.874209 
L 333.881666 362.063485 
L 335.238918 361.658123 
L 336.596169 361.658123 
L 337.95342 363.684933 
L 339.310672 364.090295 
L 340.667923 364.090295 
L 342.025175 363.684933 
L 343.382426 364.495657 
L 344.739678 364.090295 
L 346.096929 364.090295 
L 347.454181 365.306381 
L 348.811432 363.684933 
L 350.168683 365.306381 
L 351.525935 363.279571 
L 352.883186 362.063485 
L 354.240438 362.468847 
L 355.597689 364.090295 
L 356.954941 366.117105 
L 358.312192 364.495657 
L 359.669444 366.117105 
L 361.026695 364.090295 
L 362.383946 363.279571 
L 363.741198 365.306381 
L 365.098449 363.684933 
L 366.455701 364.495657 
L 369.170204 363.684933 
L 370.527455 364.495657 
L 371.884707 363.279571 
L 373.241958 364.901019 
L 374.599209 362.063485 
L 375.956461 365.711743 
L 377.313712 366.522466 
L 378.670964 364.090295 
L 380.028215 364.901019 
L 381.385467 364.901019 
L 382.742718 366.522466 
L 384.09997 364.495657 
L 385.457221 366.117105 
L 386.814472 366.117105 
L 389.528975 364.495657 
L 390.886227 366.522466 
L 392.243478 364.090295 
L 393.60073 364.901019 
L 396.315233 365.711743 
L 397.672484 364.901019 
L 399.029735 365.711743 
L 400.386987 364.901019 
L 401.744238 364.901019 
L 403.10149 366.117105 
L 404.458741 366.522466 
L 405.815993 364.901019 
L 407.173244 365.306381 
L 408.530496 364.901019 
L 409.887747 364.090295 
L 411.244998 368.143914 
L 412.60225 366.522466 
L 415.316753 364.901019 
L 416.674004 364.495657 
L 418.031256 365.711743 
L 419.388507 365.711743 
L 420.745759 366.927828 
L 422.10301 366.522466 
L 423.460261 365.711743 
L 424.817513 363.684933 
L 426.174764 364.901019 
L 427.532016 366.927828 
L 428.889267 364.090295 
L 431.60377 366.522466 
L 432.961022 366.522466 
L 434.318273 365.306381 
L 435.675524 366.927828 
L 437.032776 366.927828 
L 438.390027 368.143914 
L 439.747279 366.117105 
L 441.10453 367.738552 
L 442.461782 367.33319 
L 443.819033 365.306381 
L 445.176285 367.738552 
L 446.533536 364.495657 
L 447.890787 365.711743 
L 449.248039 366.117105 
L 450.60529 366.927828 
L 451.962542 368.143914 
L 453.319793 368.549276 
L 454.677045 367.33319 
L 456.034296 367.738552 
L 457.391548 365.711743 
L 458.748799 367.738552 
L 461.463302 368.549276 
L 462.820553 367.33319 
L 464.177805 368.143914 
L 465.535056 368.143914 
L 466.892308 366.927828 
L 468.249559 365.306381 
L 469.606811 366.522466 
L 470.964062 366.522466 
L 472.321313 366.117105 
L 473.678565 365.306381 
L 475.035816 367.33319 
L 476.393068 368.143914 
L 477.750319 368.549276 
L 479.107571 367.738552 
L 480.464822 367.33319 
L 481.822074 364.901019 
L 483.179325 364.901019 
L 484.536576 365.711743 
L 485.893828 369.36 
L 487.251079 366.117105 
L 488.608331 368.143914 
L 489.965582 367.738552 
L 491.322834 367.738552 
L 492.680085 368.143914 
L 494.037337 367.33319 
L 495.394588 368.954638 
L 496.751839 366.927828 
L 498.109091 365.306381 
L 498.109091 365.306381 
" clip-path="url(#p0b50c1f32b)" style="fill: none; stroke: #1f77b4; stroke-width: 1.5; stroke-linecap: square"/>
   </g>
   <g id="line2d_32">
    <path d="M 92.290909 165.057587 
L 93.648161 181.272064 
L 95.005412 195.865094 
L 96.362663 199.513351 
L 97.719915 219.781448 
L 99.077166 166.679035 
L 100.434418 155.328901 
L 101.791669 231.536944 
L 103.148921 207.62059 
L 104.506172 223.429705 
L 105.863424 230.320858 
L 107.220675 252.210402 
L 108.577926 235.185201 
L 109.935178 225.051153 
L 111.292429 231.942306 
L 112.649681 250.588954 
L 114.006932 247.346059 
L 115.364184 218.16 
L 116.721435 240.454906 
L 118.078687 232.347668 
L 119.435938 241.26563 
L 120.793189 242.076354 
L 122.150441 263.560536 
L 123.507692 254.642574 
L 124.864944 246.940697 
L 126.222195 184.51496 
L 127.579447 244.913887 
L 128.936698 66.96 
L 130.29395 259.912279 
L 131.651201 200.729437 
L 134.365704 256.264021 
L 135.722955 255.453298 
L 137.080207 188.163217 
L 138.437458 223.835067 
L 139.79471 263.155174 
L 141.151961 254.642574 
L 142.509213 218.970724 
L 143.866464 269.640965 
L 145.223715 190.595389 
L 146.580967 266.803432 
L 147.938218 235.590563 
L 149.29547 259.912279 
L 150.652721 236.401287 
L 152.009973 248.156783 
L 153.367224 249.372869 
L 154.724476 266.803432 
L 156.081727 244.103164 
L 157.438978 271.262413 
L 158.79623 204.783056 
L 160.153481 261.939088 
L 161.510733 253.83185 
L 162.867984 269.235603 
L 164.225236 239.644182 
L 165.582487 268.830241 
L 166.939739 267.208794 
L 168.29699 250.183592 
L 169.654241 254.642574 
L 171.011493 248.562145 
L 172.368744 253.83185 
L 173.725996 240.860268 
L 175.083247 98.172869 
L 176.440499 259.912279 
L 177.79775 257.885469 
L 179.155002 261.533727 
L 180.512253 205.999142 
L 181.869504 253.021126 
L 183.226756 261.939088 
L 184.584007 255.047936 
L 185.941259 270.451689 
L 187.29851 250.994316 
L 188.655762 239.23882 
L 190.013013 260.723003 
L 191.370265 262.749812 
L 192.727516 236.401287 
L 194.084767 241.26563 
L 195.442019 242.887078 
L 196.79927 267.614155 
L 198.156522 263.965898 
L 199.513773 253.021126 
L 200.871025 268.830241 
L 202.228276 274.91067 
L 203.585528 266.803432 
L 204.942779 267.208794 
L 206.30003 230.72622 
L 207.657282 222.213619 
L 209.014533 271.667775 
L 210.371785 273.289223 
L 211.729036 269.640965 
L 213.086288 280.585737 
L 214.443539 273.289223 
L 215.800791 277.342842 
L 217.158042 252.210402 
L 218.515293 268.830241 
L 219.872545 243.29244 
L 221.229796 251.399678 
L 222.587048 269.235603 
L 223.944299 265.992708 
L 225.301551 216.943914 
L 226.658802 282.207185 
L 228.016054 245.319249 
L 229.373305 274.91067 
L 230.730556 274.91067 
L 232.087808 276.126756 
L 233.445059 268.830241 
L 234.802311 268.424879 
L 236.159562 272.883861 
L 237.516814 271.667775 
L 238.874065 268.019517 
L 240.231317 272.883861 
L 241.588568 278.558928 
L 242.945819 266.39807 
L 244.303071 262.749812 
L 245.660322 272.478499 
L 247.017574 280.585737 
L 248.374825 268.019517 
L 249.732077 271.667775 
L 251.089328 268.019517 
L 252.44658 272.478499 
L 253.803831 277.748204 
L 255.161082 268.019517 
L 256.518334 263.965898 
L 257.875585 273.694584 
L 259.232837 281.801823 
L 260.590088 261.128365 
L 261.94734 270.046327 
L 263.304591 276.93748 
L 264.661843 249.778231 
L 266.019094 276.532118 
L 267.376345 265.992708 
L 268.733597 280.180375 
L 270.090848 270.857051 
L 271.4481 278.96429 
L 272.805351 276.532118 
L 274.162603 273.289223 
L 275.519854 274.91067 
L 276.877106 280.991099 
L 278.234357 269.235603 
L 279.591608 283.423271 
L 280.94886 269.235603 
L 282.306111 274.099946 
L 283.663363 270.046327 
L 285.020614 271.667775 
L 286.377866 274.505308 
L 287.735117 284.233995 
L 289.092369 284.639357 
L 290.44962 282.612547 
L 291.806871 285.044718 
L 293.164123 283.423271 
L 294.521374 285.044718 
L 295.878626 284.233995 
L 297.235877 284.639357 
L 298.593129 283.423271 
L 299.95038 283.423271 
L 301.307631 284.233995 
L 302.664883 284.639357 
L 304.022134 282.612547 
L 305.379386 284.639357 
L 306.736637 282.612547 
L 308.093889 281.801823 
L 309.45114 285.044718 
L 310.808392 283.423271 
L 312.165643 284.639357 
L 313.522894 282.612547 
L 314.880146 284.233995 
L 318.9519 284.233995 
L 320.309152 283.017909 
L 321.666403 284.233995 
L 323.023655 285.044718 
L 324.380906 285.45008 
L 325.738157 283.017909 
L 327.095409 285.45008 
L 328.45266 282.612547 
L 329.809912 283.017909 
L 331.167163 283.017909 
L 332.524415 284.233995 
L 333.881666 278.558928 
L 335.238918 283.017909 
L 336.596169 284.233995 
L 337.95342 283.423271 
L 339.310672 284.233995 
L 340.667923 284.639357 
L 342.025175 283.423271 
L 343.382426 283.828633 
L 344.739678 283.828633 
L 346.096929 280.991099 
L 347.454181 283.828633 
L 348.811432 280.991099 
L 350.168683 284.639357 
L 351.525935 283.017909 
L 352.883186 284.639357 
L 354.240438 283.423271 
L 355.597689 283.423271 
L 356.954941 284.233995 
L 358.312192 283.017909 
L 361.026695 283.828633 
L 363.741198 283.828633 
L 365.098449 283.423271 
L 366.455701 285.044718 
L 367.812952 282.612547 
L 369.170204 283.828633 
L 370.527455 284.639357 
L 371.884707 281.396461 
L 373.241958 282.612547 
L 374.599209 281.396461 
L 375.956461 283.423271 
L 377.313712 283.423271 
L 378.670964 283.017909 
L 380.028215 283.828633 
L 381.385467 283.017909 
L 382.742718 283.828633 
L 384.09997 282.612547 
L 385.457221 282.612547 
L 386.814472 283.423271 
L 388.171724 281.801823 
L 389.528975 282.207185 
L 390.886227 283.828633 
L 392.243478 280.991099 
L 393.60073 283.423271 
L 394.957981 283.017909 
L 397.672484 283.828633 
L 399.029735 282.207185 
L 400.386987 283.423271 
L 401.744238 283.828633 
L 403.10149 280.585737 
L 404.458741 284.639357 
L 405.815993 282.612547 
L 407.173244 284.233995 
L 408.530496 284.233995 
L 409.887747 283.423271 
L 411.244998 283.828633 
L 412.60225 283.828633 
L 413.959501 277.748204 
L 415.316753 283.423271 
L 416.674004 283.828633 
L 418.031256 283.828633 
L 420.745759 282.207185 
L 422.10301 279.369651 
L 423.460261 282.207185 
L 424.817513 283.423271 
L 426.174764 283.423271 
L 427.532016 283.017909 
L 428.889267 284.639357 
L 430.246519 283.828633 
L 431.60377 279.775013 
L 432.961022 283.828633 
L 434.318273 280.585737 
L 435.675524 283.017909 
L 437.032776 281.801823 
L 438.390027 280.991099 
L 439.747279 283.423271 
L 441.10453 280.991099 
L 442.461782 279.775013 
L 443.819033 282.612547 
L 445.176285 283.423271 
L 446.533536 283.017909 
L 447.890787 283.828633 
L 449.248039 283.423271 
L 450.60529 281.801823 
L 451.962542 282.207185 
L 453.319793 281.801823 
L 454.677045 283.017909 
L 456.034296 282.612547 
L 457.391548 280.991099 
L 460.10605 282.612547 
L 461.463302 283.017909 
L 462.820553 282.207185 
L 464.177805 276.532118 
L 465.535056 280.991099 
L 466.892308 283.017909 
L 468.249559 281.801823 
L 469.606811 282.612547 
L 470.964062 282.207185 
L 472.321313 283.423271 
L 473.678565 283.423271 
L 475.035816 281.801823 
L 476.393068 283.017909 
L 477.750319 282.207185 
L 479.107571 281.801823 
L 480.464822 281.801823 
L 481.822074 281.396461 
L 483.179325 283.017909 
L 485.893828 282.207185 
L 487.251079 283.423271 
L 488.608331 278.558928 
L 489.965582 282.612547 
L 491.322834 280.585737 
L 492.680085 283.017909 
L 494.037337 281.396461 
L 496.751839 281.396461 
L 498.109091 282.207185 
L 498.109091 282.207185 
" clip-path="url(#p0b50c1f32b)" style="fill: none; stroke: #ff7f0e; stroke-width: 1.5; stroke-linecap: square"/>
   </g>
   <g id="LineCollection_1">
    <path d="M 92.290909 280.991099 
L 498.109091 280.991099 
" clip-path="url(#p0b50c1f32b)" style="fill: none; stroke-dasharray: 1.5,2.475; stroke-dashoffset: 0; stroke: #1f77b4; stroke-width: 1.5"/>
   </g>
   <g id="patch_3">
    <path d="M 72 384.48 
L 72 51.84 
" style="fill: none; stroke: #000000; stroke-width: 0.8; stroke-linejoin: miter; stroke-linecap: square"/>
   </g>
   <g id="patch_4">
    <path d="M 518.4 384.48 
L 518.4 51.84 
" style="fill: none; stroke: #000000; stroke-width: 0.8; stroke-linejoin: miter; stroke-linecap: square"/>
   </g>
   <g id="patch_5">
    <path d="M 72 384.48 
L 518.4 384.48 
" style="fill: none; stroke: #000000; stroke-width: 0.8; stroke-linejoin: miter; stroke-linecap: square"/>
   </g>
   <g id="patch_6">
    <path d="M 72 51.84 
L 518.4 51.84 
" style="fill: none; stroke: #000000; stroke-width: 0.8; stroke-linejoin: miter; stroke-linecap: square"/>
   </g>
   <g id="text_18">
    <!-- Training vs Validation MAE (running avg) -->
    <g transform="translate(173.745 45.84) scale(0.12 -0.12)">
     <defs>
      <path id="DejaVuSans-54" d="M -19 4666 
L 3928 4666 
L 3928 4134 
L 2272 4134 
L 2272 0 
L 1638 0 
L 1638 4134 
L -19 4134 
L -19 4666 
z
" transform="scale(0.015625)"/>
      <path id="DejaVuSans-72" d="M 2631 2963 
Q 2534 3019 2420 3045 
Q 2306 3072 2169 3072 
Q 1681 3072 1420 2755 
Q 1159 2438 1159 1844 
L 1159 0 
L 581 0 
L 581 3500 
L 1159 3500 
L 1159 2956 
Q 1341 3275 1631 3429 
Q 1922 3584 2338 3584 
Q 2397 3584 2469 3576 
Q 2541 3569 2628 3553 
L 2631 2963 
z
" transform="scale(0.015625)"/>
      <path id="DejaVuSans-61" d="M 2194 1759 
Q 1497 1759 1228 1600 
Q 959 1441 959 1056 
Q 959 750 1161 570 
Q 1363 391 1709 391 
Q 2188 391 2477 730 
Q 2766 1069 2766 1631 
L 2766 1759 
L 2194 1759 
z
M 3341 1997 
L 3341 0 
L 2766 0 
L 2766 531 
Q 2569 213 2275 61 
Q 1981 -91 1556 -91 
Q 1019 -91 701 211 
Q 384 513 384 1019 
Q 384 1609 779 1909 
Q 1175 2209 1959 2209 
L 2766 2209 
L 2766 2266 
Q 2766 2663 2505 2880 
Q 2244 3097 1772 3097 
Q 1472 3097 1187 3025 
Q 903 2953 641 2809 
L 641 3341 
Q 956 3463 1253 3523 
Q 1550 3584 1831 3584 
Q 2591 3584 2966 3190 
Q 3341 2797 3341 1997 
z
" transform="scale(0.015625)"/>
      <path id="DejaVuSans-69" d="M 603 3500 
L 1178 3500 
L 1178 0 
L 603 0 
L 603 3500 
z
M 603 4863 
L 1178 4863 
L 1178 4134 
L 603 4134 
L 603 4863 
z
" transform="scale(0.015625)"/>
      <path id="DejaVuSans-6e" d="M 3513 2113 
L 3513 0 
L 2938 0 
L 2938 2094 
Q 2938 2591 2744 2837 
Q 2550 3084 2163 3084 
Q 1697 3084 1428 2787 
Q 1159 2491 1159 1978 
L 1159 0 
L 581 0 
L 581 3500 
L 1159 3500 
L 1159 2956 
Q 1366 3272 1645 3428 
Q 1925 3584 2291 3584 
Q 2894 3584 3203 3211 
Q 3513 2838 3513 2113 
z
" transform="scale(0.015625)"/>
      <path id="DejaVuSans-67" d="M 2906 1791 
Q 2906 2416 2648 2759 
Q 2391 3103 1925 3103 
Q 1463 3103 1205 2759 
Q 947 2416 947 1791 
Q 947 1169 1205 825 
Q 1463 481 1925 481 
Q 2391 481 2648 825 
Q 2906 1169 2906 1791 
z
M 3481 434 
Q 3481 -459 3084 -895 
Q 2688 -1331 1869 -1331 
Q 1566 -1331 1297 -1286 
Q 1028 -1241 775 -1147 
L 775 -588 
Q 1028 -725 1275 -790 
Q 1522 -856 1778 -856 
Q 2344 -856 2625 -561 
Q 2906 -266 2906 331 
L 2906 616 
Q 2728 306 2450 153 
Q 2172 0 1784 0 
Q 1141 0 747 490 
Q 353 981 353 1791 
Q 353 2603 747 3093 
Q 1141 3584 1784 3584 
Q 2172 3584 2450 3431 
Q 2728 3278 2906 2969 
L 2906 3500 
L 3481 3500 
L 3481 434 
z
" transform="scale(0.015625)"/>
      <path id="DejaVuSans-20" transform="scale(0.015625)"/>
      <path id="DejaVuSans-76" d="M 191 3500 
L 800 3500 
L 1894 563 
L 2988 3500 
L 3597 3500 
L 2284 0 
L 1503 0 
L 191 3500 
z
" transform="scale(0.015625)"/>
      <path id="DejaVuSans-73" d="M 2834 3397 
L 2834 2853 
Q 2591 2978 2328 3040 
Q 2066 3103 1784 3103 
Q 1356 3103 1142 2972 
Q 928 2841 928 2578 
Q 928 2378 1081 2264 
Q 1234 2150 1697 2047 
L 1894 2003 
Q 2506 1872 2764 1633 
Q 3022 1394 3022 966 
Q 3022 478 2636 193 
Q 2250 -91 1575 -91 
Q 1294 -91 989 -36 
Q 684 19 347 128 
L 347 722 
Q 666 556 975 473 
Q 1284 391 1588 391 
Q 1994 391 2212 530 
Q 2431 669 2431 922 
Q 2431 1156 2273 1281 
Q 2116 1406 1581 1522 
L 1381 1569 
Q 847 1681 609 1914 
Q 372 2147 372 2553 
Q 372 3047 722 3315 
Q 1072 3584 1716 3584 
Q 2034 3584 2315 3537 
Q 2597 3491 2834 3397 
z
" transform="scale(0.015625)"/>
      <path id="DejaVuSans-56" d="M 1831 0 
L 50 4666 
L 709 4666 
L 2188 738 
L 3669 4666 
L 4325 4666 
L 2547 0 
L 1831 0 
z
" transform="scale(0.015625)"/>
      <path id="DejaVuSans-6c" d="M 603 4863 
L 1178 4863 
L 1178 0 
L 603 0 
L 603 4863 
z
" transform="scale(0.015625)"/>
      <path id="DejaVuSans-64" d="M 2906 2969 
L 2906 4863 
L 3481 4863 
L 3481 0 
L 2906 0 
L 2906 525 
Q 2725 213 2448 61 
Q 2172 -91 1784 -91 
Q 1150 -91 751 415 
Q 353 922 353 1747 
Q 353 2572 751 3078 
Q 1150 3584 1784 3584 
Q 2172 3584 2448 3432 
Q 2725 3281 2906 2969 
z
M 947 1747 
Q 947 1113 1208 752 
Q 1469 391 1925 391 
Q 2381 391 2643 752 
Q 2906 1113 2906 1747 
Q 2906 2381 2643 2742 
Q 2381 3103 1925 3103 
Q 1469 3103 1208 2742 
Q 947 2381 947 1747 
z
" transform="scale(0.015625)"/>
      <path id="DejaVuSans-74" d="M 1172 4494 
L 1172 3500 
L 2356 3500 
L 2356 3053 
L 1172 3053 
L 1172 1153 
Q 1172 725 1289 603 
Q 1406 481 1766 481 
L 2356 481 
L 2356 0 
L 1766 0 
Q 1100 0 847 248 
Q 594 497 594 1153 
L 594 3053 
L 172 3053 
L 172 3500 
L 594 3500 
L 594 4494 
L 1172 4494 
z
" transform="scale(0.015625)"/>
      <path id="DejaVuSans-28" d="M 1984 4856 
Q 1566 4138 1362 3434 
Q 1159 2731 1159 2009 
Q 1159 1288 1364 580 
Q 1569 -128 1984 -844 
L 1484 -844 
Q 1016 -109 783 600 
Q 550 1309 550 2009 
Q 550 2706 781 3412 
Q 1013 4119 1484 4856 
L 1984 4856 
z
" transform="scale(0.015625)"/>
      <path id="DejaVuSans-75" d="M 544 1381 
L 544 3500 
L 1119 3500 
L 1119 1403 
Q 1119 906 1312 657 
Q 1506 409 1894 409 
Q 2359 409 2629 706 
Q 2900 1003 2900 1516 
L 2900 3500 
L 3475 3500 
L 3475 0 
L 2900 0 
L 2900 538 
Q 2691 219 2414 64 
Q 2138 -91 1772 -91 
Q 1169 -91 856 284 
Q 544 659 544 1381 
z
M 1991 3584 
L 1991 3584 
z
" transform="scale(0.015625)"/>
      <path id="DejaVuSans-29" d="M 513 4856 
L 1013 4856 
Q 1481 4119 1714 3412 
Q 1947 2706 1947 2009 
Q 1947 1309 1714 600 
Q 1481 -109 1013 -844 
L 513 -844 
Q 928 -128 1133 580 
Q 1338 1288 1338 2009 
Q 1338 2731 1133 3434 
Q 928 4138 513 4856 
z
" transform="scale(0.015625)"/>
     </defs>
     <use xlink:href="#DejaVuSans-54"/>
     <use xlink:href="#DejaVuSans-72" transform="translate(46.333984 0)"/>
     <use xlink:href="#DejaVuSans-61" transform="translate(87.447266 0)"/>
     <use xlink:href="#DejaVuSans-69" transform="translate(148.726562 0)"/>
     <use xlink:href="#DejaVuSans-6e" transform="translate(176.509766 0)"/>
     <use xlink:href="#DejaVuSans-69" transform="translate(239.888672 0)"/>
     <use xlink:href="#DejaVuSans-6e" transform="translate(267.671875 0)"/>
     <use xlink:href="#DejaVuSans-67" transform="translate(331.050781 0)"/>
     <use xlink:href="#DejaVuSans-20" transform="translate(394.527344 0)"/>
     <use xlink:href="#DejaVuSans-76" transform="translate(426.314453 0)"/>
     <use xlink:href="#DejaVuSans-73" transform="translate(485.494141 0)"/>
     <use xlink:href="#DejaVuSans-20" transform="translate(537.59375 0)"/>
     <use xlink:href="#DejaVuSans-56" transform="translate(569.380859 0)"/>
     <use xlink:href="#DejaVuSans-61" transform="translate(630.039062 0)"/>
     <use xlink:href="#DejaVuSans-6c" transform="translate(691.318359 0)"/>
     <use xlink:href="#DejaVuSans-69" transform="translate(719.101562 0)"/>
     <use xlink:href="#DejaVuSans-64" transform="translate(746.884766 0)"/>
     <use xlink:href="#DejaVuSans-61" transform="translate(810.361328 0)"/>
     <use xlink:href="#DejaVuSans-74" transform="translate(871.640625 0)"/>
     <use xlink:href="#DejaVuSans-69" transform="translate(910.849609 0)"/>
     <use xlink:href="#DejaVuSans-6f" transform="translate(938.632812 0)"/>
     <use xlink:href="#DejaVuSans-6e" transform="translate(999.814453 0)"/>
     <use xlink:href="#DejaVuSans-20" transform="translate(1063.193359 0)"/>
     <use xlink:href="#DejaVuSans-4d" transform="translate(1094.980469 0)"/>
     <use xlink:href="#DejaVuSans-41" transform="translate(1181.259766 0)"/>
     <use xlink:href="#DejaVuSans-45" transform="translate(1249.667969 0)"/>
     <use xlink:href="#DejaVuSans-20" transform="translate(1312.851562 0)"/>
     <use xlink:href="#DejaVuSans-28" transform="translate(1344.638672 0)"/>
     <use xlink:href="#DejaVuSans-72" transform="translate(1383.652344 0)"/>
     <use xlink:href="#DejaVuSans-75" transform="translate(1424.765625 0)"/>
     <use xlink:href="#DejaVuSans-6e" transform="translate(1488.144531 0)"/>
     <use xlink:href="#DejaVuSans-6e" transform="translate(1551.523438 0)"/>
     <use xlink:href="#DejaVuSans-69" transform="translate(1614.902344 0)"/>
     <use xlink:href="#DejaVuSans-6e" transform="translate(1642.685547 0)"/>
     <use xlink:href="#DejaVuSans-67" transform="translate(1706.064453 0)"/>
     <use xlink:href="#DejaVuSans-20" transform="translate(1769.541016 0)"/>
     <use xlink:href="#DejaVuSans-61" transform="translate(1801.328125 0)"/>
     <use xlink:href="#DejaVuSans-76" transform="translate(1862.607422 0)"/>
     <use xlink:href="#DejaVuSans-67" transform="translate(1921.787109 0)"/>
     <use xlink:href="#DejaVuSans-29" transform="translate(1985.263672 0)"/>
    </g>
   </g>
   <g id="legend_1">
    <g id="patch_7">
     <path d="M 349.204687 103.874375 
L 511.4 103.874375 
Q 513.4 103.874375 513.4 101.874375 
L 513.4 58.84 
Q 513.4 56.84 511.4 56.84 
L 349.204687 56.84 
Q 347.204687 56.84 347.204687 58.84 
L 347.204687 101.874375 
Q 347.204687 103.874375 349.204687 103.874375 
z
" style="fill: #ffffff; opacity: 0.8; stroke: #cccccc; stroke-linejoin: miter"/>
    </g>
    <g id="line2d_33">
     <path d="M 351.204687 64.938437 
L 361.204687 64.938437 
L 371.204687 64.938437 
" style="fill: none; stroke: #1f77b4; stroke-width: 1.5; stroke-linecap: square"/>
    </g>
    <g id="text_19">
     <!-- Train -->
     <g transform="translate(379.204687 68.438437) scale(0.1 -0.1)">
      <use xlink:href="#DejaVuSans-54"/>
      <use xlink:href="#DejaVuSans-72" transform="translate(46.333984 0)"/>
      <use xlink:href="#DejaVuSans-61" transform="translate(87.447266 0)"/>
      <use xlink:href="#DejaVuSans-69" transform="translate(148.726562 0)"/>
      <use xlink:href="#DejaVuSans-6e" transform="translate(176.509766 0)"/>
     </g>
    </g>
    <g id="line2d_34">
     <path d="M 351.204687 79.616562 
L 361.204687 79.616562 
L 371.204687 79.616562 
" style="fill: none; stroke: #ff7f0e; stroke-width: 1.5; stroke-linecap: square"/>
    </g>
    <g id="text_20">
     <!-- Validation -->
     <g transform="translate(379.204687 83.116562) scale(0.1 -0.1)">
      <use xlink:href="#DejaVuSans-56"/>
      <use xlink:href="#DejaVuSans-61" transform="translate(60.658203 0)"/>
      <use xlink:href="#DejaVuSans-6c" transform="translate(121.9375 0)"/>
      <use xlink:href="#DejaVuSans-69" transform="translate(149.720703 0)"/>
      <use xlink:href="#DejaVuSans-64" transform="translate(177.503906 0)"/>
      <use xlink:href="#DejaVuSans-61" transform="translate(240.980469 0)"/>
      <use xlink:href="#DejaVuSans-74" transform="translate(302.259766 0)"/>
      <use xlink:href="#DejaVuSans-69" transform="translate(341.46875 0)"/>
      <use xlink:href="#DejaVuSans-6f" transform="translate(369.251953 0)"/>
      <use xlink:href="#DejaVuSans-6e" transform="translate(430.433594 0)"/>
     </g>
    </g>
    <g id="line2d_35">
     <path d="M 351.204687 94.294687 
L 371.204687 94.294687 
" style="fill: none; stroke-dasharray: 1.5,2.475; stroke-dashoffset: 0; stroke: #1f77b4; stroke-width: 1.5"/>
    </g>
    <g id="text_21">
     <!-- Test summary MAE: 0.323 -->
     <g transform="translate(379.204687 97.794687) scale(0.1 -0.1)">
      <defs>
       <path id="DejaVuSans-65" d="M 3597 1894 
L 3597 1613 
L 953 1613 
Q 991 1019 1311 708 
Q 1631 397 2203 397 
Q 2534 397 2845 478 
Q 3156 559 3463 722 
L 3463 178 
Q 3153 47 2828 -22 
Q 2503 -91 2169 -91 
Q 1331 -91 842 396 
Q 353 884 353 1716 
Q 353 2575 817 3079 
Q 1281 3584 2069 3584 
Q 2775 3584 3186 3129 
Q 3597 2675 3597 1894 
z
M 3022 2063 
Q 3016 2534 2758 2815 
Q 2500 3097 2075 3097 
Q 1594 3097 1305 2825 
Q 1016 2553 972 2059 
L 3022 2063 
z
" transform="scale(0.015625)"/>
       <path id="DejaVuSans-6d" d="M 3328 2828 
Q 3544 3216 3844 3400 
Q 4144 3584 4550 3584 
Q 5097 3584 5394 3201 
Q 5691 2819 5691 2113 
L 5691 0 
L 5113 0 
L 5113 2094 
Q 5113 2597 4934 2840 
Q 4756 3084 4391 3084 
Q 3944 3084 3684 2787 
Q 3425 2491 3425 1978 
L 3425 0 
L 2847 0 
L 2847 2094 
Q 2847 2600 2669 2842 
Q 2491 3084 2119 3084 
Q 1678 3084 1418 2786 
Q 1159 2488 1159 1978 
L 1159 0 
L 581 0 
L 581 3500 
L 1159 3500 
L 1159 2956 
Q 1356 3278 1631 3431 
Q 1906 3584 2284 3584 
Q 2666 3584 2933 3390 
Q 3200 3197 3328 2828 
z
" transform="scale(0.015625)"/>
       <path id="DejaVuSans-79" d="M 2059 -325 
Q 1816 -950 1584 -1140 
Q 1353 -1331 966 -1331 
L 506 -1331 
L 506 -850 
L 844 -850 
Q 1081 -850 1212 -737 
Q 1344 -625 1503 -206 
L 1606 56 
L 191 3500 
L 800 3500 
L 1894 763 
L 2988 3500 
L 3597 3500 
L 2059 -325 
z
" transform="scale(0.015625)"/>
       <path id="DejaVuSans-3a" d="M 750 794 
L 1409 794 
L 1409 0 
L 750 0 
L 750 794 
z
M 750 3309 
L 1409 3309 
L 1409 2516 
L 750 2516 
L 750 3309 
z
" transform="scale(0.015625)"/>
      </defs>
      <use xlink:href="#DejaVuSans-54"/>
      <use xlink:href="#DejaVuSans-65" transform="translate(44.083984 0)"/>
      <use xlink:href="#DejaVuSans-73" transform="translate(105.607422 0)"/>
      <use xlink:href="#DejaVuSans-74" transform="translate(157.707031 0)"/>
      <use xlink:href="#DejaVuSans-20" transform="translate(196.916016 0)"/>
      <use xlink:href="#DejaVuSans-73" transform="translate(228.703125 0)"/>
      <use xlink:href="#DejaVuSans-75" transform="translate(280.802734 0)"/>
      <use xlink:href="#DejaVuSans-6d" transform="translate(344.181641 0)"/>
      <use xlink:href="#DejaVuSans-6d" transform="translate(441.59375 0)"/>
      <use xlink:href="#DejaVuSans-61" transform="translate(539.005859 0)"/>
      <use xlink:href="#DejaVuSans-72" transform="translate(600.285156 0)"/>
      <use xlink:href="#DejaVuSans-79" transform="translate(641.398438 0)"/>
      <use xlink:href="#DejaVuSans-20" transform="translate(700.578125 0)"/>
      <use xlink:href="#DejaVuSans-4d" transform="translate(732.365234 0)"/>
      <use xlink:href="#DejaVuSans-41" transform="translate(818.644531 0)"/>
      <use xlink:href="#DejaVuSans-45" transform="translate(887.052734 0)"/>
      <use xlink:href="#DejaVuSans-3a" transform="translate(950.236328 0)"/>
      <use xlink:href="#DejaVuSans-20" transform="translate(983.927734 0)"/>
      <use xlink:href="#DejaVuSans-30" transform="translate(1015.714844 0)"/>
      <use xlink:href="#DejaVuSans-2e" transform="translate(1079.337891 0)"/>
      <use xlink:href="#DejaVuSans-33" transform="translate(1111.125 0)"/>
      <use xlink:href="#DejaVuSans-32" transform="translate(1174.748047 0)"/>
      <use xlink:href="#DejaVuSans-33" transform="translate(1238.371094 0)"/>
     </g>
    </g>
   </g>
  </g>
 </g>
 <defs>
  <clipPath id="p0b50c1f32b">
   <rect x="72" y="51.84" width="446.4" height="332.64"/>
  </clipPath>
 </defs>
</svg>
