<?xml version="1.0" encoding="utf-8" standalone="no"?>
<!DOCTYPE svg PUBLIC "-//W3C//DTD SVG 1.1//EN"
  "http://www.w3.org/Graphics/SVG/1.1/DTD/svg11.dtd">
<svg xmlns:xlink="http://www.w3.org/1999/xlink" width="503.74375pt" height="392.514375pt" viewBox="0 0 503.74375 392.514375" xmlns="http://www.w3.org/2000/svg" version="1.1">
 <metadata>
  <rdf:RDF xmlns:dc="http://purl.org/dc/elements/1.1/" xmlns:cc="http://creativecommons.org/ns#" xmlns:rdf="http://www.w3.org/1999/02/22-rdf-syntax-ns#">
   <cc:Work>
    <dc:type rdf:resource="http://purl.org/dc/dcmitype/StillImage"/>
    <dc:date>2025-05-22T21:13:25.859179</dc:date>
    <dc:format>image/svg+xml</dc:format>
    <dc:creator>
     <cc:Agent>
      <dc:title>Matplotlib v3.10.0, https://matplotlib.org/</dc:title>
     </cc:Agent>
    </dc:creator>
   </cc:Work>
  </rdf:RDF>
 </metadata>
 <defs>
  <style type="text/css">*{stroke-linejoin: round; stroke-linecap: butt}</style>
 </defs>
 <g id="figure_1">
  <g id="patch_1">
   <path d="M 0 392.514375 
L 503.74375 392.514375 
L 503.74375 0 
L 0 0 
z
" style="fill: #ffffff"/>
  </g>
  <g id="axes_1">
   <g id="patch_2">
    <path d="M 50.14375 354.958125 
L 496.54375 354.958125 
L 496.54375 22.318125 
L 50.14375 22.318125 
z
" style="fill: #ffffff"/>
   </g>
   <g id="matplotlib.axis_1">
    <g id="xtick_1">
     <g id="line2d_1">
      <path d="M 70.434659 354.958125 
L 70.434659 22.318125 
" clip-path="url(#p78f042b643)" style="fill: none; stroke: #b0b0b0; stroke-opacity: 0.3; stroke-width: 0.8; stroke-linecap: square"/>
     </g>
     <g id="line2d_2">
      <defs>
       <path id="mdc8dd4760c" d="M 0 0 
L 0 3.5 
" style="stroke: #000000; stroke-width: 0.8"/>
      </defs>
      <g>
       <use xlink:href="#mdc8dd4760c" x="70.434659" y="354.958125" style="stroke: #000000; stroke-width: 0.8"/>
      </g>
     </g>
     <g id="text_1">
      <!-- 0 -->
      <g transform="translate(67.253409 369.556562) scale(0.1 -0.1)">
       <defs>
        <path id="DejaVuSans-30" d="M 2034 4250 
Q 1547 4250 1301 3770 
Q 1056 3291 1056 2328 
Q 1056 1369 1301 889 
Q 1547 409 2034 409 
Q 2525 409 2770 889 
Q 3016 1369 3016 2328 
Q 3016 3291 2770 3770 
Q 2525 4250 2034 4250 
z
M 2034 4750 
Q 2819 4750 3233 4129 
Q 3647 3509 3647 2328 
Q 3647 1150 3233 529 
Q 2819 -91 2034 -91 
Q 1250 -91 836 529 
Q 422 1150 422 2328 
Q 422 3509 836 4129 
Q 1250 4750 2034 4750 
z
" transform="scale(0.015625)"/>
       </defs>
       <use xlink:href="#DejaVuSans-30"/>
      </g>
     </g>
    </g>
    <g id="xtick_2">
     <g id="line2d_3">
      <path d="M 138.297231 354.958125 
L 138.297231 22.318125 
" clip-path="url(#p78f042b643)" style="fill: none; stroke: #b0b0b0; stroke-opacity: 0.3; stroke-width: 0.8; stroke-linecap: square"/>
     </g>
     <g id="line2d_4">
      <g>
       <use xlink:href="#mdc8dd4760c" x="138.297231" y="354.958125" style="stroke: #000000; stroke-width: 0.8"/>
      </g>
     </g>
     <g id="text_2">
      <!-- 50 -->
      <g transform="translate(131.934731 369.556562) scale(0.1 -0.1)">
       <defs>
        <path id="DejaVuSans-35" d="M 691 4666 
L 3169 4666 
L 3169 4134 
L 1269 4134 
L 1269 2991 
Q 1406 3038 1543 3061 
Q 1681 3084 1819 3084 
Q 2600 3084 3056 2656 
Q 3513 2228 3513 1497 
Q 3513 744 3044 326 
Q 2575 -91 1722 -91 
Q 1428 -91 1123 -41 
Q 819 9 494 109 
L 494 744 
Q 775 591 1075 516 
Q 1375 441 1709 441 
Q 2250 441 2565 725 
Q 2881 1009 2881 1497 
Q 2881 1984 2565 2268 
Q 2250 2553 1709 2553 
Q 1456 2553 1204 2497 
Q 953 2441 691 2322 
L 691 4666 
z
" transform="scale(0.015625)"/>
       </defs>
       <use xlink:href="#DejaVuSans-35"/>
       <use xlink:href="#DejaVuSans-30" transform="translate(63.623047 0)"/>
      </g>
     </g>
    </g>
    <g id="xtick_3">
     <g id="line2d_5">
      <path d="M 206.159804 354.958125 
L 206.159804 22.318125 
" clip-path="url(#p78f042b643)" style="fill: none; stroke: #b0b0b0; stroke-opacity: 0.3; stroke-width: 0.8; stroke-linecap: square"/>
     </g>
     <g id="line2d_6">
      <g>
       <use xlink:href="#mdc8dd4760c" x="206.159804" y="354.958125" style="stroke: #000000; stroke-width: 0.8"/>
      </g>
     </g>
     <g id="text_3">
      <!-- 100 -->
      <g transform="translate(196.616054 369.556562) scale(0.1 -0.1)">
       <defs>
        <path id="DejaVuSans-31" d="M 794 531 
L 1825 531 
L 1825 4091 
L 703 3866 
L 703 4441 
L 1819 4666 
L 2450 4666 
L 2450 531 
L 3481 531 
L 3481 0 
L 794 0 
L 794 531 
z
" transform="scale(0.015625)"/>
       </defs>
       <use xlink:href="#DejaVuSans-31"/>
       <use xlink:href="#DejaVuSans-30" transform="translate(63.623047 0)"/>
       <use xlink:href="#DejaVuSans-30" transform="translate(127.246094 0)"/>
      </g>
     </g>
    </g>
    <g id="xtick_4">
     <g id="line2d_7">
      <path d="M 274.022376 354.958125 
L 274.022376 22.318125 
" clip-path="url(#p78f042b643)" style="fill: none; stroke: #b0b0b0; stroke-opacity: 0.3; stroke-width: 0.8; stroke-linecap: square"/>
     </g>
     <g id="line2d_8">
      <g>
       <use xlink:href="#mdc8dd4760c" x="274.022376" y="354.958125" style="stroke: #000000; stroke-width: 0.8"/>
      </g>
     </g>
     <g id="text_4">
      <!-- 150 -->
      <g transform="translate(264.478626 369.556562) scale(0.1 -0.1)">
       <use xlink:href="#DejaVuSans-31"/>
       <use xlink:href="#DejaVuSans-35" transform="translate(63.623047 0)"/>
       <use xlink:href="#DejaVuSans-30" transform="translate(127.246094 0)"/>
      </g>
     </g>
    </g>
    <g id="xtick_5">
     <g id="line2d_9">
      <path d="M 341.884948 354.958125 
L 341.884948 22.318125 
" clip-path="url(#p78f042b643)" style="fill: none; stroke: #b0b0b0; stroke-opacity: 0.3; stroke-width: 0.8; stroke-linecap: square"/>
     </g>
     <g id="line2d_10">
      <g>
       <use xlink:href="#mdc8dd4760c" x="341.884948" y="354.958125" style="stroke: #000000; stroke-width: 0.8"/>
      </g>
     </g>
     <g id="text_5">
      <!-- 200 -->
      <g transform="translate(332.341198 369.556562) scale(0.1 -0.1)">
       <defs>
        <path id="DejaVuSans-32" d="M 1228 531 
L 3431 531 
L 3431 0 
L 469 0 
L 469 531 
Q 828 903 1448 1529 
Q 2069 2156 2228 2338 
Q 2531 2678 2651 2914 
Q 2772 3150 2772 3378 
Q 2772 3750 2511 3984 
Q 2250 4219 1831 4219 
Q 1534 4219 1204 4116 
Q 875 4013 500 3803 
L 500 4441 
Q 881 4594 1212 4672 
Q 1544 4750 1819 4750 
Q 2544 4750 2975 4387 
Q 3406 4025 3406 3419 
Q 3406 3131 3298 2873 
Q 3191 2616 2906 2266 
Q 2828 2175 2409 1742 
Q 1991 1309 1228 531 
z
" transform="scale(0.015625)"/>
       </defs>
       <use xlink:href="#DejaVuSans-32"/>
       <use xlink:href="#DejaVuSans-30" transform="translate(63.623047 0)"/>
       <use xlink:href="#DejaVuSans-30" transform="translate(127.246094 0)"/>
      </g>
     </g>
    </g>
    <g id="xtick_6">
     <g id="line2d_11">
      <path d="M 409.74752 354.958125 
L 409.74752 22.318125 
" clip-path="url(#p78f042b643)" style="fill: none; stroke: #b0b0b0; stroke-opacity: 0.3; stroke-width: 0.8; stroke-linecap: square"/>
     </g>
     <g id="line2d_12">
      <g>
       <use xlink:href="#mdc8dd4760c" x="409.74752" y="354.958125" style="stroke: #000000; stroke-width: 0.8"/>
      </g>
     </g>
     <g id="text_6">
      <!-- 250 -->
      <g transform="translate(400.20377 369.556562) scale(0.1 -0.1)">
       <use xlink:href="#DejaVuSans-32"/>
       <use xlink:href="#DejaVuSans-35" transform="translate(63.623047 0)"/>
       <use xlink:href="#DejaVuSans-30" transform="translate(127.246094 0)"/>
      </g>
     </g>
    </g>
    <g id="xtick_7">
     <g id="line2d_13">
      <path d="M 477.610092 354.958125 
L 477.610092 22.318125 
" clip-path="url(#p78f042b643)" style="fill: none; stroke: #b0b0b0; stroke-opacity: 0.3; stroke-width: 0.8; stroke-linecap: square"/>
     </g>
     <g id="line2d_14">
      <g>
       <use xlink:href="#mdc8dd4760c" x="477.610092" y="354.958125" style="stroke: #000000; stroke-width: 0.8"/>
      </g>
     </g>
     <g id="text_7">
      <!-- 300 -->
      <g transform="translate(468.066342 369.556562) scale(0.1 -0.1)">
       <defs>
        <path id="DejaVuSans-33" d="M 2597 2516 
Q 3050 2419 3304 2112 
Q 3559 1806 3559 1356 
Q 3559 666 3084 287 
Q 2609 -91 1734 -91 
Q 1441 -91 1130 -33 
Q 819 25 488 141 
L 488 750 
Q 750 597 1062 519 
Q 1375 441 1716 441 
Q 2309 441 2620 675 
Q 2931 909 2931 1356 
Q 2931 1769 2642 2001 
Q 2353 2234 1838 2234 
L 1294 2234 
L 1294 2753 
L 1863 2753 
Q 2328 2753 2575 2939 
Q 2822 3125 2822 3475 
Q 2822 3834 2567 4026 
Q 2313 4219 1838 4219 
Q 1578 4219 1281 4162 
Q 984 4106 628 3988 
L 628 4550 
Q 988 4650 1302 4700 
Q 1616 4750 1894 4750 
Q 2613 4750 3031 4423 
Q 3450 4097 3450 3541 
Q 3450 3153 3228 2886 
Q 3006 2619 2597 2516 
z
" transform="scale(0.015625)"/>
       </defs>
       <use xlink:href="#DejaVuSans-33"/>
       <use xlink:href="#DejaVuSans-30" transform="translate(63.623047 0)"/>
       <use xlink:href="#DejaVuSans-30" transform="translate(127.246094 0)"/>
      </g>
     </g>
    </g>
    <g id="text_8">
     <!-- Epoch -->
     <g transform="translate(258.032812 383.234687) scale(0.1 -0.1)">
      <defs>
       <path id="DejaVuSans-45" d="M 628 4666 
L 3578 4666 
L 3578 4134 
L 1259 4134 
L 1259 2753 
L 3481 2753 
L 3481 2222 
L 1259 2222 
L 1259 531 
L 3634 531 
L 3634 0 
L 628 0 
L 628 4666 
z
" transform="scale(0.015625)"/>
       <path id="DejaVuSans-70" d="M 1159 525 
L 1159 -1331 
L 581 -1331 
L 581 3500 
L 1159 3500 
L 1159 2969 
Q 1341 3281 1617 3432 
Q 1894 3584 2278 3584 
Q 2916 3584 3314 3078 
Q 3713 2572 3713 1747 
Q 3713 922 3314 415 
Q 2916 -91 2278 -91 
Q 1894 -91 1617 61 
Q 1341 213 1159 525 
z
M 3116 1747 
Q 3116 2381 2855 2742 
Q 2594 3103 2138 3103 
Q 1681 3103 1420 2742 
Q 1159 2381 1159 1747 
Q 1159 1113 1420 752 
Q 1681 391 2138 391 
Q 2594 391 2855 752 
Q 3116 1113 3116 1747 
z
" transform="scale(0.015625)"/>
       <path id="DejaVuSans-6f" d="M 1959 3097 
Q 1497 3097 1228 2736 
Q 959 2375 959 1747 
Q 959 1119 1226 758 
Q 1494 397 1959 397 
Q 2419 397 2687 759 
Q 2956 1122 2956 1747 
Q 2956 2369 2687 2733 
Q 2419 3097 1959 3097 
z
M 1959 3584 
Q 2709 3584 3137 3096 
Q 3566 2609 3566 1747 
Q 3566 888 3137 398 
Q 2709 -91 1959 -91 
Q 1206 -91 779 398 
Q 353 888 353 1747 
Q 353 2609 779 3096 
Q 1206 3584 1959 3584 
z
" transform="scale(0.015625)"/>
       <path id="DejaVuSans-63" d="M 3122 3366 
L 3122 2828 
Q 2878 2963 2633 3030 
Q 2388 3097 2138 3097 
Q 1578 3097 1268 2742 
Q 959 2388 959 1747 
Q 959 1106 1268 751 
Q 1578 397 2138 397 
Q 2388 397 2633 464 
Q 2878 531 3122 666 
L 3122 134 
Q 2881 22 2623 -34 
Q 2366 -91 2075 -91 
Q 1284 -91 818 406 
Q 353 903 353 1747 
Q 353 2603 823 3093 
Q 1294 3584 2113 3584 
Q 2378 3584 2631 3529 
Q 2884 3475 3122 3366 
z
" transform="scale(0.015625)"/>
       <path id="DejaVuSans-68" d="M 3513 2113 
L 3513 0 
L 2938 0 
L 2938 2094 
Q 2938 2591 2744 2837 
Q 2550 3084 2163 3084 
Q 1697 3084 1428 2787 
Q 1159 2491 1159 1978 
L 1159 0 
L 581 0 
L 581 4863 
L 1159 4863 
L 1159 2956 
Q 1366 3272 1645 3428 
Q 1925 3584 2291 3584 
Q 2894 3584 3203 3211 
Q 3513 2838 3513 2113 
z
" transform="scale(0.015625)"/>
      </defs>
      <use xlink:href="#DejaVuSans-45"/>
      <use xlink:href="#DejaVuSans-70" transform="translate(63.183594 0)"/>
      <use xlink:href="#DejaVuSans-6f" transform="translate(126.660156 0)"/>
      <use xlink:href="#DejaVuSans-63" transform="translate(187.841797 0)"/>
      <use xlink:href="#DejaVuSans-68" transform="translate(242.822266 0)"/>
     </g>
    </g>
   </g>
   <g id="matplotlib.axis_2">
    <g id="ytick_1">
     <g id="line2d_15">
      <path d="M 50.14375 285.335188 
L 496.54375 285.335188 
" clip-path="url(#p78f042b643)" style="fill: none; stroke: #b0b0b0; stroke-opacity: 0.3; stroke-width: 0.8; stroke-linecap: square"/>
     </g>
     <g id="line2d_16">
      <defs>
       <path id="m861dab2ff6" d="M 0 0 
L -3.5 0 
" style="stroke: #000000; stroke-width: 0.8"/>
      </defs>
      <g>
       <use xlink:href="#m861dab2ff6" x="50.14375" y="285.335188" style="stroke: #000000; stroke-width: 0.8"/>
      </g>
     </g>
     <g id="text_9">
      <!-- 0.01 -->
      <g transform="translate(20.878125 289.134407) scale(0.1 -0.1)">
       <defs>
        <path id="DejaVuSans-2e" d="M 684 794 
L 1344 794 
L 1344 0 
L 684 0 
L 684 794 
z
" transform="scale(0.015625)"/>
       </defs>
       <use xlink:href="#DejaVuSans-30"/>
       <use xlink:href="#DejaVuSans-2e" transform="translate(63.623047 0)"/>
       <use xlink:href="#DejaVuSans-30" transform="translate(95.410156 0)"/>
       <use xlink:href="#DejaVuSans-31" transform="translate(159.033203 0)"/>
      </g>
     </g>
    </g>
    <g id="ytick_2">
     <g id="line2d_17">
      <path d="M 50.14375 214.515203 
L 496.54375 214.515203 
" clip-path="url(#p78f042b643)" style="fill: none; stroke: #b0b0b0; stroke-opacity: 0.3; stroke-width: 0.8; stroke-linecap: square"/>
     </g>
     <g id="line2d_18">
      <g>
       <use xlink:href="#m861dab2ff6" x="50.14375" y="214.515203" style="stroke: #000000; stroke-width: 0.8"/>
      </g>
     </g>
     <g id="text_10">
      <!-- 0.02 -->
      <g transform="translate(20.878125 218.314422) scale(0.1 -0.1)">
       <use xlink:href="#DejaVuSans-30"/>
       <use xlink:href="#DejaVuSans-2e" transform="translate(63.623047 0)"/>
       <use xlink:href="#DejaVuSans-30" transform="translate(95.410156 0)"/>
       <use xlink:href="#DejaVuSans-32" transform="translate(159.033203 0)"/>
      </g>
     </g>
    </g>
    <g id="ytick_3">
     <g id="line2d_19">
      <path d="M 50.14375 143.695219 
L 496.54375 143.695219 
" clip-path="url(#p78f042b643)" style="fill: none; stroke: #b0b0b0; stroke-opacity: 0.3; stroke-width: 0.8; stroke-linecap: square"/>
     </g>
     <g id="line2d_20">
      <g>
       <use xlink:href="#m861dab2ff6" x="50.14375" y="143.695219" style="stroke: #000000; stroke-width: 0.8"/>
      </g>
     </g>
     <g id="text_11">
      <!-- 0.03 -->
      <g transform="translate(20.878125 147.494437) scale(0.1 -0.1)">
       <use xlink:href="#DejaVuSans-30"/>
       <use xlink:href="#DejaVuSans-2e" transform="translate(63.623047 0)"/>
       <use xlink:href="#DejaVuSans-30" transform="translate(95.410156 0)"/>
       <use xlink:href="#DejaVuSans-33" transform="translate(159.033203 0)"/>
      </g>
     </g>
    </g>
    <g id="ytick_4">
     <g id="line2d_21">
      <path d="M 50.14375 72.875234 
L 496.54375 72.875234 
" clip-path="url(#p78f042b643)" style="fill: none; stroke: #b0b0b0; stroke-opacity: 0.3; stroke-width: 0.8; stroke-linecap: square"/>
     </g>
     <g id="line2d_22">
      <g>
       <use xlink:href="#m861dab2ff6" x="50.14375" y="72.875234" style="stroke: #000000; stroke-width: 0.8"/>
      </g>
     </g>
     <g id="text_12">
      <!-- 0.04 -->
      <g transform="translate(20.878125 76.674452) scale(0.1 -0.1)">
       <defs>
        <path id="DejaVuSans-34" d="M 2419 4116 
L 825 1625 
L 2419 1625 
L 2419 4116 
z
M 2253 4666 
L 3047 4666 
L 3047 1625 
L 3713 1625 
L 3713 1100 
L 3047 1100 
L 3047 0 
L 2419 0 
L 2419 1100 
L 313 1100 
L 313 1709 
L 2253 4666 
z
" transform="scale(0.015625)"/>
       </defs>
       <use xlink:href="#DejaVuSans-30"/>
       <use xlink:href="#DejaVuSans-2e" transform="translate(63.623047 0)"/>
       <use xlink:href="#DejaVuSans-30" transform="translate(95.410156 0)"/>
       <use xlink:href="#DejaVuSans-34" transform="translate(159.033203 0)"/>
      </g>
     </g>
    </g>
    <g id="text_13">
     <!-- Loss (MSE) -->
     <g transform="translate(14.798437 215.743594) rotate(-90) scale(0.1 -0.1)">
      <defs>
       <path id="DejaVuSans-4c" d="M 628 4666 
L 1259 4666 
L 1259 531 
L 3531 531 
L 3531 0 
L 628 0 
L 628 4666 
z
" transform="scale(0.015625)"/>
       <path id="DejaVuSans-73" d="M 2834 3397 
L 2834 2853 
Q 2591 2978 2328 3040 
Q 2066 3103 1784 3103 
Q 1356 3103 1142 2972 
Q 928 2841 928 2578 
Q 928 2378 1081 2264 
Q 1234 2150 1697 2047 
L 1894 2003 
Q 2506 1872 2764 1633 
Q 3022 1394 3022 966 
Q 3022 478 2636 193 
Q 2250 -91 1575 -91 
Q 1294 -91 989 -36 
Q 684 19 347 128 
L 347 722 
Q 666 556 975 473 
Q 1284 391 1588 391 
Q 1994 391 2212 530 
Q 2431 669 2431 922 
Q 2431 1156 2273 1281 
Q 2116 1406 1581 1522 
L 1381 1569 
Q 847 1681 609 1914 
Q 372 2147 372 2553 
Q 372 3047 722 3315 
Q 1072 3584 1716 3584 
Q 2034 3584 2315 3537 
Q 2597 3491 2834 3397 
z
" transform="scale(0.015625)"/>
       <path id="DejaVuSans-20" transform="scale(0.015625)"/>
       <path id="DejaVuSans-28" d="M 1984 4856 
Q 1566 4138 1362 3434 
Q 1159 2731 1159 2009 
Q 1159 1288 1364 580 
Q 1569 -128 1984 -844 
L 1484 -844 
Q 1016 -109 783 600 
Q 550 1309 550 2009 
Q 550 2706 781 3412 
Q 1013 4119 1484 4856 
L 1984 4856 
z
" transform="scale(0.015625)"/>
       <path id="DejaVuSans-4d" d="M 628 4666 
L 1569 4666 
L 2759 1491 
L 3956 4666 
L 4897 4666 
L 4897 0 
L 4281 0 
L 4281 4097 
L 3078 897 
L 2444 897 
L 1241 4097 
L 1241 0 
L 628 0 
L 628 4666 
z
" transform="scale(0.015625)"/>
       <path id="DejaVuSans-53" d="M 3425 4513 
L 3425 3897 
Q 3066 4069 2747 4153 
Q 2428 4238 2131 4238 
Q 1616 4238 1336 4038 
Q 1056 3838 1056 3469 
Q 1056 3159 1242 3001 
Q 1428 2844 1947 2747 
L 2328 2669 
Q 3034 2534 3370 2195 
Q 3706 1856 3706 1288 
Q 3706 609 3251 259 
Q 2797 -91 1919 -91 
Q 1588 -91 1214 -16 
Q 841 59 441 206 
L 441 856 
Q 825 641 1194 531 
Q 1563 422 1919 422 
Q 2459 422 2753 634 
Q 3047 847 3047 1241 
Q 3047 1584 2836 1778 
Q 2625 1972 2144 2069 
L 1759 2144 
Q 1053 2284 737 2584 
Q 422 2884 422 3419 
Q 422 4038 858 4394 
Q 1294 4750 2059 4750 
Q 2388 4750 2728 4690 
Q 3069 4631 3425 4513 
z
" transform="scale(0.015625)"/>
       <path id="DejaVuSans-29" d="M 513 4856 
L 1013 4856 
Q 1481 4119 1714 3412 
Q 1947 2706 1947 2009 
Q 1947 1309 1714 600 
Q 1481 -109 1013 -844 
L 513 -844 
Q 928 -128 1133 580 
Q 1338 1288 1338 2009 
Q 1338 2731 1133 3434 
Q 928 4138 513 4856 
z
" transform="scale(0.015625)"/>
      </defs>
      <use xlink:href="#DejaVuSans-4c"/>
      <use xlink:href="#DejaVuSans-6f" transform="translate(53.962891 0)"/>
      <use xlink:href="#DejaVuSans-73" transform="translate(115.144531 0)"/>
      <use xlink:href="#DejaVuSans-73" transform="translate(167.244141 0)"/>
      <use xlink:href="#DejaVuSans-20" transform="translate(219.34375 0)"/>
      <use xlink:href="#DejaVuSans-28" transform="translate(251.130859 0)"/>
      <use xlink:href="#DejaVuSans-4d" transform="translate(290.144531 0)"/>
      <use xlink:href="#DejaVuSans-53" transform="translate(376.423828 0)"/>
      <use xlink:href="#DejaVuSans-45" transform="translate(439.900391 0)"/>
      <use xlink:href="#DejaVuSans-29" transform="translate(503.083984 0)"/>
     </g>
    </g>
   </g>
   <g id="line2d_23">
    <path d="M 70.434659 37.438125 
L 71.791911 116.848988 
L 73.149162 147.332994 
L 74.506413 165.799817 
L 75.863665 181.38935 
L 77.220916 192.040104 
L 78.578168 197.630415 
L 79.935419 205.511935 
L 81.292671 216.89794 
L 82.649922 220.932201 
L 84.007174 229.870374 
L 85.364425 235.422512 
L 86.721676 239.206481 
L 88.078928 244.170127 
L 89.436179 251.951442 
L 90.793431 255.732859 
L 92.150682 260.794125 
L 96.222437 270.881052 
L 97.579688 272.899645 
L 98.936939 276.920076 
L 100.294191 280.514791 
L 101.651442 282.285229 
L 103.008694 284.769533 
L 104.365945 285.707928 
L 105.723197 289.794409 
L 107.080448 290.626009 
L 109.794951 293.94718 
L 111.152202 294.967863 
L 112.509454 295.404388 
L 113.866705 295.35546 
L 116.581208 299.385561 
L 117.93846 299.598181 
L 120.652963 302.998064 
L 122.010214 304.103169 
L 123.367465 303.910575 
L 124.724717 305.893803 
L 126.081968 305.970099 
L 127.43922 307.036454 
L 128.796471 306.975155 
L 130.153723 308.456239 
L 131.510974 307.941161 
L 134.225477 310.892988 
L 135.582728 310.387333 
L 136.93998 312.154924 
L 138.297231 312.305494 
L 139.654483 311.809599 
L 141.011734 312.661299 
L 142.368986 312.562675 
L 143.726237 314.514081 
L 145.083489 312.416511 
L 147.797991 315.033626 
L 149.155243 314.49333 
L 151.869746 316.589707 
L 153.226997 316.740122 
L 154.584249 316.281848 
L 155.9415 316.966148 
L 157.298752 317.7787 
L 158.656003 317.427932 
L 160.013254 318.392635 
L 161.370506 318.501524 
L 162.727757 318.232478 
L 164.085009 318.122449 
L 165.44226 319.288574 
L 168.156763 319.729237 
L 169.514015 319.909829 
L 170.871266 321.167779 
L 172.228517 319.594908 
L 173.585769 321.770468 
L 174.94302 322.64618 
L 176.300272 321.208056 
L 177.657523 321.520961 
L 179.014775 322.184157 
L 180.372026 322.035308 
L 183.086529 323.234709 
L 184.44378 322.902846 
L 185.801032 323.559386 
L 188.515535 322.288908 
L 189.872786 322.674901 
L 191.230038 324.248882 
L 192.587289 324.10602 
L 193.944541 324.530282 
L 195.301792 325.12145 
L 196.659043 324.188739 
L 199.373546 325.177694 
L 200.730798 324.790143 
L 202.088049 325.853381 
L 203.445301 325.916507 
L 204.802552 325.435869 
L 206.159804 325.517487 
L 207.517055 326.508157 
L 208.874306 325.903242 
L 210.231558 326.20382 
L 211.588809 325.972744 
L 212.946061 326.455343 
L 214.303312 326.472261 
L 215.660564 326.974445 
L 217.017815 327.060515 
L 218.375067 326.141639 
L 219.732318 326.993449 
L 221.089569 327.711456 
L 222.446821 327.090188 
L 223.804072 327.758119 
L 227.875827 327.623577 
L 229.233078 328.495375 
L 230.59033 329.209998 
L 233.304832 328.935837 
L 234.662084 328.604766 
L 236.019335 329.386707 
L 237.376587 329.705619 
L 238.733838 328.744321 
L 240.09109 329.548067 
L 241.448341 329.7588 
L 242.805593 329.717119 
L 245.520095 329.88324 
L 246.877347 329.884786 
L 248.234598 329.766027 
L 249.59185 330.475939 
L 250.949101 329.422196 
L 252.306353 329.608259 
L 253.663604 329.99632 
L 255.020856 330.978162 
L 256.378107 330.347935 
L 257.735358 330.085184 
L 259.09261 331.07937 
L 260.449861 331.411773 
L 261.807113 331.0229 
L 264.521616 330.690784 
L 265.878867 331.190836 
L 267.236119 330.299115 
L 268.59337 331.371153 
L 269.950621 331.355731 
L 271.307873 330.549973 
L 274.022376 331.336376 
L 275.379627 332.22442 
L 276.736879 332.308292 
L 278.09413 331.410517 
L 279.451381 331.474462 
L 280.808633 332.123901 
L 282.165884 332.344695 
L 283.523136 331.516147 
L 284.880387 332.478628 
L 286.237639 333.022083 
L 287.59489 333.226166 
L 288.952142 332.798072 
L 290.309393 333.288381 
L 291.666644 333.137043 
L 293.023896 332.135805 
L 295.738399 333.005107 
L 299.810153 333.392214 
L 301.167405 333.037875 
L 302.524656 333.406197 
L 305.239159 333.400631 
L 306.59641 334.084414 
L 307.953662 333.534169 
L 309.310913 333.683692 
L 312.025416 333.539674 
L 313.382668 334.625221 
L 314.739919 333.748213 
L 317.454422 333.578455 
L 318.811673 334.133944 
L 320.168925 333.577 
L 322.883428 334.734396 
L 325.597931 334.659897 
L 326.955182 334.699734 
L 328.312433 335.027284 
L 329.669685 334.569445 
L 332.384188 334.987415 
L 333.741439 334.729296 
L 335.098691 334.995476 
L 336.455942 335.129847 
L 337.813194 334.859432 
L 339.170445 335.546028 
L 340.527696 335.118751 
L 343.242199 335.682565 
L 344.599451 335.41153 
L 345.956702 335.375748 
L 348.671205 335.597464 
L 350.028457 335.494887 
L 351.385708 335.889944 
L 352.742959 335.580873 
L 355.457462 335.55618 
L 358.171965 335.878344 
L 359.529217 335.591652 
L 360.886468 336.001809 
L 363.600971 335.870885 
L 367.672725 336.348521 
L 369.029977 336.224978 
L 370.387228 336.329412 
L 371.74448 335.952867 
L 373.101731 336.83951 
L 374.458983 336.464005 
L 375.816234 337.041573 
L 377.173485 336.097106 
L 378.530737 336.557911 
L 379.887988 336.305136 
L 381.24524 336.962519 
L 382.602491 336.667929 
L 383.959743 336.932976 
L 385.316994 336.690779 
L 386.674246 337.227884 
L 388.031497 337.415049 
L 389.388748 337.108207 
L 390.746 337.159848 
L 392.103251 337.453513 
L 393.460503 337.170243 
L 394.817754 336.53625 
L 396.175006 337.501076 
L 397.532257 337.288202 
L 398.889509 337.340189 
L 400.24676 337.814037 
L 401.604011 337.295672 
L 404.318514 337.434984 
L 405.675766 336.909804 
L 407.033017 336.887735 
L 408.390269 337.573752 
L 409.74752 338.066168 
L 411.104772 337.878656 
L 412.462023 337.266833 
L 413.819274 337.413756 
L 415.176526 336.978495 
L 416.533777 337.856171 
L 419.24828 337.899833 
L 420.605532 338.3981 
L 421.962783 337.928307 
L 423.320035 338.312921 
L 424.677286 338.171764 
L 426.034537 338.324903 
L 427.391789 338.713533 
L 428.74904 337.883533 
L 430.106292 337.771281 
L 432.820795 338.581734 
L 434.178046 338.052715 
L 435.535298 338.304588 
L 436.892549 338.382925 
L 438.2498 338.621544 
L 439.607052 338.485946 
L 440.964303 338.996328 
L 442.321555 338.715839 
L 443.678806 338.134817 
L 445.036058 338.771411 
L 446.393309 338.512772 
L 447.750561 338.771577 
L 449.107812 338.546363 
L 450.465063 338.518484 
L 451.822315 338.873036 
L 453.179566 338.748792 
L 454.536818 339.012217 
L 455.894069 338.567357 
L 457.251321 339.205216 
L 458.608572 338.707896 
L 459.965824 338.897623 
L 461.323075 339.460867 
L 462.680326 338.520118 
L 464.037578 338.517067 
L 465.394829 339.282877 
L 466.752081 339.838125 
L 468.109332 339.270363 
L 469.466584 339.283962 
L 470.823835 339.569198 
L 472.181087 339.301462 
L 473.538338 339.227705 
L 474.895589 339.619188 
L 476.252841 339.426856 
L 476.252841 339.426856 
" clip-path="url(#p78f042b643)" style="fill: none; stroke: #1f77b4; stroke-width: 2; stroke-linecap: square"/>
   </g>
   <g id="line2d_24">
    <path d="M 70.434659 70.944491 
L 71.791911 161.684102 
L 73.149162 163.885176 
L 74.506413 165.233916 
L 75.863665 191.18758 
L 77.220916 196.808644 
L 78.578168 197.424559 
L 79.935419 175.173911 
L 81.292671 191.720871 
L 82.649922 212.116286 
L 84.007174 215.267096 
L 85.364425 185.866917 
L 86.721676 214.119512 
L 88.078928 203.915543 
L 89.436179 216.649353 
L 90.793431 215.72981 
L 92.150682 216.257529 
L 93.507934 220.565271 
L 94.865185 209.708616 
L 96.222437 218.637355 
L 97.579688 220.092607 
L 98.936939 220.814123 
L 100.294191 224.482802 
L 101.651442 214.021766 
L 103.008694 216.896567 
L 104.365945 224.108912 
L 105.723197 223.962788 
L 108.4377 218.587361 
L 109.794951 221.618481 
L 111.152202 219.98491 
L 112.509454 223.304985 
L 113.866705 222.942394 
L 115.223957 222.113594 
L 116.581208 220.430551 
L 117.93846 225.197868 
L 119.295711 221.903681 
L 120.652963 222.084945 
L 122.010214 225.171368 
L 123.367465 225.544094 
L 124.724717 222.053031 
L 126.081968 223.613558 
L 127.43922 222.960412 
L 128.796471 221.316678 
L 130.153723 222.722294 
L 131.510974 226.026499 
L 132.868226 227.127379 
L 134.225477 224.256167 
L 135.582728 226.906544 
L 136.93998 226.477278 
L 138.297231 223.738065 
L 139.654483 224.566962 
L 141.011734 220.558582 
L 142.368986 227.856623 
L 143.726237 225.979833 
L 145.083489 213.896272 
L 146.44074 222.92496 
L 147.797991 228.991278 
L 149.155243 217.746965 
L 150.512494 228.543223 
L 151.869746 224.476742 
L 153.226997 225.470172 
L 154.584249 226.05954 
L 155.9415 228.237254 
L 157.298752 226.978147 
L 158.656003 229.411465 
L 160.013254 228.724446 
L 161.370506 226.869886 
L 162.727757 229.84873 
L 164.085009 228.662912 
L 165.44226 229.175597 
L 166.799512 226.918329 
L 168.156763 228.640082 
L 169.514015 230.694169 
L 170.871266 226.867246 
L 172.228517 224.746939 
L 173.585769 228.396989 
L 174.94302 228.941596 
L 176.300272 228.937525 
L 177.657523 228.792361 
L 179.014775 225.037309 
L 180.372026 230.707414 
L 181.729278 231.620779 
L 183.086529 230.048653 
L 184.44378 229.846731 
L 185.801032 227.761302 
L 187.158283 231.313295 
L 188.515535 229.131137 
L 189.872786 228.735229 
L 191.230038 227.371041 
L 192.587289 229.299304 
L 193.944541 228.048375 
L 195.301792 226.259925 
L 196.659043 229.533558 
L 198.016295 230.179882 
L 199.373546 230.561726 
L 200.730798 226.769391 
L 202.088049 230.145383 
L 203.445301 229.125987 
L 204.802552 230.271921 
L 206.159804 229.996882 
L 208.874306 231.967552 
L 210.231558 224.209937 
L 211.588809 231.131113 
L 212.946061 231.165312 
L 214.303312 232.019097 
L 215.660564 231.53872 
L 217.017815 232.710505 
L 218.375067 231.927865 
L 219.732318 232.547396 
L 221.089569 231.839456 
L 222.446821 233.135912 
L 223.804072 232.503366 
L 225.161324 230.920473 
L 226.518575 230.367831 
L 227.875827 224.687413 
L 229.233078 233.352064 
L 230.59033 230.458854 
L 231.947581 232.756723 
L 233.304832 232.516045 
L 234.662084 231.759996 
L 236.019335 231.895741 
L 237.376587 234.498543 
L 238.733838 228.764356 
L 240.09109 233.115379 
L 241.448341 231.092424 
L 242.805593 229.380525 
L 244.162844 229.963387 
L 245.520095 233.803989 
L 246.877347 232.662302 
L 248.234598 233.174131 
L 249.59185 229.214307 
L 250.949101 233.751803 
L 252.306353 231.462179 
L 253.663604 231.513654 
L 255.020856 231.965621 
L 256.378107 232.240756 
L 257.735358 233.374793 
L 259.09261 232.033674 
L 260.449861 234.070343 
L 261.807113 234.119341 
L 263.164364 232.592915 
L 264.521616 233.266863 
L 265.878867 232.50062 
L 267.236119 232.946275 
L 268.59337 233.629856 
L 269.950621 232.22595 
L 271.307873 233.737125 
L 272.665124 231.414596 
L 274.022376 232.349283 
L 275.379627 233.569768 
L 276.736879 232.498067 
L 278.09413 233.491614 
L 279.451381 234.322106 
L 280.808633 233.385393 
L 282.165884 228.583985 
L 283.523136 230.756484 
L 284.880387 229.929728 
L 286.237639 233.592265 
L 287.59489 232.152304 
L 288.952142 233.470126 
L 290.309393 233.652878 
L 291.666644 232.858344 
L 293.023896 231.746576 
L 294.381147 233.304074 
L 295.738399 232.735198 
L 297.09565 233.190983 
L 298.452902 231.633252 
L 299.810153 232.748588 
L 301.167405 232.095778 
L 302.524656 231.011068 
L 303.881907 232.324883 
L 305.239159 232.247602 
L 306.59641 233.811947 
L 307.953662 232.15091 
L 309.310913 233.262318 
L 310.668165 232.808772 
L 312.025416 233.76855 
L 313.382668 232.11119 
L 314.739919 233.053152 
L 316.09717 234.197022 
L 317.454422 234.611514 
L 318.811673 231.0026 
L 320.168925 234.473256 
L 321.526176 235.961743 
L 322.883428 232.375592 
L 324.240679 234.238109 
L 325.597931 234.636891 
L 326.955182 236.123854 
L 328.312433 232.95207 
L 329.669685 232.96135 
L 331.026936 235.475103 
L 332.384188 234.1414 
L 333.741439 236.221113 
L 335.098691 235.083896 
L 336.455942 235.655261 
L 337.813194 235.433157 
L 339.170445 235.976542 
L 340.527696 234.448757 
L 341.884948 232.205637 
L 343.242199 236.115439 
L 344.599451 233.604201 
L 345.956702 235.087512 
L 347.313954 232.33393 
L 348.671205 233.729815 
L 350.028457 233.061511 
L 352.742959 234.158571 
L 354.100211 235.415672 
L 355.457462 233.481184 
L 356.814714 234.910519 
L 358.171965 233.9094 
L 359.529217 234.253351 
L 360.886468 232.990174 
L 362.24372 234.92229 
L 363.600971 233.861264 
L 364.958222 231.345216 
L 366.315474 234.801262 
L 367.672725 234.457998 
L 370.387228 234.554895 
L 371.74448 235.00041 
L 373.101731 233.794531 
L 374.458983 234.533518 
L 375.816234 233.513432 
L 377.173485 232.77309 
L 379.887988 233.520579 
L 381.24524 233.355849 
L 382.602491 235.062794 
L 383.959743 232.561347 
L 385.316994 234.296589 
L 386.674246 234.068874 
L 388.031497 235.295804 
L 389.388748 234.792882 
L 390.746 234.839479 
L 392.103251 236.249836 
L 393.460503 234.132031 
L 394.817754 235.444411 
L 396.175006 234.270716 
L 397.532257 234.903837 
L 398.889509 235.201923 
L 400.24676 235.89369 
L 401.604011 233.78287 
L 404.318514 234.794234 
L 405.675766 234.020142 
L 407.033017 234.434036 
L 408.390269 234.429042 
L 409.74752 236.039332 
L 411.104772 232.086684 
L 412.462023 234.342759 
L 413.819274 234.950238 
L 415.176526 235.005825 
L 416.533777 236.798048 
L 417.891029 233.511935 
L 419.24828 235.328724 
L 420.605532 234.501772 
L 421.962783 234.350703 
L 423.320035 235.678363 
L 424.677286 233.009897 
L 426.034537 234.730524 
L 427.391789 234.2644 
L 428.74904 235.367241 
L 430.106292 233.839055 
L 431.463543 234.993341 
L 432.820795 233.45823 
L 434.178046 235.303704 
L 435.535298 234.930558 
L 436.892549 235.546789 
L 438.2498 234.709229 
L 439.607052 235.652988 
L 440.964303 235.127284 
L 442.321555 235.222964 
L 443.678806 237.182667 
L 445.036058 234.846872 
L 446.393309 236.47383 
L 447.750561 235.504447 
L 450.465063 232.201823 
L 451.822315 235.500562 
L 453.179566 235.533488 
L 454.536818 237.077317 
L 455.894069 235.832956 
L 457.251321 235.600142 
L 458.608572 235.18146 
L 459.965824 236.094101 
L 462.680326 234.454368 
L 464.037578 235.646607 
L 465.394829 236.528916 
L 466.752081 237.182776 
L 468.109332 235.168942 
L 469.466584 235.37752 
L 470.823835 236.532604 
L 472.181087 235.820203 
L 473.538338 235.905752 
L 474.895589 236.721585 
L 476.252841 234.081759 
L 476.252841 234.081759 
" clip-path="url(#p78f042b643)" style="fill: none; stroke: #ff7f0e; stroke-width: 2; stroke-linecap: square"/>
   </g>
   <g id="patch_3">
    <path d="M 50.14375 354.958125 
L 50.14375 22.318125 
" style="fill: none; stroke: #000000; stroke-width: 0.8; stroke-linejoin: miter; stroke-linecap: square"/>
   </g>
   <g id="patch_4">
    <path d="M 496.54375 354.958125 
L 496.54375 22.318125 
" style="fill: none; stroke: #000000; stroke-width: 0.8; stroke-linejoin: miter; stroke-linecap: square"/>
   </g>
   <g id="patch_5">
    <path d="M 50.14375 354.958125 
L 496.54375 354.958125 
" style="fill: none; stroke: #000000; stroke-width: 0.8; stroke-linejoin: miter; stroke-linecap: square"/>
   </g>
   <g id="patch_6">
    <path d="M 50.14375 22.318125 
L 496.54375 22.318125 
" style="fill: none; stroke: #000000; stroke-width: 0.8; stroke-linejoin: miter; stroke-linecap: square"/>
   </g>
   <g id="text_14">
    <!-- Training vs Validation Loss - ALIGNN -->
    <g transform="translate(165.663437 16.318125) scale(0.12 -0.12)">
     <defs>
      <path id="DejaVuSans-54" d="M -19 4666 
L 3928 4666 
L 3928 4134 
L 2272 4134 
L 2272 0 
L 1638 0 
L 1638 4134 
L -19 4134 
L -19 4666 
z
" transform="scale(0.015625)"/>
      <path id="DejaVuSans-72" d="M 2631 2963 
Q 2534 3019 2420 3045 
Q 2306 3072 2169 3072 
Q 1681 3072 1420 2755 
Q 1159 2438 1159 1844 
L 1159 0 
L 581 0 
L 581 3500 
L 1159 3500 
L 1159 2956 
Q 1341 3275 1631 3429 
Q 1922 3584 2338 3584 
Q 2397 3584 2469 3576 
Q 2541 3569 2628 3553 
L 2631 2963 
z
" transform="scale(0.015625)"/>
      <path id="DejaVuSans-61" d="M 2194 1759 
Q 1497 1759 1228 1600 
Q 959 1441 959 1056 
Q 959 750 1161 570 
Q 1363 391 1709 391 
Q 2188 391 2477 730 
Q 2766 1069 2766 1631 
L 2766 1759 
L 2194 1759 
z
M 3341 1997 
L 3341 0 
L 2766 0 
L 2766 531 
Q 2569 213 2275 61 
Q 1981 -91 1556 -91 
Q 1019 -91 701 211 
Q 384 513 384 1019 
Q 384 1609 779 1909 
Q 1175 2209 1959 2209 
L 2766 2209 
L 2766 2266 
Q 2766 2663 2505 2880 
Q 2244 3097 1772 3097 
Q 1472 3097 1187 3025 
Q 903 2953 641 2809 
L 641 3341 
Q 956 3463 1253 3523 
Q 1550 3584 1831 3584 
Q 2591 3584 2966 3190 
Q 3341 2797 3341 1997 
z
" transform="scale(0.015625)"/>
      <path id="DejaVuSans-69" d="M 603 3500 
L 1178 3500 
L 1178 0 
L 603 0 
L 603 3500 
z
M 603 4863 
L 1178 4863 
L 1178 4134 
L 603 4134 
L 603 4863 
z
" transform="scale(0.015625)"/>
      <path id="DejaVuSans-6e" d="M 3513 2113 
L 3513 0 
L 2938 0 
L 2938 2094 
Q 2938 2591 2744 2837 
Q 2550 3084 2163 3084 
Q 1697 3084 1428 2787 
Q 1159 2491 1159 1978 
L 1159 0 
L 581 0 
L 581 3500 
L 1159 3500 
L 1159 2956 
Q 1366 3272 1645 3428 
Q 1925 3584 2291 3584 
Q 2894 3584 3203 3211 
Q 3513 2838 3513 2113 
z
" transform="scale(0.015625)"/>
      <path id="DejaVuSans-67" d="M 2906 1791 
Q 2906 2416 2648 2759 
Q 2391 3103 1925 3103 
Q 1463 3103 1205 2759 
Q 947 2416 947 1791 
Q 947 1169 1205 825 
Q 1463 481 1925 481 
Q 2391 481 2648 825 
Q 2906 1169 2906 1791 
z
M 3481 434 
Q 3481 -459 3084 -895 
Q 2688 -1331 1869 -1331 
Q 1566 -1331 1297 -1286 
Q 1028 -1241 775 -1147 
L 775 -588 
Q 1028 -725 1275 -790 
Q 1522 -856 1778 -856 
Q 2344 -856 2625 -561 
Q 2906 -266 2906 331 
L 2906 616 
Q 2728 306 2450 153 
Q 2172 0 1784 0 
Q 1141 0 747 490 
Q 353 981 353 1791 
Q 353 2603 747 3093 
Q 1141 3584 1784 3584 
Q 2172 3584 2450 3431 
Q 2728 3278 2906 2969 
L 2906 3500 
L 3481 3500 
L 3481 434 
z
" transform="scale(0.015625)"/>
      <path id="DejaVuSans-76" d="M 191 3500 
L 800 3500 
L 1894 563 
L 2988 3500 
L 3597 3500 
L 2284 0 
L 1503 0 
L 191 3500 
z
" transform="scale(0.015625)"/>
      <path id="DejaVuSans-56" d="M 1831 0 
L 50 4666 
L 709 4666 
L 2188 738 
L 3669 4666 
L 4325 4666 
L 2547 0 
L 1831 0 
z
" transform="scale(0.015625)"/>
      <path id="DejaVuSans-6c" d="M 603 4863 
L 1178 4863 
L 1178 0 
L 603 0 
L 603 4863 
z
" transform="scale(0.015625)"/>
      <path id="DejaVuSans-64" d="M 2906 2969 
L 2906 4863 
L 3481 4863 
L 3481 0 
L 2906 0 
L 2906 525 
Q 2725 213 2448 61 
Q 2172 -91 1784 -91 
Q 1150 -91 751 415 
Q 353 922 353 1747 
Q 353 2572 751 3078 
Q 1150 3584 1784 3584 
Q 2172 3584 2448 3432 
Q 2725 3281 2906 2969 
z
M 947 1747 
Q 947 1113 1208 752 
Q 1469 391 1925 391 
Q 2381 391 2643 752 
Q 2906 1113 2906 1747 
Q 2906 2381 2643 2742 
Q 2381 3103 1925 3103 
Q 1469 3103 1208 2742 
Q 947 2381 947 1747 
z
" transform="scale(0.015625)"/>
      <path id="DejaVuSans-74" d="M 1172 4494 
L 1172 3500 
L 2356 3500 
L 2356 3053 
L 1172 3053 
L 1172 1153 
Q 1172 725 1289 603 
Q 1406 481 1766 481 
L 2356 481 
L 2356 0 
L 1766 0 
Q 1100 0 847 248 
Q 594 497 594 1153 
L 594 3053 
L 172 3053 
L 172 3500 
L 594 3500 
L 594 4494 
L 1172 4494 
z
" transform="scale(0.015625)"/>
      <path id="DejaVuSans-2d" d="M 313 2009 
L 1997 2009 
L 1997 1497 
L 313 1497 
L 313 2009 
z
" transform="scale(0.015625)"/>
      <path id="DejaVuSans-41" d="M 2188 4044 
L 1331 1722 
L 3047 1722 
L 2188 4044 
z
M 1831 4666 
L 2547 4666 
L 4325 0 
L 3669 0 
L 3244 1197 
L 1141 1197 
L 716 0 
L 50 0 
L 1831 4666 
z
" transform="scale(0.015625)"/>
      <path id="DejaVuSans-49" d="M 628 4666 
L 1259 4666 
L 1259 0 
L 628 0 
L 628 4666 
z
" transform="scale(0.015625)"/>
      <path id="DejaVuSans-47" d="M 3809 666 
L 3809 1919 
L 2778 1919 
L 2778 2438 
L 4434 2438 
L 4434 434 
Q 4069 175 3628 42 
Q 3188 -91 2688 -91 
Q 1594 -91 976 548 
Q 359 1188 359 2328 
Q 359 3472 976 4111 
Q 1594 4750 2688 4750 
Q 3144 4750 3555 4637 
Q 3966 4525 4313 4306 
L 4313 3634 
Q 3963 3931 3569 4081 
Q 3175 4231 2741 4231 
Q 1884 4231 1454 3753 
Q 1025 3275 1025 2328 
Q 1025 1384 1454 906 
Q 1884 428 2741 428 
Q 3075 428 3337 486 
Q 3600 544 3809 666 
z
" transform="scale(0.015625)"/>
      <path id="DejaVuSans-4e" d="M 628 4666 
L 1478 4666 
L 3547 763 
L 3547 4666 
L 4159 4666 
L 4159 0 
L 3309 0 
L 1241 3903 
L 1241 0 
L 628 0 
L 628 4666 
z
" transform="scale(0.015625)"/>
     </defs>
     <use xlink:href="#DejaVuSans-54"/>
     <use xlink:href="#DejaVuSans-72" transform="translate(46.333984 0)"/>
     <use xlink:href="#DejaVuSans-61" transform="translate(87.447266 0)"/>
     <use xlink:href="#DejaVuSans-69" transform="translate(148.726562 0)"/>
     <use xlink:href="#DejaVuSans-6e" transform="translate(176.509766 0)"/>
     <use xlink:href="#DejaVuSans-69" transform="translate(239.888672 0)"/>
     <use xlink:href="#DejaVuSans-6e" transform="translate(267.671875 0)"/>
     <use xlink:href="#DejaVuSans-67" transform="translate(331.050781 0)"/>
     <use xlink:href="#DejaVuSans-20" transform="translate(394.527344 0)"/>
     <use xlink:href="#DejaVuSans-76" transform="translate(426.314453 0)"/>
     <use xlink:href="#DejaVuSans-73" transform="translate(485.494141 0)"/>
     <use xlink:href="#DejaVuSans-20" transform="translate(537.59375 0)"/>
     <use xlink:href="#DejaVuSans-56" transform="translate(569.380859 0)"/>
     <use xlink:href="#DejaVuSans-61" transform="translate(630.039062 0)"/>
     <use xlink:href="#DejaVuSans-6c" transform="translate(691.318359 0)"/>
     <use xlink:href="#DejaVuSans-69" transform="translate(719.101562 0)"/>
     <use xlink:href="#DejaVuSans-64" transform="translate(746.884766 0)"/>
     <use xlink:href="#DejaVuSans-61" transform="translate(810.361328 0)"/>
     <use xlink:href="#DejaVuSans-74" transform="translate(871.640625 0)"/>
     <use xlink:href="#DejaVuSans-69" transform="translate(910.849609 0)"/>
     <use xlink:href="#DejaVuSans-6f" transform="translate(938.632812 0)"/>
     <use xlink:href="#DejaVuSans-6e" transform="translate(999.814453 0)"/>
     <use xlink:href="#DejaVuSans-20" transform="translate(1063.193359 0)"/>
     <use xlink:href="#DejaVuSans-4c" transform="translate(1094.980469 0)"/>
     <use xlink:href="#DejaVuSans-6f" transform="translate(1148.943359 0)"/>
     <use xlink:href="#DejaVuSans-73" transform="translate(1210.125 0)"/>
     <use xlink:href="#DejaVuSans-73" transform="translate(1262.224609 0)"/>
     <use xlink:href="#DejaVuSans-20" transform="translate(1314.324219 0)"/>
     <use xlink:href="#DejaVuSans-2d" transform="translate(1346.111328 0)"/>
     <use xlink:href="#DejaVuSans-20" transform="translate(1382.195312 0)"/>
     <use xlink:href="#DejaVuSans-41" transform="translate(1413.982422 0)"/>
     <use xlink:href="#DejaVuSans-4c" transform="translate(1482.390625 0)"/>
     <use xlink:href="#DejaVuSans-49" transform="translate(1538.103516 0)"/>
     <use xlink:href="#DejaVuSans-47" transform="translate(1567.595703 0)"/>
     <use xlink:href="#DejaVuSans-4e" transform="translate(1645.085938 0)"/>
     <use xlink:href="#DejaVuSans-4e" transform="translate(1719.890625 0)"/>
    </g>
   </g>
   <g id="legend_1">
    <g id="patch_7">
     <path d="M 408.1625 59.674375 
L 489.54375 59.674375 
Q 491.54375 59.674375 491.54375 57.674375 
L 491.54375 29.318125 
Q 491.54375 27.318125 489.54375 27.318125 
L 408.1625 27.318125 
Q 406.1625 27.318125 406.1625 29.318125 
L 406.1625 57.674375 
Q 406.1625 59.674375 408.1625 59.674375 
z
" style="fill: #ffffff; opacity: 0.8; stroke: #cccccc; stroke-linejoin: miter"/>
    </g>
    <g id="line2d_25">
     <path d="M 410.1625 35.416562 
L 420.1625 35.416562 
L 430.1625 35.416562 
" style="fill: none; stroke: #1f77b4; stroke-width: 2; stroke-linecap: square"/>
    </g>
    <g id="text_15">
     <!-- Train -->
     <g transform="translate(438.1625 38.916562) scale(0.1 -0.1)">
      <use xlink:href="#DejaVuSans-54"/>
      <use xlink:href="#DejaVuSans-72" transform="translate(46.333984 0)"/>
      <use xlink:href="#DejaVuSans-61" transform="translate(87.447266 0)"/>
      <use xlink:href="#DejaVuSans-69" transform="translate(148.726562 0)"/>
      <use xlink:href="#DejaVuSans-6e" transform="translate(176.509766 0)"/>
     </g>
    </g>
    <g id="line2d_26">
     <path d="M 410.1625 50.094687 
L 420.1625 50.094687 
L 430.1625 50.094687 
" style="fill: none; stroke: #ff7f0e; stroke-width: 2; stroke-linecap: square"/>
    </g>
    <g id="text_16">
     <!-- Validation -->
     <g transform="translate(438.1625 53.594687) scale(0.1 -0.1)">
      <use xlink:href="#DejaVuSans-56"/>
      <use xlink:href="#DejaVuSans-61" transform="translate(60.658203 0)"/>
      <use xlink:href="#DejaVuSans-6c" transform="translate(121.9375 0)"/>
      <use xlink:href="#DejaVuSans-69" transform="translate(149.720703 0)"/>
      <use xlink:href="#DejaVuSans-64" transform="translate(177.503906 0)"/>
      <use xlink:href="#DejaVuSans-61" transform="translate(240.980469 0)"/>
      <use xlink:href="#DejaVuSans-74" transform="translate(302.259766 0)"/>
      <use xlink:href="#DejaVuSans-69" transform="translate(341.46875 0)"/>
      <use xlink:href="#DejaVuSans-6f" transform="translate(369.251953 0)"/>
      <use xlink:href="#DejaVuSans-6e" transform="translate(430.433594 0)"/>
     </g>
    </g>
   </g>
  </g>
 </g>
 <defs>
  <clipPath id="p78f042b643">
   <rect x="50.14375" y="22.318125" width="446.4" height="332.64"/>
  </clipPath>
 </defs>
</svg>
