<?xml version="1.0" encoding="utf-8" standalone="no"?>
<!DOCTYPE svg PUBLIC "-//W3C//DTD SVG 1.1//EN"
  "http://www.w3.org/Graphics/SVG/1.1/DTD/svg11.dtd">
<svg xmlns:xlink="http://www.w3.org/1999/xlink" width="510.10625pt" height="392.514375pt" viewBox="0 0 510.10625 392.514375" xmlns="http://www.w3.org/2000/svg" version="1.1">
 <metadata>
  <rdf:RDF xmlns:dc="http://purl.org/dc/elements/1.1/" xmlns:cc="http://creativecommons.org/ns#" xmlns:rdf="http://www.w3.org/1999/02/22-rdf-syntax-ns#">
   <cc:Work>
    <dc:type rdf:resource="http://purl.org/dc/dcmitype/StillImage"/>
    <dc:date>2025-05-22T21:13:26.089470</dc:date>
    <dc:format>image/svg+xml</dc:format>
    <dc:creator>
     <cc:Agent>
      <dc:title>Matplotlib v3.10.0, https://matplotlib.org/</dc:title>
     </cc:Agent>
    </dc:creator>
   </cc:Work>
  </rdf:RDF>
 </metadata>
 <defs>
  <style type="text/css">*{stroke-linejoin: round; stroke-linecap: butt}</style>
 </defs>
 <g id="figure_1">
  <g id="patch_1">
   <path d="M 0 392.514375 
L 510.10625 392.514375 
L 510.10625 0 
L 0 0 
z
" style="fill: #ffffff"/>
  </g>
  <g id="axes_1">
   <g id="patch_2">
    <path d="M 56.50625 354.958125 
L 502.90625 354.958125 
L 502.90625 22.318125 
L 56.50625 22.318125 
z
" style="fill: #ffffff"/>
   </g>
   <g id="matplotlib.axis_1">
    <g id="xtick_1">
     <g id="line2d_1">
      <path d="M 76.797159 354.958125 
L 76.797159 22.318125 
" clip-path="url(#pf66a816109)" style="fill: none; stroke: #b0b0b0; stroke-opacity: 0.3; stroke-width: 0.8; stroke-linecap: square"/>
     </g>
     <g id="line2d_2">
      <defs>
       <path id="m12646409c6" d="M 0 0 
L 0 3.5 
" style="stroke: #000000; stroke-width: 0.8"/>
      </defs>
      <g>
       <use xlink:href="#m12646409c6" x="76.797159" y="354.958125" style="stroke: #000000; stroke-width: 0.8"/>
      </g>
     </g>
     <g id="text_1">
      <!-- 0 -->
      <g transform="translate(73.615909 369.556562) scale(0.1 -0.1)">
       <defs>
        <path id="DejaVuSans-30" d="M 2034 4250 
Q 1547 4250 1301 3770 
Q 1056 3291 1056 2328 
Q 1056 1369 1301 889 
Q 1547 409 2034 409 
Q 2525 409 2770 889 
Q 3016 1369 3016 2328 
Q 3016 3291 2770 3770 
Q 2525 4250 2034 4250 
z
M 2034 4750 
Q 2819 4750 3233 4129 
Q 3647 3509 3647 2328 
Q 3647 1150 3233 529 
Q 2819 -91 2034 -91 
Q 1250 -91 836 529 
Q 422 1150 422 2328 
Q 422 3509 836 4129 
Q 1250 4750 2034 4750 
z
" transform="scale(0.015625)"/>
       </defs>
       <use xlink:href="#DejaVuSans-30"/>
      </g>
     </g>
    </g>
    <g id="xtick_2">
     <g id="line2d_3">
      <path d="M 144.659731 354.958125 
L 144.659731 22.318125 
" clip-path="url(#pf66a816109)" style="fill: none; stroke: #b0b0b0; stroke-opacity: 0.3; stroke-width: 0.8; stroke-linecap: square"/>
     </g>
     <g id="line2d_4">
      <g>
       <use xlink:href="#m12646409c6" x="144.659731" y="354.958125" style="stroke: #000000; stroke-width: 0.8"/>
      </g>
     </g>
     <g id="text_2">
      <!-- 50 -->
      <g transform="translate(138.297231 369.556562) scale(0.1 -0.1)">
       <defs>
        <path id="DejaVuSans-35" d="M 691 4666 
L 3169 4666 
L 3169 4134 
L 1269 4134 
L 1269 2991 
Q 1406 3038 1543 3061 
Q 1681 3084 1819 3084 
Q 2600 3084 3056 2656 
Q 3513 2228 3513 1497 
Q 3513 744 3044 326 
Q 2575 -91 1722 -91 
Q 1428 -91 1123 -41 
Q 819 9 494 109 
L 494 744 
Q 775 591 1075 516 
Q 1375 441 1709 441 
Q 2250 441 2565 725 
Q 2881 1009 2881 1497 
Q 2881 1984 2565 2268 
Q 2250 2553 1709 2553 
Q 1456 2553 1204 2497 
Q 953 2441 691 2322 
L 691 4666 
z
" transform="scale(0.015625)"/>
       </defs>
       <use xlink:href="#DejaVuSans-35"/>
       <use xlink:href="#DejaVuSans-30" transform="translate(63.623047 0)"/>
      </g>
     </g>
    </g>
    <g id="xtick_3">
     <g id="line2d_5">
      <path d="M 212.522304 354.958125 
L 212.522304 22.318125 
" clip-path="url(#pf66a816109)" style="fill: none; stroke: #b0b0b0; stroke-opacity: 0.3; stroke-width: 0.8; stroke-linecap: square"/>
     </g>
     <g id="line2d_6">
      <g>
       <use xlink:href="#m12646409c6" x="212.522304" y="354.958125" style="stroke: #000000; stroke-width: 0.8"/>
      </g>
     </g>
     <g id="text_3">
      <!-- 100 -->
      <g transform="translate(202.978554 369.556562) scale(0.1 -0.1)">
       <defs>
        <path id="DejaVuSans-31" d="M 794 531 
L 1825 531 
L 1825 4091 
L 703 3866 
L 703 4441 
L 1819 4666 
L 2450 4666 
L 2450 531 
L 3481 531 
L 3481 0 
L 794 0 
L 794 531 
z
" transform="scale(0.015625)"/>
       </defs>
       <use xlink:href="#DejaVuSans-31"/>
       <use xlink:href="#DejaVuSans-30" transform="translate(63.623047 0)"/>
       <use xlink:href="#DejaVuSans-30" transform="translate(127.246094 0)"/>
      </g>
     </g>
    </g>
    <g id="xtick_4">
     <g id="line2d_7">
      <path d="M 280.384876 354.958125 
L 280.384876 22.318125 
" clip-path="url(#pf66a816109)" style="fill: none; stroke: #b0b0b0; stroke-opacity: 0.3; stroke-width: 0.8; stroke-linecap: square"/>
     </g>
     <g id="line2d_8">
      <g>
       <use xlink:href="#m12646409c6" x="280.384876" y="354.958125" style="stroke: #000000; stroke-width: 0.8"/>
      </g>
     </g>
     <g id="text_4">
      <!-- 150 -->
      <g transform="translate(270.841126 369.556562) scale(0.1 -0.1)">
       <use xlink:href="#DejaVuSans-31"/>
       <use xlink:href="#DejaVuSans-35" transform="translate(63.623047 0)"/>
       <use xlink:href="#DejaVuSans-30" transform="translate(127.246094 0)"/>
      </g>
     </g>
    </g>
    <g id="xtick_5">
     <g id="line2d_9">
      <path d="M 348.247448 354.958125 
L 348.247448 22.318125 
" clip-path="url(#pf66a816109)" style="fill: none; stroke: #b0b0b0; stroke-opacity: 0.3; stroke-width: 0.8; stroke-linecap: square"/>
     </g>
     <g id="line2d_10">
      <g>
       <use xlink:href="#m12646409c6" x="348.247448" y="354.958125" style="stroke: #000000; stroke-width: 0.8"/>
      </g>
     </g>
     <g id="text_5">
      <!-- 200 -->
      <g transform="translate(338.703698 369.556562) scale(0.1 -0.1)">
       <defs>
        <path id="DejaVuSans-32" d="M 1228 531 
L 3431 531 
L 3431 0 
L 469 0 
L 469 531 
Q 828 903 1448 1529 
Q 2069 2156 2228 2338 
Q 2531 2678 2651 2914 
Q 2772 3150 2772 3378 
Q 2772 3750 2511 3984 
Q 2250 4219 1831 4219 
Q 1534 4219 1204 4116 
Q 875 4013 500 3803 
L 500 4441 
Q 881 4594 1212 4672 
Q 1544 4750 1819 4750 
Q 2544 4750 2975 4387 
Q 3406 4025 3406 3419 
Q 3406 3131 3298 2873 
Q 3191 2616 2906 2266 
Q 2828 2175 2409 1742 
Q 1991 1309 1228 531 
z
" transform="scale(0.015625)"/>
       </defs>
       <use xlink:href="#DejaVuSans-32"/>
       <use xlink:href="#DejaVuSans-30" transform="translate(63.623047 0)"/>
       <use xlink:href="#DejaVuSans-30" transform="translate(127.246094 0)"/>
      </g>
     </g>
    </g>
    <g id="xtick_6">
     <g id="line2d_11">
      <path d="M 416.11002 354.958125 
L 416.11002 22.318125 
" clip-path="url(#pf66a816109)" style="fill: none; stroke: #b0b0b0; stroke-opacity: 0.3; stroke-width: 0.8; stroke-linecap: square"/>
     </g>
     <g id="line2d_12">
      <g>
       <use xlink:href="#m12646409c6" x="416.11002" y="354.958125" style="stroke: #000000; stroke-width: 0.8"/>
      </g>
     </g>
     <g id="text_6">
      <!-- 250 -->
      <g transform="translate(406.56627 369.556562) scale(0.1 -0.1)">
       <use xlink:href="#DejaVuSans-32"/>
       <use xlink:href="#DejaVuSans-35" transform="translate(63.623047 0)"/>
       <use xlink:href="#DejaVuSans-30" transform="translate(127.246094 0)"/>
      </g>
     </g>
    </g>
    <g id="xtick_7">
     <g id="line2d_13">
      <path d="M 483.972592 354.958125 
L 483.972592 22.318125 
" clip-path="url(#pf66a816109)" style="fill: none; stroke: #b0b0b0; stroke-opacity: 0.3; stroke-width: 0.8; stroke-linecap: square"/>
     </g>
     <g id="line2d_14">
      <g>
       <use xlink:href="#m12646409c6" x="483.972592" y="354.958125" style="stroke: #000000; stroke-width: 0.8"/>
      </g>
     </g>
     <g id="text_7">
      <!-- 300 -->
      <g transform="translate(474.428842 369.556562) scale(0.1 -0.1)">
       <defs>
        <path id="DejaVuSans-33" d="M 2597 2516 
Q 3050 2419 3304 2112 
Q 3559 1806 3559 1356 
Q 3559 666 3084 287 
Q 2609 -91 1734 -91 
Q 1441 -91 1130 -33 
Q 819 25 488 141 
L 488 750 
Q 750 597 1062 519 
Q 1375 441 1716 441 
Q 2309 441 2620 675 
Q 2931 909 2931 1356 
Q 2931 1769 2642 2001 
Q 2353 2234 1838 2234 
L 1294 2234 
L 1294 2753 
L 1863 2753 
Q 2328 2753 2575 2939 
Q 2822 3125 2822 3475 
Q 2822 3834 2567 4026 
Q 2313 4219 1838 4219 
Q 1578 4219 1281 4162 
Q 984 4106 628 3988 
L 628 4550 
Q 988 4650 1302 4700 
Q 1616 4750 1894 4750 
Q 2613 4750 3031 4423 
Q 3450 4097 3450 3541 
Q 3450 3153 3228 2886 
Q 3006 2619 2597 2516 
z
" transform="scale(0.015625)"/>
       </defs>
       <use xlink:href="#DejaVuSans-33"/>
       <use xlink:href="#DejaVuSans-30" transform="translate(63.623047 0)"/>
       <use xlink:href="#DejaVuSans-30" transform="translate(127.246094 0)"/>
      </g>
     </g>
    </g>
    <g id="text_8">
     <!-- Epoch -->
     <g transform="translate(264.395312 383.234687) scale(0.1 -0.1)">
      <defs>
       <path id="DejaVuSans-45" d="M 628 4666 
L 3578 4666 
L 3578 4134 
L 1259 4134 
L 1259 2753 
L 3481 2753 
L 3481 2222 
L 1259 2222 
L 1259 531 
L 3634 531 
L 3634 0 
L 628 0 
L 628 4666 
z
" transform="scale(0.015625)"/>
       <path id="DejaVuSans-70" d="M 1159 525 
L 1159 -1331 
L 581 -1331 
L 581 3500 
L 1159 3500 
L 1159 2969 
Q 1341 3281 1617 3432 
Q 1894 3584 2278 3584 
Q 2916 3584 3314 3078 
Q 3713 2572 3713 1747 
Q 3713 922 3314 415 
Q 2916 -91 2278 -91 
Q 1894 -91 1617 61 
Q 1341 213 1159 525 
z
M 3116 1747 
Q 3116 2381 2855 2742 
Q 2594 3103 2138 3103 
Q 1681 3103 1420 2742 
Q 1159 2381 1159 1747 
Q 1159 1113 1420 752 
Q 1681 391 2138 391 
Q 2594 391 2855 752 
Q 3116 1113 3116 1747 
z
" transform="scale(0.015625)"/>
       <path id="DejaVuSans-6f" d="M 1959 3097 
Q 1497 3097 1228 2736 
Q 959 2375 959 1747 
Q 959 1119 1226 758 
Q 1494 397 1959 397 
Q 2419 397 2687 759 
Q 2956 1122 2956 1747 
Q 2956 2369 2687 2733 
Q 2419 3097 1959 3097 
z
M 1959 3584 
Q 2709 3584 3137 3096 
Q 3566 2609 3566 1747 
Q 3566 888 3137 398 
Q 2709 -91 1959 -91 
Q 1206 -91 779 398 
Q 353 888 353 1747 
Q 353 2609 779 3096 
Q 1206 3584 1959 3584 
z
" transform="scale(0.015625)"/>
       <path id="DejaVuSans-63" d="M 3122 3366 
L 3122 2828 
Q 2878 2963 2633 3030 
Q 2388 3097 2138 3097 
Q 1578 3097 1268 2742 
Q 959 2388 959 1747 
Q 959 1106 1268 751 
Q 1578 397 2138 397 
Q 2388 397 2633 464 
Q 2878 531 3122 666 
L 3122 134 
Q 2881 22 2623 -34 
Q 2366 -91 2075 -91 
Q 1284 -91 818 406 
Q 353 903 353 1747 
Q 353 2603 823 3093 
Q 1294 3584 2113 3584 
Q 2378 3584 2631 3529 
Q 2884 3475 3122 3366 
z
" transform="scale(0.015625)"/>
       <path id="DejaVuSans-68" d="M 3513 2113 
L 3513 0 
L 2938 0 
L 2938 2094 
Q 2938 2591 2744 2837 
Q 2550 3084 2163 3084 
Q 1697 3084 1428 2787 
Q 1159 2491 1159 1978 
L 1159 0 
L 581 0 
L 581 4863 
L 1159 4863 
L 1159 2956 
Q 1366 3272 1645 3428 
Q 1925 3584 2291 3584 
Q 2894 3584 3203 3211 
Q 3513 2838 3513 2113 
z
" transform="scale(0.015625)"/>
      </defs>
      <use xlink:href="#DejaVuSans-45"/>
      <use xlink:href="#DejaVuSans-70" transform="translate(63.183594 0)"/>
      <use xlink:href="#DejaVuSans-6f" transform="translate(126.660156 0)"/>
      <use xlink:href="#DejaVuSans-63" transform="translate(187.841797 0)"/>
      <use xlink:href="#DejaVuSans-68" transform="translate(242.822266 0)"/>
     </g>
    </g>
   </g>
   <g id="matplotlib.axis_2">
    <g id="ytick_1">
     <g id="line2d_15">
      <path d="M 56.50625 336.15382 
L 502.90625 336.15382 
" clip-path="url(#pf66a816109)" style="fill: none; stroke: #b0b0b0; stroke-opacity: 0.3; stroke-width: 0.8; stroke-linecap: square"/>
     </g>
     <g id="line2d_16">
      <defs>
       <path id="m80a065564f" d="M 0 0 
L -3.5 0 
" style="stroke: #000000; stroke-width: 0.8"/>
      </defs>
      <g>
       <use xlink:href="#m80a065564f" x="56.50625" y="336.15382" style="stroke: #000000; stroke-width: 0.8"/>
      </g>
     </g>
     <g id="text_9">
      <!-- 0.050 -->
      <g transform="translate(20.878125 339.953039) scale(0.1 -0.1)">
       <defs>
        <path id="DejaVuSans-2e" d="M 684 794 
L 1344 794 
L 1344 0 
L 684 0 
L 684 794 
z
" transform="scale(0.015625)"/>
       </defs>
       <use xlink:href="#DejaVuSans-30"/>
       <use xlink:href="#DejaVuSans-2e" transform="translate(63.623047 0)"/>
       <use xlink:href="#DejaVuSans-30" transform="translate(95.410156 0)"/>
       <use xlink:href="#DejaVuSans-35" transform="translate(159.033203 0)"/>
       <use xlink:href="#DejaVuSans-30" transform="translate(222.65625 0)"/>
      </g>
     </g>
    </g>
    <g id="ytick_2">
     <g id="line2d_17">
      <path d="M 56.50625 290.095823 
L 502.90625 290.095823 
" clip-path="url(#pf66a816109)" style="fill: none; stroke: #b0b0b0; stroke-opacity: 0.3; stroke-width: 0.8; stroke-linecap: square"/>
     </g>
     <g id="line2d_18">
      <g>
       <use xlink:href="#m80a065564f" x="56.50625" y="290.095823" style="stroke: #000000; stroke-width: 0.8"/>
      </g>
     </g>
     <g id="text_10">
      <!-- 0.075 -->
      <g transform="translate(20.878125 293.895042) scale(0.1 -0.1)">
       <defs>
        <path id="DejaVuSans-37" d="M 525 4666 
L 3525 4666 
L 3525 4397 
L 1831 0 
L 1172 0 
L 2766 4134 
L 525 4134 
L 525 4666 
z
" transform="scale(0.015625)"/>
       </defs>
       <use xlink:href="#DejaVuSans-30"/>
       <use xlink:href="#DejaVuSans-2e" transform="translate(63.623047 0)"/>
       <use xlink:href="#DejaVuSans-30" transform="translate(95.410156 0)"/>
       <use xlink:href="#DejaVuSans-37" transform="translate(159.033203 0)"/>
       <use xlink:href="#DejaVuSans-35" transform="translate(222.65625 0)"/>
      </g>
     </g>
    </g>
    <g id="ytick_3">
     <g id="line2d_19">
      <path d="M 56.50625 244.037827 
L 502.90625 244.037827 
" clip-path="url(#pf66a816109)" style="fill: none; stroke: #b0b0b0; stroke-opacity: 0.3; stroke-width: 0.8; stroke-linecap: square"/>
     </g>
     <g id="line2d_20">
      <g>
       <use xlink:href="#m80a065564f" x="56.50625" y="244.037827" style="stroke: #000000; stroke-width: 0.8"/>
      </g>
     </g>
     <g id="text_11">
      <!-- 0.100 -->
      <g transform="translate(20.878125 247.837045) scale(0.1 -0.1)">
       <use xlink:href="#DejaVuSans-30"/>
       <use xlink:href="#DejaVuSans-2e" transform="translate(63.623047 0)"/>
       <use xlink:href="#DejaVuSans-31" transform="translate(95.410156 0)"/>
       <use xlink:href="#DejaVuSans-30" transform="translate(159.033203 0)"/>
       <use xlink:href="#DejaVuSans-30" transform="translate(222.65625 0)"/>
      </g>
     </g>
    </g>
    <g id="ytick_4">
     <g id="line2d_21">
      <path d="M 56.50625 197.97983 
L 502.90625 197.97983 
" clip-path="url(#pf66a816109)" style="fill: none; stroke: #b0b0b0; stroke-opacity: 0.3; stroke-width: 0.8; stroke-linecap: square"/>
     </g>
     <g id="line2d_22">
      <g>
       <use xlink:href="#m80a065564f" x="56.50625" y="197.97983" style="stroke: #000000; stroke-width: 0.8"/>
      </g>
     </g>
     <g id="text_12">
      <!-- 0.125 -->
      <g transform="translate(20.878125 201.779048) scale(0.1 -0.1)">
       <use xlink:href="#DejaVuSans-30"/>
       <use xlink:href="#DejaVuSans-2e" transform="translate(63.623047 0)"/>
       <use xlink:href="#DejaVuSans-31" transform="translate(95.410156 0)"/>
       <use xlink:href="#DejaVuSans-32" transform="translate(159.033203 0)"/>
       <use xlink:href="#DejaVuSans-35" transform="translate(222.65625 0)"/>
      </g>
     </g>
    </g>
    <g id="ytick_5">
     <g id="line2d_23">
      <path d="M 56.50625 151.921833 
L 502.90625 151.921833 
" clip-path="url(#pf66a816109)" style="fill: none; stroke: #b0b0b0; stroke-opacity: 0.3; stroke-width: 0.8; stroke-linecap: square"/>
     </g>
     <g id="line2d_24">
      <g>
       <use xlink:href="#m80a065564f" x="56.50625" y="151.921833" style="stroke: #000000; stroke-width: 0.8"/>
      </g>
     </g>
     <g id="text_13">
      <!-- 0.150 -->
      <g transform="translate(20.878125 155.721052) scale(0.1 -0.1)">
       <use xlink:href="#DejaVuSans-30"/>
       <use xlink:href="#DejaVuSans-2e" transform="translate(63.623047 0)"/>
       <use xlink:href="#DejaVuSans-31" transform="translate(95.410156 0)"/>
       <use xlink:href="#DejaVuSans-35" transform="translate(159.033203 0)"/>
       <use xlink:href="#DejaVuSans-30" transform="translate(222.65625 0)"/>
      </g>
     </g>
    </g>
    <g id="ytick_6">
     <g id="line2d_25">
      <path d="M 56.50625 105.863836 
L 502.90625 105.863836 
" clip-path="url(#pf66a816109)" style="fill: none; stroke: #b0b0b0; stroke-opacity: 0.3; stroke-width: 0.8; stroke-linecap: square"/>
     </g>
     <g id="line2d_26">
      <g>
       <use xlink:href="#m80a065564f" x="56.50625" y="105.863836" style="stroke: #000000; stroke-width: 0.8"/>
      </g>
     </g>
     <g id="text_14">
      <!-- 0.175 -->
      <g transform="translate(20.878125 109.663055) scale(0.1 -0.1)">
       <use xlink:href="#DejaVuSans-30"/>
       <use xlink:href="#DejaVuSans-2e" transform="translate(63.623047 0)"/>
       <use xlink:href="#DejaVuSans-31" transform="translate(95.410156 0)"/>
       <use xlink:href="#DejaVuSans-37" transform="translate(159.033203 0)"/>
       <use xlink:href="#DejaVuSans-35" transform="translate(222.65625 0)"/>
      </g>
     </g>
    </g>
    <g id="ytick_7">
     <g id="line2d_27">
      <path d="M 56.50625 59.805839 
L 502.90625 59.805839 
" clip-path="url(#pf66a816109)" style="fill: none; stroke: #b0b0b0; stroke-opacity: 0.3; stroke-width: 0.8; stroke-linecap: square"/>
     </g>
     <g id="line2d_28">
      <g>
       <use xlink:href="#m80a065564f" x="56.50625" y="59.805839" style="stroke: #000000; stroke-width: 0.8"/>
      </g>
     </g>
     <g id="text_15">
      <!-- 0.200 -->
      <g transform="translate(20.878125 63.605058) scale(0.1 -0.1)">
       <use xlink:href="#DejaVuSans-30"/>
       <use xlink:href="#DejaVuSans-2e" transform="translate(63.623047 0)"/>
       <use xlink:href="#DejaVuSans-32" transform="translate(95.410156 0)"/>
       <use xlink:href="#DejaVuSans-30" transform="translate(159.033203 0)"/>
       <use xlink:href="#DejaVuSans-30" transform="translate(222.65625 0)"/>
      </g>
     </g>
    </g>
    <g id="text_16">
     <!-- MAE -->
     <g transform="translate(14.798438 199.531875) rotate(-90) scale(0.1 -0.1)">
      <defs>
       <path id="DejaVuSans-4d" d="M 628 4666 
L 1569 4666 
L 2759 1491 
L 3956 4666 
L 4897 4666 
L 4897 0 
L 4281 0 
L 4281 4097 
L 3078 897 
L 2444 897 
L 1241 4097 
L 1241 0 
L 628 0 
L 628 4666 
z
" transform="scale(0.015625)"/>
       <path id="DejaVuSans-41" d="M 2188 4044 
L 1331 1722 
L 3047 1722 
L 2188 4044 
z
M 1831 4666 
L 2547 4666 
L 4325 0 
L 3669 0 
L 3244 1197 
L 1141 1197 
L 716 0 
L 50 0 
L 1831 4666 
z
" transform="scale(0.015625)"/>
      </defs>
      <use xlink:href="#DejaVuSans-4d"/>
      <use xlink:href="#DejaVuSans-41" transform="translate(86.279297 0)"/>
      <use xlink:href="#DejaVuSans-45" transform="translate(154.6875 0)"/>
     </g>
    </g>
   </g>
   <g id="line2d_29">
    <path d="M 76.797159 37.438125 
L 78.154411 89.609674 
L 79.511662 111.914282 
L 80.868913 126.226189 
L 82.226165 138.858587 
L 83.583416 147.815999 
L 84.940668 152.633983 
L 86.297919 159.573354 
L 87.655171 169.927227 
L 89.012422 173.696802 
L 90.369674 182.254206 
L 91.726925 187.723055 
L 93.084176 191.522638 
L 94.441428 196.601232 
L 95.798679 204.794911 
L 97.155931 208.887186 
L 98.513182 214.487079 
L 102.584937 226.109573 
L 103.942188 228.516652 
L 106.656691 237.871114 
L 108.013942 240.112543 
L 109.371194 243.303539 
L 110.728445 244.523291 
L 112.085697 249.932258 
L 113.442948 251.053199 
L 116.157451 255.602467 
L 117.514702 257.024852 
L 118.871954 257.636796 
L 120.229205 257.568098 
L 122.943708 263.322561 
L 124.30096 263.631741 
L 127.015463 268.656983 
L 128.372714 270.324825 
L 129.729965 270.032894 
L 131.087217 273.065323 
L 132.444468 273.183167 
L 133.80172 274.839689 
L 135.158971 274.743981 
L 136.516223 277.07341 
L 137.873474 276.259254 
L 140.587977 280.986048 
L 141.945228 280.165629 
L 143.30248 283.05374 
L 144.659731 283.30242 
L 146.016983 282.485007 
L 147.374234 283.891765 
L 148.731486 283.728166 
L 150.088737 287.000389 
L 151.445989 283.486048 
L 154.160491 287.884446 
L 155.517743 286.965193 
L 158.232246 290.566223 
L 159.589497 290.828224 
L 160.946749 290.031525 
L 162.304 291.222871 
L 163.661252 292.65109 
L 165.018503 292.03271 
L 166.375754 293.740257 
L 167.733006 293.934357 
L 169.090257 293.455279 
L 170.447509 293.259845 
L 171.80476 295.345735 
L 173.162012 295.650897 
L 174.519263 296.142538 
L 175.876515 296.470473 
L 177.233766 298.777819 
L 178.591017 295.899138 
L 179.948269 299.897972 
L 181.30552 301.543207 
L 182.662772 298.852375 
L 184.020023 299.433059 
L 185.377275 300.672541 
L 186.734526 300.393304 
L 189.449029 302.661005 
L 190.80628 302.029476 
L 192.163532 303.281946 
L 194.878035 300.86942 
L 196.235286 301.597527 
L 197.592538 304.610941 
L 198.949789 304.334406 
L 200.307041 305.157458 
L 201.664292 306.313565 
L 203.021543 304.494448 
L 205.736046 306.424128 
L 207.093298 305.664307 
L 208.450549 307.760315 
L 209.807801 307.885906 
L 211.165052 306.932939 
L 212.522304 307.094235 
L 213.879555 309.069441 
L 215.236806 307.859503 
L 216.594058 308.459186 
L 217.951309 307.997901 
L 219.308561 308.963314 
L 220.665812 308.997299 
L 222.023064 310.010547 
L 223.380315 310.185082 
L 224.737567 308.334882 
L 226.094818 310.04906 
L 227.452069 311.513522 
L 228.809321 310.245312 
L 230.166572 311.609331 
L 231.523824 311.576493 
L 232.881075 311.72692 
L 234.238327 311.333296 
L 235.595578 313.133686 
L 236.95283 314.630756 
L 239.667332 314.054094 
L 241.024584 313.361585 
L 242.381835 315.003995 
L 243.739087 315.680727 
L 245.096338 313.652985 
L 246.45359 315.345895 
L 247.810841 315.793973 
L 249.168093 315.705206 
L 250.525344 315.96468 
L 253.239847 316.062708 
L 254.597098 315.809371 
L 255.95435 317.33237 
L 257.311601 315.079104 
L 258.668853 315.473699 
L 260.026104 316.301156 
L 261.383356 318.422558 
L 262.740607 317.056217 
L 264.097858 316.491502 
L 265.45511 318.643567 
L 266.812361 319.372589 
L 268.169613 318.520198 
L 269.526864 318.250983 
L 270.884116 317.797423 
L 272.241367 318.887492 
L 273.598619 316.951075 
L 274.95587 319.28324 
L 276.313121 319.249338 
L 277.670373 317.492403 
L 279.027624 318.458138 
L 280.384876 319.206803 
L 281.742127 321.175773 
L 283.099379 321.363607 
L 284.45663 319.369825 
L 285.813881 319.510626 
L 287.171133 320.951088 
L 288.528384 321.445238 
L 289.885636 319.602509 
L 291.242887 321.746104 
L 292.600139 322.975736 
L 293.95739 323.441224 
L 295.314642 322.467153 
L 296.671893 323.583539 
L 298.029144 323.237691 
L 299.386396 320.977672 
L 300.743647 321.857812 
L 302.100899 322.937108 
L 303.45815 323.157482 
L 304.815402 323.140737 
L 306.172653 323.821488 
L 307.529905 323.011681 
L 308.887156 323.853575 
L 310.244407 323.906686 
L 311.601659 323.840802 
L 312.95891 325.421835 
L 314.316162 324.14768 
L 315.673413 324.49237 
L 317.030665 324.437133 
L 318.387916 324.160351 
L 319.745168 326.689711 
L 321.102419 324.641461 
L 322.45967 324.541441 
L 323.816922 324.249652 
L 325.174173 325.537303 
L 326.531425 324.2463 
L 327.888676 325.501223 
L 329.245928 326.947586 
L 330.603179 326.74815 
L 333.317682 326.86564 
L 334.674933 327.642664 
L 336.032185 326.558216 
L 337.389436 326.947034 
L 338.746688 327.547765 
L 340.103939 326.935525 
L 341.461191 327.566945 
L 342.818442 327.887201 
L 344.175694 327.243733 
L 345.532945 328.885668 
L 346.890196 327.860717 
L 348.247448 328.63689 
L 349.604699 329.215428 
L 350.961951 328.561898 
L 352.319202 328.475939 
L 353.676454 328.667012 
L 355.033705 329.009767 
L 356.390957 328.762435 
L 357.748208 329.718396 
L 359.105459 328.96972 
L 361.819962 328.91015 
L 363.177214 329.185088 
L 364.534465 329.690192 
L 365.891717 328.995737 
L 367.248968 329.990775 
L 368.60622 329.948143 
L 369.963471 329.672063 
L 371.320722 330.134455 
L 372.677974 330.3707 
L 374.035225 330.839823 
L 375.392477 330.536439 
L 376.749728 330.792835 
L 378.10698 329.871513 
L 379.464231 332.055003 
L 380.821483 331.124276 
L 382.178734 332.559583 
L 383.535985 330.223411 
L 384.893237 331.356191 
L 386.250488 330.733175 
L 387.60774 332.361858 
L 388.964991 331.628609 
L 390.322243 332.28807 
L 391.679494 331.685284 
L 393.036746 333.027194 
L 394.393997 333.499274 
L 395.751248 332.726559 
L 397.1085 332.856168 
L 398.465751 333.596581 
L 399.823003 332.88228 
L 401.180254 331.302648 
L 402.537506 333.717047 
L 403.894757 333.179076 
L 405.252009 333.310175 
L 406.60926 334.513562 
L 407.966511 333.197904 
L 409.323763 333.476376 
L 410.681014 333.549695 
L 412.038266 332.230236 
L 413.395517 332.175186 
L 414.752769 333.901416 
L 416.11002 335.160214 
L 417.467272 334.678868 
L 418.824523 333.125242 
L 420.181774 333.496005 
L 421.539026 332.401781 
L 422.896277 334.621314 
L 424.253529 334.584417 
L 425.61078 334.733103 
L 426.968032 336.018447 
L 428.325283 334.80608 
L 429.682535 335.797451 
L 431.039786 335.432379 
L 432.397037 335.828507 
L 433.754289 336.841484 
L 435.11154 334.691354 
L 436.468792 334.404345 
L 439.183295 336.496691 
L 440.540546 335.125598 
L 441.897798 335.775858 
L 443.255049 335.979035 
L 444.6123 336.6007 
L 445.969552 336.246916 
L 447.326803 337.585714 
L 448.684055 336.84753 
L 450.041306 335.33706 
L 451.398558 336.993308 
L 452.755809 336.316801 
L 454.113061 336.993743 
L 455.470312 336.40438 
L 456.827563 336.331687 
L 458.184815 337.2605 
L 459.542066 336.933946 
L 460.899318 337.627711 
L 462.256569 336.459161 
L 463.613821 338.139389 
L 464.971072 336.826713 
L 466.328324 337.325261 
L 467.685575 338.821675 
L 469.042826 336.335945 
L 470.400078 336.327994 
L 471.757329 338.346104 
L 473.114581 339.838125 
L 474.471832 338.312762 
L 475.829084 338.348996 
L 477.186335 339.112366 
L 478.543587 338.395644 
L 479.900838 338.199201 
L 481.258089 339.246827 
L 482.615341 338.730607 
L 482.615341 338.730607 
" clip-path="url(#pf66a816109)" style="fill: none; stroke: #1f77b4; stroke-width: 2; stroke-linecap: square"/>
   </g>
   <g id="line2d_30">
    <path d="M 76.797159 58.552307 
L 78.154411 122.978376 
L 79.511662 124.710976 
L 80.868913 125.777555 
L 82.226165 147.08851 
L 83.583416 151.920477 
L 84.940668 152.455075 
L 86.297919 133.757181 
L 87.655171 147.543365 
L 89.012422 165.529326 
L 90.369674 168.418903 
L 91.726925 142.590055 
L 93.084176 167.36276 
L 94.441428 158.153396 
L 95.798679 169.696747 
L 97.155931 168.845964 
L 98.513182 169.333881 
L 99.870434 173.351642 
L 101.227685 163.342519 
L 102.584937 171.545732 
L 103.942188 172.907708 
L 105.299439 173.585679 
L 106.656691 177.061245 
L 108.013942 167.273 
L 109.371194 169.925954 
L 110.728445 176.704838 
L 112.085697 176.565684 
L 114.8002 171.499071 
L 116.157451 174.343624 
L 117.514702 172.806665 
L 118.871954 175.940208 
L 120.229205 175.596099 
L 121.586457 174.811296 
L 122.943708 173.225032 
L 124.30096 177.744285 
L 125.658211 174.612912 
L 127.015463 174.784212 
L 128.372714 177.718939 
L 129.729965 178.075675 
L 131.087217 174.754044 
L 132.444468 176.233423 
L 133.80172 175.613187 
L 135.158971 174.058971 
L 136.516223 175.387445 
L 137.873474 178.538142 
L 139.230726 179.596742 
L 140.587977 176.845146 
L 141.945228 179.384027 
L 143.30248 178.971065 
L 144.659731 176.35183 
L 146.016983 177.141539 
L 147.374234 173.345354 
L 148.731486 180.300468 
L 150.088737 178.493368 
L 151.445989 167.157804 
L 152.80324 175.579565 
L 154.160491 181.399407 
L 155.517743 170.715965 
L 156.874994 180.964872 
L 158.232246 177.055464 
L 159.589497 178.004884 
L 160.946749 178.569849 
L 162.304 180.668574 
L 163.661252 179.452978 
L 165.018503 181.807611 
L 166.375754 181.140534 
L 167.733006 179.348735 
L 169.090257 182.233124 
L 170.447509 181.080875 
L 171.80476 181.578386 
L 173.162012 179.395375 
L 174.519263 181.058743 
L 175.876515 183.057936 
L 177.233766 179.346194 
L 178.591017 177.313335 
L 179.948269 180.823215 
L 181.30552 181.351186 
L 182.662772 181.347235 
L 184.020023 181.206398 
L 185.377275 177.590755 
L 186.734526 183.07088 
L 188.091778 183.965139 
L 189.449029 182.42792 
L 190.80628 182.231178 
L 192.163532 180.208369 
L 193.520783 183.663722 
L 194.878035 181.535202 
L 196.235286 181.15099 
L 197.592538 179.831656 
L 198.949789 181.698583 
L 200.307041 180.485842 
L 201.664292 178.762228 
L 203.021543 181.926348 
L 204.378795 182.555867 
L 205.736046 182.928542 
L 207.093298 179.25201 
L 208.450549 182.522224 
L 209.807801 181.530201 
L 211.165052 182.645645 
L 212.522304 182.377462 
L 215.236806 184.305516 
L 216.594058 176.801089 
L 217.951309 183.48531 
L 219.308561 183.518791 
L 220.665812 184.35615 
L 222.023064 183.884662 
L 223.380315 185.036369 
L 224.737567 184.266537 
L 226.094818 184.875729 
L 227.452069 184.179727 
L 228.809321 185.455838 
L 230.166572 184.832383 
L 231.523824 183.27919 
L 232.881075 182.739233 
L 234.238327 177.256502 
L 235.595578 185.669251 
L 236.95283 182.828085 
L 238.310081 185.081907 
L 239.667332 184.844864 
L 241.024584 184.101731 
L 242.381835 184.23499 
L 243.739087 186.804356 
L 245.096338 181.179236 
L 246.45359 185.435575 
L 247.810841 183.447439 
L 249.168093 181.777529 
L 250.525344 182.344822 
L 251.882595 186.116057 
L 253.239847 184.988885 
L 254.597098 185.49356 
L 255.95435 181.615992 
L 257.311601 186.064421 
L 258.668853 183.809622 
L 260.026104 183.860085 
L 261.383356 184.303619 
L 262.740607 184.574015 
L 264.097858 185.691703 
L 265.45511 184.370472 
L 266.812361 186.379781 
L 268.169613 186.428327 
L 269.526864 184.920548 
L 270.884116 185.585108 
L 272.241367 184.82968 
L 273.598619 185.268759 
L 274.95587 185.9438 
L 276.313121 184.559457 
L 277.670373 186.049898 
L 279.027624 183.762983 
L 280.384876 184.680756 
L 281.742127 185.884386 
L 283.099379 184.827167 
L 284.45663 185.807133 
L 285.813881 186.629322 
L 287.171133 185.702175 
L 288.528384 181.004372 
L 289.885636 183.118841 
L 291.242887 182.312027 
L 292.600139 185.906629 
L 293.95739 184.487054 
L 295.314642 185.785896 
L 296.671893 185.966567 
L 298.029144 185.182063 
L 299.386396 184.08856 
L 300.743647 185.621853 
L 302.100899 185.060698 
L 303.45815 185.510194 
L 304.815402 183.977373 
L 306.172653 185.073891 
L 307.529905 184.431497 
L 308.887156 183.36782 
L 310.244407 184.656754 
L 311.601659 184.580747 
L 312.95891 186.123932 
L 314.316162 184.485684 
L 315.673413 185.58062 
L 317.030665 185.1332 
L 318.387916 186.08099 
L 319.745168 184.446644 
L 321.102419 185.374177 
L 322.45967 186.50531 
L 323.816922 186.916494 
L 325.174173 183.359534 
L 326.531425 186.779262 
L 327.888676 188.260836 
L 329.245928 184.706639 
L 330.603179 186.546038 
L 331.960431 186.941692 
L 333.317682 188.422747 
L 334.674933 185.274474 
L 336.032185 185.283625 
L 337.389436 187.775452 
L 338.746688 186.450185 
L 340.103939 188.519939 
L 341.461191 187.385964 
L 342.818442 187.955031 
L 344.175694 187.73366 
L 345.532945 188.275613 
L 346.890196 186.754953 
L 348.247448 184.539485 
L 349.604699 188.414339 
L 350.961951 185.918431 
L 352.319202 187.389561 
L 353.676454 184.665653 
L 355.033705 186.042667 
L 356.390957 185.382424 
L 359.105459 186.467201 
L 360.462711 187.716241 
L 361.819962 185.796825 
L 363.177214 187.21355 
L 364.534465 186.220393 
L 365.891717 186.561148 
L 367.248968 185.312053 
L 368.60622 187.225251 
L 369.963471 186.172742 
L 371.320722 183.694996 
L 372.677974 187.104963 
L 374.035225 186.764122 
L 376.749728 186.860286 
L 378.10698 187.302926 
L 379.464231 186.106698 
L 380.821483 186.839068 
L 382.178734 185.828697 
L 383.535985 185.098035 
L 386.250488 185.835762 
L 387.60774 185.67299 
L 388.964991 187.364972 
L 390.322243 184.889464 
L 391.679494 186.604018 
L 393.036746 186.378326 
L 394.393997 187.596863 
L 395.751248 187.096637 
L 397.1085 187.14294 
L 398.465751 188.548649 
L 399.823003 186.440901 
L 401.180254 187.744873 
L 402.537506 186.578365 
L 403.894757 187.206908 
L 405.252009 187.503406 
L 406.60926 188.1929 
L 407.966511 186.09516 
L 410.681014 187.097979 
L 412.038266 186.330053 
L 413.395517 186.740347 
L 414.752769 186.735392 
L 416.11002 188.338316 
L 417.467272 184.42256 
L 418.824523 186.649804 
L 420.181774 187.253037 
L 421.539026 187.308311 
L 422.896277 189.097284 
L 424.253529 185.827217 
L 425.61078 187.629642 
L 426.968032 186.80756 
L 428.325283 186.657683 
L 429.682535 187.978068 
L 431.039786 185.331507 
L 432.397037 187.034685 
L 433.754289 186.572103 
L 435.11154 187.668001 
L 436.468792 186.150761 
L 437.826043 187.295897 
L 439.183295 185.774141 
L 440.540546 187.604728 
L 441.897798 187.233471 
L 443.255049 187.846891 
L 444.6123 187.013532 
L 445.969552 187.952765 
L 447.326803 187.42913 
L 448.684055 187.524349 
L 450.041306 189.482953 
L 451.398558 187.150287 
L 452.755809 188.772664 
L 454.113061 187.804693 
L 456.827563 184.535735 
L 458.184815 187.800821 
L 459.542066 187.833634 
L 460.899318 189.377253 
L 462.256569 188.132286 
L 463.613821 187.900075 
L 464.971072 187.48304 
L 466.328324 188.393023 
L 469.042826 186.76052 
L 470.400078 187.946402 
L 471.757329 188.827788 
L 473.114581 189.483062 
L 474.471832 187.470582 
L 475.829084 187.678239 
L 477.186335 188.831478 
L 478.543587 188.119561 
L 479.900838 188.20494 
L 481.258089 189.020687 
L 482.615341 186.39109 
L 482.615341 186.39109 
" clip-path="url(#pf66a816109)" style="fill: none; stroke: #ff7f0e; stroke-width: 2; stroke-linecap: square"/>
   </g>
   <g id="patch_3">
    <path d="M 56.50625 354.958125 
L 56.50625 22.318125 
" style="fill: none; stroke: #000000; stroke-width: 0.8; stroke-linejoin: miter; stroke-linecap: square"/>
   </g>
   <g id="patch_4">
    <path d="M 502.90625 354.958125 
L 502.90625 22.318125 
" style="fill: none; stroke: #000000; stroke-width: 0.8; stroke-linejoin: miter; stroke-linecap: square"/>
   </g>
   <g id="patch_5">
    <path d="M 56.50625 354.958125 
L 502.90625 354.958125 
" style="fill: none; stroke: #000000; stroke-width: 0.8; stroke-linejoin: miter; stroke-linecap: square"/>
   </g>
   <g id="patch_6">
    <path d="M 56.50625 22.318125 
L 502.90625 22.318125 
" style="fill: none; stroke: #000000; stroke-width: 0.8; stroke-linejoin: miter; stroke-linecap: square"/>
   </g>
   <g id="text_17">
    <!-- Training vs Validation MAE - ALIGNN -->
    <g transform="translate(172.114063 16.318125) scale(0.12 -0.12)">
     <defs>
      <path id="DejaVuSans-54" d="M -19 4666 
L 3928 4666 
L 3928 4134 
L 2272 4134 
L 2272 0 
L 1638 0 
L 1638 4134 
L -19 4134 
L -19 4666 
z
" transform="scale(0.015625)"/>
      <path id="DejaVuSans-72" d="M 2631 2963 
Q 2534 3019 2420 3045 
Q 2306 3072 2169 3072 
Q 1681 3072 1420 2755 
Q 1159 2438 1159 1844 
L 1159 0 
L 581 0 
L 581 3500 
L 1159 3500 
L 1159 2956 
Q 1341 3275 1631 3429 
Q 1922 3584 2338 3584 
Q 2397 3584 2469 3576 
Q 2541 3569 2628 3553 
L 2631 2963 
z
" transform="scale(0.015625)"/>
      <path id="DejaVuSans-61" d="M 2194 1759 
Q 1497 1759 1228 1600 
Q 959 1441 959 1056 
Q 959 750 1161 570 
Q 1363 391 1709 391 
Q 2188 391 2477 730 
Q 2766 1069 2766 1631 
L 2766 1759 
L 2194 1759 
z
M 3341 1997 
L 3341 0 
L 2766 0 
L 2766 531 
Q 2569 213 2275 61 
Q 1981 -91 1556 -91 
Q 1019 -91 701 211 
Q 384 513 384 1019 
Q 384 1609 779 1909 
Q 1175 2209 1959 2209 
L 2766 2209 
L 2766 2266 
Q 2766 2663 2505 2880 
Q 2244 3097 1772 3097 
Q 1472 3097 1187 3025 
Q 903 2953 641 2809 
L 641 3341 
Q 956 3463 1253 3523 
Q 1550 3584 1831 3584 
Q 2591 3584 2966 3190 
Q 3341 2797 3341 1997 
z
" transform="scale(0.015625)"/>
      <path id="DejaVuSans-69" d="M 603 3500 
L 1178 3500 
L 1178 0 
L 603 0 
L 603 3500 
z
M 603 4863 
L 1178 4863 
L 1178 4134 
L 603 4134 
L 603 4863 
z
" transform="scale(0.015625)"/>
      <path id="DejaVuSans-6e" d="M 3513 2113 
L 3513 0 
L 2938 0 
L 2938 2094 
Q 2938 2591 2744 2837 
Q 2550 3084 2163 3084 
Q 1697 3084 1428 2787 
Q 1159 2491 1159 1978 
L 1159 0 
L 581 0 
L 581 3500 
L 1159 3500 
L 1159 2956 
Q 1366 3272 1645 3428 
Q 1925 3584 2291 3584 
Q 2894 3584 3203 3211 
Q 3513 2838 3513 2113 
z
" transform="scale(0.015625)"/>
      <path id="DejaVuSans-67" d="M 2906 1791 
Q 2906 2416 2648 2759 
Q 2391 3103 1925 3103 
Q 1463 3103 1205 2759 
Q 947 2416 947 1791 
Q 947 1169 1205 825 
Q 1463 481 1925 481 
Q 2391 481 2648 825 
Q 2906 1169 2906 1791 
z
M 3481 434 
Q 3481 -459 3084 -895 
Q 2688 -1331 1869 -1331 
Q 1566 -1331 1297 -1286 
Q 1028 -1241 775 -1147 
L 775 -588 
Q 1028 -725 1275 -790 
Q 1522 -856 1778 -856 
Q 2344 -856 2625 -561 
Q 2906 -266 2906 331 
L 2906 616 
Q 2728 306 2450 153 
Q 2172 0 1784 0 
Q 1141 0 747 490 
Q 353 981 353 1791 
Q 353 2603 747 3093 
Q 1141 3584 1784 3584 
Q 2172 3584 2450 3431 
Q 2728 3278 2906 2969 
L 2906 3500 
L 3481 3500 
L 3481 434 
z
" transform="scale(0.015625)"/>
      <path id="DejaVuSans-20" transform="scale(0.015625)"/>
      <path id="DejaVuSans-76" d="M 191 3500 
L 800 3500 
L 1894 563 
L 2988 3500 
L 3597 3500 
L 2284 0 
L 1503 0 
L 191 3500 
z
" transform="scale(0.015625)"/>
      <path id="DejaVuSans-73" d="M 2834 3397 
L 2834 2853 
Q 2591 2978 2328 3040 
Q 2066 3103 1784 3103 
Q 1356 3103 1142 2972 
Q 928 2841 928 2578 
Q 928 2378 1081 2264 
Q 1234 2150 1697 2047 
L 1894 2003 
Q 2506 1872 2764 1633 
Q 3022 1394 3022 966 
Q 3022 478 2636 193 
Q 2250 -91 1575 -91 
Q 1294 -91 989 -36 
Q 684 19 347 128 
L 347 722 
Q 666 556 975 473 
Q 1284 391 1588 391 
Q 1994 391 2212 530 
Q 2431 669 2431 922 
Q 2431 1156 2273 1281 
Q 2116 1406 1581 1522 
L 1381 1569 
Q 847 1681 609 1914 
Q 372 2147 372 2553 
Q 372 3047 722 3315 
Q 1072 3584 1716 3584 
Q 2034 3584 2315 3537 
Q 2597 3491 2834 3397 
z
" transform="scale(0.015625)"/>
      <path id="DejaVuSans-56" d="M 1831 0 
L 50 4666 
L 709 4666 
L 2188 738 
L 3669 4666 
L 4325 4666 
L 2547 0 
L 1831 0 
z
" transform="scale(0.015625)"/>
      <path id="DejaVuSans-6c" d="M 603 4863 
L 1178 4863 
L 1178 0 
L 603 0 
L 603 4863 
z
" transform="scale(0.015625)"/>
      <path id="DejaVuSans-64" d="M 2906 2969 
L 2906 4863 
L 3481 4863 
L 3481 0 
L 2906 0 
L 2906 525 
Q 2725 213 2448 61 
Q 2172 -91 1784 -91 
Q 1150 -91 751 415 
Q 353 922 353 1747 
Q 353 2572 751 3078 
Q 1150 3584 1784 3584 
Q 2172 3584 2448 3432 
Q 2725 3281 2906 2969 
z
M 947 1747 
Q 947 1113 1208 752 
Q 1469 391 1925 391 
Q 2381 391 2643 752 
Q 2906 1113 2906 1747 
Q 2906 2381 2643 2742 
Q 2381 3103 1925 3103 
Q 1469 3103 1208 2742 
Q 947 2381 947 1747 
z
" transform="scale(0.015625)"/>
      <path id="DejaVuSans-74" d="M 1172 4494 
L 1172 3500 
L 2356 3500 
L 2356 3053 
L 1172 3053 
L 1172 1153 
Q 1172 725 1289 603 
Q 1406 481 1766 481 
L 2356 481 
L 2356 0 
L 1766 0 
Q 1100 0 847 248 
Q 594 497 594 1153 
L 594 3053 
L 172 3053 
L 172 3500 
L 594 3500 
L 594 4494 
L 1172 4494 
z
" transform="scale(0.015625)"/>
      <path id="DejaVuSans-2d" d="M 313 2009 
L 1997 2009 
L 1997 1497 
L 313 1497 
L 313 2009 
z
" transform="scale(0.015625)"/>
      <path id="DejaVuSans-4c" d="M 628 4666 
L 1259 4666 
L 1259 531 
L 3531 531 
L 3531 0 
L 628 0 
L 628 4666 
z
" transform="scale(0.015625)"/>
      <path id="DejaVuSans-49" d="M 628 4666 
L 1259 4666 
L 1259 0 
L 628 0 
L 628 4666 
z
" transform="scale(0.015625)"/>
      <path id="DejaVuSans-47" d="M 3809 666 
L 3809 1919 
L 2778 1919 
L 2778 2438 
L 4434 2438 
L 4434 434 
Q 4069 175 3628 42 
Q 3188 -91 2688 -91 
Q 1594 -91 976 548 
Q 359 1188 359 2328 
Q 359 3472 976 4111 
Q 1594 4750 2688 4750 
Q 3144 4750 3555 4637 
Q 3966 4525 4313 4306 
L 4313 3634 
Q 3963 3931 3569 4081 
Q 3175 4231 2741 4231 
Q 1884 4231 1454 3753 
Q 1025 3275 1025 2328 
Q 1025 1384 1454 906 
Q 1884 428 2741 428 
Q 3075 428 3337 486 
Q 3600 544 3809 666 
z
" transform="scale(0.015625)"/>
      <path id="DejaVuSans-4e" d="M 628 4666 
L 1478 4666 
L 3547 763 
L 3547 4666 
L 4159 4666 
L 4159 0 
L 3309 0 
L 1241 3903 
L 1241 0 
L 628 0 
L 628 4666 
z
" transform="scale(0.015625)"/>
     </defs>
     <use xlink:href="#DejaVuSans-54"/>
     <use xlink:href="#DejaVuSans-72" transform="translate(46.333984 0)"/>
     <use xlink:href="#DejaVuSans-61" transform="translate(87.447266 0)"/>
     <use xlink:href="#DejaVuSans-69" transform="translate(148.726562 0)"/>
     <use xlink:href="#DejaVuSans-6e" transform="translate(176.509766 0)"/>
     <use xlink:href="#DejaVuSans-69" transform="translate(239.888672 0)"/>
     <use xlink:href="#DejaVuSans-6e" transform="translate(267.671875 0)"/>
     <use xlink:href="#DejaVuSans-67" transform="translate(331.050781 0)"/>
     <use xlink:href="#DejaVuSans-20" transform="translate(394.527344 0)"/>
     <use xlink:href="#DejaVuSans-76" transform="translate(426.314453 0)"/>
     <use xlink:href="#DejaVuSans-73" transform="translate(485.494141 0)"/>
     <use xlink:href="#DejaVuSans-20" transform="translate(537.59375 0)"/>
     <use xlink:href="#DejaVuSans-56" transform="translate(569.380859 0)"/>
     <use xlink:href="#DejaVuSans-61" transform="translate(630.039062 0)"/>
     <use xlink:href="#DejaVuSans-6c" transform="translate(691.318359 0)"/>
     <use xlink:href="#DejaVuSans-69" transform="translate(719.101562 0)"/>
     <use xlink:href="#DejaVuSans-64" transform="translate(746.884766 0)"/>
     <use xlink:href="#DejaVuSans-61" transform="translate(810.361328 0)"/>
     <use xlink:href="#DejaVuSans-74" transform="translate(871.640625 0)"/>
     <use xlink:href="#DejaVuSans-69" transform="translate(910.849609 0)"/>
     <use xlink:href="#DejaVuSans-6f" transform="translate(938.632812 0)"/>
     <use xlink:href="#DejaVuSans-6e" transform="translate(999.814453 0)"/>
     <use xlink:href="#DejaVuSans-20" transform="translate(1063.193359 0)"/>
     <use xlink:href="#DejaVuSans-4d" transform="translate(1094.980469 0)"/>
     <use xlink:href="#DejaVuSans-41" transform="translate(1181.259766 0)"/>
     <use xlink:href="#DejaVuSans-45" transform="translate(1249.667969 0)"/>
     <use xlink:href="#DejaVuSans-20" transform="translate(1312.851562 0)"/>
     <use xlink:href="#DejaVuSans-2d" transform="translate(1344.638672 0)"/>
     <use xlink:href="#DejaVuSans-20" transform="translate(1380.722656 0)"/>
     <use xlink:href="#DejaVuSans-41" transform="translate(1412.509766 0)"/>
     <use xlink:href="#DejaVuSans-4c" transform="translate(1480.917969 0)"/>
     <use xlink:href="#DejaVuSans-49" transform="translate(1536.630859 0)"/>
     <use xlink:href="#DejaVuSans-47" transform="translate(1566.123047 0)"/>
     <use xlink:href="#DejaVuSans-4e" transform="translate(1643.613281 0)"/>
     <use xlink:href="#DejaVuSans-4e" transform="translate(1718.417969 0)"/>
    </g>
   </g>
   <g id="legend_1">
    <g id="patch_7">
     <path d="M 414.525 59.674375 
L 495.90625 59.674375 
Q 497.90625 59.674375 497.90625 57.674375 
L 497.90625 29.318125 
Q 497.90625 27.318125 495.90625 27.318125 
L 414.525 27.318125 
Q 412.525 27.318125 412.525 29.318125 
L 412.525 57.674375 
Q 412.525 59.674375 414.525 59.674375 
z
" style="fill: #ffffff; opacity: 0.8; stroke: #cccccc; stroke-linejoin: miter"/>
    </g>
    <g id="line2d_31">
     <path d="M 416.525 35.416562 
L 426.525 35.416562 
L 436.525 35.416562 
" style="fill: none; stroke: #1f77b4; stroke-width: 2; stroke-linecap: square"/>
    </g>
    <g id="text_18">
     <!-- Train -->
     <g transform="translate(444.525 38.916562) scale(0.1 -0.1)">
      <use xlink:href="#DejaVuSans-54"/>
      <use xlink:href="#DejaVuSans-72" transform="translate(46.333984 0)"/>
      <use xlink:href="#DejaVuSans-61" transform="translate(87.447266 0)"/>
      <use xlink:href="#DejaVuSans-69" transform="translate(148.726562 0)"/>
      <use xlink:href="#DejaVuSans-6e" transform="translate(176.509766 0)"/>
     </g>
    </g>
    <g id="line2d_32">
     <path d="M 416.525 50.094687 
L 426.525 50.094687 
L 436.525 50.094687 
" style="fill: none; stroke: #ff7f0e; stroke-width: 2; stroke-linecap: square"/>
    </g>
    <g id="text_19">
     <!-- Validation -->
     <g transform="translate(444.525 53.594687) scale(0.1 -0.1)">
      <use xlink:href="#DejaVuSans-56"/>
      <use xlink:href="#DejaVuSans-61" transform="translate(60.658203 0)"/>
      <use xlink:href="#DejaVuSans-6c" transform="translate(121.9375 0)"/>
      <use xlink:href="#DejaVuSans-69" transform="translate(149.720703 0)"/>
      <use xlink:href="#DejaVuSans-64" transform="translate(177.503906 0)"/>
      <use xlink:href="#DejaVuSans-61" transform="translate(240.980469 0)"/>
      <use xlink:href="#DejaVuSans-74" transform="translate(302.259766 0)"/>
      <use xlink:href="#DejaVuSans-69" transform="translate(341.46875 0)"/>
      <use xlink:href="#DejaVuSans-6f" transform="translate(369.251953 0)"/>
      <use xlink:href="#DejaVuSans-6e" transform="translate(430.433594 0)"/>
     </g>
    </g>
   </g>
  </g>
 </g>
 <defs>
  <clipPath id="pf66a816109">
   <rect x="56.50625" y="22.318125" width="446.4" height="332.64"/>
  </clipPath>
 </defs>
</svg>
