<?xml version="1.0" encoding="utf-8" standalone="no"?>
<!DOCTYPE svg PUBLIC "-//W3C//DTD SVG 1.1//EN"
  "http://www.w3.org/Graphics/SVG/1.1/DTD/svg11.dtd">
<svg xmlns:xlink="http://www.w3.org/1999/xlink" width="576pt" height="432pt" viewBox="0 0 576 432" xmlns="http://www.w3.org/2000/svg" version="1.1">
 <metadata>
  <rdf:RDF xmlns:dc="http://purl.org/dc/elements/1.1/" xmlns:cc="http://creativecommons.org/ns#" xmlns:rdf="http://www.w3.org/1999/02/22-rdf-syntax-ns#">
   <cc:Work>
    <dc:type rdf:resource="http://purl.org/dc/dcmitype/StillImage"/>
    <dc:date>2025-05-08T10:59:24.457583</dc:date>
    <dc:format>image/svg+xml</dc:format>
    <dc:creator>
     <cc:Agent>
      <dc:title>Matplotlib v3.10.0, https://matplotlib.org/</dc:title>
     </cc:Agent>
    </dc:creator>
   </cc:Work>
  </rdf:RDF>
 </metadata>
 <defs>
  <style type="text/css">*{stroke-linejoin: round; stroke-linecap: butt}</style>
 </defs>
 <g id="figure_1">
  <g id="patch_1">
   <path d="M 0 432 
L 576 432 
L 576 0 
L 0 0 
z
" style="fill: #ffffff"/>
  </g>
  <g id="axes_1">
   <g id="patch_2">
    <path d="M 72 384.48 
L 518.4 384.48 
L 518.4 51.84 
L 72 51.84 
z
" style="fill: #ffffff"/>
   </g>
   <g id="matplotlib.axis_1">
    <g id="xtick_1">
     <g id="line2d_1">
      <path d="M 92.290909 384.48 
L 92.290909 51.84 
" clip-path="url(#pf02ee1e583)" style="fill: none; stroke: #b0b0b0; stroke-width: 0.8; stroke-linecap: square"/>
     </g>
     <g id="line2d_2">
      <defs>
       <path id="m4f64b84301" d="M 0 0 
L 0 3.5 
" style="stroke: #000000; stroke-width: 0.8"/>
      </defs>
      <g>
       <use xlink:href="#m4f64b84301" x="92.290909" y="384.48" style="stroke: #000000; stroke-width: 0.8"/>
      </g>
     </g>
     <g id="text_1">
      <!-- 0 -->
      <g transform="translate(89.109659 399.078438) scale(0.1 -0.1)">
       <defs>
        <path id="DejaVuSans-30" d="M 2034 4250 
Q 1547 4250 1301 3770 
Q 1056 3291 1056 2328 
Q 1056 1369 1301 889 
Q 1547 409 2034 409 
Q 2525 409 2770 889 
Q 3016 1369 3016 2328 
Q 3016 3291 2770 3770 
Q 2525 4250 2034 4250 
z
M 2034 4750 
Q 2819 4750 3233 4129 
Q 3647 3509 3647 2328 
Q 3647 1150 3233 529 
Q 2819 -91 2034 -91 
Q 1250 -91 836 529 
Q 422 1150 422 2328 
Q 422 3509 836 4129 
Q 1250 4750 2034 4750 
z
" transform="scale(0.015625)"/>
       </defs>
       <use xlink:href="#DejaVuSans-30"/>
      </g>
     </g>
    </g>
    <g id="xtick_2">
     <g id="line2d_3">
      <path d="M 149.772238 384.48 
L 149.772238 51.84 
" clip-path="url(#pf02ee1e583)" style="fill: none; stroke: #b0b0b0; stroke-width: 0.8; stroke-linecap: square"/>
     </g>
     <g id="line2d_4">
      <g>
       <use xlink:href="#m4f64b84301" x="149.772238" y="384.48" style="stroke: #000000; stroke-width: 0.8"/>
      </g>
     </g>
     <g id="text_2">
      <!-- 50 -->
      <g transform="translate(143.409738 399.078438) scale(0.1 -0.1)">
       <defs>
        <path id="DejaVuSans-35" d="M 691 4666 
L 3169 4666 
L 3169 4134 
L 1269 4134 
L 1269 2991 
Q 1406 3038 1543 3061 
Q 1681 3084 1819 3084 
Q 2600 3084 3056 2656 
Q 3513 2228 3513 1497 
Q 3513 744 3044 326 
Q 2575 -91 1722 -91 
Q 1428 -91 1123 -41 
Q 819 9 494 109 
L 494 744 
Q 775 591 1075 516 
Q 1375 441 1709 441 
Q 2250 441 2565 725 
Q 2881 1009 2881 1497 
Q 2881 1984 2565 2268 
Q 2250 2553 1709 2553 
Q 1456 2553 1204 2497 
Q 953 2441 691 2322 
L 691 4666 
z
" transform="scale(0.015625)"/>
       </defs>
       <use xlink:href="#DejaVuSans-35"/>
       <use xlink:href="#DejaVuSans-30" transform="translate(63.623047 0)"/>
      </g>
     </g>
    </g>
    <g id="xtick_3">
     <g id="line2d_5">
      <path d="M 207.253567 384.48 
L 207.253567 51.84 
" clip-path="url(#pf02ee1e583)" style="fill: none; stroke: #b0b0b0; stroke-width: 0.8; stroke-linecap: square"/>
     </g>
     <g id="line2d_6">
      <g>
       <use xlink:href="#m4f64b84301" x="207.253567" y="384.48" style="stroke: #000000; stroke-width: 0.8"/>
      </g>
     </g>
     <g id="text_3">
      <!-- 100 -->
      <g transform="translate(197.709817 399.078438) scale(0.1 -0.1)">
       <defs>
        <path id="DejaVuSans-31" d="M 794 531 
L 1825 531 
L 1825 4091 
L 703 3866 
L 703 4441 
L 1819 4666 
L 2450 4666 
L 2450 531 
L 3481 531 
L 3481 0 
L 794 0 
L 794 531 
z
" transform="scale(0.015625)"/>
       </defs>
       <use xlink:href="#DejaVuSans-31"/>
       <use xlink:href="#DejaVuSans-30" transform="translate(63.623047 0)"/>
       <use xlink:href="#DejaVuSans-30" transform="translate(127.246094 0)"/>
      </g>
     </g>
    </g>
    <g id="xtick_4">
     <g id="line2d_7">
      <path d="M 264.734896 384.48 
L 264.734896 51.84 
" clip-path="url(#pf02ee1e583)" style="fill: none; stroke: #b0b0b0; stroke-width: 0.8; stroke-linecap: square"/>
     </g>
     <g id="line2d_8">
      <g>
       <use xlink:href="#m4f64b84301" x="264.734896" y="384.48" style="stroke: #000000; stroke-width: 0.8"/>
      </g>
     </g>
     <g id="text_4">
      <!-- 150 -->
      <g transform="translate(255.191146 399.078438) scale(0.1 -0.1)">
       <use xlink:href="#DejaVuSans-31"/>
       <use xlink:href="#DejaVuSans-35" transform="translate(63.623047 0)"/>
       <use xlink:href="#DejaVuSans-30" transform="translate(127.246094 0)"/>
      </g>
     </g>
    </g>
    <g id="xtick_5">
     <g id="line2d_9">
      <path d="M 322.216225 384.48 
L 322.216225 51.84 
" clip-path="url(#pf02ee1e583)" style="fill: none; stroke: #b0b0b0; stroke-width: 0.8; stroke-linecap: square"/>
     </g>
     <g id="line2d_10">
      <g>
       <use xlink:href="#m4f64b84301" x="322.216225" y="384.48" style="stroke: #000000; stroke-width: 0.8"/>
      </g>
     </g>
     <g id="text_5">
      <!-- 200 -->
      <g transform="translate(312.672475 399.078438) scale(0.1 -0.1)">
       <defs>
        <path id="DejaVuSans-32" d="M 1228 531 
L 3431 531 
L 3431 0 
L 469 0 
L 469 531 
Q 828 903 1448 1529 
Q 2069 2156 2228 2338 
Q 2531 2678 2651 2914 
Q 2772 3150 2772 3378 
Q 2772 3750 2511 3984 
Q 2250 4219 1831 4219 
Q 1534 4219 1204 4116 
Q 875 4013 500 3803 
L 500 4441 
Q 881 4594 1212 4672 
Q 1544 4750 1819 4750 
Q 2544 4750 2975 4387 
Q 3406 4025 3406 3419 
Q 3406 3131 3298 2873 
Q 3191 2616 2906 2266 
Q 2828 2175 2409 1742 
Q 1991 1309 1228 531 
z
" transform="scale(0.015625)"/>
       </defs>
       <use xlink:href="#DejaVuSans-32"/>
       <use xlink:href="#DejaVuSans-30" transform="translate(63.623047 0)"/>
       <use xlink:href="#DejaVuSans-30" transform="translate(127.246094 0)"/>
      </g>
     </g>
    </g>
    <g id="xtick_6">
     <g id="line2d_11">
      <path d="M 379.697553 384.48 
L 379.697553 51.84 
" clip-path="url(#pf02ee1e583)" style="fill: none; stroke: #b0b0b0; stroke-width: 0.8; stroke-linecap: square"/>
     </g>
     <g id="line2d_12">
      <g>
       <use xlink:href="#m4f64b84301" x="379.697553" y="384.48" style="stroke: #000000; stroke-width: 0.8"/>
      </g>
     </g>
     <g id="text_6">
      <!-- 250 -->
      <g transform="translate(370.153803 399.078438) scale(0.1 -0.1)">
       <use xlink:href="#DejaVuSans-32"/>
       <use xlink:href="#DejaVuSans-35" transform="translate(63.623047 0)"/>
       <use xlink:href="#DejaVuSans-30" transform="translate(127.246094 0)"/>
      </g>
     </g>
    </g>
    <g id="xtick_7">
     <g id="line2d_13">
      <path d="M 437.178882 384.48 
L 437.178882 51.84 
" clip-path="url(#pf02ee1e583)" style="fill: none; stroke: #b0b0b0; stroke-width: 0.8; stroke-linecap: square"/>
     </g>
     <g id="line2d_14">
      <g>
       <use xlink:href="#m4f64b84301" x="437.178882" y="384.48" style="stroke: #000000; stroke-width: 0.8"/>
      </g>
     </g>
     <g id="text_7">
      <!-- 300 -->
      <g transform="translate(427.635132 399.078438) scale(0.1 -0.1)">
       <defs>
        <path id="DejaVuSans-33" d="M 2597 2516 
Q 3050 2419 3304 2112 
Q 3559 1806 3559 1356 
Q 3559 666 3084 287 
Q 2609 -91 1734 -91 
Q 1441 -91 1130 -33 
Q 819 25 488 141 
L 488 750 
Q 750 597 1062 519 
Q 1375 441 1716 441 
Q 2309 441 2620 675 
Q 2931 909 2931 1356 
Q 2931 1769 2642 2001 
Q 2353 2234 1838 2234 
L 1294 2234 
L 1294 2753 
L 1863 2753 
Q 2328 2753 2575 2939 
Q 2822 3125 2822 3475 
Q 2822 3834 2567 4026 
Q 2313 4219 1838 4219 
Q 1578 4219 1281 4162 
Q 984 4106 628 3988 
L 628 4550 
Q 988 4650 1302 4700 
Q 1616 4750 1894 4750 
Q 2613 4750 3031 4423 
Q 3450 4097 3450 3541 
Q 3450 3153 3228 2886 
Q 3006 2619 2597 2516 
z
" transform="scale(0.015625)"/>
       </defs>
       <use xlink:href="#DejaVuSans-33"/>
       <use xlink:href="#DejaVuSans-30" transform="translate(63.623047 0)"/>
       <use xlink:href="#DejaVuSans-30" transform="translate(127.246094 0)"/>
      </g>
     </g>
    </g>
    <g id="xtick_8">
     <g id="line2d_15">
      <path d="M 494.660211 384.48 
L 494.660211 51.84 
" clip-path="url(#pf02ee1e583)" style="fill: none; stroke: #b0b0b0; stroke-width: 0.8; stroke-linecap: square"/>
     </g>
     <g id="line2d_16">
      <g>
       <use xlink:href="#m4f64b84301" x="494.660211" y="384.48" style="stroke: #000000; stroke-width: 0.8"/>
      </g>
     </g>
     <g id="text_8">
      <!-- 350 -->
      <g transform="translate(485.116461 399.078438) scale(0.1 -0.1)">
       <use xlink:href="#DejaVuSans-33"/>
       <use xlink:href="#DejaVuSans-35" transform="translate(63.623047 0)"/>
       <use xlink:href="#DejaVuSans-30" transform="translate(127.246094 0)"/>
      </g>
     </g>
    </g>
    <g id="text_9">
     <!-- Epoch -->
     <g transform="translate(279.889062 412.756563) scale(0.1 -0.1)">
      <defs>
       <path id="DejaVuSans-45" d="M 628 4666 
L 3578 4666 
L 3578 4134 
L 1259 4134 
L 1259 2753 
L 3481 2753 
L 3481 2222 
L 1259 2222 
L 1259 531 
L 3634 531 
L 3634 0 
L 628 0 
L 628 4666 
z
" transform="scale(0.015625)"/>
       <path id="DejaVuSans-70" d="M 1159 525 
L 1159 -1331 
L 581 -1331 
L 581 3500 
L 1159 3500 
L 1159 2969 
Q 1341 3281 1617 3432 
Q 1894 3584 2278 3584 
Q 2916 3584 3314 3078 
Q 3713 2572 3713 1747 
Q 3713 922 3314 415 
Q 2916 -91 2278 -91 
Q 1894 -91 1617 61 
Q 1341 213 1159 525 
z
M 3116 1747 
Q 3116 2381 2855 2742 
Q 2594 3103 2138 3103 
Q 1681 3103 1420 2742 
Q 1159 2381 1159 1747 
Q 1159 1113 1420 752 
Q 1681 391 2138 391 
Q 2594 391 2855 752 
Q 3116 1113 3116 1747 
z
" transform="scale(0.015625)"/>
       <path id="DejaVuSans-6f" d="M 1959 3097 
Q 1497 3097 1228 2736 
Q 959 2375 959 1747 
Q 959 1119 1226 758 
Q 1494 397 1959 397 
Q 2419 397 2687 759 
Q 2956 1122 2956 1747 
Q 2956 2369 2687 2733 
Q 2419 3097 1959 3097 
z
M 1959 3584 
Q 2709 3584 3137 3096 
Q 3566 2609 3566 1747 
Q 3566 888 3137 398 
Q 2709 -91 1959 -91 
Q 1206 -91 779 398 
Q 353 888 353 1747 
Q 353 2609 779 3096 
Q 1206 3584 1959 3584 
z
" transform="scale(0.015625)"/>
       <path id="DejaVuSans-63" d="M 3122 3366 
L 3122 2828 
Q 2878 2963 2633 3030 
Q 2388 3097 2138 3097 
Q 1578 3097 1268 2742 
Q 959 2388 959 1747 
Q 959 1106 1268 751 
Q 1578 397 2138 397 
Q 2388 397 2633 464 
Q 2878 531 3122 666 
L 3122 134 
Q 2881 22 2623 -34 
Q 2366 -91 2075 -91 
Q 1284 -91 818 406 
Q 353 903 353 1747 
Q 353 2603 823 3093 
Q 1294 3584 2113 3584 
Q 2378 3584 2631 3529 
Q 2884 3475 3122 3366 
z
" transform="scale(0.015625)"/>
       <path id="DejaVuSans-68" d="M 3513 2113 
L 3513 0 
L 2938 0 
L 2938 2094 
Q 2938 2591 2744 2837 
Q 2550 3084 2163 3084 
Q 1697 3084 1428 2787 
Q 1159 2491 1159 1978 
L 1159 0 
L 581 0 
L 581 4863 
L 1159 4863 
L 1159 2956 
Q 1366 3272 1645 3428 
Q 1925 3584 2291 3584 
Q 2894 3584 3203 3211 
Q 3513 2838 3513 2113 
z
" transform="scale(0.015625)"/>
      </defs>
      <use xlink:href="#DejaVuSans-45"/>
      <use xlink:href="#DejaVuSans-70" transform="translate(63.183594 0)"/>
      <use xlink:href="#DejaVuSans-6f" transform="translate(126.660156 0)"/>
      <use xlink:href="#DejaVuSans-63" transform="translate(187.841797 0)"/>
      <use xlink:href="#DejaVuSans-68" transform="translate(242.822266 0)"/>
     </g>
    </g>
   </g>
   <g id="matplotlib.axis_2">
    <g id="ytick_1">
     <g id="line2d_17">
      <path d="M 72 379.575959 
L 518.4 379.575959 
" clip-path="url(#pf02ee1e583)" style="fill: none; stroke: #b0b0b0; stroke-width: 0.8; stroke-linecap: square"/>
     </g>
     <g id="line2d_18">
      <defs>
       <path id="m08762c2864" d="M 0 0 
L -3.5 0 
" style="stroke: #000000; stroke-width: 0.8"/>
      </defs>
      <g>
       <use xlink:href="#m08762c2864" x="72" y="379.575959" style="stroke: #000000; stroke-width: 0.8"/>
      </g>
     </g>
     <g id="text_10">
      <!-- 0.0 -->
      <g transform="translate(49.096875 383.375177) scale(0.1 -0.1)">
       <defs>
        <path id="DejaVuSans-2e" d="M 684 794 
L 1344 794 
L 1344 0 
L 684 0 
L 684 794 
z
" transform="scale(0.015625)"/>
       </defs>
       <use xlink:href="#DejaVuSans-30"/>
       <use xlink:href="#DejaVuSans-2e" transform="translate(63.623047 0)"/>
       <use xlink:href="#DejaVuSans-30" transform="translate(95.410156 0)"/>
      </g>
     </g>
    </g>
    <g id="ytick_2">
     <g id="line2d_19">
      <path d="M 72 341.45671 
L 518.4 341.45671 
" clip-path="url(#pf02ee1e583)" style="fill: none; stroke: #b0b0b0; stroke-width: 0.8; stroke-linecap: square"/>
     </g>
     <g id="line2d_20">
      <g>
       <use xlink:href="#m08762c2864" x="72" y="341.45671" style="stroke: #000000; stroke-width: 0.8"/>
      </g>
     </g>
     <g id="text_11">
      <!-- 0.1 -->
      <g transform="translate(49.096875 345.255929) scale(0.1 -0.1)">
       <use xlink:href="#DejaVuSans-30"/>
       <use xlink:href="#DejaVuSans-2e" transform="translate(63.623047 0)"/>
       <use xlink:href="#DejaVuSans-31" transform="translate(95.410156 0)"/>
      </g>
     </g>
    </g>
    <g id="ytick_3">
     <g id="line2d_21">
      <path d="M 72 303.337461 
L 518.4 303.337461 
" clip-path="url(#pf02ee1e583)" style="fill: none; stroke: #b0b0b0; stroke-width: 0.8; stroke-linecap: square"/>
     </g>
     <g id="line2d_22">
      <g>
       <use xlink:href="#m08762c2864" x="72" y="303.337461" style="stroke: #000000; stroke-width: 0.8"/>
      </g>
     </g>
     <g id="text_12">
      <!-- 0.2 -->
      <g transform="translate(49.096875 307.13668) scale(0.1 -0.1)">
       <use xlink:href="#DejaVuSans-30"/>
       <use xlink:href="#DejaVuSans-2e" transform="translate(63.623047 0)"/>
       <use xlink:href="#DejaVuSans-32" transform="translate(95.410156 0)"/>
      </g>
     </g>
    </g>
    <g id="ytick_4">
     <g id="line2d_23">
      <path d="M 72 265.218213 
L 518.4 265.218213 
" clip-path="url(#pf02ee1e583)" style="fill: none; stroke: #b0b0b0; stroke-width: 0.8; stroke-linecap: square"/>
     </g>
     <g id="line2d_24">
      <g>
       <use xlink:href="#m08762c2864" x="72" y="265.218213" style="stroke: #000000; stroke-width: 0.8"/>
      </g>
     </g>
     <g id="text_13">
      <!-- 0.3 -->
      <g transform="translate(49.096875 269.017431) scale(0.1 -0.1)">
       <use xlink:href="#DejaVuSans-30"/>
       <use xlink:href="#DejaVuSans-2e" transform="translate(63.623047 0)"/>
       <use xlink:href="#DejaVuSans-33" transform="translate(95.410156 0)"/>
      </g>
     </g>
    </g>
    <g id="ytick_5">
     <g id="line2d_25">
      <path d="M 72 227.098964 
L 518.4 227.098964 
" clip-path="url(#pf02ee1e583)" style="fill: none; stroke: #b0b0b0; stroke-width: 0.8; stroke-linecap: square"/>
     </g>
     <g id="line2d_26">
      <g>
       <use xlink:href="#m08762c2864" x="72" y="227.098964" style="stroke: #000000; stroke-width: 0.8"/>
      </g>
     </g>
     <g id="text_14">
      <!-- 0.4 -->
      <g transform="translate(49.096875 230.898183) scale(0.1 -0.1)">
       <defs>
        <path id="DejaVuSans-34" d="M 2419 4116 
L 825 1625 
L 2419 1625 
L 2419 4116 
z
M 2253 4666 
L 3047 4666 
L 3047 1625 
L 3713 1625 
L 3713 1100 
L 3047 1100 
L 3047 0 
L 2419 0 
L 2419 1100 
L 313 1100 
L 313 1709 
L 2253 4666 
z
" transform="scale(0.015625)"/>
       </defs>
       <use xlink:href="#DejaVuSans-30"/>
       <use xlink:href="#DejaVuSans-2e" transform="translate(63.623047 0)"/>
       <use xlink:href="#DejaVuSans-34" transform="translate(95.410156 0)"/>
      </g>
     </g>
    </g>
    <g id="ytick_6">
     <g id="line2d_27">
      <path d="M 72 188.979715 
L 518.4 188.979715 
" clip-path="url(#pf02ee1e583)" style="fill: none; stroke: #b0b0b0; stroke-width: 0.8; stroke-linecap: square"/>
     </g>
     <g id="line2d_28">
      <g>
       <use xlink:href="#m08762c2864" x="72" y="188.979715" style="stroke: #000000; stroke-width: 0.8"/>
      </g>
     </g>
     <g id="text_15">
      <!-- 0.5 -->
      <g transform="translate(49.096875 192.778934) scale(0.1 -0.1)">
       <use xlink:href="#DejaVuSans-30"/>
       <use xlink:href="#DejaVuSans-2e" transform="translate(63.623047 0)"/>
       <use xlink:href="#DejaVuSans-35" transform="translate(95.410156 0)"/>
      </g>
     </g>
    </g>
    <g id="ytick_7">
     <g id="line2d_29">
      <path d="M 72 150.860466 
L 518.4 150.860466 
" clip-path="url(#pf02ee1e583)" style="fill: none; stroke: #b0b0b0; stroke-width: 0.8; stroke-linecap: square"/>
     </g>
     <g id="line2d_30">
      <g>
       <use xlink:href="#m08762c2864" x="72" y="150.860466" style="stroke: #000000; stroke-width: 0.8"/>
      </g>
     </g>
     <g id="text_16">
      <!-- 0.6 -->
      <g transform="translate(49.096875 154.659685) scale(0.1 -0.1)">
       <defs>
        <path id="DejaVuSans-36" d="M 2113 2584 
Q 1688 2584 1439 2293 
Q 1191 2003 1191 1497 
Q 1191 994 1439 701 
Q 1688 409 2113 409 
Q 2538 409 2786 701 
Q 3034 994 3034 1497 
Q 3034 2003 2786 2293 
Q 2538 2584 2113 2584 
z
M 3366 4563 
L 3366 3988 
Q 3128 4100 2886 4159 
Q 2644 4219 2406 4219 
Q 1781 4219 1451 3797 
Q 1122 3375 1075 2522 
Q 1259 2794 1537 2939 
Q 1816 3084 2150 3084 
Q 2853 3084 3261 2657 
Q 3669 2231 3669 1497 
Q 3669 778 3244 343 
Q 2819 -91 2113 -91 
Q 1303 -91 875 529 
Q 447 1150 447 2328 
Q 447 3434 972 4092 
Q 1497 4750 2381 4750 
Q 2619 4750 2861 4703 
Q 3103 4656 3366 4563 
z
" transform="scale(0.015625)"/>
       </defs>
       <use xlink:href="#DejaVuSans-30"/>
       <use xlink:href="#DejaVuSans-2e" transform="translate(63.623047 0)"/>
       <use xlink:href="#DejaVuSans-36" transform="translate(95.410156 0)"/>
      </g>
     </g>
    </g>
    <g id="ytick_8">
     <g id="line2d_31">
      <path d="M 72 112.741218 
L 518.4 112.741218 
" clip-path="url(#pf02ee1e583)" style="fill: none; stroke: #b0b0b0; stroke-width: 0.8; stroke-linecap: square"/>
     </g>
     <g id="line2d_32">
      <g>
       <use xlink:href="#m08762c2864" x="72" y="112.741218" style="stroke: #000000; stroke-width: 0.8"/>
      </g>
     </g>
     <g id="text_17">
      <!-- 0.7 -->
      <g transform="translate(49.096875 116.540436) scale(0.1 -0.1)">
       <defs>
        <path id="DejaVuSans-37" d="M 525 4666 
L 3525 4666 
L 3525 4397 
L 1831 0 
L 1172 0 
L 2766 4134 
L 525 4134 
L 525 4666 
z
" transform="scale(0.015625)"/>
       </defs>
       <use xlink:href="#DejaVuSans-30"/>
       <use xlink:href="#DejaVuSans-2e" transform="translate(63.623047 0)"/>
       <use xlink:href="#DejaVuSans-37" transform="translate(95.410156 0)"/>
      </g>
     </g>
    </g>
    <g id="ytick_9">
     <g id="line2d_33">
      <path d="M 72 74.621969 
L 518.4 74.621969 
" clip-path="url(#pf02ee1e583)" style="fill: none; stroke: #b0b0b0; stroke-width: 0.8; stroke-linecap: square"/>
     </g>
     <g id="line2d_34">
      <g>
       <use xlink:href="#m08762c2864" x="72" y="74.621969" style="stroke: #000000; stroke-width: 0.8"/>
      </g>
     </g>
     <g id="text_18">
      <!-- 0.8 -->
      <g transform="translate(49.096875 78.421188) scale(0.1 -0.1)">
       <defs>
        <path id="DejaVuSans-38" d="M 2034 2216 
Q 1584 2216 1326 1975 
Q 1069 1734 1069 1313 
Q 1069 891 1326 650 
Q 1584 409 2034 409 
Q 2484 409 2743 651 
Q 3003 894 3003 1313 
Q 3003 1734 2745 1975 
Q 2488 2216 2034 2216 
z
M 1403 2484 
Q 997 2584 770 2862 
Q 544 3141 544 3541 
Q 544 4100 942 4425 
Q 1341 4750 2034 4750 
Q 2731 4750 3128 4425 
Q 3525 4100 3525 3541 
Q 3525 3141 3298 2862 
Q 3072 2584 2669 2484 
Q 3125 2378 3379 2068 
Q 3634 1759 3634 1313 
Q 3634 634 3220 271 
Q 2806 -91 2034 -91 
Q 1263 -91 848 271 
Q 434 634 434 1313 
Q 434 1759 690 2068 
Q 947 2378 1403 2484 
z
M 1172 3481 
Q 1172 3119 1398 2916 
Q 1625 2713 2034 2713 
Q 2441 2713 2670 2916 
Q 2900 3119 2900 3481 
Q 2900 3844 2670 4047 
Q 2441 4250 2034 4250 
Q 1625 4250 1398 4047 
Q 1172 3844 1172 3481 
z
" transform="scale(0.015625)"/>
       </defs>
       <use xlink:href="#DejaVuSans-30"/>
       <use xlink:href="#DejaVuSans-2e" transform="translate(63.623047 0)"/>
       <use xlink:href="#DejaVuSans-38" transform="translate(95.410156 0)"/>
      </g>
     </g>
    </g>
    <g id="text_19">
     <!-- Loss -->
     <g transform="translate(43.017187 229.127187) rotate(-90) scale(0.1 -0.1)">
      <defs>
       <path id="DejaVuSans-4c" d="M 628 4666 
L 1259 4666 
L 1259 531 
L 3531 531 
L 3531 0 
L 628 0 
L 628 4666 
z
" transform="scale(0.015625)"/>
       <path id="DejaVuSans-73" d="M 2834 3397 
L 2834 2853 
Q 2591 2978 2328 3040 
Q 2066 3103 1784 3103 
Q 1356 3103 1142 2972 
Q 928 2841 928 2578 
Q 928 2378 1081 2264 
Q 1234 2150 1697 2047 
L 1894 2003 
Q 2506 1872 2764 1633 
Q 3022 1394 3022 966 
Q 3022 478 2636 193 
Q 2250 -91 1575 -91 
Q 1294 -91 989 -36 
Q 684 19 347 128 
L 347 722 
Q 666 556 975 473 
Q 1284 391 1588 391 
Q 1994 391 2212 530 
Q 2431 669 2431 922 
Q 2431 1156 2273 1281 
Q 2116 1406 1581 1522 
L 1381 1569 
Q 847 1681 609 1914 
Q 372 2147 372 2553 
Q 372 3047 722 3315 
Q 1072 3584 1716 3584 
Q 2034 3584 2315 3537 
Q 2597 3491 2834 3397 
z
" transform="scale(0.015625)"/>
      </defs>
      <use xlink:href="#DejaVuSans-4c"/>
      <use xlink:href="#DejaVuSans-6f" transform="translate(53.962891 0)"/>
      <use xlink:href="#DejaVuSans-73" transform="translate(115.144531 0)"/>
      <use xlink:href="#DejaVuSans-73" transform="translate(167.244141 0)"/>
     </g>
    </g>
   </g>
   <g id="line2d_35">
    <path d="M 92.290909 152.880787 
L 93.440536 183.909855 
L 94.590162 193.668383 
L 95.739789 215.930024 
L 96.889415 213.947823 
L 98.039042 229.271761 
L 99.188669 225.993506 
L 100.338295 245.358084 
L 101.487922 256.641382 
L 102.637548 261.177572 
L 103.787175 261.749361 
L 104.936801 264.532066 
L 106.086428 266.056836 
L 107.236055 268.191514 
L 108.385681 271.9272 
L 109.535308 276.082198 
L 110.684934 284.544672 
L 111.834561 282.60059 
L 112.984187 284.392195 
L 114.133814 289.080862 
L 115.283441 290.605632 
L 116.433067 291.672971 
L 117.582694 291.71109 
L 118.73232 295.675492 
L 119.881947 300.821591 
L 121.031574 298.991867 
L 122.1812 303.642415 
L 123.330827 304.442919 
L 124.480453 304.976589 
L 125.63008 305.891451 
L 126.779706 302.38448 
L 127.929333 310.351403 
L 129.07896 310.00833 
L 130.228586 307.568698 
L 131.378213 313.286585 
L 132.527839 310.885072 
L 133.677466 314.163328 
L 134.827092 314.773236 
L 135.976719 320.071811 
L 137.126346 316.336125 
L 138.275972 315.688098 
L 140.575225 323.502544 
L 141.724852 323.426305 
L 142.874478 323.769379 
L 144.024105 138.319234 
L 145.173732 196.565446 
L 146.323358 195.84118 
L 147.472985 214.557731 
L 148.622611 226.832129 
L 149.772238 227.670753 
L 150.921865 242.575379 
L 152.071491 231.635154 
L 153.221118 242.575379 
L 154.370744 133.744924 
L 155.520371 185.739579 
L 156.669997 199.38627 
L 157.819624 218.903325 
L 158.969251 228.280661 
L 160.118877 239.640197 
L 161.268504 232.511897 
L 162.41813 248.331385 
L 163.567757 259.119133 
L 164.717383 260.491426 
L 165.86701 257.823078 
L 167.016637 257.21317 
L 168.166263 258.623583 
L 169.31589 259.576564 
L 170.465516 271.9272 
L 171.615143 277.950042 
L 172.76477 285.878845 
L 175.064023 282.448113 
L 177.363276 289.500174 
L 178.512902 293.693291 
L 179.662529 289.957605 
L 180.812156 293.922007 
L 181.961782 299.944848 
L 183.111409 282.829305 
L 184.261035 299.86861 
L 185.410662 300.669114 
L 186.560288 302.003288 
L 187.709915 302.38448 
L 188.859542 305.014708 
L 190.009168 299.982967 
L 192.308421 310.694476 
L 193.458048 312.943512 
L 194.607674 308.178606 
L 195.757301 311.380623 
L 196.906928 315.154428 
L 198.056554 310.50388 
L 199.206181 316.412364 
L 200.355807 315.802456 
L 201.505434 316.450483 
L 202.655061 318.051491 
L 203.804687 317.09851 
L 204.954314 321.901535 
L 206.10394 321.444104 
L 207.253567 322.397086 
L 208.403193 323.921856 
L 209.55282 322.587682 
L 210.702447 322.092132 
L 211.852073 324.951075 
L 213.0017 325.332268 
L 214.151326 328.26745 
L 215.300953 322.320847 
L 216.450579 324.989195 
L 217.600206 330.097174 
L 218.749833 328.648642 
L 219.899459 327.581303 
L 221.049086 328.114973 
L 222.198712 331.81254 
L 223.348339 334.633364 
L 224.497965 332.727402 
L 225.647592 334.709603 
L 226.797219 334.023456 
L 227.946845 334.823961 
L 229.096472 331.660063 
L 230.246098 335.205153 
L 231.395725 337.987858 
L 232.545352 338.864601 
L 233.694978 334.252172 
L 234.844605 338.025978 
L 235.994231 338.864601 
L 237.143858 339.017078 
L 238.293484 341.380471 
L 240.592738 338.90272 
L 241.742364 341.876022 
L 242.891991 340.770563 
L 244.041617 343.896342 
L 245.191244 344.125057 
L 246.34087 340.008178 
L 247.490497 340.389371 
L 248.640124 341.037398 
L 249.78975 343.705746 
L 250.939377 347.898863 
L 252.089003 345.039919 
L 253.23863 343.781984 
L 254.388257 347.784505 
L 255.537883 349.347394 
L 256.68751 350.300376 
L 257.837136 349.004321 
L 258.986763 348.203817 
L 260.136389 347.746386 
L 261.286016 349.004321 
L 262.435643 347.174597 
L 263.585269 350.757807 
L 264.734896 350.490972 
L 265.884522 348.775606 
L 267.034149 349.08056 
L 268.183775 350.948403 
L 269.333402 358.457895 
L 270.483029 361.2406 
L 271.632655 361.2406 
L 272.782282 360.935646 
L 273.931908 361.126242 
L 275.081535 362.346058 
L 276.231161 362.727251 
L 277.380788 362.079223 
L 278.530415 362.651012 
L 279.680041 362.689131 
L 280.829668 362.994085 
L 283.128921 362.574774 
L 284.278548 363.489636 
L 285.428174 363.79459 
L 286.577801 361.850508 
L 287.727427 363.032205 
L 288.877054 363.032205 
L 290.02668 364.442617 
L 291.176307 362.917847 
L 292.325934 364.137663 
L 293.47556 363.908947 
L 294.625187 363.489636 
L 296.92444 363.832709 
L 299.223693 363.108443 
L 300.37332 363.680232 
L 301.522946 363.070324 
L 302.672573 363.985186 
L 303.822199 363.832709 
L 304.971826 365.014406 
L 306.121452 364.671332 
L 307.271079 364.671332 
L 308.420706 363.451516 
L 309.570332 363.908947 
L 310.719959 364.518855 
L 311.869585 363.527755 
L 313.019212 364.404498 
L 314.168839 364.976286 
L 315.318465 364.442617 
L 316.468092 364.823809 
L 317.617718 364.747571 
L 318.767345 365.395598 
L 319.916971 364.671332 
L 321.066598 365.166883 
L 322.216225 364.823809 
L 323.365851 364.976286 
L 324.515478 364.633213 
L 325.665104 363.718351 
L 327.964357 364.442617 
L 329.113984 364.747571 
L 330.263611 364.900048 
L 331.413237 363.79459 
L 332.562864 364.366378 
L 333.71249 365.28124 
L 334.862117 364.328259 
L 336.011743 365.853029 
L 337.16137 365.738671 
L 338.310997 365.205002 
L 339.460623 366.119864 
L 340.61025 366.501056 
L 341.759876 365.052525 
L 342.909503 365.014406 
L 344.05913 365.548075 
L 345.208756 364.29014 
L 346.358383 364.595094 
L 347.508009 365.128763 
L 348.657636 366.005506 
L 349.807262 366.386699 
L 350.956889 365.548075 
L 352.106516 366.005506 
L 354.405769 365.357479 
L 356.705022 366.348579 
L 357.854648 365.662433 
L 359.004275 366.119864 
L 361.303528 366.043625 
L 362.453155 366.958487 
L 363.602781 365.548075 
L 364.752408 365.166883 
L 365.902035 365.433717 
L 367.051661 366.043625 
L 368.201288 366.462937 
L 369.350914 367.454038 
L 370.500541 366.462937 
L 371.650167 365.662433 
L 372.799794 367.225322 
L 373.949421 366.157983 
L 375.099047 366.462937 
L 376.248674 365.471837 
L 377.3983 366.577295 
L 378.547927 366.348579 
L 379.697553 366.767891 
L 380.84718 366.005506 
L 381.996807 365.738671 
L 383.146433 366.577295 
L 384.29606 366.729772 
L 385.445686 366.653533 
L 386.595313 366.882249 
L 387.744939 365.891148 
L 388.894566 366.920368 
L 390.044193 366.501056 
L 391.193819 367.33968 
L 392.343446 366.729772 
L 393.493072 367.568395 
L 394.642699 366.577295 
L 395.792326 367.149084 
L 396.941952 367.33968 
L 398.091579 366.996607 
L 399.241205 367.33968 
L 400.390832 367.873349 
L 401.540458 367.225322 
L 402.690085 367.034726 
L 403.839712 366.31046 
L 404.989338 366.348579 
L 406.138965 367.187203 
L 407.288591 367.110964 
L 408.438218 368.102065 
L 409.587844 366.958487 
L 410.737471 366.882249 
L 411.887098 366.501056 
L 413.036724 366.539176 
L 414.186351 367.187203 
L 416.485604 367.530276 
L 417.63523 366.196102 
L 418.784857 367.149084 
L 419.934484 367.606515 
L 421.08411 367.034726 
L 422.233737 367.949588 
L 423.383363 367.187203 
L 424.53299 367.606515 
L 425.682617 368.178303 
L 427.98187 366.234222 
L 429.131496 368.178303 
L 430.281123 368.292661 
L 431.430749 366.539176 
L 432.580376 366.84413 
L 433.730003 366.84413 
L 434.879629 367.83523 
L 436.029256 367.949588 
L 437.178882 367.720872 
L 438.328509 367.911469 
L 439.478135 367.415918 
L 440.627762 368.254542 
L 441.777389 367.606515 
L 444.076642 368.025826 
L 445.226268 368.025826 
L 446.375895 366.84413 
L 447.525522 367.492157 
L 448.675148 367.987707 
L 449.824775 367.568395 
L 450.974401 367.720872 
L 452.124028 366.767891 
L 453.273654 368.940688 
L 454.423281 368.826331 
L 455.572908 366.691653 
L 456.722534 368.559496 
L 457.872161 367.301561 
L 459.021787 368.635734 
L 460.171414 368.33078 
L 461.32104 368.902569 
L 462.470667 368.407019 
L 463.620294 367.682753 
L 464.76992 368.140184 
L 465.919547 367.568395 
L 468.2188 368.3689 
L 469.368426 368.102065 
L 470.518053 369.131285 
L 471.66768 368.788211 
L 472.817306 367.873349 
L 473.966933 368.102065 
L 475.116559 368.102065 
L 476.266186 367.187203 
L 477.415813 368.483257 
L 478.565439 368.597615 
L 479.715066 368.826331 
L 480.864692 368.750092 
L 483.163945 368.102065 
L 484.313572 369.36 
L 485.463199 368.635734 
L 486.612825 367.530276 
L 487.762452 368.3689 
L 488.912078 368.788211 
L 490.061705 368.216423 
L 492.360958 369.36 
L 493.510585 368.635734 
L 494.660211 368.902569 
L 495.809838 368.407019 
L 496.959464 368.254542 
L 498.109091 368.597615 
L 498.109091 368.597615 
" clip-path="url(#pf02ee1e583)" style="fill: none; stroke: #1f77b4; stroke-width: 1.5; stroke-linecap: square"/>
   </g>
   <g id="line2d_36">
    <path d="M 92.290909 181.508342 
L 93.440536 146.514872 
L 95.739789 211.851264 
L 96.889415 217.912225 
L 98.039042 251.037852 
L 99.188669 237.96295 
L 100.338295 183.757378 
L 101.487922 271.736604 
L 102.637548 177.734537 
L 103.787175 242.689737 
L 104.936801 267.086056 
L 106.086428 222.486535 
L 107.236055 279.131738 
L 108.385681 273.299493 
L 109.535308 286.336276 
L 110.684934 263.502846 
L 111.834561 261.330049 
L 112.984187 287.327377 
L 114.133814 286.069442 
L 115.283441 292.892787 
L 116.433067 258.128032 
L 117.582694 277.835684 
L 118.73232 66.96 
L 119.881947 268.839541 
L 121.031574 276.196556 
L 122.1812 254.049273 
L 123.330827 290.262559 
L 124.480453 269.258853 
L 125.63008 260.79638 
L 126.779706 299.449298 
L 127.929333 302.041407 
L 129.07896 233.960429 
L 130.228586 151.813448 
L 131.378213 280.122839 
L 132.527839 299.068105 
L 133.677466 269.830642 
L 134.827092 309.893972 
L 135.976719 285.802607 
L 137.126346 278.979261 
L 138.275972 280.008481 
L 139.425599 300.135444 
L 140.575225 305.586497 
L 141.724852 247.912074 
L 142.874478 293.845768 
L 144.024105 202.93136 
L 145.173732 236.743134 
L 146.323358 235.180245 
L 147.472985 173.884493 
L 148.622611 175.866694 
L 149.772238 193.28719 
L 150.921865 214.1003 
L 152.071491 214.443373 
L 153.221118 193.515906 
L 154.370744 202.245214 
L 155.520371 173.732016 
L 156.669997 191.000035 
L 157.819624 188.674761 
L 158.969251 242.689737 
L 160.118877 227.28956 
L 161.268504 250.885375 
L 162.41813 252.867576 
L 163.567757 86.210221 
L 164.717383 261.939957 
L 165.86701 249.284367 
L 167.016637 187.302468 
L 168.166263 248.178908 
L 169.31589 253.17253 
L 170.465516 236.361941 
L 171.615143 99.93315 
L 172.76477 285.345176 
L 173.914396 279.627289 
L 175.064023 257.060693 
L 176.213649 280.389674 
L 177.363276 196.031776 
L 178.512902 213.60475 
L 180.812156 296.552235 
L 181.961782 210.440852 
L 183.111409 298.115124 
L 184.261035 271.317292 
L 185.410662 262.740461 
L 186.560288 269.563807 
L 187.709915 303.604296 
L 188.859542 291.253659 
L 190.009168 274.48119 
L 191.158795 280.618389 
L 192.308421 285.535772 
L 193.458048 263.350369 
L 194.607674 251.228448 
L 195.757301 295.78985 
L 196.906928 307.721175 
L 198.056554 302.308242 
L 199.206181 299.182463 
L 200.355807 268.91578 
L 201.505434 301.202783 
L 202.655061 228.699972 
L 203.804687 305.129066 
L 204.954314 298.153243 
L 206.10394 270.745504 
L 207.253567 301.012187 
L 208.403193 315.878694 
L 209.55282 310.122688 
L 210.702447 308.331083 
L 211.852073 308.97911 
L 213.0017 269.944999 
L 214.151326 270.707384 
L 215.300953 309.131587 
L 216.450579 304.633516 
L 217.600206 305.510258 
L 218.749833 301.736453 
L 219.899459 292.587833 
L 221.049086 301.088426 
L 222.198712 308.674156 
L 223.348339 304.252323 
L 224.497965 298.038886 
L 225.647592 301.583976 
L 226.797219 304.290442 
L 227.946845 302.38448 
L 229.096472 306.120166 
L 230.246098 298.30572 
L 231.395725 311.456861 
L 232.545352 312.219246 
L 233.694978 304.328562 
L 234.844605 290.948705 
L 235.994231 307.111267 
L 237.143858 307.187505 
L 238.293484 306.95879 
L 239.443111 304.824112 
L 240.592738 272.880182 
L 241.742364 115.866996 
L 242.891991 276.272795 
L 244.041617 249.09377 
L 245.191244 309.741495 
L 246.34087 267.124175 
L 247.490497 283.09614 
L 248.640124 311.952411 
L 249.78975 314.125209 
L 250.939377 289.576412 
L 252.089003 308.140487 
L 253.23863 293.27398 
L 254.388257 265.637524 
L 255.537883 313.05787 
L 256.68751 305.167185 
L 257.837136 314.087089 
L 258.986763 287.327377 
L 260.136389 304.862231 
L 261.286016 297.276501 
L 262.435643 301.736453 
L 263.585269 294.646273 
L 264.734896 306.196405 
L 265.884522 290.071963 
L 267.034149 292.397237 
L 268.183775 315.383144 
L 269.333402 322.70204 
L 270.483029 322.015893 
L 271.632655 320.491123 
L 272.782282 321.710939 
L 273.931908 320.796077 
L 275.081535 322.130251 
L 276.231161 320.453004 
L 277.380788 319.309426 
L 278.530415 320.414885 
L 280.829668 319.233188 
L 281.979294 320.834196 
L 283.128921 318.661399 
L 284.278548 318.508922 
L 285.428174 320.948554 
L 286.577801 319.690619 
L 287.727427 320.529242 
L 288.877054 320.14805 
L 291.176307 319.690619 
L 292.325934 319.957454 
L 293.47556 318.813876 
L 294.625187 319.385665 
L 295.774813 319.309426 
L 298.074066 319.995573 
L 299.223693 319.195069 
L 300.37332 319.423784 
L 301.522946 320.300527 
L 302.672573 318.051491 
L 303.822199 319.423784 
L 304.971826 318.890115 
L 306.121452 317.479703 
L 307.271079 318.547041 
L 308.420706 317.63218 
L 309.570332 318.813876 
L 310.719959 316.793556 
L 311.869585 318.851995 
L 313.019212 318.318326 
L 314.168839 318.585161 
L 315.318465 317.899014 
L 316.468092 319.385665 
L 317.617718 317.09851 
L 318.767345 318.12773 
L 319.916971 318.165849 
L 322.216225 317.708418 
L 323.365851 317.174749 
L 324.515478 316.946033 
L 325.665104 317.746537 
L 326.814731 318.775757 
L 329.113984 318.013372 
L 330.263611 315.764336 
L 331.413237 317.250987 
L 332.562864 313.667778 
L 333.71249 317.060391 
L 334.862117 317.784656 
L 336.011743 317.555941 
L 337.16137 317.441583 
L 338.310997 317.555941 
L 339.460623 316.946033 
L 341.759876 316.831675 
L 342.909503 318.394564 
L 344.05913 317.250987 
L 345.208756 314.811355 
L 346.358383 317.327226 
L 347.508009 317.09851 
L 348.657636 316.755437 
L 349.807262 317.517822 
L 350.956889 317.479703 
L 352.106516 317.09851 
L 353.256142 317.289106 
L 354.405769 316.60296 
L 355.555395 316.450483 
L 356.705022 317.022272 
L 357.854648 315.306905 
L 359.004275 316.717318 
L 360.153902 316.793556 
L 361.303528 315.688098 
L 362.453155 317.212868 
L 363.602781 314.963832 
L 364.752408 316.06929 
L 365.902035 314.087089 
L 367.051661 315.954933 
L 368.201288 316.450483 
L 369.350914 316.145529 
L 370.500541 316.221767 
L 371.650167 315.154428 
L 372.799794 315.726217 
L 373.949421 313.858374 
L 375.099047 315.192548 
L 376.248674 315.688098 
L 378.547927 314.735117 
L 379.697553 315.840575 
L 380.84718 315.726217 
L 381.996807 315.497502 
L 383.146433 313.896493 
L 384.29606 315.192548 
L 385.445686 315.07819 
L 386.595313 312.905393 
L 387.744939 315.535621 
L 390.044193 314.925713 
L 391.193819 314.849474 
L 392.343446 314.277686 
L 393.493072 313.55342 
L 394.642699 313.286585 
L 395.792326 314.392043 
L 396.941952 313.629658 
L 398.091579 312.295485 
L 399.241205 314.087089 
L 400.390832 312.752916 
L 401.540458 314.735117 
L 402.690085 312.562319 
L 403.839712 313.515301 
L 404.989338 314.201447 
L 407.288591 312.600439 
L 408.438218 311.914292 
L 409.587844 312.600439 
L 410.737471 313.972732 
L 411.887098 313.400943 
L 413.036724 313.286585 
L 414.186351 313.705897 
L 415.335977 313.667778 
L 416.485604 313.05787 
L 417.63523 315.040071 
L 418.784857 313.744016 
L 419.934484 311.685577 
L 421.08411 312.676677 
L 422.233737 314.658878 
L 423.383363 313.972732 
L 424.53299 312.714796 
L 425.682617 312.676677 
L 426.832243 312.5242 
L 427.98187 312.562319 
L 429.131496 314.239566 
L 430.281123 314.239566 
L 431.430749 313.705897 
L 432.580376 310.465761 
L 433.730003 314.163328 
L 434.879629 312.981631 
L 436.029256 310.885072 
L 437.178882 313.095989 
L 438.328509 311.113788 
L 439.478135 312.638558 
L 440.627762 313.134108 
L 441.777389 313.858374 
L 442.927015 311.685577 
L 444.076642 312.829154 
L 445.226268 312.5242 
L 446.375895 312.486081 
L 447.525522 313.210347 
L 448.675148 312.02865 
L 449.824775 313.515301 
L 450.974401 313.01975 
L 452.124028 312.104888 
L 453.273654 312.981631 
L 454.423281 311.228146 
L 455.572908 310.351403 
L 456.722534 312.638558 
L 457.872161 309.093468 
L 459.021787 312.181127 
L 460.171414 311.723696 
L 461.32104 311.761815 
L 462.470667 310.732595 
L 463.620294 311.838054 
L 464.76992 309.055349 
L 467.069173 312.333604 
L 468.2188 312.638558 
L 469.368426 311.151907 
L 470.518053 313.172227 
L 471.66768 312.943512 
L 472.817306 314.392043 
L 473.966933 311.990531 
L 475.116559 312.02865 
L 476.266186 312.714796 
L 477.415813 309.703376 
L 478.565439 311.723696 
L 479.715066 312.143008 
L 480.864692 312.371723 
L 482.014319 311.5331 
L 483.163945 308.597918 
L 484.313572 310.122688 
L 485.463199 312.562319 
L 486.612825 311.037549 
L 487.762452 312.219246 
L 488.912078 311.723696 
L 490.061705 309.245945 
L 491.211331 311.075669 
L 493.510585 309.017229 
L 494.660211 309.589018 
L 495.809838 311.037549 
L 496.959464 311.952411 
L 498.109091 311.609338 
L 498.109091 311.609338 
" clip-path="url(#pf02ee1e583)" style="fill: none; stroke: #ff7f0e; stroke-width: 1.5; stroke-linecap: square"/>
   </g>
   <g id="LineCollection_1">
    <path d="M 92.290909 294.684392 
L 498.109091 294.684392 
" clip-path="url(#pf02ee1e583)" style="fill: none; stroke-dasharray: 1.5,2.475; stroke-dashoffset: 0; stroke: #1f77b4; stroke-width: 1.5"/>
   </g>
   <g id="patch_3">
    <path d="M 72 384.48 
L 72 51.84 
" style="fill: none; stroke: #000000; stroke-width: 0.8; stroke-linejoin: miter; stroke-linecap: square"/>
   </g>
   <g id="patch_4">
    <path d="M 518.4 384.48 
L 518.4 51.84 
" style="fill: none; stroke: #000000; stroke-width: 0.8; stroke-linejoin: miter; stroke-linecap: square"/>
   </g>
   <g id="patch_5">
    <path d="M 72 384.48 
L 518.4 384.48 
" style="fill: none; stroke: #000000; stroke-width: 0.8; stroke-linejoin: miter; stroke-linecap: square"/>
   </g>
   <g id="patch_6">
    <path d="M 72 51.84 
L 518.4 51.84 
" style="fill: none; stroke: #000000; stroke-width: 0.8; stroke-linejoin: miter; stroke-linecap: square"/>
   </g>
   <g id="text_20">
    <!-- Training vs Validation Loss (running avg) -->
    <g transform="translate(173.656875 45.84) scale(0.12 -0.12)">
     <defs>
      <path id="DejaVuSans-54" d="M -19 4666 
L 3928 4666 
L 3928 4134 
L 2272 4134 
L 2272 0 
L 1638 0 
L 1638 4134 
L -19 4134 
L -19 4666 
z
" transform="scale(0.015625)"/>
      <path id="DejaVuSans-72" d="M 2631 2963 
Q 2534 3019 2420 3045 
Q 2306 3072 2169 3072 
Q 1681 3072 1420 2755 
Q 1159 2438 1159 1844 
L 1159 0 
L 581 0 
L 581 3500 
L 1159 3500 
L 1159 2956 
Q 1341 3275 1631 3429 
Q 1922 3584 2338 3584 
Q 2397 3584 2469 3576 
Q 2541 3569 2628 3553 
L 2631 2963 
z
" transform="scale(0.015625)"/>
      <path id="DejaVuSans-61" d="M 2194 1759 
Q 1497 1759 1228 1600 
Q 959 1441 959 1056 
Q 959 750 1161 570 
Q 1363 391 1709 391 
Q 2188 391 2477 730 
Q 2766 1069 2766 1631 
L 2766 1759 
L 2194 1759 
z
M 3341 1997 
L 3341 0 
L 2766 0 
L 2766 531 
Q 2569 213 2275 61 
Q 1981 -91 1556 -91 
Q 1019 -91 701 211 
Q 384 513 384 1019 
Q 384 1609 779 1909 
Q 1175 2209 1959 2209 
L 2766 2209 
L 2766 2266 
Q 2766 2663 2505 2880 
Q 2244 3097 1772 3097 
Q 1472 3097 1187 3025 
Q 903 2953 641 2809 
L 641 3341 
Q 956 3463 1253 3523 
Q 1550 3584 1831 3584 
Q 2591 3584 2966 3190 
Q 3341 2797 3341 1997 
z
" transform="scale(0.015625)"/>
      <path id="DejaVuSans-69" d="M 603 3500 
L 1178 3500 
L 1178 0 
L 603 0 
L 603 3500 
z
M 603 4863 
L 1178 4863 
L 1178 4134 
L 603 4134 
L 603 4863 
z
" transform="scale(0.015625)"/>
      <path id="DejaVuSans-6e" d="M 3513 2113 
L 3513 0 
L 2938 0 
L 2938 2094 
Q 2938 2591 2744 2837 
Q 2550 3084 2163 3084 
Q 1697 3084 1428 2787 
Q 1159 2491 1159 1978 
L 1159 0 
L 581 0 
L 581 3500 
L 1159 3500 
L 1159 2956 
Q 1366 3272 1645 3428 
Q 1925 3584 2291 3584 
Q 2894 3584 3203 3211 
Q 3513 2838 3513 2113 
z
" transform="scale(0.015625)"/>
      <path id="DejaVuSans-67" d="M 2906 1791 
Q 2906 2416 2648 2759 
Q 2391 3103 1925 3103 
Q 1463 3103 1205 2759 
Q 947 2416 947 1791 
Q 947 1169 1205 825 
Q 1463 481 1925 481 
Q 2391 481 2648 825 
Q 2906 1169 2906 1791 
z
M 3481 434 
Q 3481 -459 3084 -895 
Q 2688 -1331 1869 -1331 
Q 1566 -1331 1297 -1286 
Q 1028 -1241 775 -1147 
L 775 -588 
Q 1028 -725 1275 -790 
Q 1522 -856 1778 -856 
Q 2344 -856 2625 -561 
Q 2906 -266 2906 331 
L 2906 616 
Q 2728 306 2450 153 
Q 2172 0 1784 0 
Q 1141 0 747 490 
Q 353 981 353 1791 
Q 353 2603 747 3093 
Q 1141 3584 1784 3584 
Q 2172 3584 2450 3431 
Q 2728 3278 2906 2969 
L 2906 3500 
L 3481 3500 
L 3481 434 
z
" transform="scale(0.015625)"/>
      <path id="DejaVuSans-20" transform="scale(0.015625)"/>
      <path id="DejaVuSans-76" d="M 191 3500 
L 800 3500 
L 1894 563 
L 2988 3500 
L 3597 3500 
L 2284 0 
L 1503 0 
L 191 3500 
z
" transform="scale(0.015625)"/>
      <path id="DejaVuSans-56" d="M 1831 0 
L 50 4666 
L 709 4666 
L 2188 738 
L 3669 4666 
L 4325 4666 
L 2547 0 
L 1831 0 
z
" transform="scale(0.015625)"/>
      <path id="DejaVuSans-6c" d="M 603 4863 
L 1178 4863 
L 1178 0 
L 603 0 
L 603 4863 
z
" transform="scale(0.015625)"/>
      <path id="DejaVuSans-64" d="M 2906 2969 
L 2906 4863 
L 3481 4863 
L 3481 0 
L 2906 0 
L 2906 525 
Q 2725 213 2448 61 
Q 2172 -91 1784 -91 
Q 1150 -91 751 415 
Q 353 922 353 1747 
Q 353 2572 751 3078 
Q 1150 3584 1784 3584 
Q 2172 3584 2448 3432 
Q 2725 3281 2906 2969 
z
M 947 1747 
Q 947 1113 1208 752 
Q 1469 391 1925 391 
Q 2381 391 2643 752 
Q 2906 1113 2906 1747 
Q 2906 2381 2643 2742 
Q 2381 3103 1925 3103 
Q 1469 3103 1208 2742 
Q 947 2381 947 1747 
z
" transform="scale(0.015625)"/>
      <path id="DejaVuSans-74" d="M 1172 4494 
L 1172 3500 
L 2356 3500 
L 2356 3053 
L 1172 3053 
L 1172 1153 
Q 1172 725 1289 603 
Q 1406 481 1766 481 
L 2356 481 
L 2356 0 
L 1766 0 
Q 1100 0 847 248 
Q 594 497 594 1153 
L 594 3053 
L 172 3053 
L 172 3500 
L 594 3500 
L 594 4494 
L 1172 4494 
z
" transform="scale(0.015625)"/>
      <path id="DejaVuSans-28" d="M 1984 4856 
Q 1566 4138 1362 3434 
Q 1159 2731 1159 2009 
Q 1159 1288 1364 580 
Q 1569 -128 1984 -844 
L 1484 -844 
Q 1016 -109 783 600 
Q 550 1309 550 2009 
Q 550 2706 781 3412 
Q 1013 4119 1484 4856 
L 1984 4856 
z
" transform="scale(0.015625)"/>
      <path id="DejaVuSans-75" d="M 544 1381 
L 544 3500 
L 1119 3500 
L 1119 1403 
Q 1119 906 1312 657 
Q 1506 409 1894 409 
Q 2359 409 2629 706 
Q 2900 1003 2900 1516 
L 2900 3500 
L 3475 3500 
L 3475 0 
L 2900 0 
L 2900 538 
Q 2691 219 2414 64 
Q 2138 -91 1772 -91 
Q 1169 -91 856 284 
Q 544 659 544 1381 
z
M 1991 3584 
L 1991 3584 
z
" transform="scale(0.015625)"/>
      <path id="DejaVuSans-29" d="M 513 4856 
L 1013 4856 
Q 1481 4119 1714 3412 
Q 1947 2706 1947 2009 
Q 1947 1309 1714 600 
Q 1481 -109 1013 -844 
L 513 -844 
Q 928 -128 1133 580 
Q 1338 1288 1338 2009 
Q 1338 2731 1133 3434 
Q 928 4138 513 4856 
z
" transform="scale(0.015625)"/>
     </defs>
     <use xlink:href="#DejaVuSans-54"/>
     <use xlink:href="#DejaVuSans-72" transform="translate(46.333984 0)"/>
     <use xlink:href="#DejaVuSans-61" transform="translate(87.447266 0)"/>
     <use xlink:href="#DejaVuSans-69" transform="translate(148.726562 0)"/>
     <use xlink:href="#DejaVuSans-6e" transform="translate(176.509766 0)"/>
     <use xlink:href="#DejaVuSans-69" transform="translate(239.888672 0)"/>
     <use xlink:href="#DejaVuSans-6e" transform="translate(267.671875 0)"/>
     <use xlink:href="#DejaVuSans-67" transform="translate(331.050781 0)"/>
     <use xlink:href="#DejaVuSans-20" transform="translate(394.527344 0)"/>
     <use xlink:href="#DejaVuSans-76" transform="translate(426.314453 0)"/>
     <use xlink:href="#DejaVuSans-73" transform="translate(485.494141 0)"/>
     <use xlink:href="#DejaVuSans-20" transform="translate(537.59375 0)"/>
     <use xlink:href="#DejaVuSans-56" transform="translate(569.380859 0)"/>
     <use xlink:href="#DejaVuSans-61" transform="translate(630.039062 0)"/>
     <use xlink:href="#DejaVuSans-6c" transform="translate(691.318359 0)"/>
     <use xlink:href="#DejaVuSans-69" transform="translate(719.101562 0)"/>
     <use xlink:href="#DejaVuSans-64" transform="translate(746.884766 0)"/>
     <use xlink:href="#DejaVuSans-61" transform="translate(810.361328 0)"/>
     <use xlink:href="#DejaVuSans-74" transform="translate(871.640625 0)"/>
     <use xlink:href="#DejaVuSans-69" transform="translate(910.849609 0)"/>
     <use xlink:href="#DejaVuSans-6f" transform="translate(938.632812 0)"/>
     <use xlink:href="#DejaVuSans-6e" transform="translate(999.814453 0)"/>
     <use xlink:href="#DejaVuSans-20" transform="translate(1063.193359 0)"/>
     <use xlink:href="#DejaVuSans-4c" transform="translate(1094.980469 0)"/>
     <use xlink:href="#DejaVuSans-6f" transform="translate(1148.943359 0)"/>
     <use xlink:href="#DejaVuSans-73" transform="translate(1210.125 0)"/>
     <use xlink:href="#DejaVuSans-73" transform="translate(1262.224609 0)"/>
     <use xlink:href="#DejaVuSans-20" transform="translate(1314.324219 0)"/>
     <use xlink:href="#DejaVuSans-28" transform="translate(1346.111328 0)"/>
     <use xlink:href="#DejaVuSans-72" transform="translate(1385.125 0)"/>
     <use xlink:href="#DejaVuSans-75" transform="translate(1426.238281 0)"/>
     <use xlink:href="#DejaVuSans-6e" transform="translate(1489.617188 0)"/>
     <use xlink:href="#DejaVuSans-6e" transform="translate(1552.996094 0)"/>
     <use xlink:href="#DejaVuSans-69" transform="translate(1616.375 0)"/>
     <use xlink:href="#DejaVuSans-6e" transform="translate(1644.158203 0)"/>
     <use xlink:href="#DejaVuSans-67" transform="translate(1707.537109 0)"/>
     <use xlink:href="#DejaVuSans-20" transform="translate(1771.013672 0)"/>
     <use xlink:href="#DejaVuSans-61" transform="translate(1802.800781 0)"/>
     <use xlink:href="#DejaVuSans-76" transform="translate(1864.080078 0)"/>
     <use xlink:href="#DejaVuSans-67" transform="translate(1923.259766 0)"/>
     <use xlink:href="#DejaVuSans-29" transform="translate(1986.736328 0)"/>
    </g>
   </g>
   <g id="legend_1">
    <g id="patch_7">
     <path d="M 349.057812 103.874375 
L 511.4 103.874375 
Q 513.4 103.874375 513.4 101.874375 
L 513.4 58.84 
Q 513.4 56.84 511.4 56.84 
L 349.057812 56.84 
Q 347.057812 56.84 347.057812 58.84 
L 347.057812 101.874375 
Q 347.057812 103.874375 349.057812 103.874375 
z
" style="fill: #ffffff; opacity: 0.8; stroke: #cccccc; stroke-linejoin: miter"/>
    </g>
    <g id="line2d_37">
     <path d="M 351.057812 64.938437 
L 361.057812 64.938437 
L 371.057812 64.938437 
" style="fill: none; stroke: #1f77b4; stroke-width: 1.5; stroke-linecap: square"/>
    </g>
    <g id="text_21">
     <!-- Train -->
     <g transform="translate(379.057812 68.438437) scale(0.1 -0.1)">
      <use xlink:href="#DejaVuSans-54"/>
      <use xlink:href="#DejaVuSans-72" transform="translate(46.333984 0)"/>
      <use xlink:href="#DejaVuSans-61" transform="translate(87.447266 0)"/>
      <use xlink:href="#DejaVuSans-69" transform="translate(148.726562 0)"/>
      <use xlink:href="#DejaVuSans-6e" transform="translate(176.509766 0)"/>
     </g>
    </g>
    <g id="line2d_38">
     <path d="M 351.057812 79.616562 
L 361.057812 79.616562 
L 371.057812 79.616562 
" style="fill: none; stroke: #ff7f0e; stroke-width: 1.5; stroke-linecap: square"/>
    </g>
    <g id="text_22">
     <!-- Validation -->
     <g transform="translate(379.057812 83.116562) scale(0.1 -0.1)">
      <use xlink:href="#DejaVuSans-56"/>
      <use xlink:href="#DejaVuSans-61" transform="translate(60.658203 0)"/>
      <use xlink:href="#DejaVuSans-6c" transform="translate(121.9375 0)"/>
      <use xlink:href="#DejaVuSans-69" transform="translate(149.720703 0)"/>
      <use xlink:href="#DejaVuSans-64" transform="translate(177.503906 0)"/>
      <use xlink:href="#DejaVuSans-61" transform="translate(240.980469 0)"/>
      <use xlink:href="#DejaVuSans-74" transform="translate(302.259766 0)"/>
      <use xlink:href="#DejaVuSans-69" transform="translate(341.46875 0)"/>
      <use xlink:href="#DejaVuSans-6f" transform="translate(369.251953 0)"/>
      <use xlink:href="#DejaVuSans-6e" transform="translate(430.433594 0)"/>
     </g>
    </g>
    <g id="line2d_39">
     <path d="M 351.057812 94.294687 
L 371.057812 94.294687 
" style="fill: none; stroke-dasharray: 1.5,2.475; stroke-dashoffset: 0; stroke: #1f77b4; stroke-width: 1.5"/>
    </g>
    <g id="text_23">
     <!-- Test summary Loss: 0.223 -->
     <g transform="translate(379.057812 97.794687) scale(0.1 -0.1)">
      <defs>
       <path id="DejaVuSans-65" d="M 3597 1894 
L 3597 1613 
L 953 1613 
Q 991 1019 1311 708 
Q 1631 397 2203 397 
Q 2534 397 2845 478 
Q 3156 559 3463 722 
L 3463 178 
Q 3153 47 2828 -22 
Q 2503 -91 2169 -91 
Q 1331 -91 842 396 
Q 353 884 353 1716 
Q 353 2575 817 3079 
Q 1281 3584 2069 3584 
Q 2775 3584 3186 3129 
Q 3597 2675 3597 1894 
z
M 3022 2063 
Q 3016 2534 2758 2815 
Q 2500 3097 2075 3097 
Q 1594 3097 1305 2825 
Q 1016 2553 972 2059 
L 3022 2063 
z
" transform="scale(0.015625)"/>
       <path id="DejaVuSans-6d" d="M 3328 2828 
Q 3544 3216 3844 3400 
Q 4144 3584 4550 3584 
Q 5097 3584 5394 3201 
Q 5691 2819 5691 2113 
L 5691 0 
L 5113 0 
L 5113 2094 
Q 5113 2597 4934 2840 
Q 4756 3084 4391 3084 
Q 3944 3084 3684 2787 
Q 3425 2491 3425 1978 
L 3425 0 
L 2847 0 
L 2847 2094 
Q 2847 2600 2669 2842 
Q 2491 3084 2119 3084 
Q 1678 3084 1418 2786 
Q 1159 2488 1159 1978 
L 1159 0 
L 581 0 
L 581 3500 
L 1159 3500 
L 1159 2956 
Q 1356 3278 1631 3431 
Q 1906 3584 2284 3584 
Q 2666 3584 2933 3390 
Q 3200 3197 3328 2828 
z
" transform="scale(0.015625)"/>
       <path id="DejaVuSans-79" d="M 2059 -325 
Q 1816 -950 1584 -1140 
Q 1353 -1331 966 -1331 
L 506 -1331 
L 506 -850 
L 844 -850 
Q 1081 -850 1212 -737 
Q 1344 -625 1503 -206 
L 1606 56 
L 191 3500 
L 800 3500 
L 1894 763 
L 2988 3500 
L 3597 3500 
L 2059 -325 
z
" transform="scale(0.015625)"/>
       <path id="DejaVuSans-3a" d="M 750 794 
L 1409 794 
L 1409 0 
L 750 0 
L 750 794 
z
M 750 3309 
L 1409 3309 
L 1409 2516 
L 750 2516 
L 750 3309 
z
" transform="scale(0.015625)"/>
      </defs>
      <use xlink:href="#DejaVuSans-54"/>
      <use xlink:href="#DejaVuSans-65" transform="translate(44.083984 0)"/>
      <use xlink:href="#DejaVuSans-73" transform="translate(105.607422 0)"/>
      <use xlink:href="#DejaVuSans-74" transform="translate(157.707031 0)"/>
      <use xlink:href="#DejaVuSans-20" transform="translate(196.916016 0)"/>
      <use xlink:href="#DejaVuSans-73" transform="translate(228.703125 0)"/>
      <use xlink:href="#DejaVuSans-75" transform="translate(280.802734 0)"/>
      <use xlink:href="#DejaVuSans-6d" transform="translate(344.181641 0)"/>
      <use xlink:href="#DejaVuSans-6d" transform="translate(441.59375 0)"/>
      <use xlink:href="#DejaVuSans-61" transform="translate(539.005859 0)"/>
      <use xlink:href="#DejaVuSans-72" transform="translate(600.285156 0)"/>
      <use xlink:href="#DejaVuSans-79" transform="translate(641.398438 0)"/>
      <use xlink:href="#DejaVuSans-20" transform="translate(700.578125 0)"/>
      <use xlink:href="#DejaVuSans-4c" transform="translate(732.365234 0)"/>
      <use xlink:href="#DejaVuSans-6f" transform="translate(786.328125 0)"/>
      <use xlink:href="#DejaVuSans-73" transform="translate(847.509766 0)"/>
      <use xlink:href="#DejaVuSans-73" transform="translate(899.609375 0)"/>
      <use xlink:href="#DejaVuSans-3a" transform="translate(951.708984 0)"/>
      <use xlink:href="#DejaVuSans-20" transform="translate(985.400391 0)"/>
      <use xlink:href="#DejaVuSans-30" transform="translate(1017.1875 0)"/>
      <use xlink:href="#DejaVuSans-2e" transform="translate(1080.810547 0)"/>
      <use xlink:href="#DejaVuSans-32" transform="translate(1112.597656 0)"/>
      <use xlink:href="#DejaVuSans-32" transform="translate(1176.220703 0)"/>
      <use xlink:href="#DejaVuSans-33" transform="translate(1239.84375 0)"/>
     </g>
    </g>
   </g>
  </g>
 </g>
 <defs>
  <clipPath id="pf02ee1e583">
   <rect x="72" y="51.84" width="446.4" height="332.64"/>
  </clipPath>
 </defs>
</svg>
