<?xml version="1.0" encoding="utf-8" standalone="no"?>
<!DOCTYPE svg PUBLIC "-//W3C//DTD SVG 1.1//EN"
  "http://www.w3.org/Graphics/SVG/1.1/DTD/svg11.dtd">
<svg xmlns:xlink="http://www.w3.org/1999/xlink" width="576pt" height="432pt" viewBox="0 0 576 432" xmlns="http://www.w3.org/2000/svg" version="1.1">
 <metadata>
  <rdf:RDF xmlns:dc="http://purl.org/dc/elements/1.1/" xmlns:cc="http://creativecommons.org/ns#" xmlns:rdf="http://www.w3.org/1999/02/22-rdf-syntax-ns#">
   <cc:Work>
    <dc:type rdf:resource="http://purl.org/dc/dcmitype/StillImage"/>
    <dc:date>2025-05-08T10:59:24.694878</dc:date>
    <dc:format>image/svg+xml</dc:format>
    <dc:creator>
     <cc:Agent>
      <dc:title>Matplotlib v3.10.0, https://matplotlib.org/</dc:title>
     </cc:Agent>
    </dc:creator>
   </cc:Work>
  </rdf:RDF>
 </metadata>
 <defs>
  <style type="text/css">*{stroke-linejoin: round; stroke-linecap: butt}</style>
 </defs>
 <g id="figure_1">
  <g id="patch_1">
   <path d="M 0 432 
L 576 432 
L 576 0 
L 0 0 
z
" style="fill: #ffffff"/>
  </g>
  <g id="axes_1">
   <g id="patch_2">
    <path d="M 72 384.48 
L 518.4 384.48 
L 518.4 51.84 
L 72 51.84 
z
" style="fill: #ffffff"/>
   </g>
   <g id="matplotlib.axis_1">
    <g id="xtick_1">
     <g id="line2d_1">
      <path d="M 92.290909 384.48 
L 92.290909 51.84 
" clip-path="url(#pe88f08d206)" style="fill: none; stroke: #b0b0b0; stroke-width: 0.8; stroke-linecap: square"/>
     </g>
     <g id="line2d_2">
      <defs>
       <path id="m4007ec1acf" d="M 0 0 
L 0 3.5 
" style="stroke: #000000; stroke-width: 0.8"/>
      </defs>
      <g>
       <use xlink:href="#m4007ec1acf" x="92.290909" y="384.48" style="stroke: #000000; stroke-width: 0.8"/>
      </g>
     </g>
     <g id="text_1">
      <!-- 0 -->
      <g transform="translate(89.109659 399.078438) scale(0.1 -0.1)">
       <defs>
        <path id="DejaVuSans-30" d="M 2034 4250 
Q 1547 4250 1301 3770 
Q 1056 3291 1056 2328 
Q 1056 1369 1301 889 
Q 1547 409 2034 409 
Q 2525 409 2770 889 
Q 3016 1369 3016 2328 
Q 3016 3291 2770 3770 
Q 2525 4250 2034 4250 
z
M 2034 4750 
Q 2819 4750 3233 4129 
Q 3647 3509 3647 2328 
Q 3647 1150 3233 529 
Q 2819 -91 2034 -91 
Q 1250 -91 836 529 
Q 422 1150 422 2328 
Q 422 3509 836 4129 
Q 1250 4750 2034 4750 
z
" transform="scale(0.015625)"/>
       </defs>
       <use xlink:href="#DejaVuSans-30"/>
      </g>
     </g>
    </g>
    <g id="xtick_2">
     <g id="line2d_3">
      <path d="M 149.772238 384.48 
L 149.772238 51.84 
" clip-path="url(#pe88f08d206)" style="fill: none; stroke: #b0b0b0; stroke-width: 0.8; stroke-linecap: square"/>
     </g>
     <g id="line2d_4">
      <g>
       <use xlink:href="#m4007ec1acf" x="149.772238" y="384.48" style="stroke: #000000; stroke-width: 0.8"/>
      </g>
     </g>
     <g id="text_2">
      <!-- 50 -->
      <g transform="translate(143.409738 399.078438) scale(0.1 -0.1)">
       <defs>
        <path id="DejaVuSans-35" d="M 691 4666 
L 3169 4666 
L 3169 4134 
L 1269 4134 
L 1269 2991 
Q 1406 3038 1543 3061 
Q 1681 3084 1819 3084 
Q 2600 3084 3056 2656 
Q 3513 2228 3513 1497 
Q 3513 744 3044 326 
Q 2575 -91 1722 -91 
Q 1428 -91 1123 -41 
Q 819 9 494 109 
L 494 744 
Q 775 591 1075 516 
Q 1375 441 1709 441 
Q 2250 441 2565 725 
Q 2881 1009 2881 1497 
Q 2881 1984 2565 2268 
Q 2250 2553 1709 2553 
Q 1456 2553 1204 2497 
Q 953 2441 691 2322 
L 691 4666 
z
" transform="scale(0.015625)"/>
       </defs>
       <use xlink:href="#DejaVuSans-35"/>
       <use xlink:href="#DejaVuSans-30" transform="translate(63.623047 0)"/>
      </g>
     </g>
    </g>
    <g id="xtick_3">
     <g id="line2d_5">
      <path d="M 207.253567 384.48 
L 207.253567 51.84 
" clip-path="url(#pe88f08d206)" style="fill: none; stroke: #b0b0b0; stroke-width: 0.8; stroke-linecap: square"/>
     </g>
     <g id="line2d_6">
      <g>
       <use xlink:href="#m4007ec1acf" x="207.253567" y="384.48" style="stroke: #000000; stroke-width: 0.8"/>
      </g>
     </g>
     <g id="text_3">
      <!-- 100 -->
      <g transform="translate(197.709817 399.078438) scale(0.1 -0.1)">
       <defs>
        <path id="DejaVuSans-31" d="M 794 531 
L 1825 531 
L 1825 4091 
L 703 3866 
L 703 4441 
L 1819 4666 
L 2450 4666 
L 2450 531 
L 3481 531 
L 3481 0 
L 794 0 
L 794 531 
z
" transform="scale(0.015625)"/>
       </defs>
       <use xlink:href="#DejaVuSans-31"/>
       <use xlink:href="#DejaVuSans-30" transform="translate(63.623047 0)"/>
       <use xlink:href="#DejaVuSans-30" transform="translate(127.246094 0)"/>
      </g>
     </g>
    </g>
    <g id="xtick_4">
     <g id="line2d_7">
      <path d="M 264.734896 384.48 
L 264.734896 51.84 
" clip-path="url(#pe88f08d206)" style="fill: none; stroke: #b0b0b0; stroke-width: 0.8; stroke-linecap: square"/>
     </g>
     <g id="line2d_8">
      <g>
       <use xlink:href="#m4007ec1acf" x="264.734896" y="384.48" style="stroke: #000000; stroke-width: 0.8"/>
      </g>
     </g>
     <g id="text_4">
      <!-- 150 -->
      <g transform="translate(255.191146 399.078438) scale(0.1 -0.1)">
       <use xlink:href="#DejaVuSans-31"/>
       <use xlink:href="#DejaVuSans-35" transform="translate(63.623047 0)"/>
       <use xlink:href="#DejaVuSans-30" transform="translate(127.246094 0)"/>
      </g>
     </g>
    </g>
    <g id="xtick_5">
     <g id="line2d_9">
      <path d="M 322.216225 384.48 
L 322.216225 51.84 
" clip-path="url(#pe88f08d206)" style="fill: none; stroke: #b0b0b0; stroke-width: 0.8; stroke-linecap: square"/>
     </g>
     <g id="line2d_10">
      <g>
       <use xlink:href="#m4007ec1acf" x="322.216225" y="384.48" style="stroke: #000000; stroke-width: 0.8"/>
      </g>
     </g>
     <g id="text_5">
      <!-- 200 -->
      <g transform="translate(312.672475 399.078438) scale(0.1 -0.1)">
       <defs>
        <path id="DejaVuSans-32" d="M 1228 531 
L 3431 531 
L 3431 0 
L 469 0 
L 469 531 
Q 828 903 1448 1529 
Q 2069 2156 2228 2338 
Q 2531 2678 2651 2914 
Q 2772 3150 2772 3378 
Q 2772 3750 2511 3984 
Q 2250 4219 1831 4219 
Q 1534 4219 1204 4116 
Q 875 4013 500 3803 
L 500 4441 
Q 881 4594 1212 4672 
Q 1544 4750 1819 4750 
Q 2544 4750 2975 4387 
Q 3406 4025 3406 3419 
Q 3406 3131 3298 2873 
Q 3191 2616 2906 2266 
Q 2828 2175 2409 1742 
Q 1991 1309 1228 531 
z
" transform="scale(0.015625)"/>
       </defs>
       <use xlink:href="#DejaVuSans-32"/>
       <use xlink:href="#DejaVuSans-30" transform="translate(63.623047 0)"/>
       <use xlink:href="#DejaVuSans-30" transform="translate(127.246094 0)"/>
      </g>
     </g>
    </g>
    <g id="xtick_6">
     <g id="line2d_11">
      <path d="M 379.697553 384.48 
L 379.697553 51.84 
" clip-path="url(#pe88f08d206)" style="fill: none; stroke: #b0b0b0; stroke-width: 0.8; stroke-linecap: square"/>
     </g>
     <g id="line2d_12">
      <g>
       <use xlink:href="#m4007ec1acf" x="379.697553" y="384.48" style="stroke: #000000; stroke-width: 0.8"/>
      </g>
     </g>
     <g id="text_6">
      <!-- 250 -->
      <g transform="translate(370.153803 399.078438) scale(0.1 -0.1)">
       <use xlink:href="#DejaVuSans-32"/>
       <use xlink:href="#DejaVuSans-35" transform="translate(63.623047 0)"/>
       <use xlink:href="#DejaVuSans-30" transform="translate(127.246094 0)"/>
      </g>
     </g>
    </g>
    <g id="xtick_7">
     <g id="line2d_13">
      <path d="M 437.178882 384.48 
L 437.178882 51.84 
" clip-path="url(#pe88f08d206)" style="fill: none; stroke: #b0b0b0; stroke-width: 0.8; stroke-linecap: square"/>
     </g>
     <g id="line2d_14">
      <g>
       <use xlink:href="#m4007ec1acf" x="437.178882" y="384.48" style="stroke: #000000; stroke-width: 0.8"/>
      </g>
     </g>
     <g id="text_7">
      <!-- 300 -->
      <g transform="translate(427.635132 399.078438) scale(0.1 -0.1)">
       <defs>
        <path id="DejaVuSans-33" d="M 2597 2516 
Q 3050 2419 3304 2112 
Q 3559 1806 3559 1356 
Q 3559 666 3084 287 
Q 2609 -91 1734 -91 
Q 1441 -91 1130 -33 
Q 819 25 488 141 
L 488 750 
Q 750 597 1062 519 
Q 1375 441 1716 441 
Q 2309 441 2620 675 
Q 2931 909 2931 1356 
Q 2931 1769 2642 2001 
Q 2353 2234 1838 2234 
L 1294 2234 
L 1294 2753 
L 1863 2753 
Q 2328 2753 2575 2939 
Q 2822 3125 2822 3475 
Q 2822 3834 2567 4026 
Q 2313 4219 1838 4219 
Q 1578 4219 1281 4162 
Q 984 4106 628 3988 
L 628 4550 
Q 988 4650 1302 4700 
Q 1616 4750 1894 4750 
Q 2613 4750 3031 4423 
Q 3450 4097 3450 3541 
Q 3450 3153 3228 2886 
Q 3006 2619 2597 2516 
z
" transform="scale(0.015625)"/>
       </defs>
       <use xlink:href="#DejaVuSans-33"/>
       <use xlink:href="#DejaVuSans-30" transform="translate(63.623047 0)"/>
       <use xlink:href="#DejaVuSans-30" transform="translate(127.246094 0)"/>
      </g>
     </g>
    </g>
    <g id="xtick_8">
     <g id="line2d_15">
      <path d="M 494.660211 384.48 
L 494.660211 51.84 
" clip-path="url(#pe88f08d206)" style="fill: none; stroke: #b0b0b0; stroke-width: 0.8; stroke-linecap: square"/>
     </g>
     <g id="line2d_16">
      <g>
       <use xlink:href="#m4007ec1acf" x="494.660211" y="384.48" style="stroke: #000000; stroke-width: 0.8"/>
      </g>
     </g>
     <g id="text_8">
      <!-- 350 -->
      <g transform="translate(485.116461 399.078438) scale(0.1 -0.1)">
       <use xlink:href="#DejaVuSans-33"/>
       <use xlink:href="#DejaVuSans-35" transform="translate(63.623047 0)"/>
       <use xlink:href="#DejaVuSans-30" transform="translate(127.246094 0)"/>
      </g>
     </g>
    </g>
    <g id="text_9">
     <!-- Epoch -->
     <g transform="translate(279.889062 412.756563) scale(0.1 -0.1)">
      <defs>
       <path id="DejaVuSans-45" d="M 628 4666 
L 3578 4666 
L 3578 4134 
L 1259 4134 
L 1259 2753 
L 3481 2753 
L 3481 2222 
L 1259 2222 
L 1259 531 
L 3634 531 
L 3634 0 
L 628 0 
L 628 4666 
z
" transform="scale(0.015625)"/>
       <path id="DejaVuSans-70" d="M 1159 525 
L 1159 -1331 
L 581 -1331 
L 581 3500 
L 1159 3500 
L 1159 2969 
Q 1341 3281 1617 3432 
Q 1894 3584 2278 3584 
Q 2916 3584 3314 3078 
Q 3713 2572 3713 1747 
Q 3713 922 3314 415 
Q 2916 -91 2278 -91 
Q 1894 -91 1617 61 
Q 1341 213 1159 525 
z
M 3116 1747 
Q 3116 2381 2855 2742 
Q 2594 3103 2138 3103 
Q 1681 3103 1420 2742 
Q 1159 2381 1159 1747 
Q 1159 1113 1420 752 
Q 1681 391 2138 391 
Q 2594 391 2855 752 
Q 3116 1113 3116 1747 
z
" transform="scale(0.015625)"/>
       <path id="DejaVuSans-6f" d="M 1959 3097 
Q 1497 3097 1228 2736 
Q 959 2375 959 1747 
Q 959 1119 1226 758 
Q 1494 397 1959 397 
Q 2419 397 2687 759 
Q 2956 1122 2956 1747 
Q 2956 2369 2687 2733 
Q 2419 3097 1959 3097 
z
M 1959 3584 
Q 2709 3584 3137 3096 
Q 3566 2609 3566 1747 
Q 3566 888 3137 398 
Q 2709 -91 1959 -91 
Q 1206 -91 779 398 
Q 353 888 353 1747 
Q 353 2609 779 3096 
Q 1206 3584 1959 3584 
z
" transform="scale(0.015625)"/>
       <path id="DejaVuSans-63" d="M 3122 3366 
L 3122 2828 
Q 2878 2963 2633 3030 
Q 2388 3097 2138 3097 
Q 1578 3097 1268 2742 
Q 959 2388 959 1747 
Q 959 1106 1268 751 
Q 1578 397 2138 397 
Q 2388 397 2633 464 
Q 2878 531 3122 666 
L 3122 134 
Q 2881 22 2623 -34 
Q 2366 -91 2075 -91 
Q 1284 -91 818 406 
Q 353 903 353 1747 
Q 353 2603 823 3093 
Q 1294 3584 2113 3584 
Q 2378 3584 2631 3529 
Q 2884 3475 3122 3366 
z
" transform="scale(0.015625)"/>
       <path id="DejaVuSans-68" d="M 3513 2113 
L 3513 0 
L 2938 0 
L 2938 2094 
Q 2938 2591 2744 2837 
Q 2550 3084 2163 3084 
Q 1697 3084 1428 2787 
Q 1159 2491 1159 1978 
L 1159 0 
L 581 0 
L 581 4863 
L 1159 4863 
L 1159 2956 
Q 1366 3272 1645 3428 
Q 1925 3584 2291 3584 
Q 2894 3584 3203 3211 
Q 3513 2838 3513 2113 
z
" transform="scale(0.015625)"/>
      </defs>
      <use xlink:href="#DejaVuSans-45"/>
      <use xlink:href="#DejaVuSans-70" transform="translate(63.183594 0)"/>
      <use xlink:href="#DejaVuSans-6f" transform="translate(126.660156 0)"/>
      <use xlink:href="#DejaVuSans-63" transform="translate(187.841797 0)"/>
      <use xlink:href="#DejaVuSans-68" transform="translate(242.822266 0)"/>
     </g>
    </g>
   </g>
   <g id="matplotlib.axis_2">
    <g id="ytick_1">
     <g id="line2d_17">
      <path d="M 72 340.411546 
L 518.4 340.411546 
" clip-path="url(#pe88f08d206)" style="fill: none; stroke: #b0b0b0; stroke-width: 0.8; stroke-linecap: square"/>
     </g>
     <g id="line2d_18">
      <defs>
       <path id="m08757f75eb" d="M 0 0 
L -3.5 0 
" style="stroke: #000000; stroke-width: 0.8"/>
      </defs>
      <g>
       <use xlink:href="#m08757f75eb" x="72" y="340.411546" style="stroke: #000000; stroke-width: 0.8"/>
      </g>
     </g>
     <g id="text_10">
      <!-- 0.2 -->
      <g transform="translate(49.096875 344.210765) scale(0.1 -0.1)">
       <defs>
        <path id="DejaVuSans-2e" d="M 684 794 
L 1344 794 
L 1344 0 
L 684 0 
L 684 794 
z
" transform="scale(0.015625)"/>
       </defs>
       <use xlink:href="#DejaVuSans-30"/>
       <use xlink:href="#DejaVuSans-2e" transform="translate(63.623047 0)"/>
       <use xlink:href="#DejaVuSans-32" transform="translate(95.410156 0)"/>
      </g>
     </g>
    </g>
    <g id="ytick_2">
     <g id="line2d_19">
      <path d="M 72 295.875464 
L 518.4 295.875464 
" clip-path="url(#pe88f08d206)" style="fill: none; stroke: #b0b0b0; stroke-width: 0.8; stroke-linecap: square"/>
     </g>
     <g id="line2d_20">
      <g>
       <use xlink:href="#m08757f75eb" x="72" y="295.875464" style="stroke: #000000; stroke-width: 0.8"/>
      </g>
     </g>
     <g id="text_11">
      <!-- 0.3 -->
      <g transform="translate(49.096875 299.674683) scale(0.1 -0.1)">
       <use xlink:href="#DejaVuSans-30"/>
       <use xlink:href="#DejaVuSans-2e" transform="translate(63.623047 0)"/>
       <use xlink:href="#DejaVuSans-33" transform="translate(95.410156 0)"/>
      </g>
     </g>
    </g>
    <g id="ytick_3">
     <g id="line2d_21">
      <path d="M 72 251.339381 
L 518.4 251.339381 
" clip-path="url(#pe88f08d206)" style="fill: none; stroke: #b0b0b0; stroke-width: 0.8; stroke-linecap: square"/>
     </g>
     <g id="line2d_22">
      <g>
       <use xlink:href="#m08757f75eb" x="72" y="251.339381" style="stroke: #000000; stroke-width: 0.8"/>
      </g>
     </g>
     <g id="text_12">
      <!-- 0.4 -->
      <g transform="translate(49.096875 255.1386) scale(0.1 -0.1)">
       <defs>
        <path id="DejaVuSans-34" d="M 2419 4116 
L 825 1625 
L 2419 1625 
L 2419 4116 
z
M 2253 4666 
L 3047 4666 
L 3047 1625 
L 3713 1625 
L 3713 1100 
L 3047 1100 
L 3047 0 
L 2419 0 
L 2419 1100 
L 313 1100 
L 313 1709 
L 2253 4666 
z
" transform="scale(0.015625)"/>
       </defs>
       <use xlink:href="#DejaVuSans-30"/>
       <use xlink:href="#DejaVuSans-2e" transform="translate(63.623047 0)"/>
       <use xlink:href="#DejaVuSans-34" transform="translate(95.410156 0)"/>
      </g>
     </g>
    </g>
    <g id="ytick_4">
     <g id="line2d_23">
      <path d="M 72 206.803299 
L 518.4 206.803299 
" clip-path="url(#pe88f08d206)" style="fill: none; stroke: #b0b0b0; stroke-width: 0.8; stroke-linecap: square"/>
     </g>
     <g id="line2d_24">
      <g>
       <use xlink:href="#m08757f75eb" x="72" y="206.803299" style="stroke: #000000; stroke-width: 0.8"/>
      </g>
     </g>
     <g id="text_13">
      <!-- 0.5 -->
      <g transform="translate(49.096875 210.602518) scale(0.1 -0.1)">
       <use xlink:href="#DejaVuSans-30"/>
       <use xlink:href="#DejaVuSans-2e" transform="translate(63.623047 0)"/>
       <use xlink:href="#DejaVuSans-35" transform="translate(95.410156 0)"/>
      </g>
     </g>
    </g>
    <g id="ytick_5">
     <g id="line2d_25">
      <path d="M 72 162.267216 
L 518.4 162.267216 
" clip-path="url(#pe88f08d206)" style="fill: none; stroke: #b0b0b0; stroke-width: 0.8; stroke-linecap: square"/>
     </g>
     <g id="line2d_26">
      <g>
       <use xlink:href="#m08757f75eb" x="72" y="162.267216" style="stroke: #000000; stroke-width: 0.8"/>
      </g>
     </g>
     <g id="text_14">
      <!-- 0.6 -->
      <g transform="translate(49.096875 166.066435) scale(0.1 -0.1)">
       <defs>
        <path id="DejaVuSans-36" d="M 2113 2584 
Q 1688 2584 1439 2293 
Q 1191 2003 1191 1497 
Q 1191 994 1439 701 
Q 1688 409 2113 409 
Q 2538 409 2786 701 
Q 3034 994 3034 1497 
Q 3034 2003 2786 2293 
Q 2538 2584 2113 2584 
z
M 3366 4563 
L 3366 3988 
Q 3128 4100 2886 4159 
Q 2644 4219 2406 4219 
Q 1781 4219 1451 3797 
Q 1122 3375 1075 2522 
Q 1259 2794 1537 2939 
Q 1816 3084 2150 3084 
Q 2853 3084 3261 2657 
Q 3669 2231 3669 1497 
Q 3669 778 3244 343 
Q 2819 -91 2113 -91 
Q 1303 -91 875 529 
Q 447 1150 447 2328 
Q 447 3434 972 4092 
Q 1497 4750 2381 4750 
Q 2619 4750 2861 4703 
Q 3103 4656 3366 4563 
z
" transform="scale(0.015625)"/>
       </defs>
       <use xlink:href="#DejaVuSans-30"/>
       <use xlink:href="#DejaVuSans-2e" transform="translate(63.623047 0)"/>
       <use xlink:href="#DejaVuSans-36" transform="translate(95.410156 0)"/>
      </g>
     </g>
    </g>
    <g id="ytick_6">
     <g id="line2d_27">
      <path d="M 72 117.731134 
L 518.4 117.731134 
" clip-path="url(#pe88f08d206)" style="fill: none; stroke: #b0b0b0; stroke-width: 0.8; stroke-linecap: square"/>
     </g>
     <g id="line2d_28">
      <g>
       <use xlink:href="#m08757f75eb" x="72" y="117.731134" style="stroke: #000000; stroke-width: 0.8"/>
      </g>
     </g>
     <g id="text_15">
      <!-- 0.7 -->
      <g transform="translate(49.096875 121.530353) scale(0.1 -0.1)">
       <defs>
        <path id="DejaVuSans-37" d="M 525 4666 
L 3525 4666 
L 3525 4397 
L 1831 0 
L 1172 0 
L 2766 4134 
L 525 4134 
L 525 4666 
z
" transform="scale(0.015625)"/>
       </defs>
       <use xlink:href="#DejaVuSans-30"/>
       <use xlink:href="#DejaVuSans-2e" transform="translate(63.623047 0)"/>
       <use xlink:href="#DejaVuSans-37" transform="translate(95.410156 0)"/>
      </g>
     </g>
    </g>
    <g id="ytick_7">
     <g id="line2d_29">
      <path d="M 72 73.195052 
L 518.4 73.195052 
" clip-path="url(#pe88f08d206)" style="fill: none; stroke: #b0b0b0; stroke-width: 0.8; stroke-linecap: square"/>
     </g>
     <g id="line2d_30">
      <g>
       <use xlink:href="#m08757f75eb" x="72" y="73.195052" style="stroke: #000000; stroke-width: 0.8"/>
      </g>
     </g>
     <g id="text_16">
      <!-- 0.8 -->
      <g transform="translate(49.096875 76.99427) scale(0.1 -0.1)">
       <defs>
        <path id="DejaVuSans-38" d="M 2034 2216 
Q 1584 2216 1326 1975 
Q 1069 1734 1069 1313 
Q 1069 891 1326 650 
Q 1584 409 2034 409 
Q 2484 409 2743 651 
Q 3003 894 3003 1313 
Q 3003 1734 2745 1975 
Q 2488 2216 2034 2216 
z
M 1403 2484 
Q 997 2584 770 2862 
Q 544 3141 544 3541 
Q 544 4100 942 4425 
Q 1341 4750 2034 4750 
Q 2731 4750 3128 4425 
Q 3525 4100 3525 3541 
Q 3525 3141 3298 2862 
Q 3072 2584 2669 2484 
Q 3125 2378 3379 2068 
Q 3634 1759 3634 1313 
Q 3634 634 3220 271 
Q 2806 -91 2034 -91 
Q 1263 -91 848 271 
Q 434 634 434 1313 
Q 434 1759 690 2068 
Q 947 2378 1403 2484 
z
M 1172 3481 
Q 1172 3119 1398 2916 
Q 1625 2713 2034 2713 
Q 2441 2713 2670 2916 
Q 2900 3119 2900 3481 
Q 2900 3844 2670 4047 
Q 2441 4250 2034 4250 
Q 1625 4250 1398 4047 
Q 1172 3844 1172 3481 
z
" transform="scale(0.015625)"/>
       </defs>
       <use xlink:href="#DejaVuSans-30"/>
       <use xlink:href="#DejaVuSans-2e" transform="translate(63.623047 0)"/>
       <use xlink:href="#DejaVuSans-38" transform="translate(95.410156 0)"/>
      </g>
     </g>
    </g>
    <g id="text_17">
     <!-- MAE -->
     <g transform="translate(43.017187 229.05375) rotate(-90) scale(0.1 -0.1)">
      <defs>
       <path id="DejaVuSans-4d" d="M 628 4666 
L 1569 4666 
L 2759 1491 
L 3956 4666 
L 4897 4666 
L 4897 0 
L 4281 0 
L 4281 4097 
L 3078 897 
L 2444 897 
L 1241 4097 
L 1241 0 
L 628 0 
L 628 4666 
z
" transform="scale(0.015625)"/>
       <path id="DejaVuSans-41" d="M 2188 4044 
L 1331 1722 
L 3047 1722 
L 2188 4044 
z
M 1831 4666 
L 2547 4666 
L 4325 0 
L 3669 0 
L 3244 1197 
L 1141 1197 
L 716 0 
L 50 0 
L 1831 4666 
z
" transform="scale(0.015625)"/>
      </defs>
      <use xlink:href="#DejaVuSans-4d"/>
      <use xlink:href="#DejaVuSans-41" transform="translate(86.279297 0)"/>
      <use xlink:href="#DejaVuSans-45" transform="translate(154.6875 0)"/>
     </g>
    </g>
   </g>
   <g id="line2d_31">
    <path d="M 92.290909 152.914639 
L 93.440536 171.619794 
L 94.590162 181.417732 
L 95.739789 197.450722 
L 96.889415 196.114639 
L 98.039042 206.357938 
L 99.188669 205.467216 
L 100.338295 219.718763 
L 101.487922 229.07134 
L 102.637548 233.079588 
L 103.787175 233.079588 
L 104.936801 236.642474 
L 106.086428 237.533196 
L 107.236055 240.650722 
L 108.385681 242.877526 
L 109.535308 245.549691 
L 110.684934 255.347629 
L 111.834561 252.675464 
L 112.984187 255.347629 
L 114.133814 259.355876 
L 115.283441 260.691959 
L 116.433067 263.809485 
L 117.582694 260.691959 
L 118.73232 265.145567 
L 119.881947 271.380619 
L 121.031574 269.153814 
L 122.1812 274.052784 
L 123.330827 274.498144 
L 124.480453 275.388866 
L 125.63008 277.170309 
L 126.779706 272.27134 
L 127.929333 281.623918 
L 129.07896 280.287835 
L 130.228586 277.170309 
L 131.378213 284.741443 
L 132.527839 280.733196 
L 133.677466 284.741443 
L 134.827092 285.632165 
L 135.976719 291.421856 
L 137.126346 287.413608 
L 138.275972 286.077526 
L 139.425599 290.085773 
L 140.575225 296.320825 
L 141.724852 294.984742 
L 142.874478 295.430103 
L 144.024105 145.343505 
L 145.173732 181.863093 
L 146.323358 180.972371 
L 147.472985 195.223918 
L 148.622611 205.021856 
L 149.772238 203.685773 
L 150.921865 217.93732 
L 152.071491 208.139381 
L 153.221118 216.601237 
L 154.370744 142.225979 
L 155.520371 173.846598 
L 156.669997 183.199175 
L 157.819624 198.341443 
L 158.969251 205.467216 
L 160.118877 214.819794 
L 161.268504 207.24866 
L 162.41813 221.054845 
L 163.567757 231.743505 
L 164.717383 232.188866 
L 165.86701 229.07134 
L 167.016637 229.962062 
L 168.166263 230.407423 
L 169.31589 231.743505 
L 170.465516 241.986804 
L 171.615143 249.557938 
L 172.76477 256.238351 
L 173.914396 254.011546 
L 175.064023 253.566186 
L 176.213649 256.238351 
L 177.363276 258.019794 
L 178.512902 263.364124 
L 179.662529 259.801237 
L 180.812156 262.918763 
L 181.961782 269.599175 
L 183.111409 252.230103 
L 184.261035 270.044536 
L 185.410662 270.044536 
L 186.560288 271.825979 
L 188.859542 274.498144 
L 190.009168 269.153814 
L 191.158795 274.498144 
L 192.308421 281.623918 
L 193.458048 283.850722 
L 194.607674 277.170309 
L 195.757301 281.623918 
L 196.906928 285.186804 
L 198.056554 279.842474 
L 199.206181 286.077526 
L 200.355807 286.522887 
L 201.505434 286.522887 
L 202.655061 288.749691 
L 203.804687 286.968247 
L 204.954314 293.64866 
L 206.10394 290.976495 
L 207.253567 293.203299 
L 208.403193 294.539381 
L 209.55282 292.757938 
L 210.702447 292.312577 
L 211.852073 295.430103 
L 214.151326 298.99299 
L 215.300953 292.312577 
L 216.450579 295.430103 
L 217.600206 301.665155 
L 218.749833 299.438351 
L 219.899459 299.438351 
L 221.049086 298.547629 
L 223.348339 308.345567 
L 224.497965 304.78268 
L 225.647592 307.454845 
L 226.797219 305.673402 
L 227.946845 307.009485 
L 229.096472 303.001237 
L 230.246098 307.009485 
L 231.395725 311.908454 
L 232.545352 312.353814 
L 233.694978 306.564124 
L 234.844605 312.353814 
L 235.994231 312.799175 
L 237.143858 312.353814 
L 238.293484 317.252784 
L 239.443111 314.580619 
L 240.592738 312.353814 
L 241.742364 315.916701 
L 242.891991 315.47134 
L 244.041617 319.479588 
L 245.191244 320.370309 
L 246.34087 313.689897 
L 247.490497 313.689897 
L 248.640124 314.580619 
L 249.78975 318.588866 
L 250.939377 325.714639 
L 252.089003 321.261031 
L 253.23863 318.588866 
L 254.388257 324.823918 
L 255.537883 328.386804 
L 256.68751 329.722887 
L 257.837136 327.050722 
L 260.136389 325.269278 
L 261.286016 326.605361 
L 262.435643 323.933196 
L 263.585269 331.058969 
L 264.734896 329.277526 
L 265.884522 327.050722 
L 267.034149 327.050722 
L 268.183775 330.168247 
L 269.333402 344.865155 
L 270.483029 350.209485 
L 271.632655 350.209485 
L 272.782282 349.318763 
L 273.931908 349.764124 
L 275.081535 352.881649 
L 276.231161 353.772371 
L 277.380788 352.436289 
L 278.530415 352.881649 
L 279.680041 352.881649 
L 280.829668 353.772371 
L 281.979294 353.772371 
L 283.128921 352.881649 
L 284.278548 355.553814 
L 285.428174 355.553814 
L 286.577801 351.100206 
L 287.727427 353.772371 
L 288.877054 354.217732 
L 290.02668 357.335258 
L 291.176307 353.772371 
L 292.325934 356.444536 
L 293.47556 355.999175 
L 294.625187 355.108454 
L 295.774813 355.108454 
L 296.92444 355.553814 
L 298.074066 355.108454 
L 299.223693 354.217732 
L 300.37332 355.553814 
L 301.522946 354.217732 
L 302.672573 355.999175 
L 303.822199 355.999175 
L 304.971826 358.225979 
L 306.121452 358.225979 
L 307.271079 357.780619 
L 308.420706 355.108454 
L 309.570332 355.553814 
L 310.719959 357.335258 
L 311.869585 355.108454 
L 313.019212 356.444536 
L 314.168839 358.225979 
L 315.318465 357.335258 
L 316.468092 358.225979 
L 317.617718 357.780619 
L 318.767345 359.116701 
L 319.916971 357.780619 
L 321.066598 358.67134 
L 322.216225 358.225979 
L 323.365851 358.225979 
L 324.515478 357.335258 
L 325.665104 355.108454 
L 326.814731 356.444536 
L 327.964357 356.889897 
L 329.113984 358.225979 
L 330.263611 357.780619 
L 331.413237 355.108454 
L 332.562864 356.444536 
L 333.71249 358.67134 
L 334.862117 355.999175 
L 336.011743 360.898144 
L 337.16137 360.007423 
L 338.310997 358.67134 
L 339.460623 360.898144 
L 340.61025 362.234227 
L 341.759876 358.225979 
L 342.909503 358.225979 
L 344.05913 359.116701 
L 345.208756 356.444536 
L 346.358383 357.335258 
L 347.508009 357.780619 
L 348.657636 360.898144 
L 349.807262 361.343505 
L 350.956889 359.562062 
L 352.106516 360.452784 
L 353.256142 360.452784 
L 354.405769 359.562062 
L 355.555395 360.007423 
L 356.705022 361.788866 
L 357.854648 360.007423 
L 359.004275 360.898144 
L 360.153902 360.898144 
L 361.303528 360.452784 
L 362.453155 363.124948 
L 363.602781 359.562062 
L 364.752408 358.225979 
L 367.051661 360.898144 
L 368.201288 361.788866 
L 369.350914 364.461031 
L 370.500541 361.343505 
L 371.650167 359.562062 
L 372.799794 364.01567 
L 373.949421 360.898144 
L 375.099047 361.788866 
L 376.248674 358.67134 
L 377.3983 361.788866 
L 378.547927 360.898144 
L 379.697553 362.234227 
L 380.84718 360.452784 
L 381.996807 359.562062 
L 383.146433 361.788866 
L 384.29606 362.234227 
L 385.445686 361.788866 
L 386.595313 362.234227 
L 387.744939 360.007423 
L 388.894566 362.679588 
L 390.044193 360.898144 
L 391.193819 364.461031 
L 392.343446 362.234227 
L 393.493072 364.461031 
L 394.642699 361.788866 
L 395.792326 363.570309 
L 398.091579 363.570309 
L 399.241205 364.01567 
L 400.390832 365.351753 
L 401.540458 364.01567 
L 402.690085 363.124948 
L 403.839712 361.343505 
L 404.989338 360.898144 
L 406.138965 362.679588 
L 407.288591 363.570309 
L 408.438218 366.242474 
L 409.587844 362.679588 
L 410.737471 361.788866 
L 411.887098 361.343505 
L 413.036724 361.343505 
L 415.335977 364.01567 
L 416.485604 364.01567 
L 417.63523 360.452784 
L 418.784857 363.124948 
L 419.934484 364.461031 
L 421.08411 363.124948 
L 422.233737 365.351753 
L 423.383363 363.124948 
L 425.682617 365.797113 
L 426.832243 363.570309 
L 427.98187 360.452784 
L 429.131496 366.242474 
L 430.281123 366.242474 
L 431.430749 361.343505 
L 432.580376 361.788866 
L 433.730003 361.788866 
L 434.879629 364.906392 
L 436.029256 365.351753 
L 437.178882 364.906392 
L 438.328509 364.906392 
L 439.478135 364.01567 
L 440.627762 366.242474 
L 441.777389 364.461031 
L 442.927015 365.351753 
L 444.076642 365.797113 
L 445.226268 365.797113 
L 446.375895 362.234227 
L 447.525522 364.01567 
L 448.675148 365.351753 
L 449.824775 364.461031 
L 450.974401 364.906392 
L 452.124028 362.679588 
L 453.273654 368.469278 
L 454.423281 368.023918 
L 455.572908 361.788866 
L 456.722534 367.133196 
L 457.872161 364.01567 
L 459.021787 367.133196 
L 460.171414 366.242474 
L 461.32104 368.023918 
L 462.470667 366.687835 
L 463.620294 364.01567 
L 464.76992 365.797113 
L 465.919547 364.01567 
L 467.069173 365.351753 
L 468.2188 366.242474 
L 469.368426 365.797113 
L 470.518053 368.914639 
L 471.66768 367.578557 
L 472.817306 364.906392 
L 473.966933 365.797113 
L 475.116559 365.797113 
L 476.266186 362.679588 
L 477.415813 366.687835 
L 478.565439 367.578557 
L 480.864692 367.578557 
L 482.014319 367.133196 
L 483.163945 366.242474 
L 484.313572 369.36 
L 485.463199 367.133196 
L 486.612825 364.01567 
L 487.762452 366.687835 
L 488.912078 367.578557 
L 490.061705 365.797113 
L 491.211331 368.023918 
L 492.360958 369.36 
L 493.510585 367.133196 
L 494.660211 368.469278 
L 495.809838 365.797113 
L 496.959464 366.242474 
L 498.109091 367.133196 
L 498.109091 367.133196 
" clip-path="url(#pe88f08d206)" style="fill: none; stroke: #1f77b4; stroke-width: 1.5; stroke-linecap: square"/>
   </g>
   <g id="line2d_32">
    <path d="M 92.290909 166.720825 
L 93.440536 147.124948 
L 95.739789 201.458969 
L 96.889415 190.770309 
L 98.039042 223.281649 
L 99.188669 208.584742 
L 100.338295 172.065155 
L 101.487922 243.322887 
L 102.637548 157.813608 
L 103.787175 215.710515 
L 104.936801 238.869278 
L 106.086428 189.879588 
L 107.236055 246.440412 
L 108.385681 244.658969 
L 109.535308 260.246598 
L 110.684934 233.079588 
L 111.834561 235.751753 
L 112.984187 260.691959 
L 114.133814 253.120825 
L 115.283441 261.58268 
L 116.433067 224.172371 
L 117.582694 242.877526 
L 118.73232 66.96 
L 119.881947 229.07134 
L 121.031574 239.314639 
L 122.1812 210.811546 
L 123.330827 259.801237 
L 124.480453 227.289897 
L 125.63008 229.516701 
L 126.779706 267.372371 
L 127.929333 272.27134 
L 129.07896 195.669278 
L 130.228586 130.201237 
L 131.378213 245.995052 
L 132.527839 271.825979 
L 133.677466 231.298144 
L 134.827092 282.069278 
L 135.976719 249.557938 
L 137.126346 239.314639 
L 138.275972 250.003299 
L 139.425599 271.825979 
L 140.575225 277.170309 
L 141.724852 207.694021 
L 142.874478 262.028041 
L 144.024105 183.199175 
L 145.173732 206.357938 
L 146.323358 214.374433 
L 147.472985 164.494021 
L 148.622611 173.846598 
L 149.772238 164.939381 
L 150.921865 197.005361 
L 152.071491 192.551753 
L 153.221118 182.308454 
L 154.370744 192.551753 
L 155.520371 155.141443 
L 156.669997 181.417732 
L 157.819624 173.846598 
L 158.969251 224.617732 
L 160.118877 196.56 
L 161.268504 228.180619 
L 162.41813 219.718763 
L 163.567757 85.219794 
L 164.717383 231.298144 
L 165.86701 223.281649 
L 167.016637 171.619794 
L 168.166263 205.912577 
L 169.31589 228.180619 
L 170.465516 210.366186 
L 171.615143 98.135258 
L 172.76477 248.667216 
L 173.914396 252.230103 
L 175.064023 232.188866 
L 176.213649 254.902268 
L 177.363276 176.518763 
L 178.512902 175.628041 
L 179.662529 213.038351 
L 180.812156 267.372371 
L 181.961782 169.39299 
L 183.111409 265.590928 
L 184.261035 240.205361 
L 185.410662 223.72701 
L 186.560288 227.735258 
L 187.709915 275.388866 
L 190.009168 241.986804 
L 191.158795 250.44866 
L 192.308421 254.456907 
L 193.458048 222.390928 
L 194.607674 214.819794 
L 195.757301 270.489897 
L 196.906928 280.287835 
L 198.056554 277.61567 
L 199.206181 269.599175 
L 200.355807 236.642474 
L 201.505434 269.153814 
L 202.655061 193.887835 
L 203.804687 275.834227 
L 204.954314 270.044536 
L 206.10394 237.978557 
L 207.253567 274.498144 
L 208.403193 288.30433 
L 209.55282 283.850722 
L 210.702447 280.287835 
L 211.852073 281.178557 
L 213.0017 234.41567 
L 214.151326 239.76 
L 215.300953 279.842474 
L 216.450579 274.498144 
L 217.600206 274.052784 
L 218.749833 267.817732 
L 219.899459 263.809485 
L 221.049086 270.044536 
L 222.198712 284.741443 
L 223.348339 277.61567 
L 224.497965 269.599175 
L 225.647592 279.842474 
L 226.797219 277.170309 
L 227.946845 269.153814 
L 229.096472 279.842474 
L 230.246098 267.372371 
L 231.395725 287.413608 
L 232.545352 285.632165 
L 233.694978 276.724948 
L 234.844605 253.120825 
L 235.994231 278.506392 
L 237.143858 278.061031 
L 238.293484 278.061031 
L 239.443111 279.842474 
L 240.592738 236.642474 
L 241.742364 147.124948 
L 242.891991 241.986804 
L 244.041617 214.819794 
L 245.191244 281.178557 
L 246.34087 224.617732 
L 247.490497 247.331134 
L 248.640124 286.077526 
L 249.78975 290.085773 
L 250.939377 263.809485 
L 252.089003 280.287835 
L 253.23863 258.465155 
L 254.388257 229.07134 
L 255.537883 288.749691 
L 256.68751 279.397113 
L 257.837136 288.30433 
L 258.986763 258.910515 
L 260.136389 279.842474 
L 261.286016 268.708454 
L 262.435643 275.834227 
L 263.585269 262.473402 
L 264.734896 279.397113 
L 265.884522 258.465155 
L 267.034149 256.683711 
L 268.183775 290.085773 
L 269.333402 301.219794 
L 271.632655 299.438351 
L 272.782282 301.219794 
L 273.931908 299.883711 
L 275.081535 301.219794 
L 276.231161 299.438351 
L 277.380788 297.211546 
L 278.530415 298.99299 
L 280.829668 298.102268 
L 281.979294 300.329072 
L 283.128921 297.211546 
L 284.278548 296.766186 
L 285.428174 299.883711 
L 286.577801 298.547629 
L 288.877054 299.438351 
L 290.02668 298.547629 
L 291.176307 298.99299 
L 292.325934 298.99299 
L 293.47556 296.766186 
L 294.625187 298.102268 
L 295.774813 298.547629 
L 298.074066 298.547629 
L 299.223693 297.656907 
L 300.37332 298.547629 
L 301.522946 298.99299 
L 302.672573 296.320825 
L 303.822199 298.102268 
L 304.971826 297.211546 
L 306.121452 294.539381 
L 307.271079 296.766186 
L 308.420706 296.320825 
L 309.570332 298.102268 
L 310.719959 294.539381 
L 311.869585 298.102268 
L 313.019212 297.211546 
L 314.168839 297.211546 
L 315.318465 296.766186 
L 316.468092 298.547629 
L 317.617718 295.430103 
L 318.767345 297.211546 
L 319.916971 296.320825 
L 321.066598 297.211546 
L 322.216225 297.211546 
L 323.365851 295.875464 
L 324.515478 295.430103 
L 326.814731 298.102268 
L 329.113984 297.211546 
L 330.263611 294.094021 
L 331.413237 296.320825 
L 332.562864 290.531134 
L 333.71249 295.875464 
L 334.862117 296.766186 
L 337.16137 296.766186 
L 338.310997 296.320825 
L 339.460623 296.320825 
L 340.61025 295.430103 
L 341.759876 295.430103 
L 342.909503 297.211546 
L 344.05913 296.766186 
L 345.208756 292.312577 
L 346.358383 296.320825 
L 349.807262 296.320825 
L 350.956889 296.766186 
L 352.106516 296.766186 
L 355.555395 295.430103 
L 356.705022 296.766186 
L 357.854648 293.64866 
L 359.004275 295.875464 
L 360.153902 296.320825 
L 361.303528 294.539381 
L 362.453155 296.766186 
L 363.602781 293.64866 
L 364.752408 294.984742 
L 365.902035 292.757938 
L 367.051661 295.430103 
L 368.201288 294.984742 
L 369.350914 294.984742 
L 370.500541 295.430103 
L 371.650167 294.539381 
L 372.799794 294.984742 
L 373.949421 292.312577 
L 375.099047 294.094021 
L 376.248674 294.984742 
L 378.547927 294.094021 
L 379.697553 294.984742 
L 380.84718 294.984742 
L 381.996807 295.430103 
L 383.146433 292.312577 
L 384.29606 294.094021 
L 385.445686 294.539381 
L 386.595313 290.976495 
L 387.744939 294.984742 
L 388.894566 294.094021 
L 390.044193 293.64866 
L 391.193819 294.539381 
L 392.343446 293.64866 
L 393.493072 292.312577 
L 394.642699 291.867216 
L 395.792326 293.64866 
L 396.941952 292.312577 
L 398.091579 290.531134 
L 399.241205 292.757938 
L 400.390832 291.867216 
L 401.540458 294.539381 
L 402.690085 290.531134 
L 403.839712 291.867216 
L 404.989338 293.64866 
L 406.138965 291.867216 
L 407.288591 291.421856 
L 408.438218 288.749691 
L 409.587844 291.867216 
L 410.737471 293.64866 
L 411.887098 292.312577 
L 413.036724 292.757938 
L 414.186351 292.757938 
L 415.335977 293.64866 
L 416.485604 292.757938 
L 417.63523 294.539381 
L 418.784857 292.757938 
L 419.934484 291.421856 
L 421.08411 292.757938 
L 422.233737 294.984742 
L 423.383363 293.203299 
L 425.682617 291.421856 
L 426.832243 290.976495 
L 427.98187 291.867216 
L 429.131496 294.094021 
L 430.281123 293.64866 
L 431.430749 293.64866 
L 432.580376 288.749691 
L 433.730003 294.094021 
L 434.879629 292.312577 
L 436.029256 289.195052 
L 437.178882 293.64866 
L 438.328509 289.640412 
L 439.478135 291.867216 
L 440.627762 292.757938 
L 441.777389 293.203299 
L 442.927015 290.085773 
L 444.076642 293.203299 
L 445.226268 291.867216 
L 446.375895 291.867216 
L 447.525522 293.203299 
L 448.675148 291.421856 
L 449.824775 294.094021 
L 450.974401 292.757938 
L 452.124028 291.867216 
L 453.273654 292.312577 
L 454.423281 290.531134 
L 455.572908 289.195052 
L 456.722534 292.757938 
L 457.872161 286.077526 
L 459.021787 291.867216 
L 460.171414 291.421856 
L 461.32104 290.531134 
L 462.470667 289.195052 
L 463.620294 291.867216 
L 464.76992 286.077526 
L 465.919547 288.30433 
L 467.069173 292.312577 
L 468.2188 293.203299 
L 469.368426 290.976495 
L 470.518053 293.203299 
L 471.66768 292.312577 
L 472.817306 294.539381 
L 473.966933 291.867216 
L 475.116559 291.421856 
L 476.266186 292.757938 
L 477.415813 289.195052 
L 478.565439 291.867216 
L 480.864692 291.867216 
L 482.014319 290.976495 
L 483.163945 288.30433 
L 484.313572 290.976495 
L 485.463199 291.867216 
L 486.612825 290.976495 
L 487.762452 292.312577 
L 488.912078 291.867216 
L 490.061705 287.413608 
L 491.211331 290.531134 
L 492.360958 288.749691 
L 493.510585 288.30433 
L 494.660211 287.413608 
L 495.809838 290.085773 
L 496.959464 291.867216 
L 498.109091 291.421856 
L 498.109091 291.421856 
" clip-path="url(#pe88f08d206)" style="fill: none; stroke: #ff7f0e; stroke-width: 1.5; stroke-linecap: square"/>
   </g>
   <g id="LineCollection_1">
    <path d="M 92.290909 294.984742 
L 498.109091 294.984742 
" clip-path="url(#pe88f08d206)" style="fill: none; stroke-dasharray: 1.5,2.475; stroke-dashoffset: 0; stroke: #1f77b4; stroke-width: 1.5"/>
   </g>
   <g id="patch_3">
    <path d="M 72 384.48 
L 72 51.84 
" style="fill: none; stroke: #000000; stroke-width: 0.8; stroke-linejoin: miter; stroke-linecap: square"/>
   </g>
   <g id="patch_4">
    <path d="M 518.4 384.48 
L 518.4 51.84 
" style="fill: none; stroke: #000000; stroke-width: 0.8; stroke-linejoin: miter; stroke-linecap: square"/>
   </g>
   <g id="patch_5">
    <path d="M 72 384.48 
L 518.4 384.48 
" style="fill: none; stroke: #000000; stroke-width: 0.8; stroke-linejoin: miter; stroke-linecap: square"/>
   </g>
   <g id="patch_6">
    <path d="M 72 51.84 
L 518.4 51.84 
" style="fill: none; stroke: #000000; stroke-width: 0.8; stroke-linejoin: miter; stroke-linecap: square"/>
   </g>
   <g id="text_18">
    <!-- Training vs Validation MAE (running avg) -->
    <g transform="translate(173.745 45.84) scale(0.12 -0.12)">
     <defs>
      <path id="DejaVuSans-54" d="M -19 4666 
L 3928 4666 
L 3928 4134 
L 2272 4134 
L 2272 0 
L 1638 0 
L 1638 4134 
L -19 4134 
L -19 4666 
z
" transform="scale(0.015625)"/>
      <path id="DejaVuSans-72" d="M 2631 2963 
Q 2534 3019 2420 3045 
Q 2306 3072 2169 3072 
Q 1681 3072 1420 2755 
Q 1159 2438 1159 1844 
L 1159 0 
L 581 0 
L 581 3500 
L 1159 3500 
L 1159 2956 
Q 1341 3275 1631 3429 
Q 1922 3584 2338 3584 
Q 2397 3584 2469 3576 
Q 2541 3569 2628 3553 
L 2631 2963 
z
" transform="scale(0.015625)"/>
      <path id="DejaVuSans-61" d="M 2194 1759 
Q 1497 1759 1228 1600 
Q 959 1441 959 1056 
Q 959 750 1161 570 
Q 1363 391 1709 391 
Q 2188 391 2477 730 
Q 2766 1069 2766 1631 
L 2766 1759 
L 2194 1759 
z
M 3341 1997 
L 3341 0 
L 2766 0 
L 2766 531 
Q 2569 213 2275 61 
Q 1981 -91 1556 -91 
Q 1019 -91 701 211 
Q 384 513 384 1019 
Q 384 1609 779 1909 
Q 1175 2209 1959 2209 
L 2766 2209 
L 2766 2266 
Q 2766 2663 2505 2880 
Q 2244 3097 1772 3097 
Q 1472 3097 1187 3025 
Q 903 2953 641 2809 
L 641 3341 
Q 956 3463 1253 3523 
Q 1550 3584 1831 3584 
Q 2591 3584 2966 3190 
Q 3341 2797 3341 1997 
z
" transform="scale(0.015625)"/>
      <path id="DejaVuSans-69" d="M 603 3500 
L 1178 3500 
L 1178 0 
L 603 0 
L 603 3500 
z
M 603 4863 
L 1178 4863 
L 1178 4134 
L 603 4134 
L 603 4863 
z
" transform="scale(0.015625)"/>
      <path id="DejaVuSans-6e" d="M 3513 2113 
L 3513 0 
L 2938 0 
L 2938 2094 
Q 2938 2591 2744 2837 
Q 2550 3084 2163 3084 
Q 1697 3084 1428 2787 
Q 1159 2491 1159 1978 
L 1159 0 
L 581 0 
L 581 3500 
L 1159 3500 
L 1159 2956 
Q 1366 3272 1645 3428 
Q 1925 3584 2291 3584 
Q 2894 3584 3203 3211 
Q 3513 2838 3513 2113 
z
" transform="scale(0.015625)"/>
      <path id="DejaVuSans-67" d="M 2906 1791 
Q 2906 2416 2648 2759 
Q 2391 3103 1925 3103 
Q 1463 3103 1205 2759 
Q 947 2416 947 1791 
Q 947 1169 1205 825 
Q 1463 481 1925 481 
Q 2391 481 2648 825 
Q 2906 1169 2906 1791 
z
M 3481 434 
Q 3481 -459 3084 -895 
Q 2688 -1331 1869 -1331 
Q 1566 -1331 1297 -1286 
Q 1028 -1241 775 -1147 
L 775 -588 
Q 1028 -725 1275 -790 
Q 1522 -856 1778 -856 
Q 2344 -856 2625 -561 
Q 2906 -266 2906 331 
L 2906 616 
Q 2728 306 2450 153 
Q 2172 0 1784 0 
Q 1141 0 747 490 
Q 353 981 353 1791 
Q 353 2603 747 3093 
Q 1141 3584 1784 3584 
Q 2172 3584 2450 3431 
Q 2728 3278 2906 2969 
L 2906 3500 
L 3481 3500 
L 3481 434 
z
" transform="scale(0.015625)"/>
      <path id="DejaVuSans-20" transform="scale(0.015625)"/>
      <path id="DejaVuSans-76" d="M 191 3500 
L 800 3500 
L 1894 563 
L 2988 3500 
L 3597 3500 
L 2284 0 
L 1503 0 
L 191 3500 
z
" transform="scale(0.015625)"/>
      <path id="DejaVuSans-73" d="M 2834 3397 
L 2834 2853 
Q 2591 2978 2328 3040 
Q 2066 3103 1784 3103 
Q 1356 3103 1142 2972 
Q 928 2841 928 2578 
Q 928 2378 1081 2264 
Q 1234 2150 1697 2047 
L 1894 2003 
Q 2506 1872 2764 1633 
Q 3022 1394 3022 966 
Q 3022 478 2636 193 
Q 2250 -91 1575 -91 
Q 1294 -91 989 -36 
Q 684 19 347 128 
L 347 722 
Q 666 556 975 473 
Q 1284 391 1588 391 
Q 1994 391 2212 530 
Q 2431 669 2431 922 
Q 2431 1156 2273 1281 
Q 2116 1406 1581 1522 
L 1381 1569 
Q 847 1681 609 1914 
Q 372 2147 372 2553 
Q 372 3047 722 3315 
Q 1072 3584 1716 3584 
Q 2034 3584 2315 3537 
Q 2597 3491 2834 3397 
z
" transform="scale(0.015625)"/>
      <path id="DejaVuSans-56" d="M 1831 0 
L 50 4666 
L 709 4666 
L 2188 738 
L 3669 4666 
L 4325 4666 
L 2547 0 
L 1831 0 
z
" transform="scale(0.015625)"/>
      <path id="DejaVuSans-6c" d="M 603 4863 
L 1178 4863 
L 1178 0 
L 603 0 
L 603 4863 
z
" transform="scale(0.015625)"/>
      <path id="DejaVuSans-64" d="M 2906 2969 
L 2906 4863 
L 3481 4863 
L 3481 0 
L 2906 0 
L 2906 525 
Q 2725 213 2448 61 
Q 2172 -91 1784 -91 
Q 1150 -91 751 415 
Q 353 922 353 1747 
Q 353 2572 751 3078 
Q 1150 3584 1784 3584 
Q 2172 3584 2448 3432 
Q 2725 3281 2906 2969 
z
M 947 1747 
Q 947 1113 1208 752 
Q 1469 391 1925 391 
Q 2381 391 2643 752 
Q 2906 1113 2906 1747 
Q 2906 2381 2643 2742 
Q 2381 3103 1925 3103 
Q 1469 3103 1208 2742 
Q 947 2381 947 1747 
z
" transform="scale(0.015625)"/>
      <path id="DejaVuSans-74" d="M 1172 4494 
L 1172 3500 
L 2356 3500 
L 2356 3053 
L 1172 3053 
L 1172 1153 
Q 1172 725 1289 603 
Q 1406 481 1766 481 
L 2356 481 
L 2356 0 
L 1766 0 
Q 1100 0 847 248 
Q 594 497 594 1153 
L 594 3053 
L 172 3053 
L 172 3500 
L 594 3500 
L 594 4494 
L 1172 4494 
z
" transform="scale(0.015625)"/>
      <path id="DejaVuSans-28" d="M 1984 4856 
Q 1566 4138 1362 3434 
Q 1159 2731 1159 2009 
Q 1159 1288 1364 580 
Q 1569 -128 1984 -844 
L 1484 -844 
Q 1016 -109 783 600 
Q 550 1309 550 2009 
Q 550 2706 781 3412 
Q 1013 4119 1484 4856 
L 1984 4856 
z
" transform="scale(0.015625)"/>
      <path id="DejaVuSans-75" d="M 544 1381 
L 544 3500 
L 1119 3500 
L 1119 1403 
Q 1119 906 1312 657 
Q 1506 409 1894 409 
Q 2359 409 2629 706 
Q 2900 1003 2900 1516 
L 2900 3500 
L 3475 3500 
L 3475 0 
L 2900 0 
L 2900 538 
Q 2691 219 2414 64 
Q 2138 -91 1772 -91 
Q 1169 -91 856 284 
Q 544 659 544 1381 
z
M 1991 3584 
L 1991 3584 
z
" transform="scale(0.015625)"/>
      <path id="DejaVuSans-29" d="M 513 4856 
L 1013 4856 
Q 1481 4119 1714 3412 
Q 1947 2706 1947 2009 
Q 1947 1309 1714 600 
Q 1481 -109 1013 -844 
L 513 -844 
Q 928 -128 1133 580 
Q 1338 1288 1338 2009 
Q 1338 2731 1133 3434 
Q 928 4138 513 4856 
z
" transform="scale(0.015625)"/>
     </defs>
     <use xlink:href="#DejaVuSans-54"/>
     <use xlink:href="#DejaVuSans-72" transform="translate(46.333984 0)"/>
     <use xlink:href="#DejaVuSans-61" transform="translate(87.447266 0)"/>
     <use xlink:href="#DejaVuSans-69" transform="translate(148.726562 0)"/>
     <use xlink:href="#DejaVuSans-6e" transform="translate(176.509766 0)"/>
     <use xlink:href="#DejaVuSans-69" transform="translate(239.888672 0)"/>
     <use xlink:href="#DejaVuSans-6e" transform="translate(267.671875 0)"/>
     <use xlink:href="#DejaVuSans-67" transform="translate(331.050781 0)"/>
     <use xlink:href="#DejaVuSans-20" transform="translate(394.527344 0)"/>
     <use xlink:href="#DejaVuSans-76" transform="translate(426.314453 0)"/>
     <use xlink:href="#DejaVuSans-73" transform="translate(485.494141 0)"/>
     <use xlink:href="#DejaVuSans-20" transform="translate(537.59375 0)"/>
     <use xlink:href="#DejaVuSans-56" transform="translate(569.380859 0)"/>
     <use xlink:href="#DejaVuSans-61" transform="translate(630.039062 0)"/>
     <use xlink:href="#DejaVuSans-6c" transform="translate(691.318359 0)"/>
     <use xlink:href="#DejaVuSans-69" transform="translate(719.101562 0)"/>
     <use xlink:href="#DejaVuSans-64" transform="translate(746.884766 0)"/>
     <use xlink:href="#DejaVuSans-61" transform="translate(810.361328 0)"/>
     <use xlink:href="#DejaVuSans-74" transform="translate(871.640625 0)"/>
     <use xlink:href="#DejaVuSans-69" transform="translate(910.849609 0)"/>
     <use xlink:href="#DejaVuSans-6f" transform="translate(938.632812 0)"/>
     <use xlink:href="#DejaVuSans-6e" transform="translate(999.814453 0)"/>
     <use xlink:href="#DejaVuSans-20" transform="translate(1063.193359 0)"/>
     <use xlink:href="#DejaVuSans-4d" transform="translate(1094.980469 0)"/>
     <use xlink:href="#DejaVuSans-41" transform="translate(1181.259766 0)"/>
     <use xlink:href="#DejaVuSans-45" transform="translate(1249.667969 0)"/>
     <use xlink:href="#DejaVuSans-20" transform="translate(1312.851562 0)"/>
     <use xlink:href="#DejaVuSans-28" transform="translate(1344.638672 0)"/>
     <use xlink:href="#DejaVuSans-72" transform="translate(1383.652344 0)"/>
     <use xlink:href="#DejaVuSans-75" transform="translate(1424.765625 0)"/>
     <use xlink:href="#DejaVuSans-6e" transform="translate(1488.144531 0)"/>
     <use xlink:href="#DejaVuSans-6e" transform="translate(1551.523438 0)"/>
     <use xlink:href="#DejaVuSans-69" transform="translate(1614.902344 0)"/>
     <use xlink:href="#DejaVuSans-6e" transform="translate(1642.685547 0)"/>
     <use xlink:href="#DejaVuSans-67" transform="translate(1706.064453 0)"/>
     <use xlink:href="#DejaVuSans-20" transform="translate(1769.541016 0)"/>
     <use xlink:href="#DejaVuSans-61" transform="translate(1801.328125 0)"/>
     <use xlink:href="#DejaVuSans-76" transform="translate(1862.607422 0)"/>
     <use xlink:href="#DejaVuSans-67" transform="translate(1921.787109 0)"/>
     <use xlink:href="#DejaVuSans-29" transform="translate(1985.263672 0)"/>
    </g>
   </g>
   <g id="legend_1">
    <g id="patch_7">
     <path d="M 349.204687 103.874375 
L 511.4 103.874375 
Q 513.4 103.874375 513.4 101.874375 
L 513.4 58.84 
Q 513.4 56.84 511.4 56.84 
L 349.204687 56.84 
Q 347.204687 56.84 347.204687 58.84 
L 347.204687 101.874375 
Q 347.204687 103.874375 349.204687 103.874375 
z
" style="fill: #ffffff; opacity: 0.8; stroke: #cccccc; stroke-linejoin: miter"/>
    </g>
    <g id="line2d_33">
     <path d="M 351.204687 64.938437 
L 361.204687 64.938437 
L 371.204687 64.938437 
" style="fill: none; stroke: #1f77b4; stroke-width: 1.5; stroke-linecap: square"/>
    </g>
    <g id="text_19">
     <!-- Train -->
     <g transform="translate(379.204687 68.438437) scale(0.1 -0.1)">
      <use xlink:href="#DejaVuSans-54"/>
      <use xlink:href="#DejaVuSans-72" transform="translate(46.333984 0)"/>
      <use xlink:href="#DejaVuSans-61" transform="translate(87.447266 0)"/>
      <use xlink:href="#DejaVuSans-69" transform="translate(148.726562 0)"/>
      <use xlink:href="#DejaVuSans-6e" transform="translate(176.509766 0)"/>
     </g>
    </g>
    <g id="line2d_34">
     <path d="M 351.204687 79.616562 
L 361.204687 79.616562 
L 371.204687 79.616562 
" style="fill: none; stroke: #ff7f0e; stroke-width: 1.5; stroke-linecap: square"/>
    </g>
    <g id="text_20">
     <!-- Validation -->
     <g transform="translate(379.204687 83.116562) scale(0.1 -0.1)">
      <use xlink:href="#DejaVuSans-56"/>
      <use xlink:href="#DejaVuSans-61" transform="translate(60.658203 0)"/>
      <use xlink:href="#DejaVuSans-6c" transform="translate(121.9375 0)"/>
      <use xlink:href="#DejaVuSans-69" transform="translate(149.720703 0)"/>
      <use xlink:href="#DejaVuSans-64" transform="translate(177.503906 0)"/>
      <use xlink:href="#DejaVuSans-61" transform="translate(240.980469 0)"/>
      <use xlink:href="#DejaVuSans-74" transform="translate(302.259766 0)"/>
      <use xlink:href="#DejaVuSans-69" transform="translate(341.46875 0)"/>
      <use xlink:href="#DejaVuSans-6f" transform="translate(369.251953 0)"/>
      <use xlink:href="#DejaVuSans-6e" transform="translate(430.433594 0)"/>
     </g>
    </g>
    <g id="line2d_35">
     <path d="M 351.204687 94.294687 
L 371.204687 94.294687 
" style="fill: none; stroke-dasharray: 1.5,2.475; stroke-dashoffset: 0; stroke: #1f77b4; stroke-width: 1.5"/>
    </g>
    <g id="text_21">
     <!-- Test summary MAE: 0.302 -->
     <g transform="translate(379.204687 97.794687) scale(0.1 -0.1)">
      <defs>
       <path id="DejaVuSans-65" d="M 3597 1894 
L 3597 1613 
L 953 1613 
Q 991 1019 1311 708 
Q 1631 397 2203 397 
Q 2534 397 2845 478 
Q 3156 559 3463 722 
L 3463 178 
Q 3153 47 2828 -22 
Q 2503 -91 2169 -91 
Q 1331 -91 842 396 
Q 353 884 353 1716 
Q 353 2575 817 3079 
Q 1281 3584 2069 3584 
Q 2775 3584 3186 3129 
Q 3597 2675 3597 1894 
z
M 3022 2063 
Q 3016 2534 2758 2815 
Q 2500 3097 2075 3097 
Q 1594 3097 1305 2825 
Q 1016 2553 972 2059 
L 3022 2063 
z
" transform="scale(0.015625)"/>
       <path id="DejaVuSans-6d" d="M 3328 2828 
Q 3544 3216 3844 3400 
Q 4144 3584 4550 3584 
Q 5097 3584 5394 3201 
Q 5691 2819 5691 2113 
L 5691 0 
L 5113 0 
L 5113 2094 
Q 5113 2597 4934 2840 
Q 4756 3084 4391 3084 
Q 3944 3084 3684 2787 
Q 3425 2491 3425 1978 
L 3425 0 
L 2847 0 
L 2847 2094 
Q 2847 2600 2669 2842 
Q 2491 3084 2119 3084 
Q 1678 3084 1418 2786 
Q 1159 2488 1159 1978 
L 1159 0 
L 581 0 
L 581 3500 
L 1159 3500 
L 1159 2956 
Q 1356 3278 1631 3431 
Q 1906 3584 2284 3584 
Q 2666 3584 2933 3390 
Q 3200 3197 3328 2828 
z
" transform="scale(0.015625)"/>
       <path id="DejaVuSans-79" d="M 2059 -325 
Q 1816 -950 1584 -1140 
Q 1353 -1331 966 -1331 
L 506 -1331 
L 506 -850 
L 844 -850 
Q 1081 -850 1212 -737 
Q 1344 -625 1503 -206 
L 1606 56 
L 191 3500 
L 800 3500 
L 1894 763 
L 2988 3500 
L 3597 3500 
L 2059 -325 
z
" transform="scale(0.015625)"/>
       <path id="DejaVuSans-3a" d="M 750 794 
L 1409 794 
L 1409 0 
L 750 0 
L 750 794 
z
M 750 3309 
L 1409 3309 
L 1409 2516 
L 750 2516 
L 750 3309 
z
" transform="scale(0.015625)"/>
      </defs>
      <use xlink:href="#DejaVuSans-54"/>
      <use xlink:href="#DejaVuSans-65" transform="translate(44.083984 0)"/>
      <use xlink:href="#DejaVuSans-73" transform="translate(105.607422 0)"/>
      <use xlink:href="#DejaVuSans-74" transform="translate(157.707031 0)"/>
      <use xlink:href="#DejaVuSans-20" transform="translate(196.916016 0)"/>
      <use xlink:href="#DejaVuSans-73" transform="translate(228.703125 0)"/>
      <use xlink:href="#DejaVuSans-75" transform="translate(280.802734 0)"/>
      <use xlink:href="#DejaVuSans-6d" transform="translate(344.181641 0)"/>
      <use xlink:href="#DejaVuSans-6d" transform="translate(441.59375 0)"/>
      <use xlink:href="#DejaVuSans-61" transform="translate(539.005859 0)"/>
      <use xlink:href="#DejaVuSans-72" transform="translate(600.285156 0)"/>
      <use xlink:href="#DejaVuSans-79" transform="translate(641.398438 0)"/>
      <use xlink:href="#DejaVuSans-20" transform="translate(700.578125 0)"/>
      <use xlink:href="#DejaVuSans-4d" transform="translate(732.365234 0)"/>
      <use xlink:href="#DejaVuSans-41" transform="translate(818.644531 0)"/>
      <use xlink:href="#DejaVuSans-45" transform="translate(887.052734 0)"/>
      <use xlink:href="#DejaVuSans-3a" transform="translate(950.236328 0)"/>
      <use xlink:href="#DejaVuSans-20" transform="translate(983.927734 0)"/>
      <use xlink:href="#DejaVuSans-30" transform="translate(1015.714844 0)"/>
      <use xlink:href="#DejaVuSans-2e" transform="translate(1079.337891 0)"/>
      <use xlink:href="#DejaVuSans-33" transform="translate(1111.125 0)"/>
      <use xlink:href="#DejaVuSans-30" transform="translate(1174.748047 0)"/>
      <use xlink:href="#DejaVuSans-32" transform="translate(1238.371094 0)"/>
     </g>
    </g>
   </g>
  </g>
 </g>
 <defs>
  <clipPath id="pe88f08d206">
   <rect x="72" y="51.84" width="446.4" height="332.64"/>
  </clipPath>
 </defs>
</svg>
