<?xml version="1.0" encoding="utf-8" standalone="no"?>
<!DOCTYPE svg PUBLIC "-//W3C//DTD SVG 1.1//EN"
  "http://www.w3.org/Graphics/SVG/1.1/DTD/svg11.dtd">
<svg xmlns:xlink="http://www.w3.org/1999/xlink" width="720pt" height="432pt" viewBox="0 0 720 432" xmlns="http://www.w3.org/2000/svg" version="1.1">
 <metadata>
  <rdf:RDF xmlns:dc="http://purl.org/dc/elements/1.1/" xmlns:cc="http://creativecommons.org/ns#" xmlns:rdf="http://www.w3.org/1999/02/22-rdf-syntax-ns#">
   <cc:Work>
    <dc:type rdf:resource="http://purl.org/dc/dcmitype/StillImage"/>
    <dc:date>2025-05-23T10:35:22.071999</dc:date>
    <dc:format>image/svg+xml</dc:format>
    <dc:creator>
     <cc:Agent>
      <dc:title>Matplotlib v3.10.0, https://matplotlib.org/</dc:title>
     </cc:Agent>
    </dc:creator>
   </cc:Work>
  </rdf:RDF>
 </metadata>
 <defs>
  <style type="text/css">*{stroke-linejoin: round; stroke-linecap: butt}</style>
 </defs>
 <g id="figure_1">
  <g id="patch_1">
   <path d="M 0 432 
L 720 432 
L 720 0 
L 0 0 
z
" style="fill: #ffffff"/>
  </g>
  <g id="axes_1">
   <g id="patch_2">
    <path d="M 39.68 389.08 
L 709.2 389.08 
L 709.2 27.6 
L 39.68 27.6 
z
" style="fill: #ffffff"/>
   </g>
   <g id="matplotlib.axis_1">
    <g id="xtick_1">
     <g id="line2d_1">
      <path d="M 70.112727 389.08 
L 70.112727 27.6 
" clip-path="url(#p19945b2e28)" style="fill: none; stroke: #b0b0b0; stroke-opacity: 0.3; stroke-width: 0.8; stroke-linecap: square"/>
     </g>
     <g id="line2d_2">
      <defs>
       <path id="m02998ad428" d="M 0 0 
L 0 3.5 
" style="stroke: #000000; stroke-width: 0.8"/>
      </defs>
      <g>
       <use xlink:href="#m02998ad428" x="70.112727" y="389.08" style="stroke: #000000; stroke-width: 0.8"/>
      </g>
     </g>
     <g id="text_1">
      <!-- 0 -->
      <g transform="translate(66.931477 403.678437) scale(0.1 -0.1)">
       <defs>
        <path id="DejaVuSans-30" d="M 2034 4250 
Q 1547 4250 1301 3770 
Q 1056 3291 1056 2328 
Q 1056 1369 1301 889 
Q 1547 409 2034 409 
Q 2525 409 2770 889 
Q 3016 1369 3016 2328 
Q 3016 3291 2770 3770 
Q 2525 4250 2034 4250 
z
M 2034 4750 
Q 2819 4750 3233 4129 
Q 3647 3509 3647 2328 
Q 3647 1150 3233 529 
Q 2819 -91 2034 -91 
Q 1250 -91 836 529 
Q 422 1150 422 2328 
Q 422 3509 836 4129 
Q 1250 4750 2034 4750 
z
" transform="scale(0.015625)"/>
       </defs>
       <use xlink:href="#DejaVuSans-30"/>
      </g>
     </g>
    </g>
    <g id="xtick_2">
     <g id="line2d_3">
      <path d="M 171.894424 389.08 
L 171.894424 27.6 
" clip-path="url(#p19945b2e28)" style="fill: none; stroke: #b0b0b0; stroke-opacity: 0.3; stroke-width: 0.8; stroke-linecap: square"/>
     </g>
     <g id="line2d_4">
      <g>
       <use xlink:href="#m02998ad428" x="171.894424" y="389.08" style="stroke: #000000; stroke-width: 0.8"/>
      </g>
     </g>
     <g id="text_2">
      <!-- 50 -->
      <g transform="translate(165.531924 403.678437) scale(0.1 -0.1)">
       <defs>
        <path id="DejaVuSans-35" d="M 691 4666 
L 3169 4666 
L 3169 4134 
L 1269 4134 
L 1269 2991 
Q 1406 3038 1543 3061 
Q 1681 3084 1819 3084 
Q 2600 3084 3056 2656 
Q 3513 2228 3513 1497 
Q 3513 744 3044 326 
Q 2575 -91 1722 -91 
Q 1428 -91 1123 -41 
Q 819 9 494 109 
L 494 744 
Q 775 591 1075 516 
Q 1375 441 1709 441 
Q 2250 441 2565 725 
Q 2881 1009 2881 1497 
Q 2881 1984 2565 2268 
Q 2250 2553 1709 2553 
Q 1456 2553 1204 2497 
Q 953 2441 691 2322 
L 691 4666 
z
" transform="scale(0.015625)"/>
       </defs>
       <use xlink:href="#DejaVuSans-35"/>
       <use xlink:href="#DejaVuSans-30" transform="translate(63.623047 0)"/>
      </g>
     </g>
    </g>
    <g id="xtick_3">
     <g id="line2d_5">
      <path d="M 273.67612 389.08 
L 273.67612 27.6 
" clip-path="url(#p19945b2e28)" style="fill: none; stroke: #b0b0b0; stroke-opacity: 0.3; stroke-width: 0.8; stroke-linecap: square"/>
     </g>
     <g id="line2d_6">
      <g>
       <use xlink:href="#m02998ad428" x="273.67612" y="389.08" style="stroke: #000000; stroke-width: 0.8"/>
      </g>
     </g>
     <g id="text_3">
      <!-- 100 -->
      <g transform="translate(264.13237 403.678437) scale(0.1 -0.1)">
       <defs>
        <path id="DejaVuSans-31" d="M 794 531 
L 1825 531 
L 1825 4091 
L 703 3866 
L 703 4441 
L 1819 4666 
L 2450 4666 
L 2450 531 
L 3481 531 
L 3481 0 
L 794 0 
L 794 531 
z
" transform="scale(0.015625)"/>
       </defs>
       <use xlink:href="#DejaVuSans-31"/>
       <use xlink:href="#DejaVuSans-30" transform="translate(63.623047 0)"/>
       <use xlink:href="#DejaVuSans-30" transform="translate(127.246094 0)"/>
      </g>
     </g>
    </g>
    <g id="xtick_4">
     <g id="line2d_7">
      <path d="M 375.457817 389.08 
L 375.457817 27.6 
" clip-path="url(#p19945b2e28)" style="fill: none; stroke: #b0b0b0; stroke-opacity: 0.3; stroke-width: 0.8; stroke-linecap: square"/>
     </g>
     <g id="line2d_8">
      <g>
       <use xlink:href="#m02998ad428" x="375.457817" y="389.08" style="stroke: #000000; stroke-width: 0.8"/>
      </g>
     </g>
     <g id="text_4">
      <!-- 150 -->
      <g transform="translate(365.914067 403.678437) scale(0.1 -0.1)">
       <use xlink:href="#DejaVuSans-31"/>
       <use xlink:href="#DejaVuSans-35" transform="translate(63.623047 0)"/>
       <use xlink:href="#DejaVuSans-30" transform="translate(127.246094 0)"/>
      </g>
     </g>
    </g>
    <g id="xtick_5">
     <g id="line2d_9">
      <path d="M 477.239514 389.08 
L 477.239514 27.6 
" clip-path="url(#p19945b2e28)" style="fill: none; stroke: #b0b0b0; stroke-opacity: 0.3; stroke-width: 0.8; stroke-linecap: square"/>
     </g>
     <g id="line2d_10">
      <g>
       <use xlink:href="#m02998ad428" x="477.239514" y="389.08" style="stroke: #000000; stroke-width: 0.8"/>
      </g>
     </g>
     <g id="text_5">
      <!-- 200 -->
      <g transform="translate(467.695764 403.678437) scale(0.1 -0.1)">
       <defs>
        <path id="DejaVuSans-32" d="M 1228 531 
L 3431 531 
L 3431 0 
L 469 0 
L 469 531 
Q 828 903 1448 1529 
Q 2069 2156 2228 2338 
Q 2531 2678 2651 2914 
Q 2772 3150 2772 3378 
Q 2772 3750 2511 3984 
Q 2250 4219 1831 4219 
Q 1534 4219 1204 4116 
Q 875 4013 500 3803 
L 500 4441 
Q 881 4594 1212 4672 
Q 1544 4750 1819 4750 
Q 2544 4750 2975 4387 
Q 3406 4025 3406 3419 
Q 3406 3131 3298 2873 
Q 3191 2616 2906 2266 
Q 2828 2175 2409 1742 
Q 1991 1309 1228 531 
z
" transform="scale(0.015625)"/>
       </defs>
       <use xlink:href="#DejaVuSans-32"/>
       <use xlink:href="#DejaVuSans-30" transform="translate(63.623047 0)"/>
       <use xlink:href="#DejaVuSans-30" transform="translate(127.246094 0)"/>
      </g>
     </g>
    </g>
    <g id="xtick_6">
     <g id="line2d_11">
      <path d="M 579.02121 389.08 
L 579.02121 27.6 
" clip-path="url(#p19945b2e28)" style="fill: none; stroke: #b0b0b0; stroke-opacity: 0.3; stroke-width: 0.8; stroke-linecap: square"/>
     </g>
     <g id="line2d_12">
      <g>
       <use xlink:href="#m02998ad428" x="579.02121" y="389.08" style="stroke: #000000; stroke-width: 0.8"/>
      </g>
     </g>
     <g id="text_6">
      <!-- 250 -->
      <g transform="translate(569.47746 403.678437) scale(0.1 -0.1)">
       <use xlink:href="#DejaVuSans-32"/>
       <use xlink:href="#DejaVuSans-35" transform="translate(63.623047 0)"/>
       <use xlink:href="#DejaVuSans-30" transform="translate(127.246094 0)"/>
      </g>
     </g>
    </g>
    <g id="xtick_7">
     <g id="line2d_13">
      <path d="M 680.802907 389.08 
L 680.802907 27.6 
" clip-path="url(#p19945b2e28)" style="fill: none; stroke: #b0b0b0; stroke-opacity: 0.3; stroke-width: 0.8; stroke-linecap: square"/>
     </g>
     <g id="line2d_14">
      <g>
       <use xlink:href="#m02998ad428" x="680.802907" y="389.08" style="stroke: #000000; stroke-width: 0.8"/>
      </g>
     </g>
     <g id="text_7">
      <!-- 300 -->
      <g transform="translate(671.259157 403.678437) scale(0.1 -0.1)">
       <defs>
        <path id="DejaVuSans-33" d="M 2597 2516 
Q 3050 2419 3304 2112 
Q 3559 1806 3559 1356 
Q 3559 666 3084 287 
Q 2609 -91 1734 -91 
Q 1441 -91 1130 -33 
Q 819 25 488 141 
L 488 750 
Q 750 597 1062 519 
Q 1375 441 1716 441 
Q 2309 441 2620 675 
Q 2931 909 2931 1356 
Q 2931 1769 2642 2001 
Q 2353 2234 1838 2234 
L 1294 2234 
L 1294 2753 
L 1863 2753 
Q 2328 2753 2575 2939 
Q 2822 3125 2822 3475 
Q 2822 3834 2567 4026 
Q 2313 4219 1838 4219 
Q 1578 4219 1281 4162 
Q 984 4106 628 3988 
L 628 4550 
Q 988 4650 1302 4700 
Q 1616 4750 1894 4750 
Q 2613 4750 3031 4423 
Q 3450 4097 3450 3541 
Q 3450 3153 3228 2886 
Q 3006 2619 2597 2516 
z
" transform="scale(0.015625)"/>
       </defs>
       <use xlink:href="#DejaVuSans-33"/>
       <use xlink:href="#DejaVuSans-30" transform="translate(63.623047 0)"/>
       <use xlink:href="#DejaVuSans-30" transform="translate(127.246094 0)"/>
      </g>
     </g>
    </g>
    <g id="text_8">
     <!-- Epoch -->
     <g transform="translate(356.066875 418.87625) scale(0.12 -0.12)">
      <defs>
       <path id="DejaVuSans-45" d="M 628 4666 
L 3578 4666 
L 3578 4134 
L 1259 4134 
L 1259 2753 
L 3481 2753 
L 3481 2222 
L 1259 2222 
L 1259 531 
L 3634 531 
L 3634 0 
L 628 0 
L 628 4666 
z
" transform="scale(0.015625)"/>
       <path id="DejaVuSans-70" d="M 1159 525 
L 1159 -1331 
L 581 -1331 
L 581 3500 
L 1159 3500 
L 1159 2969 
Q 1341 3281 1617 3432 
Q 1894 3584 2278 3584 
Q 2916 3584 3314 3078 
Q 3713 2572 3713 1747 
Q 3713 922 3314 415 
Q 2916 -91 2278 -91 
Q 1894 -91 1617 61 
Q 1341 213 1159 525 
z
M 3116 1747 
Q 3116 2381 2855 2742 
Q 2594 3103 2138 3103 
Q 1681 3103 1420 2742 
Q 1159 2381 1159 1747 
Q 1159 1113 1420 752 
Q 1681 391 2138 391 
Q 2594 391 2855 752 
Q 3116 1113 3116 1747 
z
" transform="scale(0.015625)"/>
       <path id="DejaVuSans-6f" d="M 1959 3097 
Q 1497 3097 1228 2736 
Q 959 2375 959 1747 
Q 959 1119 1226 758 
Q 1494 397 1959 397 
Q 2419 397 2687 759 
Q 2956 1122 2956 1747 
Q 2956 2369 2687 2733 
Q 2419 3097 1959 3097 
z
M 1959 3584 
Q 2709 3584 3137 3096 
Q 3566 2609 3566 1747 
Q 3566 888 3137 398 
Q 2709 -91 1959 -91 
Q 1206 -91 779 398 
Q 353 888 353 1747 
Q 353 2609 779 3096 
Q 1206 3584 1959 3584 
z
" transform="scale(0.015625)"/>
       <path id="DejaVuSans-63" d="M 3122 3366 
L 3122 2828 
Q 2878 2963 2633 3030 
Q 2388 3097 2138 3097 
Q 1578 3097 1268 2742 
Q 959 2388 959 1747 
Q 959 1106 1268 751 
Q 1578 397 2138 397 
Q 2388 397 2633 464 
Q 2878 531 3122 666 
L 3122 134 
Q 2881 22 2623 -34 
Q 2366 -91 2075 -91 
Q 1284 -91 818 406 
Q 353 903 353 1747 
Q 353 2603 823 3093 
Q 1294 3584 2113 3584 
Q 2378 3584 2631 3529 
Q 2884 3475 3122 3366 
z
" transform="scale(0.015625)"/>
       <path id="DejaVuSans-68" d="M 3513 2113 
L 3513 0 
L 2938 0 
L 2938 2094 
Q 2938 2591 2744 2837 
Q 2550 3084 2163 3084 
Q 1697 3084 1428 2787 
Q 1159 2491 1159 1978 
L 1159 0 
L 581 0 
L 581 4863 
L 1159 4863 
L 1159 2956 
Q 1366 3272 1645 3428 
Q 1925 3584 2291 3584 
Q 2894 3584 3203 3211 
Q 3513 2838 3513 2113 
z
" transform="scale(0.015625)"/>
      </defs>
      <use xlink:href="#DejaVuSans-45"/>
      <use xlink:href="#DejaVuSans-70" transform="translate(63.183594 0)"/>
      <use xlink:href="#DejaVuSans-6f" transform="translate(126.660156 0)"/>
      <use xlink:href="#DejaVuSans-63" transform="translate(187.841797 0)"/>
      <use xlink:href="#DejaVuSans-68" transform="translate(242.822266 0)"/>
     </g>
    </g>
   </g>
   <g id="matplotlib.axis_2">
    <g id="ytick_1">
     <g id="line2d_15">
      <path d="M 39.68 373.0941 
L 709.2 373.0941 
" clip-path="url(#p19945b2e28)" style="fill: none; stroke: #b0b0b0; stroke-opacity: 0.3; stroke-width: 0.8; stroke-linecap: square"/>
     </g>
     <g id="line2d_16">
      <defs>
       <path id="m4d9053c368" d="M 0 0 
L -3.5 0 
" style="stroke: #000000; stroke-width: 0.8"/>
      </defs>
      <g>
       <use xlink:href="#m4d9053c368" x="39.68" y="373.0941" style="stroke: #000000; stroke-width: 0.8"/>
      </g>
     </g>
     <g id="text_9">
      <!-- 0 -->
      <g transform="translate(26.3175 376.893319) scale(0.1 -0.1)">
       <use xlink:href="#DejaVuSans-30"/>
      </g>
     </g>
    </g>
    <g id="ytick_2">
     <g id="line2d_17">
      <path d="M 39.68 332.560116 
L 709.2 332.560116 
" clip-path="url(#p19945b2e28)" style="fill: none; stroke: #b0b0b0; stroke-opacity: 0.3; stroke-width: 0.8; stroke-linecap: square"/>
     </g>
     <g id="line2d_18">
      <g>
       <use xlink:href="#m4d9053c368" x="39.68" y="332.560116" style="stroke: #000000; stroke-width: 0.8"/>
      </g>
     </g>
     <g id="text_10">
      <!-- 1 -->
      <g transform="translate(26.3175 336.359335) scale(0.1 -0.1)">
       <use xlink:href="#DejaVuSans-31"/>
      </g>
     </g>
    </g>
    <g id="ytick_3">
     <g id="line2d_19">
      <path d="M 39.68 292.026133 
L 709.2 292.026133 
" clip-path="url(#p19945b2e28)" style="fill: none; stroke: #b0b0b0; stroke-opacity: 0.3; stroke-width: 0.8; stroke-linecap: square"/>
     </g>
     <g id="line2d_20">
      <g>
       <use xlink:href="#m4d9053c368" x="39.68" y="292.026133" style="stroke: #000000; stroke-width: 0.8"/>
      </g>
     </g>
     <g id="text_11">
      <!-- 2 -->
      <g transform="translate(26.3175 295.825351) scale(0.1 -0.1)">
       <use xlink:href="#DejaVuSans-32"/>
      </g>
     </g>
    </g>
    <g id="ytick_4">
     <g id="line2d_21">
      <path d="M 39.68 251.492149 
L 709.2 251.492149 
" clip-path="url(#p19945b2e28)" style="fill: none; stroke: #b0b0b0; stroke-opacity: 0.3; stroke-width: 0.8; stroke-linecap: square"/>
     </g>
     <g id="line2d_22">
      <g>
       <use xlink:href="#m4d9053c368" x="39.68" y="251.492149" style="stroke: #000000; stroke-width: 0.8"/>
      </g>
     </g>
     <g id="text_12">
      <!-- 3 -->
      <g transform="translate(26.3175 255.291368) scale(0.1 -0.1)">
       <use xlink:href="#DejaVuSans-33"/>
      </g>
     </g>
    </g>
    <g id="ytick_5">
     <g id="line2d_23">
      <path d="M 39.68 210.958165 
L 709.2 210.958165 
" clip-path="url(#p19945b2e28)" style="fill: none; stroke: #b0b0b0; stroke-opacity: 0.3; stroke-width: 0.8; stroke-linecap: square"/>
     </g>
     <g id="line2d_24">
      <g>
       <use xlink:href="#m4d9053c368" x="39.68" y="210.958165" style="stroke: #000000; stroke-width: 0.8"/>
      </g>
     </g>
     <g id="text_13">
      <!-- 4 -->
      <g transform="translate(26.3175 214.757384) scale(0.1 -0.1)">
       <defs>
        <path id="DejaVuSans-34" d="M 2419 4116 
L 825 1625 
L 2419 1625 
L 2419 4116 
z
M 2253 4666 
L 3047 4666 
L 3047 1625 
L 3713 1625 
L 3713 1100 
L 3047 1100 
L 3047 0 
L 2419 0 
L 2419 1100 
L 313 1100 
L 313 1709 
L 2253 4666 
z
" transform="scale(0.015625)"/>
       </defs>
       <use xlink:href="#DejaVuSans-34"/>
      </g>
     </g>
    </g>
    <g id="ytick_6">
     <g id="line2d_25">
      <path d="M 39.68 170.424182 
L 709.2 170.424182 
" clip-path="url(#p19945b2e28)" style="fill: none; stroke: #b0b0b0; stroke-opacity: 0.3; stroke-width: 0.8; stroke-linecap: square"/>
     </g>
     <g id="line2d_26">
      <g>
       <use xlink:href="#m4d9053c368" x="39.68" y="170.424182" style="stroke: #000000; stroke-width: 0.8"/>
      </g>
     </g>
     <g id="text_14">
      <!-- 5 -->
      <g transform="translate(26.3175 174.223401) scale(0.1 -0.1)">
       <use xlink:href="#DejaVuSans-35"/>
      </g>
     </g>
    </g>
    <g id="ytick_7">
     <g id="line2d_27">
      <path d="M 39.68 129.890198 
L 709.2 129.890198 
" clip-path="url(#p19945b2e28)" style="fill: none; stroke: #b0b0b0; stroke-opacity: 0.3; stroke-width: 0.8; stroke-linecap: square"/>
     </g>
     <g id="line2d_28">
      <g>
       <use xlink:href="#m4d9053c368" x="39.68" y="129.890198" style="stroke: #000000; stroke-width: 0.8"/>
      </g>
     </g>
     <g id="text_15">
      <!-- 6 -->
      <g transform="translate(26.3175 133.689417) scale(0.1 -0.1)">
       <defs>
        <path id="DejaVuSans-36" d="M 2113 2584 
Q 1688 2584 1439 2293 
Q 1191 2003 1191 1497 
Q 1191 994 1439 701 
Q 1688 409 2113 409 
Q 2538 409 2786 701 
Q 3034 994 3034 1497 
Q 3034 2003 2786 2293 
Q 2538 2584 2113 2584 
z
M 3366 4563 
L 3366 3988 
Q 3128 4100 2886 4159 
Q 2644 4219 2406 4219 
Q 1781 4219 1451 3797 
Q 1122 3375 1075 2522 
Q 1259 2794 1537 2939 
Q 1816 3084 2150 3084 
Q 2853 3084 3261 2657 
Q 3669 2231 3669 1497 
Q 3669 778 3244 343 
Q 2819 -91 2113 -91 
Q 1303 -91 875 529 
Q 447 1150 447 2328 
Q 447 3434 972 4092 
Q 1497 4750 2381 4750 
Q 2619 4750 2861 4703 
Q 3103 4656 3366 4563 
z
" transform="scale(0.015625)"/>
       </defs>
       <use xlink:href="#DejaVuSans-36"/>
      </g>
     </g>
    </g>
    <g id="ytick_8">
     <g id="line2d_29">
      <path d="M 39.68 89.356215 
L 709.2 89.356215 
" clip-path="url(#p19945b2e28)" style="fill: none; stroke: #b0b0b0; stroke-opacity: 0.3; stroke-width: 0.8; stroke-linecap: square"/>
     </g>
     <g id="line2d_30">
      <g>
       <use xlink:href="#m4d9053c368" x="39.68" y="89.356215" style="stroke: #000000; stroke-width: 0.8"/>
      </g>
     </g>
     <g id="text_16">
      <!-- 7 -->
      <g transform="translate(26.3175 93.155433) scale(0.1 -0.1)">
       <defs>
        <path id="DejaVuSans-37" d="M 525 4666 
L 3525 4666 
L 3525 4397 
L 1831 0 
L 1172 0 
L 2766 4134 
L 525 4134 
L 525 4666 
z
" transform="scale(0.015625)"/>
       </defs>
       <use xlink:href="#DejaVuSans-37"/>
      </g>
     </g>
    </g>
    <g id="ytick_9">
     <g id="line2d_31">
      <path d="M 39.68 48.822231 
L 709.2 48.822231 
" clip-path="url(#p19945b2e28)" style="fill: none; stroke: #b0b0b0; stroke-opacity: 0.3; stroke-width: 0.8; stroke-linecap: square"/>
     </g>
     <g id="line2d_32">
      <g>
       <use xlink:href="#m4d9053c368" x="39.68" y="48.822231" style="stroke: #000000; stroke-width: 0.8"/>
      </g>
     </g>
     <g id="text_17">
      <!-- 8 -->
      <g transform="translate(26.3175 52.62145) scale(0.1 -0.1)">
       <defs>
        <path id="DejaVuSans-38" d="M 2034 2216 
Q 1584 2216 1326 1975 
Q 1069 1734 1069 1313 
Q 1069 891 1326 650 
Q 1584 409 2034 409 
Q 2484 409 2743 651 
Q 3003 894 3003 1313 
Q 3003 1734 2745 1975 
Q 2488 2216 2034 2216 
z
M 1403 2484 
Q 997 2584 770 2862 
Q 544 3141 544 3541 
Q 544 4100 942 4425 
Q 1341 4750 2034 4750 
Q 2731 4750 3128 4425 
Q 3525 4100 3525 3541 
Q 3525 3141 3298 2862 
Q 3072 2584 2669 2484 
Q 3125 2378 3379 2068 
Q 3634 1759 3634 1313 
Q 3634 634 3220 271 
Q 2806 -91 2034 -91 
Q 1263 -91 848 271 
Q 434 634 434 1313 
Q 434 1759 690 2068 
Q 947 2378 1403 2484 
z
M 1172 3481 
Q 1172 3119 1398 2916 
Q 1625 2713 2034 2713 
Q 2441 2713 2670 2916 
Q 2900 3119 2900 3481 
Q 2900 3844 2670 4047 
Q 2441 4250 2034 4250 
Q 1625 4250 1398 4047 
Q 1172 3844 1172 3481 
z
" transform="scale(0.015625)"/>
       </defs>
       <use xlink:href="#DejaVuSans-38"/>
      </g>
     </g>
    </g>
    <g id="text_18">
     <!-- Loss -->
     <g transform="translate(19.821875 221.500625) rotate(-90) scale(0.12 -0.12)">
      <defs>
       <path id="DejaVuSans-4c" d="M 628 4666 
L 1259 4666 
L 1259 531 
L 3531 531 
L 3531 0 
L 628 0 
L 628 4666 
z
" transform="scale(0.015625)"/>
       <path id="DejaVuSans-73" d="M 2834 3397 
L 2834 2853 
Q 2591 2978 2328 3040 
Q 2066 3103 1784 3103 
Q 1356 3103 1142 2972 
Q 928 2841 928 2578 
Q 928 2378 1081 2264 
Q 1234 2150 1697 2047 
L 1894 2003 
Q 2506 1872 2764 1633 
Q 3022 1394 3022 966 
Q 3022 478 2636 193 
Q 2250 -91 1575 -91 
Q 1294 -91 989 -36 
Q 684 19 347 128 
L 347 722 
Q 666 556 975 473 
Q 1284 391 1588 391 
Q 1994 391 2212 530 
Q 2431 669 2431 922 
Q 2431 1156 2273 1281 
Q 2116 1406 1581 1522 
L 1381 1569 
Q 847 1681 609 1914 
Q 372 2147 372 2553 
Q 372 3047 722 3315 
Q 1072 3584 1716 3584 
Q 2034 3584 2315 3537 
Q 2597 3491 2834 3397 
z
" transform="scale(0.015625)"/>
      </defs>
      <use xlink:href="#DejaVuSans-4c"/>
      <use xlink:href="#DejaVuSans-6f" transform="translate(53.962891 0)"/>
      <use xlink:href="#DejaVuSans-73" transform="translate(115.144531 0)"/>
      <use xlink:href="#DejaVuSans-73" transform="translate(167.244141 0)"/>
     </g>
    </g>
   </g>
   <g id="line2d_33">
    <path d="M 70.112727 49.377873 
L 72.148361 193.482576 
L 76.219629 336.898682 
L 78.255263 331.438296 
L 80.290897 323.492565 
L 82.326531 354.643722 
L 84.362165 355.179636 
L 86.397799 334.622271 
L 88.433433 358.894502 
L 90.469067 358.149135 
L 92.504701 360.85598 
L 94.540334 357.653352 
L 96.575968 362.071581 
L 98.611602 362.578355 
L 100.647236 362.359585 
L 102.68287 363.495052 
L 104.718504 364.397627 
L 106.754138 365.655726 
L 108.789772 365.484848 
L 110.825406 364.468454 
L 112.86104 366.650837 
L 114.896674 363.878622 
L 116.932308 365.047378 
L 118.967942 364.738535 
L 123.039209 367.665826 
L 125.074843 368.592414 
L 127.110477 368.483349 
L 129.146111 367.223186 
L 131.181745 368.13978 
L 133.217379 364.597193 
L 135.253013 363.104221 
L 137.288647 368.846915 
L 139.324281 367.779252 
L 141.359915 368.847326 
L 143.395549 365.736725 
L 145.431183 368.33564 
L 147.466817 368.041896 
L 149.502451 367.581949 
L 151.538085 369.196414 
L 153.573718 365.145767 
L 155.609352 369.49957 
L 157.644986 368.308793 
L 159.68062 369.497099 
L 161.716254 369.702436 
L 163.751888 367.02991 
L 165.787522 366.945469 
L 167.823156 368.813771 
L 169.85879 368.227806 
L 171.894424 369.961043 
L 173.930058 369.875022 
L 175.965692 368.805213 
L 178.001326 370.033847 
L 180.03696 365.346082 
L 182.072593 369.891195 
L 184.108227 369.398692 
L 186.143861 369.072272 
L 188.179495 366.295746 
L 190.215129 370.18755 
L 192.250763 368.816301 
L 194.286397 369.324014 
L 196.322031 370.079026 
L 198.357665 367.944083 
L 200.393299 370.173438 
L 202.428933 370.668769 
L 204.464567 369.86401 
L 206.500201 368.216616 
L 208.535835 368.170307 
L 210.571469 370.542978 
L 212.607102 369.461113 
L 214.642736 370.190994 
L 216.67837 370.113101 
L 218.714004 370.176043 
L 220.749638 370.972851 
L 222.785272 369.472942 
L 224.820906 371.199872 
L 226.85654 369.096393 
L 228.892174 371.090248 
L 230.927808 369.535361 
L 232.963442 370.339262 
L 234.999076 370.555197 
L 237.03471 370.472562 
L 239.070344 370.882597 
L 241.105978 370.207055 
L 243.141611 370.925896 
L 245.177245 369.122073 
L 247.212879 369.284473 
L 249.248513 371.727179 
L 251.284147 371.057963 
L 255.355415 370.788795 
L 257.391049 371.67607 
L 259.426683 371.011154 
L 261.462317 371.135586 
L 263.497951 367.182487 
L 265.533585 371.529794 
L 267.569219 371.697591 
L 269.604853 371.436193 
L 271.640486 371.635385 
L 273.67612 371.633483 
L 275.711754 372.033492 
L 277.747388 371.822636 
L 279.783022 371.734873 
L 281.818656 371.081126 
L 285.889924 371.942172 
L 289.961192 371.07431 
L 291.996826 371.879934 
L 294.03246 370.713902 
L 296.068094 370.245711 
L 298.103728 369.650637 
L 300.139362 370.720675 
L 302.174995 370.095023 
L 304.210629 371.081672 
L 306.246263 371.3533 
L 308.281897 367.062958 
L 310.317531 370.318828 
L 312.353165 370.68926 
L 314.388799 371.270465 
L 316.424433 370.652977 
L 318.460067 370.603428 
L 320.495701 371.376314 
L 324.566969 372.075491 
L 326.602603 371.517179 
L 328.638237 372.045081 
L 330.67387 370.418972 
L 332.709504 372.225694 
L 334.745138 371.59516 
L 336.780772 372.024437 
L 340.85204 370.257183 
L 342.887674 371.293617 
L 344.923308 367.443712 
L 346.958942 370.508779 
L 348.994576 372.2218 
L 351.03021 370.913095 
L 353.065844 366.004979 
L 355.101478 372.327189 
L 357.137112 368.527779 
L 359.172746 370.821438 
L 361.208379 372.126247 
L 363.244013 371.040062 
L 365.279647 369.25116 
L 367.315281 370.7963 
L 369.350915 371.616932 
L 371.386549 371.691338 
L 373.422183 368.946633 
L 375.457817 370.618729 
L 377.493451 370.304299 
L 379.529085 372.4813 
L 381.564719 372.339699 
L 383.600353 371.67603 
L 385.635987 371.890692 
L 387.671621 369.13944 
L 389.707254 371.829292 
L 391.742888 372.112944 
L 393.778522 371.622632 
L 395.814156 370.86883 
L 397.84979 372.116618 
L 399.885424 371.224648 
L 401.921058 371.601995 
L 403.956692 368.163427 
L 405.992326 367.395879 
L 408.02796 368.762472 
L 410.063594 367.689202 
L 412.099228 369.659858 
L 414.134862 363.907784 
L 416.170496 371.190682 
L 418.20613 370.246597 
L 420.241763 371.506751 
L 422.277397 371.762231 
L 424.313031 369.898492 
L 426.348665 371.633635 
L 428.384299 371.556188 
L 430.419933 372.039115 
L 432.455567 368.408391 
L 434.491201 370.218486 
L 436.526835 360.89675 
L 438.562469 371.111605 
L 440.598103 367.038629 
L 442.633737 371.823492 
L 444.669371 371.802379 
L 446.705005 367.719571 
L 448.740638 371.149948 
L 450.776272 372.408498 
L 452.811906 365.846521 
L 454.84754 363.130662 
L 456.883174 369.096688 
L 458.918808 371.771652 
L 460.954442 369.759591 
L 462.990076 371.969445 
L 465.02571 369.109547 
L 467.061344 367.593704 
L 469.096978 359.768722 
L 471.132612 369.487081 
L 473.168246 370.464844 
L 475.20388 365.182518 
L 477.239514 371.437877 
L 479.275147 367.621213 
L 481.310781 371.32976 
L 483.346415 369.754514 
L 485.382049 368.872944 
L 487.417683 370.15993 
L 489.453317 371.125305 
L 491.488951 364.268123 
L 493.524585 371.567082 
L 495.560219 368.084876 
L 497.595853 371.246676 
L 499.631487 372.208997 
L 501.667121 369.051702 
L 503.702755 368.598754 
L 505.738389 371.709303 
L 507.774022 371.512069 
L 509.809656 369.916308 
L 511.84529 370.286118 
L 513.880924 371.794093 
L 515.916558 372.605055 
L 517.952192 372.322915 
L 519.987826 370.912985 
L 522.02346 368.037779 
L 524.059094 371.827721 
L 526.094728 372.492711 
L 528.130362 372.241077 
L 530.165996 372.569791 
L 532.20163 370.193111 
L 534.237264 372.397374 
L 536.272898 367.92132 
L 538.308531 371.440711 
L 540.344165 368.237209 
L 542.379799 366.510221 
L 544.415433 372.236648 
L 546.451067 367.496729 
L 548.486701 366.018735 
L 550.522335 371.273908 
L 552.557969 372.017705 
L 554.593603 371.406047 
L 558.664871 372.649091 
L 560.700505 371.442247 
L 562.736139 371.426362 
L 564.771773 367.556048 
L 566.807407 367.420149 
L 568.84304 372.045485 
L 570.878674 371.89664 
L 572.914308 371.29055 
L 574.949942 372.259382 
L 579.02121 370.070444 
L 581.056844 371.515131 
L 583.092478 371.628299 
L 585.128112 372.205717 
L 587.163746 371.243282 
L 589.19938 369.698638 
L 591.235014 367.202353 
L 593.270648 370.962962 
L 595.306282 371.023604 
L 597.341915 370.844961 
L 599.377549 371.773061 
L 601.413183 370.777204 
L 603.448817 370.675028 
L 605.484451 367.959651 
L 607.520085 369.749564 
L 609.555719 370.847921 
L 611.591353 367.082336 
L 613.626987 372.04354 
L 615.662621 371.80959 
L 617.698255 368.570094 
L 619.733889 367.71439 
L 621.769523 369.065518 
L 623.805157 365.860398 
L 625.840791 365.206454 
L 627.876424 369.403165 
L 629.912058 371.572954 
L 631.947692 370.773397 
L 633.983326 367.956774 
L 636.01896 371.860803 
L 638.054594 370.415438 
L 640.090228 369.805104 
L 642.125862 369.341568 
L 644.161496 369.914862 
L 646.19713 371.014376 
L 648.232764 362.934973 
L 650.268398 369.75551 
L 652.304032 368.085402 
L 654.339666 370.820108 
L 656.375299 370.255066 
L 658.410933 372.328108 
L 660.446567 370.261259 
L 662.482201 369.891319 
L 664.517835 369.906495 
L 666.553469 371.293598 
L 668.589103 361.784671 
L 670.624737 369.986168 
L 672.660371 371.738084 
L 674.696005 367.752756 
L 676.731639 371.15535 
L 678.767273 372.170887 
L 678.767273 372.170887 
" clip-path="url(#p19945b2e28)" style="fill: none; stroke: #0000ff; stroke-width: 2; stroke-linecap: square"/>
   </g>
   <g id="line2d_34">
    <path d="M 70.112727 44.030909 
L 72.148361 192.69238 
L 74.183995 252.593743 
L 76.219629 334.850233 
L 78.255263 324.750955 
L 80.290897 317.157498 
L 82.326531 353.872026 
L 84.362165 352.840724 
L 86.397799 331.137997 
L 88.433433 357.906676 
L 90.469067 356.843182 
L 92.504701 360.265554 
L 94.540334 356.386683 
L 96.575968 361.616269 
L 98.611602 362.610316 
L 100.647236 360.623749 
L 102.68287 362.036913 
L 104.718504 362.961265 
L 106.754138 363.495457 
L 108.789772 363.472175 
L 110.825406 362.012867 
L 112.86104 364.744654 
L 114.896674 361.147694 
L 116.932308 362.26931 
L 118.967942 360.337515 
L 121.003576 362.732419 
L 125.074843 365.173917 
L 127.110477 364.630755 
L 129.146111 363.401124 
L 131.181745 363.965258 
L 133.217379 359.51189 
L 135.253013 358.534557 
L 137.288647 364.08844 
L 139.324281 363.411918 
L 141.359915 364.816445 
L 143.395549 361.913014 
L 145.431183 364.121241 
L 147.466817 363.538165 
L 149.502451 363.220225 
L 151.538085 364.868595 
L 153.573718 361.179235 
L 155.609352 364.754673 
L 157.644986 363.384578 
L 159.68062 365.36937 
L 161.716254 365.190784 
L 163.751888 362.841341 
L 165.787522 362.649837 
L 167.823156 365.101044 
L 169.85879 363.078309 
L 171.894424 365.595046 
L 173.930058 365.987237 
L 175.965692 364.820779 
L 178.001326 365.531344 
L 180.03696 361.976091 
L 182.072593 365.312293 
L 186.143861 364.923792 
L 188.179495 361.6051 
L 190.215129 365.630321 
L 192.250763 364.749779 
L 194.286397 365.56244 
L 196.322031 365.806516 
L 198.357665 363.797679 
L 200.393299 366.049525 
L 202.428933 366.427384 
L 204.464567 365.677582 
L 206.500201 364.495077 
L 208.535835 364.610648 
L 210.571469 366.456861 
L 212.607102 365.343664 
L 214.642736 365.461522 
L 216.67837 365.902743 
L 218.714004 365.941573 
L 220.749638 366.389562 
L 222.785272 364.958988 
L 224.820906 366.58593 
L 226.85654 365.436558 
L 228.892174 367.06065 
L 230.927808 365.692599 
L 232.963442 366.403801 
L 234.999076 365.916419 
L 237.03471 366.156602 
L 239.070344 366.54108 
L 241.105978 365.709511 
L 243.141611 366.293132 
L 245.177245 364.713841 
L 247.212879 364.762383 
L 249.248513 367.426405 
L 251.284147 366.953208 
L 253.319781 366.981176 
L 255.355415 366.728821 
L 257.391049 367.658727 
L 259.426683 366.573827 
L 261.462317 366.59705 
L 263.497951 363.022767 
L 265.533585 367.036846 
L 267.569219 367.247644 
L 269.604853 366.981484 
L 271.640486 367.031209 
L 275.711754 367.403835 
L 277.747388 367.10417 
L 279.783022 367.203466 
L 281.818656 366.759839 
L 283.85429 366.83677 
L 285.889924 366.781028 
L 287.925558 366.935539 
L 289.961192 366.236269 
L 291.996826 367.01308 
L 294.03246 365.362403 
L 296.068094 365.623083 
L 298.103728 365.463537 
L 300.139362 365.784022 
L 302.174995 365.016054 
L 304.210629 366.32653 
L 306.246263 366.973595 
L 308.281897 362.039184 
L 310.317531 365.474252 
L 312.353165 366.356757 
L 314.388799 366.943786 
L 316.424433 366.381978 
L 318.460067 365.33892 
L 320.495701 366.443597 
L 322.531335 366.732868 
L 324.566969 367.213214 
L 326.602603 366.840135 
L 328.638237 367.176153 
L 330.67387 365.993213 
L 332.709504 367.52923 
L 334.745138 366.954699 
L 336.780772 367.539544 
L 338.816406 366.653261 
L 340.85204 366.066707 
L 342.887674 366.694724 
L 344.923308 364.019377 
L 346.958942 366.094507 
L 348.994576 367.622636 
L 351.03021 366.335159 
L 353.065844 363.054769 
L 355.101478 367.893626 
L 357.137112 365.219924 
L 359.172746 366.606099 
L 361.208379 367.698987 
L 363.244013 366.706812 
L 365.279647 365.44799 
L 367.315281 366.992643 
L 369.350915 366.883907 
L 371.386549 366.992423 
L 373.422183 364.603087 
L 375.457817 366.177321 
L 377.493451 365.983579 
L 379.529085 367.424153 
L 381.564719 367.513815 
L 383.600353 366.774022 
L 385.635987 367.176664 
L 387.671621 365.498246 
L 389.707254 367.383248 
L 391.742888 367.464714 
L 393.778522 367.345872 
L 395.814156 367.040121 
L 397.84979 367.58084 
L 399.885424 366.815168 
L 401.921058 367.111467 
L 403.956692 364.254653 
L 405.992326 363.611748 
L 408.02796 364.941032 
L 410.063594 363.761961 
L 412.099228 366.016697 
L 414.134862 361.210488 
L 416.170496 366.886393 
L 418.20613 366.232173 
L 420.241763 367.23129 
L 422.277397 367.255034 
L 424.313031 366.133631 
L 426.348665 367.313422 
L 428.384299 366.97847 
L 430.419933 367.212443 
L 432.455567 364.670453 
L 434.491201 366.140385 
L 436.526835 359.255543 
L 438.562469 366.665664 
L 440.598103 363.68857 
L 442.633737 367.295965 
L 444.669371 366.781055 
L 446.705005 363.661255 
L 448.740638 366.445154 
L 450.776272 367.524212 
L 452.811906 362.203146 
L 454.84754 358.977682 
L 456.883174 364.850486 
L 458.918808 367.054145 
L 460.954442 365.445 
L 462.990076 367.360753 
L 465.02571 365.266161 
L 467.061344 363.3905 
L 469.096978 357.976696 
L 471.132612 364.980113 
L 473.168246 366.073189 
L 475.20388 362.614303 
L 477.239514 366.966722 
L 479.275147 364.341282 
L 481.310781 366.914313 
L 483.346415 365.586255 
L 485.382049 364.853928 
L 487.417683 365.970429 
L 489.453317 366.646619 
L 491.488951 362.10598 
L 493.524585 367.15653 
L 495.560219 364.711776 
L 497.595853 366.968079 
L 499.631487 367.572246 
L 501.667121 365.774701 
L 503.702755 365.347556 
L 505.738389 367.378165 
L 507.774022 367.340943 
L 509.809656 366.055435 
L 511.84529 366.231321 
L 515.916558 367.741305 
L 517.952192 367.591344 
L 519.987826 366.693075 
L 522.02346 364.691231 
L 524.059094 367.395579 
L 526.094728 367.733852 
L 528.130362 367.48415 
L 530.165996 367.782277 
L 532.20163 366.088687 
L 534.237264 367.631459 
L 536.272898 364.867925 
L 538.308531 366.887435 
L 540.344165 365.012585 
L 542.379799 363.744107 
L 544.415433 367.527742 
L 546.451067 364.716632 
L 548.486701 363.831638 
L 550.522335 367.022979 
L 552.557969 367.338543 
L 554.593603 366.928112 
L 556.629237 367.408878 
L 558.664871 367.747191 
L 560.700505 366.973143 
L 562.736139 366.925384 
L 564.771773 364.445157 
L 566.807407 364.480107 
L 568.84304 367.455176 
L 570.878674 367.335892 
L 572.914308 366.946715 
L 574.949942 367.476403 
L 579.02121 366.321834 
L 581.056844 367.076015 
L 583.092478 367.160771 
L 585.128112 367.531866 
L 587.163746 366.944355 
L 589.19938 366.048595 
L 591.235014 364.492459 
L 593.270648 366.754451 
L 595.306282 366.876637 
L 597.341915 366.735871 
L 599.377549 367.232124 
L 601.413183 366.674913 
L 603.448817 366.811835 
L 605.484451 365.061098 
L 607.520085 366.308238 
L 609.555719 366.87762 
L 611.591353 364.694152 
L 613.626987 367.51169 
L 615.662621 367.291755 
L 617.698255 365.567063 
L 619.733889 364.985043 
L 621.769523 365.835703 
L 623.805157 364.187671 
L 625.840791 363.41328 
L 627.876424 366.048754 
L 629.912058 367.249907 
L 631.947692 366.829494 
L 633.983326 365.207378 
L 636.01896 367.385132 
L 638.054594 366.673478 
L 642.125862 366.014343 
L 644.161496 366.344046 
L 646.19713 367.002637 
L 648.232764 362.519562 
L 650.268398 366.352924 
L 652.304032 365.446228 
L 654.339666 366.900136 
L 656.375299 366.58818 
L 658.410933 367.676094 
L 660.446567 366.604743 
L 662.482201 366.362231 
L 664.517835 366.360962 
L 666.553469 367.035068 
L 668.589103 361.766319 
L 670.624737 366.253681 
L 672.660371 367.385082 
L 674.696005 365.153708 
L 676.731639 367.019214 
L 678.767273 367.596279 
L 678.767273 367.596279 
" clip-path="url(#p19945b2e28)" style="fill: none; stroke: #ffa500; stroke-width: 2; stroke-linecap: square"/>
   </g>
   <g id="patch_3">
    <path d="M 39.68 389.08 
L 39.68 27.6 
" style="fill: none; stroke: #000000; stroke-width: 0.8; stroke-linejoin: miter; stroke-linecap: square"/>
   </g>
   <g id="patch_4">
    <path d="M 709.2 389.08 
L 709.2 27.6 
" style="fill: none; stroke: #000000; stroke-width: 0.8; stroke-linejoin: miter; stroke-linecap: square"/>
   </g>
   <g id="patch_5">
    <path d="M 39.68 389.08 
L 709.2 389.08 
" style="fill: none; stroke: #000000; stroke-width: 0.8; stroke-linejoin: miter; stroke-linecap: square"/>
   </g>
   <g id="patch_6">
    <path d="M 39.68 27.6 
L 709.2 27.6 
" style="fill: none; stroke: #000000; stroke-width: 0.8; stroke-linejoin: miter; stroke-linecap: square"/>
   </g>
   <g id="text_19">
    <!-- Training vs Validation Loss - ALIGNN -->
    <g transform="translate(248.812969 21.6) scale(0.14 -0.14)">
     <defs>
      <path id="DejaVuSans-54" d="M -19 4666 
L 3928 4666 
L 3928 4134 
L 2272 4134 
L 2272 0 
L 1638 0 
L 1638 4134 
L -19 4134 
L -19 4666 
z
" transform="scale(0.015625)"/>
      <path id="DejaVuSans-72" d="M 2631 2963 
Q 2534 3019 2420 3045 
Q 2306 3072 2169 3072 
Q 1681 3072 1420 2755 
Q 1159 2438 1159 1844 
L 1159 0 
L 581 0 
L 581 3500 
L 1159 3500 
L 1159 2956 
Q 1341 3275 1631 3429 
Q 1922 3584 2338 3584 
Q 2397 3584 2469 3576 
Q 2541 3569 2628 3553 
L 2631 2963 
z
" transform="scale(0.015625)"/>
      <path id="DejaVuSans-61" d="M 2194 1759 
Q 1497 1759 1228 1600 
Q 959 1441 959 1056 
Q 959 750 1161 570 
Q 1363 391 1709 391 
Q 2188 391 2477 730 
Q 2766 1069 2766 1631 
L 2766 1759 
L 2194 1759 
z
M 3341 1997 
L 3341 0 
L 2766 0 
L 2766 531 
Q 2569 213 2275 61 
Q 1981 -91 1556 -91 
Q 1019 -91 701 211 
Q 384 513 384 1019 
Q 384 1609 779 1909 
Q 1175 2209 1959 2209 
L 2766 2209 
L 2766 2266 
Q 2766 2663 2505 2880 
Q 2244 3097 1772 3097 
Q 1472 3097 1187 3025 
Q 903 2953 641 2809 
L 641 3341 
Q 956 3463 1253 3523 
Q 1550 3584 1831 3584 
Q 2591 3584 2966 3190 
Q 3341 2797 3341 1997 
z
" transform="scale(0.015625)"/>
      <path id="DejaVuSans-69" d="M 603 3500 
L 1178 3500 
L 1178 0 
L 603 0 
L 603 3500 
z
M 603 4863 
L 1178 4863 
L 1178 4134 
L 603 4134 
L 603 4863 
z
" transform="scale(0.015625)"/>
      <path id="DejaVuSans-6e" d="M 3513 2113 
L 3513 0 
L 2938 0 
L 2938 2094 
Q 2938 2591 2744 2837 
Q 2550 3084 2163 3084 
Q 1697 3084 1428 2787 
Q 1159 2491 1159 1978 
L 1159 0 
L 581 0 
L 581 3500 
L 1159 3500 
L 1159 2956 
Q 1366 3272 1645 3428 
Q 1925 3584 2291 3584 
Q 2894 3584 3203 3211 
Q 3513 2838 3513 2113 
z
" transform="scale(0.015625)"/>
      <path id="DejaVuSans-67" d="M 2906 1791 
Q 2906 2416 2648 2759 
Q 2391 3103 1925 3103 
Q 1463 3103 1205 2759 
Q 947 2416 947 1791 
Q 947 1169 1205 825 
Q 1463 481 1925 481 
Q 2391 481 2648 825 
Q 2906 1169 2906 1791 
z
M 3481 434 
Q 3481 -459 3084 -895 
Q 2688 -1331 1869 -1331 
Q 1566 -1331 1297 -1286 
Q 1028 -1241 775 -1147 
L 775 -588 
Q 1028 -725 1275 -790 
Q 1522 -856 1778 -856 
Q 2344 -856 2625 -561 
Q 2906 -266 2906 331 
L 2906 616 
Q 2728 306 2450 153 
Q 2172 0 1784 0 
Q 1141 0 747 490 
Q 353 981 353 1791 
Q 353 2603 747 3093 
Q 1141 3584 1784 3584 
Q 2172 3584 2450 3431 
Q 2728 3278 2906 2969 
L 2906 3500 
L 3481 3500 
L 3481 434 
z
" transform="scale(0.015625)"/>
      <path id="DejaVuSans-20" transform="scale(0.015625)"/>
      <path id="DejaVuSans-76" d="M 191 3500 
L 800 3500 
L 1894 563 
L 2988 3500 
L 3597 3500 
L 2284 0 
L 1503 0 
L 191 3500 
z
" transform="scale(0.015625)"/>
      <path id="DejaVuSans-56" d="M 1831 0 
L 50 4666 
L 709 4666 
L 2188 738 
L 3669 4666 
L 4325 4666 
L 2547 0 
L 1831 0 
z
" transform="scale(0.015625)"/>
      <path id="DejaVuSans-6c" d="M 603 4863 
L 1178 4863 
L 1178 0 
L 603 0 
L 603 4863 
z
" transform="scale(0.015625)"/>
      <path id="DejaVuSans-64" d="M 2906 2969 
L 2906 4863 
L 3481 4863 
L 3481 0 
L 2906 0 
L 2906 525 
Q 2725 213 2448 61 
Q 2172 -91 1784 -91 
Q 1150 -91 751 415 
Q 353 922 353 1747 
Q 353 2572 751 3078 
Q 1150 3584 1784 3584 
Q 2172 3584 2448 3432 
Q 2725 3281 2906 2969 
z
M 947 1747 
Q 947 1113 1208 752 
Q 1469 391 1925 391 
Q 2381 391 2643 752 
Q 2906 1113 2906 1747 
Q 2906 2381 2643 2742 
Q 2381 3103 1925 3103 
Q 1469 3103 1208 2742 
Q 947 2381 947 1747 
z
" transform="scale(0.015625)"/>
      <path id="DejaVuSans-74" d="M 1172 4494 
L 1172 3500 
L 2356 3500 
L 2356 3053 
L 1172 3053 
L 1172 1153 
Q 1172 725 1289 603 
Q 1406 481 1766 481 
L 2356 481 
L 2356 0 
L 1766 0 
Q 1100 0 847 248 
Q 594 497 594 1153 
L 594 3053 
L 172 3053 
L 172 3500 
L 594 3500 
L 594 4494 
L 1172 4494 
z
" transform="scale(0.015625)"/>
      <path id="DejaVuSans-2d" d="M 313 2009 
L 1997 2009 
L 1997 1497 
L 313 1497 
L 313 2009 
z
" transform="scale(0.015625)"/>
      <path id="DejaVuSans-41" d="M 2188 4044 
L 1331 1722 
L 3047 1722 
L 2188 4044 
z
M 1831 4666 
L 2547 4666 
L 4325 0 
L 3669 0 
L 3244 1197 
L 1141 1197 
L 716 0 
L 50 0 
L 1831 4666 
z
" transform="scale(0.015625)"/>
      <path id="DejaVuSans-49" d="M 628 4666 
L 1259 4666 
L 1259 0 
L 628 0 
L 628 4666 
z
" transform="scale(0.015625)"/>
      <path id="DejaVuSans-47" d="M 3809 666 
L 3809 1919 
L 2778 1919 
L 2778 2438 
L 4434 2438 
L 4434 434 
Q 4069 175 3628 42 
Q 3188 -91 2688 -91 
Q 1594 -91 976 548 
Q 359 1188 359 2328 
Q 359 3472 976 4111 
Q 1594 4750 2688 4750 
Q 3144 4750 3555 4637 
Q 3966 4525 4313 4306 
L 4313 3634 
Q 3963 3931 3569 4081 
Q 3175 4231 2741 4231 
Q 1884 4231 1454 3753 
Q 1025 3275 1025 2328 
Q 1025 1384 1454 906 
Q 1884 428 2741 428 
Q 3075 428 3337 486 
Q 3600 544 3809 666 
z
" transform="scale(0.015625)"/>
      <path id="DejaVuSans-4e" d="M 628 4666 
L 1478 4666 
L 3547 763 
L 3547 4666 
L 4159 4666 
L 4159 0 
L 3309 0 
L 1241 3903 
L 1241 0 
L 628 0 
L 628 4666 
z
" transform="scale(0.015625)"/>
     </defs>
     <use xlink:href="#DejaVuSans-54"/>
     <use xlink:href="#DejaVuSans-72" transform="translate(46.333984 0)"/>
     <use xlink:href="#DejaVuSans-61" transform="translate(87.447266 0)"/>
     <use xlink:href="#DejaVuSans-69" transform="translate(148.726562 0)"/>
     <use xlink:href="#DejaVuSans-6e" transform="translate(176.509766 0)"/>
     <use xlink:href="#DejaVuSans-69" transform="translate(239.888672 0)"/>
     <use xlink:href="#DejaVuSans-6e" transform="translate(267.671875 0)"/>
     <use xlink:href="#DejaVuSans-67" transform="translate(331.050781 0)"/>
     <use xlink:href="#DejaVuSans-20" transform="translate(394.527344 0)"/>
     <use xlink:href="#DejaVuSans-76" transform="translate(426.314453 0)"/>
     <use xlink:href="#DejaVuSans-73" transform="translate(485.494141 0)"/>
     <use xlink:href="#DejaVuSans-20" transform="translate(537.59375 0)"/>
     <use xlink:href="#DejaVuSans-56" transform="translate(569.380859 0)"/>
     <use xlink:href="#DejaVuSans-61" transform="translate(630.039062 0)"/>
     <use xlink:href="#DejaVuSans-6c" transform="translate(691.318359 0)"/>
     <use xlink:href="#DejaVuSans-69" transform="translate(719.101562 0)"/>
     <use xlink:href="#DejaVuSans-64" transform="translate(746.884766 0)"/>
     <use xlink:href="#DejaVuSans-61" transform="translate(810.361328 0)"/>
     <use xlink:href="#DejaVuSans-74" transform="translate(871.640625 0)"/>
     <use xlink:href="#DejaVuSans-69" transform="translate(910.849609 0)"/>
     <use xlink:href="#DejaVuSans-6f" transform="translate(938.632812 0)"/>
     <use xlink:href="#DejaVuSans-6e" transform="translate(999.814453 0)"/>
     <use xlink:href="#DejaVuSans-20" transform="translate(1063.193359 0)"/>
     <use xlink:href="#DejaVuSans-4c" transform="translate(1094.980469 0)"/>
     <use xlink:href="#DejaVuSans-6f" transform="translate(1148.943359 0)"/>
     <use xlink:href="#DejaVuSans-73" transform="translate(1210.125 0)"/>
     <use xlink:href="#DejaVuSans-73" transform="translate(1262.224609 0)"/>
     <use xlink:href="#DejaVuSans-20" transform="translate(1314.324219 0)"/>
     <use xlink:href="#DejaVuSans-2d" transform="translate(1346.111328 0)"/>
     <use xlink:href="#DejaVuSans-20" transform="translate(1382.195312 0)"/>
     <use xlink:href="#DejaVuSans-41" transform="translate(1413.982422 0)"/>
     <use xlink:href="#DejaVuSans-4c" transform="translate(1482.390625 0)"/>
     <use xlink:href="#DejaVuSans-49" transform="translate(1538.103516 0)"/>
     <use xlink:href="#DejaVuSans-47" transform="translate(1567.595703 0)"/>
     <use xlink:href="#DejaVuSans-4e" transform="translate(1645.085938 0)"/>
     <use xlink:href="#DejaVuSans-4e" transform="translate(1719.890625 0)"/>
    </g>
   </g>
   <g id="legend_1">
    <g id="patch_7">
     <path d="M 611.980625 68.691875 
L 701.5 68.691875 
Q 703.7 68.691875 703.7 66.491875 
L 703.7 35.3 
Q 703.7 33.1 701.5 33.1 
L 611.980625 33.1 
Q 609.780625 33.1 609.780625 35.3 
L 609.780625 66.491875 
Q 609.780625 68.691875 611.980625 68.691875 
z
" style="fill: #ffffff; opacity: 0.8; stroke: #cccccc; stroke-linejoin: miter"/>
    </g>
    <g id="line2d_35">
     <path d="M 614.180625 42.008281 
L 625.180625 42.008281 
L 636.180625 42.008281 
" style="fill: none; stroke: #0000ff; stroke-width: 2; stroke-linecap: square"/>
    </g>
    <g id="text_20">
     <!-- Train -->
     <g transform="translate(644.980625 45.858281) scale(0.11 -0.11)">
      <use xlink:href="#DejaVuSans-54"/>
      <use xlink:href="#DejaVuSans-72" transform="translate(46.333984 0)"/>
      <use xlink:href="#DejaVuSans-61" transform="translate(87.447266 0)"/>
      <use xlink:href="#DejaVuSans-69" transform="translate(148.726562 0)"/>
      <use xlink:href="#DejaVuSans-6e" transform="translate(176.509766 0)"/>
     </g>
    </g>
    <g id="line2d_36">
     <path d="M 614.180625 58.154219 
L 625.180625 58.154219 
L 636.180625 58.154219 
" style="fill: none; stroke: #ffa500; stroke-width: 2; stroke-linecap: square"/>
    </g>
    <g id="text_21">
     <!-- Validation -->
     <g transform="translate(644.980625 62.004219) scale(0.11 -0.11)">
      <use xlink:href="#DejaVuSans-56"/>
      <use xlink:href="#DejaVuSans-61" transform="translate(60.658203 0)"/>
      <use xlink:href="#DejaVuSans-6c" transform="translate(121.9375 0)"/>
      <use xlink:href="#DejaVuSans-69" transform="translate(149.720703 0)"/>
      <use xlink:href="#DejaVuSans-64" transform="translate(177.503906 0)"/>
      <use xlink:href="#DejaVuSans-61" transform="translate(240.980469 0)"/>
      <use xlink:href="#DejaVuSans-74" transform="translate(302.259766 0)"/>
      <use xlink:href="#DejaVuSans-69" transform="translate(341.46875 0)"/>
      <use xlink:href="#DejaVuSans-6f" transform="translate(369.251953 0)"/>
      <use xlink:href="#DejaVuSans-6e" transform="translate(430.433594 0)"/>
     </g>
    </g>
   </g>
  </g>
 </g>
 <defs>
  <clipPath id="p19945b2e28">
   <rect x="39.68" y="27.6" width="669.52" height="361.48"/>
  </clipPath>
 </defs>
</svg>
