<?xml version="1.0" encoding="utf-8" standalone="no"?>
<!DOCTYPE svg PUBLIC "-//W3C//DTD SVG 1.1//EN"
  "http://www.w3.org/Graphics/SVG/1.1/DTD/svg11.dtd">
<svg xmlns:xlink="http://www.w3.org/1999/xlink" width="720pt" height="432pt" viewBox="0 0 720 432" xmlns="http://www.w3.org/2000/svg" version="1.1">
 <metadata>
  <rdf:RDF xmlns:dc="http://purl.org/dc/elements/1.1/" xmlns:cc="http://creativecommons.org/ns#" xmlns:rdf="http://www.w3.org/1999/02/22-rdf-syntax-ns#">
   <cc:Work>
    <dc:type rdf:resource="http://purl.org/dc/dcmitype/StillImage"/>
    <dc:date>2025-05-23T10:35:22.352017</dc:date>
    <dc:format>image/svg+xml</dc:format>
    <dc:creator>
     <cc:Agent>
      <dc:title>Matplotlib v3.10.0, https://matplotlib.org/</dc:title>
     </cc:Agent>
    </dc:creator>
   </cc:Work>
  </rdf:RDF>
 </metadata>
 <defs>
  <style type="text/css">*{stroke-linejoin: round; stroke-linecap: butt}</style>
 </defs>
 <g id="figure_1">
  <g id="patch_1">
   <path d="M 0 432 
L 720 432 
L 720 0 
L 0 0 
z
" style="fill: #ffffff"/>
  </g>
  <g id="axes_1">
   <g id="patch_2">
    <path d="M 49.22 389.08 
L 709.2 389.08 
L 709.2 27.6 
L 49.22 27.6 
z
" style="fill: #ffffff"/>
   </g>
   <g id="matplotlib.axis_1">
    <g id="xtick_1">
     <g id="line2d_1">
      <path d="M 79.219091 389.08 
L 79.219091 27.6 
" clip-path="url(#p94bccc8b7e)" style="fill: none; stroke: #b0b0b0; stroke-opacity: 0.3; stroke-width: 0.8; stroke-linecap: square"/>
     </g>
     <g id="line2d_2">
      <defs>
       <path id="m0c4b0dd8a2" d="M 0 0 
L 0 3.5 
" style="stroke: #000000; stroke-width: 0.8"/>
      </defs>
      <g>
       <use xlink:href="#m0c4b0dd8a2" x="79.219091" y="389.08" style="stroke: #000000; stroke-width: 0.8"/>
      </g>
     </g>
     <g id="text_1">
      <!-- 0 -->
      <g transform="translate(76.037841 403.678437) scale(0.1 -0.1)">
       <defs>
        <path id="DejaVuSans-30" d="M 2034 4250 
Q 1547 4250 1301 3770 
Q 1056 3291 1056 2328 
Q 1056 1369 1301 889 
Q 1547 409 2034 409 
Q 2525 409 2770 889 
Q 3016 1369 3016 2328 
Q 3016 3291 2770 3770 
Q 2525 4250 2034 4250 
z
M 2034 4750 
Q 2819 4750 3233 4129 
Q 3647 3509 3647 2328 
Q 3647 1150 3233 529 
Q 2819 -91 2034 -91 
Q 1250 -91 836 529 
Q 422 1150 422 2328 
Q 422 3509 836 4129 
Q 1250 4750 2034 4750 
z
" transform="scale(0.015625)"/>
       </defs>
       <use xlink:href="#DejaVuSans-30"/>
      </g>
     </g>
    </g>
    <g id="xtick_2">
     <g id="line2d_3">
      <path d="M 179.550499 389.08 
L 179.550499 27.6 
" clip-path="url(#p94bccc8b7e)" style="fill: none; stroke: #b0b0b0; stroke-opacity: 0.3; stroke-width: 0.8; stroke-linecap: square"/>
     </g>
     <g id="line2d_4">
      <g>
       <use xlink:href="#m0c4b0dd8a2" x="179.550499" y="389.08" style="stroke: #000000; stroke-width: 0.8"/>
      </g>
     </g>
     <g id="text_2">
      <!-- 50 -->
      <g transform="translate(173.187999 403.678437) scale(0.1 -0.1)">
       <defs>
        <path id="DejaVuSans-35" d="M 691 4666 
L 3169 4666 
L 3169 4134 
L 1269 4134 
L 1269 2991 
Q 1406 3038 1543 3061 
Q 1681 3084 1819 3084 
Q 2600 3084 3056 2656 
Q 3513 2228 3513 1497 
Q 3513 744 3044 326 
Q 2575 -91 1722 -91 
Q 1428 -91 1123 -41 
Q 819 9 494 109 
L 494 744 
Q 775 591 1075 516 
Q 1375 441 1709 441 
Q 2250 441 2565 725 
Q 2881 1009 2881 1497 
Q 2881 1984 2565 2268 
Q 2250 2553 1709 2553 
Q 1456 2553 1204 2497 
Q 953 2441 691 2322 
L 691 4666 
z
" transform="scale(0.015625)"/>
       </defs>
       <use xlink:href="#DejaVuSans-35"/>
       <use xlink:href="#DejaVuSans-30" transform="translate(63.623047 0)"/>
      </g>
     </g>
    </g>
    <g id="xtick_3">
     <g id="line2d_5">
      <path d="M 279.881906 389.08 
L 279.881906 27.6 
" clip-path="url(#p94bccc8b7e)" style="fill: none; stroke: #b0b0b0; stroke-opacity: 0.3; stroke-width: 0.8; stroke-linecap: square"/>
     </g>
     <g id="line2d_6">
      <g>
       <use xlink:href="#m0c4b0dd8a2" x="279.881906" y="389.08" style="stroke: #000000; stroke-width: 0.8"/>
      </g>
     </g>
     <g id="text_3">
      <!-- 100 -->
      <g transform="translate(270.338156 403.678437) scale(0.1 -0.1)">
       <defs>
        <path id="DejaVuSans-31" d="M 794 531 
L 1825 531 
L 1825 4091 
L 703 3866 
L 703 4441 
L 1819 4666 
L 2450 4666 
L 2450 531 
L 3481 531 
L 3481 0 
L 794 0 
L 794 531 
z
" transform="scale(0.015625)"/>
       </defs>
       <use xlink:href="#DejaVuSans-31"/>
       <use xlink:href="#DejaVuSans-30" transform="translate(63.623047 0)"/>
       <use xlink:href="#DejaVuSans-30" transform="translate(127.246094 0)"/>
      </g>
     </g>
    </g>
    <g id="xtick_4">
     <g id="line2d_7">
      <path d="M 380.213314 389.08 
L 380.213314 27.6 
" clip-path="url(#p94bccc8b7e)" style="fill: none; stroke: #b0b0b0; stroke-opacity: 0.3; stroke-width: 0.8; stroke-linecap: square"/>
     </g>
     <g id="line2d_8">
      <g>
       <use xlink:href="#m0c4b0dd8a2" x="380.213314" y="389.08" style="stroke: #000000; stroke-width: 0.8"/>
      </g>
     </g>
     <g id="text_4">
      <!-- 150 -->
      <g transform="translate(370.669564 403.678437) scale(0.1 -0.1)">
       <use xlink:href="#DejaVuSans-31"/>
       <use xlink:href="#DejaVuSans-35" transform="translate(63.623047 0)"/>
       <use xlink:href="#DejaVuSans-30" transform="translate(127.246094 0)"/>
      </g>
     </g>
    </g>
    <g id="xtick_5">
     <g id="line2d_9">
      <path d="M 480.544722 389.08 
L 480.544722 27.6 
" clip-path="url(#p94bccc8b7e)" style="fill: none; stroke: #b0b0b0; stroke-opacity: 0.3; stroke-width: 0.8; stroke-linecap: square"/>
     </g>
     <g id="line2d_10">
      <g>
       <use xlink:href="#m0c4b0dd8a2" x="480.544722" y="389.08" style="stroke: #000000; stroke-width: 0.8"/>
      </g>
     </g>
     <g id="text_5">
      <!-- 200 -->
      <g transform="translate(471.000972 403.678437) scale(0.1 -0.1)">
       <defs>
        <path id="DejaVuSans-32" d="M 1228 531 
L 3431 531 
L 3431 0 
L 469 0 
L 469 531 
Q 828 903 1448 1529 
Q 2069 2156 2228 2338 
Q 2531 2678 2651 2914 
Q 2772 3150 2772 3378 
Q 2772 3750 2511 3984 
Q 2250 4219 1831 4219 
Q 1534 4219 1204 4116 
Q 875 4013 500 3803 
L 500 4441 
Q 881 4594 1212 4672 
Q 1544 4750 1819 4750 
Q 2544 4750 2975 4387 
Q 3406 4025 3406 3419 
Q 3406 3131 3298 2873 
Q 3191 2616 2906 2266 
Q 2828 2175 2409 1742 
Q 1991 1309 1228 531 
z
" transform="scale(0.015625)"/>
       </defs>
       <use xlink:href="#DejaVuSans-32"/>
       <use xlink:href="#DejaVuSans-30" transform="translate(63.623047 0)"/>
       <use xlink:href="#DejaVuSans-30" transform="translate(127.246094 0)"/>
      </g>
     </g>
    </g>
    <g id="xtick_6">
     <g id="line2d_11">
      <path d="M 580.87613 389.08 
L 580.87613 27.6 
" clip-path="url(#p94bccc8b7e)" style="fill: none; stroke: #b0b0b0; stroke-opacity: 0.3; stroke-width: 0.8; stroke-linecap: square"/>
     </g>
     <g id="line2d_12">
      <g>
       <use xlink:href="#m0c4b0dd8a2" x="580.87613" y="389.08" style="stroke: #000000; stroke-width: 0.8"/>
      </g>
     </g>
     <g id="text_6">
      <!-- 250 -->
      <g transform="translate(571.33238 403.678437) scale(0.1 -0.1)">
       <use xlink:href="#DejaVuSans-32"/>
       <use xlink:href="#DejaVuSans-35" transform="translate(63.623047 0)"/>
       <use xlink:href="#DejaVuSans-30" transform="translate(127.246094 0)"/>
      </g>
     </g>
    </g>
    <g id="xtick_7">
     <g id="line2d_13">
      <path d="M 681.207537 389.08 
L 681.207537 27.6 
" clip-path="url(#p94bccc8b7e)" style="fill: none; stroke: #b0b0b0; stroke-opacity: 0.3; stroke-width: 0.8; stroke-linecap: square"/>
     </g>
     <g id="line2d_14">
      <g>
       <use xlink:href="#m0c4b0dd8a2" x="681.207537" y="389.08" style="stroke: #000000; stroke-width: 0.8"/>
      </g>
     </g>
     <g id="text_7">
      <!-- 300 -->
      <g transform="translate(671.663787 403.678437) scale(0.1 -0.1)">
       <defs>
        <path id="DejaVuSans-33" d="M 2597 2516 
Q 3050 2419 3304 2112 
Q 3559 1806 3559 1356 
Q 3559 666 3084 287 
Q 2609 -91 1734 -91 
Q 1441 -91 1130 -33 
Q 819 25 488 141 
L 488 750 
Q 750 597 1062 519 
Q 1375 441 1716 441 
Q 2309 441 2620 675 
Q 2931 909 2931 1356 
Q 2931 1769 2642 2001 
Q 2353 2234 1838 2234 
L 1294 2234 
L 1294 2753 
L 1863 2753 
Q 2328 2753 2575 2939 
Q 2822 3125 2822 3475 
Q 2822 3834 2567 4026 
Q 2313 4219 1838 4219 
Q 1578 4219 1281 4162 
Q 984 4106 628 3988 
L 628 4550 
Q 988 4650 1302 4700 
Q 1616 4750 1894 4750 
Q 2613 4750 3031 4423 
Q 3450 4097 3450 3541 
Q 3450 3153 3228 2886 
Q 3006 2619 2597 2516 
z
" transform="scale(0.015625)"/>
       </defs>
       <use xlink:href="#DejaVuSans-33"/>
       <use xlink:href="#DejaVuSans-30" transform="translate(63.623047 0)"/>
       <use xlink:href="#DejaVuSans-30" transform="translate(127.246094 0)"/>
      </g>
     </g>
    </g>
    <g id="text_8">
     <!-- Epoch -->
     <g transform="translate(360.836875 418.87625) scale(0.12 -0.12)">
      <defs>
       <path id="DejaVuSans-45" d="M 628 4666 
L 3578 4666 
L 3578 4134 
L 1259 4134 
L 1259 2753 
L 3481 2753 
L 3481 2222 
L 1259 2222 
L 1259 531 
L 3634 531 
L 3634 0 
L 628 0 
L 628 4666 
z
" transform="scale(0.015625)"/>
       <path id="DejaVuSans-70" d="M 1159 525 
L 1159 -1331 
L 581 -1331 
L 581 3500 
L 1159 3500 
L 1159 2969 
Q 1341 3281 1617 3432 
Q 1894 3584 2278 3584 
Q 2916 3584 3314 3078 
Q 3713 2572 3713 1747 
Q 3713 922 3314 415 
Q 2916 -91 2278 -91 
Q 1894 -91 1617 61 
Q 1341 213 1159 525 
z
M 3116 1747 
Q 3116 2381 2855 2742 
Q 2594 3103 2138 3103 
Q 1681 3103 1420 2742 
Q 1159 2381 1159 1747 
Q 1159 1113 1420 752 
Q 1681 391 2138 391 
Q 2594 391 2855 752 
Q 3116 1113 3116 1747 
z
" transform="scale(0.015625)"/>
       <path id="DejaVuSans-6f" d="M 1959 3097 
Q 1497 3097 1228 2736 
Q 959 2375 959 1747 
Q 959 1119 1226 758 
Q 1494 397 1959 397 
Q 2419 397 2687 759 
Q 2956 1122 2956 1747 
Q 2956 2369 2687 2733 
Q 2419 3097 1959 3097 
z
M 1959 3584 
Q 2709 3584 3137 3096 
Q 3566 2609 3566 1747 
Q 3566 888 3137 398 
Q 2709 -91 1959 -91 
Q 1206 -91 779 398 
Q 353 888 353 1747 
Q 353 2609 779 3096 
Q 1206 3584 1959 3584 
z
" transform="scale(0.015625)"/>
       <path id="DejaVuSans-63" d="M 3122 3366 
L 3122 2828 
Q 2878 2963 2633 3030 
Q 2388 3097 2138 3097 
Q 1578 3097 1268 2742 
Q 959 2388 959 1747 
Q 959 1106 1268 751 
Q 1578 397 2138 397 
Q 2388 397 2633 464 
Q 2878 531 3122 666 
L 3122 134 
Q 2881 22 2623 -34 
Q 2366 -91 2075 -91 
Q 1284 -91 818 406 
Q 353 903 353 1747 
Q 353 2603 823 3093 
Q 1294 3584 2113 3584 
Q 2378 3584 2631 3529 
Q 2884 3475 3122 3366 
z
" transform="scale(0.015625)"/>
       <path id="DejaVuSans-68" d="M 3513 2113 
L 3513 0 
L 2938 0 
L 2938 2094 
Q 2938 2591 2744 2837 
Q 2550 3084 2163 3084 
Q 1697 3084 1428 2787 
Q 1159 2491 1159 1978 
L 1159 0 
L 581 0 
L 581 4863 
L 1159 4863 
L 1159 2956 
Q 1366 3272 1645 3428 
Q 1925 3584 2291 3584 
Q 2894 3584 3203 3211 
Q 3513 2838 3513 2113 
z
" transform="scale(0.015625)"/>
      </defs>
      <use xlink:href="#DejaVuSans-45"/>
      <use xlink:href="#DejaVuSans-70" transform="translate(63.183594 0)"/>
      <use xlink:href="#DejaVuSans-6f" transform="translate(126.660156 0)"/>
      <use xlink:href="#DejaVuSans-63" transform="translate(187.841797 0)"/>
      <use xlink:href="#DejaVuSans-68" transform="translate(242.822266 0)"/>
     </g>
    </g>
   </g>
   <g id="matplotlib.axis_2">
    <g id="ytick_1">
     <g id="line2d_15">
      <path d="M 49.22 389.08 
L 709.2 389.08 
" clip-path="url(#p94bccc8b7e)" style="fill: none; stroke: #b0b0b0; stroke-opacity: 0.3; stroke-width: 0.8; stroke-linecap: square"/>
     </g>
     <g id="line2d_16">
      <defs>
       <path id="m7efcfcbaf6" d="M 0 0 
L -3.5 0 
" style="stroke: #000000; stroke-width: 0.8"/>
      </defs>
      <g>
       <use xlink:href="#m7efcfcbaf6" x="49.22" y="389.08" style="stroke: #000000; stroke-width: 0.8"/>
      </g>
     </g>
     <g id="text_9">
      <!-- 0.0 -->
      <g transform="translate(26.316875 392.879219) scale(0.1 -0.1)">
       <defs>
        <path id="DejaVuSans-2e" d="M 684 794 
L 1344 794 
L 1344 0 
L 684 0 
L 684 794 
z
" transform="scale(0.015625)"/>
       </defs>
       <use xlink:href="#DejaVuSans-30"/>
       <use xlink:href="#DejaVuSans-2e" transform="translate(63.623047 0)"/>
       <use xlink:href="#DejaVuSans-30" transform="translate(95.410156 0)"/>
      </g>
     </g>
    </g>
    <g id="ytick_2">
     <g id="line2d_17">
      <path d="M 49.22 326.625586 
L 709.2 326.625586 
" clip-path="url(#p94bccc8b7e)" style="fill: none; stroke: #b0b0b0; stroke-opacity: 0.3; stroke-width: 0.8; stroke-linecap: square"/>
     </g>
     <g id="line2d_18">
      <g>
       <use xlink:href="#m7efcfcbaf6" x="49.22" y="326.625586" style="stroke: #000000; stroke-width: 0.8"/>
      </g>
     </g>
     <g id="text_10">
      <!-- 0.5 -->
      <g transform="translate(26.316875 330.424805) scale(0.1 -0.1)">
       <use xlink:href="#DejaVuSans-30"/>
       <use xlink:href="#DejaVuSans-2e" transform="translate(63.623047 0)"/>
       <use xlink:href="#DejaVuSans-35" transform="translate(95.410156 0)"/>
      </g>
     </g>
    </g>
    <g id="ytick_3">
     <g id="line2d_19">
      <path d="M 49.22 264.171172 
L 709.2 264.171172 
" clip-path="url(#p94bccc8b7e)" style="fill: none; stroke: #b0b0b0; stroke-opacity: 0.3; stroke-width: 0.8; stroke-linecap: square"/>
     </g>
     <g id="line2d_20">
      <g>
       <use xlink:href="#m7efcfcbaf6" x="49.22" y="264.171172" style="stroke: #000000; stroke-width: 0.8"/>
      </g>
     </g>
     <g id="text_11">
      <!-- 1.0 -->
      <g transform="translate(26.316875 267.970391) scale(0.1 -0.1)">
       <use xlink:href="#DejaVuSans-31"/>
       <use xlink:href="#DejaVuSans-2e" transform="translate(63.623047 0)"/>
       <use xlink:href="#DejaVuSans-30" transform="translate(95.410156 0)"/>
      </g>
     </g>
    </g>
    <g id="ytick_4">
     <g id="line2d_21">
      <path d="M 49.22 201.716759 
L 709.2 201.716759 
" clip-path="url(#p94bccc8b7e)" style="fill: none; stroke: #b0b0b0; stroke-opacity: 0.3; stroke-width: 0.8; stroke-linecap: square"/>
     </g>
     <g id="line2d_22">
      <g>
       <use xlink:href="#m7efcfcbaf6" x="49.22" y="201.716759" style="stroke: #000000; stroke-width: 0.8"/>
      </g>
     </g>
     <g id="text_12">
      <!-- 1.5 -->
      <g transform="translate(26.316875 205.515977) scale(0.1 -0.1)">
       <use xlink:href="#DejaVuSans-31"/>
       <use xlink:href="#DejaVuSans-2e" transform="translate(63.623047 0)"/>
       <use xlink:href="#DejaVuSans-35" transform="translate(95.410156 0)"/>
      </g>
     </g>
    </g>
    <g id="ytick_5">
     <g id="line2d_23">
      <path d="M 49.22 139.262345 
L 709.2 139.262345 
" clip-path="url(#p94bccc8b7e)" style="fill: none; stroke: #b0b0b0; stroke-opacity: 0.3; stroke-width: 0.8; stroke-linecap: square"/>
     </g>
     <g id="line2d_24">
      <g>
       <use xlink:href="#m7efcfcbaf6" x="49.22" y="139.262345" style="stroke: #000000; stroke-width: 0.8"/>
      </g>
     </g>
     <g id="text_13">
      <!-- 2.0 -->
      <g transform="translate(26.316875 143.061564) scale(0.1 -0.1)">
       <use xlink:href="#DejaVuSans-32"/>
       <use xlink:href="#DejaVuSans-2e" transform="translate(63.623047 0)"/>
       <use xlink:href="#DejaVuSans-30" transform="translate(95.410156 0)"/>
      </g>
     </g>
    </g>
    <g id="ytick_6">
     <g id="line2d_25">
      <path d="M 49.22 76.807931 
L 709.2 76.807931 
" clip-path="url(#p94bccc8b7e)" style="fill: none; stroke: #b0b0b0; stroke-opacity: 0.3; stroke-width: 0.8; stroke-linecap: square"/>
     </g>
     <g id="line2d_26">
      <g>
       <use xlink:href="#m7efcfcbaf6" x="49.22" y="76.807931" style="stroke: #000000; stroke-width: 0.8"/>
      </g>
     </g>
     <g id="text_14">
      <!-- 2.5 -->
      <g transform="translate(26.316875 80.60715) scale(0.1 -0.1)">
       <use xlink:href="#DejaVuSans-32"/>
       <use xlink:href="#DejaVuSans-2e" transform="translate(63.623047 0)"/>
       <use xlink:href="#DejaVuSans-35" transform="translate(95.410156 0)"/>
      </g>
     </g>
    </g>
    <g id="text_15">
     <!-- MAE (eV) -->
     <g transform="translate(19.82125 235.7975) rotate(-90) scale(0.12 -0.12)">
      <defs>
       <path id="DejaVuSans-4d" d="M 628 4666 
L 1569 4666 
L 2759 1491 
L 3956 4666 
L 4897 4666 
L 4897 0 
L 4281 0 
L 4281 4097 
L 3078 897 
L 2444 897 
L 1241 4097 
L 1241 0 
L 628 0 
L 628 4666 
z
" transform="scale(0.015625)"/>
       <path id="DejaVuSans-41" d="M 2188 4044 
L 1331 1722 
L 3047 1722 
L 2188 4044 
z
M 1831 4666 
L 2547 4666 
L 4325 0 
L 3669 0 
L 3244 1197 
L 1141 1197 
L 716 0 
L 50 0 
L 1831 4666 
z
" transform="scale(0.015625)"/>
       <path id="DejaVuSans-20" transform="scale(0.015625)"/>
       <path id="DejaVuSans-28" d="M 1984 4856 
Q 1566 4138 1362 3434 
Q 1159 2731 1159 2009 
Q 1159 1288 1364 580 
Q 1569 -128 1984 -844 
L 1484 -844 
Q 1016 -109 783 600 
Q 550 1309 550 2009 
Q 550 2706 781 3412 
Q 1013 4119 1484 4856 
L 1984 4856 
z
" transform="scale(0.015625)"/>
       <path id="DejaVuSans-65" d="M 3597 1894 
L 3597 1613 
L 953 1613 
Q 991 1019 1311 708 
Q 1631 397 2203 397 
Q 2534 397 2845 478 
Q 3156 559 3463 722 
L 3463 178 
Q 3153 47 2828 -22 
Q 2503 -91 2169 -91 
Q 1331 -91 842 396 
Q 353 884 353 1716 
Q 353 2575 817 3079 
Q 1281 3584 2069 3584 
Q 2775 3584 3186 3129 
Q 3597 2675 3597 1894 
z
M 3022 2063 
Q 3016 2534 2758 2815 
Q 2500 3097 2075 3097 
Q 1594 3097 1305 2825 
Q 1016 2553 972 2059 
L 3022 2063 
z
" transform="scale(0.015625)"/>
       <path id="DejaVuSans-56" d="M 1831 0 
L 50 4666 
L 709 4666 
L 2188 738 
L 3669 4666 
L 4325 4666 
L 2547 0 
L 1831 0 
z
" transform="scale(0.015625)"/>
       <path id="DejaVuSans-29" d="M 513 4856 
L 1013 4856 
Q 1481 4119 1714 3412 
Q 1947 2706 1947 2009 
Q 1947 1309 1714 600 
Q 1481 -109 1013 -844 
L 513 -844 
Q 928 -128 1133 580 
Q 1338 1288 1338 2009 
Q 1338 2731 1133 3434 
Q 928 4138 513 4856 
z
" transform="scale(0.015625)"/>
      </defs>
      <use xlink:href="#DejaVuSans-4d"/>
      <use xlink:href="#DejaVuSans-41" transform="translate(86.279297 0)"/>
      <use xlink:href="#DejaVuSans-45" transform="translate(154.6875 0)"/>
      <use xlink:href="#DejaVuSans-20" transform="translate(217.871094 0)"/>
      <use xlink:href="#DejaVuSans-28" transform="translate(249.658203 0)"/>
      <use xlink:href="#DejaVuSans-65" transform="translate(288.671875 0)"/>
      <use xlink:href="#DejaVuSans-56" transform="translate(350.195312 0)"/>
      <use xlink:href="#DejaVuSans-29" transform="translate(418.603516 0)"/>
     </g>
    </g>
   </g>
   <g id="line2d_27">
    <path d="M 79.219091 47.334121 
L 83.232347 231.319822 
L 85.238975 296.096157 
L 87.245604 314.305858 
L 89.252232 321.191553 
L 91.25886 324.014093 
L 93.265488 329.781598 
L 95.272116 313.769536 
L 97.278744 332.371642 
L 99.285372 339.608873 
L 101.292001 341.978508 
L 103.298629 334.21411 
L 105.305257 341.481985 
L 107.311885 344.106682 
L 109.318513 336.97491 
L 111.325141 339.939557 
L 113.33177 344.565188 
L 115.338398 348.699041 
L 117.345026 346.917885 
L 119.351654 343.748934 
L 121.358282 351.481777 
L 123.36491 341.784954 
L 125.371538 344.203508 
L 127.378167 344.276153 
L 129.384795 347.120777 
L 131.391423 353.863127 
L 133.398051 356.884786 
L 135.404679 355.377251 
L 137.411307 352.722693 
L 139.417936 355.52299 
L 141.424564 340.37199 
L 143.431192 337.706953 
L 145.43782 356.797715 
L 147.444448 353.0653 
L 149.451076 358.237373 
L 151.457704 345.850665 
L 153.464333 355.394034 
L 155.470961 353.346661 
L 157.477589 352.185958 
L 159.484217 359.202493 
L 161.490845 343.936134 
L 163.497473 359.413123 
L 165.504102 354.252538 
L 167.51073 359.763897 
L 169.517358 361.152632 
L 171.523986 349.967318 
L 173.530614 348.50589 
L 175.537242 357.482737 
L 177.54387 354.651971 
L 179.550499 362.115075 
L 181.557127 361.590565 
L 183.563755 359.169757 
L 185.570383 363.554966 
L 187.577011 343.882245 
L 189.583639 362.234529 
L 191.590268 360.04684 
L 193.596896 360.306316 
L 195.603524 353.38981 
L 197.610152 365.028928 
L 199.61678 358.039217 
L 201.623408 362.105967 
L 203.630036 365.678954 
L 205.636665 354.506567 
L 207.643293 364.595448 
L 209.649921 365.595894 
L 211.656549 363.672761 
L 213.663177 354.997651 
L 215.669805 358.164689 
L 217.676434 366.145748 
L 219.683062 361.850165 
L 221.68969 364.843093 
L 223.696318 366.970858 
L 225.702946 364.118115 
L 227.709574 368.043967 
L 229.716202 363.597649 
L 231.722831 368.466463 
L 233.729459 363.533432 
L 235.736087 368.743746 
L 237.742715 364.733711 
L 239.749343 367.781504 
L 241.755971 368.958059 
L 243.7626 363.933794 
L 245.769228 367.178571 
L 247.775856 366.060153 
L 249.782484 366.665863 
L 251.789112 359.717404 
L 253.79574 368.450412 
L 255.802369 373.266725 
L 257.808997 368.294159 
L 259.815625 369.316734 
L 261.822253 368.616617 
L 263.828881 372.948153 
L 265.835509 367.785329 
L 267.842137 369.585311 
L 269.848766 352.495948 
L 271.855394 370.809776 
L 273.862022 373.495978 
L 275.86865 372.294317 
L 277.875278 373.617805 
L 279.881906 372.799693 
L 281.888535 374.471039 
L 283.895163 372.820949 
L 285.901791 374.598134 
L 287.908419 373.122491 
L 289.915047 370.035571 
L 291.921675 373.228701 
L 293.928303 372.561411 
L 295.934932 369.839762 
L 297.94156 373.454749 
L 299.948188 373.251163 
L 301.954816 371.864942 
L 303.961444 370.214768 
L 305.968072 367.958908 
L 307.974701 372.090096 
L 309.981329 366.931791 
L 311.987957 374.139016 
L 313.994585 367.817135 
L 316.001213 372.588024 
L 318.007841 370.558186 
L 320.014469 371.422868 
L 322.021098 374.319207 
L 324.027726 366.312308 
L 326.034354 370.4864 
L 328.040982 371.452198 
L 330.04761 373.709507 
L 332.054238 371.845625 
L 334.060867 374.488589 
L 336.067495 373.126047 
L 338.074123 375.144821 
L 340.080751 374.060875 
L 342.087379 376.177687 
L 344.094007 375.620538 
L 346.100635 372.488014 
L 348.107264 375.088597 
L 350.113892 368.591344 
L 352.12052 371.406563 
L 354.127148 377.627887 
L 356.133776 373.144602 
L 358.140404 368.031381 
L 360.147033 377.767145 
L 362.153661 372.413727 
L 364.160289 373.995564 
L 366.166917 378.113017 
L 368.173545 373.617638 
L 370.180173 374.542538 
L 372.186801 376.192802 
L 376.200058 374.307446 
L 378.206686 375.669362 
L 380.213314 375.789852 
L 382.219942 372.628937 
L 384.22657 380.466092 
L 386.233199 376.555075 
L 388.239827 377.2438 
L 390.246455 377.795069 
L 392.253083 374.412833 
L 394.259711 376.805917 
L 396.266339 374.231578 
L 398.272967 375.435086 
L 400.279596 377.594652 
L 402.286224 376.711362 
L 404.292852 373.442069 
L 406.29948 377.187614 
L 408.306108 370.934216 
L 410.312736 372.08438 
L 412.319365 374.020308 
L 414.325993 374.471576 
L 416.332621 375.424856 
L 418.339249 371.973125 
L 420.345877 377.999376 
L 422.352505 374.305923 
L 424.359133 375.745748 
L 426.365762 376.377622 
L 428.37239 375.959346 
L 430.379018 377.481326 
L 432.385646 378.3143 
L 434.392274 377.921421 
L 436.398902 375.149317 
L 438.405531 378.917454 
L 440.412159 369.639312 
L 442.418787 375.732519 
L 444.425415 373.417353 
L 446.432043 377.736473 
L 448.438671 377.936568 
L 450.445299 374.364184 
L 452.451928 378.949382 
L 454.458556 379.452366 
L 456.465184 374.003721 
L 458.471812 372.344081 
L 460.47844 376.92442 
L 462.485068 379.832927 
L 464.491697 375.820894 
L 466.498325 377.569647 
L 468.504953 375.489206 
L 470.511581 371.321388 
L 472.518209 372.072229 
L 474.524837 376.500219 
L 476.531465 376.621287 
L 478.538094 369.009109 
L 480.544722 379.001798 
L 482.55135 374.077702 
L 484.557978 377.891717 
L 486.564606 377.038325 
L 488.571234 376.611023 
L 490.577863 378.464958 
L 492.584491 377.505343 
L 494.591119 372.810223 
L 496.597747 379.447938 
L 498.604375 377.10825 
L 500.611003 377.545123 
L 502.617631 380.147812 
L 504.62426 376.326817 
L 506.630888 376.406341 
L 508.637516 378.703418 
L 510.644144 380.733231 
L 512.650772 377.096764 
L 514.6574 377.29955 
L 516.664029 379.777173 
L 518.670657 382.571468 
L 520.677285 380.074854 
L 522.683913 377.813257 
L 524.690541 373.90662 
L 526.697169 380.086167 
L 528.703798 381.679999 
L 530.710426 381.066158 
L 532.717054 379.991076 
L 534.723682 377.351705 
L 536.73031 379.269331 
L 538.736938 375.174427 
L 540.743566 378.717928 
L 542.750195 377.061816 
L 544.756823 375.80195 
L 546.763451 381.297657 
L 548.770079 375.134281 
L 550.776707 371.356717 
L 552.783335 379.23647 
L 554.789964 380.303459 
L 556.796592 378.969983 
L 558.80322 380.013306 
L 560.809848 381.617931 
L 562.816476 379.463186 
L 564.823104 378.393815 
L 566.829732 372.93738 
L 568.836361 376.637227 
L 570.842989 380.100615 
L 572.849617 380.047798 
L 574.856245 380.298793 
L 576.862873 381.859331 
L 578.869501 378.935867 
L 580.87613 376.736663 
L 582.882758 378.683479 
L 584.889386 379.931582 
L 586.896014 379.053443 
L 588.902642 377.771722 
L 590.90927 378.388315 
L 592.915898 375.096503 
L 594.922527 378.159483 
L 596.929155 379.346873 
L 600.942411 379.875955 
L 602.949039 378.509333 
L 604.955667 377.807029 
L 606.962296 375.855525 
L 608.968924 378.460001 
L 610.975552 379.034124 
L 612.98218 375.251923 
L 614.988808 381.649986 
L 616.995436 382.105692 
L 619.002064 375.715703 
L 621.008693 375.973453 
L 623.015321 375.211767 
L 625.021949 371.408501 
L 627.028577 374.03583 
L 629.035205 377.362143 
L 631.041833 381.295861 
L 633.048462 378.212953 
L 635.05509 376.897046 
L 637.061718 380.95857 
L 639.068346 379.702882 
L 641.074974 377.037821 
L 647.094859 379.19739 
L 649.101487 371.657415 
L 651.108115 378.068442 
L 653.114743 376.355204 
L 655.121371 377.849789 
L 657.127999 378.818255 
L 659.134628 382.425242 
L 661.141256 377.570859 
L 663.147884 378.535229 
L 665.154512 377.10456 
L 667.16114 379.494614 
L 669.167768 372.101982 
L 671.174396 378.546764 
L 673.181025 378.705238 
L 675.187653 376.361084 
L 677.194281 379.586895 
L 679.200909 381.169964 
L 679.200909 381.169964 
" clip-path="url(#p94bccc8b7e)" style="fill: none; stroke: #0000ff; stroke-width: 2; stroke-linecap: square"/>
   </g>
   <g id="line2d_28">
    <path d="M 79.219091 44.503403 
L 81.225719 139.792457 
L 83.232347 226.895239 
L 85.238975 294.72909 
L 87.245604 308.244924 
L 89.252232 316.860812 
L 91.25886 322.089706 
L 93.265488 326.175994 
L 95.272116 311.10802 
L 97.278744 330.056242 
L 99.285372 336.478689 
L 101.292001 339.818752 
L 103.298629 330.692227 
L 105.305257 338.454822 
L 107.311885 341.709209 
L 109.318513 333.392951 
L 111.325141 336.129878 
L 113.33177 341.097187 
L 115.338398 342.99189 
L 117.345026 342.770116 
L 119.351654 337.82501 
L 121.358282 346.138128 
L 123.36491 335.901654 
L 125.371538 337.740145 
L 127.378167 335.029568 
L 129.384795 339.374564 
L 131.391423 344.597008 
L 133.398051 348.467144 
L 135.404679 345.346267 
L 137.411307 343.529334 
L 139.417936 345.602102 
L 141.424564 330.748329 
L 143.431192 328.557793 
L 145.43782 344.705783 
L 147.444448 342.114413 
L 149.451076 347.46237 
L 151.457704 337.014438 
L 153.464333 344.652078 
L 155.470961 342.175596 
L 157.477589 341.469126 
L 159.484217 346.778622 
L 161.490845 334.530367 
L 163.497473 346.872281 
L 165.504102 342.352146 
L 167.51073 348.120597 
L 169.517358 348.747028 
L 171.523986 341.297867 
L 173.530614 338.827768 
L 175.537242 347.701166 
L 177.54387 341.50232 
L 179.550499 349.080137 
L 181.557127 350.335797 
L 183.563755 347.526746 
L 185.570383 349.768059 
L 187.577011 335.992539 
L 189.583639 350.226755 
L 191.590268 348.521307 
L 193.596896 347.293814 
L 195.603524 340.654119 
L 197.610152 351.134485 
L 199.61678 346.307168 
L 201.623408 349.692692 
L 203.630036 351.425709 
L 205.636665 344.337908 
L 207.643293 351.184068 
L 209.649921 351.502456 
L 211.656549 349.928743 
L 213.663177 344.27664 
L 215.669805 346.551603 
L 217.676434 351.344005 
L 219.683062 348.86369 
L 221.68969 350.727097 
L 223.696318 352.875751 
L 225.702946 350.086891 
L 227.709574 351.919089 
L 229.716202 348.849192 
L 231.722831 353.48841 
L 233.729459 350.533156 
L 235.736087 354.211127 
L 237.742715 350.605507 
L 239.749343 352.564039 
L 241.755971 353.063623 
L 243.7626 350.211913 
L 245.769228 352.001027 
L 247.775856 350.40424 
L 249.782484 351.456055 
L 251.789112 346.711249 
L 253.79574 351.854517 
L 255.802369 355.876073 
L 257.808997 353.075841 
L 259.815625 353.767437 
L 261.822253 353.313819 
L 263.828881 356.57477 
L 265.835509 352.332358 
L 267.842137 353.452001 
L 269.848766 342.208822 
L 271.855394 353.510983 
L 273.862022 355.354001 
L 275.86865 354.608654 
L 277.875278 354.776187 
L 279.881906 356.283081 
L 281.888535 356.619155 
L 283.895163 354.911659 
L 285.901791 356.219928 
L 287.908419 355.415198 
L 289.915047 353.663641 
L 291.921675 354.941244 
L 293.928303 355.080987 
L 295.934932 352.99023 
L 297.94156 354.738569 
L 299.948188 354.278661 
L 301.954816 354.110783 
L 303.961444 353.220595 
L 305.968072 351.613894 
L 307.974701 354.317886 
L 309.981329 351.643319 
L 311.987957 356.263818 
L 313.994585 350.981891 
L 316.001213 354.02541 
L 318.007841 353.887417 
L 322.021098 356.136006 
L 324.027726 349.86394 
L 326.034354 353.0485 
L 328.040982 353.32523 
L 330.04761 355.081748 
L 332.054238 354.540093 
L 334.060867 355.503573 
L 336.067495 354.779327 
L 338.074123 356.447046 
L 340.080751 355.436604 
L 342.087379 356.679399 
L 344.094007 356.083901 
L 346.100635 354.396282 
L 348.107264 355.241895 
L 350.113892 351.082256 
L 354.127148 357.350033 
L 356.133776 354.18721 
L 358.140404 351.588178 
L 360.147033 357.962553 
L 362.153661 354.775828 
L 364.160289 355.775139 
L 366.166917 358.106005 
L 368.173545 355.431164 
L 370.180173 355.110856 
L 372.186801 357.046225 
L 374.19343 355.831099 
L 376.200058 355.689524 
L 378.206686 354.739902 
L 380.213314 354.979054 
L 382.219942 354.622892 
L 384.22657 357.995363 
L 386.233199 356.844261 
L 388.239827 356.039705 
L 390.246455 356.621036 
L 392.253083 355.749121 
L 394.259711 357.30616 
L 396.266339 355.995256 
L 398.272967 356.548357 
L 400.279596 357.391324 
L 402.286224 357.102319 
L 404.292852 355.167822 
L 406.29948 357.635077 
L 408.306108 353.001989 
L 410.312736 353.106895 
L 412.319365 355.401206 
L 414.325993 354.680565 
L 416.332621 356.72714 
L 418.339249 352.739735 
L 420.345877 357.315975 
L 422.352505 355.438877 
L 424.359133 357.266853 
L 426.365762 357.295308 
L 428.37239 355.870779 
L 430.379018 357.62853 
L 432.385646 357.408897 
L 434.392274 356.981084 
L 436.398902 355.680603 
L 438.405531 357.09131 
L 440.412159 351.060718 
L 442.418787 356.154109 
L 444.425415 354.403885 
L 446.432043 357.837862 
L 448.438671 356.64235 
L 450.445299 354.414094 
L 452.451928 357.424781 
L 454.458556 357.819329 
L 456.465184 353.606263 
L 458.471812 351.732863 
L 460.47844 355.894507 
L 462.485068 357.868631 
L 464.491697 355.661632 
L 466.498325 357.88369 
L 472.518209 351.717242 
L 474.524837 355.54411 
L 476.531465 356.042311 
L 478.538094 352.173136 
L 480.544722 357.195295 
L 482.55135 354.678638 
L 484.557978 357.241937 
L 486.564606 356.147399 
L 488.571234 355.650157 
L 490.577863 356.729285 
L 492.584491 356.540758 
L 494.591119 353.434634 
L 496.597747 357.632683 
L 498.604375 355.827724 
L 502.617631 358.004928 
L 504.62426 356.143551 
L 506.630888 355.756866 
L 508.637516 357.660007 
L 510.644144 358.215014 
L 512.650772 356.187705 
L 514.6574 356.38645 
L 518.670657 358.746396 
L 520.677285 358.341444 
L 522.683913 357.040951 
L 524.690541 354.514441 
L 526.697169 358.232264 
L 528.703798 358.687329 
L 530.710426 358.188377 
L 532.717054 358.501804 
L 534.723682 356.51756 
L 536.73031 358.184184 
L 538.736938 355.700775 
L 540.743566 357.057764 
L 542.750195 356.210373 
L 544.756823 355.02613 
L 546.763451 358.408497 
L 548.770079 355.559699 
L 550.776707 353.900357 
L 552.783335 357.792883 
L 554.789964 358.054227 
L 556.796592 357.577151 
L 558.80322 358.409375 
L 560.809848 358.572082 
L 562.816476 357.613866 
L 564.823104 357.154217 
L 566.829732 354.290185 
L 568.836361 355.654186 
L 570.842989 358.318025 
L 572.849617 358.182801 
L 574.856245 357.874722 
L 576.862873 358.501121 
L 580.87613 356.656108 
L 582.882758 357.433884 
L 584.889386 357.84406 
L 586.896014 357.787788 
L 590.90927 356.81165 
L 592.915898 355.247915 
L 594.922527 357.192166 
L 596.929155 357.710885 
L 600.942411 357.749676 
L 602.949039 357.281152 
L 604.955667 357.628232 
L 606.962296 355.818646 
L 608.968924 357.146913 
L 610.975552 357.577482 
L 612.98218 355.479037 
L 614.988808 358.566958 
L 616.995436 358.279585 
L 619.002064 356.126966 
L 621.008693 355.63391 
L 623.015321 356.119787 
L 625.021949 354.235983 
L 627.028577 354.366993 
L 629.035205 356.626068 
L 631.041833 358.160666 
L 633.048462 357.44724 
L 635.05509 356.139458 
L 637.061718 358.13868 
L 641.074974 356.766668 
L 643.081602 356.841356 
L 645.08823 357.313809 
L 647.094859 357.624797 
L 649.101487 353.588156 
L 651.108115 357.043223 
L 653.114743 356.15025 
L 655.121371 357.339571 
L 657.127999 357.27015 
L 659.134628 358.721906 
L 661.141256 356.955347 
L 663.147884 357.224489 
L 665.154512 356.790492 
L 667.16114 357.606989 
L 669.167768 353.25541 
L 671.174396 357.152912 
L 673.181025 357.640517 
L 675.187653 356.055319 
L 677.194281 357.644059 
L 679.200909 358.323572 
L 679.200909 358.323572 
" clip-path="url(#p94bccc8b7e)" style="fill: none; stroke: #ffa500; stroke-width: 2; stroke-linecap: square"/>
   </g>
   <g id="patch_3">
    <path d="M 49.22 389.08 
L 49.22 27.6 
" style="fill: none; stroke: #000000; stroke-width: 0.8; stroke-linejoin: miter; stroke-linecap: square"/>
   </g>
   <g id="patch_4">
    <path d="M 709.2 389.08 
L 709.2 27.6 
" style="fill: none; stroke: #000000; stroke-width: 0.8; stroke-linejoin: miter; stroke-linecap: square"/>
   </g>
   <g id="patch_5">
    <path d="M 49.22 389.08 
L 709.2 389.08 
" style="fill: none; stroke: #000000; stroke-width: 0.8; stroke-linejoin: miter; stroke-linecap: square"/>
   </g>
   <g id="patch_6">
    <path d="M 49.22 27.6 
L 709.2 27.6 
" style="fill: none; stroke: #000000; stroke-width: 0.8; stroke-linejoin: miter; stroke-linecap: square"/>
   </g>
   <g id="text_16">
    <!-- Training vs Validation MAE - ALIGNN -->
    <g transform="translate(253.685781 21.6) scale(0.14 -0.14)">
     <defs>
      <path id="DejaVuSans-54" d="M -19 4666 
L 3928 4666 
L 3928 4134 
L 2272 4134 
L 2272 0 
L 1638 0 
L 1638 4134 
L -19 4134 
L -19 4666 
z
" transform="scale(0.015625)"/>
      <path id="DejaVuSans-72" d="M 2631 2963 
Q 2534 3019 2420 3045 
Q 2306 3072 2169 3072 
Q 1681 3072 1420 2755 
Q 1159 2438 1159 1844 
L 1159 0 
L 581 0 
L 581 3500 
L 1159 3500 
L 1159 2956 
Q 1341 3275 1631 3429 
Q 1922 3584 2338 3584 
Q 2397 3584 2469 3576 
Q 2541 3569 2628 3553 
L 2631 2963 
z
" transform="scale(0.015625)"/>
      <path id="DejaVuSans-61" d="M 2194 1759 
Q 1497 1759 1228 1600 
Q 959 1441 959 1056 
Q 959 750 1161 570 
Q 1363 391 1709 391 
Q 2188 391 2477 730 
Q 2766 1069 2766 1631 
L 2766 1759 
L 2194 1759 
z
M 3341 1997 
L 3341 0 
L 2766 0 
L 2766 531 
Q 2569 213 2275 61 
Q 1981 -91 1556 -91 
Q 1019 -91 701 211 
Q 384 513 384 1019 
Q 384 1609 779 1909 
Q 1175 2209 1959 2209 
L 2766 2209 
L 2766 2266 
Q 2766 2663 2505 2880 
Q 2244 3097 1772 3097 
Q 1472 3097 1187 3025 
Q 903 2953 641 2809 
L 641 3341 
Q 956 3463 1253 3523 
Q 1550 3584 1831 3584 
Q 2591 3584 2966 3190 
Q 3341 2797 3341 1997 
z
" transform="scale(0.015625)"/>
      <path id="DejaVuSans-69" d="M 603 3500 
L 1178 3500 
L 1178 0 
L 603 0 
L 603 3500 
z
M 603 4863 
L 1178 4863 
L 1178 4134 
L 603 4134 
L 603 4863 
z
" transform="scale(0.015625)"/>
      <path id="DejaVuSans-6e" d="M 3513 2113 
L 3513 0 
L 2938 0 
L 2938 2094 
Q 2938 2591 2744 2837 
Q 2550 3084 2163 3084 
Q 1697 3084 1428 2787 
Q 1159 2491 1159 1978 
L 1159 0 
L 581 0 
L 581 3500 
L 1159 3500 
L 1159 2956 
Q 1366 3272 1645 3428 
Q 1925 3584 2291 3584 
Q 2894 3584 3203 3211 
Q 3513 2838 3513 2113 
z
" transform="scale(0.015625)"/>
      <path id="DejaVuSans-67" d="M 2906 1791 
Q 2906 2416 2648 2759 
Q 2391 3103 1925 3103 
Q 1463 3103 1205 2759 
Q 947 2416 947 1791 
Q 947 1169 1205 825 
Q 1463 481 1925 481 
Q 2391 481 2648 825 
Q 2906 1169 2906 1791 
z
M 3481 434 
Q 3481 -459 3084 -895 
Q 2688 -1331 1869 -1331 
Q 1566 -1331 1297 -1286 
Q 1028 -1241 775 -1147 
L 775 -588 
Q 1028 -725 1275 -790 
Q 1522 -856 1778 -856 
Q 2344 -856 2625 -561 
Q 2906 -266 2906 331 
L 2906 616 
Q 2728 306 2450 153 
Q 2172 0 1784 0 
Q 1141 0 747 490 
Q 353 981 353 1791 
Q 353 2603 747 3093 
Q 1141 3584 1784 3584 
Q 2172 3584 2450 3431 
Q 2728 3278 2906 2969 
L 2906 3500 
L 3481 3500 
L 3481 434 
z
" transform="scale(0.015625)"/>
      <path id="DejaVuSans-76" d="M 191 3500 
L 800 3500 
L 1894 563 
L 2988 3500 
L 3597 3500 
L 2284 0 
L 1503 0 
L 191 3500 
z
" transform="scale(0.015625)"/>
      <path id="DejaVuSans-73" d="M 2834 3397 
L 2834 2853 
Q 2591 2978 2328 3040 
Q 2066 3103 1784 3103 
Q 1356 3103 1142 2972 
Q 928 2841 928 2578 
Q 928 2378 1081 2264 
Q 1234 2150 1697 2047 
L 1894 2003 
Q 2506 1872 2764 1633 
Q 3022 1394 3022 966 
Q 3022 478 2636 193 
Q 2250 -91 1575 -91 
Q 1294 -91 989 -36 
Q 684 19 347 128 
L 347 722 
Q 666 556 975 473 
Q 1284 391 1588 391 
Q 1994 391 2212 530 
Q 2431 669 2431 922 
Q 2431 1156 2273 1281 
Q 2116 1406 1581 1522 
L 1381 1569 
Q 847 1681 609 1914 
Q 372 2147 372 2553 
Q 372 3047 722 3315 
Q 1072 3584 1716 3584 
Q 2034 3584 2315 3537 
Q 2597 3491 2834 3397 
z
" transform="scale(0.015625)"/>
      <path id="DejaVuSans-6c" d="M 603 4863 
L 1178 4863 
L 1178 0 
L 603 0 
L 603 4863 
z
" transform="scale(0.015625)"/>
      <path id="DejaVuSans-64" d="M 2906 2969 
L 2906 4863 
L 3481 4863 
L 3481 0 
L 2906 0 
L 2906 525 
Q 2725 213 2448 61 
Q 2172 -91 1784 -91 
Q 1150 -91 751 415 
Q 353 922 353 1747 
Q 353 2572 751 3078 
Q 1150 3584 1784 3584 
Q 2172 3584 2448 3432 
Q 2725 3281 2906 2969 
z
M 947 1747 
Q 947 1113 1208 752 
Q 1469 391 1925 391 
Q 2381 391 2643 752 
Q 2906 1113 2906 1747 
Q 2906 2381 2643 2742 
Q 2381 3103 1925 3103 
Q 1469 3103 1208 2742 
Q 947 2381 947 1747 
z
" transform="scale(0.015625)"/>
      <path id="DejaVuSans-74" d="M 1172 4494 
L 1172 3500 
L 2356 3500 
L 2356 3053 
L 1172 3053 
L 1172 1153 
Q 1172 725 1289 603 
Q 1406 481 1766 481 
L 2356 481 
L 2356 0 
L 1766 0 
Q 1100 0 847 248 
Q 594 497 594 1153 
L 594 3053 
L 172 3053 
L 172 3500 
L 594 3500 
L 594 4494 
L 1172 4494 
z
" transform="scale(0.015625)"/>
      <path id="DejaVuSans-2d" d="M 313 2009 
L 1997 2009 
L 1997 1497 
L 313 1497 
L 313 2009 
z
" transform="scale(0.015625)"/>
      <path id="DejaVuSans-4c" d="M 628 4666 
L 1259 4666 
L 1259 531 
L 3531 531 
L 3531 0 
L 628 0 
L 628 4666 
z
" transform="scale(0.015625)"/>
      <path id="DejaVuSans-49" d="M 628 4666 
L 1259 4666 
L 1259 0 
L 628 0 
L 628 4666 
z
" transform="scale(0.015625)"/>
      <path id="DejaVuSans-47" d="M 3809 666 
L 3809 1919 
L 2778 1919 
L 2778 2438 
L 4434 2438 
L 4434 434 
Q 4069 175 3628 42 
Q 3188 -91 2688 -91 
Q 1594 -91 976 548 
Q 359 1188 359 2328 
Q 359 3472 976 4111 
Q 1594 4750 2688 4750 
Q 3144 4750 3555 4637 
Q 3966 4525 4313 4306 
L 4313 3634 
Q 3963 3931 3569 4081 
Q 3175 4231 2741 4231 
Q 1884 4231 1454 3753 
Q 1025 3275 1025 2328 
Q 1025 1384 1454 906 
Q 1884 428 2741 428 
Q 3075 428 3337 486 
Q 3600 544 3809 666 
z
" transform="scale(0.015625)"/>
      <path id="DejaVuSans-4e" d="M 628 4666 
L 1478 4666 
L 3547 763 
L 3547 4666 
L 4159 4666 
L 4159 0 
L 3309 0 
L 1241 3903 
L 1241 0 
L 628 0 
L 628 4666 
z
" transform="scale(0.015625)"/>
     </defs>
     <use xlink:href="#DejaVuSans-54"/>
     <use xlink:href="#DejaVuSans-72" transform="translate(46.333984 0)"/>
     <use xlink:href="#DejaVuSans-61" transform="translate(87.447266 0)"/>
     <use xlink:href="#DejaVuSans-69" transform="translate(148.726562 0)"/>
     <use xlink:href="#DejaVuSans-6e" transform="translate(176.509766 0)"/>
     <use xlink:href="#DejaVuSans-69" transform="translate(239.888672 0)"/>
     <use xlink:href="#DejaVuSans-6e" transform="translate(267.671875 0)"/>
     <use xlink:href="#DejaVuSans-67" transform="translate(331.050781 0)"/>
     <use xlink:href="#DejaVuSans-20" transform="translate(394.527344 0)"/>
     <use xlink:href="#DejaVuSans-76" transform="translate(426.314453 0)"/>
     <use xlink:href="#DejaVuSans-73" transform="translate(485.494141 0)"/>
     <use xlink:href="#DejaVuSans-20" transform="translate(537.59375 0)"/>
     <use xlink:href="#DejaVuSans-56" transform="translate(569.380859 0)"/>
     <use xlink:href="#DejaVuSans-61" transform="translate(630.039062 0)"/>
     <use xlink:href="#DejaVuSans-6c" transform="translate(691.318359 0)"/>
     <use xlink:href="#DejaVuSans-69" transform="translate(719.101562 0)"/>
     <use xlink:href="#DejaVuSans-64" transform="translate(746.884766 0)"/>
     <use xlink:href="#DejaVuSans-61" transform="translate(810.361328 0)"/>
     <use xlink:href="#DejaVuSans-74" transform="translate(871.640625 0)"/>
     <use xlink:href="#DejaVuSans-69" transform="translate(910.849609 0)"/>
     <use xlink:href="#DejaVuSans-6f" transform="translate(938.632812 0)"/>
     <use xlink:href="#DejaVuSans-6e" transform="translate(999.814453 0)"/>
     <use xlink:href="#DejaVuSans-20" transform="translate(1063.193359 0)"/>
     <use xlink:href="#DejaVuSans-4d" transform="translate(1094.980469 0)"/>
     <use xlink:href="#DejaVuSans-41" transform="translate(1181.259766 0)"/>
     <use xlink:href="#DejaVuSans-45" transform="translate(1249.667969 0)"/>
     <use xlink:href="#DejaVuSans-20" transform="translate(1312.851562 0)"/>
     <use xlink:href="#DejaVuSans-2d" transform="translate(1344.638672 0)"/>
     <use xlink:href="#DejaVuSans-20" transform="translate(1380.722656 0)"/>
     <use xlink:href="#DejaVuSans-41" transform="translate(1412.509766 0)"/>
     <use xlink:href="#DejaVuSans-4c" transform="translate(1480.917969 0)"/>
     <use xlink:href="#DejaVuSans-49" transform="translate(1536.630859 0)"/>
     <use xlink:href="#DejaVuSans-47" transform="translate(1566.123047 0)"/>
     <use xlink:href="#DejaVuSans-4e" transform="translate(1643.613281 0)"/>
     <use xlink:href="#DejaVuSans-4e" transform="translate(1718.417969 0)"/>
    </g>
   </g>
   <g id="PathCollection_1">
    <defs>
     <path id="m049433c1a6" d="M 0 5 
C 1.326016 5 2.597899 4.473168 3.535534 3.535534 
C 4.473168 2.597899 5 1.326016 5 0 
C 5 -1.326016 4.473168 -2.597899 3.535534 -3.535534 
C 2.597899 -4.473168 1.326016 -5 0 -5 
C -1.326016 -5 -2.597899 -4.473168 -3.535534 -3.535534 
C -4.473168 -2.597899 -5 -1.326016 -5 0 
C -5 1.326016 -4.473168 2.597899 -3.535534 3.535534 
C -2.597899 4.473168 -1.326016 5 0 5 
z
" style="stroke: #ff0000"/>
    </defs>
    <g clip-path="url(#p94bccc8b7e)">
     <use xlink:href="#m049433c1a6" x="518.670657" y="358.746396" style="fill: #ff0000; stroke: #ff0000"/>
    </g>
   </g>
   <g id="legend_1">
    <g id="patch_7">
     <path d="M 539.815469 84.837813 
L 701.5 84.837813 
Q 703.7 84.837813 703.7 82.637813 
L 703.7 35.3 
Q 703.7 33.1 701.5 33.1 
L 539.815469 33.1 
Q 537.615469 33.1 537.615469 35.3 
L 537.615469 82.637813 
Q 537.615469 84.837813 539.815469 84.837813 
z
" style="fill: #ffffff; opacity: 0.8; stroke: #cccccc; stroke-linejoin: miter"/>
    </g>
    <g id="line2d_29">
     <path d="M 542.015469 42.008281 
L 553.015469 42.008281 
L 564.015469 42.008281 
" style="fill: none; stroke: #0000ff; stroke-width: 2; stroke-linecap: square"/>
    </g>
    <g id="text_17">
     <!-- Train -->
     <g transform="translate(572.815469 45.858281) scale(0.11 -0.11)">
      <use xlink:href="#DejaVuSans-54"/>
      <use xlink:href="#DejaVuSans-72" transform="translate(46.333984 0)"/>
      <use xlink:href="#DejaVuSans-61" transform="translate(87.447266 0)"/>
      <use xlink:href="#DejaVuSans-69" transform="translate(148.726562 0)"/>
      <use xlink:href="#DejaVuSans-6e" transform="translate(176.509766 0)"/>
     </g>
    </g>
    <g id="line2d_30">
     <path d="M 542.015469 58.154219 
L 553.015469 58.154219 
L 564.015469 58.154219 
" style="fill: none; stroke: #ffa500; stroke-width: 2; stroke-linecap: square"/>
    </g>
    <g id="text_18">
     <!-- Validation -->
     <g transform="translate(572.815469 62.004219) scale(0.11 -0.11)">
      <use xlink:href="#DejaVuSans-56"/>
      <use xlink:href="#DejaVuSans-61" transform="translate(60.658203 0)"/>
      <use xlink:href="#DejaVuSans-6c" transform="translate(121.9375 0)"/>
      <use xlink:href="#DejaVuSans-69" transform="translate(149.720703 0)"/>
      <use xlink:href="#DejaVuSans-64" transform="translate(177.503906 0)"/>
      <use xlink:href="#DejaVuSans-61" transform="translate(240.980469 0)"/>
      <use xlink:href="#DejaVuSans-74" transform="translate(302.259766 0)"/>
      <use xlink:href="#DejaVuSans-69" transform="translate(341.46875 0)"/>
      <use xlink:href="#DejaVuSans-6f" transform="translate(369.251953 0)"/>
      <use xlink:href="#DejaVuSans-6e" transform="translate(430.433594 0)"/>
     </g>
    </g>
    <g id="PathCollection_2">
     <g>
      <use xlink:href="#m049433c1a6" x="553.015469" y="75.262656" style="fill: #ff0000; stroke: #ff0000"/>
     </g>
    </g>
    <g id="text_19">
     <!-- Best Val MAE = 0.2428 -->
     <g transform="translate(572.815469 78.150156) scale(0.11 -0.11)">
      <defs>
       <path id="DejaVuSans-42" d="M 1259 2228 
L 1259 519 
L 2272 519 
Q 2781 519 3026 730 
Q 3272 941 3272 1375 
Q 3272 1813 3026 2020 
Q 2781 2228 2272 2228 
L 1259 2228 
z
M 1259 4147 
L 1259 2741 
L 2194 2741 
Q 2656 2741 2882 2914 
Q 3109 3088 3109 3444 
Q 3109 3797 2882 3972 
Q 2656 4147 2194 4147 
L 1259 4147 
z
M 628 4666 
L 2241 4666 
Q 2963 4666 3353 4366 
Q 3744 4066 3744 3513 
Q 3744 3084 3544 2831 
Q 3344 2578 2956 2516 
Q 3422 2416 3680 2098 
Q 3938 1781 3938 1306 
Q 3938 681 3513 340 
Q 3088 0 2303 0 
L 628 0 
L 628 4666 
z
" transform="scale(0.015625)"/>
       <path id="DejaVuSans-3d" d="M 678 2906 
L 4684 2906 
L 4684 2381 
L 678 2381 
L 678 2906 
z
M 678 1631 
L 4684 1631 
L 4684 1100 
L 678 1100 
L 678 1631 
z
" transform="scale(0.015625)"/>
       <path id="DejaVuSans-34" d="M 2419 4116 
L 825 1625 
L 2419 1625 
L 2419 4116 
z
M 2253 4666 
L 3047 4666 
L 3047 1625 
L 3713 1625 
L 3713 1100 
L 3047 1100 
L 3047 0 
L 2419 0 
L 2419 1100 
L 313 1100 
L 313 1709 
L 2253 4666 
z
" transform="scale(0.015625)"/>
       <path id="DejaVuSans-38" d="M 2034 2216 
Q 1584 2216 1326 1975 
Q 1069 1734 1069 1313 
Q 1069 891 1326 650 
Q 1584 409 2034 409 
Q 2484 409 2743 651 
Q 3003 894 3003 1313 
Q 3003 1734 2745 1975 
Q 2488 2216 2034 2216 
z
M 1403 2484 
Q 997 2584 770 2862 
Q 544 3141 544 3541 
Q 544 4100 942 4425 
Q 1341 4750 2034 4750 
Q 2731 4750 3128 4425 
Q 3525 4100 3525 3541 
Q 3525 3141 3298 2862 
Q 3072 2584 2669 2484 
Q 3125 2378 3379 2068 
Q 3634 1759 3634 1313 
Q 3634 634 3220 271 
Q 2806 -91 2034 -91 
Q 1263 -91 848 271 
Q 434 634 434 1313 
Q 434 1759 690 2068 
Q 947 2378 1403 2484 
z
M 1172 3481 
Q 1172 3119 1398 2916 
Q 1625 2713 2034 2713 
Q 2441 2713 2670 2916 
Q 2900 3119 2900 3481 
Q 2900 3844 2670 4047 
Q 2441 4250 2034 4250 
Q 1625 4250 1398 4047 
Q 1172 3844 1172 3481 
z
" transform="scale(0.015625)"/>
      </defs>
      <use xlink:href="#DejaVuSans-42"/>
      <use xlink:href="#DejaVuSans-65" transform="translate(68.603516 0)"/>
      <use xlink:href="#DejaVuSans-73" transform="translate(130.126953 0)"/>
      <use xlink:href="#DejaVuSans-74" transform="translate(182.226562 0)"/>
      <use xlink:href="#DejaVuSans-20" transform="translate(221.435547 0)"/>
      <use xlink:href="#DejaVuSans-56" transform="translate(253.222656 0)"/>
      <use xlink:href="#DejaVuSans-61" transform="translate(313.880859 0)"/>
      <use xlink:href="#DejaVuSans-6c" transform="translate(375.160156 0)"/>
      <use xlink:href="#DejaVuSans-20" transform="translate(402.943359 0)"/>
      <use xlink:href="#DejaVuSans-4d" transform="translate(434.730469 0)"/>
      <use xlink:href="#DejaVuSans-41" transform="translate(521.009766 0)"/>
      <use xlink:href="#DejaVuSans-45" transform="translate(589.417969 0)"/>
      <use xlink:href="#DejaVuSans-20" transform="translate(652.601562 0)"/>
      <use xlink:href="#DejaVuSans-3d" transform="translate(684.388672 0)"/>
      <use xlink:href="#DejaVuSans-20" transform="translate(768.177734 0)"/>
      <use xlink:href="#DejaVuSans-30" transform="translate(799.964844 0)"/>
      <use xlink:href="#DejaVuSans-2e" transform="translate(863.587891 0)"/>
      <use xlink:href="#DejaVuSans-32" transform="translate(895.375 0)"/>
      <use xlink:href="#DejaVuSans-34" transform="translate(958.998047 0)"/>
      <use xlink:href="#DejaVuSans-32" transform="translate(1022.621094 0)"/>
      <use xlink:href="#DejaVuSans-38" transform="translate(1086.244141 0)"/>
     </g>
    </g>
   </g>
  </g>
 </g>
 <defs>
  <clipPath id="p94bccc8b7e">
   <rect x="49.22" y="27.6" width="659.98" height="361.48"/>
  </clipPath>
 </defs>
</svg>
