<?xml version="1.0" encoding="utf-8" standalone="no"?>
<!DOCTYPE svg PUBLIC "-//W3C//DTD SVG 1.1//EN"
  "http://www.w3.org/Graphics/SVG/1.1/DTD/svg11.dtd">
<svg xmlns:xlink="http://www.w3.org/1999/xlink" width="720pt" height="432pt" viewBox="0 0 720 432" xmlns="http://www.w3.org/2000/svg" version="1.1">
 <metadata>
  <rdf:RDF xmlns:dc="http://purl.org/dc/elements/1.1/" xmlns:cc="http://creativecommons.org/ns#" xmlns:rdf="http://www.w3.org/1999/02/22-rdf-syntax-ns#">
   <cc:Work>
    <dc:type rdf:resource="http://purl.org/dc/dcmitype/StillImage"/>
    <dc:date>2025-05-23T10:35:22.641322</dc:date>
    <dc:format>image/svg+xml</dc:format>
    <dc:creator>
     <cc:Agent>
      <dc:title>Matplotlib v3.10.0, https://matplotlib.org/</dc:title>
     </cc:Agent>
    </dc:creator>
   </cc:Work>
  </rdf:RDF>
 </metadata>
 <defs>
  <style type="text/css">*{stroke-linejoin: round; stroke-linecap: butt}</style>
 </defs>
 <g id="figure_1">
  <g id="patch_1">
   <path d="M 0 432 
L 720 432 
L 720 0 
L 0 0 
z
" style="fill: #ffffff"/>
  </g>
  <g id="axes_1">
   <g id="patch_2">
    <path d="M 49.22 389.08 
L 709.2 389.08 
L 709.2 27.6 
L 49.22 27.6 
z
" style="fill: #ffffff"/>
   </g>
   <g id="matplotlib.axis_1">
    <g id="xtick_1">
     <g id="line2d_1">
      <path d="M 143.733265 389.08 
L 143.733265 27.6 
" clip-path="url(#pfa55288cd7)" style="fill: none; stroke: #b0b0b0; stroke-opacity: 0.3; stroke-width: 0.8; stroke-linecap: square"/>
     </g>
     <g id="line2d_2">
      <defs>
       <path id="mbf676fdb32" d="M 0 0 
L 0 3.5 
" style="stroke: #000000; stroke-width: 0.8"/>
      </defs>
      <g>
       <use xlink:href="#mbf676fdb32" x="143.733265" y="389.08" style="stroke: #000000; stroke-width: 0.8"/>
      </g>
     </g>
     <g id="text_1">
      <!-- 50 -->
      <g transform="translate(137.370765 403.678437) scale(0.1 -0.1)">
       <defs>
        <path id="DejaVuSans-35" d="M 691 4666 
L 3169 4666 
L 3169 4134 
L 1269 4134 
L 1269 2991 
Q 1406 3038 1543 3061 
Q 1681 3084 1819 3084 
Q 2600 3084 3056 2656 
Q 3513 2228 3513 1497 
Q 3513 744 3044 326 
Q 2575 -91 1722 -91 
Q 1428 -91 1123 -41 
Q 819 9 494 109 
L 494 744 
Q 775 591 1075 516 
Q 1375 441 1709 441 
Q 2250 441 2565 725 
Q 2881 1009 2881 1497 
Q 2881 1984 2565 2268 
Q 2250 2553 1709 2553 
Q 1456 2553 1204 2497 
Q 953 2441 691 2322 
L 691 4666 
z
" transform="scale(0.015625)"/>
        <path id="DejaVuSans-30" d="M 2034 4250 
Q 1547 4250 1301 3770 
Q 1056 3291 1056 2328 
Q 1056 1369 1301 889 
Q 1547 409 2034 409 
Q 2525 409 2770 889 
Q 3016 1369 3016 2328 
Q 3016 3291 2770 3770 
Q 2525 4250 2034 4250 
z
M 2034 4750 
Q 2819 4750 3233 4129 
Q 3647 3509 3647 2328 
Q 3647 1150 3233 529 
Q 2819 -91 2034 -91 
Q 1250 -91 836 529 
Q 422 1150 422 2328 
Q 422 3509 836 4129 
Q 1250 4750 2034 4750 
z
" transform="scale(0.015625)"/>
       </defs>
       <use xlink:href="#DejaVuSans-35"/>
       <use xlink:href="#DejaVuSans-30" transform="translate(63.623047 0)"/>
      </g>
     </g>
    </g>
    <g id="xtick_2">
     <g id="line2d_3">
      <path d="M 251.256888 389.08 
L 251.256888 27.6 
" clip-path="url(#pfa55288cd7)" style="fill: none; stroke: #b0b0b0; stroke-opacity: 0.3; stroke-width: 0.8; stroke-linecap: square"/>
     </g>
     <g id="line2d_4">
      <g>
       <use xlink:href="#mbf676fdb32" x="251.256888" y="389.08" style="stroke: #000000; stroke-width: 0.8"/>
      </g>
     </g>
     <g id="text_2">
      <!-- 100 -->
      <g transform="translate(241.713138 403.678437) scale(0.1 -0.1)">
       <defs>
        <path id="DejaVuSans-31" d="M 794 531 
L 1825 531 
L 1825 4091 
L 703 3866 
L 703 4441 
L 1819 4666 
L 2450 4666 
L 2450 531 
L 3481 531 
L 3481 0 
L 794 0 
L 794 531 
z
" transform="scale(0.015625)"/>
       </defs>
       <use xlink:href="#DejaVuSans-31"/>
       <use xlink:href="#DejaVuSans-30" transform="translate(63.623047 0)"/>
       <use xlink:href="#DejaVuSans-30" transform="translate(127.246094 0)"/>
      </g>
     </g>
    </g>
    <g id="xtick_3">
     <g id="line2d_5">
      <path d="M 358.780512 389.08 
L 358.780512 27.6 
" clip-path="url(#pfa55288cd7)" style="fill: none; stroke: #b0b0b0; stroke-opacity: 0.3; stroke-width: 0.8; stroke-linecap: square"/>
     </g>
     <g id="line2d_6">
      <g>
       <use xlink:href="#mbf676fdb32" x="358.780512" y="389.08" style="stroke: #000000; stroke-width: 0.8"/>
      </g>
     </g>
     <g id="text_3">
      <!-- 150 -->
      <g transform="translate(349.236762 403.678437) scale(0.1 -0.1)">
       <use xlink:href="#DejaVuSans-31"/>
       <use xlink:href="#DejaVuSans-35" transform="translate(63.623047 0)"/>
       <use xlink:href="#DejaVuSans-30" transform="translate(127.246094 0)"/>
      </g>
     </g>
    </g>
    <g id="xtick_4">
     <g id="line2d_7">
      <path d="M 466.304135 389.08 
L 466.304135 27.6 
" clip-path="url(#pfa55288cd7)" style="fill: none; stroke: #b0b0b0; stroke-opacity: 0.3; stroke-width: 0.8; stroke-linecap: square"/>
     </g>
     <g id="line2d_8">
      <g>
       <use xlink:href="#mbf676fdb32" x="466.304135" y="389.08" style="stroke: #000000; stroke-width: 0.8"/>
      </g>
     </g>
     <g id="text_4">
      <!-- 200 -->
      <g transform="translate(456.760385 403.678437) scale(0.1 -0.1)">
       <defs>
        <path id="DejaVuSans-32" d="M 1228 531 
L 3431 531 
L 3431 0 
L 469 0 
L 469 531 
Q 828 903 1448 1529 
Q 2069 2156 2228 2338 
Q 2531 2678 2651 2914 
Q 2772 3150 2772 3378 
Q 2772 3750 2511 3984 
Q 2250 4219 1831 4219 
Q 1534 4219 1204 4116 
Q 875 4013 500 3803 
L 500 4441 
Q 881 4594 1212 4672 
Q 1544 4750 1819 4750 
Q 2544 4750 2975 4387 
Q 3406 4025 3406 3419 
Q 3406 3131 3298 2873 
Q 3191 2616 2906 2266 
Q 2828 2175 2409 1742 
Q 1991 1309 1228 531 
z
" transform="scale(0.015625)"/>
       </defs>
       <use xlink:href="#DejaVuSans-32"/>
       <use xlink:href="#DejaVuSans-30" transform="translate(63.623047 0)"/>
       <use xlink:href="#DejaVuSans-30" transform="translate(127.246094 0)"/>
      </g>
     </g>
    </g>
    <g id="xtick_5">
     <g id="line2d_9">
      <path d="M 573.827758 389.08 
L 573.827758 27.6 
" clip-path="url(#pfa55288cd7)" style="fill: none; stroke: #b0b0b0; stroke-opacity: 0.3; stroke-width: 0.8; stroke-linecap: square"/>
     </g>
     <g id="line2d_10">
      <g>
       <use xlink:href="#mbf676fdb32" x="573.827758" y="389.08" style="stroke: #000000; stroke-width: 0.8"/>
      </g>
     </g>
     <g id="text_5">
      <!-- 250 -->
      <g transform="translate(564.284008 403.678437) scale(0.1 -0.1)">
       <use xlink:href="#DejaVuSans-32"/>
       <use xlink:href="#DejaVuSans-35" transform="translate(63.623047 0)"/>
       <use xlink:href="#DejaVuSans-30" transform="translate(127.246094 0)"/>
      </g>
     </g>
    </g>
    <g id="xtick_6">
     <g id="line2d_11">
      <path d="M 681.351382 389.08 
L 681.351382 27.6 
" clip-path="url(#pfa55288cd7)" style="fill: none; stroke: #b0b0b0; stroke-opacity: 0.3; stroke-width: 0.8; stroke-linecap: square"/>
     </g>
     <g id="line2d_12">
      <g>
       <use xlink:href="#mbf676fdb32" x="681.351382" y="389.08" style="stroke: #000000; stroke-width: 0.8"/>
      </g>
     </g>
     <g id="text_6">
      <!-- 300 -->
      <g transform="translate(671.807632 403.678437) scale(0.1 -0.1)">
       <defs>
        <path id="DejaVuSans-33" d="M 2597 2516 
Q 3050 2419 3304 2112 
Q 3559 1806 3559 1356 
Q 3559 666 3084 287 
Q 2609 -91 1734 -91 
Q 1441 -91 1130 -33 
Q 819 25 488 141 
L 488 750 
Q 750 597 1062 519 
Q 1375 441 1716 441 
Q 2309 441 2620 675 
Q 2931 909 2931 1356 
Q 2931 1769 2642 2001 
Q 2353 2234 1838 2234 
L 1294 2234 
L 1294 2753 
L 1863 2753 
Q 2328 2753 2575 2939 
Q 2822 3125 2822 3475 
Q 2822 3834 2567 4026 
Q 2313 4219 1838 4219 
Q 1578 4219 1281 4162 
Q 984 4106 628 3988 
L 628 4550 
Q 988 4650 1302 4700 
Q 1616 4750 1894 4750 
Q 2613 4750 3031 4423 
Q 3450 4097 3450 3541 
Q 3450 3153 3228 2886 
Q 3006 2619 2597 2516 
z
" transform="scale(0.015625)"/>
       </defs>
       <use xlink:href="#DejaVuSans-33"/>
       <use xlink:href="#DejaVuSans-30" transform="translate(63.623047 0)"/>
       <use xlink:href="#DejaVuSans-30" transform="translate(127.246094 0)"/>
      </g>
     </g>
    </g>
    <g id="text_7">
     <!-- Epoch -->
     <g transform="translate(360.836875 418.87625) scale(0.12 -0.12)">
      <defs>
       <path id="DejaVuSans-45" d="M 628 4666 
L 3578 4666 
L 3578 4134 
L 1259 4134 
L 1259 2753 
L 3481 2753 
L 3481 2222 
L 1259 2222 
L 1259 531 
L 3634 531 
L 3634 0 
L 628 0 
L 628 4666 
z
" transform="scale(0.015625)"/>
       <path id="DejaVuSans-70" d="M 1159 525 
L 1159 -1331 
L 581 -1331 
L 581 3500 
L 1159 3500 
L 1159 2969 
Q 1341 3281 1617 3432 
Q 1894 3584 2278 3584 
Q 2916 3584 3314 3078 
Q 3713 2572 3713 1747 
Q 3713 922 3314 415 
Q 2916 -91 2278 -91 
Q 1894 -91 1617 61 
Q 1341 213 1159 525 
z
M 3116 1747 
Q 3116 2381 2855 2742 
Q 2594 3103 2138 3103 
Q 1681 3103 1420 2742 
Q 1159 2381 1159 1747 
Q 1159 1113 1420 752 
Q 1681 391 2138 391 
Q 2594 391 2855 752 
Q 3116 1113 3116 1747 
z
" transform="scale(0.015625)"/>
       <path id="DejaVuSans-6f" d="M 1959 3097 
Q 1497 3097 1228 2736 
Q 959 2375 959 1747 
Q 959 1119 1226 758 
Q 1494 397 1959 397 
Q 2419 397 2687 759 
Q 2956 1122 2956 1747 
Q 2956 2369 2687 2733 
Q 2419 3097 1959 3097 
z
M 1959 3584 
Q 2709 3584 3137 3096 
Q 3566 2609 3566 1747 
Q 3566 888 3137 398 
Q 2709 -91 1959 -91 
Q 1206 -91 779 398 
Q 353 888 353 1747 
Q 353 2609 779 3096 
Q 1206 3584 1959 3584 
z
" transform="scale(0.015625)"/>
       <path id="DejaVuSans-63" d="M 3122 3366 
L 3122 2828 
Q 2878 2963 2633 3030 
Q 2388 3097 2138 3097 
Q 1578 3097 1268 2742 
Q 959 2388 959 1747 
Q 959 1106 1268 751 
Q 1578 397 2138 397 
Q 2388 397 2633 464 
Q 2878 531 3122 666 
L 3122 134 
Q 2881 22 2623 -34 
Q 2366 -91 2075 -91 
Q 1284 -91 818 406 
Q 353 903 353 1747 
Q 353 2603 823 3093 
Q 1294 3584 2113 3584 
Q 2378 3584 2631 3529 
Q 2884 3475 3122 3366 
z
" transform="scale(0.015625)"/>
       <path id="DejaVuSans-68" d="M 3513 2113 
L 3513 0 
L 2938 0 
L 2938 2094 
Q 2938 2591 2744 2837 
Q 2550 3084 2163 3084 
Q 1697 3084 1428 2787 
Q 1159 2491 1159 1978 
L 1159 0 
L 581 0 
L 581 4863 
L 1159 4863 
L 1159 2956 
Q 1366 3272 1645 3428 
Q 1925 3584 2291 3584 
Q 2894 3584 3203 3211 
Q 3513 2838 3513 2113 
z
" transform="scale(0.015625)"/>
      </defs>
      <use xlink:href="#DejaVuSans-45"/>
      <use xlink:href="#DejaVuSans-70" transform="translate(63.183594 0)"/>
      <use xlink:href="#DejaVuSans-6f" transform="translate(126.660156 0)"/>
      <use xlink:href="#DejaVuSans-63" transform="translate(187.841797 0)"/>
      <use xlink:href="#DejaVuSans-68" transform="translate(242.822266 0)"/>
     </g>
    </g>
   </g>
   <g id="matplotlib.axis_2">
    <g id="ytick_1">
     <g id="line2d_13">
      <path d="M 49.22 336.252581 
L 709.2 336.252581 
" clip-path="url(#pfa55288cd7)" style="fill: none; stroke: #b0b0b0; stroke-opacity: 0.3; stroke-width: 0.8; stroke-linecap: square"/>
     </g>
     <g id="line2d_14">
      <defs>
       <path id="mbe5e1135df" d="M 0 0 
L -3.5 0 
" style="stroke: #000000; stroke-width: 0.8"/>
      </defs>
      <g>
       <use xlink:href="#mbe5e1135df" x="49.22" y="336.252581" style="stroke: #000000; stroke-width: 0.8"/>
      </g>
     </g>
     <g id="text_8">
      <!-- 0.1 -->
      <g transform="translate(26.316875 340.0518) scale(0.1 -0.1)">
       <defs>
        <path id="DejaVuSans-2e" d="M 684 794 
L 1344 794 
L 1344 0 
L 684 0 
L 684 794 
z
" transform="scale(0.015625)"/>
       </defs>
       <use xlink:href="#DejaVuSans-30"/>
       <use xlink:href="#DejaVuSans-2e" transform="translate(63.623047 0)"/>
       <use xlink:href="#DejaVuSans-31" transform="translate(95.410156 0)"/>
      </g>
     </g>
    </g>
    <g id="ytick_2">
     <g id="line2d_15">
      <path d="M 49.22 260.258285 
L 709.2 260.258285 
" clip-path="url(#pfa55288cd7)" style="fill: none; stroke: #b0b0b0; stroke-opacity: 0.3; stroke-width: 0.8; stroke-linecap: square"/>
     </g>
     <g id="line2d_16">
      <g>
       <use xlink:href="#mbe5e1135df" x="49.22" y="260.258285" style="stroke: #000000; stroke-width: 0.8"/>
      </g>
     </g>
     <g id="text_9">
      <!-- 0.2 -->
      <g transform="translate(26.316875 264.057504) scale(0.1 -0.1)">
       <use xlink:href="#DejaVuSans-30"/>
       <use xlink:href="#DejaVuSans-2e" transform="translate(63.623047 0)"/>
       <use xlink:href="#DejaVuSans-32" transform="translate(95.410156 0)"/>
      </g>
     </g>
    </g>
    <g id="ytick_3">
     <g id="line2d_17">
      <path d="M 49.22 184.263989 
L 709.2 184.263989 
" clip-path="url(#pfa55288cd7)" style="fill: none; stroke: #b0b0b0; stroke-opacity: 0.3; stroke-width: 0.8; stroke-linecap: square"/>
     </g>
     <g id="line2d_18">
      <g>
       <use xlink:href="#mbe5e1135df" x="49.22" y="184.263989" style="stroke: #000000; stroke-width: 0.8"/>
      </g>
     </g>
     <g id="text_10">
      <!-- 0.3 -->
      <g transform="translate(26.316875 188.063208) scale(0.1 -0.1)">
       <use xlink:href="#DejaVuSans-30"/>
       <use xlink:href="#DejaVuSans-2e" transform="translate(63.623047 0)"/>
       <use xlink:href="#DejaVuSans-33" transform="translate(95.410156 0)"/>
      </g>
     </g>
    </g>
    <g id="ytick_4">
     <g id="line2d_19">
      <path d="M 49.22 108.269694 
L 709.2 108.269694 
" clip-path="url(#pfa55288cd7)" style="fill: none; stroke: #b0b0b0; stroke-opacity: 0.3; stroke-width: 0.8; stroke-linecap: square"/>
     </g>
     <g id="line2d_20">
      <g>
       <use xlink:href="#mbe5e1135df" x="49.22" y="108.269694" style="stroke: #000000; stroke-width: 0.8"/>
      </g>
     </g>
     <g id="text_11">
      <!-- 0.4 -->
      <g transform="translate(26.316875 112.068912) scale(0.1 -0.1)">
       <defs>
        <path id="DejaVuSans-34" d="M 2419 4116 
L 825 1625 
L 2419 1625 
L 2419 4116 
z
M 2253 4666 
L 3047 4666 
L 3047 1625 
L 3713 1625 
L 3713 1100 
L 3047 1100 
L 3047 0 
L 2419 0 
L 2419 1100 
L 313 1100 
L 313 1709 
L 2253 4666 
z
" transform="scale(0.015625)"/>
       </defs>
       <use xlink:href="#DejaVuSans-30"/>
       <use xlink:href="#DejaVuSans-2e" transform="translate(63.623047 0)"/>
       <use xlink:href="#DejaVuSans-34" transform="translate(95.410156 0)"/>
      </g>
     </g>
    </g>
    <g id="ytick_5">
     <g id="line2d_21">
      <path d="M 49.22 32.275398 
L 709.2 32.275398 
" clip-path="url(#pfa55288cd7)" style="fill: none; stroke: #b0b0b0; stroke-opacity: 0.3; stroke-width: 0.8; stroke-linecap: square"/>
     </g>
     <g id="line2d_22">
      <g>
       <use xlink:href="#mbe5e1135df" x="49.22" y="32.275398" style="stroke: #000000; stroke-width: 0.8"/>
      </g>
     </g>
     <g id="text_12">
      <!-- 0.5 -->
      <g transform="translate(26.316875 36.074617) scale(0.1 -0.1)">
       <use xlink:href="#DejaVuSans-30"/>
       <use xlink:href="#DejaVuSans-2e" transform="translate(63.623047 0)"/>
       <use xlink:href="#DejaVuSans-35" transform="translate(95.410156 0)"/>
      </g>
     </g>
    </g>
    <g id="text_13">
     <!-- MAE (eV) -->
     <g transform="translate(19.82125 235.7975) rotate(-90) scale(0.12 -0.12)">
      <defs>
       <path id="DejaVuSans-4d" d="M 628 4666 
L 1569 4666 
L 2759 1491 
L 3956 4666 
L 4897 4666 
L 4897 0 
L 4281 0 
L 4281 4097 
L 3078 897 
L 2444 897 
L 1241 4097 
L 1241 0 
L 628 0 
L 628 4666 
z
" transform="scale(0.015625)"/>
       <path id="DejaVuSans-41" d="M 2188 4044 
L 1331 1722 
L 3047 1722 
L 2188 4044 
z
M 1831 4666 
L 2547 4666 
L 4325 0 
L 3669 0 
L 3244 1197 
L 1141 1197 
L 716 0 
L 50 0 
L 1831 4666 
z
" transform="scale(0.015625)"/>
       <path id="DejaVuSans-20" transform="scale(0.015625)"/>
       <path id="DejaVuSans-28" d="M 1984 4856 
Q 1566 4138 1362 3434 
Q 1159 2731 1159 2009 
Q 1159 1288 1364 580 
Q 1569 -128 1984 -844 
L 1484 -844 
Q 1016 -109 783 600 
Q 550 1309 550 2009 
Q 550 2706 781 3412 
Q 1013 4119 1484 4856 
L 1984 4856 
z
" transform="scale(0.015625)"/>
       <path id="DejaVuSans-65" d="M 3597 1894 
L 3597 1613 
L 953 1613 
Q 991 1019 1311 708 
Q 1631 397 2203 397 
Q 2534 397 2845 478 
Q 3156 559 3463 722 
L 3463 178 
Q 3153 47 2828 -22 
Q 2503 -91 2169 -91 
Q 1331 -91 842 396 
Q 353 884 353 1716 
Q 353 2575 817 3079 
Q 1281 3584 2069 3584 
Q 2775 3584 3186 3129 
Q 3597 2675 3597 1894 
z
M 3022 2063 
Q 3016 2534 2758 2815 
Q 2500 3097 2075 3097 
Q 1594 3097 1305 2825 
Q 1016 2553 972 2059 
L 3022 2063 
z
" transform="scale(0.015625)"/>
       <path id="DejaVuSans-56" d="M 1831 0 
L 50 4666 
L 709 4666 
L 2188 738 
L 3669 4666 
L 4325 4666 
L 2547 0 
L 1831 0 
z
" transform="scale(0.015625)"/>
       <path id="DejaVuSans-29" d="M 513 4856 
L 1013 4856 
Q 1481 4119 1714 3412 
Q 1947 2706 1947 2009 
Q 1947 1309 1714 600 
Q 1481 -109 1013 -844 
L 513 -844 
Q 928 -128 1133 580 
Q 1338 1288 1338 2009 
Q 1338 2731 1133 3434 
Q 928 4138 513 4856 
z
" transform="scale(0.015625)"/>
      </defs>
      <use xlink:href="#DejaVuSans-4d"/>
      <use xlink:href="#DejaVuSans-41" transform="translate(86.279297 0)"/>
      <use xlink:href="#DejaVuSans-45" transform="translate(154.6875 0)"/>
      <use xlink:href="#DejaVuSans-20" transform="translate(217.871094 0)"/>
      <use xlink:href="#DejaVuSans-28" transform="translate(249.658203 0)"/>
      <use xlink:href="#DejaVuSans-65" transform="translate(288.671875 0)"/>
      <use xlink:href="#DejaVuSans-56" transform="translate(350.195312 0)"/>
      <use xlink:href="#DejaVuSans-29" transform="translate(418.603516 0)"/>
     </g>
    </g>
   </g>
   <g id="line2d_23">
    <path d="M 79.219091 136.453523 
L 81.369563 183.499997 
L 83.520036 124.504707 
L 85.670508 139.219145 
L 87.820981 139.661117 
L 89.971453 156.967755 
L 92.121926 197.988081 
L 94.272398 216.371797 
L 96.422871 207.199985 
L 98.573343 191.049707 
L 100.723816 208.086656 
L 102.874288 115.908261 
L 105.024761 99.694228 
L 107.175233 215.842062 
L 109.325705 193.134118 
L 111.476178 224.600914 
L 113.62665 149.240415 
L 115.777123 207.302092 
L 117.927595 194.845917 
L 120.078068 187.784219 
L 122.22854 230.472688 
L 124.379013 137.592446 
L 126.529485 231.754154 
L 128.679958 200.357255 
L 130.83043 233.888255 
L 132.980903 242.337295 
L 135.131375 174.286053 
L 137.281848 165.394752 
L 139.43232 220.009725 
L 141.582792 202.787393 
L 143.733265 248.192781 
L 145.883737 245.001668 
L 148.03421 230.273519 
L 150.184682 256.95305 
L 152.335155 137.264585 
L 154.485627 248.919538 
L 156.6361 235.609674 
L 158.786572 237.188326 
L 160.937045 195.108433 
L 163.087517 265.920605 
L 165.23799 223.395336 
L 167.388462 248.137368 
L 169.538935 269.875355 
L 171.689407 201.902761 
L 173.839879 263.28332 
L 175.990352 269.370014 
L 178.140824 257.669714 
L 180.291297 204.890507 
L 182.441769 224.158705 
L 184.592242 272.715319 
L 186.742714 246.581071 
L 188.893187 264.789992 
L 191.043659 277.735274 
L 193.194132 260.379236 
L 195.344604 284.264048 
L 197.495077 257.212732 
L 199.645549 286.834506 
L 201.796022 256.822039 
L 203.946494 288.521492 
L 206.096966 264.12451 
L 208.247439 282.667229 
L 210.397911 289.825365 
L 212.548384 259.257835 
L 214.698856 278.998992 
L 216.849329 272.19456 
L 218.999801 275.879687 
L 221.150274 233.605393 
L 223.300746 286.736854 
L 225.451219 316.039206 
L 227.601691 285.786212 
L 229.752164 292.007536 
L 231.902636 287.748041 
L 234.053109 314.10102 
L 236.203581 282.690496 
L 238.354053 293.641557 
L 240.504526 189.670192 
L 242.654998 301.091177 
L 244.805471 317.433978 
L 246.955943 310.123099 
L 249.106416 318.175176 
L 251.256888 313.197793 
L 253.407361 323.366233 
L 255.557833 313.327118 
L 257.708306 324.139475 
L 259.858778 315.161693 
L 262.009251 296.380927 
L 264.159723 315.80787 
L 266.310196 311.748091 
L 268.460668 295.18963 
L 270.61114 317.183144 
L 272.761613 315.944529 
L 274.912085 307.510789 
L 277.062558 297.471159 
L 279.21303 283.746552 
L 281.363503 308.880619 
L 283.513975 277.497592 
L 285.664448 321.346211 
L 287.81492 282.884007 
L 289.965393 311.910003 
L 292.115865 299.560509 
L 294.266338 304.821216 
L 296.41681 322.442487 
L 298.567283 273.728664 
L 300.717755 299.123766 
L 302.868227 304.999663 
L 305.0187 318.733085 
L 307.169172 307.393263 
L 309.319645 323.473006 
L 311.470117 315.183328 
L 313.62059 327.465507 
L 315.771062 320.870804 
L 317.921535 333.749448 
L 320.072007 330.359762 
L 322.22248 311.301545 
L 324.372952 327.123442 
L 326.523425 287.594278 
L 328.673897 304.722018 
L 330.82437 342.572436 
L 332.974842 315.296215 
L 335.125314 284.187472 
L 337.275787 343.419677 
L 339.426259 310.849588 
L 341.576732 320.473454 
L 343.727204 345.523956 
L 345.877677 318.174156 
L 348.028149 323.801232 
L 350.178622 333.841404 
L 354.479567 322.370937 
L 356.630039 330.656808 
L 358.780512 331.389867 
L 360.930984 312.158916 
L 363.081457 359.840024 
L 365.231929 336.045467 
L 367.382401 340.235661 
L 369.532874 343.589571 
L 371.683346 323.01211 
L 373.833819 337.571588 
L 375.984291 321.909359 
L 378.134764 329.231474 
L 380.285236 342.370234 
L 382.435709 336.996318 
L 384.586181 317.105999 
L 386.736654 339.893826 
L 388.887126 301.848266 
L 391.037599 308.845843 
L 393.188071 320.623996 
L 395.338543 323.369497 
L 397.489016 329.169238 
L 399.639488 308.168969 
L 401.789961 344.832567 
L 403.940433 322.361671 
L 406.090906 331.121537 
L 408.241378 334.965849 
L 410.391851 332.421062 
L 412.542323 341.680762 
L 414.692796 346.74856 
L 416.843268 344.358293 
L 418.993741 327.492865 
L 421.144213 350.41814 
L 423.294686 293.970094 
L 425.445158 331.041054 
L 427.59563 316.955629 
L 429.746103 343.23307 
L 431.896575 344.450448 
L 434.047048 322.716127 
L 436.19752 350.612385 
L 438.347993 353.67253 
L 440.498465 320.52308 
L 442.648938 310.425857 
L 444.79941 338.292557 
L 446.949883 355.987859 
L 449.100355 331.578723 
L 451.250828 342.218104 
L 453.4013 329.560741 
L 455.551773 304.203815 
L 457.702245 308.771919 
L 459.852717 335.711728 
L 462.00319 336.448303 
L 464.153662 290.135951 
L 466.304135 350.931286 
L 468.454607 320.97318 
L 470.60508 344.177576 
L 472.755552 338.985552 
L 474.906025 336.385852 
L 477.056497 347.66516 
L 479.20697 341.82688 
L 481.357442 313.26186 
L 483.507915 353.645591 
L 485.658387 339.410973 
L 487.80886 342.068905 
L 489.959332 357.90361 
L 492.109804 334.65675 
L 494.260277 335.140575 
L 496.410749 349.115946 
L 498.561222 361.46529 
L 500.711694 339.341092 
L 502.862167 340.574838 
L 505.012639 355.648655 
L 507.163112 372.649091 
L 509.313584 357.459738 
L 511.464057 343.700225 
L 513.614529 319.932317 
L 515.765002 357.528566 
L 517.915474 367.225409 
L 520.065947 363.490815 
L 522.216419 356.950032 
L 524.366891 340.89215 
L 526.517364 352.558951 
L 528.667836 327.645629 
L 530.818309 349.204225 
L 532.968781 339.12847 
L 535.119254 331.463469 
L 537.269726 364.899249 
L 539.420199 327.401381 
L 541.570671 304.418756 
L 543.721144 352.359026 
L 545.871616 358.850564 
L 548.022089 350.737722 
L 550.172561 357.085279 
L 552.323034 366.847791 
L 554.473506 353.738363 
L 556.623978 347.23233 
L 558.774451 314.035483 
L 560.924923 336.545278 
L 563.075396 357.616469 
L 565.225868 357.295131 
L 567.376341 358.822175 
L 569.526813 368.316462 
L 571.677286 350.530163 
L 573.827758 337.150247 
L 575.978231 348.994641 
L 578.128703 356.588076 
L 580.279176 351.24549 
L 582.429648 343.447528 
L 584.580121 347.198864 
L 586.730593 327.171543 
L 588.881065 345.806658 
L 591.031538 353.030713 
L 593.18201 354.920422 
L 595.332483 356.24964 
L 597.482955 347.935139 
L 599.633428 343.662335 
L 601.7839 331.789418 
L 603.934373 347.635 
L 606.084845 351.127953 
L 608.235318 328.117117 
L 610.38579 367.04281 
L 612.536263 369.815317 
L 614.686735 330.938742 
L 616.837208 332.506893 
L 618.98768 327.872805 
L 621.138152 304.733808 
L 623.288625 320.718427 
L 625.439097 340.955653 
L 627.58957 364.888319 
L 629.740042 346.131969 
L 631.890515 338.126013 
L 634.040987 362.836247 
L 636.19146 355.196665 
L 638.341932 338.982487 
L 642.642877 348.332665 
L 644.79335 352.121263 
L 646.943822 306.248199 
L 649.094295 345.252765 
L 651.244767 334.829458 
L 653.395239 343.922484 
L 655.545712 349.814615 
L 657.696184 371.759453 
L 659.846657 342.22548 
L 661.997129 348.092686 
L 664.147602 339.388522 
L 666.298074 353.929571 
L 668.448547 308.952932 
L 670.599019 348.162867 
L 672.749492 349.127021 
L 674.899964 334.865233 
L 677.050437 354.491006 
L 679.200909 364.122368 
L 679.200909 364.122368 
" clip-path="url(#pfa55288cd7)" style="fill: none; stroke: #0000ff; stroke-width: 2; stroke-linecap: square"/>
   </g>
   <g id="line2d_24">
    <path d="M 79.219091 100.412481 
L 81.369563 150.989334 
L 83.520036 88.710817 
L 85.670508 99.896165 
L 87.820981 83.405064 
L 89.971453 109.839939 
L 92.121926 141.613192 
L 94.272398 165.159024 
L 96.422871 146.171665 
L 98.573343 135.117484 
L 100.723816 147.728164 
L 102.874288 57.358085 
L 105.024761 44.030909 
L 107.175233 142.274975 
L 109.325705 126.509131 
L 111.476178 159.045999 
L 113.62665 95.480974 
L 115.777123 141.948238 
L 117.927595 126.881366 
L 120.078068 122.583214 
L 122.22854 154.886089 
L 124.379013 80.367935 
L 126.529485 155.455906 
L 128.679958 127.955492 
L 130.83043 163.050642 
L 132.980903 166.861834 
L 135.131375 121.541279 
L 137.281848 106.51324 
L 139.43232 160.498828 
L 141.582792 122.785168 
L 143.733265 168.888461 
L 145.883737 176.527871 
L 148.03421 159.43766 
L 150.184682 173.073769 
L 152.335155 89.26376 
L 154.485627 175.864465 
L 156.6361 165.488552 
L 158.786572 158.020505 
L 160.937045 117.62473 
L 163.087517 181.387078 
L 165.23799 152.01777 
L 167.388462 172.615237 
L 169.538935 183.158878 
L 171.689407 140.036833 
L 173.839879 181.688742 
L 175.990352 183.625804 
L 178.140824 174.051365 
L 180.291297 139.664079 
L 182.441769 153.504911 
L 184.592242 182.661795 
L 186.742714 167.571601 
L 188.893187 178.908538 
L 191.043659 191.98091 
L 193.194132 175.013536 
L 195.344604 186.160592 
L 197.495077 167.483399 
L 199.645549 195.708313 
L 201.796022 177.7286 
L 203.946494 200.10531 
L 206.096966 178.168786 
L 208.247439 190.084454 
L 210.397911 193.123919 
L 212.548384 175.774165 
L 214.698856 186.659104 
L 216.849329 176.944282 
L 218.999801 183.343503 
L 221.150274 154.47619 
L 223.300746 185.767741 
L 225.451219 210.234812 
L 227.601691 193.198253 
L 229.752164 197.405909 
L 231.902636 194.646107 
L 234.053109 214.485671 
L 236.203581 188.674914 
L 238.354053 195.486803 
L 240.504526 127.083513 
L 242.654998 195.845646 
L 244.805471 207.058534 
L 246.955943 202.523858 
L 249.106416 203.543121 
L 251.256888 212.711036 
L 253.407361 214.755706 
L 255.557833 204.367332 
L 257.708306 212.326817 
L 259.858778 207.430854 
L 262.009251 196.774414 
L 264.159723 204.547327 
L 266.310196 205.39752 
L 268.460668 192.677394 
L 270.61114 203.314255 
L 272.761613 200.516182 
L 274.912085 199.494821 
L 277.062558 194.078929 
L 279.21303 184.303791 
L 281.363503 200.754827 
L 283.513975 184.482813 
L 285.664448 212.593845 
L 287.81492 180.458699 
L 289.965393 198.975411 
L 292.115865 198.135861 
L 294.266338 205.209802 
L 296.41681 211.816234 
L 298.567283 173.657108 
L 300.717755 193.03191 
L 302.868227 194.71553 
L 305.0187 205.40215 
L 307.169172 202.106734 
L 309.319645 207.968523 
L 311.470117 203.562224 
L 313.62059 213.7086 
L 315.771062 207.561091 
L 317.921535 215.122229 
L 320.072007 211.499231 
L 322.22248 201.231791 
L 324.372952 206.376479 
L 326.523425 181.069318 
L 328.673897 199.553687 
L 330.82437 219.202353 
L 332.974842 199.9598 
L 335.125314 184.147335 
L 337.275787 222.928913 
L 339.426259 203.540936 
L 341.576732 209.620732 
L 343.727204 223.801671 
L 345.877677 207.527991 
L 348.028149 205.579246 
L 350.178622 217.35399 
L 352.329094 209.961185 
L 354.479567 209.09985 
L 356.630039 203.322368 
L 358.780512 204.777361 
L 360.930984 202.610481 
L 363.081457 223.12853 
L 365.231929 216.125245 
L 367.382401 211.230342 
L 369.532874 214.767151 
L 371.683346 209.462436 
L 373.833819 218.935433 
L 375.984291 210.959918 
L 378.134764 214.324974 
L 380.285236 219.453567 
L 382.435709 217.695266 
L 384.586181 205.925822 
L 386.736654 220.936554 
L 388.887126 192.748937 
L 391.037599 193.387183 
L 393.188071 207.345725 
L 395.338543 202.961362 
L 397.489016 215.412687 
L 399.639488 191.153388 
L 401.789961 218.995143 
L 403.940433 207.574915 
L 406.090906 218.696291 
L 408.241378 218.869406 
L 410.391851 210.202599 
L 412.542323 220.896726 
L 414.692796 219.560482 
L 416.843268 216.957677 
L 418.993741 209.045571 
L 421.144213 217.628287 
L 423.294686 180.938281 
L 425.445158 211.926372 
L 427.59563 201.278044 
L 429.746103 222.170296 
L 431.896575 214.896825 
L 434.047048 201.340155 
L 436.19752 219.657121 
L 438.347993 222.05754 
L 440.498465 196.425328 
L 442.648938 185.027599 
L 444.79941 210.346962 
L 446.949883 222.357495 
L 449.100355 208.930153 
L 451.250828 222.449115 
L 455.551773 197.326296 
L 457.702245 184.932561 
L 459.852717 208.215151 
L 462.00319 211.2462 
L 464.153662 187.70621 
L 466.304135 218.260929 
L 468.454607 202.949636 
L 470.60508 218.544702 
L 472.755552 211.885549 
L 474.906025 208.860341 
L 477.056497 215.425732 
L 479.20697 214.278742 
L 481.357442 195.381143 
L 483.507915 220.921994 
L 485.658387 209.940655 
L 487.80886 216.191899 
L 489.959332 223.186725 
L 492.109804 211.862141 
L 494.260277 209.509555 
L 496.410749 221.08823 
L 498.561222 224.464882 
L 500.711694 212.13077 
L 502.862167 213.339936 
L 505.012639 220.328899 
L 507.163112 227.697798 
L 509.313584 225.234078 
L 511.464057 217.321907 
L 513.614529 201.950666 
L 515.765002 224.569828 
L 517.915474 227.338436 
L 520.065947 224.302822 
L 522.216419 226.209705 
L 524.366891 214.137602 
L 526.517364 224.277315 
L 528.667836 209.1683 
L 530.818309 217.424192 
L 532.968781 212.268686 
L 535.119254 205.063773 
L 537.269726 225.642029 
L 539.420199 208.309994 
L 541.570671 198.214587 
L 543.721144 221.896648 
L 545.871616 223.486658 
L 548.022089 220.584137 
L 550.172561 225.647373 
L 552.323034 226.637279 
L 554.473506 220.807507 
L 556.623978 218.011013 
L 558.774451 200.586298 
L 560.924923 208.884852 
L 563.075396 225.091596 
L 565.225868 224.2689 
L 567.376341 222.394554 
L 569.526813 226.205551 
L 571.677286 220.818995 
L 573.827758 214.980527 
L 575.978231 219.712504 
L 578.128703 222.208004 
L 580.279176 221.865647 
L 582.429648 218.615423 
L 584.580121 215.92684 
L 586.730593 206.413106 
L 588.881065 218.241891 
L 591.031538 221.397769 
L 593.18201 221.288906 
L 595.332483 221.633774 
L 597.482955 218.783281 
L 599.633428 220.894909 
L 601.7839 209.885423 
L 603.934373 217.966577 
L 606.084845 220.586148 
L 608.235318 207.819249 
L 610.38579 226.606104 
L 612.536263 224.857733 
L 614.686735 211.76124 
L 616.837208 208.761495 
L 618.98768 211.717561 
L 621.138152 200.256531 
L 623.288625 201.053592 
L 625.439097 214.797763 
L 627.58957 224.134228 
L 629.740042 219.793761 
L 631.890515 211.83724 
L 634.040987 224.000465 
L 636.19146 220.001447 
L 638.341932 215.65317 
L 640.492405 216.10757 
L 642.642877 218.981968 
L 644.79335 220.87401 
L 646.943822 196.315168 
L 649.094295 217.335731 
L 651.244767 211.902899 
L 653.395239 219.138706 
L 655.545712 218.716346 
L 657.696184 227.548805 
L 659.846657 216.80109 
L 661.997129 218.438544 
L 664.147602 215.798118 
L 666.298074 220.765667 
L 668.448547 194.290747 
L 670.599019 218.003074 
L 672.749492 220.969654 
L 674.899964 211.325337 
L 677.050437 220.991201 
L 679.200909 225.125345 
L 679.200909 225.125345 
" clip-path="url(#pfa55288cd7)" style="fill: none; stroke: #ffa500; stroke-width: 2; stroke-linecap: square"/>
   </g>
   <g id="patch_3">
    <path d="M 49.22 389.08 
L 49.22 27.6 
" style="fill: none; stroke: #000000; stroke-width: 0.8; stroke-linejoin: miter; stroke-linecap: square"/>
   </g>
   <g id="patch_4">
    <path d="M 709.2 389.08 
L 709.2 27.6 
" style="fill: none; stroke: #000000; stroke-width: 0.8; stroke-linejoin: miter; stroke-linecap: square"/>
   </g>
   <g id="patch_5">
    <path d="M 49.22 389.08 
L 709.2 389.08 
" style="fill: none; stroke: #000000; stroke-width: 0.8; stroke-linejoin: miter; stroke-linecap: square"/>
   </g>
   <g id="patch_6">
    <path d="M 49.22 27.6 
L 709.2 27.6 
" style="fill: none; stroke: #000000; stroke-width: 0.8; stroke-linejoin: miter; stroke-linecap: square"/>
   </g>
   <g id="text_14">
    <!-- Training vs Validation MAE - ALIGNN (Zoomed) -->
    <g transform="translate(217.068125 21.6) scale(0.14 -0.14)">
     <defs>
      <path id="DejaVuSans-54" d="M -19 4666 
L 3928 4666 
L 3928 4134 
L 2272 4134 
L 2272 0 
L 1638 0 
L 1638 4134 
L -19 4134 
L -19 4666 
z
" transform="scale(0.015625)"/>
      <path id="DejaVuSans-72" d="M 2631 2963 
Q 2534 3019 2420 3045 
Q 2306 3072 2169 3072 
Q 1681 3072 1420 2755 
Q 1159 2438 1159 1844 
L 1159 0 
L 581 0 
L 581 3500 
L 1159 3500 
L 1159 2956 
Q 1341 3275 1631 3429 
Q 1922 3584 2338 3584 
Q 2397 3584 2469 3576 
Q 2541 3569 2628 3553 
L 2631 2963 
z
" transform="scale(0.015625)"/>
      <path id="DejaVuSans-61" d="M 2194 1759 
Q 1497 1759 1228 1600 
Q 959 1441 959 1056 
Q 959 750 1161 570 
Q 1363 391 1709 391 
Q 2188 391 2477 730 
Q 2766 1069 2766 1631 
L 2766 1759 
L 2194 1759 
z
M 3341 1997 
L 3341 0 
L 2766 0 
L 2766 531 
Q 2569 213 2275 61 
Q 1981 -91 1556 -91 
Q 1019 -91 701 211 
Q 384 513 384 1019 
Q 384 1609 779 1909 
Q 1175 2209 1959 2209 
L 2766 2209 
L 2766 2266 
Q 2766 2663 2505 2880 
Q 2244 3097 1772 3097 
Q 1472 3097 1187 3025 
Q 903 2953 641 2809 
L 641 3341 
Q 956 3463 1253 3523 
Q 1550 3584 1831 3584 
Q 2591 3584 2966 3190 
Q 3341 2797 3341 1997 
z
" transform="scale(0.015625)"/>
      <path id="DejaVuSans-69" d="M 603 3500 
L 1178 3500 
L 1178 0 
L 603 0 
L 603 3500 
z
M 603 4863 
L 1178 4863 
L 1178 4134 
L 603 4134 
L 603 4863 
z
" transform="scale(0.015625)"/>
      <path id="DejaVuSans-6e" d="M 3513 2113 
L 3513 0 
L 2938 0 
L 2938 2094 
Q 2938 2591 2744 2837 
Q 2550 3084 2163 3084 
Q 1697 3084 1428 2787 
Q 1159 2491 1159 1978 
L 1159 0 
L 581 0 
L 581 3500 
L 1159 3500 
L 1159 2956 
Q 1366 3272 1645 3428 
Q 1925 3584 2291 3584 
Q 2894 3584 3203 3211 
Q 3513 2838 3513 2113 
z
" transform="scale(0.015625)"/>
      <path id="DejaVuSans-67" d="M 2906 1791 
Q 2906 2416 2648 2759 
Q 2391 3103 1925 3103 
Q 1463 3103 1205 2759 
Q 947 2416 947 1791 
Q 947 1169 1205 825 
Q 1463 481 1925 481 
Q 2391 481 2648 825 
Q 2906 1169 2906 1791 
z
M 3481 434 
Q 3481 -459 3084 -895 
Q 2688 -1331 1869 -1331 
Q 1566 -1331 1297 -1286 
Q 1028 -1241 775 -1147 
L 775 -588 
Q 1028 -725 1275 -790 
Q 1522 -856 1778 -856 
Q 2344 -856 2625 -561 
Q 2906 -266 2906 331 
L 2906 616 
Q 2728 306 2450 153 
Q 2172 0 1784 0 
Q 1141 0 747 490 
Q 353 981 353 1791 
Q 353 2603 747 3093 
Q 1141 3584 1784 3584 
Q 2172 3584 2450 3431 
Q 2728 3278 2906 2969 
L 2906 3500 
L 3481 3500 
L 3481 434 
z
" transform="scale(0.015625)"/>
      <path id="DejaVuSans-76" d="M 191 3500 
L 800 3500 
L 1894 563 
L 2988 3500 
L 3597 3500 
L 2284 0 
L 1503 0 
L 191 3500 
z
" transform="scale(0.015625)"/>
      <path id="DejaVuSans-73" d="M 2834 3397 
L 2834 2853 
Q 2591 2978 2328 3040 
Q 2066 3103 1784 3103 
Q 1356 3103 1142 2972 
Q 928 2841 928 2578 
Q 928 2378 1081 2264 
Q 1234 2150 1697 2047 
L 1894 2003 
Q 2506 1872 2764 1633 
Q 3022 1394 3022 966 
Q 3022 478 2636 193 
Q 2250 -91 1575 -91 
Q 1294 -91 989 -36 
Q 684 19 347 128 
L 347 722 
Q 666 556 975 473 
Q 1284 391 1588 391 
Q 1994 391 2212 530 
Q 2431 669 2431 922 
Q 2431 1156 2273 1281 
Q 2116 1406 1581 1522 
L 1381 1569 
Q 847 1681 609 1914 
Q 372 2147 372 2553 
Q 372 3047 722 3315 
Q 1072 3584 1716 3584 
Q 2034 3584 2315 3537 
Q 2597 3491 2834 3397 
z
" transform="scale(0.015625)"/>
      <path id="DejaVuSans-6c" d="M 603 4863 
L 1178 4863 
L 1178 0 
L 603 0 
L 603 4863 
z
" transform="scale(0.015625)"/>
      <path id="DejaVuSans-64" d="M 2906 2969 
L 2906 4863 
L 3481 4863 
L 3481 0 
L 2906 0 
L 2906 525 
Q 2725 213 2448 61 
Q 2172 -91 1784 -91 
Q 1150 -91 751 415 
Q 353 922 353 1747 
Q 353 2572 751 3078 
Q 1150 3584 1784 3584 
Q 2172 3584 2448 3432 
Q 2725 3281 2906 2969 
z
M 947 1747 
Q 947 1113 1208 752 
Q 1469 391 1925 391 
Q 2381 391 2643 752 
Q 2906 1113 2906 1747 
Q 2906 2381 2643 2742 
Q 2381 3103 1925 3103 
Q 1469 3103 1208 2742 
Q 947 2381 947 1747 
z
" transform="scale(0.015625)"/>
      <path id="DejaVuSans-74" d="M 1172 4494 
L 1172 3500 
L 2356 3500 
L 2356 3053 
L 1172 3053 
L 1172 1153 
Q 1172 725 1289 603 
Q 1406 481 1766 481 
L 2356 481 
L 2356 0 
L 1766 0 
Q 1100 0 847 248 
Q 594 497 594 1153 
L 594 3053 
L 172 3053 
L 172 3500 
L 594 3500 
L 594 4494 
L 1172 4494 
z
" transform="scale(0.015625)"/>
      <path id="DejaVuSans-2d" d="M 313 2009 
L 1997 2009 
L 1997 1497 
L 313 1497 
L 313 2009 
z
" transform="scale(0.015625)"/>
      <path id="DejaVuSans-4c" d="M 628 4666 
L 1259 4666 
L 1259 531 
L 3531 531 
L 3531 0 
L 628 0 
L 628 4666 
z
" transform="scale(0.015625)"/>
      <path id="DejaVuSans-49" d="M 628 4666 
L 1259 4666 
L 1259 0 
L 628 0 
L 628 4666 
z
" transform="scale(0.015625)"/>
      <path id="DejaVuSans-47" d="M 3809 666 
L 3809 1919 
L 2778 1919 
L 2778 2438 
L 4434 2438 
L 4434 434 
Q 4069 175 3628 42 
Q 3188 -91 2688 -91 
Q 1594 -91 976 548 
Q 359 1188 359 2328 
Q 359 3472 976 4111 
Q 1594 4750 2688 4750 
Q 3144 4750 3555 4637 
Q 3966 4525 4313 4306 
L 4313 3634 
Q 3963 3931 3569 4081 
Q 3175 4231 2741 4231 
Q 1884 4231 1454 3753 
Q 1025 3275 1025 2328 
Q 1025 1384 1454 906 
Q 1884 428 2741 428 
Q 3075 428 3337 486 
Q 3600 544 3809 666 
z
" transform="scale(0.015625)"/>
      <path id="DejaVuSans-4e" d="M 628 4666 
L 1478 4666 
L 3547 763 
L 3547 4666 
L 4159 4666 
L 4159 0 
L 3309 0 
L 1241 3903 
L 1241 0 
L 628 0 
L 628 4666 
z
" transform="scale(0.015625)"/>
      <path id="DejaVuSans-5a" d="M 359 4666 
L 4025 4666 
L 4025 4184 
L 1075 531 
L 4097 531 
L 4097 0 
L 288 0 
L 288 481 
L 3238 4134 
L 359 4134 
L 359 4666 
z
" transform="scale(0.015625)"/>
      <path id="DejaVuSans-6d" d="M 3328 2828 
Q 3544 3216 3844 3400 
Q 4144 3584 4550 3584 
Q 5097 3584 5394 3201 
Q 5691 2819 5691 2113 
L 5691 0 
L 5113 0 
L 5113 2094 
Q 5113 2597 4934 2840 
Q 4756 3084 4391 3084 
Q 3944 3084 3684 2787 
Q 3425 2491 3425 1978 
L 3425 0 
L 2847 0 
L 2847 2094 
Q 2847 2600 2669 2842 
Q 2491 3084 2119 3084 
Q 1678 3084 1418 2786 
Q 1159 2488 1159 1978 
L 1159 0 
L 581 0 
L 581 3500 
L 1159 3500 
L 1159 2956 
Q 1356 3278 1631 3431 
Q 1906 3584 2284 3584 
Q 2666 3584 2933 3390 
Q 3200 3197 3328 2828 
z
" transform="scale(0.015625)"/>
     </defs>
     <use xlink:href="#DejaVuSans-54"/>
     <use xlink:href="#DejaVuSans-72" transform="translate(46.333984 0)"/>
     <use xlink:href="#DejaVuSans-61" transform="translate(87.447266 0)"/>
     <use xlink:href="#DejaVuSans-69" transform="translate(148.726562 0)"/>
     <use xlink:href="#DejaVuSans-6e" transform="translate(176.509766 0)"/>
     <use xlink:href="#DejaVuSans-69" transform="translate(239.888672 0)"/>
     <use xlink:href="#DejaVuSans-6e" transform="translate(267.671875 0)"/>
     <use xlink:href="#DejaVuSans-67" transform="translate(331.050781 0)"/>
     <use xlink:href="#DejaVuSans-20" transform="translate(394.527344 0)"/>
     <use xlink:href="#DejaVuSans-76" transform="translate(426.314453 0)"/>
     <use xlink:href="#DejaVuSans-73" transform="translate(485.494141 0)"/>
     <use xlink:href="#DejaVuSans-20" transform="translate(537.59375 0)"/>
     <use xlink:href="#DejaVuSans-56" transform="translate(569.380859 0)"/>
     <use xlink:href="#DejaVuSans-61" transform="translate(630.039062 0)"/>
     <use xlink:href="#DejaVuSans-6c" transform="translate(691.318359 0)"/>
     <use xlink:href="#DejaVuSans-69" transform="translate(719.101562 0)"/>
     <use xlink:href="#DejaVuSans-64" transform="translate(746.884766 0)"/>
     <use xlink:href="#DejaVuSans-61" transform="translate(810.361328 0)"/>
     <use xlink:href="#DejaVuSans-74" transform="translate(871.640625 0)"/>
     <use xlink:href="#DejaVuSans-69" transform="translate(910.849609 0)"/>
     <use xlink:href="#DejaVuSans-6f" transform="translate(938.632812 0)"/>
     <use xlink:href="#DejaVuSans-6e" transform="translate(999.814453 0)"/>
     <use xlink:href="#DejaVuSans-20" transform="translate(1063.193359 0)"/>
     <use xlink:href="#DejaVuSans-4d" transform="translate(1094.980469 0)"/>
     <use xlink:href="#DejaVuSans-41" transform="translate(1181.259766 0)"/>
     <use xlink:href="#DejaVuSans-45" transform="translate(1249.667969 0)"/>
     <use xlink:href="#DejaVuSans-20" transform="translate(1312.851562 0)"/>
     <use xlink:href="#DejaVuSans-2d" transform="translate(1344.638672 0)"/>
     <use xlink:href="#DejaVuSans-20" transform="translate(1380.722656 0)"/>
     <use xlink:href="#DejaVuSans-41" transform="translate(1412.509766 0)"/>
     <use xlink:href="#DejaVuSans-4c" transform="translate(1480.917969 0)"/>
     <use xlink:href="#DejaVuSans-49" transform="translate(1536.630859 0)"/>
     <use xlink:href="#DejaVuSans-47" transform="translate(1566.123047 0)"/>
     <use xlink:href="#DejaVuSans-4e" transform="translate(1643.613281 0)"/>
     <use xlink:href="#DejaVuSans-4e" transform="translate(1718.417969 0)"/>
     <use xlink:href="#DejaVuSans-20" transform="translate(1793.222656 0)"/>
     <use xlink:href="#DejaVuSans-28" transform="translate(1825.009766 0)"/>
     <use xlink:href="#DejaVuSans-5a" transform="translate(1864.023438 0)"/>
     <use xlink:href="#DejaVuSans-6f" transform="translate(1932.529297 0)"/>
     <use xlink:href="#DejaVuSans-6f" transform="translate(1993.710938 0)"/>
     <use xlink:href="#DejaVuSans-6d" transform="translate(2054.892578 0)"/>
     <use xlink:href="#DejaVuSans-65" transform="translate(2152.304688 0)"/>
     <use xlink:href="#DejaVuSans-64" transform="translate(2213.828125 0)"/>
     <use xlink:href="#DejaVuSans-29" transform="translate(2277.304688 0)"/>
    </g>
   </g>
   <g id="PathCollection_1">
    <defs>
     <path id="md43d5edaa3" d="M 0 5 
C 1.326016 5 2.597899 4.473168 3.535534 3.535534 
C 4.473168 2.597899 5 1.326016 5 0 
C 5 -1.326016 4.473168 -2.597899 3.535534 -3.535534 
C 2.597899 -4.473168 1.326016 -5 0 -5 
C -1.326016 -5 -2.597899 -4.473168 -3.535534 -3.535534 
C -4.473168 -2.597899 -5 -1.326016 -5 0 
C -5 1.326016 -4.473168 2.597899 -3.535534 3.535534 
C -2.597899 4.473168 -1.326016 5 0 5 
z
" style="stroke: #ff0000"/>
    </defs>
    <g clip-path="url(#pfa55288cd7)">
     <use xlink:href="#md43d5edaa3" x="507.163112" y="227.697798" style="fill: #ff0000; stroke: #ff0000"/>
    </g>
   </g>
   <g id="legend_1">
    <g id="patch_7">
     <path d="M 539.815469 84.837813 
L 701.5 84.837813 
Q 703.7 84.837813 703.7 82.637813 
L 703.7 35.3 
Q 703.7 33.1 701.5 33.1 
L 539.815469 33.1 
Q 537.615469 33.1 537.615469 35.3 
L 537.615469 82.637813 
Q 537.615469 84.837813 539.815469 84.837813 
z
" style="fill: #ffffff; opacity: 0.8; stroke: #cccccc; stroke-linejoin: miter"/>
    </g>
    <g id="line2d_25">
     <path d="M 542.015469 42.008281 
L 553.015469 42.008281 
L 564.015469 42.008281 
" style="fill: none; stroke: #0000ff; stroke-width: 2; stroke-linecap: square"/>
    </g>
    <g id="text_15">
     <!-- Train -->
     <g transform="translate(572.815469 45.858281) scale(0.11 -0.11)">
      <use xlink:href="#DejaVuSans-54"/>
      <use xlink:href="#DejaVuSans-72" transform="translate(46.333984 0)"/>
      <use xlink:href="#DejaVuSans-61" transform="translate(87.447266 0)"/>
      <use xlink:href="#DejaVuSans-69" transform="translate(148.726562 0)"/>
      <use xlink:href="#DejaVuSans-6e" transform="translate(176.509766 0)"/>
     </g>
    </g>
    <g id="line2d_26">
     <path d="M 542.015469 58.154219 
L 553.015469 58.154219 
L 564.015469 58.154219 
" style="fill: none; stroke: #ffa500; stroke-width: 2; stroke-linecap: square"/>
    </g>
    <g id="text_16">
     <!-- Validation -->
     <g transform="translate(572.815469 62.004219) scale(0.11 -0.11)">
      <use xlink:href="#DejaVuSans-56"/>
      <use xlink:href="#DejaVuSans-61" transform="translate(60.658203 0)"/>
      <use xlink:href="#DejaVuSans-6c" transform="translate(121.9375 0)"/>
      <use xlink:href="#DejaVuSans-69" transform="translate(149.720703 0)"/>
      <use xlink:href="#DejaVuSans-64" transform="translate(177.503906 0)"/>
      <use xlink:href="#DejaVuSans-61" transform="translate(240.980469 0)"/>
      <use xlink:href="#DejaVuSans-74" transform="translate(302.259766 0)"/>
      <use xlink:href="#DejaVuSans-69" transform="translate(341.46875 0)"/>
      <use xlink:href="#DejaVuSans-6f" transform="translate(369.251953 0)"/>
      <use xlink:href="#DejaVuSans-6e" transform="translate(430.433594 0)"/>
     </g>
    </g>
    <g id="PathCollection_2">
     <g>
      <use xlink:href="#md43d5edaa3" x="553.015469" y="75.262656" style="fill: #ff0000; stroke: #ff0000"/>
     </g>
    </g>
    <g id="text_17">
     <!-- Best Val MAE = 0.2428 -->
     <g transform="translate(572.815469 78.150156) scale(0.11 -0.11)">
      <defs>
       <path id="DejaVuSans-42" d="M 1259 2228 
L 1259 519 
L 2272 519 
Q 2781 519 3026 730 
Q 3272 941 3272 1375 
Q 3272 1813 3026 2020 
Q 2781 2228 2272 2228 
L 1259 2228 
z
M 1259 4147 
L 1259 2741 
L 2194 2741 
Q 2656 2741 2882 2914 
Q 3109 3088 3109 3444 
Q 3109 3797 2882 3972 
Q 2656 4147 2194 4147 
L 1259 4147 
z
M 628 4666 
L 2241 4666 
Q 2963 4666 3353 4366 
Q 3744 4066 3744 3513 
Q 3744 3084 3544 2831 
Q 3344 2578 2956 2516 
Q 3422 2416 3680 2098 
Q 3938 1781 3938 1306 
Q 3938 681 3513 340 
Q 3088 0 2303 0 
L 628 0 
L 628 4666 
z
" transform="scale(0.015625)"/>
       <path id="DejaVuSans-3d" d="M 678 2906 
L 4684 2906 
L 4684 2381 
L 678 2381 
L 678 2906 
z
M 678 1631 
L 4684 1631 
L 4684 1100 
L 678 1100 
L 678 1631 
z
" transform="scale(0.015625)"/>
       <path id="DejaVuSans-38" d="M 2034 2216 
Q 1584 2216 1326 1975 
Q 1069 1734 1069 1313 
Q 1069 891 1326 650 
Q 1584 409 2034 409 
Q 2484 409 2743 651 
Q 3003 894 3003 1313 
Q 3003 1734 2745 1975 
Q 2488 2216 2034 2216 
z
M 1403 2484 
Q 997 2584 770 2862 
Q 544 3141 544 3541 
Q 544 4100 942 4425 
Q 1341 4750 2034 4750 
Q 2731 4750 3128 4425 
Q 3525 4100 3525 3541 
Q 3525 3141 3298 2862 
Q 3072 2584 2669 2484 
Q 3125 2378 3379 2068 
Q 3634 1759 3634 1313 
Q 3634 634 3220 271 
Q 2806 -91 2034 -91 
Q 1263 -91 848 271 
Q 434 634 434 1313 
Q 434 1759 690 2068 
Q 947 2378 1403 2484 
z
M 1172 3481 
Q 1172 3119 1398 2916 
Q 1625 2713 2034 2713 
Q 2441 2713 2670 2916 
Q 2900 3119 2900 3481 
Q 2900 3844 2670 4047 
Q 2441 4250 2034 4250 
Q 1625 4250 1398 4047 
Q 1172 3844 1172 3481 
z
" transform="scale(0.015625)"/>
      </defs>
      <use xlink:href="#DejaVuSans-42"/>
      <use xlink:href="#DejaVuSans-65" transform="translate(68.603516 0)"/>
      <use xlink:href="#DejaVuSans-73" transform="translate(130.126953 0)"/>
      <use xlink:href="#DejaVuSans-74" transform="translate(182.226562 0)"/>
      <use xlink:href="#DejaVuSans-20" transform="translate(221.435547 0)"/>
      <use xlink:href="#DejaVuSans-56" transform="translate(253.222656 0)"/>
      <use xlink:href="#DejaVuSans-61" transform="translate(313.880859 0)"/>
      <use xlink:href="#DejaVuSans-6c" transform="translate(375.160156 0)"/>
      <use xlink:href="#DejaVuSans-20" transform="translate(402.943359 0)"/>
      <use xlink:href="#DejaVuSans-4d" transform="translate(434.730469 0)"/>
      <use xlink:href="#DejaVuSans-41" transform="translate(521.009766 0)"/>
      <use xlink:href="#DejaVuSans-45" transform="translate(589.417969 0)"/>
      <use xlink:href="#DejaVuSans-20" transform="translate(652.601562 0)"/>
      <use xlink:href="#DejaVuSans-3d" transform="translate(684.388672 0)"/>
      <use xlink:href="#DejaVuSans-20" transform="translate(768.177734 0)"/>
      <use xlink:href="#DejaVuSans-30" transform="translate(799.964844 0)"/>
      <use xlink:href="#DejaVuSans-2e" transform="translate(863.587891 0)"/>
      <use xlink:href="#DejaVuSans-32" transform="translate(895.375 0)"/>
      <use xlink:href="#DejaVuSans-34" transform="translate(958.998047 0)"/>
      <use xlink:href="#DejaVuSans-32" transform="translate(1022.621094 0)"/>
      <use xlink:href="#DejaVuSans-38" transform="translate(1086.244141 0)"/>
     </g>
    </g>
   </g>
  </g>
 </g>
 <defs>
  <clipPath id="pfa55288cd7">
   <rect x="49.22" y="27.6" width="659.98" height="361.48"/>
  </clipPath>
 </defs>
</svg>
