<?xml version="1.0" encoding="utf-8" standalone="no"?>
<!DOCTYPE svg PUBLIC "-//W3C//DTD SVG 1.1//EN"
  "http://www.w3.org/Graphics/SVG/1.1/DTD/svg11.dtd">
<svg xmlns:xlink="http://www.w3.org/1999/xlink" width="576pt" height="432pt" viewBox="0 0 576 432" xmlns="http://www.w3.org/2000/svg" version="1.1">
 <metadata>
  <rdf:RDF xmlns:dc="http://purl.org/dc/elements/1.1/" xmlns:cc="http://creativecommons.org/ns#" xmlns:rdf="http://www.w3.org/1999/02/22-rdf-syntax-ns#">
   <cc:Work>
    <dc:type rdf:resource="http://purl.org/dc/dcmitype/StillImage"/>
    <dc:date>2025-05-09T10:24:17.833742</dc:date>
    <dc:format>image/svg+xml</dc:format>
    <dc:creator>
     <cc:Agent>
      <dc:title>Matplotlib v3.10.0, https://matplotlib.org/</dc:title>
     </cc:Agent>
    </dc:creator>
   </cc:Work>
  </rdf:RDF>
 </metadata>
 <defs>
  <style type="text/css">*{stroke-linejoin: round; stroke-linecap: butt}</style>
 </defs>
 <g id="figure_1">
  <g id="patch_1">
   <path d="M 0 432 
L 576 432 
L 576 0 
L 0 0 
z
" style="fill: #ffffff"/>
  </g>
  <g id="axes_1">
   <g id="patch_2">
    <path d="M 72 384.48 
L 518.4 384.48 
L 518.4 51.84 
L 72 51.84 
z
" style="fill: #ffffff"/>
   </g>
   <g id="matplotlib.axis_1">
    <g id="xtick_1">
     <g id="line2d_1">
      <path d="M 92.290909 384.48 
L 92.290909 51.84 
" clip-path="url(#pc014cd7a5c)" style="fill: none; stroke: #b0b0b0; stroke-width: 0.8; stroke-linecap: square"/>
     </g>
     <g id="line2d_2">
      <defs>
       <path id="m99ac6db0da" d="M 0 0 
L 0 3.5 
" style="stroke: #000000; stroke-width: 0.8"/>
      </defs>
      <g>
       <use xlink:href="#m99ac6db0da" x="92.290909" y="384.48" style="stroke: #000000; stroke-width: 0.8"/>
      </g>
     </g>
     <g id="text_1">
      <!-- 0 -->
      <g transform="translate(89.109659 399.078438) scale(0.1 -0.1)">
       <defs>
        <path id="DejaVuSans-30" d="M 2034 4250 
Q 1547 4250 1301 3770 
Q 1056 3291 1056 2328 
Q 1056 1369 1301 889 
Q 1547 409 2034 409 
Q 2525 409 2770 889 
Q 3016 1369 3016 2328 
Q 3016 3291 2770 3770 
Q 2525 4250 2034 4250 
z
M 2034 4750 
Q 2819 4750 3233 4129 
Q 3647 3509 3647 2328 
Q 3647 1150 3233 529 
Q 2819 -91 2034 -91 
Q 1250 -91 836 529 
Q 422 1150 422 2328 
Q 422 3509 836 4129 
Q 1250 4750 2034 4750 
z
" transform="scale(0.015625)"/>
       </defs>
       <use xlink:href="#DejaVuSans-30"/>
      </g>
     </g>
    </g>
    <g id="xtick_2">
     <g id="line2d_3">
      <path d="M 160.153481 384.48 
L 160.153481 51.84 
" clip-path="url(#pc014cd7a5c)" style="fill: none; stroke: #b0b0b0; stroke-width: 0.8; stroke-linecap: square"/>
     </g>
     <g id="line2d_4">
      <g>
       <use xlink:href="#m99ac6db0da" x="160.153481" y="384.48" style="stroke: #000000; stroke-width: 0.8"/>
      </g>
     </g>
     <g id="text_2">
      <!-- 50 -->
      <g transform="translate(153.790981 399.078438) scale(0.1 -0.1)">
       <defs>
        <path id="DejaVuSans-35" d="M 691 4666 
L 3169 4666 
L 3169 4134 
L 1269 4134 
L 1269 2991 
Q 1406 3038 1543 3061 
Q 1681 3084 1819 3084 
Q 2600 3084 3056 2656 
Q 3513 2228 3513 1497 
Q 3513 744 3044 326 
Q 2575 -91 1722 -91 
Q 1428 -91 1123 -41 
Q 819 9 494 109 
L 494 744 
Q 775 591 1075 516 
Q 1375 441 1709 441 
Q 2250 441 2565 725 
Q 2881 1009 2881 1497 
Q 2881 1984 2565 2268 
Q 2250 2553 1709 2553 
Q 1456 2553 1204 2497 
Q 953 2441 691 2322 
L 691 4666 
z
" transform="scale(0.015625)"/>
       </defs>
       <use xlink:href="#DejaVuSans-35"/>
       <use xlink:href="#DejaVuSans-30" transform="translate(63.623047 0)"/>
      </g>
     </g>
    </g>
    <g id="xtick_3">
     <g id="line2d_5">
      <path d="M 228.016054 384.48 
L 228.016054 51.84 
" clip-path="url(#pc014cd7a5c)" style="fill: none; stroke: #b0b0b0; stroke-width: 0.8; stroke-linecap: square"/>
     </g>
     <g id="line2d_6">
      <g>
       <use xlink:href="#m99ac6db0da" x="228.016054" y="384.48" style="stroke: #000000; stroke-width: 0.8"/>
      </g>
     </g>
     <g id="text_3">
      <!-- 100 -->
      <g transform="translate(218.472304 399.078438) scale(0.1 -0.1)">
       <defs>
        <path id="DejaVuSans-31" d="M 794 531 
L 1825 531 
L 1825 4091 
L 703 3866 
L 703 4441 
L 1819 4666 
L 2450 4666 
L 2450 531 
L 3481 531 
L 3481 0 
L 794 0 
L 794 531 
z
" transform="scale(0.015625)"/>
       </defs>
       <use xlink:href="#DejaVuSans-31"/>
       <use xlink:href="#DejaVuSans-30" transform="translate(63.623047 0)"/>
       <use xlink:href="#DejaVuSans-30" transform="translate(127.246094 0)"/>
      </g>
     </g>
    </g>
    <g id="xtick_4">
     <g id="line2d_7">
      <path d="M 295.878626 384.48 
L 295.878626 51.84 
" clip-path="url(#pc014cd7a5c)" style="fill: none; stroke: #b0b0b0; stroke-width: 0.8; stroke-linecap: square"/>
     </g>
     <g id="line2d_8">
      <g>
       <use xlink:href="#m99ac6db0da" x="295.878626" y="384.48" style="stroke: #000000; stroke-width: 0.8"/>
      </g>
     </g>
     <g id="text_4">
      <!-- 150 -->
      <g transform="translate(286.334876 399.078438) scale(0.1 -0.1)">
       <use xlink:href="#DejaVuSans-31"/>
       <use xlink:href="#DejaVuSans-35" transform="translate(63.623047 0)"/>
       <use xlink:href="#DejaVuSans-30" transform="translate(127.246094 0)"/>
      </g>
     </g>
    </g>
    <g id="xtick_5">
     <g id="line2d_9">
      <path d="M 363.741198 384.48 
L 363.741198 51.84 
" clip-path="url(#pc014cd7a5c)" style="fill: none; stroke: #b0b0b0; stroke-width: 0.8; stroke-linecap: square"/>
     </g>
     <g id="line2d_10">
      <g>
       <use xlink:href="#m99ac6db0da" x="363.741198" y="384.48" style="stroke: #000000; stroke-width: 0.8"/>
      </g>
     </g>
     <g id="text_5">
      <!-- 200 -->
      <g transform="translate(354.197448 399.078438) scale(0.1 -0.1)">
       <defs>
        <path id="DejaVuSans-32" d="M 1228 531 
L 3431 531 
L 3431 0 
L 469 0 
L 469 531 
Q 828 903 1448 1529 
Q 2069 2156 2228 2338 
Q 2531 2678 2651 2914 
Q 2772 3150 2772 3378 
Q 2772 3750 2511 3984 
Q 2250 4219 1831 4219 
Q 1534 4219 1204 4116 
Q 875 4013 500 3803 
L 500 4441 
Q 881 4594 1212 4672 
Q 1544 4750 1819 4750 
Q 2544 4750 2975 4387 
Q 3406 4025 3406 3419 
Q 3406 3131 3298 2873 
Q 3191 2616 2906 2266 
Q 2828 2175 2409 1742 
Q 1991 1309 1228 531 
z
" transform="scale(0.015625)"/>
       </defs>
       <use xlink:href="#DejaVuSans-32"/>
       <use xlink:href="#DejaVuSans-30" transform="translate(63.623047 0)"/>
       <use xlink:href="#DejaVuSans-30" transform="translate(127.246094 0)"/>
      </g>
     </g>
    </g>
    <g id="xtick_6">
     <g id="line2d_11">
      <path d="M 431.60377 384.48 
L 431.60377 51.84 
" clip-path="url(#pc014cd7a5c)" style="fill: none; stroke: #b0b0b0; stroke-width: 0.8; stroke-linecap: square"/>
     </g>
     <g id="line2d_12">
      <g>
       <use xlink:href="#m99ac6db0da" x="431.60377" y="384.48" style="stroke: #000000; stroke-width: 0.8"/>
      </g>
     </g>
     <g id="text_6">
      <!-- 250 -->
      <g transform="translate(422.06002 399.078438) scale(0.1 -0.1)">
       <use xlink:href="#DejaVuSans-32"/>
       <use xlink:href="#DejaVuSans-35" transform="translate(63.623047 0)"/>
       <use xlink:href="#DejaVuSans-30" transform="translate(127.246094 0)"/>
      </g>
     </g>
    </g>
    <g id="xtick_7">
     <g id="line2d_13">
      <path d="M 499.466342 384.48 
L 499.466342 51.84 
" clip-path="url(#pc014cd7a5c)" style="fill: none; stroke: #b0b0b0; stroke-width: 0.8; stroke-linecap: square"/>
     </g>
     <g id="line2d_14">
      <g>
       <use xlink:href="#m99ac6db0da" x="499.466342" y="384.48" style="stroke: #000000; stroke-width: 0.8"/>
      </g>
     </g>
     <g id="text_7">
      <!-- 300 -->
      <g transform="translate(489.922592 399.078438) scale(0.1 -0.1)">
       <defs>
        <path id="DejaVuSans-33" d="M 2597 2516 
Q 3050 2419 3304 2112 
Q 3559 1806 3559 1356 
Q 3559 666 3084 287 
Q 2609 -91 1734 -91 
Q 1441 -91 1130 -33 
Q 819 25 488 141 
L 488 750 
Q 750 597 1062 519 
Q 1375 441 1716 441 
Q 2309 441 2620 675 
Q 2931 909 2931 1356 
Q 2931 1769 2642 2001 
Q 2353 2234 1838 2234 
L 1294 2234 
L 1294 2753 
L 1863 2753 
Q 2328 2753 2575 2939 
Q 2822 3125 2822 3475 
Q 2822 3834 2567 4026 
Q 2313 4219 1838 4219 
Q 1578 4219 1281 4162 
Q 984 4106 628 3988 
L 628 4550 
Q 988 4650 1302 4700 
Q 1616 4750 1894 4750 
Q 2613 4750 3031 4423 
Q 3450 4097 3450 3541 
Q 3450 3153 3228 2886 
Q 3006 2619 2597 2516 
z
" transform="scale(0.015625)"/>
       </defs>
       <use xlink:href="#DejaVuSans-33"/>
       <use xlink:href="#DejaVuSans-30" transform="translate(63.623047 0)"/>
       <use xlink:href="#DejaVuSans-30" transform="translate(127.246094 0)"/>
      </g>
     </g>
    </g>
    <g id="text_8">
     <!-- Epoch -->
     <g transform="translate(279.889062 412.756563) scale(0.1 -0.1)">
      <defs>
       <path id="DejaVuSans-45" d="M 628 4666 
L 3578 4666 
L 3578 4134 
L 1259 4134 
L 1259 2753 
L 3481 2753 
L 3481 2222 
L 1259 2222 
L 1259 531 
L 3634 531 
L 3634 0 
L 628 0 
L 628 4666 
z
" transform="scale(0.015625)"/>
       <path id="DejaVuSans-70" d="M 1159 525 
L 1159 -1331 
L 581 -1331 
L 581 3500 
L 1159 3500 
L 1159 2969 
Q 1341 3281 1617 3432 
Q 1894 3584 2278 3584 
Q 2916 3584 3314 3078 
Q 3713 2572 3713 1747 
Q 3713 922 3314 415 
Q 2916 -91 2278 -91 
Q 1894 -91 1617 61 
Q 1341 213 1159 525 
z
M 3116 1747 
Q 3116 2381 2855 2742 
Q 2594 3103 2138 3103 
Q 1681 3103 1420 2742 
Q 1159 2381 1159 1747 
Q 1159 1113 1420 752 
Q 1681 391 2138 391 
Q 2594 391 2855 752 
Q 3116 1113 3116 1747 
z
" transform="scale(0.015625)"/>
       <path id="DejaVuSans-6f" d="M 1959 3097 
Q 1497 3097 1228 2736 
Q 959 2375 959 1747 
Q 959 1119 1226 758 
Q 1494 397 1959 397 
Q 2419 397 2687 759 
Q 2956 1122 2956 1747 
Q 2956 2369 2687 2733 
Q 2419 3097 1959 3097 
z
M 1959 3584 
Q 2709 3584 3137 3096 
Q 3566 2609 3566 1747 
Q 3566 888 3137 398 
Q 2709 -91 1959 -91 
Q 1206 -91 779 398 
Q 353 888 353 1747 
Q 353 2609 779 3096 
Q 1206 3584 1959 3584 
z
" transform="scale(0.015625)"/>
       <path id="DejaVuSans-63" d="M 3122 3366 
L 3122 2828 
Q 2878 2963 2633 3030 
Q 2388 3097 2138 3097 
Q 1578 3097 1268 2742 
Q 959 2388 959 1747 
Q 959 1106 1268 751 
Q 1578 397 2138 397 
Q 2388 397 2633 464 
Q 2878 531 3122 666 
L 3122 134 
Q 2881 22 2623 -34 
Q 2366 -91 2075 -91 
Q 1284 -91 818 406 
Q 353 903 353 1747 
Q 353 2603 823 3093 
Q 1294 3584 2113 3584 
Q 2378 3584 2631 3529 
Q 2884 3475 3122 3366 
z
" transform="scale(0.015625)"/>
       <path id="DejaVuSans-68" d="M 3513 2113 
L 3513 0 
L 2938 0 
L 2938 2094 
Q 2938 2591 2744 2837 
Q 2550 3084 2163 3084 
Q 1697 3084 1428 2787 
Q 1159 2491 1159 1978 
L 1159 0 
L 581 0 
L 581 4863 
L 1159 4863 
L 1159 2956 
Q 1366 3272 1645 3428 
Q 1925 3584 2291 3584 
Q 2894 3584 3203 3211 
Q 3513 2838 3513 2113 
z
" transform="scale(0.015625)"/>
      </defs>
      <use xlink:href="#DejaVuSans-45"/>
      <use xlink:href="#DejaVuSans-70" transform="translate(63.183594 0)"/>
      <use xlink:href="#DejaVuSans-6f" transform="translate(126.660156 0)"/>
      <use xlink:href="#DejaVuSans-63" transform="translate(187.841797 0)"/>
      <use xlink:href="#DejaVuSans-68" transform="translate(242.822266 0)"/>
     </g>
    </g>
   </g>
   <g id="matplotlib.axis_2">
    <g id="ytick_1">
     <g id="line2d_15">
      <path d="M 72 381.328578 
L 518.4 381.328578 
" clip-path="url(#pc014cd7a5c)" style="fill: none; stroke: #b0b0b0; stroke-width: 0.8; stroke-linecap: square"/>
     </g>
     <g id="line2d_16">
      <defs>
       <path id="mfbea3c1e99" d="M 0 0 
L -3.5 0 
" style="stroke: #000000; stroke-width: 0.8"/>
      </defs>
      <g>
       <use xlink:href="#mfbea3c1e99" x="72" y="381.328578" style="stroke: #000000; stroke-width: 0.8"/>
      </g>
     </g>
     <g id="text_9">
      <!-- 0.0 -->
      <g transform="translate(49.096875 385.127797) scale(0.1 -0.1)">
       <defs>
        <path id="DejaVuSans-2e" d="M 684 794 
L 1344 794 
L 1344 0 
L 684 0 
L 684 794 
z
" transform="scale(0.015625)"/>
       </defs>
       <use xlink:href="#DejaVuSans-30"/>
       <use xlink:href="#DejaVuSans-2e" transform="translate(63.623047 0)"/>
       <use xlink:href="#DejaVuSans-30" transform="translate(95.410156 0)"/>
      </g>
     </g>
    </g>
    <g id="ytick_2">
     <g id="line2d_17">
      <path d="M 72 335.820677 
L 518.4 335.820677 
" clip-path="url(#pc014cd7a5c)" style="fill: none; stroke: #b0b0b0; stroke-width: 0.8; stroke-linecap: square"/>
     </g>
     <g id="line2d_18">
      <g>
       <use xlink:href="#mfbea3c1e99" x="72" y="335.820677" style="stroke: #000000; stroke-width: 0.8"/>
      </g>
     </g>
     <g id="text_10">
      <!-- 0.1 -->
      <g transform="translate(49.096875 339.619896) scale(0.1 -0.1)">
       <use xlink:href="#DejaVuSans-30"/>
       <use xlink:href="#DejaVuSans-2e" transform="translate(63.623047 0)"/>
       <use xlink:href="#DejaVuSans-31" transform="translate(95.410156 0)"/>
      </g>
     </g>
    </g>
    <g id="ytick_3">
     <g id="line2d_19">
      <path d="M 72 290.312777 
L 518.4 290.312777 
" clip-path="url(#pc014cd7a5c)" style="fill: none; stroke: #b0b0b0; stroke-width: 0.8; stroke-linecap: square"/>
     </g>
     <g id="line2d_20">
      <g>
       <use xlink:href="#mfbea3c1e99" x="72" y="290.312777" style="stroke: #000000; stroke-width: 0.8"/>
      </g>
     </g>
     <g id="text_11">
      <!-- 0.2 -->
      <g transform="translate(49.096875 294.111995) scale(0.1 -0.1)">
       <use xlink:href="#DejaVuSans-30"/>
       <use xlink:href="#DejaVuSans-2e" transform="translate(63.623047 0)"/>
       <use xlink:href="#DejaVuSans-32" transform="translate(95.410156 0)"/>
      </g>
     </g>
    </g>
    <g id="ytick_4">
     <g id="line2d_21">
      <path d="M 72 244.804876 
L 518.4 244.804876 
" clip-path="url(#pc014cd7a5c)" style="fill: none; stroke: #b0b0b0; stroke-width: 0.8; stroke-linecap: square"/>
     </g>
     <g id="line2d_22">
      <g>
       <use xlink:href="#mfbea3c1e99" x="72" y="244.804876" style="stroke: #000000; stroke-width: 0.8"/>
      </g>
     </g>
     <g id="text_12">
      <!-- 0.3 -->
      <g transform="translate(49.096875 248.604095) scale(0.1 -0.1)">
       <use xlink:href="#DejaVuSans-30"/>
       <use xlink:href="#DejaVuSans-2e" transform="translate(63.623047 0)"/>
       <use xlink:href="#DejaVuSans-33" transform="translate(95.410156 0)"/>
      </g>
     </g>
    </g>
    <g id="ytick_5">
     <g id="line2d_23">
      <path d="M 72 199.296975 
L 518.4 199.296975 
" clip-path="url(#pc014cd7a5c)" style="fill: none; stroke: #b0b0b0; stroke-width: 0.8; stroke-linecap: square"/>
     </g>
     <g id="line2d_24">
      <g>
       <use xlink:href="#mfbea3c1e99" x="72" y="199.296975" style="stroke: #000000; stroke-width: 0.8"/>
      </g>
     </g>
     <g id="text_13">
      <!-- 0.4 -->
      <g transform="translate(49.096875 203.096194) scale(0.1 -0.1)">
       <defs>
        <path id="DejaVuSans-34" d="M 2419 4116 
L 825 1625 
L 2419 1625 
L 2419 4116 
z
M 2253 4666 
L 3047 4666 
L 3047 1625 
L 3713 1625 
L 3713 1100 
L 3047 1100 
L 3047 0 
L 2419 0 
L 2419 1100 
L 313 1100 
L 313 1709 
L 2253 4666 
z
" transform="scale(0.015625)"/>
       </defs>
       <use xlink:href="#DejaVuSans-30"/>
       <use xlink:href="#DejaVuSans-2e" transform="translate(63.623047 0)"/>
       <use xlink:href="#DejaVuSans-34" transform="translate(95.410156 0)"/>
      </g>
     </g>
    </g>
    <g id="ytick_6">
     <g id="line2d_25">
      <path d="M 72 153.789074 
L 518.4 153.789074 
" clip-path="url(#pc014cd7a5c)" style="fill: none; stroke: #b0b0b0; stroke-width: 0.8; stroke-linecap: square"/>
     </g>
     <g id="line2d_26">
      <g>
       <use xlink:href="#mfbea3c1e99" x="72" y="153.789074" style="stroke: #000000; stroke-width: 0.8"/>
      </g>
     </g>
     <g id="text_14">
      <!-- 0.5 -->
      <g transform="translate(49.096875 157.588293) scale(0.1 -0.1)">
       <use xlink:href="#DejaVuSans-30"/>
       <use xlink:href="#DejaVuSans-2e" transform="translate(63.623047 0)"/>
       <use xlink:href="#DejaVuSans-35" transform="translate(95.410156 0)"/>
      </g>
     </g>
    </g>
    <g id="ytick_7">
     <g id="line2d_27">
      <path d="M 72 108.281174 
L 518.4 108.281174 
" clip-path="url(#pc014cd7a5c)" style="fill: none; stroke: #b0b0b0; stroke-width: 0.8; stroke-linecap: square"/>
     </g>
     <g id="line2d_28">
      <g>
       <use xlink:href="#mfbea3c1e99" x="72" y="108.281174" style="stroke: #000000; stroke-width: 0.8"/>
      </g>
     </g>
     <g id="text_15">
      <!-- 0.6 -->
      <g transform="translate(49.096875 112.080393) scale(0.1 -0.1)">
       <defs>
        <path id="DejaVuSans-36" d="M 2113 2584 
Q 1688 2584 1439 2293 
Q 1191 2003 1191 1497 
Q 1191 994 1439 701 
Q 1688 409 2113 409 
Q 2538 409 2786 701 
Q 3034 994 3034 1497 
Q 3034 2003 2786 2293 
Q 2538 2584 2113 2584 
z
M 3366 4563 
L 3366 3988 
Q 3128 4100 2886 4159 
Q 2644 4219 2406 4219 
Q 1781 4219 1451 3797 
Q 1122 3375 1075 2522 
Q 1259 2794 1537 2939 
Q 1816 3084 2150 3084 
Q 2853 3084 3261 2657 
Q 3669 2231 3669 1497 
Q 3669 778 3244 343 
Q 2819 -91 2113 -91 
Q 1303 -91 875 529 
Q 447 1150 447 2328 
Q 447 3434 972 4092 
Q 1497 4750 2381 4750 
Q 2619 4750 2861 4703 
Q 3103 4656 3366 4563 
z
" transform="scale(0.015625)"/>
       </defs>
       <use xlink:href="#DejaVuSans-30"/>
       <use xlink:href="#DejaVuSans-2e" transform="translate(63.623047 0)"/>
       <use xlink:href="#DejaVuSans-36" transform="translate(95.410156 0)"/>
      </g>
     </g>
    </g>
    <g id="ytick_8">
     <g id="line2d_29">
      <path d="M 72 62.773273 
L 518.4 62.773273 
" clip-path="url(#pc014cd7a5c)" style="fill: none; stroke: #b0b0b0; stroke-width: 0.8; stroke-linecap: square"/>
     </g>
     <g id="line2d_30">
      <g>
       <use xlink:href="#mfbea3c1e99" x="72" y="62.773273" style="stroke: #000000; stroke-width: 0.8"/>
      </g>
     </g>
     <g id="text_16">
      <!-- 0.7 -->
      <g transform="translate(49.096875 66.572492) scale(0.1 -0.1)">
       <defs>
        <path id="DejaVuSans-37" d="M 525 4666 
L 3525 4666 
L 3525 4397 
L 1831 0 
L 1172 0 
L 2766 4134 
L 525 4134 
L 525 4666 
z
" transform="scale(0.015625)"/>
       </defs>
       <use xlink:href="#DejaVuSans-30"/>
       <use xlink:href="#DejaVuSans-2e" transform="translate(63.623047 0)"/>
       <use xlink:href="#DejaVuSans-37" transform="translate(95.410156 0)"/>
      </g>
     </g>
    </g>
    <g id="text_17">
     <!-- Loss -->
     <g transform="translate(43.017187 229.127187) rotate(-90) scale(0.1 -0.1)">
      <defs>
       <path id="DejaVuSans-4c" d="M 628 4666 
L 1259 4666 
L 1259 531 
L 3531 531 
L 3531 0 
L 628 0 
L 628 4666 
z
" transform="scale(0.015625)"/>
       <path id="DejaVuSans-73" d="M 2834 3397 
L 2834 2853 
Q 2591 2978 2328 3040 
Q 2066 3103 1784 3103 
Q 1356 3103 1142 2972 
Q 928 2841 928 2578 
Q 928 2378 1081 2264 
Q 1234 2150 1697 2047 
L 1894 2003 
Q 2506 1872 2764 1633 
Q 3022 1394 3022 966 
Q 3022 478 2636 193 
Q 2250 -91 1575 -91 
Q 1294 -91 989 -36 
Q 684 19 347 128 
L 347 722 
Q 666 556 975 473 
Q 1284 391 1588 391 
Q 1994 391 2212 530 
Q 2431 669 2431 922 
Q 2431 1156 2273 1281 
Q 2116 1406 1581 1522 
L 1381 1569 
Q 847 1681 609 1914 
Q 372 2147 372 2553 
Q 372 3047 722 3315 
Q 1072 3584 1716 3584 
Q 2034 3584 2315 3537 
Q 2597 3491 2834 3397 
z
" transform="scale(0.015625)"/>
      </defs>
      <use xlink:href="#DejaVuSans-4c"/>
      <use xlink:href="#DejaVuSans-6f" transform="translate(53.962891 0)"/>
      <use xlink:href="#DejaVuSans-73" transform="translate(115.144531 0)"/>
      <use xlink:href="#DejaVuSans-73" transform="translate(167.244141 0)"/>
     </g>
    </g>
   </g>
   <g id="line2d_31">
    <path d="M 92.290909 66.96 
L 93.648161 150.284966 
L 95.005412 166.986366 
L 96.362663 174.995756 
L 97.719915 196.475485 
L 99.077166 186.691287 
L 100.434418 213.540948 
L 101.791669 216.089391 
L 103.148921 226.328668 
L 104.506172 224.007765 
L 105.863424 236.067359 
L 107.220675 239.799007 
L 108.577926 245.851558 
L 109.935178 247.262302 
L 111.292429 249.765237 
L 112.649681 251.130474 
L 114.006932 254.270519 
L 115.364184 263.918194 
L 116.721435 258.59377 
L 118.078687 264.327765 
L 119.435938 268.013905 
L 120.793189 267.331287 
L 122.150441 276.478375 
L 123.507692 274.749074 
L 124.864944 278.480722 
L 126.222195 279.936975 
L 127.579447 287.991874 
L 128.936698 286.581129 
L 130.29395 289.857698 
L 131.651201 293.49833 
L 133.008452 291.086411 
L 134.365704 287.85535 
L 135.722955 290.358284 
L 137.080207 293.452822 
L 138.437458 299.277833 
L 139.79471 301.644244 
L 141.151961 299.732912 
L 142.509213 304.283702 
L 143.866464 301.689752 
L 145.223715 304.374718 
L 146.580967 308.88 
L 147.938218 311.746998 
L 149.29547 312.839187 
L 150.652721 305.739955 
L 152.009973 306.786637 
L 153.367224 312.520632 
L 154.724476 312.884695 
L 156.081727 317.936072 
L 157.438978 317.572009 
L 158.79623 317.435485 
L 160.153481 319.07377 
L 161.510733 312.930203 
L 162.867984 313.612822 
L 164.225236 320.074944 
L 165.582487 318.573183 
L 166.939739 322.805418 
L 168.29699 320.029436 
L 169.654241 320.530023 
L 172.368744 324.307178 
L 173.725996 323.078465 
L 175.083247 329.131016 
L 176.440499 326.309526 
L 177.79775 325.444876 
L 179.155002 328.357381 
L 180.512253 329.540587 
L 181.869504 330.041174 
L 183.226756 329.677111 
L 184.584007 330.860316 
L 185.941259 327.674763 
L 187.29851 330.814808 
L 188.655762 334.773995 
L 191.370265 334.728488 
L 192.727516 336.002709 
L 194.084767 335.32009 
L 195.442019 336.867359 
L 196.79927 337.003883 
L 198.156522 339.825372 
L 199.513773 334.318916 
L 200.871025 336.548804 
L 202.228276 340.917562 
L 203.585528 340.007404 
L 204.942779 341.190609 
L 206.30003 339.051738 
L 207.657282 342.555847 
L 209.014533 342.237291 
L 210.371785 345.650384 
L 211.729036 344.876749 
L 213.086288 341.82772 
L 214.443539 343.010926 
L 215.800791 344.467178 
L 217.158042 343.921084 
L 218.515293 345.604876 
L 219.872545 346.469526 
L 221.229796 350.06465 
L 222.587048 344.239639 
L 223.944299 347.425192 
L 225.301551 346.424018 
L 226.658802 347.015621 
L 228.016054 354.797472 
L 229.373305 358.938691 
L 230.730556 360.531467 
L 232.087808 359.211738 
L 233.445059 359.348262 
L 234.802311 360.349436 
L 236.159562 359.530293 
L 237.516814 359.985372 
L 238.874065 360.941038 
L 240.231317 361.714673 
L 241.588568 359.939865 
L 242.945819 361.805688 
L 244.303071 361.441625 
L 245.660322 360.713499 
L 247.017574 361.532641 
L 248.374825 359.712325 
L 249.732077 362.442799 
L 251.089328 362.260767 
L 252.44658 361.214086 
L 253.803831 362.488307 
L 255.161082 361.942212 
L 256.518334 362.670339 
L 257.875585 361.532641 
L 259.232837 361.805688 
L 260.590088 361.896704 
L 261.94734 364.354131 
L 263.304591 363.443973 
L 264.661843 363.170926 
L 266.019094 363.170926 
L 267.376345 361.578149 
L 268.733597 362.624831 
L 271.4481 363.352957 
L 272.805351 364.672686 
L 274.162603 363.489481 
L 275.519854 362.897878 
L 276.877106 363.71702 
L 278.234357 363.443973 
L 279.591608 363.71702 
L 280.94886 364.672686 
L 282.306111 363.762528 
L 283.663363 362.670339 
L 285.020614 364.081084 
L 286.377866 364.308623 
L 287.735117 363.580497 
L 289.092369 364.263115 
L 290.44962 364.263115 
L 291.806871 363.71702 
L 293.164123 363.034402 
L 294.521374 364.081084 
L 295.878626 364.172099 
L 297.235877 363.853544 
L 298.593129 363.94456 
L 299.95038 363.762528 
L 301.307631 364.80921 
L 302.664883 362.988894 
L 304.022134 362.943386 
L 305.379386 363.808036 
L 306.736637 364.263115 
L 308.093889 363.762528 
L 310.808392 364.58167 
L 314.880146 365.218781 
L 316.237397 364.445147 
L 317.594649 365.082257 
L 318.9519 365.127765 
L 320.309152 365.491828 
L 321.666403 364.80921 
L 323.023655 365.309797 
L 324.380906 363.125418 
L 325.738157 364.900226 
L 327.095409 365.355305 
L 328.45266 363.352957 
L 329.809912 364.763702 
L 331.167163 364.672686 
L 333.881666 363.489481 
L 335.238918 364.945734 
L 336.596169 365.9014 
L 337.95342 363.125418 
L 339.310672 365.810384 
L 340.667923 366.128939 
L 342.025175 365.537336 
L 343.382426 365.992415 
L 344.739678 364.354131 
L 346.096929 366.219955 
L 347.454181 365.355305 
L 348.811432 364.354131 
L 350.168683 366.53851 
L 351.525935 364.763702 
L 352.883186 363.990068 
L 354.240438 364.900226 
L 355.597689 366.037923 
L 356.954941 365.446321 
L 359.669444 366.53851 
L 361.026695 366.083431 
L 362.383946 364.945734 
L 363.741198 366.811558 
L 365.098449 366.629526 
L 366.455701 365.446321 
L 367.812952 366.037923 
L 369.170204 366.356479 
L 370.527455 366.219955 
L 371.884707 366.629526 
L 373.241958 366.629526 
L 374.599209 366.083431 
L 375.956461 366.857065 
L 377.313712 364.900226 
L 378.670964 365.855892 
L 380.028215 365.764876 
L 381.385467 364.672686 
L 382.742718 366.993589 
L 384.09997 365.946907 
L 385.457221 366.811558 
L 388.171724 366.629526 
L 389.528975 365.537336 
L 390.886227 365.264289 
L 392.243478 366.857065 
L 393.60073 367.767223 
L 394.957981 366.265463 
L 396.315233 365.400813 
L 397.672484 366.493002 
L 399.029735 367.221129 
L 400.386987 367.084605 
L 403.10149 366.356479 
L 404.458741 366.128939 
L 405.815993 367.084605 
L 407.173244 368.176795 
L 408.530496 368.040271 
L 409.887747 368.26781 
L 411.244998 366.447494 
L 412.60225 365.036749 
L 413.959501 366.401986 
L 418.031256 367.40316 
L 419.388507 366.857065 
L 422.10301 366.629526 
L 423.460261 367.175621 
L 424.817513 366.902573 
L 426.174764 367.357652 
L 427.532016 365.127765 
L 428.889267 366.584018 
L 430.246519 367.221129 
L 431.60377 367.221129 
L 432.961022 366.993589 
L 434.318273 367.539684 
L 435.675524 367.130113 
L 437.032776 367.084605 
L 438.390027 368.085779 
L 439.747279 366.948081 
L 441.10453 368.131287 
L 442.461782 366.629526 
L 443.819033 366.128939 
L 445.176285 367.266637 
L 446.533536 366.629526 
L 447.890787 367.084605 
L 449.248039 368.449842 
L 450.60529 368.085779 
L 451.962542 368.904921 
L 453.319793 367.6307 
L 454.677045 366.993589 
L 456.034296 367.357652 
L 457.391548 366.720542 
L 458.748799 367.903747 
L 460.10605 368.26781 
L 461.463302 367.084605 
L 462.820553 368.176795 
L 464.177805 367.175621 
L 465.535056 368.449842 
L 466.892308 367.994763 
L 468.249559 367.175621 
L 469.606811 367.266637 
L 470.964062 368.631874 
L 473.678565 368.586366 
L 475.035816 366.629526 
L 476.393068 367.221129 
L 477.750319 367.175621 
L 479.107571 368.49535 
L 480.464822 368.131287 
L 481.822074 368.040271 
L 483.179325 367.494176 
L 484.536576 369.13246 
L 485.893828 368.222302 
L 487.251079 367.448668 
L 488.608331 368.131287 
L 489.965582 369.36 
L 492.680085 368.404334 
L 494.037337 368.540858 
L 495.394588 367.676208 
L 496.751839 368.677381 
L 498.109091 366.629526 
L 498.109091 366.629526 
" clip-path="url(#pc014cd7a5c)" style="fill: none; stroke: #1f77b4; stroke-width: 1.5; stroke-linecap: square"/>
   </g>
   <g id="line2d_32">
    <path d="M 92.290909 114.834312 
L 93.648161 128.486682 
L 95.005412 139.590609 
L 96.362663 99.634673 
L 97.719915 93.62763 
L 99.077166 161.616433 
L 100.434418 191.105553 
L 101.791669 240.572641 
L 103.148921 215.998375 
L 104.506172 224.826907 
L 105.863424 214.633138 
L 107.220675 176.360993 
L 108.577926 245.123431 
L 109.935178 251.130474 
L 111.292429 226.328668 
L 112.649681 227.830429 
L 114.006932 252.586727 
L 115.364184 138.043341 
L 116.721435 227.966953 
L 118.078687 261.18772 
L 119.435938 248.035937 
L 120.793189 242.893544 
L 122.150441 221.595847 
L 123.507692 277.343025 
L 124.864944 259.776975 
L 126.222195 257.092009 
L 127.579447 280.437562 
L 128.936698 253.951964 
L 130.29395 204.757923 
L 131.651201 253.951964 
L 133.008452 243.576163 
L 134.365704 203.028623 
L 135.722955 282.849481 
L 137.080207 289.084063 
L 138.437458 176.907088 
L 139.79471 275.204153 
L 141.151961 277.252009 
L 142.509213 258.775801 
L 143.866464 273.292822 
L 145.223715 223.871242 
L 146.580967 272.0186 
L 147.938218 256.454898 
L 149.29547 275.158646 
L 150.652721 260.004515 
L 152.009973 270.243792 
L 153.367224 244.759368 
L 154.724476 285.989526 
L 156.081727 251.540045 
L 157.438978 294.180948 
L 158.79623 289.038555 
L 160.153481 282.21237 
L 161.510733 171.264108 
L 162.867984 284.16921 
L 164.225236 288.674492 
L 165.582487 285.2614 
L 166.939739 250.083792 
L 168.29699 262.27991 
L 169.654241 227.011287 
L 171.011493 290.494808 
L 172.368744 289.675666 
L 173.725996 266.694176 
L 175.083247 285.853002 
L 176.440499 283.987178 
L 177.79775 294.271964 
L 179.155002 285.761986 
L 180.512253 284.533273 
L 181.869504 301.871783 
L 183.226756 286.444605 
L 184.584007 268.377968 
L 185.941259 286.854176 
L 187.29851 287.263747 
L 188.655762 276.978962 
L 190.013013 287.673318 
L 191.370265 286.490113 
L 192.727516 279.117833 
L 194.084767 267.012731 
L 195.442019 279.663928 
L 196.79927 289.766682 
L 198.156522 283.259052 
L 199.513773 211.948172 
L 200.871025 302.59991 
L 202.228276 275.93228 
L 203.585528 292.633679 
L 204.942779 286.581129 
L 206.30003 295.182122 
L 207.657282 276.023296 
L 209.014533 288.94754 
L 210.371785 292.724695 
L 211.729036 276.068804 
L 213.086288 284.078194 
L 214.443539 278.071151 
L 215.800791 281.939323 
L 217.158042 292.542664 
L 218.515293 286.899684 
L 219.872545 278.890293 
L 221.229796 291.769029 
L 222.587048 298.731738 
L 223.944299 267.922889 
L 225.301551 292.40614 
L 226.658802 297.82158 
L 228.016054 307.196208 
L 229.373305 306.877652 
L 230.730556 307.241716 
L 232.087808 307.423747 
L 233.445059 307.287223 
L 234.802311 306.013002 
L 236.159562 306.331558 
L 237.516814 306.786637 
L 238.874065 306.149526 
L 240.231317 306.05851 
L 241.588568 303.419052 
L 242.945819 306.92316 
L 244.303071 303.23702 
L 245.660322 305.375892 
L 247.017574 304.556749 
L 248.374825 305.4214 
L 249.732077 305.102844 
L 251.089328 304.010655 
L 252.44658 305.011828 
L 253.803831 305.466907 
L 255.161082 304.738781 
L 256.518334 305.967494 
L 257.875585 304.511242 
L 259.232837 303.692099 
L 260.590088 304.374718 
L 261.94734 304.920813 
L 263.304591 304.420226 
L 264.661843 306.377065 
L 266.019094 304.738781 
L 267.376345 304.238194 
L 268.733597 305.284876 
L 270.090848 304.784289 
L 271.4481 305.19386 
L 272.805351 305.4214 
L 274.162603 301.73526 
L 275.519854 304.556749 
L 276.877106 302.417878 
L 279.591608 304.829797 
L 280.94886 304.875305 
L 282.306111 304.738781 
L 283.663363 302.963973 
L 285.020614 305.284876 
L 286.377866 305.830971 
L 287.735117 304.283702 
L 289.092369 302.326862 
L 290.44962 301.598736 
L 291.806871 302.59991 
L 293.164123 304.192686 
L 294.521374 304.465734 
L 295.878626 303.23702 
L 297.235877 302.281354 
L 298.593129 304.283702 
L 299.95038 303.373544 
L 301.307631 303.874131 
L 302.664883 302.326862 
L 304.022134 303.009481 
L 305.379386 302.008307 
L 306.736637 304.738781 
L 308.093889 301.780767 
L 309.45114 303.100497 
L 310.808392 304.192686 
L 312.165643 303.46456 
L 313.522894 301.73526 
L 314.880146 304.192686 
L 316.237397 302.417878 
L 317.594649 303.646591 
L 318.9519 304.556749 
L 320.309152 302.190339 
L 321.666403 303.965147 
L 323.023655 303.009481 
L 324.380906 302.463386 
L 325.738157 302.37237 
L 327.095409 303.191512 
L 328.45266 302.690926 
L 329.809912 301.416704 
L 331.167163 300.552054 
L 332.524415 302.690926 
L 333.881666 303.692099 
L 335.238918 301.917291 
L 336.596169 302.918465 
L 337.95342 303.555576 
L 339.310672 303.146005 
L 340.667923 302.963973 
L 342.025175 301.826275 
L 344.739678 302.008307 
L 346.096929 302.59991 
L 347.454181 301.50772 
L 348.811432 301.052641 
L 350.168683 301.50772 
L 351.525935 302.144831 
L 352.883186 300.597562 
L 354.240438 302.144831 
L 355.597689 301.553228 
L 356.954941 302.190339 
L 358.312192 301.598736 
L 359.669444 302.326862 
L 361.026695 301.73526 
L 362.383946 300.597562 
L 363.741198 301.052641 
L 365.098449 301.780767 
L 366.455701 302.099323 
L 367.812952 300.779594 
L 369.170204 301.098149 
L 370.527455 302.872957 
L 371.884707 303.328036 
L 373.241958 302.417878 
L 374.599209 300.005959 
L 375.956461 300.370023 
L 377.313712 301.689752 
L 378.670964 300.734086 
L 380.028215 300.552054 
L 381.385467 302.008307 
L 382.742718 302.463386 
L 384.09997 300.779594 
L 385.457221 301.73526 
L 386.814472 300.461038 
L 388.171724 301.598736 
L 389.528975 301.962799 
L 390.886227 300.461038 
L 392.243478 301.280181 
L 393.60073 301.189165 
L 394.957981 299.687404 
L 396.315233 299.77842 
L 397.672484 300.870609 
L 399.029735 300.370023 
L 400.386987 298.91377 
L 401.744238 300.461038 
L 404.458741 301.416704 
L 405.815993 300.916117 
L 407.173244 301.50772 
L 408.530496 299.323341 
L 409.887747 301.007133 
L 411.244998 301.780767 
L 412.60225 299.641896 
L 413.959501 302.008307 
L 415.316753 302.37237 
L 416.674004 300.64307 
L 418.031256 299.141309 
L 419.388507 299.459865 
L 420.745759 302.190339 
L 422.10301 300.096975 
L 423.460261 301.234673 
L 424.817513 300.870609 
L 426.174764 300.370023 
L 427.532016 301.098149 
L 428.889267 301.416704 
L 430.246519 300.41553 
L 431.60377 300.552054 
L 432.961022 301.50772 
L 434.318273 299.77842 
L 435.675524 299.596388 
L 437.032776 300.41553 
L 439.747279 298.04912 
L 441.10453 299.869436 
L 442.461782 300.279007 
L 443.819033 299.732912 
L 445.176285 299.414357 
L 446.533536 301.644244 
L 447.890787 299.323341 
L 449.248039 299.914944 
L 450.60529 301.052641 
L 451.962542 301.098149 
L 453.319793 299.869436 
L 456.034296 299.77842 
L 458.748799 300.734086 
L 461.463302 300.688578 
L 462.820553 298.822754 
L 464.177805 298.731738 
L 465.535056 300.688578 
L 466.892308 300.597562 
L 468.249559 302.008307 
L 469.606811 299.914944 
L 470.964062 300.41553 
L 472.321313 300.597562 
L 473.678565 298.731738 
L 475.035816 300.597562 
L 476.393068 300.734086 
L 477.750319 298.276659 
L 479.107571 300.734086 
L 480.464822 300.41553 
L 481.822074 299.914944 
L 483.179325 298.868262 
L 484.536576 299.55088 
L 485.893828 298.868262 
L 487.251079 299.960451 
L 488.608331 300.142483 
L 489.965582 300.051467 
L 491.322834 299.687404 
L 492.680085 301.143657 
L 494.037337 299.914944 
L 495.394588 298.91377 
L 496.751839 296.729391 
L 498.109091 297.366501 
L 498.109091 297.366501 
" clip-path="url(#pc014cd7a5c)" style="fill: none; stroke: #ff7f0e; stroke-width: 1.5; stroke-linecap: square"/>
   </g>
   <g id="LineCollection_1">
    <path d="M 92.290909 267.604334 
L 498.109091 267.604334 
" clip-path="url(#pc014cd7a5c)" style="fill: none; stroke-dasharray: 1.5,2.475; stroke-dashoffset: 0; stroke: #1f77b4; stroke-width: 1.5"/>
   </g>
   <g id="patch_3">
    <path d="M 72 384.48 
L 72 51.84 
" style="fill: none; stroke: #000000; stroke-width: 0.8; stroke-linejoin: miter; stroke-linecap: square"/>
   </g>
   <g id="patch_4">
    <path d="M 518.4 384.48 
L 518.4 51.84 
" style="fill: none; stroke: #000000; stroke-width: 0.8; stroke-linejoin: miter; stroke-linecap: square"/>
   </g>
   <g id="patch_5">
    <path d="M 72 384.48 
L 518.4 384.48 
" style="fill: none; stroke: #000000; stroke-width: 0.8; stroke-linejoin: miter; stroke-linecap: square"/>
   </g>
   <g id="patch_6">
    <path d="M 72 51.84 
L 518.4 51.84 
" style="fill: none; stroke: #000000; stroke-width: 0.8; stroke-linejoin: miter; stroke-linecap: square"/>
   </g>
   <g id="text_18">
    <!-- Training vs Validation Loss (running avg) -->
    <g transform="translate(173.656875 45.84) scale(0.12 -0.12)">
     <defs>
      <path id="DejaVuSans-54" d="M -19 4666 
L 3928 4666 
L 3928 4134 
L 2272 4134 
L 2272 0 
L 1638 0 
L 1638 4134 
L -19 4134 
L -19 4666 
z
" transform="scale(0.015625)"/>
      <path id="DejaVuSans-72" d="M 2631 2963 
Q 2534 3019 2420 3045 
Q 2306 3072 2169 3072 
Q 1681 3072 1420 2755 
Q 1159 2438 1159 1844 
L 1159 0 
L 581 0 
L 581 3500 
L 1159 3500 
L 1159 2956 
Q 1341 3275 1631 3429 
Q 1922 3584 2338 3584 
Q 2397 3584 2469 3576 
Q 2541 3569 2628 3553 
L 2631 2963 
z
" transform="scale(0.015625)"/>
      <path id="DejaVuSans-61" d="M 2194 1759 
Q 1497 1759 1228 1600 
Q 959 1441 959 1056 
Q 959 750 1161 570 
Q 1363 391 1709 391 
Q 2188 391 2477 730 
Q 2766 1069 2766 1631 
L 2766 1759 
L 2194 1759 
z
M 3341 1997 
L 3341 0 
L 2766 0 
L 2766 531 
Q 2569 213 2275 61 
Q 1981 -91 1556 -91 
Q 1019 -91 701 211 
Q 384 513 384 1019 
Q 384 1609 779 1909 
Q 1175 2209 1959 2209 
L 2766 2209 
L 2766 2266 
Q 2766 2663 2505 2880 
Q 2244 3097 1772 3097 
Q 1472 3097 1187 3025 
Q 903 2953 641 2809 
L 641 3341 
Q 956 3463 1253 3523 
Q 1550 3584 1831 3584 
Q 2591 3584 2966 3190 
Q 3341 2797 3341 1997 
z
" transform="scale(0.015625)"/>
      <path id="DejaVuSans-69" d="M 603 3500 
L 1178 3500 
L 1178 0 
L 603 0 
L 603 3500 
z
M 603 4863 
L 1178 4863 
L 1178 4134 
L 603 4134 
L 603 4863 
z
" transform="scale(0.015625)"/>
      <path id="DejaVuSans-6e" d="M 3513 2113 
L 3513 0 
L 2938 0 
L 2938 2094 
Q 2938 2591 2744 2837 
Q 2550 3084 2163 3084 
Q 1697 3084 1428 2787 
Q 1159 2491 1159 1978 
L 1159 0 
L 581 0 
L 581 3500 
L 1159 3500 
L 1159 2956 
Q 1366 3272 1645 3428 
Q 1925 3584 2291 3584 
Q 2894 3584 3203 3211 
Q 3513 2838 3513 2113 
z
" transform="scale(0.015625)"/>
      <path id="DejaVuSans-67" d="M 2906 1791 
Q 2906 2416 2648 2759 
Q 2391 3103 1925 3103 
Q 1463 3103 1205 2759 
Q 947 2416 947 1791 
Q 947 1169 1205 825 
Q 1463 481 1925 481 
Q 2391 481 2648 825 
Q 2906 1169 2906 1791 
z
M 3481 434 
Q 3481 -459 3084 -895 
Q 2688 -1331 1869 -1331 
Q 1566 -1331 1297 -1286 
Q 1028 -1241 775 -1147 
L 775 -588 
Q 1028 -725 1275 -790 
Q 1522 -856 1778 -856 
Q 2344 -856 2625 -561 
Q 2906 -266 2906 331 
L 2906 616 
Q 2728 306 2450 153 
Q 2172 0 1784 0 
Q 1141 0 747 490 
Q 353 981 353 1791 
Q 353 2603 747 3093 
Q 1141 3584 1784 3584 
Q 2172 3584 2450 3431 
Q 2728 3278 2906 2969 
L 2906 3500 
L 3481 3500 
L 3481 434 
z
" transform="scale(0.015625)"/>
      <path id="DejaVuSans-20" transform="scale(0.015625)"/>
      <path id="DejaVuSans-76" d="M 191 3500 
L 800 3500 
L 1894 563 
L 2988 3500 
L 3597 3500 
L 2284 0 
L 1503 0 
L 191 3500 
z
" transform="scale(0.015625)"/>
      <path id="DejaVuSans-56" d="M 1831 0 
L 50 4666 
L 709 4666 
L 2188 738 
L 3669 4666 
L 4325 4666 
L 2547 0 
L 1831 0 
z
" transform="scale(0.015625)"/>
      <path id="DejaVuSans-6c" d="M 603 4863 
L 1178 4863 
L 1178 0 
L 603 0 
L 603 4863 
z
" transform="scale(0.015625)"/>
      <path id="DejaVuSans-64" d="M 2906 2969 
L 2906 4863 
L 3481 4863 
L 3481 0 
L 2906 0 
L 2906 525 
Q 2725 213 2448 61 
Q 2172 -91 1784 -91 
Q 1150 -91 751 415 
Q 353 922 353 1747 
Q 353 2572 751 3078 
Q 1150 3584 1784 3584 
Q 2172 3584 2448 3432 
Q 2725 3281 2906 2969 
z
M 947 1747 
Q 947 1113 1208 752 
Q 1469 391 1925 391 
Q 2381 391 2643 752 
Q 2906 1113 2906 1747 
Q 2906 2381 2643 2742 
Q 2381 3103 1925 3103 
Q 1469 3103 1208 2742 
Q 947 2381 947 1747 
z
" transform="scale(0.015625)"/>
      <path id="DejaVuSans-74" d="M 1172 4494 
L 1172 3500 
L 2356 3500 
L 2356 3053 
L 1172 3053 
L 1172 1153 
Q 1172 725 1289 603 
Q 1406 481 1766 481 
L 2356 481 
L 2356 0 
L 1766 0 
Q 1100 0 847 248 
Q 594 497 594 1153 
L 594 3053 
L 172 3053 
L 172 3500 
L 594 3500 
L 594 4494 
L 1172 4494 
z
" transform="scale(0.015625)"/>
      <path id="DejaVuSans-28" d="M 1984 4856 
Q 1566 4138 1362 3434 
Q 1159 2731 1159 2009 
Q 1159 1288 1364 580 
Q 1569 -128 1984 -844 
L 1484 -844 
Q 1016 -109 783 600 
Q 550 1309 550 2009 
Q 550 2706 781 3412 
Q 1013 4119 1484 4856 
L 1984 4856 
z
" transform="scale(0.015625)"/>
      <path id="DejaVuSans-75" d="M 544 1381 
L 544 3500 
L 1119 3500 
L 1119 1403 
Q 1119 906 1312 657 
Q 1506 409 1894 409 
Q 2359 409 2629 706 
Q 2900 1003 2900 1516 
L 2900 3500 
L 3475 3500 
L 3475 0 
L 2900 0 
L 2900 538 
Q 2691 219 2414 64 
Q 2138 -91 1772 -91 
Q 1169 -91 856 284 
Q 544 659 544 1381 
z
M 1991 3584 
L 1991 3584 
z
" transform="scale(0.015625)"/>
      <path id="DejaVuSans-29" d="M 513 4856 
L 1013 4856 
Q 1481 4119 1714 3412 
Q 1947 2706 1947 2009 
Q 1947 1309 1714 600 
Q 1481 -109 1013 -844 
L 513 -844 
Q 928 -128 1133 580 
Q 1338 1288 1338 2009 
Q 1338 2731 1133 3434 
Q 928 4138 513 4856 
z
" transform="scale(0.015625)"/>
     </defs>
     <use xlink:href="#DejaVuSans-54"/>
     <use xlink:href="#DejaVuSans-72" transform="translate(46.333984 0)"/>
     <use xlink:href="#DejaVuSans-61" transform="translate(87.447266 0)"/>
     <use xlink:href="#DejaVuSans-69" transform="translate(148.726562 0)"/>
     <use xlink:href="#DejaVuSans-6e" transform="translate(176.509766 0)"/>
     <use xlink:href="#DejaVuSans-69" transform="translate(239.888672 0)"/>
     <use xlink:href="#DejaVuSans-6e" transform="translate(267.671875 0)"/>
     <use xlink:href="#DejaVuSans-67" transform="translate(331.050781 0)"/>
     <use xlink:href="#DejaVuSans-20" transform="translate(394.527344 0)"/>
     <use xlink:href="#DejaVuSans-76" transform="translate(426.314453 0)"/>
     <use xlink:href="#DejaVuSans-73" transform="translate(485.494141 0)"/>
     <use xlink:href="#DejaVuSans-20" transform="translate(537.59375 0)"/>
     <use xlink:href="#DejaVuSans-56" transform="translate(569.380859 0)"/>
     <use xlink:href="#DejaVuSans-61" transform="translate(630.039062 0)"/>
     <use xlink:href="#DejaVuSans-6c" transform="translate(691.318359 0)"/>
     <use xlink:href="#DejaVuSans-69" transform="translate(719.101562 0)"/>
     <use xlink:href="#DejaVuSans-64" transform="translate(746.884766 0)"/>
     <use xlink:href="#DejaVuSans-61" transform="translate(810.361328 0)"/>
     <use xlink:href="#DejaVuSans-74" transform="translate(871.640625 0)"/>
     <use xlink:href="#DejaVuSans-69" transform="translate(910.849609 0)"/>
     <use xlink:href="#DejaVuSans-6f" transform="translate(938.632812 0)"/>
     <use xlink:href="#DejaVuSans-6e" transform="translate(999.814453 0)"/>
     <use xlink:href="#DejaVuSans-20" transform="translate(1063.193359 0)"/>
     <use xlink:href="#DejaVuSans-4c" transform="translate(1094.980469 0)"/>
     <use xlink:href="#DejaVuSans-6f" transform="translate(1148.943359 0)"/>
     <use xlink:href="#DejaVuSans-73" transform="translate(1210.125 0)"/>
     <use xlink:href="#DejaVuSans-73" transform="translate(1262.224609 0)"/>
     <use xlink:href="#DejaVuSans-20" transform="translate(1314.324219 0)"/>
     <use xlink:href="#DejaVuSans-28" transform="translate(1346.111328 0)"/>
     <use xlink:href="#DejaVuSans-72" transform="translate(1385.125 0)"/>
     <use xlink:href="#DejaVuSans-75" transform="translate(1426.238281 0)"/>
     <use xlink:href="#DejaVuSans-6e" transform="translate(1489.617188 0)"/>
     <use xlink:href="#DejaVuSans-6e" transform="translate(1552.996094 0)"/>
     <use xlink:href="#DejaVuSans-69" transform="translate(1616.375 0)"/>
     <use xlink:href="#DejaVuSans-6e" transform="translate(1644.158203 0)"/>
     <use xlink:href="#DejaVuSans-67" transform="translate(1707.537109 0)"/>
     <use xlink:href="#DejaVuSans-20" transform="translate(1771.013672 0)"/>
     <use xlink:href="#DejaVuSans-61" transform="translate(1802.800781 0)"/>
     <use xlink:href="#DejaVuSans-76" transform="translate(1864.080078 0)"/>
     <use xlink:href="#DejaVuSans-67" transform="translate(1923.259766 0)"/>
     <use xlink:href="#DejaVuSans-29" transform="translate(1986.736328 0)"/>
    </g>
   </g>
   <g id="legend_1">
    <g id="patch_7">
     <path d="M 349.057812 103.874375 
L 511.4 103.874375 
Q 513.4 103.874375 513.4 101.874375 
L 513.4 58.84 
Q 513.4 56.84 511.4 56.84 
L 349.057812 56.84 
Q 347.057812 56.84 347.057812 58.84 
L 347.057812 101.874375 
Q 347.057812 103.874375 349.057812 103.874375 
z
" style="fill: #ffffff; opacity: 0.8; stroke: #cccccc; stroke-linejoin: miter"/>
    </g>
    <g id="line2d_33">
     <path d="M 351.057812 64.938437 
L 361.057812 64.938437 
L 371.057812 64.938437 
" style="fill: none; stroke: #1f77b4; stroke-width: 1.5; stroke-linecap: square"/>
    </g>
    <g id="text_19">
     <!-- Train -->
     <g transform="translate(379.057812 68.438437) scale(0.1 -0.1)">
      <use xlink:href="#DejaVuSans-54"/>
      <use xlink:href="#DejaVuSans-72" transform="translate(46.333984 0)"/>
      <use xlink:href="#DejaVuSans-61" transform="translate(87.447266 0)"/>
      <use xlink:href="#DejaVuSans-69" transform="translate(148.726562 0)"/>
      <use xlink:href="#DejaVuSans-6e" transform="translate(176.509766 0)"/>
     </g>
    </g>
    <g id="line2d_34">
     <path d="M 351.057812 79.616562 
L 361.057812 79.616562 
L 371.057812 79.616562 
" style="fill: none; stroke: #ff7f0e; stroke-width: 1.5; stroke-linecap: square"/>
    </g>
    <g id="text_20">
     <!-- Validation -->
     <g transform="translate(379.057812 83.116562) scale(0.1 -0.1)">
      <use xlink:href="#DejaVuSans-56"/>
      <use xlink:href="#DejaVuSans-61" transform="translate(60.658203 0)"/>
      <use xlink:href="#DejaVuSans-6c" transform="translate(121.9375 0)"/>
      <use xlink:href="#DejaVuSans-69" transform="translate(149.720703 0)"/>
      <use xlink:href="#DejaVuSans-64" transform="translate(177.503906 0)"/>
      <use xlink:href="#DejaVuSans-61" transform="translate(240.980469 0)"/>
      <use xlink:href="#DejaVuSans-74" transform="translate(302.259766 0)"/>
      <use xlink:href="#DejaVuSans-69" transform="translate(341.46875 0)"/>
      <use xlink:href="#DejaVuSans-6f" transform="translate(369.251953 0)"/>
      <use xlink:href="#DejaVuSans-6e" transform="translate(430.433594 0)"/>
     </g>
    </g>
    <g id="line2d_35">
     <path d="M 351.057812 94.294687 
L 371.057812 94.294687 
" style="fill: none; stroke-dasharray: 1.5,2.475; stroke-dashoffset: 0; stroke: #1f77b4; stroke-width: 1.5"/>
    </g>
    <g id="text_21">
     <!-- Test summary Loss: 0.250 -->
     <g transform="translate(379.057812 97.794687) scale(0.1 -0.1)">
      <defs>
       <path id="DejaVuSans-65" d="M 3597 1894 
L 3597 1613 
L 953 1613 
Q 991 1019 1311 708 
Q 1631 397 2203 397 
Q 2534 397 2845 478 
Q 3156 559 3463 722 
L 3463 178 
Q 3153 47 2828 -22 
Q 2503 -91 2169 -91 
Q 1331 -91 842 396 
Q 353 884 353 1716 
Q 353 2575 817 3079 
Q 1281 3584 2069 3584 
Q 2775 3584 3186 3129 
Q 3597 2675 3597 1894 
z
M 3022 2063 
Q 3016 2534 2758 2815 
Q 2500 3097 2075 3097 
Q 1594 3097 1305 2825 
Q 1016 2553 972 2059 
L 3022 2063 
z
" transform="scale(0.015625)"/>
       <path id="DejaVuSans-6d" d="M 3328 2828 
Q 3544 3216 3844 3400 
Q 4144 3584 4550 3584 
Q 5097 3584 5394 3201 
Q 5691 2819 5691 2113 
L 5691 0 
L 5113 0 
L 5113 2094 
Q 5113 2597 4934 2840 
Q 4756 3084 4391 3084 
Q 3944 3084 3684 2787 
Q 3425 2491 3425 1978 
L 3425 0 
L 2847 0 
L 2847 2094 
Q 2847 2600 2669 2842 
Q 2491 3084 2119 3084 
Q 1678 3084 1418 2786 
Q 1159 2488 1159 1978 
L 1159 0 
L 581 0 
L 581 3500 
L 1159 3500 
L 1159 2956 
Q 1356 3278 1631 3431 
Q 1906 3584 2284 3584 
Q 2666 3584 2933 3390 
Q 3200 3197 3328 2828 
z
" transform="scale(0.015625)"/>
       <path id="DejaVuSans-79" d="M 2059 -325 
Q 1816 -950 1584 -1140 
Q 1353 -1331 966 -1331 
L 506 -1331 
L 506 -850 
L 844 -850 
Q 1081 -850 1212 -737 
Q 1344 -625 1503 -206 
L 1606 56 
L 191 3500 
L 800 3500 
L 1894 763 
L 2988 3500 
L 3597 3500 
L 2059 -325 
z
" transform="scale(0.015625)"/>
       <path id="DejaVuSans-3a" d="M 750 794 
L 1409 794 
L 1409 0 
L 750 0 
L 750 794 
z
M 750 3309 
L 1409 3309 
L 1409 2516 
L 750 2516 
L 750 3309 
z
" transform="scale(0.015625)"/>
      </defs>
      <use xlink:href="#DejaVuSans-54"/>
      <use xlink:href="#DejaVuSans-65" transform="translate(44.083984 0)"/>
      <use xlink:href="#DejaVuSans-73" transform="translate(105.607422 0)"/>
      <use xlink:href="#DejaVuSans-74" transform="translate(157.707031 0)"/>
      <use xlink:href="#DejaVuSans-20" transform="translate(196.916016 0)"/>
      <use xlink:href="#DejaVuSans-73" transform="translate(228.703125 0)"/>
      <use xlink:href="#DejaVuSans-75" transform="translate(280.802734 0)"/>
      <use xlink:href="#DejaVuSans-6d" transform="translate(344.181641 0)"/>
      <use xlink:href="#DejaVuSans-6d" transform="translate(441.59375 0)"/>
      <use xlink:href="#DejaVuSans-61" transform="translate(539.005859 0)"/>
      <use xlink:href="#DejaVuSans-72" transform="translate(600.285156 0)"/>
      <use xlink:href="#DejaVuSans-79" transform="translate(641.398438 0)"/>
      <use xlink:href="#DejaVuSans-20" transform="translate(700.578125 0)"/>
      <use xlink:href="#DejaVuSans-4c" transform="translate(732.365234 0)"/>
      <use xlink:href="#DejaVuSans-6f" transform="translate(786.328125 0)"/>
      <use xlink:href="#DejaVuSans-73" transform="translate(847.509766 0)"/>
      <use xlink:href="#DejaVuSans-73" transform="translate(899.609375 0)"/>
      <use xlink:href="#DejaVuSans-3a" transform="translate(951.708984 0)"/>
      <use xlink:href="#DejaVuSans-20" transform="translate(985.400391 0)"/>
      <use xlink:href="#DejaVuSans-30" transform="translate(1017.1875 0)"/>
      <use xlink:href="#DejaVuSans-2e" transform="translate(1080.810547 0)"/>
      <use xlink:href="#DejaVuSans-32" transform="translate(1112.597656 0)"/>
      <use xlink:href="#DejaVuSans-35" transform="translate(1176.220703 0)"/>
      <use xlink:href="#DejaVuSans-30" transform="translate(1239.84375 0)"/>
     </g>
    </g>
   </g>
  </g>
 </g>
 <defs>
  <clipPath id="pc014cd7a5c">
   <rect x="72" y="51.84" width="446.4" height="332.64"/>
  </clipPath>
 </defs>
</svg>
