<?xml version="1.0" encoding="utf-8" standalone="no"?>
<!DOCTYPE svg PUBLIC "-//W3C//DTD SVG 1.1//EN"
  "http://www.w3.org/Graphics/SVG/1.1/DTD/svg11.dtd">
<svg xmlns:xlink="http://www.w3.org/1999/xlink" width="576pt" height="432pt" viewBox="0 0 576 432" xmlns="http://www.w3.org/2000/svg" version="1.1">
 <metadata>
  <rdf:RDF xmlns:dc="http://purl.org/dc/elements/1.1/" xmlns:cc="http://creativecommons.org/ns#" xmlns:rdf="http://www.w3.org/1999/02/22-rdf-syntax-ns#">
   <cc:Work>
    <dc:type rdf:resource="http://purl.org/dc/dcmitype/StillImage"/>
    <dc:date>2025-05-09T10:24:18.061578</dc:date>
    <dc:format>image/svg+xml</dc:format>
    <dc:creator>
     <cc:Agent>
      <dc:title>Matplotlib v3.10.0, https://matplotlib.org/</dc:title>
     </cc:Agent>
    </dc:creator>
   </cc:Work>
  </rdf:RDF>
 </metadata>
 <defs>
  <style type="text/css">*{stroke-linejoin: round; stroke-linecap: butt}</style>
 </defs>
 <g id="figure_1">
  <g id="patch_1">
   <path d="M 0 432 
L 576 432 
L 576 0 
L 0 0 
z
" style="fill: #ffffff"/>
  </g>
  <g id="axes_1">
   <g id="patch_2">
    <path d="M 72 384.48 
L 518.4 384.48 
L 518.4 51.84 
L 72 51.84 
z
" style="fill: #ffffff"/>
   </g>
   <g id="matplotlib.axis_1">
    <g id="xtick_1">
     <g id="line2d_1">
      <path d="M 92.290909 384.48 
L 92.290909 51.84 
" clip-path="url(#p01359b21c9)" style="fill: none; stroke: #b0b0b0; stroke-width: 0.8; stroke-linecap: square"/>
     </g>
     <g id="line2d_2">
      <defs>
       <path id="m2ca04d6528" d="M 0 0 
L 0 3.5 
" style="stroke: #000000; stroke-width: 0.8"/>
      </defs>
      <g>
       <use xlink:href="#m2ca04d6528" x="92.290909" y="384.48" style="stroke: #000000; stroke-width: 0.8"/>
      </g>
     </g>
     <g id="text_1">
      <!-- 0 -->
      <g transform="translate(89.109659 399.078438) scale(0.1 -0.1)">
       <defs>
        <path id="DejaVuSans-30" d="M 2034 4250 
Q 1547 4250 1301 3770 
Q 1056 3291 1056 2328 
Q 1056 1369 1301 889 
Q 1547 409 2034 409 
Q 2525 409 2770 889 
Q 3016 1369 3016 2328 
Q 3016 3291 2770 3770 
Q 2525 4250 2034 4250 
z
M 2034 4750 
Q 2819 4750 3233 4129 
Q 3647 3509 3647 2328 
Q 3647 1150 3233 529 
Q 2819 -91 2034 -91 
Q 1250 -91 836 529 
Q 422 1150 422 2328 
Q 422 3509 836 4129 
Q 1250 4750 2034 4750 
z
" transform="scale(0.015625)"/>
       </defs>
       <use xlink:href="#DejaVuSans-30"/>
      </g>
     </g>
    </g>
    <g id="xtick_2">
     <g id="line2d_3">
      <path d="M 160.153481 384.48 
L 160.153481 51.84 
" clip-path="url(#p01359b21c9)" style="fill: none; stroke: #b0b0b0; stroke-width: 0.8; stroke-linecap: square"/>
     </g>
     <g id="line2d_4">
      <g>
       <use xlink:href="#m2ca04d6528" x="160.153481" y="384.48" style="stroke: #000000; stroke-width: 0.8"/>
      </g>
     </g>
     <g id="text_2">
      <!-- 50 -->
      <g transform="translate(153.790981 399.078438) scale(0.1 -0.1)">
       <defs>
        <path id="DejaVuSans-35" d="M 691 4666 
L 3169 4666 
L 3169 4134 
L 1269 4134 
L 1269 2991 
Q 1406 3038 1543 3061 
Q 1681 3084 1819 3084 
Q 2600 3084 3056 2656 
Q 3513 2228 3513 1497 
Q 3513 744 3044 326 
Q 2575 -91 1722 -91 
Q 1428 -91 1123 -41 
Q 819 9 494 109 
L 494 744 
Q 775 591 1075 516 
Q 1375 441 1709 441 
Q 2250 441 2565 725 
Q 2881 1009 2881 1497 
Q 2881 1984 2565 2268 
Q 2250 2553 1709 2553 
Q 1456 2553 1204 2497 
Q 953 2441 691 2322 
L 691 4666 
z
" transform="scale(0.015625)"/>
       </defs>
       <use xlink:href="#DejaVuSans-35"/>
       <use xlink:href="#DejaVuSans-30" transform="translate(63.623047 0)"/>
      </g>
     </g>
    </g>
    <g id="xtick_3">
     <g id="line2d_5">
      <path d="M 228.016054 384.48 
L 228.016054 51.84 
" clip-path="url(#p01359b21c9)" style="fill: none; stroke: #b0b0b0; stroke-width: 0.8; stroke-linecap: square"/>
     </g>
     <g id="line2d_6">
      <g>
       <use xlink:href="#m2ca04d6528" x="228.016054" y="384.48" style="stroke: #000000; stroke-width: 0.8"/>
      </g>
     </g>
     <g id="text_3">
      <!-- 100 -->
      <g transform="translate(218.472304 399.078438) scale(0.1 -0.1)">
       <defs>
        <path id="DejaVuSans-31" d="M 794 531 
L 1825 531 
L 1825 4091 
L 703 3866 
L 703 4441 
L 1819 4666 
L 2450 4666 
L 2450 531 
L 3481 531 
L 3481 0 
L 794 0 
L 794 531 
z
" transform="scale(0.015625)"/>
       </defs>
       <use xlink:href="#DejaVuSans-31"/>
       <use xlink:href="#DejaVuSans-30" transform="translate(63.623047 0)"/>
       <use xlink:href="#DejaVuSans-30" transform="translate(127.246094 0)"/>
      </g>
     </g>
    </g>
    <g id="xtick_4">
     <g id="line2d_7">
      <path d="M 295.878626 384.48 
L 295.878626 51.84 
" clip-path="url(#p01359b21c9)" style="fill: none; stroke: #b0b0b0; stroke-width: 0.8; stroke-linecap: square"/>
     </g>
     <g id="line2d_8">
      <g>
       <use xlink:href="#m2ca04d6528" x="295.878626" y="384.48" style="stroke: #000000; stroke-width: 0.8"/>
      </g>
     </g>
     <g id="text_4">
      <!-- 150 -->
      <g transform="translate(286.334876 399.078438) scale(0.1 -0.1)">
       <use xlink:href="#DejaVuSans-31"/>
       <use xlink:href="#DejaVuSans-35" transform="translate(63.623047 0)"/>
       <use xlink:href="#DejaVuSans-30" transform="translate(127.246094 0)"/>
      </g>
     </g>
    </g>
    <g id="xtick_5">
     <g id="line2d_9">
      <path d="M 363.741198 384.48 
L 363.741198 51.84 
" clip-path="url(#p01359b21c9)" style="fill: none; stroke: #b0b0b0; stroke-width: 0.8; stroke-linecap: square"/>
     </g>
     <g id="line2d_10">
      <g>
       <use xlink:href="#m2ca04d6528" x="363.741198" y="384.48" style="stroke: #000000; stroke-width: 0.8"/>
      </g>
     </g>
     <g id="text_5">
      <!-- 200 -->
      <g transform="translate(354.197448 399.078438) scale(0.1 -0.1)">
       <defs>
        <path id="DejaVuSans-32" d="M 1228 531 
L 3431 531 
L 3431 0 
L 469 0 
L 469 531 
Q 828 903 1448 1529 
Q 2069 2156 2228 2338 
Q 2531 2678 2651 2914 
Q 2772 3150 2772 3378 
Q 2772 3750 2511 3984 
Q 2250 4219 1831 4219 
Q 1534 4219 1204 4116 
Q 875 4013 500 3803 
L 500 4441 
Q 881 4594 1212 4672 
Q 1544 4750 1819 4750 
Q 2544 4750 2975 4387 
Q 3406 4025 3406 3419 
Q 3406 3131 3298 2873 
Q 3191 2616 2906 2266 
Q 2828 2175 2409 1742 
Q 1991 1309 1228 531 
z
" transform="scale(0.015625)"/>
       </defs>
       <use xlink:href="#DejaVuSans-32"/>
       <use xlink:href="#DejaVuSans-30" transform="translate(63.623047 0)"/>
       <use xlink:href="#DejaVuSans-30" transform="translate(127.246094 0)"/>
      </g>
     </g>
    </g>
    <g id="xtick_6">
     <g id="line2d_11">
      <path d="M 431.60377 384.48 
L 431.60377 51.84 
" clip-path="url(#p01359b21c9)" style="fill: none; stroke: #b0b0b0; stroke-width: 0.8; stroke-linecap: square"/>
     </g>
     <g id="line2d_12">
      <g>
       <use xlink:href="#m2ca04d6528" x="431.60377" y="384.48" style="stroke: #000000; stroke-width: 0.8"/>
      </g>
     </g>
     <g id="text_6">
      <!-- 250 -->
      <g transform="translate(422.06002 399.078438) scale(0.1 -0.1)">
       <use xlink:href="#DejaVuSans-32"/>
       <use xlink:href="#DejaVuSans-35" transform="translate(63.623047 0)"/>
       <use xlink:href="#DejaVuSans-30" transform="translate(127.246094 0)"/>
      </g>
     </g>
    </g>
    <g id="xtick_7">
     <g id="line2d_13">
      <path d="M 499.466342 384.48 
L 499.466342 51.84 
" clip-path="url(#p01359b21c9)" style="fill: none; stroke: #b0b0b0; stroke-width: 0.8; stroke-linecap: square"/>
     </g>
     <g id="line2d_14">
      <g>
       <use xlink:href="#m2ca04d6528" x="499.466342" y="384.48" style="stroke: #000000; stroke-width: 0.8"/>
      </g>
     </g>
     <g id="text_7">
      <!-- 300 -->
      <g transform="translate(489.922592 399.078438) scale(0.1 -0.1)">
       <defs>
        <path id="DejaVuSans-33" d="M 2597 2516 
Q 3050 2419 3304 2112 
Q 3559 1806 3559 1356 
Q 3559 666 3084 287 
Q 2609 -91 1734 -91 
Q 1441 -91 1130 -33 
Q 819 25 488 141 
L 488 750 
Q 750 597 1062 519 
Q 1375 441 1716 441 
Q 2309 441 2620 675 
Q 2931 909 2931 1356 
Q 2931 1769 2642 2001 
Q 2353 2234 1838 2234 
L 1294 2234 
L 1294 2753 
L 1863 2753 
Q 2328 2753 2575 2939 
Q 2822 3125 2822 3475 
Q 2822 3834 2567 4026 
Q 2313 4219 1838 4219 
Q 1578 4219 1281 4162 
Q 984 4106 628 3988 
L 628 4550 
Q 988 4650 1302 4700 
Q 1616 4750 1894 4750 
Q 2613 4750 3031 4423 
Q 3450 4097 3450 3541 
Q 3450 3153 3228 2886 
Q 3006 2619 2597 2516 
z
" transform="scale(0.015625)"/>
       </defs>
       <use xlink:href="#DejaVuSans-33"/>
       <use xlink:href="#DejaVuSans-30" transform="translate(63.623047 0)"/>
       <use xlink:href="#DejaVuSans-30" transform="translate(127.246094 0)"/>
      </g>
     </g>
    </g>
    <g id="text_8">
     <!-- Epoch -->
     <g transform="translate(279.889062 412.756563) scale(0.1 -0.1)">
      <defs>
       <path id="DejaVuSans-45" d="M 628 4666 
L 3578 4666 
L 3578 4134 
L 1259 4134 
L 1259 2753 
L 3481 2753 
L 3481 2222 
L 1259 2222 
L 1259 531 
L 3634 531 
L 3634 0 
L 628 0 
L 628 4666 
z
" transform="scale(0.015625)"/>
       <path id="DejaVuSans-70" d="M 1159 525 
L 1159 -1331 
L 581 -1331 
L 581 3500 
L 1159 3500 
L 1159 2969 
Q 1341 3281 1617 3432 
Q 1894 3584 2278 3584 
Q 2916 3584 3314 3078 
Q 3713 2572 3713 1747 
Q 3713 922 3314 415 
Q 2916 -91 2278 -91 
Q 1894 -91 1617 61 
Q 1341 213 1159 525 
z
M 3116 1747 
Q 3116 2381 2855 2742 
Q 2594 3103 2138 3103 
Q 1681 3103 1420 2742 
Q 1159 2381 1159 1747 
Q 1159 1113 1420 752 
Q 1681 391 2138 391 
Q 2594 391 2855 752 
Q 3116 1113 3116 1747 
z
" transform="scale(0.015625)"/>
       <path id="DejaVuSans-6f" d="M 1959 3097 
Q 1497 3097 1228 2736 
Q 959 2375 959 1747 
Q 959 1119 1226 758 
Q 1494 397 1959 397 
Q 2419 397 2687 759 
Q 2956 1122 2956 1747 
Q 2956 2369 2687 2733 
Q 2419 3097 1959 3097 
z
M 1959 3584 
Q 2709 3584 3137 3096 
Q 3566 2609 3566 1747 
Q 3566 888 3137 398 
Q 2709 -91 1959 -91 
Q 1206 -91 779 398 
Q 353 888 353 1747 
Q 353 2609 779 3096 
Q 1206 3584 1959 3584 
z
" transform="scale(0.015625)"/>
       <path id="DejaVuSans-63" d="M 3122 3366 
L 3122 2828 
Q 2878 2963 2633 3030 
Q 2388 3097 2138 3097 
Q 1578 3097 1268 2742 
Q 959 2388 959 1747 
Q 959 1106 1268 751 
Q 1578 397 2138 397 
Q 2388 397 2633 464 
Q 2878 531 3122 666 
L 3122 134 
Q 2881 22 2623 -34 
Q 2366 -91 2075 -91 
Q 1284 -91 818 406 
Q 353 903 353 1747 
Q 353 2603 823 3093 
Q 1294 3584 2113 3584 
Q 2378 3584 2631 3529 
Q 2884 3475 3122 3366 
z
" transform="scale(0.015625)"/>
       <path id="DejaVuSans-68" d="M 3513 2113 
L 3513 0 
L 2938 0 
L 2938 2094 
Q 2938 2591 2744 2837 
Q 2550 3084 2163 3084 
Q 1697 3084 1428 2787 
Q 1159 2491 1159 1978 
L 1159 0 
L 581 0 
L 581 4863 
L 1159 4863 
L 1159 2956 
Q 1366 3272 1645 3428 
Q 1925 3584 2291 3584 
Q 2894 3584 3203 3211 
Q 3513 2838 3513 2113 
z
" transform="scale(0.015625)"/>
      </defs>
      <use xlink:href="#DejaVuSans-45"/>
      <use xlink:href="#DejaVuSans-70" transform="translate(63.183594 0)"/>
      <use xlink:href="#DejaVuSans-6f" transform="translate(126.660156 0)"/>
      <use xlink:href="#DejaVuSans-63" transform="translate(187.841797 0)"/>
      <use xlink:href="#DejaVuSans-68" transform="translate(242.822266 0)"/>
     </g>
    </g>
   </g>
   <g id="matplotlib.axis_2">
    <g id="ytick_1">
     <g id="line2d_15">
      <path d="M 72 324.51511 
L 518.4 324.51511 
" clip-path="url(#p01359b21c9)" style="fill: none; stroke: #b0b0b0; stroke-width: 0.8; stroke-linecap: square"/>
     </g>
     <g id="line2d_16">
      <defs>
       <path id="mefcfe77931" d="M 0 0 
L -3.5 0 
" style="stroke: #000000; stroke-width: 0.8"/>
      </defs>
      <g>
       <use xlink:href="#mefcfe77931" x="72" y="324.51511" style="stroke: #000000; stroke-width: 0.8"/>
      </g>
     </g>
     <g id="text_9">
      <!-- 0.2 -->
      <g transform="translate(49.096875 328.314329) scale(0.1 -0.1)">
       <defs>
        <path id="DejaVuSans-2e" d="M 684 794 
L 1344 794 
L 1344 0 
L 684 0 
L 684 794 
z
" transform="scale(0.015625)"/>
       </defs>
       <use xlink:href="#DejaVuSans-30"/>
       <use xlink:href="#DejaVuSans-2e" transform="translate(63.623047 0)"/>
       <use xlink:href="#DejaVuSans-32" transform="translate(95.410156 0)"/>
      </g>
     </g>
    </g>
    <g id="ytick_2">
     <g id="line2d_17">
      <path d="M 72 263.913908 
L 518.4 263.913908 
" clip-path="url(#p01359b21c9)" style="fill: none; stroke: #b0b0b0; stroke-width: 0.8; stroke-linecap: square"/>
     </g>
     <g id="line2d_18">
      <g>
       <use xlink:href="#mefcfe77931" x="72" y="263.913908" style="stroke: #000000; stroke-width: 0.8"/>
      </g>
     </g>
     <g id="text_10">
      <!-- 0.3 -->
      <g transform="translate(49.096875 267.713127) scale(0.1 -0.1)">
       <use xlink:href="#DejaVuSans-30"/>
       <use xlink:href="#DejaVuSans-2e" transform="translate(63.623047 0)"/>
       <use xlink:href="#DejaVuSans-33" transform="translate(95.410156 0)"/>
      </g>
     </g>
    </g>
    <g id="ytick_3">
     <g id="line2d_19">
      <path d="M 72 203.312705 
L 518.4 203.312705 
" clip-path="url(#p01359b21c9)" style="fill: none; stroke: #b0b0b0; stroke-width: 0.8; stroke-linecap: square"/>
     </g>
     <g id="line2d_20">
      <g>
       <use xlink:href="#mefcfe77931" x="72" y="203.312705" style="stroke: #000000; stroke-width: 0.8"/>
      </g>
     </g>
     <g id="text_11">
      <!-- 0.4 -->
      <g transform="translate(49.096875 207.111924) scale(0.1 -0.1)">
       <defs>
        <path id="DejaVuSans-34" d="M 2419 4116 
L 825 1625 
L 2419 1625 
L 2419 4116 
z
M 2253 4666 
L 3047 4666 
L 3047 1625 
L 3713 1625 
L 3713 1100 
L 3047 1100 
L 3047 0 
L 2419 0 
L 2419 1100 
L 313 1100 
L 313 1709 
L 2253 4666 
z
" transform="scale(0.015625)"/>
       </defs>
       <use xlink:href="#DejaVuSans-30"/>
       <use xlink:href="#DejaVuSans-2e" transform="translate(63.623047 0)"/>
       <use xlink:href="#DejaVuSans-34" transform="translate(95.410156 0)"/>
      </g>
     </g>
    </g>
    <g id="ytick_4">
     <g id="line2d_21">
      <path d="M 72 142.711503 
L 518.4 142.711503 
" clip-path="url(#p01359b21c9)" style="fill: none; stroke: #b0b0b0; stroke-width: 0.8; stroke-linecap: square"/>
     </g>
     <g id="line2d_22">
      <g>
       <use xlink:href="#mefcfe77931" x="72" y="142.711503" style="stroke: #000000; stroke-width: 0.8"/>
      </g>
     </g>
     <g id="text_12">
      <!-- 0.5 -->
      <g transform="translate(49.096875 146.510722) scale(0.1 -0.1)">
       <use xlink:href="#DejaVuSans-30"/>
       <use xlink:href="#DejaVuSans-2e" transform="translate(63.623047 0)"/>
       <use xlink:href="#DejaVuSans-35" transform="translate(95.410156 0)"/>
      </g>
     </g>
    </g>
    <g id="ytick_5">
     <g id="line2d_23">
      <path d="M 72 82.110301 
L 518.4 82.110301 
" clip-path="url(#p01359b21c9)" style="fill: none; stroke: #b0b0b0; stroke-width: 0.8; stroke-linecap: square"/>
     </g>
     <g id="line2d_24">
      <g>
       <use xlink:href="#mefcfe77931" x="72" y="82.110301" style="stroke: #000000; stroke-width: 0.8"/>
      </g>
     </g>
     <g id="text_13">
      <!-- 0.6 -->
      <g transform="translate(49.096875 85.909519) scale(0.1 -0.1)">
       <defs>
        <path id="DejaVuSans-36" d="M 2113 2584 
Q 1688 2584 1439 2293 
Q 1191 2003 1191 1497 
Q 1191 994 1439 701 
Q 1688 409 2113 409 
Q 2538 409 2786 701 
Q 3034 994 3034 1497 
Q 3034 2003 2786 2293 
Q 2538 2584 2113 2584 
z
M 3366 4563 
L 3366 3988 
Q 3128 4100 2886 4159 
Q 2644 4219 2406 4219 
Q 1781 4219 1451 3797 
Q 1122 3375 1075 2522 
Q 1259 2794 1537 2939 
Q 1816 3084 2150 3084 
Q 2853 3084 3261 2657 
Q 3669 2231 3669 1497 
Q 3669 778 3244 343 
Q 2819 -91 2113 -91 
Q 1303 -91 875 529 
Q 447 1150 447 2328 
Q 447 3434 972 4092 
Q 1497 4750 2381 4750 
Q 2619 4750 2861 4703 
Q 3103 4656 3366 4563 
z
" transform="scale(0.015625)"/>
       </defs>
       <use xlink:href="#DejaVuSans-30"/>
       <use xlink:href="#DejaVuSans-2e" transform="translate(63.623047 0)"/>
       <use xlink:href="#DejaVuSans-36" transform="translate(95.410156 0)"/>
      </g>
     </g>
    </g>
    <g id="text_14">
     <!-- MAE -->
     <g transform="translate(43.017187 229.05375) rotate(-90) scale(0.1 -0.1)">
      <defs>
       <path id="DejaVuSans-4d" d="M 628 4666 
L 1569 4666 
L 2759 1491 
L 3956 4666 
L 4897 4666 
L 4897 0 
L 4281 0 
L 4281 4097 
L 3078 897 
L 2444 897 
L 1241 4097 
L 1241 0 
L 628 0 
L 628 4666 
z
" transform="scale(0.015625)"/>
       <path id="DejaVuSans-41" d="M 2188 4044 
L 1331 1722 
L 3047 1722 
L 2188 4044 
z
M 1831 4666 
L 2547 4666 
L 4325 0 
L 3669 0 
L 3244 1197 
L 1141 1197 
L 716 0 
L 50 0 
L 1831 4666 
z
" transform="scale(0.015625)"/>
      </defs>
      <use xlink:href="#DejaVuSans-4d"/>
      <use xlink:href="#DejaVuSans-41" transform="translate(86.279297 0)"/>
      <use xlink:href="#DejaVuSans-45" transform="translate(154.6875 0)"/>
     </g>
    </g>
   </g>
   <g id="line2d_25">
    <path d="M 92.290909 66.96 
L 93.648161 120.89507 
L 95.005412 133.015311 
L 96.362663 138.469419 
L 97.719915 154.831743 
L 99.077166 148.771623 
L 100.434418 169.982044 
L 101.791669 171.80008 
L 103.148921 181.496273 
L 104.506172 177.8602 
L 105.863424 191.192465 
L 107.220675 192.404489 
L 108.577926 200.282645 
L 111.292429 202.706693 
L 112.649681 203.312705 
L 114.006932 209.978838 
L 115.364184 217.250982 
L 116.721435 211.190862 
L 118.078687 216.64497 
L 119.435938 222.70509 
L 120.793189 221.493066 
L 122.150441 231.795271 
L 123.507692 228.159198 
L 124.864944 232.401283 
L 126.222195 234.825331 
L 127.579447 243.915511 
L 128.936698 240.885451 
L 130.29395 245.127535 
L 131.651201 248.763607 
L 134.365704 243.915511 
L 135.722955 247.551583 
L 137.080207 249.369619 
L 138.437458 257.247776 
L 139.79471 258.4598 
L 141.151961 256.641764 
L 142.509213 260.883848 
L 143.866464 258.4598 
L 145.223715 261.48986 
L 146.580967 268.762004 
L 147.938218 271.186052 
L 149.29547 272.398076 
L 150.652721 263.913908 
L 152.009973 263.913908 
L 153.367224 272.398076 
L 154.724476 271.792064 
L 156.081727 278.458196 
L 157.438978 277.246172 
L 158.79623 277.246172 
L 160.153481 279.67022 
L 161.510733 269.974028 
L 162.867984 271.186052 
L 164.225236 279.67022 
L 165.582487 277.852184 
L 166.939739 283.912305 
L 168.29699 278.458196 
L 169.654241 280.276232 
L 171.011493 283.912305 
L 172.368744 285.124329 
L 173.725996 282.094269 
L 175.083247 291.790461 
L 176.440499 287.548377 
L 177.79775 286.336353 
L 179.155002 289.972425 
L 180.512253 291.184449 
L 181.869504 293.002485 
L 183.226756 291.790461 
L 184.584007 292.396473 
L 185.941259 287.548377 
L 187.29851 293.608497 
L 188.655762 299.062605 
L 190.013013 298.456593 
L 191.370265 297.244569 
L 192.727516 300.274629 
L 194.084767 300.274629 
L 195.442019 302.698677 
L 196.79927 301.486653 
L 198.156522 306.940762 
L 199.513773 298.456593 
L 200.871025 300.880641 
L 202.228276 308.758798 
L 203.585528 306.940762 
L 204.942779 308.758798 
L 206.30003 305.122725 
L 207.657282 311.182846 
L 209.014533 311.182846 
L 210.371785 315.42493 
L 211.729036 315.42493 
L 213.086288 308.758798 
L 214.443539 311.788858 
L 215.800791 314.212906 
L 217.158042 313.606894 
L 218.515293 315.42493 
L 219.872545 318.45499 
L 221.229796 325.121122 
L 222.587048 312.39487 
L 223.944299 319.061002 
L 225.301551 317.242966 
L 226.658802 319.061002 
L 228.016054 334.817315 
L 229.373305 343.907495 
L 230.730556 346.331543 
L 232.087808 343.907495 
L 233.445059 343.907495 
L 234.802311 346.937555 
L 236.159562 344.513507 
L 237.516814 345.725531 
L 238.874065 347.543567 
L 240.231317 349.967615 
L 241.588568 344.513507 
L 242.945819 349.967615 
L 244.303071 349.361603 
L 245.660322 346.937555 
L 247.017574 349.361603 
L 248.374825 345.119519 
L 249.732077 351.179639 
L 251.089328 350.573627 
L 252.44658 348.755591 
L 253.803831 351.785651 
L 255.161082 350.573627 
L 256.518334 351.179639 
L 257.875585 349.361603 
L 259.232837 349.361603 
L 260.590088 349.967615 
L 261.94734 356.633747 
L 263.304591 353.603687 
L 264.661843 352.997675 
L 266.019094 352.997675 
L 267.376345 349.361603 
L 268.733597 351.785651 
L 270.090848 352.391663 
L 271.4481 353.603687 
L 272.805351 357.23976 
L 274.162603 354.209699 
L 275.519854 352.997675 
L 276.877106 354.815711 
L 278.234357 353.603687 
L 279.591608 354.815711 
L 280.94886 357.23976 
L 282.306111 354.815711 
L 283.663363 351.785651 
L 285.020614 355.421723 
L 286.377866 356.027735 
L 287.735117 354.815711 
L 289.092369 355.421723 
L 290.44962 354.815711 
L 291.806871 354.815711 
L 293.164123 352.391663 
L 294.521374 356.027735 
L 295.878626 355.421723 
L 297.235877 354.209699 
L 298.593129 355.421723 
L 299.95038 354.209699 
L 301.307631 357.23976 
L 302.664883 352.391663 
L 304.022134 351.785651 
L 305.379386 354.209699 
L 306.736637 356.027735 
L 308.093889 354.209699 
L 309.45114 355.421723 
L 310.808392 356.027735 
L 312.165643 357.23976 
L 313.522894 357.845772 
L 314.880146 357.845772 
L 316.237397 356.027735 
L 317.594649 357.845772 
L 318.9519 357.845772 
L 320.309152 359.057796 
L 321.666403 357.23976 
L 323.023655 359.057796 
L 324.380906 353.603687 
L 325.738157 356.633747 
L 327.095409 358.451784 
L 328.45266 352.997675 
L 329.809912 356.633747 
L 331.167163 356.633747 
L 332.524415 355.421723 
L 333.881666 353.603687 
L 336.596169 359.663808 
L 337.95342 351.785651 
L 339.310672 360.26982 
L 340.667923 360.26982 
L 342.025175 359.057796 
L 343.382426 360.26982 
L 344.739678 355.421723 
L 346.096929 360.875832 
L 347.454181 358.451784 
L 348.811432 356.633747 
L 350.168683 362.087856 
L 351.525935 356.633747 
L 352.883186 354.209699 
L 354.240438 356.633747 
L 355.597689 360.26982 
L 356.954941 358.451784 
L 358.312192 360.875832 
L 359.669444 361.481844 
L 361.026695 360.26982 
L 362.383946 357.23976 
L 363.741198 362.693868 
L 365.098449 362.087856 
L 366.455701 358.451784 
L 367.812952 360.26982 
L 369.170204 361.481844 
L 370.527455 360.875832 
L 371.884707 362.087856 
L 373.241958 362.087856 
L 374.599209 360.26982 
L 375.956461 362.693868 
L 377.313712 356.027735 
L 378.670964 359.057796 
L 380.028215 360.26982 
L 381.385467 355.421723 
L 382.742718 362.693868 
L 384.09997 359.663808 
L 385.457221 363.29988 
L 386.814472 362.087856 
L 388.171724 362.087856 
L 389.528975 359.057796 
L 390.886227 357.23976 
L 392.243478 362.693868 
L 393.60073 365.117916 
L 394.957981 360.875832 
L 396.315233 357.845772 
L 397.672484 361.481844 
L 399.029735 363.29988 
L 400.386987 362.693868 
L 401.744238 362.693868 
L 403.10149 361.481844 
L 404.458741 359.663808 
L 407.173244 365.723928 
L 409.887747 366.935952 
L 411.244998 360.875832 
L 412.60225 357.23976 
L 413.959501 360.875832 
L 415.316753 362.087856 
L 416.674004 362.693868 
L 418.031256 363.905892 
L 419.388507 362.087856 
L 420.745759 361.481844 
L 422.10301 361.481844 
L 423.460261 362.693868 
L 424.817513 362.693868 
L 426.174764 363.29988 
L 427.532016 357.23976 
L 430.246519 363.29988 
L 431.60377 362.693868 
L 432.961022 362.693868 
L 434.318273 363.905892 
L 435.675524 362.693868 
L 437.032776 362.087856 
L 438.390027 365.723928 
L 439.747279 362.693868 
L 441.10453 365.723928 
L 442.461782 360.875832 
L 443.819033 360.26982 
L 445.176285 363.29988 
L 446.533536 362.087856 
L 447.890787 362.693868 
L 449.248039 366.935952 
L 450.60529 365.117916 
L 451.962542 368.147976 
L 453.319793 363.905892 
L 454.677045 362.693868 
L 456.034296 363.905892 
L 457.391548 361.481844 
L 458.748799 364.511904 
L 460.10605 366.32994 
L 461.463302 362.693868 
L 462.820553 365.723928 
L 464.177805 362.693868 
L 465.535056 366.935952 
L 466.892308 365.117916 
L 469.606811 362.693868 
L 470.964062 366.935952 
L 472.321313 367.541964 
L 473.678565 366.935952 
L 475.035816 362.087856 
L 476.393068 362.693868 
L 477.750319 362.087856 
L 479.107571 367.541964 
L 483.179325 363.905892 
L 484.536576 368.753988 
L 485.893828 365.723928 
L 487.251079 363.29988 
L 488.608331 365.117916 
L 489.965582 369.36 
L 491.322834 367.541964 
L 492.680085 366.32994 
L 494.037337 366.32994 
L 495.394588 364.511904 
L 496.751839 367.541964 
L 498.109091 360.875832 
L 498.109091 360.875832 
" clip-path="url(#p01359b21c9)" style="fill: none; stroke: #1f77b4; stroke-width: 1.5; stroke-linecap: square"/>
   </g>
   <g id="line2d_26">
    <path d="M 92.290909 72.414108 
L 93.648161 105.138758 
L 95.005412 103.320721 
L 96.362663 74.232144 
L 99.077166 138.469419 
L 100.434418 156.043768 
L 101.791669 191.798477 
L 103.148921 179.678236 
L 104.506172 182.708297 
L 105.863424 156.64978 
L 107.220675 139.075431 
L 108.577926 192.404489 
L 109.935178 198.464609 
L 111.292429 170.588056 
L 112.649681 191.798477 
L 114.006932 206.342766 
L 115.364184 91.806493 
L 116.721435 173.012104 
L 118.078687 216.038958 
L 119.435938 188.768417 
L 120.793189 193.616513 
L 122.150441 171.194068 
L 123.507692 234.825331 
L 124.864944 211.190862 
L 126.222195 213.008898 
L 127.579447 236.643367 
L 128.936698 211.190862 
L 130.29395 149.983647 
L 131.651201 204.524729 
L 133.008452 189.980441 
L 134.365704 155.437756 
L 135.722955 240.279439 
L 137.080207 249.975631 
L 138.437458 125.743166 
L 139.79471 228.76521 
L 141.151961 234.219319 
L 142.509213 207.55479 
L 143.866464 220.887054 
L 145.223715 173.012104 
L 146.580967 221.493066 
L 147.938218 206.342766 
L 149.29547 228.76521 
L 150.652721 203.918717 
L 152.009973 231.795271 
L 153.367224 207.55479 
L 154.724476 245.733547 
L 156.081727 213.61491 
L 157.438978 252.399679 
L 158.79623 247.551583 
L 160.153481 229.371222 
L 161.510733 126.95519 
L 162.867984 238.461403 
L 164.225236 249.369619 
L 165.582487 244.521523 
L 166.939739 204.524729 
L 168.29699 220.281042 
L 169.654241 176.648176 
L 171.011493 250.581643 
L 172.368744 246.339559 
L 173.725996 214.220922 
L 175.083247 237.855391 
L 176.440499 242.097475 
L 177.79775 254.217715 
L 179.155002 245.127535 
L 180.512253 244.521523 
L 181.869504 264.51992 
L 183.226756 248.157595 
L 184.584007 222.099078 
L 185.941259 249.369619 
L 187.29851 240.885451 
L 188.655762 225.73515 
L 190.013013 249.369619 
L 191.370265 249.369619 
L 192.727516 236.037355 
L 194.084767 224.523126 
L 196.79927 251.793667 
L 198.156522 242.097475 
L 199.513773 148.771623 
L 200.871025 266.337956 
L 202.228276 239.067415 
L 203.585528 246.339559 
L 204.942779 249.369619 
L 206.30003 258.4598 
L 207.657282 234.219319 
L 209.014533 253.005691 
L 210.371785 245.127535 
L 211.729036 242.097475 
L 213.086288 239.673427 
L 214.443539 236.643367 
L 215.800791 239.067415 
L 217.158042 254.823727 
L 218.515293 248.157595 
L 219.872545 236.643367 
L 221.229796 246.339559 
L 222.587048 261.48986 
L 223.944299 225.129138 
L 225.301551 254.823727 
L 226.658802 262.701884 
L 228.016054 277.246172 
L 229.373305 276.64016 
L 230.730556 277.246172 
L 233.445059 277.246172 
L 234.802311 274.822124 
L 236.159562 276.034148 
L 237.516814 274.822124 
L 238.874065 275.428136 
L 240.231317 275.428136 
L 241.588568 270.58004 
L 242.945819 275.428136 
L 244.303071 268.155992 
L 245.660322 274.822124 
L 247.017574 274.216112 
L 248.374825 274.822124 
L 249.732077 273.6101 
L 251.089328 271.792064 
L 252.44658 274.216112 
L 253.803831 276.034148 
L 255.161082 274.822124 
L 256.518334 276.034148 
L 259.232837 271.186052 
L 261.94734 273.6101 
L 263.304591 274.216112 
L 264.661843 275.428136 
L 266.019094 273.6101 
L 267.376345 272.398076 
L 268.733597 276.034148 
L 270.090848 274.822124 
L 271.4481 274.822124 
L 272.805351 275.428136 
L 274.162603 268.762004 
L 275.519854 274.822124 
L 276.877106 268.762004 
L 278.234357 274.216112 
L 279.591608 273.6101 
L 280.94886 274.822124 
L 283.663363 273.6101 
L 285.020614 275.428136 
L 286.377866 276.64016 
L 287.735117 274.216112 
L 289.092369 270.58004 
L 290.44962 268.762004 
L 291.806871 269.974028 
L 293.164123 274.216112 
L 294.521374 274.822124 
L 295.878626 273.6101 
L 297.235877 271.792064 
L 298.593129 274.822124 
L 301.307631 272.398076 
L 302.664883 270.58004 
L 304.022134 274.216112 
L 305.379386 272.398076 
L 306.736637 274.216112 
L 308.093889 270.58004 
L 309.45114 271.186052 
L 310.808392 274.216112 
L 312.165643 274.216112 
L 313.522894 271.792064 
L 314.880146 274.216112 
L 316.237397 271.792064 
L 317.594649 274.216112 
L 318.9519 274.216112 
L 320.309152 272.398076 
L 321.666403 274.216112 
L 323.023655 273.004088 
L 324.380906 273.6101 
L 325.738157 271.792064 
L 327.095409 274.216112 
L 328.45266 271.186052 
L 329.809912 271.792064 
L 331.167163 268.155992 
L 332.524415 273.004088 
L 333.881666 273.6101 
L 335.238918 272.398076 
L 336.596169 272.398076 
L 337.95342 273.004088 
L 339.310672 271.792064 
L 340.667923 272.398076 
L 342.025175 269.368016 
L 343.382426 271.792064 
L 344.739678 271.186052 
L 346.096929 272.398076 
L 348.811432 269.974028 
L 350.168683 271.186052 
L 351.525935 271.792064 
L 352.883186 266.943968 
L 354.240438 271.792064 
L 355.597689 271.186052 
L 356.954941 272.398076 
L 358.312192 270.58004 
L 359.669444 271.792064 
L 361.026695 268.762004 
L 362.383946 268.155992 
L 365.098449 271.792064 
L 366.455701 271.792064 
L 367.812952 268.762004 
L 369.170204 270.58004 
L 370.527455 273.004088 
L 371.884707 273.004088 
L 373.241958 271.792064 
L 374.599209 268.762004 
L 375.956461 268.155992 
L 377.313712 269.368016 
L 378.670964 271.186052 
L 380.028215 270.58004 
L 381.385467 272.398076 
L 382.742718 272.398076 
L 384.09997 271.186052 
L 385.457221 270.58004 
L 388.171724 271.792064 
L 389.528975 271.792064 
L 390.886227 269.368016 
L 392.243478 270.58004 
L 393.60073 269.368016 
L 394.957981 266.337956 
L 396.315233 268.762004 
L 397.672484 269.368016 
L 399.029735 266.943968 
L 400.386987 266.943968 
L 401.744238 269.974028 
L 403.10149 269.974028 
L 404.458741 268.762004 
L 405.815993 268.762004 
L 407.173244 271.186052 
L 408.530496 268.155992 
L 409.887747 270.58004 
L 411.244998 270.58004 
L 412.60225 268.155992 
L 413.959501 271.186052 
L 415.316753 271.792064 
L 416.674004 269.974028 
L 418.031256 267.54998 
L 419.388507 268.762004 
L 420.745759 271.186052 
L 422.10301 266.943968 
L 423.460261 269.974028 
L 424.817513 269.368016 
L 426.174764 269.368016 
L 427.532016 269.974028 
L 428.889267 269.974028 
L 431.60377 268.762004 
L 432.961022 269.974028 
L 434.318273 267.54998 
L 435.675524 265.731944 
L 437.032776 269.368016 
L 438.390027 268.762004 
L 439.747279 266.337956 
L 441.10453 267.54998 
L 443.819033 268.762004 
L 445.176285 268.155992 
L 446.533536 271.186052 
L 447.890787 267.54998 
L 449.248039 269.368016 
L 450.60529 269.974028 
L 451.962542 269.974028 
L 453.319793 268.155992 
L 454.677045 268.762004 
L 456.034296 266.337956 
L 458.748799 269.974028 
L 460.10605 269.974028 
L 461.463302 268.155992 
L 462.820553 268.155992 
L 464.177805 265.731944 
L 465.535056 269.974028 
L 466.892308 268.762004 
L 468.249559 269.974028 
L 469.606811 268.155992 
L 470.964062 269.974028 
L 472.321313 268.762004 
L 473.678565 266.943968 
L 475.035816 269.974028 
L 476.393068 268.762004 
L 477.750319 265.125932 
L 479.107571 269.974028 
L 480.464822 269.368016 
L 481.822074 267.54998 
L 483.179325 266.337956 
L 484.536576 266.943968 
L 485.893828 266.943968 
L 487.251079 268.155992 
L 488.608331 268.762004 
L 489.965582 266.943968 
L 491.322834 266.943968 
L 492.680085 270.58004 
L 494.037337 268.762004 
L 495.394588 268.155992 
L 496.751839 262.701884 
L 498.109091 265.731944 
L 498.109091 265.731944 
" clip-path="url(#p01359b21c9)" style="fill: none; stroke: #ff7f0e; stroke-width: 1.5; stroke-linecap: square"/>
   </g>
   <g id="LineCollection_1">
    <path d="M 92.290909 265.731944 
L 498.109091 265.731944 
" clip-path="url(#p01359b21c9)" style="fill: none; stroke-dasharray: 1.5,2.475; stroke-dashoffset: 0; stroke: #1f77b4; stroke-width: 1.5"/>
   </g>
   <g id="patch_3">
    <path d="M 72 384.48 
L 72 51.84 
" style="fill: none; stroke: #000000; stroke-width: 0.8; stroke-linejoin: miter; stroke-linecap: square"/>
   </g>
   <g id="patch_4">
    <path d="M 518.4 384.48 
L 518.4 51.84 
" style="fill: none; stroke: #000000; stroke-width: 0.8; stroke-linejoin: miter; stroke-linecap: square"/>
   </g>
   <g id="patch_5">
    <path d="M 72 384.48 
L 518.4 384.48 
" style="fill: none; stroke: #000000; stroke-width: 0.8; stroke-linejoin: miter; stroke-linecap: square"/>
   </g>
   <g id="patch_6">
    <path d="M 72 51.84 
L 518.4 51.84 
" style="fill: none; stroke: #000000; stroke-width: 0.8; stroke-linejoin: miter; stroke-linecap: square"/>
   </g>
   <g id="text_15">
    <!-- Training vs Validation MAE (running avg) -->
    <g transform="translate(173.745 45.84) scale(0.12 -0.12)">
     <defs>
      <path id="DejaVuSans-54" d="M -19 4666 
L 3928 4666 
L 3928 4134 
L 2272 4134 
L 2272 0 
L 1638 0 
L 1638 4134 
L -19 4134 
L -19 4666 
z
" transform="scale(0.015625)"/>
      <path id="DejaVuSans-72" d="M 2631 2963 
Q 2534 3019 2420 3045 
Q 2306 3072 2169 3072 
Q 1681 3072 1420 2755 
Q 1159 2438 1159 1844 
L 1159 0 
L 581 0 
L 581 3500 
L 1159 3500 
L 1159 2956 
Q 1341 3275 1631 3429 
Q 1922 3584 2338 3584 
Q 2397 3584 2469 3576 
Q 2541 3569 2628 3553 
L 2631 2963 
z
" transform="scale(0.015625)"/>
      <path id="DejaVuSans-61" d="M 2194 1759 
Q 1497 1759 1228 1600 
Q 959 1441 959 1056 
Q 959 750 1161 570 
Q 1363 391 1709 391 
Q 2188 391 2477 730 
Q 2766 1069 2766 1631 
L 2766 1759 
L 2194 1759 
z
M 3341 1997 
L 3341 0 
L 2766 0 
L 2766 531 
Q 2569 213 2275 61 
Q 1981 -91 1556 -91 
Q 1019 -91 701 211 
Q 384 513 384 1019 
Q 384 1609 779 1909 
Q 1175 2209 1959 2209 
L 2766 2209 
L 2766 2266 
Q 2766 2663 2505 2880 
Q 2244 3097 1772 3097 
Q 1472 3097 1187 3025 
Q 903 2953 641 2809 
L 641 3341 
Q 956 3463 1253 3523 
Q 1550 3584 1831 3584 
Q 2591 3584 2966 3190 
Q 3341 2797 3341 1997 
z
" transform="scale(0.015625)"/>
      <path id="DejaVuSans-69" d="M 603 3500 
L 1178 3500 
L 1178 0 
L 603 0 
L 603 3500 
z
M 603 4863 
L 1178 4863 
L 1178 4134 
L 603 4134 
L 603 4863 
z
" transform="scale(0.015625)"/>
      <path id="DejaVuSans-6e" d="M 3513 2113 
L 3513 0 
L 2938 0 
L 2938 2094 
Q 2938 2591 2744 2837 
Q 2550 3084 2163 3084 
Q 1697 3084 1428 2787 
Q 1159 2491 1159 1978 
L 1159 0 
L 581 0 
L 581 3500 
L 1159 3500 
L 1159 2956 
Q 1366 3272 1645 3428 
Q 1925 3584 2291 3584 
Q 2894 3584 3203 3211 
Q 3513 2838 3513 2113 
z
" transform="scale(0.015625)"/>
      <path id="DejaVuSans-67" d="M 2906 1791 
Q 2906 2416 2648 2759 
Q 2391 3103 1925 3103 
Q 1463 3103 1205 2759 
Q 947 2416 947 1791 
Q 947 1169 1205 825 
Q 1463 481 1925 481 
Q 2391 481 2648 825 
Q 2906 1169 2906 1791 
z
M 3481 434 
Q 3481 -459 3084 -895 
Q 2688 -1331 1869 -1331 
Q 1566 -1331 1297 -1286 
Q 1028 -1241 775 -1147 
L 775 -588 
Q 1028 -725 1275 -790 
Q 1522 -856 1778 -856 
Q 2344 -856 2625 -561 
Q 2906 -266 2906 331 
L 2906 616 
Q 2728 306 2450 153 
Q 2172 0 1784 0 
Q 1141 0 747 490 
Q 353 981 353 1791 
Q 353 2603 747 3093 
Q 1141 3584 1784 3584 
Q 2172 3584 2450 3431 
Q 2728 3278 2906 2969 
L 2906 3500 
L 3481 3500 
L 3481 434 
z
" transform="scale(0.015625)"/>
      <path id="DejaVuSans-20" transform="scale(0.015625)"/>
      <path id="DejaVuSans-76" d="M 191 3500 
L 800 3500 
L 1894 563 
L 2988 3500 
L 3597 3500 
L 2284 0 
L 1503 0 
L 191 3500 
z
" transform="scale(0.015625)"/>
      <path id="DejaVuSans-73" d="M 2834 3397 
L 2834 2853 
Q 2591 2978 2328 3040 
Q 2066 3103 1784 3103 
Q 1356 3103 1142 2972 
Q 928 2841 928 2578 
Q 928 2378 1081 2264 
Q 1234 2150 1697 2047 
L 1894 2003 
Q 2506 1872 2764 1633 
Q 3022 1394 3022 966 
Q 3022 478 2636 193 
Q 2250 -91 1575 -91 
Q 1294 -91 989 -36 
Q 684 19 347 128 
L 347 722 
Q 666 556 975 473 
Q 1284 391 1588 391 
Q 1994 391 2212 530 
Q 2431 669 2431 922 
Q 2431 1156 2273 1281 
Q 2116 1406 1581 1522 
L 1381 1569 
Q 847 1681 609 1914 
Q 372 2147 372 2553 
Q 372 3047 722 3315 
Q 1072 3584 1716 3584 
Q 2034 3584 2315 3537 
Q 2597 3491 2834 3397 
z
" transform="scale(0.015625)"/>
      <path id="DejaVuSans-56" d="M 1831 0 
L 50 4666 
L 709 4666 
L 2188 738 
L 3669 4666 
L 4325 4666 
L 2547 0 
L 1831 0 
z
" transform="scale(0.015625)"/>
      <path id="DejaVuSans-6c" d="M 603 4863 
L 1178 4863 
L 1178 0 
L 603 0 
L 603 4863 
z
" transform="scale(0.015625)"/>
      <path id="DejaVuSans-64" d="M 2906 2969 
L 2906 4863 
L 3481 4863 
L 3481 0 
L 2906 0 
L 2906 525 
Q 2725 213 2448 61 
Q 2172 -91 1784 -91 
Q 1150 -91 751 415 
Q 353 922 353 1747 
Q 353 2572 751 3078 
Q 1150 3584 1784 3584 
Q 2172 3584 2448 3432 
Q 2725 3281 2906 2969 
z
M 947 1747 
Q 947 1113 1208 752 
Q 1469 391 1925 391 
Q 2381 391 2643 752 
Q 2906 1113 2906 1747 
Q 2906 2381 2643 2742 
Q 2381 3103 1925 3103 
Q 1469 3103 1208 2742 
Q 947 2381 947 1747 
z
" transform="scale(0.015625)"/>
      <path id="DejaVuSans-74" d="M 1172 4494 
L 1172 3500 
L 2356 3500 
L 2356 3053 
L 1172 3053 
L 1172 1153 
Q 1172 725 1289 603 
Q 1406 481 1766 481 
L 2356 481 
L 2356 0 
L 1766 0 
Q 1100 0 847 248 
Q 594 497 594 1153 
L 594 3053 
L 172 3053 
L 172 3500 
L 594 3500 
L 594 4494 
L 1172 4494 
z
" transform="scale(0.015625)"/>
      <path id="DejaVuSans-28" d="M 1984 4856 
Q 1566 4138 1362 3434 
Q 1159 2731 1159 2009 
Q 1159 1288 1364 580 
Q 1569 -128 1984 -844 
L 1484 -844 
Q 1016 -109 783 600 
Q 550 1309 550 2009 
Q 550 2706 781 3412 
Q 1013 4119 1484 4856 
L 1984 4856 
z
" transform="scale(0.015625)"/>
      <path id="DejaVuSans-75" d="M 544 1381 
L 544 3500 
L 1119 3500 
L 1119 1403 
Q 1119 906 1312 657 
Q 1506 409 1894 409 
Q 2359 409 2629 706 
Q 2900 1003 2900 1516 
L 2900 3500 
L 3475 3500 
L 3475 0 
L 2900 0 
L 2900 538 
Q 2691 219 2414 64 
Q 2138 -91 1772 -91 
Q 1169 -91 856 284 
Q 544 659 544 1381 
z
M 1991 3584 
L 1991 3584 
z
" transform="scale(0.015625)"/>
      <path id="DejaVuSans-29" d="M 513 4856 
L 1013 4856 
Q 1481 4119 1714 3412 
Q 1947 2706 1947 2009 
Q 1947 1309 1714 600 
Q 1481 -109 1013 -844 
L 513 -844 
Q 928 -128 1133 580 
Q 1338 1288 1338 2009 
Q 1338 2731 1133 3434 
Q 928 4138 513 4856 
z
" transform="scale(0.015625)"/>
     </defs>
     <use xlink:href="#DejaVuSans-54"/>
     <use xlink:href="#DejaVuSans-72" transform="translate(46.333984 0)"/>
     <use xlink:href="#DejaVuSans-61" transform="translate(87.447266 0)"/>
     <use xlink:href="#DejaVuSans-69" transform="translate(148.726562 0)"/>
     <use xlink:href="#DejaVuSans-6e" transform="translate(176.509766 0)"/>
     <use xlink:href="#DejaVuSans-69" transform="translate(239.888672 0)"/>
     <use xlink:href="#DejaVuSans-6e" transform="translate(267.671875 0)"/>
     <use xlink:href="#DejaVuSans-67" transform="translate(331.050781 0)"/>
     <use xlink:href="#DejaVuSans-20" transform="translate(394.527344 0)"/>
     <use xlink:href="#DejaVuSans-76" transform="translate(426.314453 0)"/>
     <use xlink:href="#DejaVuSans-73" transform="translate(485.494141 0)"/>
     <use xlink:href="#DejaVuSans-20" transform="translate(537.59375 0)"/>
     <use xlink:href="#DejaVuSans-56" transform="translate(569.380859 0)"/>
     <use xlink:href="#DejaVuSans-61" transform="translate(630.039062 0)"/>
     <use xlink:href="#DejaVuSans-6c" transform="translate(691.318359 0)"/>
     <use xlink:href="#DejaVuSans-69" transform="translate(719.101562 0)"/>
     <use xlink:href="#DejaVuSans-64" transform="translate(746.884766 0)"/>
     <use xlink:href="#DejaVuSans-61" transform="translate(810.361328 0)"/>
     <use xlink:href="#DejaVuSans-74" transform="translate(871.640625 0)"/>
     <use xlink:href="#DejaVuSans-69" transform="translate(910.849609 0)"/>
     <use xlink:href="#DejaVuSans-6f" transform="translate(938.632812 0)"/>
     <use xlink:href="#DejaVuSans-6e" transform="translate(999.814453 0)"/>
     <use xlink:href="#DejaVuSans-20" transform="translate(1063.193359 0)"/>
     <use xlink:href="#DejaVuSans-4d" transform="translate(1094.980469 0)"/>
     <use xlink:href="#DejaVuSans-41" transform="translate(1181.259766 0)"/>
     <use xlink:href="#DejaVuSans-45" transform="translate(1249.667969 0)"/>
     <use xlink:href="#DejaVuSans-20" transform="translate(1312.851562 0)"/>
     <use xlink:href="#DejaVuSans-28" transform="translate(1344.638672 0)"/>
     <use xlink:href="#DejaVuSans-72" transform="translate(1383.652344 0)"/>
     <use xlink:href="#DejaVuSans-75" transform="translate(1424.765625 0)"/>
     <use xlink:href="#DejaVuSans-6e" transform="translate(1488.144531 0)"/>
     <use xlink:href="#DejaVuSans-6e" transform="translate(1551.523438 0)"/>
     <use xlink:href="#DejaVuSans-69" transform="translate(1614.902344 0)"/>
     <use xlink:href="#DejaVuSans-6e" transform="translate(1642.685547 0)"/>
     <use xlink:href="#DejaVuSans-67" transform="translate(1706.064453 0)"/>
     <use xlink:href="#DejaVuSans-20" transform="translate(1769.541016 0)"/>
     <use xlink:href="#DejaVuSans-61" transform="translate(1801.328125 0)"/>
     <use xlink:href="#DejaVuSans-76" transform="translate(1862.607422 0)"/>
     <use xlink:href="#DejaVuSans-67" transform="translate(1921.787109 0)"/>
     <use xlink:href="#DejaVuSans-29" transform="translate(1985.263672 0)"/>
    </g>
   </g>
   <g id="legend_1">
    <g id="patch_7">
     <path d="M 349.204687 103.874375 
L 511.4 103.874375 
Q 513.4 103.874375 513.4 101.874375 
L 513.4 58.84 
Q 513.4 56.84 511.4 56.84 
L 349.204687 56.84 
Q 347.204687 56.84 347.204687 58.84 
L 347.204687 101.874375 
Q 347.204687 103.874375 349.204687 103.874375 
z
" style="fill: #ffffff; opacity: 0.8; stroke: #cccccc; stroke-linejoin: miter"/>
    </g>
    <g id="line2d_27">
     <path d="M 351.204687 64.938437 
L 361.204687 64.938437 
L 371.204687 64.938437 
" style="fill: none; stroke: #1f77b4; stroke-width: 1.5; stroke-linecap: square"/>
    </g>
    <g id="text_16">
     <!-- Train -->
     <g transform="translate(379.204687 68.438437) scale(0.1 -0.1)">
      <use xlink:href="#DejaVuSans-54"/>
      <use xlink:href="#DejaVuSans-72" transform="translate(46.333984 0)"/>
      <use xlink:href="#DejaVuSans-61" transform="translate(87.447266 0)"/>
      <use xlink:href="#DejaVuSans-69" transform="translate(148.726562 0)"/>
      <use xlink:href="#DejaVuSans-6e" transform="translate(176.509766 0)"/>
     </g>
    </g>
    <g id="line2d_28">
     <path d="M 351.204687 79.616562 
L 361.204687 79.616562 
L 371.204687 79.616562 
" style="fill: none; stroke: #ff7f0e; stroke-width: 1.5; stroke-linecap: square"/>
    </g>
    <g id="text_17">
     <!-- Validation -->
     <g transform="translate(379.204687 83.116562) scale(0.1 -0.1)">
      <use xlink:href="#DejaVuSans-56"/>
      <use xlink:href="#DejaVuSans-61" transform="translate(60.658203 0)"/>
      <use xlink:href="#DejaVuSans-6c" transform="translate(121.9375 0)"/>
      <use xlink:href="#DejaVuSans-69" transform="translate(149.720703 0)"/>
      <use xlink:href="#DejaVuSans-64" transform="translate(177.503906 0)"/>
      <use xlink:href="#DejaVuSans-61" transform="translate(240.980469 0)"/>
      <use xlink:href="#DejaVuSans-74" transform="translate(302.259766 0)"/>
      <use xlink:href="#DejaVuSans-69" transform="translate(341.46875 0)"/>
      <use xlink:href="#DejaVuSans-6f" transform="translate(369.251953 0)"/>
      <use xlink:href="#DejaVuSans-6e" transform="translate(430.433594 0)"/>
     </g>
    </g>
    <g id="line2d_29">
     <path d="M 351.204687 94.294687 
L 371.204687 94.294687 
" style="fill: none; stroke-dasharray: 1.5,2.475; stroke-dashoffset: 0; stroke: #1f77b4; stroke-width: 1.5"/>
    </g>
    <g id="text_18">
     <!-- Test summary MAE: 0.297 -->
     <g transform="translate(379.204687 97.794687) scale(0.1 -0.1)">
      <defs>
       <path id="DejaVuSans-65" d="M 3597 1894 
L 3597 1613 
L 953 1613 
Q 991 1019 1311 708 
Q 1631 397 2203 397 
Q 2534 397 2845 478 
Q 3156 559 3463 722 
L 3463 178 
Q 3153 47 2828 -22 
Q 2503 -91 2169 -91 
Q 1331 -91 842 396 
Q 353 884 353 1716 
Q 353 2575 817 3079 
Q 1281 3584 2069 3584 
Q 2775 3584 3186 3129 
Q 3597 2675 3597 1894 
z
M 3022 2063 
Q 3016 2534 2758 2815 
Q 2500 3097 2075 3097 
Q 1594 3097 1305 2825 
Q 1016 2553 972 2059 
L 3022 2063 
z
" transform="scale(0.015625)"/>
       <path id="DejaVuSans-6d" d="M 3328 2828 
Q 3544 3216 3844 3400 
Q 4144 3584 4550 3584 
Q 5097 3584 5394 3201 
Q 5691 2819 5691 2113 
L 5691 0 
L 5113 0 
L 5113 2094 
Q 5113 2597 4934 2840 
Q 4756 3084 4391 3084 
Q 3944 3084 3684 2787 
Q 3425 2491 3425 1978 
L 3425 0 
L 2847 0 
L 2847 2094 
Q 2847 2600 2669 2842 
Q 2491 3084 2119 3084 
Q 1678 3084 1418 2786 
Q 1159 2488 1159 1978 
L 1159 0 
L 581 0 
L 581 3500 
L 1159 3500 
L 1159 2956 
Q 1356 3278 1631 3431 
Q 1906 3584 2284 3584 
Q 2666 3584 2933 3390 
Q 3200 3197 3328 2828 
z
" transform="scale(0.015625)"/>
       <path id="DejaVuSans-79" d="M 2059 -325 
Q 1816 -950 1584 -1140 
Q 1353 -1331 966 -1331 
L 506 -1331 
L 506 -850 
L 844 -850 
Q 1081 -850 1212 -737 
Q 1344 -625 1503 -206 
L 1606 56 
L 191 3500 
L 800 3500 
L 1894 763 
L 2988 3500 
L 3597 3500 
L 2059 -325 
z
" transform="scale(0.015625)"/>
       <path id="DejaVuSans-3a" d="M 750 794 
L 1409 794 
L 1409 0 
L 750 0 
L 750 794 
z
M 750 3309 
L 1409 3309 
L 1409 2516 
L 750 2516 
L 750 3309 
z
" transform="scale(0.015625)"/>
       <path id="DejaVuSans-39" d="M 703 97 
L 703 672 
Q 941 559 1184 500 
Q 1428 441 1663 441 
Q 2288 441 2617 861 
Q 2947 1281 2994 2138 
Q 2813 1869 2534 1725 
Q 2256 1581 1919 1581 
Q 1219 1581 811 2004 
Q 403 2428 403 3163 
Q 403 3881 828 4315 
Q 1253 4750 1959 4750 
Q 2769 4750 3195 4129 
Q 3622 3509 3622 2328 
Q 3622 1225 3098 567 
Q 2575 -91 1691 -91 
Q 1453 -91 1209 -44 
Q 966 3 703 97 
z
M 1959 2075 
Q 2384 2075 2632 2365 
Q 2881 2656 2881 3163 
Q 2881 3666 2632 3958 
Q 2384 4250 1959 4250 
Q 1534 4250 1286 3958 
Q 1038 3666 1038 3163 
Q 1038 2656 1286 2365 
Q 1534 2075 1959 2075 
z
" transform="scale(0.015625)"/>
       <path id="DejaVuSans-37" d="M 525 4666 
L 3525 4666 
L 3525 4397 
L 1831 0 
L 1172 0 
L 2766 4134 
L 525 4134 
L 525 4666 
z
" transform="scale(0.015625)"/>
      </defs>
      <use xlink:href="#DejaVuSans-54"/>
      <use xlink:href="#DejaVuSans-65" transform="translate(44.083984 0)"/>
      <use xlink:href="#DejaVuSans-73" transform="translate(105.607422 0)"/>
      <use xlink:href="#DejaVuSans-74" transform="translate(157.707031 0)"/>
      <use xlink:href="#DejaVuSans-20" transform="translate(196.916016 0)"/>
      <use xlink:href="#DejaVuSans-73" transform="translate(228.703125 0)"/>
      <use xlink:href="#DejaVuSans-75" transform="translate(280.802734 0)"/>
      <use xlink:href="#DejaVuSans-6d" transform="translate(344.181641 0)"/>
      <use xlink:href="#DejaVuSans-6d" transform="translate(441.59375 0)"/>
      <use xlink:href="#DejaVuSans-61" transform="translate(539.005859 0)"/>
      <use xlink:href="#DejaVuSans-72" transform="translate(600.285156 0)"/>
      <use xlink:href="#DejaVuSans-79" transform="translate(641.398438 0)"/>
      <use xlink:href="#DejaVuSans-20" transform="translate(700.578125 0)"/>
      <use xlink:href="#DejaVuSans-4d" transform="translate(732.365234 0)"/>
      <use xlink:href="#DejaVuSans-41" transform="translate(818.644531 0)"/>
      <use xlink:href="#DejaVuSans-45" transform="translate(887.052734 0)"/>
      <use xlink:href="#DejaVuSans-3a" transform="translate(950.236328 0)"/>
      <use xlink:href="#DejaVuSans-20" transform="translate(983.927734 0)"/>
      <use xlink:href="#DejaVuSans-30" transform="translate(1015.714844 0)"/>
      <use xlink:href="#DejaVuSans-2e" transform="translate(1079.337891 0)"/>
      <use xlink:href="#DejaVuSans-32" transform="translate(1111.125 0)"/>
      <use xlink:href="#DejaVuSans-39" transform="translate(1174.748047 0)"/>
      <use xlink:href="#DejaVuSans-37" transform="translate(1238.371094 0)"/>
     </g>
    </g>
   </g>
  </g>
 </g>
 <defs>
  <clipPath id="p01359b21c9">
   <rect x="72" y="51.84" width="446.4" height="332.64"/>
  </clipPath>
 </defs>
</svg>
