<?xml version="1.0" encoding="utf-8" standalone="no"?>
<!DOCTYPE svg PUBLIC "-//W3C//DTD SVG 1.1//EN"
  "http://www.w3.org/Graphics/SVG/1.1/DTD/svg11.dtd">
<svg xmlns:xlink="http://www.w3.org/1999/xlink" width="610.916875pt" height="395.969687pt" viewBox="0 0 610.916875 395.969687" xmlns="http://www.w3.org/2000/svg" version="1.1">
 <metadata>
  <rdf:RDF xmlns:dc="http://purl.org/dc/elements/1.1/" xmlns:cc="http://creativecommons.org/ns#" xmlns:rdf="http://www.w3.org/1999/02/22-rdf-syntax-ns#">
   <cc:Work>
    <dc:type rdf:resource="http://purl.org/dc/dcmitype/StillImage"/>
    <dc:date>2025-05-23T10:14:09.507595</dc:date>
    <dc:format>image/svg+xml</dc:format>
    <dc:creator>
     <cc:Agent>
      <dc:title>Matplotlib v3.10.0, https://matplotlib.org/</dc:title>
     </cc:Agent>
    </dc:creator>
   </cc:Work>
  </rdf:RDF>
 </metadata>
 <defs>
  <style type="text/css">*{stroke-linejoin: round; stroke-linecap: butt}</style>
 </defs>
 <g id="figure_1">
  <g id="patch_1">
   <path d="M 0 395.969687 
L 610.916875 395.969687 
L 610.916875 0 
L 0 0 
z
" style="fill: #ffffff"/>
  </g>
  <g id="axes_1">
   <g id="patch_2">
    <path d="M 45.716875 356.477812 
L 603.716875 356.477812 
L 603.716875 23.837812 
L 45.716875 23.837812 
z
" style="fill: #ffffff"/>
   </g>
   <g id="matplotlib.axis_1">
    <g id="xtick_1">
     <g id="line2d_1">
      <path d="M 71.080511 356.477812 
L 71.080511 23.837812 
" clip-path="url(#pbc8b9a69c2)" style="fill: none; stroke: #b0b0b0; stroke-opacity: 0.3; stroke-width: 0.8; stroke-linecap: square"/>
     </g>
     <g id="line2d_2">
      <defs>
       <path id="m399bfbf5ac" d="M 0 0 
L 0 3.5 
" style="stroke: #000000; stroke-width: 0.8"/>
      </defs>
      <g>
       <use xlink:href="#m399bfbf5ac" x="71.080511" y="356.477812" style="stroke: #000000; stroke-width: 0.8"/>
      </g>
     </g>
     <g id="text_1">
      <!-- 0 -->
      <g transform="translate(67.899261 371.07625) scale(0.1 -0.1)">
       <defs>
        <path id="DejaVuSans-30" d="M 2034 4250 
Q 1547 4250 1301 3770 
Q 1056 3291 1056 2328 
Q 1056 1369 1301 889 
Q 1547 409 2034 409 
Q 2525 409 2770 889 
Q 3016 1369 3016 2328 
Q 3016 3291 2770 3770 
Q 2525 4250 2034 4250 
z
M 2034 4750 
Q 2819 4750 3233 4129 
Q 3647 3509 3647 2328 
Q 3647 1150 3233 529 
Q 2819 -91 2034 -91 
Q 1250 -91 836 529 
Q 422 1150 422 2328 
Q 422 3509 836 4129 
Q 1250 4750 2034 4750 
z
" transform="scale(0.015625)"/>
       </defs>
       <use xlink:href="#DejaVuSans-30"/>
      </g>
     </g>
    </g>
    <g id="xtick_2">
     <g id="line2d_3">
      <path d="M 155.908727 356.477812 
L 155.908727 23.837812 
" clip-path="url(#pbc8b9a69c2)" style="fill: none; stroke: #b0b0b0; stroke-opacity: 0.3; stroke-width: 0.8; stroke-linecap: square"/>
     </g>
     <g id="line2d_4">
      <g>
       <use xlink:href="#m399bfbf5ac" x="155.908727" y="356.477812" style="stroke: #000000; stroke-width: 0.8"/>
      </g>
     </g>
     <g id="text_2">
      <!-- 50 -->
      <g transform="translate(149.546227 371.07625) scale(0.1 -0.1)">
       <defs>
        <path id="DejaVuSans-35" d="M 691 4666 
L 3169 4666 
L 3169 4134 
L 1269 4134 
L 1269 2991 
Q 1406 3038 1543 3061 
Q 1681 3084 1819 3084 
Q 2600 3084 3056 2656 
Q 3513 2228 3513 1497 
Q 3513 744 3044 326 
Q 2575 -91 1722 -91 
Q 1428 -91 1123 -41 
Q 819 9 494 109 
L 494 744 
Q 775 591 1075 516 
Q 1375 441 1709 441 
Q 2250 441 2565 725 
Q 2881 1009 2881 1497 
Q 2881 1984 2565 2268 
Q 2250 2553 1709 2553 
Q 1456 2553 1204 2497 
Q 953 2441 691 2322 
L 691 4666 
z
" transform="scale(0.015625)"/>
       </defs>
       <use xlink:href="#DejaVuSans-35"/>
       <use xlink:href="#DejaVuSans-30" transform="translate(63.623047 0)"/>
      </g>
     </g>
    </g>
    <g id="xtick_3">
     <g id="line2d_5">
      <path d="M 240.736942 356.477812 
L 240.736942 23.837812 
" clip-path="url(#pbc8b9a69c2)" style="fill: none; stroke: #b0b0b0; stroke-opacity: 0.3; stroke-width: 0.8; stroke-linecap: square"/>
     </g>
     <g id="line2d_6">
      <g>
       <use xlink:href="#m399bfbf5ac" x="240.736942" y="356.477812" style="stroke: #000000; stroke-width: 0.8"/>
      </g>
     </g>
     <g id="text_3">
      <!-- 100 -->
      <g transform="translate(231.193192 371.07625) scale(0.1 -0.1)">
       <defs>
        <path id="DejaVuSans-31" d="M 794 531 
L 1825 531 
L 1825 4091 
L 703 3866 
L 703 4441 
L 1819 4666 
L 2450 4666 
L 2450 531 
L 3481 531 
L 3481 0 
L 794 0 
L 794 531 
z
" transform="scale(0.015625)"/>
       </defs>
       <use xlink:href="#DejaVuSans-31"/>
       <use xlink:href="#DejaVuSans-30" transform="translate(63.623047 0)"/>
       <use xlink:href="#DejaVuSans-30" transform="translate(127.246094 0)"/>
      </g>
     </g>
    </g>
    <g id="xtick_4">
     <g id="line2d_7">
      <path d="M 325.565157 356.477812 
L 325.565157 23.837812 
" clip-path="url(#pbc8b9a69c2)" style="fill: none; stroke: #b0b0b0; stroke-opacity: 0.3; stroke-width: 0.8; stroke-linecap: square"/>
     </g>
     <g id="line2d_8">
      <g>
       <use xlink:href="#m399bfbf5ac" x="325.565157" y="356.477812" style="stroke: #000000; stroke-width: 0.8"/>
      </g>
     </g>
     <g id="text_4">
      <!-- 150 -->
      <g transform="translate(316.021407 371.07625) scale(0.1 -0.1)">
       <use xlink:href="#DejaVuSans-31"/>
       <use xlink:href="#DejaVuSans-35" transform="translate(63.623047 0)"/>
       <use xlink:href="#DejaVuSans-30" transform="translate(127.246094 0)"/>
      </g>
     </g>
    </g>
    <g id="xtick_5">
     <g id="line2d_9">
      <path d="M 410.393372 356.477812 
L 410.393372 23.837812 
" clip-path="url(#pbc8b9a69c2)" style="fill: none; stroke: #b0b0b0; stroke-opacity: 0.3; stroke-width: 0.8; stroke-linecap: square"/>
     </g>
     <g id="line2d_10">
      <g>
       <use xlink:href="#m399bfbf5ac" x="410.393372" y="356.477812" style="stroke: #000000; stroke-width: 0.8"/>
      </g>
     </g>
     <g id="text_5">
      <!-- 200 -->
      <g transform="translate(400.849622 371.07625) scale(0.1 -0.1)">
       <defs>
        <path id="DejaVuSans-32" d="M 1228 531 
L 3431 531 
L 3431 0 
L 469 0 
L 469 531 
Q 828 903 1448 1529 
Q 2069 2156 2228 2338 
Q 2531 2678 2651 2914 
Q 2772 3150 2772 3378 
Q 2772 3750 2511 3984 
Q 2250 4219 1831 4219 
Q 1534 4219 1204 4116 
Q 875 4013 500 3803 
L 500 4441 
Q 881 4594 1212 4672 
Q 1544 4750 1819 4750 
Q 2544 4750 2975 4387 
Q 3406 4025 3406 3419 
Q 3406 3131 3298 2873 
Q 3191 2616 2906 2266 
Q 2828 2175 2409 1742 
Q 1991 1309 1228 531 
z
" transform="scale(0.015625)"/>
       </defs>
       <use xlink:href="#DejaVuSans-32"/>
       <use xlink:href="#DejaVuSans-30" transform="translate(63.623047 0)"/>
       <use xlink:href="#DejaVuSans-30" transform="translate(127.246094 0)"/>
      </g>
     </g>
    </g>
    <g id="xtick_6">
     <g id="line2d_11">
      <path d="M 495.221588 356.477812 
L 495.221588 23.837812 
" clip-path="url(#pbc8b9a69c2)" style="fill: none; stroke: #b0b0b0; stroke-opacity: 0.3; stroke-width: 0.8; stroke-linecap: square"/>
     </g>
     <g id="line2d_12">
      <g>
       <use xlink:href="#m399bfbf5ac" x="495.221588" y="356.477812" style="stroke: #000000; stroke-width: 0.8"/>
      </g>
     </g>
     <g id="text_6">
      <!-- 250 -->
      <g transform="translate(485.677838 371.07625) scale(0.1 -0.1)">
       <use xlink:href="#DejaVuSans-32"/>
       <use xlink:href="#DejaVuSans-35" transform="translate(63.623047 0)"/>
       <use xlink:href="#DejaVuSans-30" transform="translate(127.246094 0)"/>
      </g>
     </g>
    </g>
    <g id="xtick_7">
     <g id="line2d_13">
      <path d="M 580.049803 356.477812 
L 580.049803 23.837812 
" clip-path="url(#pbc8b9a69c2)" style="fill: none; stroke: #b0b0b0; stroke-opacity: 0.3; stroke-width: 0.8; stroke-linecap: square"/>
     </g>
     <g id="line2d_14">
      <g>
       <use xlink:href="#m399bfbf5ac" x="580.049803" y="356.477812" style="stroke: #000000; stroke-width: 0.8"/>
      </g>
     </g>
     <g id="text_7">
      <!-- 300 -->
      <g transform="translate(570.506053 371.07625) scale(0.1 -0.1)">
       <defs>
        <path id="DejaVuSans-33" d="M 2597 2516 
Q 3050 2419 3304 2112 
Q 3559 1806 3559 1356 
Q 3559 666 3084 287 
Q 2609 -91 1734 -91 
Q 1441 -91 1130 -33 
Q 819 25 488 141 
L 488 750 
Q 750 597 1062 519 
Q 1375 441 1716 441 
Q 2309 441 2620 675 
Q 2931 909 2931 1356 
Q 2931 1769 2642 2001 
Q 2353 2234 1838 2234 
L 1294 2234 
L 1294 2753 
L 1863 2753 
Q 2328 2753 2575 2939 
Q 2822 3125 2822 3475 
Q 2822 3834 2567 4026 
Q 2313 4219 1838 4219 
Q 1578 4219 1281 4162 
Q 984 4106 628 3988 
L 628 4550 
Q 988 4650 1302 4700 
Q 1616 4750 1894 4750 
Q 2613 4750 3031 4423 
Q 3450 4097 3450 3541 
Q 3450 3153 3228 2886 
Q 3006 2619 2597 2516 
z
" transform="scale(0.015625)"/>
       </defs>
       <use xlink:href="#DejaVuSans-33"/>
       <use xlink:href="#DejaVuSans-30" transform="translate(63.623047 0)"/>
       <use xlink:href="#DejaVuSans-30" transform="translate(127.246094 0)"/>
      </g>
     </g>
    </g>
    <g id="text_8">
     <!-- Epoch -->
     <g transform="translate(306.34375 386.274062) scale(0.12 -0.12)">
      <defs>
       <path id="DejaVuSans-45" d="M 628 4666 
L 3578 4666 
L 3578 4134 
L 1259 4134 
L 1259 2753 
L 3481 2753 
L 3481 2222 
L 1259 2222 
L 1259 531 
L 3634 531 
L 3634 0 
L 628 0 
L 628 4666 
z
" transform="scale(0.015625)"/>
       <path id="DejaVuSans-70" d="M 1159 525 
L 1159 -1331 
L 581 -1331 
L 581 3500 
L 1159 3500 
L 1159 2969 
Q 1341 3281 1617 3432 
Q 1894 3584 2278 3584 
Q 2916 3584 3314 3078 
Q 3713 2572 3713 1747 
Q 3713 922 3314 415 
Q 2916 -91 2278 -91 
Q 1894 -91 1617 61 
Q 1341 213 1159 525 
z
M 3116 1747 
Q 3116 2381 2855 2742 
Q 2594 3103 2138 3103 
Q 1681 3103 1420 2742 
Q 1159 2381 1159 1747 
Q 1159 1113 1420 752 
Q 1681 391 2138 391 
Q 2594 391 2855 752 
Q 3116 1113 3116 1747 
z
" transform="scale(0.015625)"/>
       <path id="DejaVuSans-6f" d="M 1959 3097 
Q 1497 3097 1228 2736 
Q 959 2375 959 1747 
Q 959 1119 1226 758 
Q 1494 397 1959 397 
Q 2419 397 2687 759 
Q 2956 1122 2956 1747 
Q 2956 2369 2687 2733 
Q 2419 3097 1959 3097 
z
M 1959 3584 
Q 2709 3584 3137 3096 
Q 3566 2609 3566 1747 
Q 3566 888 3137 398 
Q 2709 -91 1959 -91 
Q 1206 -91 779 398 
Q 353 888 353 1747 
Q 353 2609 779 3096 
Q 1206 3584 1959 3584 
z
" transform="scale(0.015625)"/>
       <path id="DejaVuSans-63" d="M 3122 3366 
L 3122 2828 
Q 2878 2963 2633 3030 
Q 2388 3097 2138 3097 
Q 1578 3097 1268 2742 
Q 959 2388 959 1747 
Q 959 1106 1268 751 
Q 1578 397 2138 397 
Q 2388 397 2633 464 
Q 2878 531 3122 666 
L 3122 134 
Q 2881 22 2623 -34 
Q 2366 -91 2075 -91 
Q 1284 -91 818 406 
Q 353 903 353 1747 
Q 353 2603 823 3093 
Q 1294 3584 2113 3584 
Q 2378 3584 2631 3529 
Q 2884 3475 3122 3366 
z
" transform="scale(0.015625)"/>
       <path id="DejaVuSans-68" d="M 3513 2113 
L 3513 0 
L 2938 0 
L 2938 2094 
Q 2938 2591 2744 2837 
Q 2550 3084 2163 3084 
Q 1697 3084 1428 2787 
Q 1159 2491 1159 1978 
L 1159 0 
L 581 0 
L 581 4863 
L 1159 4863 
L 1159 2956 
Q 1366 3272 1645 3428 
Q 1925 3584 2291 3584 
Q 2894 3584 3203 3211 
Q 3513 2838 3513 2113 
z
" transform="scale(0.015625)"/>
      </defs>
      <use xlink:href="#DejaVuSans-45"/>
      <use xlink:href="#DejaVuSans-70" transform="translate(63.183594 0)"/>
      <use xlink:href="#DejaVuSans-6f" transform="translate(126.660156 0)"/>
      <use xlink:href="#DejaVuSans-63" transform="translate(187.841797 0)"/>
      <use xlink:href="#DejaVuSans-68" transform="translate(242.822266 0)"/>
     </g>
    </g>
   </g>
   <g id="matplotlib.axis_2">
    <g id="ytick_1">
     <g id="line2d_15">
      <path d="M 45.716875 313.074459 
L 603.716875 313.074459 
" clip-path="url(#pbc8b9a69c2)" style="fill: none; stroke: #b0b0b0; stroke-opacity: 0.3; stroke-width: 0.8; stroke-linecap: square"/>
     </g>
     <g id="line2d_16">
      <defs>
       <path id="m793a8189c6" d="M 0 0 
L -3.5 0 
" style="stroke: #000000; stroke-width: 0.8"/>
      </defs>
      <g>
       <use xlink:href="#m793a8189c6" x="45.716875" y="313.074459" style="stroke: #000000; stroke-width: 0.8"/>
      </g>
     </g>
     <g id="text_9">
      <!-- 0.1 -->
      <g transform="translate(22.81375 316.873678) scale(0.1 -0.1)">
       <defs>
        <path id="DejaVuSans-2e" d="M 684 794 
L 1344 794 
L 1344 0 
L 684 0 
L 684 794 
z
" transform="scale(0.015625)"/>
       </defs>
       <use xlink:href="#DejaVuSans-30"/>
       <use xlink:href="#DejaVuSans-2e" transform="translate(63.623047 0)"/>
       <use xlink:href="#DejaVuSans-31" transform="translate(95.410156 0)"/>
      </g>
     </g>
    </g>
    <g id="ytick_2">
     <g id="line2d_17">
      <path d="M 45.716875 269.278421 
L 603.716875 269.278421 
" clip-path="url(#pbc8b9a69c2)" style="fill: none; stroke: #b0b0b0; stroke-opacity: 0.3; stroke-width: 0.8; stroke-linecap: square"/>
     </g>
     <g id="line2d_18">
      <g>
       <use xlink:href="#m793a8189c6" x="45.716875" y="269.278421" style="stroke: #000000; stroke-width: 0.8"/>
      </g>
     </g>
     <g id="text_10">
      <!-- 0.2 -->
      <g transform="translate(22.81375 273.077639) scale(0.1 -0.1)">
       <use xlink:href="#DejaVuSans-30"/>
       <use xlink:href="#DejaVuSans-2e" transform="translate(63.623047 0)"/>
       <use xlink:href="#DejaVuSans-32" transform="translate(95.410156 0)"/>
      </g>
     </g>
    </g>
    <g id="ytick_3">
     <g id="line2d_19">
      <path d="M 45.716875 225.482382 
L 603.716875 225.482382 
" clip-path="url(#pbc8b9a69c2)" style="fill: none; stroke: #b0b0b0; stroke-opacity: 0.3; stroke-width: 0.8; stroke-linecap: square"/>
     </g>
     <g id="line2d_20">
      <g>
       <use xlink:href="#m793a8189c6" x="45.716875" y="225.482382" style="stroke: #000000; stroke-width: 0.8"/>
      </g>
     </g>
     <g id="text_11">
      <!-- 0.3 -->
      <g transform="translate(22.81375 229.281601) scale(0.1 -0.1)">
       <use xlink:href="#DejaVuSans-30"/>
       <use xlink:href="#DejaVuSans-2e" transform="translate(63.623047 0)"/>
       <use xlink:href="#DejaVuSans-33" transform="translate(95.410156 0)"/>
      </g>
     </g>
    </g>
    <g id="ytick_4">
     <g id="line2d_21">
      <path d="M 45.716875 181.686343 
L 603.716875 181.686343 
" clip-path="url(#pbc8b9a69c2)" style="fill: none; stroke: #b0b0b0; stroke-opacity: 0.3; stroke-width: 0.8; stroke-linecap: square"/>
     </g>
     <g id="line2d_22">
      <g>
       <use xlink:href="#m793a8189c6" x="45.716875" y="181.686343" style="stroke: #000000; stroke-width: 0.8"/>
      </g>
     </g>
     <g id="text_12">
      <!-- 0.4 -->
      <g transform="translate(22.81375 185.485562) scale(0.1 -0.1)">
       <defs>
        <path id="DejaVuSans-34" d="M 2419 4116 
L 825 1625 
L 2419 1625 
L 2419 4116 
z
M 2253 4666 
L 3047 4666 
L 3047 1625 
L 3713 1625 
L 3713 1100 
L 3047 1100 
L 3047 0 
L 2419 0 
L 2419 1100 
L 313 1100 
L 313 1709 
L 2253 4666 
z
" transform="scale(0.015625)"/>
       </defs>
       <use xlink:href="#DejaVuSans-30"/>
       <use xlink:href="#DejaVuSans-2e" transform="translate(63.623047 0)"/>
       <use xlink:href="#DejaVuSans-34" transform="translate(95.410156 0)"/>
      </g>
     </g>
    </g>
    <g id="ytick_5">
     <g id="line2d_23">
      <path d="M 45.716875 137.890304 
L 603.716875 137.890304 
" clip-path="url(#pbc8b9a69c2)" style="fill: none; stroke: #b0b0b0; stroke-opacity: 0.3; stroke-width: 0.8; stroke-linecap: square"/>
     </g>
     <g id="line2d_24">
      <g>
       <use xlink:href="#m793a8189c6" x="45.716875" y="137.890304" style="stroke: #000000; stroke-width: 0.8"/>
      </g>
     </g>
     <g id="text_13">
      <!-- 0.5 -->
      <g transform="translate(22.81375 141.689523) scale(0.1 -0.1)">
       <use xlink:href="#DejaVuSans-30"/>
       <use xlink:href="#DejaVuSans-2e" transform="translate(63.623047 0)"/>
       <use xlink:href="#DejaVuSans-35" transform="translate(95.410156 0)"/>
      </g>
     </g>
    </g>
    <g id="ytick_6">
     <g id="line2d_25">
      <path d="M 45.716875 94.094265 
L 603.716875 94.094265 
" clip-path="url(#pbc8b9a69c2)" style="fill: none; stroke: #b0b0b0; stroke-opacity: 0.3; stroke-width: 0.8; stroke-linecap: square"/>
     </g>
     <g id="line2d_26">
      <g>
       <use xlink:href="#m793a8189c6" x="45.716875" y="94.094265" style="stroke: #000000; stroke-width: 0.8"/>
      </g>
     </g>
     <g id="text_14">
      <!-- 0.6 -->
      <g transform="translate(22.81375 97.893484) scale(0.1 -0.1)">
       <defs>
        <path id="DejaVuSans-36" d="M 2113 2584 
Q 1688 2584 1439 2293 
Q 1191 2003 1191 1497 
Q 1191 994 1439 701 
Q 1688 409 2113 409 
Q 2538 409 2786 701 
Q 3034 994 3034 1497 
Q 3034 2003 2786 2293 
Q 2538 2584 2113 2584 
z
M 3366 4563 
L 3366 3988 
Q 3128 4100 2886 4159 
Q 2644 4219 2406 4219 
Q 1781 4219 1451 3797 
Q 1122 3375 1075 2522 
Q 1259 2794 1537 2939 
Q 1816 3084 2150 3084 
Q 2853 3084 3261 2657 
Q 3669 2231 3669 1497 
Q 3669 778 3244 343 
Q 2819 -91 2113 -91 
Q 1303 -91 875 529 
Q 447 1150 447 2328 
Q 447 3434 972 4092 
Q 1497 4750 2381 4750 
Q 2619 4750 2861 4703 
Q 3103 4656 3366 4563 
z
" transform="scale(0.015625)"/>
       </defs>
       <use xlink:href="#DejaVuSans-30"/>
       <use xlink:href="#DejaVuSans-2e" transform="translate(63.623047 0)"/>
       <use xlink:href="#DejaVuSans-36" transform="translate(95.410156 0)"/>
      </g>
     </g>
    </g>
    <g id="ytick_7">
     <g id="line2d_27">
      <path d="M 45.716875 50.298226 
L 603.716875 50.298226 
" clip-path="url(#pbc8b9a69c2)" style="fill: none; stroke: #b0b0b0; stroke-opacity: 0.3; stroke-width: 0.8; stroke-linecap: square"/>
     </g>
     <g id="line2d_28">
      <g>
       <use xlink:href="#m793a8189c6" x="45.716875" y="50.298226" style="stroke: #000000; stroke-width: 0.8"/>
      </g>
     </g>
     <g id="text_15">
      <!-- 0.7 -->
      <g transform="translate(22.81375 54.097445) scale(0.1 -0.1)">
       <defs>
        <path id="DejaVuSans-37" d="M 525 4666 
L 3525 4666 
L 3525 4397 
L 1831 0 
L 1172 0 
L 2766 4134 
L 525 4134 
L 525 4666 
z
" transform="scale(0.015625)"/>
       </defs>
       <use xlink:href="#DejaVuSans-30"/>
       <use xlink:href="#DejaVuSans-2e" transform="translate(63.623047 0)"/>
       <use xlink:href="#DejaVuSans-37" transform="translate(95.410156 0)"/>
      </g>
     </g>
    </g>
    <g id="text_16">
     <!-- Loss -->
     <g transform="translate(16.318125 203.318437) rotate(-90) scale(0.12 -0.12)">
      <defs>
       <path id="DejaVuSans-4c" d="M 628 4666 
L 1259 4666 
L 1259 531 
L 3531 531 
L 3531 0 
L 628 0 
L 628 4666 
z
" transform="scale(0.015625)"/>
       <path id="DejaVuSans-73" d="M 2834 3397 
L 2834 2853 
Q 2591 2978 2328 3040 
Q 2066 3103 1784 3103 
Q 1356 3103 1142 2972 
Q 928 2841 928 2578 
Q 928 2378 1081 2264 
Q 1234 2150 1697 2047 
L 1894 2003 
Q 2506 1872 2764 1633 
Q 3022 1394 3022 966 
Q 3022 478 2636 193 
Q 2250 -91 1575 -91 
Q 1294 -91 989 -36 
Q 684 19 347 128 
L 347 722 
Q 666 556 975 473 
Q 1284 391 1588 391 
Q 1994 391 2212 530 
Q 2431 669 2431 922 
Q 2431 1156 2273 1281 
Q 2116 1406 1581 1522 
L 1381 1569 
Q 847 1681 609 1914 
Q 372 2147 372 2553 
Q 372 3047 722 3315 
Q 1072 3584 1716 3584 
Q 2034 3584 2315 3537 
Q 2597 3491 2834 3397 
z
" transform="scale(0.015625)"/>
      </defs>
      <use xlink:href="#DejaVuSans-4c"/>
      <use xlink:href="#DejaVuSans-6f" transform="translate(53.962891 0)"/>
      <use xlink:href="#DejaVuSans-73" transform="translate(115.144531 0)"/>
      <use xlink:href="#DejaVuSans-73" transform="translate(167.244141 0)"/>
     </g>
    </g>
   </g>
   <g id="line2d_29">
    <path d="M 71.080511 38.957812 
L 72.777076 115.988064 
L 74.47364 150.595113 
L 76.170204 164.215803 
L 77.866769 180.513346 
L 79.563333 191.721943 
L 81.259897 198.576777 
L 82.956462 206.943853 
L 84.653026 211.613619 
L 86.34959 218.958079 
L 88.046154 227.143006 
L 89.742719 232.193091 
L 93.135847 243.411663 
L 94.832412 248.096952 
L 96.528976 251.398405 
L 98.22554 257.42455 
L 99.922105 262.847007 
L 101.618669 267.269214 
L 103.315233 268.499808 
L 105.011797 271.97473 
L 106.708362 277.643529 
L 108.404926 279.254726 
L 110.10149 282.142994 
L 111.798055 282.286864 
L 113.494619 286.573669 
L 115.191183 288.706524 
L 116.887748 291.904138 
L 118.584312 290.930666 
L 120.280876 293.855866 
L 121.977441 295.788892 
L 123.674005 296.585982 
L 125.370569 298.477148 
L 127.067133 299.188234 
L 128.763698 299.574213 
L 130.460262 301.026093 
L 132.156826 301.524242 
L 133.853391 300.699082 
L 135.549955 305.545101 
L 137.246519 305.589152 
L 138.943084 305.885381 
L 140.639648 307.118349 
L 142.336212 307.805188 
L 144.032776 309.132508 
L 145.729341 308.733733 
L 147.425905 309.089633 
L 149.122469 308.995253 
L 150.819034 310.728568 
L 152.515598 311.885005 
L 154.212162 312.121844 
L 155.908727 313.474218 
L 157.605291 313.622719 
L 159.301855 313.219188 
L 160.99842 314.293344 
L 162.694984 315.943611 
L 164.391548 314.587967 
L 166.088112 316.100739 
L 167.784677 315.999153 
L 169.481241 317.204566 
L 171.177805 316.75252 
L 172.87437 317.26965 
L 174.570934 317.338256 
L 176.267498 317.812564 
L 177.964063 319.066178 
L 179.660627 318.058834 
L 181.357191 319.349759 
L 183.053756 319.565468 
L 184.75032 318.601415 
L 186.446884 319.812935 
L 188.143448 319.642147 
L 189.840013 320.054932 
L 191.536577 321.132487 
L 193.233141 321.333875 
L 196.62627 321.253841 
L 200.019399 322.941439 
L 201.715963 322.564029 
L 203.412527 321.519424 
L 205.109091 322.935705 
L 206.805656 323.010996 
L 208.50222 324.533207 
L 210.198784 323.38471 
L 213.591913 324.391061 
L 215.288477 323.754198 
L 216.985042 325.803739 
L 218.681606 324.944227 
L 220.37817 324.921713 
L 222.074735 325.42799 
L 223.771299 324.976718 
L 225.467863 325.957063 
L 227.164427 326.617316 
L 228.860992 327.129336 
L 230.557556 326.290843 
L 232.25412 326.473891 
L 233.950685 325.655423 
L 235.647249 325.772318 
L 237.343813 327.248225 
L 239.040378 326.899375 
L 240.736942 327.458057 
L 242.433506 327.613407 
L 244.130071 327.555541 
L 245.826635 328.10108 
L 247.523199 327.98926 
L 249.219763 328.385142 
L 250.916328 328.392378 
L 252.612892 329.28833 
L 254.309456 329.2271 
L 256.006021 327.625651 
L 257.702585 328.737645 
L 259.399149 328.685922 
L 261.095714 329.250905 
L 262.792278 329.279031 
L 264.488842 329.672641 
L 266.185406 329.078133 
L 267.881971 330.062882 
L 272.971664 330.086018 
L 274.668228 329.614149 
L 276.364792 329.530518 
L 278.061357 329.767903 
L 279.757921 330.353913 
L 281.454485 330.234476 
L 283.15105 330.650981 
L 284.847614 330.929435 
L 286.544178 330.619618 
L 288.240742 330.599535 
L 289.937307 331.857051 
L 291.633871 330.918543 
L 293.330435 331.815151 
L 295.027 331.560437 
L 296.723564 332.20728 
L 298.420128 332.157911 
L 300.116693 331.583144 
L 303.509821 331.762172 
L 305.206385 332.115784 
L 306.90295 332.159038 
L 308.599514 332.320277 
L 310.296078 332.332796 
L 311.992643 332.859294 
L 313.689207 332.414852 
L 315.385771 332.742155 
L 317.082336 332.407928 
L 318.7789 332.278732 
L 320.475464 333.152447 
L 322.172029 333.790399 
L 323.868593 333.40311 
L 325.565157 333.590095 
L 327.261721 332.911675 
L 328.958286 333.41707 
L 330.65485 332.729619 
L 332.351414 333.416242 
L 334.047979 333.947028 
L 335.744543 333.616456 
L 337.441107 334.16947 
L 339.137672 333.812408 
L 344.227365 334.562322 
L 345.923929 334.099721 
L 347.620493 334.619339 
L 349.317057 334.738083 
L 352.710186 333.719493 
L 354.40675 333.805455 
L 356.103315 334.821014 
L 357.799879 334.707616 
L 359.496443 334.434662 
L 361.193008 334.900059 
L 364.586136 334.928435 
L 366.2827 334.569134 
L 367.979265 334.553874 
L 369.675829 334.236664 
L 371.372393 335.507444 
L 373.068958 335.280454 
L 374.765522 335.176372 
L 376.462086 335.639369 
L 378.158651 335.090173 
L 379.855215 335.859713 
L 381.551779 335.77136 
L 383.248344 335.136518 
L 384.944908 335.701144 
L 386.641472 335.406119 
L 388.338036 336.334635 
L 390.034601 336.618671 
L 391.731165 336.456873 
L 393.427729 336.045471 
L 395.124294 336.334249 
L 398.517422 336.352678 
L 400.213987 336.058613 
L 401.910551 336.8515 
L 403.607115 336.350393 
L 405.303679 337.109316 
L 407.000244 336.991868 
L 408.696808 337.331925 
L 410.393372 336.249154 
L 412.089937 335.64292 
L 413.786501 336.698202 
L 417.17963 336.833735 
L 418.876194 337.044692 
L 420.572758 337.515953 
L 422.269323 337.53204 
L 423.965887 337.000563 
L 425.662451 337.747783 
L 427.359015 337.957377 
L 429.05558 338.009261 
L 430.752144 337.908277 
L 432.448708 337.989105 
L 434.145273 337.624591 
L 435.841837 337.772048 
L 437.538401 337.635446 
L 439.234966 338.190055 
L 440.93153 337.269309 
L 442.628094 337.884167 
L 444.324659 337.827393 
L 446.021223 337.330603 
L 447.717787 338.128606 
L 449.414351 337.785077 
L 451.110916 338.031564 
L 452.80748 338.753666 
L 454.504044 337.61125 
L 456.200609 338.591296 
L 457.897173 338.358267 
L 459.593737 338.481326 
L 461.290302 338.476519 
L 462.986866 338.908343 
L 464.68343 338.182042 
L 466.379994 338.750058 
L 468.076559 337.554382 
L 469.773123 339.221701 
L 471.469687 338.309218 
L 473.166252 338.917642 
L 474.862816 338.889678 
L 476.55938 338.476381 
L 478.255945 339.239436 
L 481.649073 338.865263 
L 483.345638 338.816406 
L 485.042202 338.996339 
L 486.738766 338.831444 
L 488.43533 339.022891 
L 490.131895 339.725583 
L 491.828459 339.051382 
L 493.525023 338.937843 
L 495.221588 339.604761 
L 496.918152 339.402568 
L 498.614716 339.373435 
L 500.311281 338.915922 
L 502.007845 339.495194 
L 503.704409 339.580942 
L 505.400974 339.535125 
L 507.097538 339.188565 
L 508.794102 339.411546 
L 510.490666 340.015359 
L 512.187231 339.401488 
L 513.883795 339.107912 
L 517.276924 339.85537 
L 518.973488 339.842928 
L 520.670052 340.153078 
L 522.366617 339.690065 
L 524.063181 339.595894 
L 525.759745 339.822691 
L 527.456309 339.525599 
L 529.152874 340.098993 
L 534.242567 340.551341 
L 537.635695 340.025617 
L 541.028824 340.026658 
L 542.725388 340.040916 
L 544.421953 340.375912 
L 546.118517 340.351363 
L 547.815081 339.578712 
L 549.511645 340.221276 
L 551.20821 340.263228 
L 552.904774 340.591213 
L 554.601338 340.789068 
L 557.994467 340.516837 
L 559.691031 340.508323 
L 561.387596 340.776129 
L 563.08416 340.527935 
L 564.780724 340.545874 
L 566.477288 340.311555 
L 568.173853 340.863682 
L 569.870417 340.913556 
L 571.566981 340.401289 
L 574.96011 341.357812 
L 576.656674 340.639875 
L 578.353239 340.27957 
L 578.353239 340.27957 
" clip-path="url(#pbc8b9a69c2)" style="fill: none; stroke: #0000ff; stroke-width: 2; stroke-linecap: square"/>
   </g>
   <g id="line2d_30">
    <path d="M 71.080511 87.584665 
L 72.777076 158.948825 
L 74.47364 175.406171 
L 76.170204 178.69266 
L 79.563333 196.329135 
L 81.259897 194.919416 
L 82.956462 208.818517 
L 84.653026 199.160994 
L 86.34959 208.099715 
L 88.046154 213.965697 
L 89.742719 213.84527 
L 91.439283 205.907361 
L 93.135847 211.908802 
L 94.832412 219.842107 
L 98.22554 213.530288 
L 99.922105 221.801826 
L 101.618669 218.410658 
L 103.315233 217.651279 
L 105.011797 219.164263 
L 106.708362 224.496056 
L 108.404926 220.952802 
L 110.10149 222.429546 
L 111.798055 224.451722 
L 113.494619 225.635702 
L 115.191183 222.684384 
L 116.887748 220.76616 
L 118.584312 213.030717 
L 120.280876 229.63487 
L 121.977441 224.12391 
L 123.674005 225.199944 
L 125.370569 226.839497 
L 128.763698 220.806861 
L 130.460262 229.989319 
L 132.156826 224.211418 
L 133.853391 227.22414 
L 135.549955 228.345964 
L 137.246519 228.713039 
L 138.943084 228.599409 
L 140.639648 221.627222 
L 142.336212 230.510983 
L 144.032776 229.298781 
L 145.729341 225.54327 
L 147.425905 228.569724 
L 149.122469 225.661913 
L 150.819034 231.967361 
L 152.515598 231.346262 
L 154.212162 229.073641 
L 155.908727 228.942899 
L 157.605291 228.158357 
L 159.301855 226.308595 
L 160.99842 232.25464 
L 162.694984 224.804782 
L 164.391548 231.168679 
L 166.088112 223.455583 
L 169.481241 232.081657 
L 171.177805 227.196916 
L 172.87437 227.390034 
L 174.570934 233.091571 
L 176.267498 232.219058 
L 177.964063 227.9975 
L 179.660627 226.271395 
L 181.357191 231.929741 
L 183.053756 234.019316 
L 184.75032 231.560633 
L 188.143448 232.588855 
L 191.536577 233.420445 
L 193.233141 234.687751 
L 194.929706 232.581141 
L 196.62627 232.063921 
L 198.322834 231.390792 
L 200.019399 229.793359 
L 201.715963 231.035691 
L 203.412527 233.126885 
L 205.109091 233.215531 
L 206.805656 230.429927 
L 208.50222 233.162911 
L 210.198784 231.167703 
L 211.895349 231.740894 
L 213.591913 232.442917 
L 215.288477 232.835363 
L 216.985042 235.154385 
L 218.681606 231.520901 
L 220.37817 231.710153 
L 223.771299 233.223907 
L 225.467863 233.827734 
L 227.164427 232.200227 
L 228.860992 233.490853 
L 230.557556 231.760211 
L 232.25412 233.824623 
L 233.950685 235.42763 
L 235.647249 232.67123 
L 237.343813 233.219901 
L 239.040378 229.272554 
L 240.736942 232.012433 
L 242.433506 233.338355 
L 244.130071 235.453326 
L 245.826635 235.255047 
L 247.523199 232.572563 
L 249.219763 234.146226 
L 250.916328 232.241856 
L 252.612892 236.179977 
L 254.309456 234.774897 
L 256.006021 235.369567 
L 257.702585 234.73621 
L 259.399149 233.78688 
L 261.095714 234.978298 
L 262.792278 232.634506 
L 264.488842 231.858694 
L 266.185406 234.906455 
L 267.881971 235.025727 
L 269.578535 232.690548 
L 271.275099 235.252269 
L 272.971664 230.095375 
L 274.668228 234.039169 
L 276.364792 234.423323 
L 278.061357 232.977014 
L 279.757921 231.969867 
L 281.454485 233.488441 
L 283.15105 233.472805 
L 284.847614 234.594295 
L 289.937307 236.096423 
L 291.633871 234.804522 
L 293.330435 235.25322 
L 295.027 235.445766 
L 296.723564 235.248061 
L 298.420128 234.084714 
L 300.116693 235.886857 
L 301.813257 236.094209 
L 303.509821 235.404633 
L 305.206385 235.917692 
L 306.90295 234.548222 
L 308.599514 235.462721 
L 310.296078 235.624007 
L 311.992643 233.708523 
L 317.082336 234.748288 
L 318.7789 234.100038 
L 320.475464 233.763507 
L 322.172029 234.165618 
L 323.868593 236.337726 
L 325.565157 236.176777 
L 327.261721 234.753281 
L 328.958286 236.441569 
L 330.65485 237.255766 
L 332.351414 236.453765 
L 334.047979 236.205168 
L 335.744543 236.560002 
L 337.441107 237.169133 
L 339.137672 236.72465 
L 340.834236 237.291516 
L 342.5308 237.229971 
L 344.227365 236.534384 
L 345.923929 236.237192 
L 347.620493 235.765072 
L 349.317057 237.399044 
L 351.013622 236.293985 
L 352.710186 236.590091 
L 354.40675 233.157676 
L 356.103315 234.305368 
L 357.799879 237.858325 
L 359.496443 234.891339 
L 361.193008 235.528014 
L 362.889572 235.403405 
L 366.2827 237.665707 
L 367.979265 238.102194 
L 369.675829 237.824257 
L 371.372393 237.119702 
L 374.765522 237.69522 
L 376.462086 237.249253 
L 378.158651 236.509604 
L 379.855215 236.095365 
L 381.551779 234.433559 
L 383.248344 237.10132 
L 384.944908 237.395994 
L 386.641472 234.76212 
L 388.338036 234.546306 
L 390.034601 236.758629 
L 391.731165 235.308592 
L 393.427729 236.182534 
L 395.124294 237.956659 
L 396.820858 234.776756 
L 398.517422 236.451117 
L 400.213987 236.850869 
L 401.910551 236.038851 
L 403.607115 236.30018 
L 405.303679 235.84551 
L 407.000244 236.414132 
L 408.696808 234.762878 
L 410.393372 235.806838 
L 412.089937 235.132065 
L 413.786501 237.443414 
L 415.483065 237.070919 
L 417.17963 237.743843 
L 418.876194 237.837981 
L 420.572758 236.491436 
L 422.269323 237.57502 
L 425.662451 236.313619 
L 427.359015 237.808829 
L 429.05558 237.294313 
L 430.752144 237.127962 
L 432.448708 237.385637 
L 434.145273 236.453609 
L 435.841837 238.142614 
L 437.538401 236.536887 
L 439.234966 238.165196 
L 440.93153 237.485111 
L 442.628094 237.17647 
L 444.324659 236.287917 
L 446.021223 237.569597 
L 447.717787 237.98842 
L 449.414351 237.233469 
L 451.110916 238.761678 
L 452.80748 238.01195 
L 454.504044 236.463044 
L 456.200609 237.664139 
L 457.897173 235.31447 
L 459.593737 237.427371 
L 461.290302 237.164564 
L 462.986866 238.161549 
L 464.68343 236.695482 
L 466.379994 237.737494 
L 468.076559 237.907418 
L 469.773123 236.231051 
L 471.469687 234.920655 
L 473.166252 237.034667 
L 474.862816 233.927036 
L 476.55938 237.019376 
L 478.255945 237.134577 
L 479.952509 238.048815 
L 481.649073 236.073283 
L 483.345638 237.82255 
L 485.042202 236.724055 
L 486.738766 237.494826 
L 488.43533 238.860139 
L 490.131895 238.250106 
L 491.828459 238.643445 
L 493.525023 235.582803 
L 495.221588 238.725606 
L 496.918152 237.885849 
L 498.614716 237.276242 
L 500.311281 238.352538 
L 502.007845 238.253074 
L 503.704409 237.636281 
L 505.400974 239.211042 
L 507.097538 236.770678 
L 508.794102 238.395996 
L 510.490666 235.656927 
L 512.187231 237.71876 
L 513.883795 237.835617 
L 515.580359 236.901337 
L 517.276924 236.536782 
L 518.973488 236.446244 
L 522.366617 235.66035 
L 524.063181 237.574516 
L 525.759745 236.550366 
L 527.456309 237.18503 
L 529.152874 238.489501 
L 530.849438 236.034451 
L 532.546002 237.616948 
L 534.242567 238.248461 
L 537.635695 238.894315 
L 539.33226 236.401507 
L 541.028824 237.289019 
L 542.725388 237.352515 
L 544.421953 237.603879 
L 546.118517 237.283135 
L 547.815081 238.034756 
L 549.511645 237.642612 
L 551.20821 236.847932 
L 552.904774 237.553954 
L 554.601338 236.838565 
L 556.297903 238.772723 
L 557.994467 238.005922 
L 559.691031 236.86096 
L 561.387596 237.538399 
L 563.08416 235.857068 
L 564.780724 236.793969 
L 566.477288 235.345091 
L 568.173853 237.811877 
L 569.870417 235.647356 
L 571.566981 237.508671 
L 573.263546 237.311927 
L 576.656674 234.894992 
L 578.353239 238.592619 
L 578.353239 238.592619 
" clip-path="url(#pbc8b9a69c2)" style="fill: none; stroke: #ffa500; stroke-width: 2; stroke-linecap: square"/>
   </g>
   <g id="patch_3">
    <path d="M 45.716875 356.477812 
L 45.716875 23.837812 
" style="fill: none; stroke: #000000; stroke-width: 0.8; stroke-linejoin: miter; stroke-linecap: square"/>
   </g>
   <g id="patch_4">
    <path d="M 603.716875 356.477812 
L 603.716875 23.837812 
" style="fill: none; stroke: #000000; stroke-width: 0.8; stroke-linejoin: miter; stroke-linecap: square"/>
   </g>
   <g id="patch_5">
    <path d="M 45.716875 356.477812 
L 603.716875 356.477812 
" style="fill: none; stroke: #000000; stroke-width: 0.8; stroke-linejoin: miter; stroke-linecap: square"/>
   </g>
   <g id="patch_6">
    <path d="M 45.716875 23.837812 
L 603.716875 23.837812 
" style="fill: none; stroke: #000000; stroke-width: 0.8; stroke-linejoin: miter; stroke-linecap: square"/>
   </g>
   <g id="text_17">
    <!-- Training vs Validation Loss - ALIGNN -->
    <g transform="translate(199.089844 17.837812) scale(0.14 -0.14)">
     <defs>
      <path id="DejaVuSans-54" d="M -19 4666 
L 3928 4666 
L 3928 4134 
L 2272 4134 
L 2272 0 
L 1638 0 
L 1638 4134 
L -19 4134 
L -19 4666 
z
" transform="scale(0.015625)"/>
      <path id="DejaVuSans-72" d="M 2631 2963 
Q 2534 3019 2420 3045 
Q 2306 3072 2169 3072 
Q 1681 3072 1420 2755 
Q 1159 2438 1159 1844 
L 1159 0 
L 581 0 
L 581 3500 
L 1159 3500 
L 1159 2956 
Q 1341 3275 1631 3429 
Q 1922 3584 2338 3584 
Q 2397 3584 2469 3576 
Q 2541 3569 2628 3553 
L 2631 2963 
z
" transform="scale(0.015625)"/>
      <path id="DejaVuSans-61" d="M 2194 1759 
Q 1497 1759 1228 1600 
Q 959 1441 959 1056 
Q 959 750 1161 570 
Q 1363 391 1709 391 
Q 2188 391 2477 730 
Q 2766 1069 2766 1631 
L 2766 1759 
L 2194 1759 
z
M 3341 1997 
L 3341 0 
L 2766 0 
L 2766 531 
Q 2569 213 2275 61 
Q 1981 -91 1556 -91 
Q 1019 -91 701 211 
Q 384 513 384 1019 
Q 384 1609 779 1909 
Q 1175 2209 1959 2209 
L 2766 2209 
L 2766 2266 
Q 2766 2663 2505 2880 
Q 2244 3097 1772 3097 
Q 1472 3097 1187 3025 
Q 903 2953 641 2809 
L 641 3341 
Q 956 3463 1253 3523 
Q 1550 3584 1831 3584 
Q 2591 3584 2966 3190 
Q 3341 2797 3341 1997 
z
" transform="scale(0.015625)"/>
      <path id="DejaVuSans-69" d="M 603 3500 
L 1178 3500 
L 1178 0 
L 603 0 
L 603 3500 
z
M 603 4863 
L 1178 4863 
L 1178 4134 
L 603 4134 
L 603 4863 
z
" transform="scale(0.015625)"/>
      <path id="DejaVuSans-6e" d="M 3513 2113 
L 3513 0 
L 2938 0 
L 2938 2094 
Q 2938 2591 2744 2837 
Q 2550 3084 2163 3084 
Q 1697 3084 1428 2787 
Q 1159 2491 1159 1978 
L 1159 0 
L 581 0 
L 581 3500 
L 1159 3500 
L 1159 2956 
Q 1366 3272 1645 3428 
Q 1925 3584 2291 3584 
Q 2894 3584 3203 3211 
Q 3513 2838 3513 2113 
z
" transform="scale(0.015625)"/>
      <path id="DejaVuSans-67" d="M 2906 1791 
Q 2906 2416 2648 2759 
Q 2391 3103 1925 3103 
Q 1463 3103 1205 2759 
Q 947 2416 947 1791 
Q 947 1169 1205 825 
Q 1463 481 1925 481 
Q 2391 481 2648 825 
Q 2906 1169 2906 1791 
z
M 3481 434 
Q 3481 -459 3084 -895 
Q 2688 -1331 1869 -1331 
Q 1566 -1331 1297 -1286 
Q 1028 -1241 775 -1147 
L 775 -588 
Q 1028 -725 1275 -790 
Q 1522 -856 1778 -856 
Q 2344 -856 2625 -561 
Q 2906 -266 2906 331 
L 2906 616 
Q 2728 306 2450 153 
Q 2172 0 1784 0 
Q 1141 0 747 490 
Q 353 981 353 1791 
Q 353 2603 747 3093 
Q 1141 3584 1784 3584 
Q 2172 3584 2450 3431 
Q 2728 3278 2906 2969 
L 2906 3500 
L 3481 3500 
L 3481 434 
z
" transform="scale(0.015625)"/>
      <path id="DejaVuSans-20" transform="scale(0.015625)"/>
      <path id="DejaVuSans-76" d="M 191 3500 
L 800 3500 
L 1894 563 
L 2988 3500 
L 3597 3500 
L 2284 0 
L 1503 0 
L 191 3500 
z
" transform="scale(0.015625)"/>
      <path id="DejaVuSans-56" d="M 1831 0 
L 50 4666 
L 709 4666 
L 2188 738 
L 3669 4666 
L 4325 4666 
L 2547 0 
L 1831 0 
z
" transform="scale(0.015625)"/>
      <path id="DejaVuSans-6c" d="M 603 4863 
L 1178 4863 
L 1178 0 
L 603 0 
L 603 4863 
z
" transform="scale(0.015625)"/>
      <path id="DejaVuSans-64" d="M 2906 2969 
L 2906 4863 
L 3481 4863 
L 3481 0 
L 2906 0 
L 2906 525 
Q 2725 213 2448 61 
Q 2172 -91 1784 -91 
Q 1150 -91 751 415 
Q 353 922 353 1747 
Q 353 2572 751 3078 
Q 1150 3584 1784 3584 
Q 2172 3584 2448 3432 
Q 2725 3281 2906 2969 
z
M 947 1747 
Q 947 1113 1208 752 
Q 1469 391 1925 391 
Q 2381 391 2643 752 
Q 2906 1113 2906 1747 
Q 2906 2381 2643 2742 
Q 2381 3103 1925 3103 
Q 1469 3103 1208 2742 
Q 947 2381 947 1747 
z
" transform="scale(0.015625)"/>
      <path id="DejaVuSans-74" d="M 1172 4494 
L 1172 3500 
L 2356 3500 
L 2356 3053 
L 1172 3053 
L 1172 1153 
Q 1172 725 1289 603 
Q 1406 481 1766 481 
L 2356 481 
L 2356 0 
L 1766 0 
Q 1100 0 847 248 
Q 594 497 594 1153 
L 594 3053 
L 172 3053 
L 172 3500 
L 594 3500 
L 594 4494 
L 1172 4494 
z
" transform="scale(0.015625)"/>
      <path id="DejaVuSans-2d" d="M 313 2009 
L 1997 2009 
L 1997 1497 
L 313 1497 
L 313 2009 
z
" transform="scale(0.015625)"/>
      <path id="DejaVuSans-41" d="M 2188 4044 
L 1331 1722 
L 3047 1722 
L 2188 4044 
z
M 1831 4666 
L 2547 4666 
L 4325 0 
L 3669 0 
L 3244 1197 
L 1141 1197 
L 716 0 
L 50 0 
L 1831 4666 
z
" transform="scale(0.015625)"/>
      <path id="DejaVuSans-49" d="M 628 4666 
L 1259 4666 
L 1259 0 
L 628 0 
L 628 4666 
z
" transform="scale(0.015625)"/>
      <path id="DejaVuSans-47" d="M 3809 666 
L 3809 1919 
L 2778 1919 
L 2778 2438 
L 4434 2438 
L 4434 434 
Q 4069 175 3628 42 
Q 3188 -91 2688 -91 
Q 1594 -91 976 548 
Q 359 1188 359 2328 
Q 359 3472 976 4111 
Q 1594 4750 2688 4750 
Q 3144 4750 3555 4637 
Q 3966 4525 4313 4306 
L 4313 3634 
Q 3963 3931 3569 4081 
Q 3175 4231 2741 4231 
Q 1884 4231 1454 3753 
Q 1025 3275 1025 2328 
Q 1025 1384 1454 906 
Q 1884 428 2741 428 
Q 3075 428 3337 486 
Q 3600 544 3809 666 
z
" transform="scale(0.015625)"/>
      <path id="DejaVuSans-4e" d="M 628 4666 
L 1478 4666 
L 3547 763 
L 3547 4666 
L 4159 4666 
L 4159 0 
L 3309 0 
L 1241 3903 
L 1241 0 
L 628 0 
L 628 4666 
z
" transform="scale(0.015625)"/>
     </defs>
     <use xlink:href="#DejaVuSans-54"/>
     <use xlink:href="#DejaVuSans-72" transform="translate(46.333984 0)"/>
     <use xlink:href="#DejaVuSans-61" transform="translate(87.447266 0)"/>
     <use xlink:href="#DejaVuSans-69" transform="translate(148.726562 0)"/>
     <use xlink:href="#DejaVuSans-6e" transform="translate(176.509766 0)"/>
     <use xlink:href="#DejaVuSans-69" transform="translate(239.888672 0)"/>
     <use xlink:href="#DejaVuSans-6e" transform="translate(267.671875 0)"/>
     <use xlink:href="#DejaVuSans-67" transform="translate(331.050781 0)"/>
     <use xlink:href="#DejaVuSans-20" transform="translate(394.527344 0)"/>
     <use xlink:href="#DejaVuSans-76" transform="translate(426.314453 0)"/>
     <use xlink:href="#DejaVuSans-73" transform="translate(485.494141 0)"/>
     <use xlink:href="#DejaVuSans-20" transform="translate(537.59375 0)"/>
     <use xlink:href="#DejaVuSans-56" transform="translate(569.380859 0)"/>
     <use xlink:href="#DejaVuSans-61" transform="translate(630.039062 0)"/>
     <use xlink:href="#DejaVuSans-6c" transform="translate(691.318359 0)"/>
     <use xlink:href="#DejaVuSans-69" transform="translate(719.101562 0)"/>
     <use xlink:href="#DejaVuSans-64" transform="translate(746.884766 0)"/>
     <use xlink:href="#DejaVuSans-61" transform="translate(810.361328 0)"/>
     <use xlink:href="#DejaVuSans-74" transform="translate(871.640625 0)"/>
     <use xlink:href="#DejaVuSans-69" transform="translate(910.849609 0)"/>
     <use xlink:href="#DejaVuSans-6f" transform="translate(938.632812 0)"/>
     <use xlink:href="#DejaVuSans-6e" transform="translate(999.814453 0)"/>
     <use xlink:href="#DejaVuSans-20" transform="translate(1063.193359 0)"/>
     <use xlink:href="#DejaVuSans-4c" transform="translate(1094.980469 0)"/>
     <use xlink:href="#DejaVuSans-6f" transform="translate(1148.943359 0)"/>
     <use xlink:href="#DejaVuSans-73" transform="translate(1210.125 0)"/>
     <use xlink:href="#DejaVuSans-73" transform="translate(1262.224609 0)"/>
     <use xlink:href="#DejaVuSans-20" transform="translate(1314.324219 0)"/>
     <use xlink:href="#DejaVuSans-2d" transform="translate(1346.111328 0)"/>
     <use xlink:href="#DejaVuSans-20" transform="translate(1382.195312 0)"/>
     <use xlink:href="#DejaVuSans-41" transform="translate(1413.982422 0)"/>
     <use xlink:href="#DejaVuSans-4c" transform="translate(1482.390625 0)"/>
     <use xlink:href="#DejaVuSans-49" transform="translate(1538.103516 0)"/>
     <use xlink:href="#DejaVuSans-47" transform="translate(1567.595703 0)"/>
     <use xlink:href="#DejaVuSans-4e" transform="translate(1645.085938 0)"/>
     <use xlink:href="#DejaVuSans-4e" transform="translate(1719.890625 0)"/>
    </g>
   </g>
   <g id="legend_1">
    <g id="patch_7">
     <path d="M 506.4975 64.929687 
L 596.016875 64.929687 
Q 598.216875 64.929687 598.216875 62.729687 
L 598.216875 31.537812 
Q 598.216875 29.337812 596.016875 29.337812 
L 506.4975 29.337812 
Q 504.2975 29.337812 504.2975 31.537812 
L 504.2975 62.729687 
Q 504.2975 64.929687 506.4975 64.929687 
z
" style="fill: #ffffff; opacity: 0.8; stroke: #cccccc; stroke-linejoin: miter"/>
    </g>
    <g id="line2d_31">
     <path d="M 508.6975 38.246094 
L 519.6975 38.246094 
L 530.6975 38.246094 
" style="fill: none; stroke: #0000ff; stroke-width: 2; stroke-linecap: square"/>
    </g>
    <g id="text_18">
     <!-- Train -->
     <g transform="translate(539.4975 42.096094) scale(0.11 -0.11)">
      <use xlink:href="#DejaVuSans-54"/>
      <use xlink:href="#DejaVuSans-72" transform="translate(46.333984 0)"/>
      <use xlink:href="#DejaVuSans-61" transform="translate(87.447266 0)"/>
      <use xlink:href="#DejaVuSans-69" transform="translate(148.726562 0)"/>
      <use xlink:href="#DejaVuSans-6e" transform="translate(176.509766 0)"/>
     </g>
    </g>
    <g id="line2d_32">
     <path d="M 508.6975 54.392031 
L 519.6975 54.392031 
L 530.6975 54.392031 
" style="fill: none; stroke: #ffa500; stroke-width: 2; stroke-linecap: square"/>
    </g>
    <g id="text_19">
     <!-- Validation -->
     <g transform="translate(539.4975 58.242031) scale(0.11 -0.11)">
      <use xlink:href="#DejaVuSans-56"/>
      <use xlink:href="#DejaVuSans-61" transform="translate(60.658203 0)"/>
      <use xlink:href="#DejaVuSans-6c" transform="translate(121.9375 0)"/>
      <use xlink:href="#DejaVuSans-69" transform="translate(149.720703 0)"/>
      <use xlink:href="#DejaVuSans-64" transform="translate(177.503906 0)"/>
      <use xlink:href="#DejaVuSans-61" transform="translate(240.980469 0)"/>
      <use xlink:href="#DejaVuSans-74" transform="translate(302.259766 0)"/>
      <use xlink:href="#DejaVuSans-69" transform="translate(341.46875 0)"/>
      <use xlink:href="#DejaVuSans-6f" transform="translate(369.251953 0)"/>
      <use xlink:href="#DejaVuSans-6e" transform="translate(430.433594 0)"/>
     </g>
    </g>
   </g>
  </g>
 </g>
 <defs>
  <clipPath id="pbc8b9a69c2">
   <rect x="45.716875" y="23.837812" width="558" height="332.64"/>
  </clipPath>
 </defs>
</svg>
