<?xml version="1.0" encoding="utf-8" standalone="no"?>
<!DOCTYPE svg PUBLIC "-//W3C//DTD SVG 1.1//EN"
  "http://www.w3.org/Graphics/SVG/1.1/DTD/svg11.dtd">
<svg xmlns:xlink="http://www.w3.org/1999/xlink" width="610.916875pt" height="395.969687pt" viewBox="0 0 610.916875 395.969687" xmlns="http://www.w3.org/2000/svg" version="1.1">
 <metadata>
  <rdf:RDF xmlns:dc="http://purl.org/dc/elements/1.1/" xmlns:cc="http://creativecommons.org/ns#" xmlns:rdf="http://www.w3.org/1999/02/22-rdf-syntax-ns#">
   <cc:Work>
    <dc:type rdf:resource="http://purl.org/dc/dcmitype/StillImage"/>
    <dc:date>2025-05-23T10:14:09.753537</dc:date>
    <dc:format>image/svg+xml</dc:format>
    <dc:creator>
     <cc:Agent>
      <dc:title>Matplotlib v3.10.0, https://matplotlib.org/</dc:title>
     </cc:Agent>
    </dc:creator>
   </cc:Work>
  </rdf:RDF>
 </metadata>
 <defs>
  <style type="text/css">*{stroke-linejoin: round; stroke-linecap: butt}</style>
 </defs>
 <g id="figure_1">
  <g id="patch_1">
   <path d="M 0 395.969687 
L 610.916875 395.969687 
L 610.916875 0 
L 0 0 
z
" style="fill: #ffffff"/>
  </g>
  <g id="axes_1">
   <g id="patch_2">
    <path d="M 45.716875 356.477812 
L 603.716875 356.477812 
L 603.716875 23.837812 
L 45.716875 23.837812 
z
" style="fill: #ffffff"/>
   </g>
   <g id="matplotlib.axis_1">
    <g id="xtick_1">
     <g id="line2d_1">
      <path d="M 71.080511 356.477812 
L 71.080511 23.837812 
" clip-path="url(#p29d6118cb9)" style="fill: none; stroke: #b0b0b0; stroke-opacity: 0.3; stroke-width: 0.8; stroke-linecap: square"/>
     </g>
     <g id="line2d_2">
      <defs>
       <path id="m3d56397807" d="M 0 0 
L 0 3.5 
" style="stroke: #000000; stroke-width: 0.8"/>
      </defs>
      <g>
       <use xlink:href="#m3d56397807" x="71.080511" y="356.477812" style="stroke: #000000; stroke-width: 0.8"/>
      </g>
     </g>
     <g id="text_1">
      <!-- 0 -->
      <g transform="translate(67.899261 371.07625) scale(0.1 -0.1)">
       <defs>
        <path id="DejaVuSans-30" d="M 2034 4250 
Q 1547 4250 1301 3770 
Q 1056 3291 1056 2328 
Q 1056 1369 1301 889 
Q 1547 409 2034 409 
Q 2525 409 2770 889 
Q 3016 1369 3016 2328 
Q 3016 3291 2770 3770 
Q 2525 4250 2034 4250 
z
M 2034 4750 
Q 2819 4750 3233 4129 
Q 3647 3509 3647 2328 
Q 3647 1150 3233 529 
Q 2819 -91 2034 -91 
Q 1250 -91 836 529 
Q 422 1150 422 2328 
Q 422 3509 836 4129 
Q 1250 4750 2034 4750 
z
" transform="scale(0.015625)"/>
       </defs>
       <use xlink:href="#DejaVuSans-30"/>
      </g>
     </g>
    </g>
    <g id="xtick_2">
     <g id="line2d_3">
      <path d="M 155.908727 356.477812 
L 155.908727 23.837812 
" clip-path="url(#p29d6118cb9)" style="fill: none; stroke: #b0b0b0; stroke-opacity: 0.3; stroke-width: 0.8; stroke-linecap: square"/>
     </g>
     <g id="line2d_4">
      <g>
       <use xlink:href="#m3d56397807" x="155.908727" y="356.477812" style="stroke: #000000; stroke-width: 0.8"/>
      </g>
     </g>
     <g id="text_2">
      <!-- 50 -->
      <g transform="translate(149.546227 371.07625) scale(0.1 -0.1)">
       <defs>
        <path id="DejaVuSans-35" d="M 691 4666 
L 3169 4666 
L 3169 4134 
L 1269 4134 
L 1269 2991 
Q 1406 3038 1543 3061 
Q 1681 3084 1819 3084 
Q 2600 3084 3056 2656 
Q 3513 2228 3513 1497 
Q 3513 744 3044 326 
Q 2575 -91 1722 -91 
Q 1428 -91 1123 -41 
Q 819 9 494 109 
L 494 744 
Q 775 591 1075 516 
Q 1375 441 1709 441 
Q 2250 441 2565 725 
Q 2881 1009 2881 1497 
Q 2881 1984 2565 2268 
Q 2250 2553 1709 2553 
Q 1456 2553 1204 2497 
Q 953 2441 691 2322 
L 691 4666 
z
" transform="scale(0.015625)"/>
       </defs>
       <use xlink:href="#DejaVuSans-35"/>
       <use xlink:href="#DejaVuSans-30" transform="translate(63.623047 0)"/>
      </g>
     </g>
    </g>
    <g id="xtick_3">
     <g id="line2d_5">
      <path d="M 240.736942 356.477812 
L 240.736942 23.837812 
" clip-path="url(#p29d6118cb9)" style="fill: none; stroke: #b0b0b0; stroke-opacity: 0.3; stroke-width: 0.8; stroke-linecap: square"/>
     </g>
     <g id="line2d_6">
      <g>
       <use xlink:href="#m3d56397807" x="240.736942" y="356.477812" style="stroke: #000000; stroke-width: 0.8"/>
      </g>
     </g>
     <g id="text_3">
      <!-- 100 -->
      <g transform="translate(231.193192 371.07625) scale(0.1 -0.1)">
       <defs>
        <path id="DejaVuSans-31" d="M 794 531 
L 1825 531 
L 1825 4091 
L 703 3866 
L 703 4441 
L 1819 4666 
L 2450 4666 
L 2450 531 
L 3481 531 
L 3481 0 
L 794 0 
L 794 531 
z
" transform="scale(0.015625)"/>
       </defs>
       <use xlink:href="#DejaVuSans-31"/>
       <use xlink:href="#DejaVuSans-30" transform="translate(63.623047 0)"/>
       <use xlink:href="#DejaVuSans-30" transform="translate(127.246094 0)"/>
      </g>
     </g>
    </g>
    <g id="xtick_4">
     <g id="line2d_7">
      <path d="M 325.565157 356.477812 
L 325.565157 23.837812 
" clip-path="url(#p29d6118cb9)" style="fill: none; stroke: #b0b0b0; stroke-opacity: 0.3; stroke-width: 0.8; stroke-linecap: square"/>
     </g>
     <g id="line2d_8">
      <g>
       <use xlink:href="#m3d56397807" x="325.565157" y="356.477812" style="stroke: #000000; stroke-width: 0.8"/>
      </g>
     </g>
     <g id="text_4">
      <!-- 150 -->
      <g transform="translate(316.021407 371.07625) scale(0.1 -0.1)">
       <use xlink:href="#DejaVuSans-31"/>
       <use xlink:href="#DejaVuSans-35" transform="translate(63.623047 0)"/>
       <use xlink:href="#DejaVuSans-30" transform="translate(127.246094 0)"/>
      </g>
     </g>
    </g>
    <g id="xtick_5">
     <g id="line2d_9">
      <path d="M 410.393372 356.477812 
L 410.393372 23.837812 
" clip-path="url(#p29d6118cb9)" style="fill: none; stroke: #b0b0b0; stroke-opacity: 0.3; stroke-width: 0.8; stroke-linecap: square"/>
     </g>
     <g id="line2d_10">
      <g>
       <use xlink:href="#m3d56397807" x="410.393372" y="356.477812" style="stroke: #000000; stroke-width: 0.8"/>
      </g>
     </g>
     <g id="text_5">
      <!-- 200 -->
      <g transform="translate(400.849622 371.07625) scale(0.1 -0.1)">
       <defs>
        <path id="DejaVuSans-32" d="M 1228 531 
L 3431 531 
L 3431 0 
L 469 0 
L 469 531 
Q 828 903 1448 1529 
Q 2069 2156 2228 2338 
Q 2531 2678 2651 2914 
Q 2772 3150 2772 3378 
Q 2772 3750 2511 3984 
Q 2250 4219 1831 4219 
Q 1534 4219 1204 4116 
Q 875 4013 500 3803 
L 500 4441 
Q 881 4594 1212 4672 
Q 1544 4750 1819 4750 
Q 2544 4750 2975 4387 
Q 3406 4025 3406 3419 
Q 3406 3131 3298 2873 
Q 3191 2616 2906 2266 
Q 2828 2175 2409 1742 
Q 1991 1309 1228 531 
z
" transform="scale(0.015625)"/>
       </defs>
       <use xlink:href="#DejaVuSans-32"/>
       <use xlink:href="#DejaVuSans-30" transform="translate(63.623047 0)"/>
       <use xlink:href="#DejaVuSans-30" transform="translate(127.246094 0)"/>
      </g>
     </g>
    </g>
    <g id="xtick_6">
     <g id="line2d_11">
      <path d="M 495.221588 356.477812 
L 495.221588 23.837812 
" clip-path="url(#p29d6118cb9)" style="fill: none; stroke: #b0b0b0; stroke-opacity: 0.3; stroke-width: 0.8; stroke-linecap: square"/>
     </g>
     <g id="line2d_12">
      <g>
       <use xlink:href="#m3d56397807" x="495.221588" y="356.477812" style="stroke: #000000; stroke-width: 0.8"/>
      </g>
     </g>
     <g id="text_6">
      <!-- 250 -->
      <g transform="translate(485.677838 371.07625) scale(0.1 -0.1)">
       <use xlink:href="#DejaVuSans-32"/>
       <use xlink:href="#DejaVuSans-35" transform="translate(63.623047 0)"/>
       <use xlink:href="#DejaVuSans-30" transform="translate(127.246094 0)"/>
      </g>
     </g>
    </g>
    <g id="xtick_7">
     <g id="line2d_13">
      <path d="M 580.049803 356.477812 
L 580.049803 23.837812 
" clip-path="url(#p29d6118cb9)" style="fill: none; stroke: #b0b0b0; stroke-opacity: 0.3; stroke-width: 0.8; stroke-linecap: square"/>
     </g>
     <g id="line2d_14">
      <g>
       <use xlink:href="#m3d56397807" x="580.049803" y="356.477812" style="stroke: #000000; stroke-width: 0.8"/>
      </g>
     </g>
     <g id="text_7">
      <!-- 300 -->
      <g transform="translate(570.506053 371.07625) scale(0.1 -0.1)">
       <defs>
        <path id="DejaVuSans-33" d="M 2597 2516 
Q 3050 2419 3304 2112 
Q 3559 1806 3559 1356 
Q 3559 666 3084 287 
Q 2609 -91 1734 -91 
Q 1441 -91 1130 -33 
Q 819 25 488 141 
L 488 750 
Q 750 597 1062 519 
Q 1375 441 1716 441 
Q 2309 441 2620 675 
Q 2931 909 2931 1356 
Q 2931 1769 2642 2001 
Q 2353 2234 1838 2234 
L 1294 2234 
L 1294 2753 
L 1863 2753 
Q 2328 2753 2575 2939 
Q 2822 3125 2822 3475 
Q 2822 3834 2567 4026 
Q 2313 4219 1838 4219 
Q 1578 4219 1281 4162 
Q 984 4106 628 3988 
L 628 4550 
Q 988 4650 1302 4700 
Q 1616 4750 1894 4750 
Q 2613 4750 3031 4423 
Q 3450 4097 3450 3541 
Q 3450 3153 3228 2886 
Q 3006 2619 2597 2516 
z
" transform="scale(0.015625)"/>
       </defs>
       <use xlink:href="#DejaVuSans-33"/>
       <use xlink:href="#DejaVuSans-30" transform="translate(63.623047 0)"/>
       <use xlink:href="#DejaVuSans-30" transform="translate(127.246094 0)"/>
      </g>
     </g>
    </g>
    <g id="text_8">
     <!-- Epoch -->
     <g transform="translate(306.34375 386.274062) scale(0.12 -0.12)">
      <defs>
       <path id="DejaVuSans-45" d="M 628 4666 
L 3578 4666 
L 3578 4134 
L 1259 4134 
L 1259 2753 
L 3481 2753 
L 3481 2222 
L 1259 2222 
L 1259 531 
L 3634 531 
L 3634 0 
L 628 0 
L 628 4666 
z
" transform="scale(0.015625)"/>
       <path id="DejaVuSans-70" d="M 1159 525 
L 1159 -1331 
L 581 -1331 
L 581 3500 
L 1159 3500 
L 1159 2969 
Q 1341 3281 1617 3432 
Q 1894 3584 2278 3584 
Q 2916 3584 3314 3078 
Q 3713 2572 3713 1747 
Q 3713 922 3314 415 
Q 2916 -91 2278 -91 
Q 1894 -91 1617 61 
Q 1341 213 1159 525 
z
M 3116 1747 
Q 3116 2381 2855 2742 
Q 2594 3103 2138 3103 
Q 1681 3103 1420 2742 
Q 1159 2381 1159 1747 
Q 1159 1113 1420 752 
Q 1681 391 2138 391 
Q 2594 391 2855 752 
Q 3116 1113 3116 1747 
z
" transform="scale(0.015625)"/>
       <path id="DejaVuSans-6f" d="M 1959 3097 
Q 1497 3097 1228 2736 
Q 959 2375 959 1747 
Q 959 1119 1226 758 
Q 1494 397 1959 397 
Q 2419 397 2687 759 
Q 2956 1122 2956 1747 
Q 2956 2369 2687 2733 
Q 2419 3097 1959 3097 
z
M 1959 3584 
Q 2709 3584 3137 3096 
Q 3566 2609 3566 1747 
Q 3566 888 3137 398 
Q 2709 -91 1959 -91 
Q 1206 -91 779 398 
Q 353 888 353 1747 
Q 353 2609 779 3096 
Q 1206 3584 1959 3584 
z
" transform="scale(0.015625)"/>
       <path id="DejaVuSans-63" d="M 3122 3366 
L 3122 2828 
Q 2878 2963 2633 3030 
Q 2388 3097 2138 3097 
Q 1578 3097 1268 2742 
Q 959 2388 959 1747 
Q 959 1106 1268 751 
Q 1578 397 2138 397 
Q 2388 397 2633 464 
Q 2878 531 3122 666 
L 3122 134 
Q 2881 22 2623 -34 
Q 2366 -91 2075 -91 
Q 1284 -91 818 406 
Q 353 903 353 1747 
Q 353 2603 823 3093 
Q 1294 3584 2113 3584 
Q 2378 3584 2631 3529 
Q 2884 3475 3122 3366 
z
" transform="scale(0.015625)"/>
       <path id="DejaVuSans-68" d="M 3513 2113 
L 3513 0 
L 2938 0 
L 2938 2094 
Q 2938 2591 2744 2837 
Q 2550 3084 2163 3084 
Q 1697 3084 1428 2787 
Q 1159 2491 1159 1978 
L 1159 0 
L 581 0 
L 581 4863 
L 1159 4863 
L 1159 2956 
Q 1366 3272 1645 3428 
Q 1925 3584 2291 3584 
Q 2894 3584 3203 3211 
Q 3513 2838 3513 2113 
z
" transform="scale(0.015625)"/>
      </defs>
      <use xlink:href="#DejaVuSans-45"/>
      <use xlink:href="#DejaVuSans-70" transform="translate(63.183594 0)"/>
      <use xlink:href="#DejaVuSans-6f" transform="translate(126.660156 0)"/>
      <use xlink:href="#DejaVuSans-63" transform="translate(187.841797 0)"/>
      <use xlink:href="#DejaVuSans-68" transform="translate(242.822266 0)"/>
     </g>
    </g>
   </g>
   <g id="matplotlib.axis_2">
    <g id="ytick_1">
     <g id="line2d_15">
      <path d="M 45.716875 356.477812 
L 603.716875 356.477812 
" clip-path="url(#p29d6118cb9)" style="fill: none; stroke: #b0b0b0; stroke-opacity: 0.3; stroke-width: 0.8; stroke-linecap: square"/>
     </g>
     <g id="line2d_16">
      <defs>
       <path id="maf8dc94dd9" d="M 0 0 
L -3.5 0 
" style="stroke: #000000; stroke-width: 0.8"/>
      </defs>
      <g>
       <use xlink:href="#maf8dc94dd9" x="45.716875" y="356.477812" style="stroke: #000000; stroke-width: 0.8"/>
      </g>
     </g>
     <g id="text_9">
      <!-- 0.0 -->
      <g transform="translate(22.81375 360.277031) scale(0.1 -0.1)">
       <defs>
        <path id="DejaVuSans-2e" d="M 684 794 
L 1344 794 
L 1344 0 
L 684 0 
L 684 794 
z
" transform="scale(0.015625)"/>
       </defs>
       <use xlink:href="#DejaVuSans-30"/>
       <use xlink:href="#DejaVuSans-2e" transform="translate(63.623047 0)"/>
       <use xlink:href="#DejaVuSans-30" transform="translate(95.410156 0)"/>
      </g>
     </g>
    </g>
    <g id="ytick_2">
     <g id="line2d_17">
      <path d="M 45.716875 312.773881 
L 603.716875 312.773881 
" clip-path="url(#p29d6118cb9)" style="fill: none; stroke: #b0b0b0; stroke-opacity: 0.3; stroke-width: 0.8; stroke-linecap: square"/>
     </g>
     <g id="line2d_18">
      <g>
       <use xlink:href="#maf8dc94dd9" x="45.716875" y="312.773881" style="stroke: #000000; stroke-width: 0.8"/>
      </g>
     </g>
     <g id="text_10">
      <!-- 0.1 -->
      <g transform="translate(22.81375 316.5731) scale(0.1 -0.1)">
       <use xlink:href="#DejaVuSans-30"/>
       <use xlink:href="#DejaVuSans-2e" transform="translate(63.623047 0)"/>
       <use xlink:href="#DejaVuSans-31" transform="translate(95.410156 0)"/>
      </g>
     </g>
    </g>
    <g id="ytick_3">
     <g id="line2d_19">
      <path d="M 45.716875 269.069949 
L 603.716875 269.069949 
" clip-path="url(#p29d6118cb9)" style="fill: none; stroke: #b0b0b0; stroke-opacity: 0.3; stroke-width: 0.8; stroke-linecap: square"/>
     </g>
     <g id="line2d_20">
      <g>
       <use xlink:href="#maf8dc94dd9" x="45.716875" y="269.069949" style="stroke: #000000; stroke-width: 0.8"/>
      </g>
     </g>
     <g id="text_11">
      <!-- 0.2 -->
      <g transform="translate(22.81375 272.869168) scale(0.1 -0.1)">
       <use xlink:href="#DejaVuSans-30"/>
       <use xlink:href="#DejaVuSans-2e" transform="translate(63.623047 0)"/>
       <use xlink:href="#DejaVuSans-32" transform="translate(95.410156 0)"/>
      </g>
     </g>
    </g>
    <g id="ytick_4">
     <g id="line2d_21">
      <path d="M 45.716875 225.366017 
L 603.716875 225.366017 
" clip-path="url(#p29d6118cb9)" style="fill: none; stroke: #b0b0b0; stroke-opacity: 0.3; stroke-width: 0.8; stroke-linecap: square"/>
     </g>
     <g id="line2d_22">
      <g>
       <use xlink:href="#maf8dc94dd9" x="45.716875" y="225.366017" style="stroke: #000000; stroke-width: 0.8"/>
      </g>
     </g>
     <g id="text_12">
      <!-- 0.3 -->
      <g transform="translate(22.81375 229.165236) scale(0.1 -0.1)">
       <use xlink:href="#DejaVuSans-30"/>
       <use xlink:href="#DejaVuSans-2e" transform="translate(63.623047 0)"/>
       <use xlink:href="#DejaVuSans-33" transform="translate(95.410156 0)"/>
      </g>
     </g>
    </g>
    <g id="ytick_5">
     <g id="line2d_23">
      <path d="M 45.716875 181.662086 
L 603.716875 181.662086 
" clip-path="url(#p29d6118cb9)" style="fill: none; stroke: #b0b0b0; stroke-opacity: 0.3; stroke-width: 0.8; stroke-linecap: square"/>
     </g>
     <g id="line2d_24">
      <g>
       <use xlink:href="#maf8dc94dd9" x="45.716875" y="181.662086" style="stroke: #000000; stroke-width: 0.8"/>
      </g>
     </g>
     <g id="text_13">
      <!-- 0.4 -->
      <g transform="translate(22.81375 185.461305) scale(0.1 -0.1)">
       <defs>
        <path id="DejaVuSans-34" d="M 2419 4116 
L 825 1625 
L 2419 1625 
L 2419 4116 
z
M 2253 4666 
L 3047 4666 
L 3047 1625 
L 3713 1625 
L 3713 1100 
L 3047 1100 
L 3047 0 
L 2419 0 
L 2419 1100 
L 313 1100 
L 313 1709 
L 2253 4666 
z
" transform="scale(0.015625)"/>
       </defs>
       <use xlink:href="#DejaVuSans-30"/>
       <use xlink:href="#DejaVuSans-2e" transform="translate(63.623047 0)"/>
       <use xlink:href="#DejaVuSans-34" transform="translate(95.410156 0)"/>
      </g>
     </g>
    </g>
    <g id="ytick_6">
     <g id="line2d_25">
      <path d="M 45.716875 137.958154 
L 603.716875 137.958154 
" clip-path="url(#p29d6118cb9)" style="fill: none; stroke: #b0b0b0; stroke-opacity: 0.3; stroke-width: 0.8; stroke-linecap: square"/>
     </g>
     <g id="line2d_26">
      <g>
       <use xlink:href="#maf8dc94dd9" x="45.716875" y="137.958154" style="stroke: #000000; stroke-width: 0.8"/>
      </g>
     </g>
     <g id="text_14">
      <!-- 0.5 -->
      <g transform="translate(22.81375 141.757373) scale(0.1 -0.1)">
       <use xlink:href="#DejaVuSans-30"/>
       <use xlink:href="#DejaVuSans-2e" transform="translate(63.623047 0)"/>
       <use xlink:href="#DejaVuSans-35" transform="translate(95.410156 0)"/>
      </g>
     </g>
    </g>
    <g id="ytick_7">
     <g id="line2d_27">
      <path d="M 45.716875 94.254222 
L 603.716875 94.254222 
" clip-path="url(#p29d6118cb9)" style="fill: none; stroke: #b0b0b0; stroke-opacity: 0.3; stroke-width: 0.8; stroke-linecap: square"/>
     </g>
     <g id="line2d_28">
      <g>
       <use xlink:href="#maf8dc94dd9" x="45.716875" y="94.254222" style="stroke: #000000; stroke-width: 0.8"/>
      </g>
     </g>
     <g id="text_15">
      <!-- 0.6 -->
      <g transform="translate(22.81375 98.053441) scale(0.1 -0.1)">
       <defs>
        <path id="DejaVuSans-36" d="M 2113 2584 
Q 1688 2584 1439 2293 
Q 1191 2003 1191 1497 
Q 1191 994 1439 701 
Q 1688 409 2113 409 
Q 2538 409 2786 701 
Q 3034 994 3034 1497 
Q 3034 2003 2786 2293 
Q 2538 2584 2113 2584 
z
M 3366 4563 
L 3366 3988 
Q 3128 4100 2886 4159 
Q 2644 4219 2406 4219 
Q 1781 4219 1451 3797 
Q 1122 3375 1075 2522 
Q 1259 2794 1537 2939 
Q 1816 3084 2150 3084 
Q 2853 3084 3261 2657 
Q 3669 2231 3669 1497 
Q 3669 778 3244 343 
Q 2819 -91 2113 -91 
Q 1303 -91 875 529 
Q 447 1150 447 2328 
Q 447 3434 972 4092 
Q 1497 4750 2381 4750 
Q 2619 4750 2861 4703 
Q 3103 4656 3366 4563 
z
" transform="scale(0.015625)"/>
       </defs>
       <use xlink:href="#DejaVuSans-30"/>
       <use xlink:href="#DejaVuSans-2e" transform="translate(63.623047 0)"/>
       <use xlink:href="#DejaVuSans-36" transform="translate(95.410156 0)"/>
      </g>
     </g>
    </g>
    <g id="ytick_8">
     <g id="line2d_29">
      <path d="M 45.716875 50.550291 
L 603.716875 50.550291 
" clip-path="url(#p29d6118cb9)" style="fill: none; stroke: #b0b0b0; stroke-opacity: 0.3; stroke-width: 0.8; stroke-linecap: square"/>
     </g>
     <g id="line2d_30">
      <g>
       <use xlink:href="#maf8dc94dd9" x="45.716875" y="50.550291" style="stroke: #000000; stroke-width: 0.8"/>
      </g>
     </g>
     <g id="text_16">
      <!-- 0.7 -->
      <g transform="translate(22.81375 54.34951) scale(0.1 -0.1)">
       <defs>
        <path id="DejaVuSans-37" d="M 525 4666 
L 3525 4666 
L 3525 4397 
L 1831 0 
L 1172 0 
L 2766 4134 
L 525 4134 
L 525 4666 
z
" transform="scale(0.015625)"/>
       </defs>
       <use xlink:href="#DejaVuSans-30"/>
       <use xlink:href="#DejaVuSans-2e" transform="translate(63.623047 0)"/>
       <use xlink:href="#DejaVuSans-37" transform="translate(95.410156 0)"/>
      </g>
     </g>
    </g>
    <g id="text_17">
     <!-- MAE -->
     <g transform="translate(16.318125 203.230312) rotate(-90) scale(0.12 -0.12)">
      <defs>
       <path id="DejaVuSans-4d" d="M 628 4666 
L 1569 4666 
L 2759 1491 
L 3956 4666 
L 4897 4666 
L 4897 0 
L 4281 0 
L 4281 4097 
L 3078 897 
L 2444 897 
L 1241 4097 
L 1241 0 
L 628 0 
L 628 4666 
z
" transform="scale(0.015625)"/>
       <path id="DejaVuSans-41" d="M 2188 4044 
L 1331 1722 
L 3047 1722 
L 2188 4044 
z
M 1831 4666 
L 2547 4666 
L 4325 0 
L 3669 0 
L 3244 1197 
L 1141 1197 
L 716 0 
L 50 0 
L 1831 4666 
z
" transform="scale(0.015625)"/>
      </defs>
      <use xlink:href="#DejaVuSans-4d"/>
      <use xlink:href="#DejaVuSans-41" transform="translate(86.279297 0)"/>
      <use xlink:href="#DejaVuSans-45" transform="translate(154.6875 0)"/>
     </g>
    </g>
   </g>
   <g id="line2d_31">
    <path d="M 71.080511 38.939984 
L 72.777076 115.879407 
L 74.47364 150.44565 
L 76.170204 164.050281 
L 77.866769 180.328607 
L 79.563333 191.523987 
L 81.259897 198.370737 
L 82.956462 206.727948 
L 84.653026 211.392208 
L 86.34959 218.728009 
L 88.046154 226.903284 
L 89.742719 231.947414 
L 93.135847 243.152759 
L 94.832412 247.832523 
L 96.528976 251.130083 
L 98.22554 257.149123 
L 99.922105 262.565186 
L 101.618669 266.982178 
L 103.315233 268.211322 
L 105.011797 271.682146 
L 106.708362 277.344261 
L 108.404926 278.953559 
L 110.10149 281.838421 
L 111.798055 281.982121 
L 113.494619 286.263872 
L 115.191183 288.394211 
L 116.887748 291.588055 
L 118.584312 290.615731 
L 120.280876 293.537482 
L 121.977441 295.468229 
L 123.674005 296.264379 
L 125.370569 298.153315 
L 127.067133 298.863563 
L 128.763698 299.249086 
L 130.460262 300.699254 
L 132.156826 301.196816 
L 133.853391 300.372629 
L 135.549955 305.212934 
L 137.246519 305.256933 
L 138.943084 305.552812 
L 140.639648 306.784327 
L 142.336212 307.470356 
L 144.032776 308.796111 
L 145.729341 308.397806 
L 147.425905 308.753287 
L 149.122469 308.659017 
L 150.819034 310.390289 
L 152.515598 311.545363 
L 154.212162 311.781922 
L 155.908727 313.132701 
L 157.605291 313.281028 
L 159.301855 312.877973 
L 160.99842 313.950861 
L 162.694984 315.599183 
L 164.391548 314.245138 
L 166.088112 315.756126 
L 167.784677 315.65466 
L 169.481241 316.858651 
L 171.177805 316.407139 
L 172.87437 316.923658 
L 174.570934 316.992183 
L 176.267498 317.465932 
L 177.964063 318.718068 
L 179.660627 317.711912 
L 181.357191 319.001314 
L 183.053756 319.21677 
L 184.75032 318.253853 
L 186.446884 319.463945 
L 188.143448 319.293357 
L 189.840013 319.705656 
L 191.536577 320.781941 
L 193.233141 320.983091 
L 196.62627 320.903152 
L 200.019399 322.58876 
L 201.715963 322.211795 
L 203.412527 321.168422 
L 205.109091 322.583032 
L 206.805656 322.658234 
L 208.50222 324.17865 
L 210.198784 323.031508 
L 213.591913 324.036672 
L 215.288477 323.400561 
L 216.985042 325.447685 
L 218.681606 324.589186 
L 220.37817 324.566699 
L 222.074735 325.072378 
L 223.771299 324.621639 
L 225.467863 325.600828 
L 227.164427 326.260302 
L 228.860992 326.771719 
L 230.557556 325.934214 
L 232.25412 326.117046 
L 233.950685 325.299543 
L 235.647249 325.4163 
L 237.343813 326.890468 
L 239.040378 326.542029 
L 240.736942 327.100052 
L 242.433506 327.255219 
L 244.130071 327.197421 
L 245.826635 327.742317 
L 247.523199 327.630629 
L 249.219763 328.026044 
L 250.916328 328.033272 
L 252.612892 328.928167 
L 254.309456 328.867009 
L 256.006021 327.267448 
L 257.702585 328.378131 
L 259.399149 328.326469 
L 261.095714 328.890786 
L 262.792278 328.918879 
L 264.488842 329.312025 
L 266.185406 328.718218 
L 267.881971 329.701805 
L 272.971664 329.724914 
L 274.668228 329.253601 
L 276.364792 329.170069 
L 278.061357 329.407175 
L 279.757921 329.992494 
L 281.454485 329.873197 
L 283.15105 330.289211 
L 284.847614 330.567337 
L 286.544178 330.257885 
L 288.240742 330.237826 
L 289.937307 331.493859 
L 291.633871 330.556457 
L 293.330435 331.452008 
L 295.027 331.197595 
L 296.723564 331.843675 
L 298.420128 331.794365 
L 300.116693 331.220275 
L 303.509821 331.399092 
L 305.206385 331.752287 
L 306.90295 331.79549 
L 308.599514 331.956539 
L 310.296078 331.969043 
L 311.992643 332.49492 
L 313.689207 332.051002 
L 315.385771 332.377919 
L 317.082336 332.044087 
L 318.7789 331.915043 
L 320.475464 332.787727 
L 322.172029 333.424927 
L 323.868593 333.038095 
L 325.565157 333.22486 
L 327.261721 332.54724 
L 328.958286 333.052039 
L 330.65485 332.365398 
L 332.351414 333.051211 
L 334.047979 333.581371 
L 335.744543 333.251189 
L 337.441107 333.803552 
L 339.137672 333.44691 
L 344.227365 334.19594 
L 345.923929 333.733884 
L 347.620493 334.25289 
L 349.317057 334.371494 
L 352.710186 333.354105 
L 354.40675 333.439966 
L 356.103315 334.454328 
L 357.799879 334.341063 
L 359.496443 334.06843 
L 361.193008 334.533279 
L 364.586136 334.561621 
L 366.2827 334.202744 
L 367.979265 334.187502 
L 369.675829 333.870667 
L 371.372393 335.139948 
L 373.068958 334.913226 
L 374.765522 334.809266 
L 376.462086 335.271718 
L 378.158651 334.723168 
L 379.855215 335.491801 
L 381.551779 335.403553 
L 383.248344 334.769459 
L 384.944908 335.33342 
L 386.641472 335.038742 
L 388.338036 335.966164 
L 390.034601 336.249864 
L 391.731165 336.088257 
L 393.427729 335.67734 
L 395.124294 335.965777 
L 398.517422 335.984185 
L 400.213987 335.690467 
L 401.910551 336.482419 
L 403.607115 335.981903 
L 405.303679 336.739931 
L 407.000244 336.622621 
L 408.696808 336.962278 
L 410.393372 335.880783 
L 412.089937 335.275264 
L 413.786501 336.329302 
L 417.17963 336.464675 
L 418.876194 336.675384 
L 420.572758 337.146088 
L 422.269323 337.162157 
L 423.965887 336.631306 
L 425.662451 337.377645 
L 427.359015 337.586992 
L 429.05558 337.638815 
L 430.752144 337.53795 
L 432.448708 337.618683 
L 434.145273 337.254598 
L 435.841837 337.401882 
L 437.538401 337.26544 
L 439.234966 337.819396 
L 440.93153 336.899735 
L 442.628094 337.513868 
L 444.324659 337.457161 
L 446.021223 336.960957 
L 447.717787 337.758019 
L 449.414351 337.414895 
L 451.110916 337.661091 
L 452.80748 338.382342 
L 454.504044 337.241273 
L 456.200609 338.220164 
L 457.897173 337.987409 
L 459.593737 338.110323 
L 461.290302 338.105522 
L 462.986866 338.536836 
L 464.68343 337.811392 
L 466.379994 338.378739 
L 468.076559 337.184472 
L 469.773123 338.849825 
L 471.469687 337.938418 
L 473.166252 338.546125 
L 474.862816 338.518193 
L 476.55938 338.105384 
L 478.255945 338.867539 
L 481.649073 338.493807 
L 483.345638 338.445008 
L 485.042202 338.624729 
L 486.738766 338.460028 
L 488.43533 338.651249 
L 490.131895 339.353113 
L 491.828459 338.679707 
L 493.525023 338.566301 
L 495.221588 339.232434 
L 496.918152 339.030479 
L 498.614716 339.00138 
L 500.311281 338.544407 
L 502.007845 339.122995 
L 503.704409 339.208643 
L 505.400974 339.162879 
L 507.097538 338.816728 
L 508.794102 339.039446 
L 510.490666 339.642547 
L 512.187231 339.029401 
L 513.883795 338.736171 
L 517.276924 339.482747 
L 518.973488 339.47032 
L 520.670052 339.780104 
L 522.366617 339.317637 
L 524.063181 339.223577 
L 525.759745 339.450107 
L 527.456309 339.153365 
L 529.152874 339.726082 
L 534.242567 340.177898 
L 537.635695 339.652793 
L 541.028824 339.653833 
L 542.725388 339.668074 
L 544.421953 340.002675 
L 546.118517 339.978156 
L 547.815081 339.206415 
L 549.511645 339.848221 
L 551.20821 339.890124 
L 552.904774 340.217722 
L 554.601338 340.415344 
L 557.994467 340.143434 
L 559.691031 340.13493 
L 561.387596 340.40242 
L 563.08416 340.154519 
L 564.780724 340.172437 
L 566.477288 339.938394 
L 568.173853 340.48987 
L 569.870417 340.539686 
L 571.566981 340.028023 
L 574.96011 340.983418 
L 576.656674 340.266327 
L 578.353239 339.906447 
L 578.353239 339.906447 
" clip-path="url(#p29d6118cb9)" style="fill: none; stroke: #0000ff; stroke-width: 2; stroke-linecap: square"/>
   </g>
   <g id="line2d_32">
    <path d="M 71.080511 85.502273 
L 72.777076 157.314227 
L 74.47364 173.874841 
L 76.170204 177.181951 
L 79.563333 194.929089 
L 81.259897 193.510526 
L 82.956462 207.496839 
L 84.653026 197.778718 
L 86.34959 206.773527 
L 88.046154 212.676317 
L 89.742719 212.555134 
L 91.439283 204.567415 
L 93.135847 210.606516 
L 94.832412 218.589599 
L 98.22554 212.238175 
L 99.922105 220.561617 
L 101.618669 217.149169 
L 103.315233 216.385025 
L 105.011797 217.907503 
L 106.708362 223.272751 
L 108.404926 219.707265 
L 110.10149 221.193274 
L 111.798055 223.228139 
L 113.494619 224.419549 
L 115.191183 221.449711 
L 116.887748 219.519452 
L 118.584312 211.73547 
L 120.280876 228.44381 
L 121.977441 222.898269 
L 123.674005 223.981057 
L 125.370569 225.630898 
L 128.763698 219.560407 
L 130.460262 228.800482 
L 132.156826 222.986328 
L 133.853391 226.017953 
L 135.549955 227.146817 
L 137.246519 227.516195 
L 138.943084 227.401852 
L 140.639648 220.385916 
L 142.336212 229.32542 
L 144.032776 228.105613 
L 145.729341 224.326536 
L 147.425905 227.371981 
L 149.122469 224.445925 
L 150.819034 230.790937 
L 152.515598 230.165942 
L 154.212162 227.87906 
L 155.908727 227.747496 
L 157.605291 226.958032 
L 159.301855 225.096664 
L 160.99842 231.080018 
L 162.694984 223.583414 
L 164.391548 229.987244 
L 166.088112 222.22575 
L 169.481241 230.90595 
L 171.177805 225.990559 
L 172.87437 226.184889 
L 174.570934 231.922201 
L 176.267498 231.044214 
L 177.964063 226.796166 
L 179.660627 225.05923 
L 181.357191 230.753081 
L 183.053756 232.855767 
L 184.75032 230.381658 
L 188.143448 231.416331 
L 191.536577 232.253139 
L 193.233141 233.528397 
L 194.929706 231.408569 
L 196.62627 230.888102 
L 198.322834 230.21075 
L 200.019399 228.603294 
L 201.715963 229.853421 
L 203.412527 231.957737 
L 205.109091 232.046939 
L 206.805656 229.243855 
L 208.50222 231.993989 
L 210.198784 229.986261 
L 211.895349 230.563048 
L 213.591913 231.269477 
L 215.288477 231.664385 
L 216.985042 233.997959 
L 218.681606 230.341675 
L 220.37817 230.532116 
L 223.771299 232.055367 
L 225.467863 232.662983 
L 227.164427 231.025264 
L 228.860992 232.323988 
L 230.557556 230.582486 
L 232.25412 232.659853 
L 233.950685 234.272919 
L 235.647249 231.499222 
L 237.343813 232.051336 
L 239.040378 228.07922 
L 240.736942 230.836293 
L 242.433506 232.170533 
L 244.130071 234.298777 
L 245.826635 234.099253 
L 247.523199 231.399936 
L 249.219763 232.983473 
L 250.916328 231.067154 
L 252.612892 235.029986 
L 254.309456 233.616091 
L 256.006021 234.214491 
L 257.702585 233.577159 
L 259.399149 232.621873 
L 261.095714 233.820767 
L 262.792278 231.462267 
L 264.488842 230.681588 
L 266.185406 233.748472 
L 267.881971 233.868494 
L 269.578535 231.518661 
L 271.275099 234.096456 
L 272.971664 228.907203 
L 274.668228 232.875746 
L 276.364792 233.262308 
L 278.061357 231.806927 
L 279.757921 230.793459 
L 281.454485 232.321562 
L 283.15105 232.305827 
L 284.847614 233.434355 
L 289.937307 234.945908 
L 291.633871 233.645901 
L 293.330435 234.097414 
L 295.027 234.291168 
L 296.723564 234.092222 
L 298.420128 232.921577 
L 300.116693 234.735026 
L 301.813257 234.943681 
L 303.509821 234.249778 
L 305.206385 234.766055 
L 306.90295 233.387991 
L 308.599514 234.308229 
L 310.296078 234.470529 
L 311.992643 232.543023 
L 317.082336 233.589312 
L 318.7789 232.936996 
L 320.475464 232.598354 
L 322.172029 233.002989 
L 323.868593 235.188726 
L 325.565157 235.026764 
L 327.261721 233.594337 
L 328.958286 235.29322 
L 330.65485 236.112525 
L 332.351414 235.305492 
L 334.047979 235.055336 
L 335.744543 235.412395 
L 337.441107 236.025349 
L 339.137672 235.578078 
L 340.834236 236.148501 
L 342.5308 236.086568 
L 344.227365 235.386617 
L 345.923929 235.087562 
L 347.620493 234.612478 
L 349.317057 236.256703 
L 351.013622 235.144709 
L 352.710186 235.442673 
L 354.40675 231.988722 
L 356.103315 233.143615 
L 357.799879 236.718865 
L 359.496443 233.733261 
L 361.193008 234.373933 
L 362.889572 234.248541 
L 366.2827 236.525039 
L 367.979265 236.964264 
L 369.675829 236.684584 
L 371.372393 235.975608 
L 374.765522 236.554737 
L 376.462086 236.105971 
L 378.158651 235.36168 
L 379.855215 234.944843 
L 381.551779 233.27261 
L 383.248344 235.95711 
L 384.944908 236.253632 
L 386.641472 233.603232 
L 388.338036 233.386064 
L 390.034601 235.612269 
L 391.731165 234.153133 
L 393.427729 235.03256 
L 395.124294 236.817817 
L 396.820858 233.617959 
L 398.517422 235.302828 
L 400.213987 235.705087 
L 401.910551 234.887974 
L 403.607115 235.150943 
L 405.303679 234.69342 
L 407.000244 235.26561 
L 408.696808 233.603996 
L 410.393372 234.654506 
L 412.089937 233.975499 
L 413.786501 236.301353 
L 415.483065 235.92652 
L 417.17963 236.603667 
L 418.876194 236.698394 
L 420.572758 235.343399 
L 422.269323 236.433782 
L 425.662451 235.164467 
L 427.359015 236.669058 
L 429.05558 236.151316 
L 430.752144 235.98392 
L 432.448708 236.243213 
L 434.145273 235.305335 
L 435.841837 237.004939 
L 437.538401 235.389135 
L 439.234966 237.027661 
L 440.93153 236.34331 
L 442.628094 236.032732 
L 444.324659 235.138604 
L 446.021223 236.428325 
L 447.717787 236.849778 
L 449.414351 236.090088 
L 451.110916 237.627885 
L 452.80748 236.873454 
L 454.504044 235.31483 
L 456.200609 236.523461 
L 457.897173 234.159048 
L 459.593737 236.285208 
L 461.290302 236.020752 
L 462.986866 237.023992 
L 464.68343 235.548726 
L 466.379994 236.597277 
L 468.076559 236.768267 
L 469.773123 235.081381 
L 471.469687 233.762763 
L 473.166252 235.89004 
L 474.862816 232.76291 
L 476.55938 235.874652 
L 478.255945 235.990575 
L 479.952509 236.910551 
L 481.649073 234.922623 
L 483.345638 236.682865 
L 485.042202 235.577479 
L 486.738766 236.353085 
L 488.43533 237.726965 
L 490.131895 237.113106 
L 491.828459 237.508912 
L 493.525023 234.429065 
L 495.221588 237.591588 
L 496.918152 236.746562 
L 498.614716 236.13313 
L 500.311281 237.21618 
L 502.007845 237.116092 
L 503.704409 236.495429 
L 505.400974 238.080072 
L 507.097538 235.624393 
L 508.794102 237.25991 
L 510.490666 234.503655 
L 512.187231 236.578425 
L 513.883795 236.696015 
L 515.580359 235.755873 
L 517.276924 235.389029 
L 518.973488 235.297924 
L 522.366617 234.5071 
L 524.063181 236.433276 
L 525.759745 235.4027 
L 527.456309 236.041345 
L 529.152874 237.354002 
L 530.849438 234.883547 
L 532.546002 236.475975 
L 534.242567 237.11145 
L 537.635695 237.761356 
L 539.33226 235.252907 
L 541.028824 236.145987 
L 542.725388 236.209882 
L 544.421953 236.462823 
L 546.118517 236.140066 
L 547.815081 236.896404 
L 549.511645 236.501801 
L 551.20821 235.702132 
L 552.904774 236.412585 
L 554.601338 235.692706 
L 556.297903 237.639002 
L 557.994467 236.867388 
L 559.691031 235.715242 
L 561.387596 236.396932 
L 563.08416 234.705051 
L 564.780724 235.647831 
L 566.477288 234.189862 
L 568.173853 236.672125 
L 569.870417 234.494022 
L 571.566981 236.367017 
L 573.263546 236.16904 
L 576.656674 233.736937 
L 578.353239 237.457767 
L 578.353239 237.457767 
" clip-path="url(#p29d6118cb9)" style="fill: none; stroke: #ffa500; stroke-width: 2; stroke-linecap: square"/>
   </g>
   <g id="line2d_33">
    <path d="M 45.716875 232.55331 
L 603.716875 232.55331 
" clip-path="url(#p29d6118cb9)" style="fill: none; stroke-dasharray: 7.4,3.2; stroke-dashoffset: 0; stroke: #ff0000; stroke-width: 2"/>
   </g>
   <g id="patch_3">
    <path d="M 45.716875 356.477812 
L 45.716875 23.837812 
" style="fill: none; stroke: #000000; stroke-width: 0.8; stroke-linejoin: miter; stroke-linecap: square"/>
   </g>
   <g id="patch_4">
    <path d="M 603.716875 356.477812 
L 603.716875 23.837812 
" style="fill: none; stroke: #000000; stroke-width: 0.8; stroke-linejoin: miter; stroke-linecap: square"/>
   </g>
   <g id="patch_5">
    <path d="M 45.716875 356.477812 
L 603.716875 356.477812 
" style="fill: none; stroke: #000000; stroke-width: 0.8; stroke-linejoin: miter; stroke-linecap: square"/>
   </g>
   <g id="patch_6">
    <path d="M 45.716875 23.837812 
L 603.716875 23.837812 
" style="fill: none; stroke: #000000; stroke-width: 0.8; stroke-linejoin: miter; stroke-linecap: square"/>
   </g>
   <g id="text_18">
    <!-- Training vs Validation MAE - ALIGNN -->
    <g transform="translate(199.192656 17.837812) scale(0.14 -0.14)">
     <defs>
      <path id="DejaVuSans-54" d="M -19 4666 
L 3928 4666 
L 3928 4134 
L 2272 4134 
L 2272 0 
L 1638 0 
L 1638 4134 
L -19 4134 
L -19 4666 
z
" transform="scale(0.015625)"/>
      <path id="DejaVuSans-72" d="M 2631 2963 
Q 2534 3019 2420 3045 
Q 2306 3072 2169 3072 
Q 1681 3072 1420 2755 
Q 1159 2438 1159 1844 
L 1159 0 
L 581 0 
L 581 3500 
L 1159 3500 
L 1159 2956 
Q 1341 3275 1631 3429 
Q 1922 3584 2338 3584 
Q 2397 3584 2469 3576 
Q 2541 3569 2628 3553 
L 2631 2963 
z
" transform="scale(0.015625)"/>
      <path id="DejaVuSans-61" d="M 2194 1759 
Q 1497 1759 1228 1600 
Q 959 1441 959 1056 
Q 959 750 1161 570 
Q 1363 391 1709 391 
Q 2188 391 2477 730 
Q 2766 1069 2766 1631 
L 2766 1759 
L 2194 1759 
z
M 3341 1997 
L 3341 0 
L 2766 0 
L 2766 531 
Q 2569 213 2275 61 
Q 1981 -91 1556 -91 
Q 1019 -91 701 211 
Q 384 513 384 1019 
Q 384 1609 779 1909 
Q 1175 2209 1959 2209 
L 2766 2209 
L 2766 2266 
Q 2766 2663 2505 2880 
Q 2244 3097 1772 3097 
Q 1472 3097 1187 3025 
Q 903 2953 641 2809 
L 641 3341 
Q 956 3463 1253 3523 
Q 1550 3584 1831 3584 
Q 2591 3584 2966 3190 
Q 3341 2797 3341 1997 
z
" transform="scale(0.015625)"/>
      <path id="DejaVuSans-69" d="M 603 3500 
L 1178 3500 
L 1178 0 
L 603 0 
L 603 3500 
z
M 603 4863 
L 1178 4863 
L 1178 4134 
L 603 4134 
L 603 4863 
z
" transform="scale(0.015625)"/>
      <path id="DejaVuSans-6e" d="M 3513 2113 
L 3513 0 
L 2938 0 
L 2938 2094 
Q 2938 2591 2744 2837 
Q 2550 3084 2163 3084 
Q 1697 3084 1428 2787 
Q 1159 2491 1159 1978 
L 1159 0 
L 581 0 
L 581 3500 
L 1159 3500 
L 1159 2956 
Q 1366 3272 1645 3428 
Q 1925 3584 2291 3584 
Q 2894 3584 3203 3211 
Q 3513 2838 3513 2113 
z
" transform="scale(0.015625)"/>
      <path id="DejaVuSans-67" d="M 2906 1791 
Q 2906 2416 2648 2759 
Q 2391 3103 1925 3103 
Q 1463 3103 1205 2759 
Q 947 2416 947 1791 
Q 947 1169 1205 825 
Q 1463 481 1925 481 
Q 2391 481 2648 825 
Q 2906 1169 2906 1791 
z
M 3481 434 
Q 3481 -459 3084 -895 
Q 2688 -1331 1869 -1331 
Q 1566 -1331 1297 -1286 
Q 1028 -1241 775 -1147 
L 775 -588 
Q 1028 -725 1275 -790 
Q 1522 -856 1778 -856 
Q 2344 -856 2625 -561 
Q 2906 -266 2906 331 
L 2906 616 
Q 2728 306 2450 153 
Q 2172 0 1784 0 
Q 1141 0 747 490 
Q 353 981 353 1791 
Q 353 2603 747 3093 
Q 1141 3584 1784 3584 
Q 2172 3584 2450 3431 
Q 2728 3278 2906 2969 
L 2906 3500 
L 3481 3500 
L 3481 434 
z
" transform="scale(0.015625)"/>
      <path id="DejaVuSans-20" transform="scale(0.015625)"/>
      <path id="DejaVuSans-76" d="M 191 3500 
L 800 3500 
L 1894 563 
L 2988 3500 
L 3597 3500 
L 2284 0 
L 1503 0 
L 191 3500 
z
" transform="scale(0.015625)"/>
      <path id="DejaVuSans-73" d="M 2834 3397 
L 2834 2853 
Q 2591 2978 2328 3040 
Q 2066 3103 1784 3103 
Q 1356 3103 1142 2972 
Q 928 2841 928 2578 
Q 928 2378 1081 2264 
Q 1234 2150 1697 2047 
L 1894 2003 
Q 2506 1872 2764 1633 
Q 3022 1394 3022 966 
Q 3022 478 2636 193 
Q 2250 -91 1575 -91 
Q 1294 -91 989 -36 
Q 684 19 347 128 
L 347 722 
Q 666 556 975 473 
Q 1284 391 1588 391 
Q 1994 391 2212 530 
Q 2431 669 2431 922 
Q 2431 1156 2273 1281 
Q 2116 1406 1581 1522 
L 1381 1569 
Q 847 1681 609 1914 
Q 372 2147 372 2553 
Q 372 3047 722 3315 
Q 1072 3584 1716 3584 
Q 2034 3584 2315 3537 
Q 2597 3491 2834 3397 
z
" transform="scale(0.015625)"/>
      <path id="DejaVuSans-56" d="M 1831 0 
L 50 4666 
L 709 4666 
L 2188 738 
L 3669 4666 
L 4325 4666 
L 2547 0 
L 1831 0 
z
" transform="scale(0.015625)"/>
      <path id="DejaVuSans-6c" d="M 603 4863 
L 1178 4863 
L 1178 0 
L 603 0 
L 603 4863 
z
" transform="scale(0.015625)"/>
      <path id="DejaVuSans-64" d="M 2906 2969 
L 2906 4863 
L 3481 4863 
L 3481 0 
L 2906 0 
L 2906 525 
Q 2725 213 2448 61 
Q 2172 -91 1784 -91 
Q 1150 -91 751 415 
Q 353 922 353 1747 
Q 353 2572 751 3078 
Q 1150 3584 1784 3584 
Q 2172 3584 2448 3432 
Q 2725 3281 2906 2969 
z
M 947 1747 
Q 947 1113 1208 752 
Q 1469 391 1925 391 
Q 2381 391 2643 752 
Q 2906 1113 2906 1747 
Q 2906 2381 2643 2742 
Q 2381 3103 1925 3103 
Q 1469 3103 1208 2742 
Q 947 2381 947 1747 
z
" transform="scale(0.015625)"/>
      <path id="DejaVuSans-74" d="M 1172 4494 
L 1172 3500 
L 2356 3500 
L 2356 3053 
L 1172 3053 
L 1172 1153 
Q 1172 725 1289 603 
Q 1406 481 1766 481 
L 2356 481 
L 2356 0 
L 1766 0 
Q 1100 0 847 248 
Q 594 497 594 1153 
L 594 3053 
L 172 3053 
L 172 3500 
L 594 3500 
L 594 4494 
L 1172 4494 
z
" transform="scale(0.015625)"/>
      <path id="DejaVuSans-2d" d="M 313 2009 
L 1997 2009 
L 1997 1497 
L 313 1497 
L 313 2009 
z
" transform="scale(0.015625)"/>
      <path id="DejaVuSans-4c" d="M 628 4666 
L 1259 4666 
L 1259 531 
L 3531 531 
L 3531 0 
L 628 0 
L 628 4666 
z
" transform="scale(0.015625)"/>
      <path id="DejaVuSans-49" d="M 628 4666 
L 1259 4666 
L 1259 0 
L 628 0 
L 628 4666 
z
" transform="scale(0.015625)"/>
      <path id="DejaVuSans-47" d="M 3809 666 
L 3809 1919 
L 2778 1919 
L 2778 2438 
L 4434 2438 
L 4434 434 
Q 4069 175 3628 42 
Q 3188 -91 2688 -91 
Q 1594 -91 976 548 
Q 359 1188 359 2328 
Q 359 3472 976 4111 
Q 1594 4750 2688 4750 
Q 3144 4750 3555 4637 
Q 3966 4525 4313 4306 
L 4313 3634 
Q 3963 3931 3569 4081 
Q 3175 4231 2741 4231 
Q 1884 4231 1454 3753 
Q 1025 3275 1025 2328 
Q 1025 1384 1454 906 
Q 1884 428 2741 428 
Q 3075 428 3337 486 
Q 3600 544 3809 666 
z
" transform="scale(0.015625)"/>
      <path id="DejaVuSans-4e" d="M 628 4666 
L 1478 4666 
L 3547 763 
L 3547 4666 
L 4159 4666 
L 4159 0 
L 3309 0 
L 1241 3903 
L 1241 0 
L 628 0 
L 628 4666 
z
" transform="scale(0.015625)"/>
     </defs>
     <use xlink:href="#DejaVuSans-54"/>
     <use xlink:href="#DejaVuSans-72" transform="translate(46.333984 0)"/>
     <use xlink:href="#DejaVuSans-61" transform="translate(87.447266 0)"/>
     <use xlink:href="#DejaVuSans-69" transform="translate(148.726562 0)"/>
     <use xlink:href="#DejaVuSans-6e" transform="translate(176.509766 0)"/>
     <use xlink:href="#DejaVuSans-69" transform="translate(239.888672 0)"/>
     <use xlink:href="#DejaVuSans-6e" transform="translate(267.671875 0)"/>
     <use xlink:href="#DejaVuSans-67" transform="translate(331.050781 0)"/>
     <use xlink:href="#DejaVuSans-20" transform="translate(394.527344 0)"/>
     <use xlink:href="#DejaVuSans-76" transform="translate(426.314453 0)"/>
     <use xlink:href="#DejaVuSans-73" transform="translate(485.494141 0)"/>
     <use xlink:href="#DejaVuSans-20" transform="translate(537.59375 0)"/>
     <use xlink:href="#DejaVuSans-56" transform="translate(569.380859 0)"/>
     <use xlink:href="#DejaVuSans-61" transform="translate(630.039062 0)"/>
     <use xlink:href="#DejaVuSans-6c" transform="translate(691.318359 0)"/>
     <use xlink:href="#DejaVuSans-69" transform="translate(719.101562 0)"/>
     <use xlink:href="#DejaVuSans-64" transform="translate(746.884766 0)"/>
     <use xlink:href="#DejaVuSans-61" transform="translate(810.361328 0)"/>
     <use xlink:href="#DejaVuSans-74" transform="translate(871.640625 0)"/>
     <use xlink:href="#DejaVuSans-69" transform="translate(910.849609 0)"/>
     <use xlink:href="#DejaVuSans-6f" transform="translate(938.632812 0)"/>
     <use xlink:href="#DejaVuSans-6e" transform="translate(999.814453 0)"/>
     <use xlink:href="#DejaVuSans-20" transform="translate(1063.193359 0)"/>
     <use xlink:href="#DejaVuSans-4d" transform="translate(1094.980469 0)"/>
     <use xlink:href="#DejaVuSans-41" transform="translate(1181.259766 0)"/>
     <use xlink:href="#DejaVuSans-45" transform="translate(1249.667969 0)"/>
     <use xlink:href="#DejaVuSans-20" transform="translate(1312.851562 0)"/>
     <use xlink:href="#DejaVuSans-2d" transform="translate(1344.638672 0)"/>
     <use xlink:href="#DejaVuSans-20" transform="translate(1380.722656 0)"/>
     <use xlink:href="#DejaVuSans-41" transform="translate(1412.509766 0)"/>
     <use xlink:href="#DejaVuSans-4c" transform="translate(1480.917969 0)"/>
     <use xlink:href="#DejaVuSans-49" transform="translate(1536.630859 0)"/>
     <use xlink:href="#DejaVuSans-47" transform="translate(1566.123047 0)"/>
     <use xlink:href="#DejaVuSans-4e" transform="translate(1643.613281 0)"/>
     <use xlink:href="#DejaVuSans-4e" transform="translate(1718.417969 0)"/>
    </g>
   </g>
   <g id="legend_1">
    <g id="patch_7">
     <path d="M 456.995781 81.075625 
L 596.016875 81.075625 
Q 598.216875 81.075625 598.216875 78.875625 
L 598.216875 31.537812 
Q 598.216875 29.337812 596.016875 29.337812 
L 456.995781 29.337812 
Q 454.795781 29.337812 454.795781 31.537812 
L 454.795781 78.875625 
Q 454.795781 81.075625 456.995781 81.075625 
z
" style="fill: #ffffff; opacity: 0.8; stroke: #cccccc; stroke-linejoin: miter"/>
    </g>
    <g id="line2d_34">
     <path d="M 459.195781 38.246094 
L 470.195781 38.246094 
L 481.195781 38.246094 
" style="fill: none; stroke: #0000ff; stroke-width: 2; stroke-linecap: square"/>
    </g>
    <g id="text_19">
     <!-- Train -->
     <g transform="translate(489.995781 42.096094) scale(0.11 -0.11)">
      <use xlink:href="#DejaVuSans-54"/>
      <use xlink:href="#DejaVuSans-72" transform="translate(46.333984 0)"/>
      <use xlink:href="#DejaVuSans-61" transform="translate(87.447266 0)"/>
      <use xlink:href="#DejaVuSans-69" transform="translate(148.726562 0)"/>
      <use xlink:href="#DejaVuSans-6e" transform="translate(176.509766 0)"/>
     </g>
    </g>
    <g id="line2d_35">
     <path d="M 459.195781 54.392031 
L 470.195781 54.392031 
L 481.195781 54.392031 
" style="fill: none; stroke: #ffa500; stroke-width: 2; stroke-linecap: square"/>
    </g>
    <g id="text_20">
     <!-- Validation -->
     <g transform="translate(489.995781 58.242031) scale(0.11 -0.11)">
      <use xlink:href="#DejaVuSans-56"/>
      <use xlink:href="#DejaVuSans-61" transform="translate(60.658203 0)"/>
      <use xlink:href="#DejaVuSans-6c" transform="translate(121.9375 0)"/>
      <use xlink:href="#DejaVuSans-69" transform="translate(149.720703 0)"/>
      <use xlink:href="#DejaVuSans-64" transform="translate(177.503906 0)"/>
      <use xlink:href="#DejaVuSans-61" transform="translate(240.980469 0)"/>
      <use xlink:href="#DejaVuSans-74" transform="translate(302.259766 0)"/>
      <use xlink:href="#DejaVuSans-69" transform="translate(341.46875 0)"/>
      <use xlink:href="#DejaVuSans-6f" transform="translate(369.251953 0)"/>
      <use xlink:href="#DejaVuSans-6e" transform="translate(430.433594 0)"/>
     </g>
    </g>
    <g id="line2d_36">
     <path d="M 459.195781 70.537969 
L 470.195781 70.537969 
L 481.195781 70.537969 
" style="fill: none; stroke-dasharray: 7.4,3.2; stroke-dashoffset: 0; stroke: #ff0000; stroke-width: 2"/>
    </g>
    <g id="text_21">
     <!-- Test MAE = 0.2836 -->
     <g transform="translate(489.995781 74.387969) scale(0.11 -0.11)">
      <defs>
       <path id="DejaVuSans-65" d="M 3597 1894 
L 3597 1613 
L 953 1613 
Q 991 1019 1311 708 
Q 1631 397 2203 397 
Q 2534 397 2845 478 
Q 3156 559 3463 722 
L 3463 178 
Q 3153 47 2828 -22 
Q 2503 -91 2169 -91 
Q 1331 -91 842 396 
Q 353 884 353 1716 
Q 353 2575 817 3079 
Q 1281 3584 2069 3584 
Q 2775 3584 3186 3129 
Q 3597 2675 3597 1894 
z
M 3022 2063 
Q 3016 2534 2758 2815 
Q 2500 3097 2075 3097 
Q 1594 3097 1305 2825 
Q 1016 2553 972 2059 
L 3022 2063 
z
" transform="scale(0.015625)"/>
       <path id="DejaVuSans-3d" d="M 678 2906 
L 4684 2906 
L 4684 2381 
L 678 2381 
L 678 2906 
z
M 678 1631 
L 4684 1631 
L 4684 1100 
L 678 1100 
L 678 1631 
z
" transform="scale(0.015625)"/>
       <path id="DejaVuSans-38" d="M 2034 2216 
Q 1584 2216 1326 1975 
Q 1069 1734 1069 1313 
Q 1069 891 1326 650 
Q 1584 409 2034 409 
Q 2484 409 2743 651 
Q 3003 894 3003 1313 
Q 3003 1734 2745 1975 
Q 2488 2216 2034 2216 
z
M 1403 2484 
Q 997 2584 770 2862 
Q 544 3141 544 3541 
Q 544 4100 942 4425 
Q 1341 4750 2034 4750 
Q 2731 4750 3128 4425 
Q 3525 4100 3525 3541 
Q 3525 3141 3298 2862 
Q 3072 2584 2669 2484 
Q 3125 2378 3379 2068 
Q 3634 1759 3634 1313 
Q 3634 634 3220 271 
Q 2806 -91 2034 -91 
Q 1263 -91 848 271 
Q 434 634 434 1313 
Q 434 1759 690 2068 
Q 947 2378 1403 2484 
z
M 1172 3481 
Q 1172 3119 1398 2916 
Q 1625 2713 2034 2713 
Q 2441 2713 2670 2916 
Q 2900 3119 2900 3481 
Q 2900 3844 2670 4047 
Q 2441 4250 2034 4250 
Q 1625 4250 1398 4047 
Q 1172 3844 1172 3481 
z
" transform="scale(0.015625)"/>
      </defs>
      <use xlink:href="#DejaVuSans-54"/>
      <use xlink:href="#DejaVuSans-65" transform="translate(44.083984 0)"/>
      <use xlink:href="#DejaVuSans-73" transform="translate(105.607422 0)"/>
      <use xlink:href="#DejaVuSans-74" transform="translate(157.707031 0)"/>
      <use xlink:href="#DejaVuSans-20" transform="translate(196.916016 0)"/>
      <use xlink:href="#DejaVuSans-4d" transform="translate(228.703125 0)"/>
      <use xlink:href="#DejaVuSans-41" transform="translate(314.982422 0)"/>
      <use xlink:href="#DejaVuSans-45" transform="translate(383.390625 0)"/>
      <use xlink:href="#DejaVuSans-20" transform="translate(446.574219 0)"/>
      <use xlink:href="#DejaVuSans-3d" transform="translate(478.361328 0)"/>
      <use xlink:href="#DejaVuSans-20" transform="translate(562.150391 0)"/>
      <use xlink:href="#DejaVuSans-30" transform="translate(593.9375 0)"/>
      <use xlink:href="#DejaVuSans-2e" transform="translate(657.560547 0)"/>
      <use xlink:href="#DejaVuSans-32" transform="translate(689.347656 0)"/>
      <use xlink:href="#DejaVuSans-38" transform="translate(752.970703 0)"/>
      <use xlink:href="#DejaVuSans-33" transform="translate(816.59375 0)"/>
      <use xlink:href="#DejaVuSans-36" transform="translate(880.216797 0)"/>
     </g>
    </g>
   </g>
  </g>
 </g>
 <defs>
  <clipPath id="p29d6118cb9">
   <rect x="45.716875" y="23.837812" width="558" height="332.64"/>
  </clipPath>
 </defs>
</svg>
