<?xml version="1.0" encoding="utf-8" standalone="no"?>
<!DOCTYPE svg PUBLIC "-//W3C//DTD SVG 1.1//EN"
  "http://www.w3.org/Graphics/SVG/1.1/DTD/svg11.dtd">
<svg xmlns:xlink="http://www.w3.org/1999/xlink" width="617.279375pt" height="395.969687pt" viewBox="0 0 617.279375 395.969687" xmlns="http://www.w3.org/2000/svg" version="1.1">
 <metadata>
  <rdf:RDF xmlns:dc="http://purl.org/dc/elements/1.1/" xmlns:cc="http://creativecommons.org/ns#" xmlns:rdf="http://www.w3.org/1999/02/22-rdf-syntax-ns#">
   <cc:Work>
    <dc:type rdf:resource="http://purl.org/dc/dcmitype/StillImage"/>
    <dc:date>2025-05-23T10:14:10.011992</dc:date>
    <dc:format>image/svg+xml</dc:format>
    <dc:creator>
     <cc:Agent>
      <dc:title>Matplotlib v3.10.0, https://matplotlib.org/</dc:title>
     </cc:Agent>
    </dc:creator>
   </cc:Work>
  </rdf:RDF>
 </metadata>
 <defs>
  <style type="text/css">*{stroke-linejoin: round; stroke-linecap: butt}</style>
 </defs>
 <g id="figure_1">
  <g id="patch_1">
   <path d="M 0 395.969687 
L 617.279375 395.969687 
L 617.279375 0 
L 0 0 
z
" style="fill: #ffffff"/>
  </g>
  <g id="axes_1">
   <g id="patch_2">
    <path d="M 52.079375 356.477812 
L 610.079375 356.477812 
L 610.079375 23.837812 
L 52.079375 23.837812 
z
" style="fill: #ffffff"/>
   </g>
   <g id="matplotlib.axis_1">
    <g id="xtick_1">
     <g id="line2d_1">
      <path d="M 59.890322 356.477812 
L 59.890322 23.837812 
" clip-path="url(#p321b4b152a)" style="fill: none; stroke: #b0b0b0; stroke-opacity: 0.3; stroke-width: 0.8; stroke-linecap: square"/>
     </g>
     <g id="line2d_2">
      <defs>
       <path id="m53e9b53a53" d="M 0 0 
L 0 3.5 
" style="stroke: #000000; stroke-width: 0.8"/>
      </defs>
      <g>
       <use xlink:href="#m53e9b53a53" x="59.890322" y="356.477812" style="stroke: #000000; stroke-width: 0.8"/>
      </g>
     </g>
     <g id="text_1">
      <!-- 0 -->
      <g transform="translate(56.709072 371.07625) scale(0.1 -0.1)">
       <defs>
        <path id="DejaVuSans-30" d="M 2034 4250 
Q 1547 4250 1301 3770 
Q 1056 3291 1056 2328 
Q 1056 1369 1301 889 
Q 1547 409 2034 409 
Q 2525 409 2770 889 
Q 3016 1369 3016 2328 
Q 3016 3291 2770 3770 
Q 2525 4250 2034 4250 
z
M 2034 4750 
Q 2819 4750 3233 4129 
Q 3647 3509 3647 2328 
Q 3647 1150 3233 529 
Q 2819 -91 2034 -91 
Q 1250 -91 836 529 
Q 422 1150 422 2328 
Q 422 3509 836 4129 
Q 1250 4750 2034 4750 
z
" transform="scale(0.015625)"/>
       </defs>
       <use xlink:href="#DejaVuSans-30"/>
      </g>
     </g>
    </g>
    <g id="xtick_2">
     <g id="line2d_3">
      <path d="M 147.653769 356.477812 
L 147.653769 23.837812 
" clip-path="url(#p321b4b152a)" style="fill: none; stroke: #b0b0b0; stroke-opacity: 0.3; stroke-width: 0.8; stroke-linecap: square"/>
     </g>
     <g id="line2d_4">
      <g>
       <use xlink:href="#m53e9b53a53" x="147.653769" y="356.477812" style="stroke: #000000; stroke-width: 0.8"/>
      </g>
     </g>
     <g id="text_2">
      <!-- 50 -->
      <g transform="translate(141.291269 371.07625) scale(0.1 -0.1)">
       <defs>
        <path id="DejaVuSans-35" d="M 691 4666 
L 3169 4666 
L 3169 4134 
L 1269 4134 
L 1269 2991 
Q 1406 3038 1543 3061 
Q 1681 3084 1819 3084 
Q 2600 3084 3056 2656 
Q 3513 2228 3513 1497 
Q 3513 744 3044 326 
Q 2575 -91 1722 -91 
Q 1428 -91 1123 -41 
Q 819 9 494 109 
L 494 744 
Q 775 591 1075 516 
Q 1375 441 1709 441 
Q 2250 441 2565 725 
Q 2881 1009 2881 1497 
Q 2881 1984 2565 2268 
Q 2250 2553 1709 2553 
Q 1456 2553 1204 2497 
Q 953 2441 691 2322 
L 691 4666 
z
" transform="scale(0.015625)"/>
       </defs>
       <use xlink:href="#DejaVuSans-35"/>
       <use xlink:href="#DejaVuSans-30" transform="translate(63.623047 0)"/>
      </g>
     </g>
    </g>
    <g id="xtick_3">
     <g id="line2d_5">
      <path d="M 235.417217 356.477812 
L 235.417217 23.837812 
" clip-path="url(#p321b4b152a)" style="fill: none; stroke: #b0b0b0; stroke-opacity: 0.3; stroke-width: 0.8; stroke-linecap: square"/>
     </g>
     <g id="line2d_6">
      <g>
       <use xlink:href="#m53e9b53a53" x="235.417217" y="356.477812" style="stroke: #000000; stroke-width: 0.8"/>
      </g>
     </g>
     <g id="text_3">
      <!-- 100 -->
      <g transform="translate(225.873467 371.07625) scale(0.1 -0.1)">
       <defs>
        <path id="DejaVuSans-31" d="M 794 531 
L 1825 531 
L 1825 4091 
L 703 3866 
L 703 4441 
L 1819 4666 
L 2450 4666 
L 2450 531 
L 3481 531 
L 3481 0 
L 794 0 
L 794 531 
z
" transform="scale(0.015625)"/>
       </defs>
       <use xlink:href="#DejaVuSans-31"/>
       <use xlink:href="#DejaVuSans-30" transform="translate(63.623047 0)"/>
       <use xlink:href="#DejaVuSans-30" transform="translate(127.246094 0)"/>
      </g>
     </g>
    </g>
    <g id="xtick_4">
     <g id="line2d_7">
      <path d="M 323.180665 356.477812 
L 323.180665 23.837812 
" clip-path="url(#p321b4b152a)" style="fill: none; stroke: #b0b0b0; stroke-opacity: 0.3; stroke-width: 0.8; stroke-linecap: square"/>
     </g>
     <g id="line2d_8">
      <g>
       <use xlink:href="#m53e9b53a53" x="323.180665" y="356.477812" style="stroke: #000000; stroke-width: 0.8"/>
      </g>
     </g>
     <g id="text_4">
      <!-- 150 -->
      <g transform="translate(313.636915 371.07625) scale(0.1 -0.1)">
       <use xlink:href="#DejaVuSans-31"/>
       <use xlink:href="#DejaVuSans-35" transform="translate(63.623047 0)"/>
       <use xlink:href="#DejaVuSans-30" transform="translate(127.246094 0)"/>
      </g>
     </g>
    </g>
    <g id="xtick_5">
     <g id="line2d_9">
      <path d="M 410.944112 356.477812 
L 410.944112 23.837812 
" clip-path="url(#p321b4b152a)" style="fill: none; stroke: #b0b0b0; stroke-opacity: 0.3; stroke-width: 0.8; stroke-linecap: square"/>
     </g>
     <g id="line2d_10">
      <g>
       <use xlink:href="#m53e9b53a53" x="410.944112" y="356.477812" style="stroke: #000000; stroke-width: 0.8"/>
      </g>
     </g>
     <g id="text_5">
      <!-- 200 -->
      <g transform="translate(401.400362 371.07625) scale(0.1 -0.1)">
       <defs>
        <path id="DejaVuSans-32" d="M 1228 531 
L 3431 531 
L 3431 0 
L 469 0 
L 469 531 
Q 828 903 1448 1529 
Q 2069 2156 2228 2338 
Q 2531 2678 2651 2914 
Q 2772 3150 2772 3378 
Q 2772 3750 2511 3984 
Q 2250 4219 1831 4219 
Q 1534 4219 1204 4116 
Q 875 4013 500 3803 
L 500 4441 
Q 881 4594 1212 4672 
Q 1544 4750 1819 4750 
Q 2544 4750 2975 4387 
Q 3406 4025 3406 3419 
Q 3406 3131 3298 2873 
Q 3191 2616 2906 2266 
Q 2828 2175 2409 1742 
Q 1991 1309 1228 531 
z
" transform="scale(0.015625)"/>
       </defs>
       <use xlink:href="#DejaVuSans-32"/>
       <use xlink:href="#DejaVuSans-30" transform="translate(63.623047 0)"/>
       <use xlink:href="#DejaVuSans-30" transform="translate(127.246094 0)"/>
      </g>
     </g>
    </g>
    <g id="xtick_6">
     <g id="line2d_11">
      <path d="M 498.70756 356.477812 
L 498.70756 23.837812 
" clip-path="url(#p321b4b152a)" style="fill: none; stroke: #b0b0b0; stroke-opacity: 0.3; stroke-width: 0.8; stroke-linecap: square"/>
     </g>
     <g id="line2d_12">
      <g>
       <use xlink:href="#m53e9b53a53" x="498.70756" y="356.477812" style="stroke: #000000; stroke-width: 0.8"/>
      </g>
     </g>
     <g id="text_6">
      <!-- 250 -->
      <g transform="translate(489.16381 371.07625) scale(0.1 -0.1)">
       <use xlink:href="#DejaVuSans-32"/>
       <use xlink:href="#DejaVuSans-35" transform="translate(63.623047 0)"/>
       <use xlink:href="#DejaVuSans-30" transform="translate(127.246094 0)"/>
      </g>
     </g>
    </g>
    <g id="xtick_7">
     <g id="line2d_13">
      <path d="M 586.471008 356.477812 
L 586.471008 23.837812 
" clip-path="url(#p321b4b152a)" style="fill: none; stroke: #b0b0b0; stroke-opacity: 0.3; stroke-width: 0.8; stroke-linecap: square"/>
     </g>
     <g id="line2d_14">
      <g>
       <use xlink:href="#m53e9b53a53" x="586.471008" y="356.477812" style="stroke: #000000; stroke-width: 0.8"/>
      </g>
     </g>
     <g id="text_7">
      <!-- 300 -->
      <g transform="translate(576.927258 371.07625) scale(0.1 -0.1)">
       <defs>
        <path id="DejaVuSans-33" d="M 2597 2516 
Q 3050 2419 3304 2112 
Q 3559 1806 3559 1356 
Q 3559 666 3084 287 
Q 2609 -91 1734 -91 
Q 1441 -91 1130 -33 
Q 819 25 488 141 
L 488 750 
Q 750 597 1062 519 
Q 1375 441 1716 441 
Q 2309 441 2620 675 
Q 2931 909 2931 1356 
Q 2931 1769 2642 2001 
Q 2353 2234 1838 2234 
L 1294 2234 
L 1294 2753 
L 1863 2753 
Q 2328 2753 2575 2939 
Q 2822 3125 2822 3475 
Q 2822 3834 2567 4026 
Q 2313 4219 1838 4219 
Q 1578 4219 1281 4162 
Q 984 4106 628 3988 
L 628 4550 
Q 988 4650 1302 4700 
Q 1616 4750 1894 4750 
Q 2613 4750 3031 4423 
Q 3450 4097 3450 3541 
Q 3450 3153 3228 2886 
Q 3006 2619 2597 2516 
z
" transform="scale(0.015625)"/>
       </defs>
       <use xlink:href="#DejaVuSans-33"/>
       <use xlink:href="#DejaVuSans-30" transform="translate(63.623047 0)"/>
       <use xlink:href="#DejaVuSans-30" transform="translate(127.246094 0)"/>
      </g>
     </g>
    </g>
    <g id="text_8">
     <!-- Epoch -->
     <g transform="translate(312.70625 386.274062) scale(0.12 -0.12)">
      <defs>
       <path id="DejaVuSans-45" d="M 628 4666 
L 3578 4666 
L 3578 4134 
L 1259 4134 
L 1259 2753 
L 3481 2753 
L 3481 2222 
L 1259 2222 
L 1259 531 
L 3634 531 
L 3634 0 
L 628 0 
L 628 4666 
z
" transform="scale(0.015625)"/>
       <path id="DejaVuSans-70" d="M 1159 525 
L 1159 -1331 
L 581 -1331 
L 581 3500 
L 1159 3500 
L 1159 2969 
Q 1341 3281 1617 3432 
Q 1894 3584 2278 3584 
Q 2916 3584 3314 3078 
Q 3713 2572 3713 1747 
Q 3713 922 3314 415 
Q 2916 -91 2278 -91 
Q 1894 -91 1617 61 
Q 1341 213 1159 525 
z
M 3116 1747 
Q 3116 2381 2855 2742 
Q 2594 3103 2138 3103 
Q 1681 3103 1420 2742 
Q 1159 2381 1159 1747 
Q 1159 1113 1420 752 
Q 1681 391 2138 391 
Q 2594 391 2855 752 
Q 3116 1113 3116 1747 
z
" transform="scale(0.015625)"/>
       <path id="DejaVuSans-6f" d="M 1959 3097 
Q 1497 3097 1228 2736 
Q 959 2375 959 1747 
Q 959 1119 1226 758 
Q 1494 397 1959 397 
Q 2419 397 2687 759 
Q 2956 1122 2956 1747 
Q 2956 2369 2687 2733 
Q 2419 3097 1959 3097 
z
M 1959 3584 
Q 2709 3584 3137 3096 
Q 3566 2609 3566 1747 
Q 3566 888 3137 398 
Q 2709 -91 1959 -91 
Q 1206 -91 779 398 
Q 353 888 353 1747 
Q 353 2609 779 3096 
Q 1206 3584 1959 3584 
z
" transform="scale(0.015625)"/>
       <path id="DejaVuSans-63" d="M 3122 3366 
L 3122 2828 
Q 2878 2963 2633 3030 
Q 2388 3097 2138 3097 
Q 1578 3097 1268 2742 
Q 959 2388 959 1747 
Q 959 1106 1268 751 
Q 1578 397 2138 397 
Q 2388 397 2633 464 
Q 2878 531 3122 666 
L 3122 134 
Q 2881 22 2623 -34 
Q 2366 -91 2075 -91 
Q 1284 -91 818 406 
Q 353 903 353 1747 
Q 353 2603 823 3093 
Q 1294 3584 2113 3584 
Q 2378 3584 2631 3529 
Q 2884 3475 3122 3366 
z
" transform="scale(0.015625)"/>
       <path id="DejaVuSans-68" d="M 3513 2113 
L 3513 0 
L 2938 0 
L 2938 2094 
Q 2938 2591 2744 2837 
Q 2550 3084 2163 3084 
Q 1697 3084 1428 2787 
Q 1159 2491 1159 1978 
L 1159 0 
L 581 0 
L 581 4863 
L 1159 4863 
L 1159 2956 
Q 1366 3272 1645 3428 
Q 1925 3584 2291 3584 
Q 2894 3584 3203 3211 
Q 3513 2838 3513 2113 
z
" transform="scale(0.015625)"/>
      </defs>
      <use xlink:href="#DejaVuSans-45"/>
      <use xlink:href="#DejaVuSans-70" transform="translate(63.183594 0)"/>
      <use xlink:href="#DejaVuSans-6f" transform="translate(126.660156 0)"/>
      <use xlink:href="#DejaVuSans-63" transform="translate(187.841797 0)"/>
      <use xlink:href="#DejaVuSans-68" transform="translate(242.822266 0)"/>
     </g>
    </g>
   </g>
   <g id="matplotlib.axis_2">
    <g id="ytick_1">
     <g id="line2d_15">
      <path d="M 52.079375 327.264674 
L 610.079375 327.264674 
" clip-path="url(#p321b4b152a)" style="fill: none; stroke: #b0b0b0; stroke-opacity: 0.3; stroke-width: 0.8; stroke-linecap: square"/>
     </g>
     <g id="line2d_16">
      <defs>
       <path id="m3650011a2b" d="M 0 0 
L -3.5 0 
" style="stroke: #000000; stroke-width: 0.8"/>
      </defs>
      <g>
       <use xlink:href="#m3650011a2b" x="52.079375" y="327.264674" style="stroke: #000000; stroke-width: 0.8"/>
      </g>
     </g>
     <g id="text_9">
      <!-- 0.05 -->
      <g transform="translate(22.81375 331.063893) scale(0.1 -0.1)">
       <defs>
        <path id="DejaVuSans-2e" d="M 684 794 
L 1344 794 
L 1344 0 
L 684 0 
L 684 794 
z
" transform="scale(0.015625)"/>
       </defs>
       <use xlink:href="#DejaVuSans-30"/>
       <use xlink:href="#DejaVuSans-2e" transform="translate(63.623047 0)"/>
       <use xlink:href="#DejaVuSans-30" transform="translate(95.410156 0)"/>
       <use xlink:href="#DejaVuSans-35" transform="translate(159.033203 0)"/>
      </g>
     </g>
    </g>
    <g id="ytick_2">
     <g id="line2d_17">
      <path d="M 52.079375 278.824357 
L 610.079375 278.824357 
" clip-path="url(#p321b4b152a)" style="fill: none; stroke: #b0b0b0; stroke-opacity: 0.3; stroke-width: 0.8; stroke-linecap: square"/>
     </g>
     <g id="line2d_18">
      <g>
       <use xlink:href="#m3650011a2b" x="52.079375" y="278.824357" style="stroke: #000000; stroke-width: 0.8"/>
      </g>
     </g>
     <g id="text_10">
      <!-- 0.10 -->
      <g transform="translate(22.81375 282.623576) scale(0.1 -0.1)">
       <use xlink:href="#DejaVuSans-30"/>
       <use xlink:href="#DejaVuSans-2e" transform="translate(63.623047 0)"/>
       <use xlink:href="#DejaVuSans-31" transform="translate(95.410156 0)"/>
       <use xlink:href="#DejaVuSans-30" transform="translate(159.033203 0)"/>
      </g>
     </g>
    </g>
    <g id="ytick_3">
     <g id="line2d_19">
      <path d="M 52.079375 230.384039 
L 610.079375 230.384039 
" clip-path="url(#p321b4b152a)" style="fill: none; stroke: #b0b0b0; stroke-opacity: 0.3; stroke-width: 0.8; stroke-linecap: square"/>
     </g>
     <g id="line2d_20">
      <g>
       <use xlink:href="#m3650011a2b" x="52.079375" y="230.384039" style="stroke: #000000; stroke-width: 0.8"/>
      </g>
     </g>
     <g id="text_11">
      <!-- 0.15 -->
      <g transform="translate(22.81375 234.183258) scale(0.1 -0.1)">
       <use xlink:href="#DejaVuSans-30"/>
       <use xlink:href="#DejaVuSans-2e" transform="translate(63.623047 0)"/>
       <use xlink:href="#DejaVuSans-31" transform="translate(95.410156 0)"/>
       <use xlink:href="#DejaVuSans-35" transform="translate(159.033203 0)"/>
      </g>
     </g>
    </g>
    <g id="ytick_4">
     <g id="line2d_21">
      <path d="M 52.079375 181.943722 
L 610.079375 181.943722 
" clip-path="url(#p321b4b152a)" style="fill: none; stroke: #b0b0b0; stroke-opacity: 0.3; stroke-width: 0.8; stroke-linecap: square"/>
     </g>
     <g id="line2d_22">
      <g>
       <use xlink:href="#m3650011a2b" x="52.079375" y="181.943722" style="stroke: #000000; stroke-width: 0.8"/>
      </g>
     </g>
     <g id="text_12">
      <!-- 0.20 -->
      <g transform="translate(22.81375 185.742941) scale(0.1 -0.1)">
       <use xlink:href="#DejaVuSans-30"/>
       <use xlink:href="#DejaVuSans-2e" transform="translate(63.623047 0)"/>
       <use xlink:href="#DejaVuSans-32" transform="translate(95.410156 0)"/>
       <use xlink:href="#DejaVuSans-30" transform="translate(159.033203 0)"/>
      </g>
     </g>
    </g>
    <g id="ytick_5">
     <g id="line2d_23">
      <path d="M 52.079375 133.503404 
L 610.079375 133.503404 
" clip-path="url(#p321b4b152a)" style="fill: none; stroke: #b0b0b0; stroke-opacity: 0.3; stroke-width: 0.8; stroke-linecap: square"/>
     </g>
     <g id="line2d_24">
      <g>
       <use xlink:href="#m3650011a2b" x="52.079375" y="133.503404" style="stroke: #000000; stroke-width: 0.8"/>
      </g>
     </g>
     <g id="text_13">
      <!-- 0.25 -->
      <g transform="translate(22.81375 137.302623) scale(0.1 -0.1)">
       <use xlink:href="#DejaVuSans-30"/>
       <use xlink:href="#DejaVuSans-2e" transform="translate(63.623047 0)"/>
       <use xlink:href="#DejaVuSans-32" transform="translate(95.410156 0)"/>
       <use xlink:href="#DejaVuSans-35" transform="translate(159.033203 0)"/>
      </g>
     </g>
    </g>
    <g id="ytick_6">
     <g id="line2d_25">
      <path d="M 52.079375 85.063087 
L 610.079375 85.063087 
" clip-path="url(#p321b4b152a)" style="fill: none; stroke: #b0b0b0; stroke-opacity: 0.3; stroke-width: 0.8; stroke-linecap: square"/>
     </g>
     <g id="line2d_26">
      <g>
       <use xlink:href="#m3650011a2b" x="52.079375" y="85.063087" style="stroke: #000000; stroke-width: 0.8"/>
      </g>
     </g>
     <g id="text_14">
      <!-- 0.30 -->
      <g transform="translate(22.81375 88.862306) scale(0.1 -0.1)">
       <use xlink:href="#DejaVuSans-30"/>
       <use xlink:href="#DejaVuSans-2e" transform="translate(63.623047 0)"/>
       <use xlink:href="#DejaVuSans-33" transform="translate(95.410156 0)"/>
       <use xlink:href="#DejaVuSans-30" transform="translate(159.033203 0)"/>
      </g>
     </g>
    </g>
    <g id="ytick_7">
     <g id="line2d_27">
      <path d="M 52.079375 36.62277 
L 610.079375 36.62277 
" clip-path="url(#p321b4b152a)" style="fill: none; stroke: #b0b0b0; stroke-opacity: 0.3; stroke-width: 0.8; stroke-linecap: square"/>
     </g>
     <g id="line2d_28">
      <g>
       <use xlink:href="#m3650011a2b" x="52.079375" y="36.62277" style="stroke: #000000; stroke-width: 0.8"/>
      </g>
     </g>
     <g id="text_15">
      <!-- 0.35 -->
      <g transform="translate(22.81375 40.421988) scale(0.1 -0.1)">
       <use xlink:href="#DejaVuSans-30"/>
       <use xlink:href="#DejaVuSans-2e" transform="translate(63.623047 0)"/>
       <use xlink:href="#DejaVuSans-33" transform="translate(95.410156 0)"/>
       <use xlink:href="#DejaVuSans-35" transform="translate(159.033203 0)"/>
      </g>
     </g>
    </g>
    <g id="text_16">
     <!-- MAE -->
     <g transform="translate(16.318125 203.230312) rotate(-90) scale(0.12 -0.12)">
      <defs>
       <path id="DejaVuSans-4d" d="M 628 4666 
L 1569 4666 
L 2759 1491 
L 3956 4666 
L 4897 4666 
L 4897 0 
L 4281 0 
L 4281 4097 
L 3078 897 
L 2444 897 
L 1241 4097 
L 1241 0 
L 628 0 
L 628 4666 
z
" transform="scale(0.015625)"/>
       <path id="DejaVuSans-41" d="M 2188 4044 
L 1331 1722 
L 3047 1722 
L 2188 4044 
z
M 1831 4666 
L 2547 4666 
L 4325 0 
L 3669 0 
L 3244 1197 
L 1141 1197 
L 716 0 
L 50 0 
L 1831 4666 
z
" transform="scale(0.015625)"/>
      </defs>
      <use xlink:href="#DejaVuSans-4d"/>
      <use xlink:href="#DejaVuSans-41" transform="translate(86.279297 0)"/>
      <use xlink:href="#DejaVuSans-45" transform="translate(154.6875 0)"/>
     </g>
    </g>
   </g>
   <g id="line2d_29">
    <path d="M 77.443011 88.470821 
L 79.19828 99.65239 
L 82.708818 124.491823 
L 84.464087 134.865685 
L 86.219356 142.175546 
L 87.974625 155.518246 
L 89.729894 167.524297 
L 91.485163 177.315659 
L 93.240432 180.040361 
L 94.995701 187.734306 
L 96.75097 200.285793 
L 98.506239 203.8532 
L 100.261508 210.248216 
L 102.016777 210.566763 
L 103.772046 220.058329 
L 105.527315 224.780755 
L 107.282584 231.860705 
L 109.037853 229.705307 
L 110.793121 236.182095 
L 112.54839 240.462075 
L 114.303659 242.22694 
L 116.058928 246.414236 
L 117.814197 247.988677 
L 119.569466 248.843286 
L 121.324735 252.057943 
L 123.080004 253.160914 
L 124.835273 251.333897 
L 126.590542 262.063639 
L 128.345811 262.161172 
L 130.10108 262.817063 
L 131.856349 265.54702 
L 133.611618 267.067775 
L 135.366887 270.006641 
L 137.122156 269.123699 
L 138.877425 269.91171 
L 140.632694 269.702739 
L 142.387963 273.540532 
L 144.143232 276.10104 
L 145.898501 276.625434 
L 147.653769 279.619772 
L 149.409038 279.948574 
L 151.164307 279.055102 
L 152.919576 281.433427 
L 154.674845 285.087342 
L 156.430114 282.085764 
L 158.185383 285.435244 
L 159.940652 285.210319 
L 161.695921 287.879266 
L 163.45119 286.878376 
L 165.206459 288.023371 
L 166.961728 288.175274 
L 168.716997 289.225456 
L 170.472266 292.001127 
L 172.227535 289.770731 
L 173.982804 292.629012 
L 175.738073 293.106622 
L 177.493342 290.972078 
L 179.248611 293.654548 
L 181.00388 293.276398 
L 182.759149 294.190361 
L 184.514417 296.576213 
L 186.269686 297.022113 
L 189.780224 296.844908 
L 193.290762 300.581477 
L 195.046031 299.74584 
L 196.8013 297.432944 
L 198.556569 300.56878 
L 200.311838 300.735485 
L 202.067107 304.105865 
L 203.822376 301.562938 
L 205.577645 302.798871 
L 207.332914 303.791134 
L 209.088183 302.381036 
L 210.843452 306.918995 
L 212.598721 305.015919 
L 214.35399 304.966071 
L 216.109259 306.087035 
L 217.864528 305.08786 
L 219.619797 307.258475 
L 221.375065 308.720365 
L 223.130334 309.854047 
L 224.885603 307.997509 
L 226.640872 308.402802 
L 228.396141 306.590603 
L 230.15141 306.849424 
L 231.906679 310.117283 
L 233.661948 309.344882 
L 235.417217 310.581878 
L 237.172486 310.925844 
L 238.927755 310.797722 
L 240.683024 312.005618 
L 242.438293 311.758035 
L 244.193562 312.63457 
L 245.948831 312.650592 
L 247.7041 314.634349 
L 249.459369 314.498778 
L 251.214638 310.952954 
L 252.969907 313.415058 
L 254.725176 313.300536 
L 256.480445 314.551486 
L 258.235713 314.613762 
L 259.990982 315.485267 
L 261.746251 314.168945 
L 263.50152 316.349312 
L 267.012058 316.490367 
L 268.767327 316.400539 
L 270.522596 315.355757 
L 272.277865 315.170586 
L 274.033134 315.69619 
L 275.788403 316.993695 
L 277.543672 316.729244 
L 279.298941 317.651443 
L 281.05421 318.267977 
L 282.809479 317.582002 
L 284.564748 317.537535 
L 286.320017 320.321845 
L 288.075286 318.243861 
L 289.830555 320.229071 
L 291.585824 319.665101 
L 293.341093 321.097298 
L 295.096361 320.98799 
L 296.85163 319.715379 
L 298.606899 319.844387 
L 300.362168 320.11177 
L 302.117437 320.894714 
L 303.872706 320.990484 
L 305.627975 321.34749 
L 307.383244 321.375207 
L 309.138513 322.540945 
L 310.893782 321.556892 
L 312.649051 322.281585 
L 314.40432 321.541562 
L 316.159589 321.255503 
L 317.914858 323.190026 
L 319.670127 324.602538 
L 321.425396 323.745028 
L 323.180665 324.159039 
L 324.935934 322.656925 
L 326.691203 323.775938 
L 328.446472 322.253828 
L 330.201741 323.774103 
L 331.957009 324.949335 
L 333.712278 324.217405 
L 335.467547 325.441853 
L 337.222816 324.651268 
L 340.733354 325.622234 
L 342.488623 326.311679 
L 344.243892 325.287418 
L 345.999161 326.437922 
L 347.75443 326.700838 
L 349.509699 325.465824 
L 351.264968 324.445542 
L 353.020237 324.635874 
L 354.775506 326.88446 
L 356.530775 326.633381 
L 358.286044 326.029023 
L 360.041313 327.059475 
L 363.551851 327.122303 
L 365.30712 326.326763 
L 367.062389 326.292975 
L 368.817657 325.59063 
L 370.572926 328.404308 
L 372.328195 327.901722 
L 374.083464 327.671269 
L 375.838733 328.696408 
L 377.594002 327.480412 
L 379.349271 329.184278 
L 381.10454 328.988653 
L 382.859809 327.583027 
L 384.615078 328.833186 
L 386.370347 328.17996 
L 388.125616 330.23582 
L 389.880885 330.864713 
L 391.636154 330.50647 
L 393.391423 329.595571 
L 395.146692 330.234964 
L 398.65723 330.275768 
L 400.412499 329.624671 
L 402.167768 331.38023 
L 403.923037 330.27071 
L 405.678305 331.951069 
L 407.433574 331.691021 
L 409.188843 332.443955 
L 410.944112 330.046553 
L 412.699381 328.70427 
L 414.45465 331.040806 
L 417.965188 331.340895 
L 419.720457 331.807983 
L 421.475726 332.851417 
L 423.230995 332.887036 
L 424.986264 331.710273 
L 426.741533 333.364721 
L 428.496802 333.828789 
L 430.252071 333.943667 
L 432.00734 333.720077 
L 433.762609 333.899041 
L 435.517878 333.091956 
L 437.273147 333.418447 
L 439.028416 333.11599 
L 440.783685 334.34397 
L 442.538953 332.305313 
L 444.294222 333.666693 
L 446.049491 333.540987 
L 447.80476 332.441028 
L 449.560029 334.207914 
L 451.315298 333.447294 
L 453.070567 333.993049 
L 454.825836 335.59188 
L 456.581105 333.062417 
L 458.336374 335.232372 
L 460.091643 334.716414 
L 461.846912 334.988884 
L 463.602181 334.978241 
L 465.35745 335.934356 
L 467.112719 334.326228 
L 468.867988 335.583893 
L 470.623257 332.936503 
L 472.378526 336.628173 
L 474.133795 334.607812 
L 475.889064 335.954946 
L 477.644333 335.893029 
L 479.399601 334.977935 
L 481.15487 336.667441 
L 482.910139 336.160837 
L 484.665408 335.838971 
L 486.420677 335.730795 
L 488.175946 336.129192 
L 489.931215 335.764092 
L 491.686484 336.187981 
L 493.441753 337.743837 
L 495.197022 336.251065 
L 496.952291 335.999672 
L 498.70756 337.476321 
L 500.462829 337.028637 
L 502.218098 336.964133 
L 503.973367 335.951138 
L 505.728636 337.233723 
L 507.483905 337.423581 
L 509.239174 337.322136 
L 510.994443 336.554805 
L 512.749712 337.048515 
L 514.504981 338.385438 
L 516.260249 337.026247 
L 518.015518 336.37623 
L 519.770787 337.142451 
L 521.526056 338.031202 
L 523.281325 338.003655 
L 525.036594 338.690369 
L 526.791863 337.665195 
L 528.547132 337.456687 
L 530.302401 337.958846 
L 532.05767 337.301044 
L 533.812939 338.570615 
L 537.323477 339.057927 
L 539.078746 339.572177 
L 540.834015 339.05022 
L 542.589284 338.408152 
L 544.344553 338.517976 
L 546.099822 338.410457 
L 547.855091 338.442026 
L 549.61036 339.183753 
L 551.365629 339.129399 
L 553.120897 337.418644 
L 554.876166 338.841366 
L 556.631435 338.934255 
L 558.386704 339.660457 
L 560.141973 340.098536 
L 563.652511 339.49578 
L 565.40778 339.476929 
L 567.163049 340.069886 
L 568.918318 339.520352 
L 570.673587 339.560072 
L 572.428856 339.041257 
L 574.184125 340.263741 
L 575.939394 340.37417 
L 577.694663 339.239941 
L 581.205201 341.357812 
L 582.96047 339.768203 
L 584.715739 338.970438 
L 584.715739 338.970438 
" clip-path="url(#p321b4b152a)" style="fill: none; stroke: #0000ff; stroke-width: 2; stroke-linecap: square"/>
   </g>
   <g id="line2d_30">
    <path d="M 77.443011 56.933209 
L 79.19828 56.664577 
L 80.953549 38.957812 
L 82.708818 52.344982 
L 84.464087 70.04147 
L 87.974625 55.96196 
L 89.729894 74.412938 
L 91.485163 66.848398 
L 93.240432 65.154483 
L 94.995701 68.529435 
L 96.75097 80.422842 
L 98.506239 72.519054 
L 100.261508 75.813164 
L 102.016777 80.323947 
L 103.772046 82.965003 
L 105.527315 76.381619 
L 107.282584 72.102719 
L 109.037853 54.847587 
L 110.793121 91.88578 
L 112.54839 79.592709 
L 114.303659 81.992978 
L 116.058928 85.650259 
L 119.569466 72.193508 
L 121.324735 92.676431 
L 123.080004 79.787913 
L 124.835273 86.508265 
L 126.590542 89.010672 
L 128.345811 89.82949 
L 130.10108 89.57602 
L 131.856349 74.023453 
L 133.611618 93.840087 
L 135.366887 91.136083 
L 137.122156 82.758818 
L 138.877425 89.509804 
L 140.632694 83.023474 
L 142.387963 97.08877 
L 144.143232 95.703313 
L 145.898501 90.63387 
L 147.653769 90.342227 
L 149.409038 88.592183 
L 151.164307 84.465998 
L 152.919576 97.729589 
L 154.674845 81.111503 
L 156.430114 95.307185 
L 158.185383 78.101903 
L 159.940652 88.06813 
L 161.695921 97.343725 
L 163.45119 86.447539 
L 165.206459 86.878319 
L 166.961728 99.596499 
L 168.716997 97.650221 
L 170.472266 88.233366 
L 172.227535 84.383016 
L 173.982804 97.004854 
L 175.738073 101.66598 
L 177.493342 96.181501 
L 179.248611 97.430126 
L 181.00388 98.475111 
L 182.759149 99.338562 
L 184.514417 100.330104 
L 186.269686 103.157031 
L 188.024955 98.457905 
L 189.780224 97.304161 
L 191.535493 95.802641 
L 193.290762 92.239316 
L 195.046031 95.010532 
L 196.8013 99.675273 
L 198.556569 99.873012 
L 200.311838 93.659278 
L 202.067107 99.755635 
L 203.822376 95.305005 
L 205.577645 96.583598 
L 207.332914 98.149574 
L 209.088183 99.024986 
L 210.843452 104.197932 
L 212.598721 96.09287 
L 214.35399 96.515029 
L 217.864528 99.891694 
L 219.619797 101.238626 
L 221.375065 97.608214 
L 223.130334 100.48716 
L 224.885603 96.626688 
L 226.640872 101.231687 
L 228.396141 104.80745 
L 230.15141 98.658861 
L 231.906679 99.882758 
L 233.661948 91.077574 
L 235.417217 97.189313 
L 237.172486 100.146988 
L 238.927755 104.86477 
L 240.683024 104.422477 
L 242.438293 98.438767 
L 244.193562 101.949071 
L 245.948831 97.701074 
L 247.7041 106.485678 
L 249.459369 103.351426 
L 251.214638 104.677929 
L 252.969907 103.265125 
L 254.725176 101.147495 
L 256.480445 103.805143 
L 258.235713 98.57694 
L 259.990982 96.846371 
L 261.746251 103.644883 
L 263.50152 103.91094 
L 265.256789 98.701952 
L 267.012058 104.416276 
L 268.767327 92.913006 
L 270.522596 101.710268 
L 272.277865 102.56718 
L 274.033134 99.340964 
L 275.788403 97.094361 
L 277.543672 100.481781 
L 279.298941 100.4469 
L 281.05421 102.948563 
L 282.809479 104.083835 
L 284.564748 105.457142 
L 286.320017 106.299296 
L 288.075286 103.417507 
L 289.830555 104.418398 
L 291.585824 104.847904 
L 293.341093 104.406891 
L 295.096361 101.811863 
L 296.85163 105.831825 
L 298.606899 106.294361 
L 300.362168 104.756152 
L 302.117437 105.900609 
L 303.872706 102.845788 
L 305.627975 104.885723 
L 307.383244 105.245501 
L 309.138513 100.972706 
L 314.40432 103.292064 
L 316.159589 101.846044 
L 317.914858 101.095359 
L 319.670127 101.992335 
L 321.425396 106.837563 
L 323.180665 106.478535 
L 324.935934 103.303203 
L 326.691203 107.0692 
L 328.446472 108.885394 
L 330.201741 107.096404 
L 331.957009 106.541872 
L 333.712278 107.333382 
L 335.467547 108.692146 
L 337.222816 107.70066 
L 338.978085 108.965143 
L 340.733354 108.827854 
L 342.488623 107.276238 
L 344.243892 106.613308 
L 345.999161 105.560167 
L 347.75443 109.205001 
L 349.509699 106.739988 
L 351.264968 107.4005 
L 353.020237 99.743959 
L 354.775506 102.304066 
L 356.530775 110.229498 
L 358.286044 103.611164 
L 360.041313 105.031371 
L 361.796582 104.753409 
L 363.551851 107.142234 
L 365.30712 109.799834 
L 367.062389 110.773486 
L 368.817657 110.153506 
L 370.572926 108.581882 
L 374.083464 109.865666 
L 375.838733 108.870866 
L 377.594002 107.22096 
L 379.349271 106.296937 
L 381.10454 102.590016 
L 382.859809 108.540878 
L 384.615078 109.198193 
L 386.370347 103.322921 
L 388.125616 102.841515 
L 389.880885 107.776452 
L 391.636154 104.541915 
L 393.391423 106.491384 
L 395.146692 110.448848 
L 396.901961 103.355569 
L 398.65723 107.090499 
L 400.412499 107.982206 
L 402.167768 106.170871 
L 403.923037 106.753808 
L 405.678305 105.739594 
L 407.433574 107.007996 
L 409.188843 103.324614 
L 410.944112 105.653332 
L 412.699381 104.148145 
L 414.45465 109.303978 
L 416.209919 108.473066 
L 417.965188 109.974132 
L 419.720457 110.184118 
L 421.475726 107.180436 
L 423.230995 109.597539 
L 424.986264 108.07023 
L 426.741533 106.783787 
L 428.496802 110.119088 
L 430.252071 108.971383 
L 432.00734 108.600308 
L 433.762609 109.175096 
L 435.517878 107.096056 
L 437.273147 110.863651 
L 439.028416 107.281821 
L 440.783685 110.91402 
L 442.538953 109.396987 
L 444.294222 108.708513 
L 446.049491 106.726457 
L 447.80476 109.585444 
L 449.560029 110.5197 
L 451.315298 108.835656 
L 453.070567 112.244567 
L 454.825836 110.572181 
L 456.581105 107.117104 
L 458.336374 109.796335 
L 460.091643 104.555027 
L 461.846912 109.268188 
L 463.602181 108.681955 
L 465.35745 110.905888 
L 467.112719 107.635592 
L 468.867988 109.959967 
L 470.623257 110.339008 
L 472.378526 106.599608 
L 474.133795 103.676563 
L 475.889064 108.392199 
L 477.644333 101.460138 
L 479.399601 108.358089 
L 481.15487 108.615062 
L 482.910139 110.654417 
L 484.665408 106.247679 
L 486.420677 110.149694 
L 488.175946 107.69933 
L 489.931215 109.418656 
L 491.686484 112.464203 
L 493.441753 111.10343 
L 495.197022 111.980832 
L 496.952291 105.153587 
L 498.70756 112.164104 
L 500.462829 110.290895 
L 502.218098 108.931071 
L 503.973367 111.331919 
L 505.728636 111.11005 
L 507.483905 109.734196 
L 509.239174 113.24695 
L 510.994443 107.803327 
L 512.749712 111.428859 
L 514.504981 105.318933 
L 516.260249 109.918178 
L 518.015518 110.178844 
L 519.770787 108.094785 
L 521.526056 107.281586 
L 523.281325 107.079629 
L 525.036594 106.082784 
L 526.791863 105.326569 
L 528.547132 109.596418 
L 530.302401 107.311891 
L 532.05767 108.727605 
L 533.812939 111.637436 
L 535.568208 106.161058 
L 537.323477 109.691071 
L 539.078746 111.099759 
L 542.589284 112.540438 
L 544.344553 106.979837 
L 546.099822 108.959571 
L 547.855091 109.101209 
L 549.61036 109.661916 
L 551.365629 108.946445 
L 553.120897 110.623057 
L 554.876166 109.74832 
L 556.631435 107.975656 
L 558.386704 109.550552 
L 560.141973 107.954761 
L 561.897242 112.269211 
L 563.652511 110.558736 
L 565.40778 108.004717 
L 567.163049 109.515853 
L 568.918318 105.765377 
L 570.673587 107.855284 
L 572.428856 104.623333 
L 574.184125 110.125886 
L 575.939394 105.29758 
L 577.694663 109.449539 
L 579.449932 109.010673 
L 582.96047 103.619313 
L 584.715739 111.867458 
L 584.715739 111.867458 
" clip-path="url(#p321b4b152a)" style="fill: none; stroke: #ffa500; stroke-width: 2; stroke-linecap: square"/>
   </g>
   <g id="line2d_31">
    <path d="M 52.079375 100.995509 
L 610.079375 100.995509 
" clip-path="url(#p321b4b152a)" style="fill: none; stroke-dasharray: 7.4,3.2; stroke-dashoffset: 0; stroke: #ff0000; stroke-width: 2"/>
   </g>
   <g id="patch_3">
    <path d="M 52.079375 356.477812 
L 52.079375 23.837812 
" style="fill: none; stroke: #000000; stroke-width: 0.8; stroke-linejoin: miter; stroke-linecap: square"/>
   </g>
   <g id="patch_4">
    <path d="M 610.079375 356.477812 
L 610.079375 23.837812 
" style="fill: none; stroke: #000000; stroke-width: 0.8; stroke-linejoin: miter; stroke-linecap: square"/>
   </g>
   <g id="patch_5">
    <path d="M 52.079375 356.477812 
L 610.079375 356.477812 
" style="fill: none; stroke: #000000; stroke-width: 0.8; stroke-linejoin: miter; stroke-linecap: square"/>
   </g>
   <g id="patch_6">
    <path d="M 52.079375 23.837812 
L 610.079375 23.837812 
" style="fill: none; stroke: #000000; stroke-width: 0.8; stroke-linejoin: miter; stroke-linecap: square"/>
   </g>
   <g id="text_17">
    <!-- Training vs Validation MAE - ALIGNN (Zoomed) -->
    <g transform="translate(168.9375 17.837812) scale(0.14 -0.14)">
     <defs>
      <path id="DejaVuSans-54" d="M -19 4666 
L 3928 4666 
L 3928 4134 
L 2272 4134 
L 2272 0 
L 1638 0 
L 1638 4134 
L -19 4134 
L -19 4666 
z
" transform="scale(0.015625)"/>
      <path id="DejaVuSans-72" d="M 2631 2963 
Q 2534 3019 2420 3045 
Q 2306 3072 2169 3072 
Q 1681 3072 1420 2755 
Q 1159 2438 1159 1844 
L 1159 0 
L 581 0 
L 581 3500 
L 1159 3500 
L 1159 2956 
Q 1341 3275 1631 3429 
Q 1922 3584 2338 3584 
Q 2397 3584 2469 3576 
Q 2541 3569 2628 3553 
L 2631 2963 
z
" transform="scale(0.015625)"/>
      <path id="DejaVuSans-61" d="M 2194 1759 
Q 1497 1759 1228 1600 
Q 959 1441 959 1056 
Q 959 750 1161 570 
Q 1363 391 1709 391 
Q 2188 391 2477 730 
Q 2766 1069 2766 1631 
L 2766 1759 
L 2194 1759 
z
M 3341 1997 
L 3341 0 
L 2766 0 
L 2766 531 
Q 2569 213 2275 61 
Q 1981 -91 1556 -91 
Q 1019 -91 701 211 
Q 384 513 384 1019 
Q 384 1609 779 1909 
Q 1175 2209 1959 2209 
L 2766 2209 
L 2766 2266 
Q 2766 2663 2505 2880 
Q 2244 3097 1772 3097 
Q 1472 3097 1187 3025 
Q 903 2953 641 2809 
L 641 3341 
Q 956 3463 1253 3523 
Q 1550 3584 1831 3584 
Q 2591 3584 2966 3190 
Q 3341 2797 3341 1997 
z
" transform="scale(0.015625)"/>
      <path id="DejaVuSans-69" d="M 603 3500 
L 1178 3500 
L 1178 0 
L 603 0 
L 603 3500 
z
M 603 4863 
L 1178 4863 
L 1178 4134 
L 603 4134 
L 603 4863 
z
" transform="scale(0.015625)"/>
      <path id="DejaVuSans-6e" d="M 3513 2113 
L 3513 0 
L 2938 0 
L 2938 2094 
Q 2938 2591 2744 2837 
Q 2550 3084 2163 3084 
Q 1697 3084 1428 2787 
Q 1159 2491 1159 1978 
L 1159 0 
L 581 0 
L 581 3500 
L 1159 3500 
L 1159 2956 
Q 1366 3272 1645 3428 
Q 1925 3584 2291 3584 
Q 2894 3584 3203 3211 
Q 3513 2838 3513 2113 
z
" transform="scale(0.015625)"/>
      <path id="DejaVuSans-67" d="M 2906 1791 
Q 2906 2416 2648 2759 
Q 2391 3103 1925 3103 
Q 1463 3103 1205 2759 
Q 947 2416 947 1791 
Q 947 1169 1205 825 
Q 1463 481 1925 481 
Q 2391 481 2648 825 
Q 2906 1169 2906 1791 
z
M 3481 434 
Q 3481 -459 3084 -895 
Q 2688 -1331 1869 -1331 
Q 1566 -1331 1297 -1286 
Q 1028 -1241 775 -1147 
L 775 -588 
Q 1028 -725 1275 -790 
Q 1522 -856 1778 -856 
Q 2344 -856 2625 -561 
Q 2906 -266 2906 331 
L 2906 616 
Q 2728 306 2450 153 
Q 2172 0 1784 0 
Q 1141 0 747 490 
Q 353 981 353 1791 
Q 353 2603 747 3093 
Q 1141 3584 1784 3584 
Q 2172 3584 2450 3431 
Q 2728 3278 2906 2969 
L 2906 3500 
L 3481 3500 
L 3481 434 
z
" transform="scale(0.015625)"/>
      <path id="DejaVuSans-20" transform="scale(0.015625)"/>
      <path id="DejaVuSans-76" d="M 191 3500 
L 800 3500 
L 1894 563 
L 2988 3500 
L 3597 3500 
L 2284 0 
L 1503 0 
L 191 3500 
z
" transform="scale(0.015625)"/>
      <path id="DejaVuSans-73" d="M 2834 3397 
L 2834 2853 
Q 2591 2978 2328 3040 
Q 2066 3103 1784 3103 
Q 1356 3103 1142 2972 
Q 928 2841 928 2578 
Q 928 2378 1081 2264 
Q 1234 2150 1697 2047 
L 1894 2003 
Q 2506 1872 2764 1633 
Q 3022 1394 3022 966 
Q 3022 478 2636 193 
Q 2250 -91 1575 -91 
Q 1294 -91 989 -36 
Q 684 19 347 128 
L 347 722 
Q 666 556 975 473 
Q 1284 391 1588 391 
Q 1994 391 2212 530 
Q 2431 669 2431 922 
Q 2431 1156 2273 1281 
Q 2116 1406 1581 1522 
L 1381 1569 
Q 847 1681 609 1914 
Q 372 2147 372 2553 
Q 372 3047 722 3315 
Q 1072 3584 1716 3584 
Q 2034 3584 2315 3537 
Q 2597 3491 2834 3397 
z
" transform="scale(0.015625)"/>
      <path id="DejaVuSans-56" d="M 1831 0 
L 50 4666 
L 709 4666 
L 2188 738 
L 3669 4666 
L 4325 4666 
L 2547 0 
L 1831 0 
z
" transform="scale(0.015625)"/>
      <path id="DejaVuSans-6c" d="M 603 4863 
L 1178 4863 
L 1178 0 
L 603 0 
L 603 4863 
z
" transform="scale(0.015625)"/>
      <path id="DejaVuSans-64" d="M 2906 2969 
L 2906 4863 
L 3481 4863 
L 3481 0 
L 2906 0 
L 2906 525 
Q 2725 213 2448 61 
Q 2172 -91 1784 -91 
Q 1150 -91 751 415 
Q 353 922 353 1747 
Q 353 2572 751 3078 
Q 1150 3584 1784 3584 
Q 2172 3584 2448 3432 
Q 2725 3281 2906 2969 
z
M 947 1747 
Q 947 1113 1208 752 
Q 1469 391 1925 391 
Q 2381 391 2643 752 
Q 2906 1113 2906 1747 
Q 2906 2381 2643 2742 
Q 2381 3103 1925 3103 
Q 1469 3103 1208 2742 
Q 947 2381 947 1747 
z
" transform="scale(0.015625)"/>
      <path id="DejaVuSans-74" d="M 1172 4494 
L 1172 3500 
L 2356 3500 
L 2356 3053 
L 1172 3053 
L 1172 1153 
Q 1172 725 1289 603 
Q 1406 481 1766 481 
L 2356 481 
L 2356 0 
L 1766 0 
Q 1100 0 847 248 
Q 594 497 594 1153 
L 594 3053 
L 172 3053 
L 172 3500 
L 594 3500 
L 594 4494 
L 1172 4494 
z
" transform="scale(0.015625)"/>
      <path id="DejaVuSans-2d" d="M 313 2009 
L 1997 2009 
L 1997 1497 
L 313 1497 
L 313 2009 
z
" transform="scale(0.015625)"/>
      <path id="DejaVuSans-4c" d="M 628 4666 
L 1259 4666 
L 1259 531 
L 3531 531 
L 3531 0 
L 628 0 
L 628 4666 
z
" transform="scale(0.015625)"/>
      <path id="DejaVuSans-49" d="M 628 4666 
L 1259 4666 
L 1259 0 
L 628 0 
L 628 4666 
z
" transform="scale(0.015625)"/>
      <path id="DejaVuSans-47" d="M 3809 666 
L 3809 1919 
L 2778 1919 
L 2778 2438 
L 4434 2438 
L 4434 434 
Q 4069 175 3628 42 
Q 3188 -91 2688 -91 
Q 1594 -91 976 548 
Q 359 1188 359 2328 
Q 359 3472 976 4111 
Q 1594 4750 2688 4750 
Q 3144 4750 3555 4637 
Q 3966 4525 4313 4306 
L 4313 3634 
Q 3963 3931 3569 4081 
Q 3175 4231 2741 4231 
Q 1884 4231 1454 3753 
Q 1025 3275 1025 2328 
Q 1025 1384 1454 906 
Q 1884 428 2741 428 
Q 3075 428 3337 486 
Q 3600 544 3809 666 
z
" transform="scale(0.015625)"/>
      <path id="DejaVuSans-4e" d="M 628 4666 
L 1478 4666 
L 3547 763 
L 3547 4666 
L 4159 4666 
L 4159 0 
L 3309 0 
L 1241 3903 
L 1241 0 
L 628 0 
L 628 4666 
z
" transform="scale(0.015625)"/>
      <path id="DejaVuSans-28" d="M 1984 4856 
Q 1566 4138 1362 3434 
Q 1159 2731 1159 2009 
Q 1159 1288 1364 580 
Q 1569 -128 1984 -844 
L 1484 -844 
Q 1016 -109 783 600 
Q 550 1309 550 2009 
Q 550 2706 781 3412 
Q 1013 4119 1484 4856 
L 1984 4856 
z
" transform="scale(0.015625)"/>
      <path id="DejaVuSans-5a" d="M 359 4666 
L 4025 4666 
L 4025 4184 
L 1075 531 
L 4097 531 
L 4097 0 
L 288 0 
L 288 481 
L 3238 4134 
L 359 4134 
L 359 4666 
z
" transform="scale(0.015625)"/>
      <path id="DejaVuSans-6d" d="M 3328 2828 
Q 3544 3216 3844 3400 
Q 4144 3584 4550 3584 
Q 5097 3584 5394 3201 
Q 5691 2819 5691 2113 
L 5691 0 
L 5113 0 
L 5113 2094 
Q 5113 2597 4934 2840 
Q 4756 3084 4391 3084 
Q 3944 3084 3684 2787 
Q 3425 2491 3425 1978 
L 3425 0 
L 2847 0 
L 2847 2094 
Q 2847 2600 2669 2842 
Q 2491 3084 2119 3084 
Q 1678 3084 1418 2786 
Q 1159 2488 1159 1978 
L 1159 0 
L 581 0 
L 581 3500 
L 1159 3500 
L 1159 2956 
Q 1356 3278 1631 3431 
Q 1906 3584 2284 3584 
Q 2666 3584 2933 3390 
Q 3200 3197 3328 2828 
z
" transform="scale(0.015625)"/>
      <path id="DejaVuSans-65" d="M 3597 1894 
L 3597 1613 
L 953 1613 
Q 991 1019 1311 708 
Q 1631 397 2203 397 
Q 2534 397 2845 478 
Q 3156 559 3463 722 
L 3463 178 
Q 3153 47 2828 -22 
Q 2503 -91 2169 -91 
Q 1331 -91 842 396 
Q 353 884 353 1716 
Q 353 2575 817 3079 
Q 1281 3584 2069 3584 
Q 2775 3584 3186 3129 
Q 3597 2675 3597 1894 
z
M 3022 2063 
Q 3016 2534 2758 2815 
Q 2500 3097 2075 3097 
Q 1594 3097 1305 2825 
Q 1016 2553 972 2059 
L 3022 2063 
z
" transform="scale(0.015625)"/>
      <path id="DejaVuSans-29" d="M 513 4856 
L 1013 4856 
Q 1481 4119 1714 3412 
Q 1947 2706 1947 2009 
Q 1947 1309 1714 600 
Q 1481 -109 1013 -844 
L 513 -844 
Q 928 -128 1133 580 
Q 1338 1288 1338 2009 
Q 1338 2731 1133 3434 
Q 928 4138 513 4856 
z
" transform="scale(0.015625)"/>
     </defs>
     <use xlink:href="#DejaVuSans-54"/>
     <use xlink:href="#DejaVuSans-72" transform="translate(46.333984 0)"/>
     <use xlink:href="#DejaVuSans-61" transform="translate(87.447266 0)"/>
     <use xlink:href="#DejaVuSans-69" transform="translate(148.726562 0)"/>
     <use xlink:href="#DejaVuSans-6e" transform="translate(176.509766 0)"/>
     <use xlink:href="#DejaVuSans-69" transform="translate(239.888672 0)"/>
     <use xlink:href="#DejaVuSans-6e" transform="translate(267.671875 0)"/>
     <use xlink:href="#DejaVuSans-67" transform="translate(331.050781 0)"/>
     <use xlink:href="#DejaVuSans-20" transform="translate(394.527344 0)"/>
     <use xlink:href="#DejaVuSans-76" transform="translate(426.314453 0)"/>
     <use xlink:href="#DejaVuSans-73" transform="translate(485.494141 0)"/>
     <use xlink:href="#DejaVuSans-20" transform="translate(537.59375 0)"/>
     <use xlink:href="#DejaVuSans-56" transform="translate(569.380859 0)"/>
     <use xlink:href="#DejaVuSans-61" transform="translate(630.039062 0)"/>
     <use xlink:href="#DejaVuSans-6c" transform="translate(691.318359 0)"/>
     <use xlink:href="#DejaVuSans-69" transform="translate(719.101562 0)"/>
     <use xlink:href="#DejaVuSans-64" transform="translate(746.884766 0)"/>
     <use xlink:href="#DejaVuSans-61" transform="translate(810.361328 0)"/>
     <use xlink:href="#DejaVuSans-74" transform="translate(871.640625 0)"/>
     <use xlink:href="#DejaVuSans-69" transform="translate(910.849609 0)"/>
     <use xlink:href="#DejaVuSans-6f" transform="translate(938.632812 0)"/>
     <use xlink:href="#DejaVuSans-6e" transform="translate(999.814453 0)"/>
     <use xlink:href="#DejaVuSans-20" transform="translate(1063.193359 0)"/>
     <use xlink:href="#DejaVuSans-4d" transform="translate(1094.980469 0)"/>
     <use xlink:href="#DejaVuSans-41" transform="translate(1181.259766 0)"/>
     <use xlink:href="#DejaVuSans-45" transform="translate(1249.667969 0)"/>
     <use xlink:href="#DejaVuSans-20" transform="translate(1312.851562 0)"/>
     <use xlink:href="#DejaVuSans-2d" transform="translate(1344.638672 0)"/>
     <use xlink:href="#DejaVuSans-20" transform="translate(1380.722656 0)"/>
     <use xlink:href="#DejaVuSans-41" transform="translate(1412.509766 0)"/>
     <use xlink:href="#DejaVuSans-4c" transform="translate(1480.917969 0)"/>
     <use xlink:href="#DejaVuSans-49" transform="translate(1536.630859 0)"/>
     <use xlink:href="#DejaVuSans-47" transform="translate(1566.123047 0)"/>
     <use xlink:href="#DejaVuSans-4e" transform="translate(1643.613281 0)"/>
     <use xlink:href="#DejaVuSans-4e" transform="translate(1718.417969 0)"/>
     <use xlink:href="#DejaVuSans-20" transform="translate(1793.222656 0)"/>
     <use xlink:href="#DejaVuSans-28" transform="translate(1825.009766 0)"/>
     <use xlink:href="#DejaVuSans-5a" transform="translate(1864.023438 0)"/>
     <use xlink:href="#DejaVuSans-6f" transform="translate(1932.529297 0)"/>
     <use xlink:href="#DejaVuSans-6f" transform="translate(1993.710938 0)"/>
     <use xlink:href="#DejaVuSans-6d" transform="translate(2054.892578 0)"/>
     <use xlink:href="#DejaVuSans-65" transform="translate(2152.304688 0)"/>
     <use xlink:href="#DejaVuSans-64" transform="translate(2213.828125 0)"/>
     <use xlink:href="#DejaVuSans-29" transform="translate(2277.304688 0)"/>
    </g>
   </g>
   <g id="legend_1">
    <g id="patch_7">
     <path d="M 463.358281 81.075625 
L 602.379375 81.075625 
Q 604.579375 81.075625 604.579375 78.875625 
L 604.579375 31.537812 
Q 604.579375 29.337812 602.379375 29.337812 
L 463.358281 29.337812 
Q 461.158281 29.337812 461.158281 31.537812 
L 461.158281 78.875625 
Q 461.158281 81.075625 463.358281 81.075625 
z
" style="fill: #ffffff; opacity: 0.8; stroke: #cccccc; stroke-linejoin: miter"/>
    </g>
    <g id="line2d_32">
     <path d="M 465.558281 38.246094 
L 476.558281 38.246094 
L 487.558281 38.246094 
" style="fill: none; stroke: #0000ff; stroke-width: 2; stroke-linecap: square"/>
    </g>
    <g id="text_18">
     <!-- Train -->
     <g transform="translate(496.358281 42.096094) scale(0.11 -0.11)">
      <use xlink:href="#DejaVuSans-54"/>
      <use xlink:href="#DejaVuSans-72" transform="translate(46.333984 0)"/>
      <use xlink:href="#DejaVuSans-61" transform="translate(87.447266 0)"/>
      <use xlink:href="#DejaVuSans-69" transform="translate(148.726562 0)"/>
      <use xlink:href="#DejaVuSans-6e" transform="translate(176.509766 0)"/>
     </g>
    </g>
    <g id="line2d_33">
     <path d="M 465.558281 54.392031 
L 476.558281 54.392031 
L 487.558281 54.392031 
" style="fill: none; stroke: #ffa500; stroke-width: 2; stroke-linecap: square"/>
    </g>
    <g id="text_19">
     <!-- Validation -->
     <g transform="translate(496.358281 58.242031) scale(0.11 -0.11)">
      <use xlink:href="#DejaVuSans-56"/>
      <use xlink:href="#DejaVuSans-61" transform="translate(60.658203 0)"/>
      <use xlink:href="#DejaVuSans-6c" transform="translate(121.9375 0)"/>
      <use xlink:href="#DejaVuSans-69" transform="translate(149.720703 0)"/>
      <use xlink:href="#DejaVuSans-64" transform="translate(177.503906 0)"/>
      <use xlink:href="#DejaVuSans-61" transform="translate(240.980469 0)"/>
      <use xlink:href="#DejaVuSans-74" transform="translate(302.259766 0)"/>
      <use xlink:href="#DejaVuSans-69" transform="translate(341.46875 0)"/>
      <use xlink:href="#DejaVuSans-6f" transform="translate(369.251953 0)"/>
      <use xlink:href="#DejaVuSans-6e" transform="translate(430.433594 0)"/>
     </g>
    </g>
    <g id="line2d_34">
     <path d="M 465.558281 70.537969 
L 476.558281 70.537969 
L 487.558281 70.537969 
" style="fill: none; stroke-dasharray: 7.4,3.2; stroke-dashoffset: 0; stroke: #ff0000; stroke-width: 2"/>
    </g>
    <g id="text_20">
     <!-- Test MAE = 0.2836 -->
     <g transform="translate(496.358281 74.387969) scale(0.11 -0.11)">
      <defs>
       <path id="DejaVuSans-3d" d="M 678 2906 
L 4684 2906 
L 4684 2381 
L 678 2381 
L 678 2906 
z
M 678 1631 
L 4684 1631 
L 4684 1100 
L 678 1100 
L 678 1631 
z
" transform="scale(0.015625)"/>
       <path id="DejaVuSans-38" d="M 2034 2216 
Q 1584 2216 1326 1975 
Q 1069 1734 1069 1313 
Q 1069 891 1326 650 
Q 1584 409 2034 409 
Q 2484 409 2743 651 
Q 3003 894 3003 1313 
Q 3003 1734 2745 1975 
Q 2488 2216 2034 2216 
z
M 1403 2484 
Q 997 2584 770 2862 
Q 544 3141 544 3541 
Q 544 4100 942 4425 
Q 1341 4750 2034 4750 
Q 2731 4750 3128 4425 
Q 3525 4100 3525 3541 
Q 3525 3141 3298 2862 
Q 3072 2584 2669 2484 
Q 3125 2378 3379 2068 
Q 3634 1759 3634 1313 
Q 3634 634 3220 271 
Q 2806 -91 2034 -91 
Q 1263 -91 848 271 
Q 434 634 434 1313 
Q 434 1759 690 2068 
Q 947 2378 1403 2484 
z
M 1172 3481 
Q 1172 3119 1398 2916 
Q 1625 2713 2034 2713 
Q 2441 2713 2670 2916 
Q 2900 3119 2900 3481 
Q 2900 3844 2670 4047 
Q 2441 4250 2034 4250 
Q 1625 4250 1398 4047 
Q 1172 3844 1172 3481 
z
" transform="scale(0.015625)"/>
       <path id="DejaVuSans-36" d="M 2113 2584 
Q 1688 2584 1439 2293 
Q 1191 2003 1191 1497 
Q 1191 994 1439 701 
Q 1688 409 2113 409 
Q 2538 409 2786 701 
Q 3034 994 3034 1497 
Q 3034 2003 2786 2293 
Q 2538 2584 2113 2584 
z
M 3366 4563 
L 3366 3988 
Q 3128 4100 2886 4159 
Q 2644 4219 2406 4219 
Q 1781 4219 1451 3797 
Q 1122 3375 1075 2522 
Q 1259 2794 1537 2939 
Q 1816 3084 2150 3084 
Q 2853 3084 3261 2657 
Q 3669 2231 3669 1497 
Q 3669 778 3244 343 
Q 2819 -91 2113 -91 
Q 1303 -91 875 529 
Q 447 1150 447 2328 
Q 447 3434 972 4092 
Q 1497 4750 2381 4750 
Q 2619 4750 2861 4703 
Q 3103 4656 3366 4563 
z
" transform="scale(0.015625)"/>
      </defs>
      <use xlink:href="#DejaVuSans-54"/>
      <use xlink:href="#DejaVuSans-65" transform="translate(44.083984 0)"/>
      <use xlink:href="#DejaVuSans-73" transform="translate(105.607422 0)"/>
      <use xlink:href="#DejaVuSans-74" transform="translate(157.707031 0)"/>
      <use xlink:href="#DejaVuSans-20" transform="translate(196.916016 0)"/>
      <use xlink:href="#DejaVuSans-4d" transform="translate(228.703125 0)"/>
      <use xlink:href="#DejaVuSans-41" transform="translate(314.982422 0)"/>
      <use xlink:href="#DejaVuSans-45" transform="translate(383.390625 0)"/>
      <use xlink:href="#DejaVuSans-20" transform="translate(446.574219 0)"/>
      <use xlink:href="#DejaVuSans-3d" transform="translate(478.361328 0)"/>
      <use xlink:href="#DejaVuSans-20" transform="translate(562.150391 0)"/>
      <use xlink:href="#DejaVuSans-30" transform="translate(593.9375 0)"/>
      <use xlink:href="#DejaVuSans-2e" transform="translate(657.560547 0)"/>
      <use xlink:href="#DejaVuSans-32" transform="translate(689.347656 0)"/>
      <use xlink:href="#DejaVuSans-38" transform="translate(752.970703 0)"/>
      <use xlink:href="#DejaVuSans-33" transform="translate(816.59375 0)"/>
      <use xlink:href="#DejaVuSans-36" transform="translate(880.216797 0)"/>
     </g>
    </g>
   </g>
  </g>
 </g>
 <defs>
  <clipPath id="p321b4b152a">
   <rect x="52.079375" y="23.837812" width="558" height="332.64"/>
  </clipPath>
 </defs>
</svg>
